<?xml version="1.0" encoding="utf-8" standalone="no"?>
<!DOCTYPE svg PUBLIC "-//W3C//DTD SVG 1.1//EN"
  "http://www.w3.org/Graphics/SVG/1.1/DTD/svg11.dtd">
<!-- Created with matplotlib (https://matplotlib.org/) -->
<svg height="390.116719pt" version="1.1" viewBox="0 0 730.022031 390.116719" width="730.022031pt" xmlns="http://www.w3.org/2000/svg" xmlns:xlink="http://www.w3.org/1999/xlink">
 <metadata>
  <rdf:RDF xmlns:cc="http://creativecommons.org/ns#" xmlns:dc="http://purl.org/dc/elements/1.1/" xmlns:rdf="http://www.w3.org/1999/02/22-rdf-syntax-ns#">
   <cc:Work>
    <dc:type rdf:resource="http://purl.org/dc/dcmitype/StillImage"/>
    <dc:date>2021-02-08T14:27:15.433177</dc:date>
    <dc:format>image/svg+xml</dc:format>
    <dc:creator>
     <cc:Agent>
      <dc:title>Matplotlib v3.3.2, https://matplotlib.org/</dc:title>
     </cc:Agent>
    </dc:creator>
   </cc:Work>
  </rdf:RDF>
 </metadata>
 <defs>
  <style type="text/css">*{stroke-linecap:butt;stroke-linejoin:round;}</style>
 </defs>
 <g id="figure_1">
  <g id="patch_1">
   <path d="M 0 390.116719 
L 730.022031 390.116719 
L 730.022031 0 
L 0 0 
z
" style="fill:#ffffff;"/>
  </g>
  <g id="axes_1">
   <g id="patch_2">
    <path d="M 53.222031 348.095625 
L 722.822031 348.095625 
L 722.822031 21.935625 
L 53.222031 21.935625 
z
" style="fill:#eaeaf2;"/>
   </g>
   <g id="matplotlib.axis_1">
    <g id="xtick_1">
     <g id="line2d_1">
      <path clip-path="url(#pef8b7b08cb)" d="M 84.037181 348.095625 
L 84.037181 21.935625 
" style="fill:none;stroke:#ffffff;stroke-linecap:round;"/>
     </g>
     <g id="text_1">
      <!-- −95 -->
      <g style="fill:#262626;" transform="translate(74.707806 365.469219)scale(0.11 -0.11)">
       <defs>
        <path d="M 52.828125 31.203125 
L 5.5625 31.203125 
L 5.5625 39.40625 
L 52.828125 39.40625 
z
" id="ArialMT-8722"/>
        <path d="M 5.46875 16.546875 
L 13.921875 17.328125 
Q 14.984375 11.375 18.015625 8.6875 
Q 21.046875 6 25.78125 6 
Q 29.828125 6 32.875 7.859375 
Q 35.9375 9.71875 37.890625 12.8125 
Q 39.84375 15.921875 41.15625 21.1875 
Q 42.484375 26.46875 42.484375 31.9375 
Q 42.484375 32.515625 42.4375 33.6875 
Q 39.796875 29.5 35.234375 26.875 
Q 30.671875 24.265625 25.34375 24.265625 
Q 16.453125 24.265625 10.296875 30.703125 
Q 4.15625 37.15625 4.15625 47.703125 
Q 4.15625 58.59375 10.578125 65.234375 
Q 17 71.875 26.65625 71.875 
Q 33.640625 71.875 39.421875 68.109375 
Q 45.21875 64.359375 48.21875 57.390625 
Q 51.21875 50.4375 51.21875 37.25 
Q 51.21875 23.53125 48.234375 15.40625 
Q 45.265625 7.28125 39.375 3.03125 
Q 33.5 -1.21875 25.59375 -1.21875 
Q 17.1875 -1.21875 11.859375 3.4375 
Q 6.546875 8.109375 5.46875 16.546875 
z
M 41.453125 48.140625 
Q 41.453125 55.71875 37.421875 60.15625 
Q 33.40625 64.59375 27.734375 64.59375 
Q 21.875 64.59375 17.53125 59.8125 
Q 13.1875 55.03125 13.1875 47.40625 
Q 13.1875 40.578125 17.3125 36.296875 
Q 21.4375 32.03125 27.484375 32.03125 
Q 33.59375 32.03125 37.515625 36.296875 
Q 41.453125 40.578125 41.453125 48.140625 
z
" id="ArialMT-57"/>
        <path d="M 4.15625 18.75 
L 13.375 19.53125 
Q 14.40625 12.796875 18.140625 9.390625 
Q 21.875 6 27.15625 6 
Q 33.5 6 37.890625 10.78125 
Q 42.28125 15.578125 42.28125 23.484375 
Q 42.28125 31 38.0625 35.34375 
Q 33.84375 39.703125 27 39.703125 
Q 22.75 39.703125 19.328125 37.765625 
Q 15.921875 35.84375 13.96875 32.765625 
L 5.71875 33.84375 
L 12.640625 70.609375 
L 48.25 70.609375 
L 48.25 62.203125 
L 19.671875 62.203125 
L 15.828125 42.96875 
Q 22.265625 47.46875 29.34375 47.46875 
Q 38.71875 47.46875 45.15625 40.96875 
Q 51.609375 34.46875 51.609375 24.265625 
Q 51.609375 14.546875 45.953125 7.46875 
Q 39.0625 -1.21875 27.15625 -1.21875 
Q 17.390625 -1.21875 11.203125 4.25 
Q 5.03125 9.71875 4.15625 18.75 
z
" id="ArialMT-53"/>
       </defs>
       <use xlink:href="#ArialMT-8722"/>
       <use x="58.398438" xlink:href="#ArialMT-57"/>
       <use x="114.013672" xlink:href="#ArialMT-53"/>
      </g>
     </g>
    </g>
    <g id="xtick_2">
     <g id="line2d_2">
      <path clip-path="url(#pef8b7b08cb)" d="M 207.368048 348.095625 
L 207.368048 21.935625 
" style="fill:none;stroke:#ffffff;stroke-linecap:round;"/>
     </g>
     <g id="text_2">
      <!-- −90 -->
      <g style="fill:#262626;" transform="translate(198.038673 365.469219)scale(0.11 -0.11)">
       <defs>
        <path d="M 4.15625 35.296875 
Q 4.15625 48 6.765625 55.734375 
Q 9.375 63.484375 14.515625 67.671875 
Q 19.671875 71.875 27.484375 71.875 
Q 33.25 71.875 37.59375 69.546875 
Q 41.9375 67.234375 44.765625 62.859375 
Q 47.609375 58.5 49.21875 52.21875 
Q 50.828125 45.953125 50.828125 35.296875 
Q 50.828125 22.703125 48.234375 14.96875 
Q 45.65625 7.234375 40.5 3 
Q 35.359375 -1.21875 27.484375 -1.21875 
Q 17.140625 -1.21875 11.234375 6.203125 
Q 4.15625 15.140625 4.15625 35.296875 
z
M 13.1875 35.296875 
Q 13.1875 17.671875 17.3125 11.828125 
Q 21.4375 6 27.484375 6 
Q 33.546875 6 37.671875 11.859375 
Q 41.796875 17.71875 41.796875 35.296875 
Q 41.796875 52.984375 37.671875 58.78125 
Q 33.546875 64.59375 27.390625 64.59375 
Q 21.34375 64.59375 17.71875 59.46875 
Q 13.1875 52.9375 13.1875 35.296875 
z
" id="ArialMT-48"/>
       </defs>
       <use xlink:href="#ArialMT-8722"/>
       <use x="58.398438" xlink:href="#ArialMT-57"/>
       <use x="114.013672" xlink:href="#ArialMT-48"/>
      </g>
     </g>
    </g>
    <g id="xtick_3">
     <g id="line2d_3">
      <path clip-path="url(#pef8b7b08cb)" d="M 330.698915 348.095625 
L 330.698915 21.935625 
" style="fill:none;stroke:#ffffff;stroke-linecap:round;"/>
     </g>
     <g id="text_3">
      <!-- −85 -->
      <g style="fill:#262626;" transform="translate(321.36954 365.469219)scale(0.11 -0.11)">
       <defs>
        <path d="M 17.671875 38.8125 
Q 12.203125 40.828125 9.5625 44.53125 
Q 6.9375 48.25 6.9375 53.421875 
Q 6.9375 61.234375 12.546875 66.546875 
Q 18.171875 71.875 27.484375 71.875 
Q 36.859375 71.875 42.578125 66.421875 
Q 48.296875 60.984375 48.296875 53.171875 
Q 48.296875 48.1875 45.671875 44.5 
Q 43.0625 40.828125 37.75 38.8125 
Q 44.34375 36.671875 47.78125 31.875 
Q 51.21875 27.09375 51.21875 20.453125 
Q 51.21875 11.28125 44.71875 5.03125 
Q 38.234375 -1.21875 27.640625 -1.21875 
Q 17.046875 -1.21875 10.546875 5.046875 
Q 4.046875 11.328125 4.046875 20.703125 
Q 4.046875 27.6875 7.59375 32.390625 
Q 11.140625 37.109375 17.671875 38.8125 
z
M 15.921875 53.71875 
Q 15.921875 48.640625 19.1875 45.40625 
Q 22.46875 42.1875 27.6875 42.1875 
Q 32.765625 42.1875 36.015625 45.375 
Q 39.265625 48.578125 39.265625 53.21875 
Q 39.265625 58.0625 35.90625 61.359375 
Q 32.5625 64.65625 27.59375 64.65625 
Q 22.5625 64.65625 19.234375 61.421875 
Q 15.921875 58.203125 15.921875 53.71875 
z
M 13.09375 20.65625 
Q 13.09375 16.890625 14.875 13.375 
Q 16.65625 9.859375 20.171875 7.921875 
Q 23.6875 6 27.734375 6 
Q 34.03125 6 38.125 10.046875 
Q 42.234375 14.109375 42.234375 20.359375 
Q 42.234375 26.703125 38.015625 30.859375 
Q 33.796875 35.015625 27.4375 35.015625 
Q 21.234375 35.015625 17.15625 30.90625 
Q 13.09375 26.8125 13.09375 20.65625 
z
" id="ArialMT-56"/>
       </defs>
       <use xlink:href="#ArialMT-8722"/>
       <use x="58.398438" xlink:href="#ArialMT-56"/>
       <use x="114.013672" xlink:href="#ArialMT-53"/>
      </g>
     </g>
    </g>
    <g id="xtick_4">
     <g id="line2d_4">
      <path clip-path="url(#pef8b7b08cb)" d="M 454.029781 348.095625 
L 454.029781 21.935625 
" style="fill:none;stroke:#ffffff;stroke-linecap:round;"/>
     </g>
     <g id="text_4">
      <!-- −80 -->
      <g style="fill:#262626;" transform="translate(444.700406 365.469219)scale(0.11 -0.11)">
       <use xlink:href="#ArialMT-8722"/>
       <use x="58.398438" xlink:href="#ArialMT-56"/>
       <use x="114.013672" xlink:href="#ArialMT-48"/>
      </g>
     </g>
    </g>
    <g id="xtick_5">
     <g id="line2d_5">
      <path clip-path="url(#pef8b7b08cb)" d="M 577.360648 348.095625 
L 577.360648 21.935625 
" style="fill:none;stroke:#ffffff;stroke-linecap:round;"/>
     </g>
     <g id="text_5">
      <!-- −75 -->
      <g style="fill:#262626;" transform="translate(568.031273 365.469219)scale(0.11 -0.11)">
       <defs>
        <path d="M 4.734375 62.203125 
L 4.734375 70.65625 
L 51.078125 70.65625 
L 51.078125 63.8125 
Q 44.234375 56.546875 37.515625 44.484375 
Q 30.8125 32.421875 27.15625 19.671875 
Q 24.515625 10.6875 23.78125 0 
L 14.75 0 
Q 14.890625 8.453125 18.0625 20.40625 
Q 21.234375 32.375 27.171875 43.484375 
Q 33.109375 54.59375 39.796875 62.203125 
z
" id="ArialMT-55"/>
       </defs>
       <use xlink:href="#ArialMT-8722"/>
       <use x="58.398438" xlink:href="#ArialMT-55"/>
       <use x="114.013672" xlink:href="#ArialMT-53"/>
      </g>
     </g>
    </g>
    <g id="xtick_6">
     <g id="line2d_6">
      <path clip-path="url(#pef8b7b08cb)" d="M 700.691515 348.095625 
L 700.691515 21.935625 
" style="fill:none;stroke:#ffffff;stroke-linecap:round;"/>
     </g>
     <g id="text_6">
      <!-- −70 -->
      <g style="fill:#262626;" transform="translate(691.36214 365.469219)scale(0.11 -0.11)">
       <use xlink:href="#ArialMT-8722"/>
       <use x="58.398438" xlink:href="#ArialMT-55"/>
       <use x="114.013672" xlink:href="#ArialMT-48"/>
      </g>
     </g>
    </g>
    <g id="text_7">
     <!-- RSSI Value (Higher Values Stronger) -->
     <g style="fill:#262626;" transform="translate(289.864844 380.391094)scale(0.12 -0.12)">
      <defs>
       <path d="M 7.859375 0 
L 7.859375 71.578125 
L 39.59375 71.578125 
Q 49.171875 71.578125 54.140625 69.640625 
Q 59.125 67.71875 62.109375 62.828125 
Q 65.09375 57.953125 65.09375 52.046875 
Q 65.09375 44.4375 60.15625 39.203125 
Q 55.21875 33.984375 44.921875 32.5625 
Q 48.6875 30.765625 50.640625 29 
Q 54.78125 25.203125 58.5 19.484375 
L 70.953125 0 
L 59.03125 0 
L 49.5625 14.890625 
Q 45.40625 21.34375 42.71875 24.75 
Q 40.046875 28.171875 37.921875 29.53125 
Q 35.796875 30.90625 33.59375 31.453125 
Q 31.984375 31.78125 28.328125 31.78125 
L 17.328125 31.78125 
L 17.328125 0 
z
M 17.328125 39.984375 
L 37.703125 39.984375 
Q 44.1875 39.984375 47.84375 41.328125 
Q 51.515625 42.671875 53.421875 45.625 
Q 55.328125 48.578125 55.328125 52.046875 
Q 55.328125 57.125 51.640625 60.390625 
Q 47.953125 63.671875 39.984375 63.671875 
L 17.328125 63.671875 
z
" id="ArialMT-82"/>
       <path d="M 4.5 23 
L 13.421875 23.78125 
Q 14.0625 18.40625 16.375 14.96875 
Q 18.703125 11.53125 23.578125 9.40625 
Q 28.46875 7.28125 34.578125 7.28125 
Q 39.984375 7.28125 44.140625 8.890625 
Q 48.296875 10.5 50.3125 13.296875 
Q 52.34375 16.109375 52.34375 19.4375 
Q 52.34375 22.796875 50.390625 25.3125 
Q 48.4375 27.828125 43.953125 29.546875 
Q 41.0625 30.671875 31.203125 33.03125 
Q 21.34375 35.40625 17.390625 37.5 
Q 12.25 40.1875 9.734375 44.15625 
Q 7.234375 48.140625 7.234375 53.078125 
Q 7.234375 58.5 10.296875 63.203125 
Q 13.375 67.921875 19.28125 70.359375 
Q 25.203125 72.796875 32.421875 72.796875 
Q 40.375 72.796875 46.453125 70.234375 
Q 52.546875 67.671875 55.8125 62.6875 
Q 59.078125 57.71875 59.328125 51.421875 
L 50.25 50.734375 
Q 49.515625 57.515625 45.28125 60.984375 
Q 41.0625 64.453125 32.8125 64.453125 
Q 24.21875 64.453125 20.28125 61.296875 
Q 16.359375 58.15625 16.359375 53.71875 
Q 16.359375 49.859375 19.140625 47.359375 
Q 21.875 44.875 33.421875 42.265625 
Q 44.96875 39.65625 49.265625 37.703125 
Q 55.515625 34.8125 58.484375 30.390625 
Q 61.46875 25.984375 61.46875 20.21875 
Q 61.46875 14.5 58.203125 9.4375 
Q 54.9375 4.390625 48.796875 1.578125 
Q 42.671875 -1.21875 35.015625 -1.21875 
Q 25.296875 -1.21875 18.71875 1.609375 
Q 12.15625 4.4375 8.421875 10.125 
Q 4.6875 15.828125 4.5 23 
z
" id="ArialMT-83"/>
       <path d="M 9.328125 0 
L 9.328125 71.578125 
L 18.796875 71.578125 
L 18.796875 0 
z
" id="ArialMT-73"/>
       <path id="ArialMT-32"/>
       <path d="M 28.171875 0 
L 0.4375 71.578125 
L 10.6875 71.578125 
L 29.296875 19.578125 
Q 31.546875 13.328125 33.0625 7.859375 
Q 34.71875 13.71875 36.921875 19.578125 
L 56.25 71.578125 
L 65.921875 71.578125 
L 37.890625 0 
z
" id="ArialMT-86"/>
       <path d="M 40.4375 6.390625 
Q 35.546875 2.25 31.03125 0.53125 
Q 26.515625 -1.171875 21.34375 -1.171875 
Q 12.796875 -1.171875 8.203125 3 
Q 3.609375 7.171875 3.609375 13.671875 
Q 3.609375 17.484375 5.34375 20.625 
Q 7.078125 23.78125 9.890625 25.6875 
Q 12.703125 27.59375 16.21875 28.5625 
Q 18.796875 29.25 24.03125 29.890625 
Q 34.671875 31.15625 39.703125 32.90625 
Q 39.75 34.71875 39.75 35.203125 
Q 39.75 40.578125 37.25 42.78125 
Q 33.890625 45.75 27.25 45.75 
Q 21.046875 45.75 18.09375 43.578125 
Q 15.140625 41.40625 13.71875 35.890625 
L 5.125 37.0625 
Q 6.296875 42.578125 8.984375 45.96875 
Q 11.671875 49.359375 16.75 51.1875 
Q 21.828125 53.03125 28.515625 53.03125 
Q 35.15625 53.03125 39.296875 51.46875 
Q 43.453125 49.90625 45.40625 47.53125 
Q 47.359375 45.171875 48.140625 41.546875 
Q 48.578125 39.3125 48.578125 33.453125 
L 48.578125 21.734375 
Q 48.578125 9.46875 49.140625 6.21875 
Q 49.703125 2.984375 51.375 0 
L 42.1875 0 
Q 40.828125 2.734375 40.4375 6.390625 
z
M 39.703125 26.03125 
Q 34.90625 24.078125 25.34375 22.703125 
Q 19.921875 21.921875 17.671875 20.9375 
Q 15.4375 19.96875 14.203125 18.09375 
Q 12.984375 16.21875 12.984375 13.921875 
Q 12.984375 10.40625 15.640625 8.0625 
Q 18.3125 5.71875 23.4375 5.71875 
Q 28.515625 5.71875 32.46875 7.9375 
Q 36.421875 10.15625 38.28125 14.015625 
Q 39.703125 17 39.703125 22.796875 
z
" id="ArialMT-97"/>
       <path d="M 6.390625 0 
L 6.390625 71.578125 
L 15.1875 71.578125 
L 15.1875 0 
z
" id="ArialMT-108"/>
       <path d="M 40.578125 0 
L 40.578125 7.625 
Q 34.515625 -1.171875 24.125 -1.171875 
Q 19.53125 -1.171875 15.546875 0.578125 
Q 11.578125 2.34375 9.640625 5 
Q 7.71875 7.671875 6.9375 11.53125 
Q 6.390625 14.109375 6.390625 19.734375 
L 6.390625 51.859375 
L 15.1875 51.859375 
L 15.1875 23.09375 
Q 15.1875 16.21875 15.71875 13.8125 
Q 16.546875 10.359375 19.234375 8.375 
Q 21.921875 6.390625 25.875 6.390625 
Q 29.828125 6.390625 33.296875 8.421875 
Q 36.765625 10.453125 38.203125 13.9375 
Q 39.65625 17.4375 39.65625 24.078125 
L 39.65625 51.859375 
L 48.4375 51.859375 
L 48.4375 0 
z
" id="ArialMT-117"/>
       <path d="M 42.09375 16.703125 
L 51.171875 15.578125 
Q 49.03125 7.625 43.21875 3.21875 
Q 37.40625 -1.171875 28.375 -1.171875 
Q 17 -1.171875 10.328125 5.828125 
Q 3.65625 12.84375 3.65625 25.484375 
Q 3.65625 38.578125 10.390625 45.796875 
Q 17.140625 53.03125 27.875 53.03125 
Q 38.28125 53.03125 44.875 45.953125 
Q 51.46875 38.875 51.46875 26.03125 
Q 51.46875 25.25 51.421875 23.6875 
L 12.75 23.6875 
Q 13.234375 15.140625 17.578125 10.59375 
Q 21.921875 6.0625 28.421875 6.0625 
Q 33.25 6.0625 36.671875 8.59375 
Q 40.09375 11.140625 42.09375 16.703125 
z
M 13.234375 30.90625 
L 42.1875 30.90625 
Q 41.609375 37.453125 38.875 40.71875 
Q 34.671875 45.796875 27.984375 45.796875 
Q 21.921875 45.796875 17.796875 41.75 
Q 13.671875 37.703125 13.234375 30.90625 
z
" id="ArialMT-101"/>
       <path d="M 23.390625 -21.046875 
Q 16.109375 -11.859375 11.078125 0.4375 
Q 6.0625 12.75 6.0625 25.921875 
Q 6.0625 37.546875 9.8125 48.1875 
Q 14.203125 60.546875 23.390625 72.796875 
L 29.6875 72.796875 
Q 23.78125 62.640625 21.875 58.296875 
Q 18.890625 51.5625 17.1875 44.234375 
Q 15.09375 35.109375 15.09375 25.875 
Q 15.09375 2.390625 29.6875 -21.046875 
z
" id="ArialMT-40"/>
       <path d="M 8.015625 0 
L 8.015625 71.578125 
L 17.484375 71.578125 
L 17.484375 42.1875 
L 54.6875 42.1875 
L 54.6875 71.578125 
L 64.15625 71.578125 
L 64.15625 0 
L 54.6875 0 
L 54.6875 33.734375 
L 17.484375 33.734375 
L 17.484375 0 
z
" id="ArialMT-72"/>
       <path d="M 6.640625 61.46875 
L 6.640625 71.578125 
L 15.4375 71.578125 
L 15.4375 61.46875 
z
M 6.640625 0 
L 6.640625 51.859375 
L 15.4375 51.859375 
L 15.4375 0 
z
" id="ArialMT-105"/>
       <path d="M 4.984375 -4.296875 
L 13.53125 -5.5625 
Q 14.0625 -9.515625 16.5 -11.328125 
Q 19.78125 -13.765625 25.4375 -13.765625 
Q 31.546875 -13.765625 34.859375 -11.328125 
Q 38.1875 -8.890625 39.359375 -4.5 
Q 40.046875 -1.8125 39.984375 6.78125 
Q 34.234375 0 25.640625 0 
Q 14.9375 0 9.078125 7.71875 
Q 3.21875 15.4375 3.21875 26.21875 
Q 3.21875 33.640625 5.90625 39.90625 
Q 8.59375 46.1875 13.6875 49.609375 
Q 18.796875 53.03125 25.6875 53.03125 
Q 34.859375 53.03125 40.828125 45.609375 
L 40.828125 51.859375 
L 48.921875 51.859375 
L 48.921875 7.03125 
Q 48.921875 -5.078125 46.453125 -10.125 
Q 44 -15.1875 38.640625 -18.109375 
Q 33.296875 -21.046875 25.484375 -21.046875 
Q 16.21875 -21.046875 10.5 -16.875 
Q 4.78125 -12.703125 4.984375 -4.296875 
z
M 12.25 26.859375 
Q 12.25 16.65625 16.296875 11.96875 
Q 20.359375 7.28125 26.46875 7.28125 
Q 32.515625 7.28125 36.609375 11.9375 
Q 40.71875 16.609375 40.71875 26.5625 
Q 40.71875 36.078125 36.5 40.90625 
Q 32.28125 45.75 26.3125 45.75 
Q 20.453125 45.75 16.34375 40.984375 
Q 12.25 36.234375 12.25 26.859375 
z
" id="ArialMT-103"/>
       <path d="M 6.59375 0 
L 6.59375 71.578125 
L 15.375 71.578125 
L 15.375 45.90625 
Q 21.53125 53.03125 30.90625 53.03125 
Q 36.671875 53.03125 40.921875 50.75 
Q 45.171875 48.484375 47 44.484375 
Q 48.828125 40.484375 48.828125 32.859375 
L 48.828125 0 
L 40.046875 0 
L 40.046875 32.859375 
Q 40.046875 39.453125 37.1875 42.453125 
Q 34.328125 45.453125 29.109375 45.453125 
Q 25.203125 45.453125 21.75 43.421875 
Q 18.3125 41.40625 16.84375 37.9375 
Q 15.375 34.46875 15.375 28.375 
L 15.375 0 
z
" id="ArialMT-104"/>
       <path d="M 6.5 0 
L 6.5 51.859375 
L 14.40625 51.859375 
L 14.40625 44 
Q 17.4375 49.515625 20 51.265625 
Q 22.5625 53.03125 25.640625 53.03125 
Q 30.078125 53.03125 34.671875 50.203125 
L 31.640625 42.046875 
Q 28.421875 43.953125 25.203125 43.953125 
Q 22.3125 43.953125 20.015625 42.21875 
Q 17.71875 40.484375 16.75 37.40625 
Q 15.28125 32.71875 15.28125 27.15625 
L 15.28125 0 
z
" id="ArialMT-114"/>
       <path d="M 3.078125 15.484375 
L 11.765625 16.84375 
Q 12.5 11.625 15.84375 8.84375 
Q 19.1875 6.0625 25.203125 6.0625 
Q 31.25 6.0625 34.171875 8.515625 
Q 37.109375 10.984375 37.109375 14.3125 
Q 37.109375 17.28125 34.515625 19 
Q 32.71875 20.171875 25.53125 21.96875 
Q 15.875 24.421875 12.140625 26.203125 
Q 8.40625 27.984375 6.46875 31.125 
Q 4.546875 34.28125 4.546875 38.09375 
Q 4.546875 41.546875 6.125 44.5 
Q 7.71875 47.46875 10.453125 49.421875 
Q 12.5 50.921875 16.03125 51.96875 
Q 19.578125 53.03125 23.640625 53.03125 
Q 29.734375 53.03125 34.34375 51.265625 
Q 38.96875 49.515625 41.15625 46.5 
Q 43.359375 43.5 44.1875 38.484375 
L 35.59375 37.3125 
Q 35.015625 41.3125 32.203125 43.546875 
Q 29.390625 45.796875 24.265625 45.796875 
Q 18.21875 45.796875 15.625 43.796875 
Q 13.03125 41.796875 13.03125 39.109375 
Q 13.03125 37.40625 14.109375 36.03125 
Q 15.1875 34.625 17.484375 33.6875 
Q 18.796875 33.203125 25.25 31.453125 
Q 34.578125 28.953125 38.25 27.359375 
Q 41.9375 25.78125 44.03125 22.75 
Q 46.140625 19.734375 46.140625 15.234375 
Q 46.140625 10.84375 43.578125 6.953125 
Q 41.015625 3.078125 36.171875 0.953125 
Q 31.34375 -1.171875 25.25 -1.171875 
Q 15.140625 -1.171875 9.84375 3.03125 
Q 4.546875 7.234375 3.078125 15.484375 
z
" id="ArialMT-115"/>
       <path d="M 25.78125 7.859375 
L 27.046875 0.09375 
Q 23.34375 -0.6875 20.40625 -0.6875 
Q 15.625 -0.6875 12.984375 0.828125 
Q 10.359375 2.34375 9.28125 4.8125 
Q 8.203125 7.28125 8.203125 15.1875 
L 8.203125 45.015625 
L 1.765625 45.015625 
L 1.765625 51.859375 
L 8.203125 51.859375 
L 8.203125 64.703125 
L 16.9375 69.96875 
L 16.9375 51.859375 
L 25.78125 51.859375 
L 25.78125 45.015625 
L 16.9375 45.015625 
L 16.9375 14.703125 
Q 16.9375 10.9375 17.40625 9.859375 
Q 17.875 8.796875 18.921875 8.15625 
Q 19.96875 7.515625 21.921875 7.515625 
Q 23.390625 7.515625 25.78125 7.859375 
z
" id="ArialMT-116"/>
       <path d="M 3.328125 25.921875 
Q 3.328125 40.328125 11.328125 47.265625 
Q 18.015625 53.03125 27.640625 53.03125 
Q 38.328125 53.03125 45.109375 46.015625 
Q 51.90625 39.015625 51.90625 26.65625 
Q 51.90625 16.65625 48.90625 10.90625 
Q 45.90625 5.171875 40.15625 2 
Q 34.421875 -1.171875 27.640625 -1.171875 
Q 16.75 -1.171875 10.03125 5.8125 
Q 3.328125 12.796875 3.328125 25.921875 
z
M 12.359375 25.921875 
Q 12.359375 15.96875 16.703125 11.015625 
Q 21.046875 6.0625 27.640625 6.0625 
Q 34.1875 6.0625 38.53125 11.03125 
Q 42.875 16.015625 42.875 26.21875 
Q 42.875 35.84375 38.5 40.796875 
Q 34.125 45.75 27.640625 45.75 
Q 21.046875 45.75 16.703125 40.8125 
Q 12.359375 35.890625 12.359375 25.921875 
z
" id="ArialMT-111"/>
       <path d="M 6.59375 0 
L 6.59375 51.859375 
L 14.5 51.859375 
L 14.5 44.484375 
Q 20.21875 53.03125 31 53.03125 
Q 35.6875 53.03125 39.625 51.34375 
Q 43.5625 49.65625 45.515625 46.921875 
Q 47.46875 44.1875 48.25 40.4375 
Q 48.734375 37.984375 48.734375 31.890625 
L 48.734375 0 
L 39.9375 0 
L 39.9375 31.546875 
Q 39.9375 36.921875 38.90625 39.578125 
Q 37.890625 42.234375 35.28125 43.8125 
Q 32.671875 45.40625 29.15625 45.40625 
Q 23.53125 45.40625 19.453125 41.84375 
Q 15.375 38.28125 15.375 28.328125 
L 15.375 0 
z
" id="ArialMT-110"/>
       <path d="M 12.359375 -21.046875 
L 6.0625 -21.046875 
Q 20.65625 2.390625 20.65625 25.875 
Q 20.65625 35.0625 18.5625 44.09375 
Q 16.890625 51.421875 13.921875 58.15625 
Q 12.015625 62.546875 6.0625 72.796875 
L 12.359375 72.796875 
Q 21.53125 60.546875 25.921875 48.1875 
Q 29.6875 37.546875 29.6875 25.921875 
Q 29.6875 12.75 24.625 0.4375 
Q 19.578125 -11.859375 12.359375 -21.046875 
z
" id="ArialMT-41"/>
      </defs>
      <use xlink:href="#ArialMT-82"/>
      <use x="72.216797" xlink:href="#ArialMT-83"/>
      <use x="138.916016" xlink:href="#ArialMT-83"/>
      <use x="205.615234" xlink:href="#ArialMT-73"/>
      <use x="233.398438" xlink:href="#ArialMT-32"/>
      <use x="261.181641" xlink:href="#ArialMT-86"/>
      <use x="320.505859" xlink:href="#ArialMT-97"/>
      <use x="376.121094" xlink:href="#ArialMT-108"/>
      <use x="398.337891" xlink:href="#ArialMT-117"/>
      <use x="453.953125" xlink:href="#ArialMT-101"/>
      <use x="509.568359" xlink:href="#ArialMT-32"/>
      <use x="537.351562" xlink:href="#ArialMT-40"/>
      <use x="570.652344" xlink:href="#ArialMT-72"/>
      <use x="642.869141" xlink:href="#ArialMT-105"/>
      <use x="665.085938" xlink:href="#ArialMT-103"/>
      <use x="720.701172" xlink:href="#ArialMT-104"/>
      <use x="776.316406" xlink:href="#ArialMT-101"/>
      <use x="831.931641" xlink:href="#ArialMT-114"/>
      <use x="865.232422" xlink:href="#ArialMT-32"/>
      <use x="893.015625" xlink:href="#ArialMT-86"/>
      <use x="952.339844" xlink:href="#ArialMT-97"/>
      <use x="1007.955078" xlink:href="#ArialMT-108"/>
      <use x="1030.171875" xlink:href="#ArialMT-117"/>
      <use x="1085.787109" xlink:href="#ArialMT-101"/>
      <use x="1141.402344" xlink:href="#ArialMT-115"/>
      <use x="1191.402344" xlink:href="#ArialMT-32"/>
      <use x="1219.185547" xlink:href="#ArialMT-83"/>
      <use x="1285.884766" xlink:href="#ArialMT-116"/>
      <use x="1313.667969" xlink:href="#ArialMT-114"/>
      <use x="1346.96875" xlink:href="#ArialMT-111"/>
      <use x="1402.583984" xlink:href="#ArialMT-110"/>
      <use x="1458.199219" xlink:href="#ArialMT-103"/>
      <use x="1513.814453" xlink:href="#ArialMT-101"/>
      <use x="1569.429688" xlink:href="#ArialMT-114"/>
      <use x="1602.730469" xlink:href="#ArialMT-41"/>
     </g>
    </g>
   </g>
   <g id="matplotlib.axis_2">
    <g id="ytick_1">
     <g id="line2d_7">
      <path clip-path="url(#pef8b7b08cb)" d="M 53.222031 348.095625 
L 722.822031 348.095625 
" style="fill:none;stroke:#ffffff;stroke-linecap:round;"/>
     </g>
     <g id="text_8">
      <!-- 0.00 -->
      <g style="fill:#262626;" transform="translate(22.315 352.032422)scale(0.11 -0.11)">
       <defs>
        <path d="M 9.078125 0 
L 9.078125 10.015625 
L 19.09375 10.015625 
L 19.09375 0 
z
" id="ArialMT-46"/>
       </defs>
       <use xlink:href="#ArialMT-48"/>
       <use x="55.615234" xlink:href="#ArialMT-46"/>
       <use x="83.398438" xlink:href="#ArialMT-48"/>
       <use x="139.013672" xlink:href="#ArialMT-48"/>
      </g>
     </g>
    </g>
    <g id="ytick_2">
     <g id="line2d_8">
      <path clip-path="url(#pef8b7b08cb)" d="M 53.222031 287.085635 
L 722.822031 287.085635 
" style="fill:none;stroke:#ffffff;stroke-linecap:round;"/>
     </g>
     <g id="text_9">
      <!-- 0.02 -->
      <g style="fill:#262626;" transform="translate(22.315 291.022432)scale(0.11 -0.11)">
       <defs>
        <path d="M 50.34375 8.453125 
L 50.34375 0 
L 3.03125 0 
Q 2.9375 3.171875 4.046875 6.109375 
Q 5.859375 10.9375 9.828125 15.625 
Q 13.8125 20.3125 21.34375 26.46875 
Q 33.015625 36.03125 37.109375 41.625 
Q 41.21875 47.21875 41.21875 52.203125 
Q 41.21875 57.421875 37.46875 61 
Q 33.734375 64.59375 27.734375 64.59375 
Q 21.390625 64.59375 17.578125 60.78125 
Q 13.765625 56.984375 13.71875 50.25 
L 4.6875 51.171875 
Q 5.609375 61.28125 11.65625 66.578125 
Q 17.71875 71.875 27.9375 71.875 
Q 38.234375 71.875 44.234375 66.15625 
Q 50.25 60.453125 50.25 52 
Q 50.25 47.703125 48.484375 43.546875 
Q 46.734375 39.40625 42.65625 34.8125 
Q 38.578125 30.21875 29.109375 22.21875 
Q 21.1875 15.578125 18.9375 13.203125 
Q 16.703125 10.84375 15.234375 8.453125 
z
" id="ArialMT-50"/>
       </defs>
       <use xlink:href="#ArialMT-48"/>
       <use x="55.615234" xlink:href="#ArialMT-46"/>
       <use x="83.398438" xlink:href="#ArialMT-48"/>
       <use x="139.013672" xlink:href="#ArialMT-50"/>
      </g>
     </g>
    </g>
    <g id="ytick_3">
     <g id="line2d_9">
      <path clip-path="url(#pef8b7b08cb)" d="M 53.222031 226.075646 
L 722.822031 226.075646 
" style="fill:none;stroke:#ffffff;stroke-linecap:round;"/>
     </g>
     <g id="text_10">
      <!-- 0.04 -->
      <g style="fill:#262626;" transform="translate(22.315 230.012442)scale(0.11 -0.11)">
       <defs>
        <path d="M 32.328125 0 
L 32.328125 17.140625 
L 1.265625 17.140625 
L 1.265625 25.203125 
L 33.9375 71.578125 
L 41.109375 71.578125 
L 41.109375 25.203125 
L 50.78125 25.203125 
L 50.78125 17.140625 
L 41.109375 17.140625 
L 41.109375 0 
z
M 32.328125 25.203125 
L 32.328125 57.46875 
L 9.90625 25.203125 
z
" id="ArialMT-52"/>
       </defs>
       <use xlink:href="#ArialMT-48"/>
       <use x="55.615234" xlink:href="#ArialMT-46"/>
       <use x="83.398438" xlink:href="#ArialMT-48"/>
       <use x="139.013672" xlink:href="#ArialMT-52"/>
      </g>
     </g>
    </g>
    <g id="ytick_4">
     <g id="line2d_10">
      <path clip-path="url(#pef8b7b08cb)" d="M 53.222031 165.065656 
L 722.822031 165.065656 
" style="fill:none;stroke:#ffffff;stroke-linecap:round;"/>
     </g>
     <g id="text_11">
      <!-- 0.06 -->
      <g style="fill:#262626;" transform="translate(22.315 169.002453)scale(0.11 -0.11)">
       <defs>
        <path d="M 49.75 54.046875 
L 41.015625 53.375 
Q 39.84375 58.546875 37.703125 60.890625 
Q 34.125 64.65625 28.90625 64.65625 
Q 24.703125 64.65625 21.53125 62.3125 
Q 17.390625 59.28125 14.984375 53.46875 
Q 12.59375 47.65625 12.5 36.921875 
Q 15.671875 41.75 20.265625 44.09375 
Q 24.859375 46.4375 29.890625 46.4375 
Q 38.671875 46.4375 44.84375 39.96875 
Q 51.03125 33.5 51.03125 23.25 
Q 51.03125 16.5 48.125 10.71875 
Q 45.21875 4.9375 40.140625 1.859375 
Q 35.0625 -1.21875 28.609375 -1.21875 
Q 17.625 -1.21875 10.6875 6.859375 
Q 3.765625 14.9375 3.765625 33.5 
Q 3.765625 54.25 11.421875 63.671875 
Q 18.109375 71.875 29.4375 71.875 
Q 37.890625 71.875 43.28125 67.140625 
Q 48.6875 62.40625 49.75 54.046875 
z
M 13.875 23.1875 
Q 13.875 18.65625 15.796875 14.5 
Q 17.71875 10.359375 21.1875 8.171875 
Q 24.65625 6 28.46875 6 
Q 34.03125 6 38.03125 10.484375 
Q 42.046875 14.984375 42.046875 22.703125 
Q 42.046875 30.125 38.078125 34.390625 
Q 34.125 38.671875 28.125 38.671875 
Q 22.171875 38.671875 18.015625 34.390625 
Q 13.875 30.125 13.875 23.1875 
z
" id="ArialMT-54"/>
       </defs>
       <use xlink:href="#ArialMT-48"/>
       <use x="55.615234" xlink:href="#ArialMT-46"/>
       <use x="83.398438" xlink:href="#ArialMT-48"/>
       <use x="139.013672" xlink:href="#ArialMT-54"/>
      </g>
     </g>
    </g>
    <g id="ytick_5">
     <g id="line2d_11">
      <path clip-path="url(#pef8b7b08cb)" d="M 53.222031 104.055666 
L 722.822031 104.055666 
" style="fill:none;stroke:#ffffff;stroke-linecap:round;"/>
     </g>
     <g id="text_12">
      <!-- 0.08 -->
      <g style="fill:#262626;" transform="translate(22.315 107.992463)scale(0.11 -0.11)">
       <use xlink:href="#ArialMT-48"/>
       <use x="55.615234" xlink:href="#ArialMT-46"/>
       <use x="83.398438" xlink:href="#ArialMT-48"/>
       <use x="139.013672" xlink:href="#ArialMT-56"/>
      </g>
     </g>
    </g>
    <g id="ytick_6">
     <g id="line2d_12">
      <path clip-path="url(#pef8b7b08cb)" d="M 53.222031 43.045677 
L 722.822031 43.045677 
" style="fill:none;stroke:#ffffff;stroke-linecap:round;"/>
     </g>
     <g id="text_13">
      <!-- 0.10 -->
      <g style="fill:#262626;" transform="translate(22.315 46.982473)scale(0.11 -0.11)">
       <defs>
        <path d="M 37.25 0 
L 28.46875 0 
L 28.46875 56 
Q 25.296875 52.984375 20.140625 49.953125 
Q 14.984375 46.921875 10.890625 45.40625 
L 10.890625 53.90625 
Q 18.265625 57.375 23.78125 62.296875 
Q 29.296875 67.234375 31.59375 71.875 
L 37.25 71.875 
z
" id="ArialMT-49"/>
       </defs>
       <use xlink:href="#ArialMT-48"/>
       <use x="55.615234" xlink:href="#ArialMT-46"/>
       <use x="83.398438" xlink:href="#ArialMT-49"/>
       <use x="139.013672" xlink:href="#ArialMT-48"/>
      </g>
     </g>
    </g>
    <g id="text_14">
     <!-- Density Estimation -->
     <g style="fill:#262626;" transform="translate(15.789375 234.698438)rotate(-90)scale(0.12 -0.12)">
      <defs>
       <path d="M 7.71875 0 
L 7.71875 71.578125 
L 32.375 71.578125 
Q 40.71875 71.578125 45.125 70.5625 
Q 51.265625 69.140625 55.609375 65.4375 
Q 61.28125 60.640625 64.078125 53.1875 
Q 66.890625 45.75 66.890625 36.1875 
Q 66.890625 28.03125 64.984375 21.734375 
Q 63.09375 15.4375 60.109375 11.296875 
Q 57.125 7.171875 53.578125 4.796875 
Q 50.046875 2.4375 45.046875 1.21875 
Q 40.046875 0 33.546875 0 
z
M 17.1875 8.453125 
L 32.46875 8.453125 
Q 39.546875 8.453125 43.578125 9.765625 
Q 47.609375 11.078125 50 13.484375 
Q 53.375 16.84375 55.25 22.53125 
Q 57.125 28.21875 57.125 36.328125 
Q 57.125 47.5625 53.4375 53.59375 
Q 49.75 59.625 44.484375 61.671875 
Q 40.671875 63.140625 32.234375 63.140625 
L 17.1875 63.140625 
z
" id="ArialMT-68"/>
       <path d="M 6.203125 -19.96875 
L 5.21875 -11.71875 
Q 8.109375 -12.5 10.25 -12.5 
Q 13.1875 -12.5 14.9375 -11.515625 
Q 16.703125 -10.546875 17.828125 -8.796875 
Q 18.65625 -7.46875 20.515625 -2.25 
Q 20.75 -1.515625 21.296875 -0.09375 
L 1.609375 51.859375 
L 11.078125 51.859375 
L 21.875 21.828125 
Q 23.96875 16.109375 25.640625 9.8125 
Q 27.15625 15.875 29.25 21.625 
L 40.328125 51.859375 
L 49.125 51.859375 
L 29.390625 -0.875 
Q 26.21875 -9.421875 24.46875 -12.640625 
Q 22.125 -17 19.09375 -19.015625 
Q 16.0625 -21.046875 11.859375 -21.046875 
Q 9.328125 -21.046875 6.203125 -19.96875 
z
" id="ArialMT-121"/>
       <path d="M 7.90625 0 
L 7.90625 71.578125 
L 59.671875 71.578125 
L 59.671875 63.140625 
L 17.390625 63.140625 
L 17.390625 41.21875 
L 56.984375 41.21875 
L 56.984375 32.8125 
L 17.390625 32.8125 
L 17.390625 8.453125 
L 61.328125 8.453125 
L 61.328125 0 
z
" id="ArialMT-69"/>
       <path d="M 6.59375 0 
L 6.59375 51.859375 
L 14.453125 51.859375 
L 14.453125 44.578125 
Q 16.890625 48.390625 20.9375 50.703125 
Q 25 53.03125 30.171875 53.03125 
Q 35.9375 53.03125 39.625 50.640625 
Q 43.3125 48.25 44.828125 43.953125 
Q 50.984375 53.03125 60.84375 53.03125 
Q 68.5625 53.03125 72.703125 48.75 
Q 76.859375 44.484375 76.859375 35.59375 
L 76.859375 0 
L 68.109375 0 
L 68.109375 32.671875 
Q 68.109375 37.9375 67.25 40.25 
Q 66.40625 42.578125 64.15625 43.984375 
Q 61.921875 45.40625 58.890625 45.40625 
Q 53.421875 45.40625 49.796875 41.765625 
Q 46.1875 38.140625 46.1875 30.125 
L 46.1875 0 
L 37.40625 0 
L 37.40625 33.6875 
Q 37.40625 39.546875 35.25 42.46875 
Q 33.109375 45.40625 28.21875 45.40625 
Q 24.515625 45.40625 21.359375 43.453125 
Q 18.21875 41.5 16.796875 37.734375 
Q 15.375 33.984375 15.375 26.90625 
L 15.375 0 
z
" id="ArialMT-109"/>
      </defs>
      <use xlink:href="#ArialMT-68"/>
      <use x="72.216797" xlink:href="#ArialMT-101"/>
      <use x="127.832031" xlink:href="#ArialMT-110"/>
      <use x="183.447266" xlink:href="#ArialMT-115"/>
      <use x="233.447266" xlink:href="#ArialMT-105"/>
      <use x="255.664062" xlink:href="#ArialMT-116"/>
      <use x="283.447266" xlink:href="#ArialMT-121"/>
      <use x="333.447266" xlink:href="#ArialMT-32"/>
      <use x="361.230469" xlink:href="#ArialMT-69"/>
      <use x="427.929688" xlink:href="#ArialMT-115"/>
      <use x="477.929688" xlink:href="#ArialMT-116"/>
      <use x="505.712891" xlink:href="#ArialMT-105"/>
      <use x="527.929688" xlink:href="#ArialMT-109"/>
      <use x="611.230469" xlink:href="#ArialMT-97"/>
      <use x="666.845703" xlink:href="#ArialMT-116"/>
      <use x="694.628906" xlink:href="#ArialMT-105"/>
      <use x="716.845703" xlink:href="#ArialMT-111"/>
      <use x="772.460938" xlink:href="#ArialMT-110"/>
     </g>
    </g>
   </g>
   <g id="PolyCollection_1">
    <defs>
     <path d="M 83.658395 -42.05323 
L 83.658395 -42.021094 
L 84.653807 -42.021094 
L 85.649219 -42.021094 
L 86.64463 -42.021094 
L 87.640042 -42.021094 
L 88.635454 -42.021094 
L 89.630866 -42.021094 
L 90.626278 -42.021094 
L 91.62169 -42.021094 
L 92.617102 -42.021094 
L 93.612513 -42.021094 
L 94.607925 -42.021094 
L 95.603337 -42.021094 
L 96.598749 -42.021094 
L 97.594161 -42.021094 
L 98.589573 -42.021094 
L 99.584985 -42.021094 
L 100.580396 -42.021094 
L 101.575808 -42.021094 
L 102.57122 -42.021094 
L 103.566632 -42.021094 
L 104.562044 -42.021094 
L 105.557456 -42.021094 
L 106.552868 -42.021094 
L 107.548279 -42.021094 
L 108.543691 -42.021094 
L 109.539103 -42.021094 
L 110.534515 -42.021094 
L 111.529927 -42.021094 
L 112.525339 -42.021094 
L 113.520751 -42.021094 
L 114.516162 -42.021094 
L 115.511574 -42.021094 
L 116.506986 -42.021094 
L 117.502398 -42.021094 
L 118.49781 -42.021094 
L 119.493222 -42.021094 
L 120.488634 -42.021094 
L 121.484046 -42.021094 
L 122.479457 -42.021094 
L 123.474869 -42.021094 
L 124.470281 -42.021094 
L 125.465693 -42.021094 
L 126.461105 -42.021094 
L 127.456517 -42.021094 
L 128.451929 -42.021094 
L 129.44734 -42.021094 
L 130.442752 -42.021094 
L 131.438164 -42.021094 
L 132.433576 -42.021094 
L 133.428988 -42.021094 
L 134.4244 -42.021094 
L 135.419812 -42.021094 
L 136.415223 -42.021094 
L 137.410635 -42.021094 
L 138.406047 -42.021094 
L 139.401459 -42.021094 
L 140.396871 -42.021094 
L 141.392283 -42.021094 
L 142.387695 -42.021094 
L 143.383106 -42.021094 
L 144.378518 -42.021094 
L 145.37393 -42.021094 
L 146.369342 -42.021094 
L 147.364754 -42.021094 
L 148.360166 -42.021094 
L 149.355578 -42.021094 
L 150.350989 -42.021094 
L 151.346401 -42.021094 
L 152.341813 -42.021094 
L 153.337225 -42.021094 
L 154.332637 -42.021094 
L 155.328049 -42.021094 
L 156.323461 -42.021094 
L 157.318872 -42.021094 
L 158.314284 -42.021094 
L 159.309696 -42.021094 
L 160.305108 -42.021094 
L 161.30052 -42.021094 
L 162.295932 -42.021094 
L 163.291344 -42.021094 
L 164.286755 -42.021094 
L 165.282167 -42.021094 
L 166.277579 -42.021094 
L 167.272991 -42.021094 
L 168.268403 -42.021094 
L 169.263815 -42.021094 
L 170.259227 -42.021094 
L 171.254638 -42.021094 
L 172.25005 -42.021094 
L 173.245462 -42.021094 
L 174.240874 -42.021094 
L 175.236286 -42.021094 
L 176.231698 -42.021094 
L 177.22711 -42.021094 
L 178.222521 -42.021094 
L 179.217933 -42.021094 
L 180.213345 -42.021094 
L 181.208757 -42.021094 
L 182.204169 -42.021094 
L 183.199581 -42.021094 
L 184.194993 -42.021094 
L 185.190404 -42.021094 
L 186.185816 -42.021094 
L 187.181228 -42.021094 
L 188.17664 -42.021094 
L 189.172052 -42.021094 
L 190.167464 -42.021094 
L 191.162876 -42.021094 
L 192.158287 -42.021094 
L 193.153699 -42.021094 
L 194.149111 -42.021094 
L 195.144523 -42.021094 
L 196.139935 -42.021094 
L 197.135347 -42.021094 
L 198.130759 -42.021094 
L 199.12617 -42.021094 
L 200.121582 -42.021094 
L 201.116994 -42.021094 
L 202.112406 -42.021094 
L 203.107818 -42.021094 
L 204.10323 -42.021094 
L 205.098642 -42.021094 
L 206.094053 -42.021094 
L 207.089465 -42.021094 
L 208.084877 -42.021094 
L 209.080289 -42.021094 
L 210.075701 -42.021094 
L 211.071113 -42.021094 
L 212.066525 -42.021094 
L 213.061936 -42.021094 
L 214.057348 -42.021094 
L 215.05276 -42.021094 
L 216.048172 -42.021094 
L 217.043584 -42.021094 
L 218.038996 -42.021094 
L 219.034408 -42.021094 
L 220.029819 -42.021094 
L 221.025231 -42.021094 
L 222.020643 -42.021094 
L 223.016055 -42.021094 
L 224.011467 -42.021094 
L 225.006879 -42.021094 
L 226.002291 -42.021094 
L 226.997702 -42.021094 
L 227.993114 -42.021094 
L 228.988526 -42.021094 
L 229.983938 -42.021094 
L 230.97935 -42.021094 
L 231.974762 -42.021094 
L 232.970174 -42.021094 
L 233.965585 -42.021094 
L 234.960997 -42.021094 
L 235.956409 -42.021094 
L 236.951821 -42.021094 
L 237.947233 -42.021094 
L 238.942645 -42.021094 
L 239.938057 -42.021094 
L 240.933468 -42.021094 
L 241.92888 -42.021094 
L 242.924292 -42.021094 
L 243.919704 -42.021094 
L 244.915116 -42.021094 
L 245.910528 -42.021094 
L 246.90594 -42.021094 
L 247.901352 -42.021094 
L 248.896763 -42.021094 
L 249.892175 -42.021094 
L 250.887587 -42.021094 
L 251.882999 -42.021094 
L 252.878411 -42.021094 
L 253.873823 -42.021094 
L 254.869235 -42.021094 
L 255.864646 -42.021094 
L 256.860058 -42.021094 
L 257.85547 -42.021094 
L 258.850882 -42.021094 
L 259.846294 -42.021094 
L 260.841706 -42.021094 
L 261.837118 -42.021094 
L 262.832529 -42.021094 
L 263.827941 -42.021094 
L 264.823353 -42.021094 
L 265.818765 -42.021094 
L 266.814177 -42.021094 
L 267.809589 -42.021094 
L 268.805001 -42.021094 
L 269.800412 -42.021094 
L 270.795824 -42.021094 
L 271.791236 -42.021094 
L 272.786648 -42.021094 
L 273.78206 -42.021094 
L 274.777472 -42.021094 
L 275.772884 -42.021094 
L 276.768295 -42.021094 
L 277.763707 -42.021094 
L 278.759119 -42.021094 
L 279.754531 -42.021094 
L 280.749943 -42.021094 
L 281.745355 -42.021094 
L 281.745355 -42.085368 
L 281.745355 -42.085368 
L 280.749943 -42.11236 
L 279.754531 -42.148858 
L 278.759119 -42.197429 
L 277.763707 -42.261034 
L 276.768295 -42.34298 
L 275.772884 -42.446832 
L 274.777472 -42.576269 
L 273.78206 -42.734887 
L 272.786648 -42.925957 
L 271.791236 -43.152139 
L 270.795824 -43.415176 
L 269.800412 -43.715606 
L 268.805001 -44.052516 
L 267.809589 -44.423392 
L 266.814177 -44.824125 
L 265.818765 -45.249196 
L 264.823353 -45.692121 
L 263.827941 -46.146166 
L 262.832529 -46.605364 
L 261.837118 -47.065834 
L 260.841706 -47.527371 
L 259.846294 -47.995258 
L 258.850882 -48.482207 
L 257.85547 -49.01032 
L 256.860058 -49.6129 
L 255.864646 -50.335954 
L 254.869235 -51.239145 
L 253.873823 -52.395998 
L 252.878411 -53.893101 
L 251.882999 -55.828095 
L 250.887587 -58.306268 
L 249.892175 -61.435652 
L 248.896763 -65.32062 
L 247.901352 -70.054131 
L 246.90594 -75.708945 
L 245.910528 -82.328318 
L 244.915116 -89.916871 
L 243.919704 -98.432486 
L 242.924292 -107.780186 
L 241.92888 -117.808935 
L 240.933468 -128.312247 
L 239.938057 -139.033214 
L 238.942645 -149.674271 
L 237.947233 -159.911592 
L 236.951821 -169.413506 
L 235.956409 -177.861907 
L 234.960997 -184.975173 
L 233.965585 -190.530849 
L 232.970174 -194.386198 
L 231.974762 -196.494796 
L 230.97935 -196.917538 
L 229.983938 -195.826858 
L 228.988526 -193.503439 
L 227.993114 -190.325269 
L 226.997702 -186.749454 
L 226.002291 -183.287746 
L 225.006879 -180.477135 
L 224.011467 -178.847215 
L 223.016055 -178.886213 
L 222.020643 -181.007726 
L 221.025231 -185.520159 
L 220.029819 -192.600884 
L 219.034408 -202.276914 
L 218.038996 -214.413713 
L 217.043584 -228.713407 
L 216.048172 -244.7232 
L 215.05276 -261.854231 
L 214.057348 -279.410403 
L 213.061936 -296.625913 
L 212.066525 -312.709469 
L 211.071113 -326.892398 
L 210.075701 -338.477341 
L 209.080289 -346.883911 
L 208.084877 -351.687733 
L 207.089465 -352.649665 
L 206.094053 -349.732737 
L 205.098642 -343.105332 
L 204.10323 -333.130321 
L 203.107818 -320.341032 
L 202.112406 -305.406061 
L 201.116994 -289.085776 
L 200.121582 -272.183948 
L 199.12617 -255.498145 
L 198.130759 -239.772394 
L 197.135347 -225.655206 
L 196.139935 -213.665433 
L 195.144523 -204.167667 
L 194.149111 -197.358151 
L 193.153699 -193.261406 
L 192.158287 -191.73716 
L 191.162876 -192.496626 
L 190.167464 -195.126746 
L 189.172052 -199.120682 
L 188.17664 -203.912591 
L 187.181228 -208.914549 
L 186.185816 -213.553397 
L 185.190404 -217.30531 
L 184.194993 -219.72598 
L 183.199581 -220.474622 
L 182.204169 -219.330381 
L 181.208757 -216.200249 
L 180.213345 -211.118253 
L 179.217933 -204.236287 
L 178.222521 -195.807627 
L 177.22711 -186.164685 
L 176.231698 -175.692922 
L 175.236286 -164.80307 
L 174.240874 -153.903751 
L 173.245462 -143.37642 
L 172.25005 -133.554179 
L 171.254638 -124.705568 
L 170.259227 -117.023946 
L 169.263815 -110.62259 
L 168.268403 -105.535229 
L 167.272991 -101.721397 
L 166.277579 -99.075762 
L 165.282167 -97.440448 
L 164.286755 -96.619327 
L 163.291344 -96.393259 
L 162.295932 -96.535329 
L 161.30052 -96.825214 
L 160.305108 -97.061945 
L 159.309696 -97.074442 
L 158.314284 -96.729363 
L 157.318872 -95.936011 
L 156.323461 -94.648162 
L 155.328049 -92.862941 
L 154.332637 -90.617004 
L 153.337225 -87.98047 
L 152.341813 -85.049188 
L 151.346401 -81.935963 
L 150.350989 -78.761433 
L 149.355578 -75.645251 
L 148.360166 -72.698108 
L 147.364754 -70.015077 
L 146.369342 -67.670569 
L 145.37393 -65.715077 
L 144.378518 -64.173715 
L 143.383106 -63.046492 
L 142.387695 -62.3101 
L 141.392283 -61.920989 
L 140.396871 -61.819424 
L 139.401459 -61.934201 
L 138.406047 -62.187719 
L 137.410635 -62.501064 
L 136.415223 -62.798842 
L 135.419812 -63.013459 
L 134.4244 -63.088659 
L 133.428988 -62.982101 
L 132.433576 -62.666903 
L 131.438164 -62.132082 
L 130.442752 -61.381938 
L 129.44734 -60.434488 
L 128.451929 -59.319124 
L 127.456517 -58.073715 
L 126.461105 -56.741405 
L 125.465693 -55.367377 
L 124.470281 -53.9958 
L 123.474869 -52.667181 
L 122.479457 -51.416262 
L 121.484046 -50.270547 
L 120.488634 -49.249487 
L 119.493222 -48.364298 
L 118.49781 -47.618325 
L 117.502398 -47.007866 
L 116.506986 -46.523319 
L 115.511574 -46.15053 
L 114.516162 -45.872231 
L 113.520751 -45.669458 
L 112.525339 -45.522871 
L 111.529927 -45.413898 
L 110.534515 -45.325681 
L 109.539103 -45.243777 
L 108.543691 -45.156622 
L 107.548279 -45.055754 
L 106.552868 -44.935815 
L 105.557456 -44.794363 
L 104.562044 -44.631529 
L 103.566632 -44.449565 
L 102.57122 -44.252316 
L 101.575808 -44.044673 
L 100.580396 -43.832044 
L 99.584985 -43.619876 
L 98.589573 -43.413252 
L 97.594161 -43.216589 
L 96.598749 -43.033437 
L 95.603337 -42.866372 
L 94.607925 -42.71699 
L 93.612513 -42.585963 
L 92.617102 -42.473158 
L 91.62169 -42.377786 
L 90.626278 -42.29857 
L 89.630866 -42.233903 
L 88.635454 -42.182005 
L 87.640042 -42.141047 
L 86.64463 -42.109253 
L 85.649219 -42.084971 
L 84.653807 -42.066724 
L 83.658395 -42.05323 
z
" id="m88ebe4a731" style="stroke:#8172b3;"/>
    </defs>
    <g clip-path="url(#pef8b7b08cb)">
     <use style="fill:#8172b3;fill-opacity:0.25;stroke:#8172b3;" x="0" xlink:href="#m88ebe4a731" y="390.116719"/>
    </g>
   </g>
   <g id="PolyCollection_2">
    <defs>
     <path d="M 103.080815 -42.047669 
L 103.080815 -42.021094 
L 104.376829 -42.021094 
L 105.672844 -42.021094 
L 106.968858 -42.021094 
L 108.264872 -42.021094 
L 109.560886 -42.021094 
L 110.8569 -42.021094 
L 112.152914 -42.021094 
L 113.448928 -42.021094 
L 114.744942 -42.021094 
L 116.040957 -42.021094 
L 117.336971 -42.021094 
L 118.632985 -42.021094 
L 119.928999 -42.021094 
L 121.225013 -42.021094 
L 122.521027 -42.021094 
L 123.817041 -42.021094 
L 125.113055 -42.021094 
L 126.40907 -42.021094 
L 127.705084 -42.021094 
L 129.001098 -42.021094 
L 130.297112 -42.021094 
L 131.593126 -42.021094 
L 132.88914 -42.021094 
L 134.185154 -42.021094 
L 135.481169 -42.021094 
L 136.777183 -42.021094 
L 138.073197 -42.021094 
L 139.369211 -42.021094 
L 140.665225 -42.021094 
L 141.961239 -42.021094 
L 143.257253 -42.021094 
L 144.553267 -42.021094 
L 145.849282 -42.021094 
L 147.145296 -42.021094 
L 148.44131 -42.021094 
L 149.737324 -42.021094 
L 151.033338 -42.021094 
L 152.329352 -42.021094 
L 153.625366 -42.021094 
L 154.921381 -42.021094 
L 156.217395 -42.021094 
L 157.513409 -42.021094 
L 158.809423 -42.021094 
L 160.105437 -42.021094 
L 161.401451 -42.021094 
L 162.697465 -42.021094 
L 163.993479 -42.021094 
L 165.289494 -42.021094 
L 166.585508 -42.021094 
L 167.881522 -42.021094 
L 169.177536 -42.021094 
L 170.47355 -42.021094 
L 171.769564 -42.021094 
L 173.065578 -42.021094 
L 174.361593 -42.021094 
L 175.657607 -42.021094 
L 176.953621 -42.021094 
L 178.249635 -42.021094 
L 179.545649 -42.021094 
L 180.841663 -42.021094 
L 182.137677 -42.021094 
L 183.433691 -42.021094 
L 184.729706 -42.021094 
L 186.02572 -42.021094 
L 187.321734 -42.021094 
L 188.617748 -42.021094 
L 189.913762 -42.021094 
L 191.209776 -42.021094 
L 192.50579 -42.021094 
L 193.801805 -42.021094 
L 195.097819 -42.021094 
L 196.393833 -42.021094 
L 197.689847 -42.021094 
L 198.985861 -42.021094 
L 200.281875 -42.021094 
L 201.577889 -42.021094 
L 202.873903 -42.021094 
L 204.169918 -42.021094 
L 205.465932 -42.021094 
L 206.761946 -42.021094 
L 208.05796 -42.021094 
L 209.353974 -42.021094 
L 210.649988 -42.021094 
L 211.946002 -42.021094 
L 213.242017 -42.021094 
L 214.538031 -42.021094 
L 215.834045 -42.021094 
L 217.130059 -42.021094 
L 218.426073 -42.021094 
L 219.722087 -42.021094 
L 221.018101 -42.021094 
L 222.314115 -42.021094 
L 223.61013 -42.021094 
L 224.906144 -42.021094 
L 226.202158 -42.021094 
L 227.498172 -42.021094 
L 228.794186 -42.021094 
L 230.0902 -42.021094 
L 231.386214 -42.021094 
L 232.682228 -42.021094 
L 233.978243 -42.021094 
L 235.274257 -42.021094 
L 236.570271 -42.021094 
L 237.866285 -42.021094 
L 239.162299 -42.021094 
L 240.458313 -42.021094 
L 241.754327 -42.021094 
L 243.050342 -42.021094 
L 244.346356 -42.021094 
L 245.64237 -42.021094 
L 246.938384 -42.021094 
L 248.234398 -42.021094 
L 249.530412 -42.021094 
L 250.826426 -42.021094 
L 252.12244 -42.021094 
L 253.418455 -42.021094 
L 254.714469 -42.021094 
L 256.010483 -42.021094 
L 257.306497 -42.021094 
L 258.602511 -42.021094 
L 259.898525 -42.021094 
L 261.194539 -42.021094 
L 262.490554 -42.021094 
L 263.786568 -42.021094 
L 265.082582 -42.021094 
L 266.378596 -42.021094 
L 267.67461 -42.021094 
L 268.970624 -42.021094 
L 270.266638 -42.021094 
L 271.562652 -42.021094 
L 272.858667 -42.021094 
L 274.154681 -42.021094 
L 275.450695 -42.021094 
L 276.746709 -42.021094 
L 278.042723 -42.021094 
L 279.338737 -42.021094 
L 280.634751 -42.021094 
L 281.930766 -42.021094 
L 283.22678 -42.021094 
L 284.522794 -42.021094 
L 285.818808 -42.021094 
L 287.114822 -42.021094 
L 288.410836 -42.021094 
L 289.70685 -42.021094 
L 291.002864 -42.021094 
L 292.298879 -42.021094 
L 293.594893 -42.021094 
L 294.890907 -42.021094 
L 296.186921 -42.021094 
L 297.482935 -42.021094 
L 298.778949 -42.021094 
L 300.074963 -42.021094 
L 301.370978 -42.021094 
L 302.666992 -42.021094 
L 303.963006 -42.021094 
L 305.25902 -42.021094 
L 306.555034 -42.021094 
L 307.851048 -42.021094 
L 309.147062 -42.021094 
L 310.443076 -42.021094 
L 311.739091 -42.021094 
L 313.035105 -42.021094 
L 314.331119 -42.021094 
L 315.627133 -42.021094 
L 316.923147 -42.021094 
L 318.219161 -42.021094 
L 319.515175 -42.021094 
L 320.81119 -42.021094 
L 322.107204 -42.021094 
L 323.403218 -42.021094 
L 324.699232 -42.021094 
L 325.995246 -42.021094 
L 327.29126 -42.021094 
L 328.587274 -42.021094 
L 329.883288 -42.021094 
L 331.179303 -42.021094 
L 332.475317 -42.021094 
L 333.771331 -42.021094 
L 335.067345 -42.021094 
L 336.363359 -42.021094 
L 337.659373 -42.021094 
L 338.955387 -42.021094 
L 340.251401 -42.021094 
L 341.547416 -42.021094 
L 342.84343 -42.021094 
L 344.139444 -42.021094 
L 345.435458 -42.021094 
L 346.731472 -42.021094 
L 348.027486 -42.021094 
L 349.3235 -42.021094 
L 350.619515 -42.021094 
L 351.915529 -42.021094 
L 353.211543 -42.021094 
L 354.507557 -42.021094 
L 355.803571 -42.021094 
L 357.099585 -42.021094 
L 358.395599 -42.021094 
L 359.691613 -42.021094 
L 360.987628 -42.021094 
L 360.987628 -42.07424 
L 360.987628 -42.07424 
L 359.691613 -42.098566 
L 358.395599 -42.132181 
L 357.099585 -42.177779 
L 355.803571 -42.238485 
L 354.507557 -42.317784 
L 353.211543 -42.419398 
L 351.915529 -42.547087 
L 350.619515 -42.70438 
L 349.3235 -42.894237 
L 348.027486 -43.118675 
L 346.731472 -43.378357 
L 345.435458 -43.67222 
L 344.139444 -43.997161 
L 342.84343 -44.34785 
L 341.547416 -44.716712 
L 340.251401 -45.09412 
L 338.955387 -45.468812 
L 337.659373 -45.828529 
L 336.363359 -46.160842 
L 335.067345 -46.454103 
L 333.771331 -46.698433 
L 332.475317 -46.886645 
L 331.179303 -47.014999 
L 329.883288 -47.083692 
L 328.587274 -47.09702 
L 327.29126 -47.063157 
L 325.995246 -46.993582 
L 324.699232 -46.902182 
L 323.403218 -46.804136 
L 322.107204 -46.714705 
L 320.81119 -46.64806 
L 319.515175 -46.616314 
L 318.219161 -46.62888 
L 316.923147 -46.692283 
L 315.627133 -46.810466 
L 314.331119 -46.985637 
L 313.035105 -47.219571 
L 311.739091 -47.515296 
L 310.443076 -47.878951 
L 309.147062 -48.321626 
L 307.851048 -48.860907 
L 306.555034 -49.521859 
L 305.25902 -50.337189 
L 303.963006 -51.346367 
L 302.666992 -52.593591 
L 301.370978 -54.124555 
L 300.074963 -55.982147 
L 298.778949 -58.20137 
L 297.482935 -60.803895 
L 296.186921 -63.792849 
L 294.890907 -67.148476 
L 293.594893 -70.82539 
L 292.298879 -74.752025 
L 291.002864 -78.832786 
L 289.70685 -82.953111 
L 288.410836 -86.987354 
L 287.114822 -90.809052 
L 285.818808 -94.302726 
L 284.522794 -97.376123 
L 283.22678 -99.971529 
L 281.930766 -102.074796 
L 280.634751 -103.720748 
L 279.338737 -104.993998 
L 278.042723 -106.024563 
L 276.746709 -106.978268 
L 275.450695 -108.042504 
L 274.154681 -109.408503 
L 272.858667 -111.251786 
L 271.562652 -113.71282 
L 270.266638 -116.880041 
L 268.970624 -120.777343 
L 267.67461 -125.357791 
L 266.378596 -130.504774 
L 265.082582 -136.041056 
L 263.786568 -141.745343 
L 262.490554 -147.375101 
L 261.194539 -152.693519 
L 259.898525 -157.497892 
L 258.602511 -161.646303 
L 257.306497 -165.079422 
L 256.010483 -167.83455 
L 254.714469 -170.04969 
L 253.418455 -171.956371 
L 252.12244 -173.861156 
L 250.826426 -176.116977 
L 249.530412 -179.086708 
L 248.234398 -183.102388 
L 246.938384 -188.424236 
L 245.64237 -195.203928 
L 244.346356 -203.456402 
L 243.050342 -213.043856 
L 241.754327 -223.67445 
L 240.458313 -234.916794 
L 239.162299 -246.22961 
L 237.866285 -257.004262 
L 236.570271 -266.616275 
L 235.274257 -274.480819 
L 233.978243 -280.106452 
L 232.682228 -283.141426 
L 231.386214 -283.407524 
L 230.0902 -280.917658 
L 228.794186 -275.875214 
L 227.498172 -268.655127 
L 226.202158 -259.768692 
L 224.906144 -249.815878 
L 223.61013 -239.430231 
L 222.314115 -229.22215 
L 221.018101 -219.726362 
L 219.722087 -211.358781 
L 218.426073 -204.386772 
L 217.130059 -198.915249 
L 215.834045 -194.889309 
L 214.538031 -192.112305 
L 213.242017 -190.27675 
L 211.946002 -189.004219 
L 210.649988 -187.889704 
L 209.353974 -186.545641 
L 208.05796 -184.641138 
L 206.761946 -181.932686 
L 205.465932 -178.283716 
L 204.169918 -173.671723 
L 202.873903 -168.183029 
L 201.577889 -161.99658 
L 200.281875 -155.359213 
L 198.985861 -148.555595 
L 197.689847 -141.87634 
L 196.393833 -135.587778 
L 195.097819 -129.906402 
L 193.801805 -124.980301 
L 192.50579 -120.878967 
L 191.209776 -117.591882 
L 189.913762 -115.03535 
L 188.617748 -113.066199 
L 187.321734 -111.500412 
L 186.02572 -110.134358 
L 184.729706 -108.766246 
L 183.433691 -107.215607 
L 182.137677 -105.338964 
L 180.841663 -103.040469 
L 179.545649 -100.276871 
L 178.249635 -97.056867 
L 176.953621 -93.435447 
L 175.657607 -89.504358 
L 174.361593 -85.380035 
L 173.065578 -81.190542 
L 171.769564 -77.062948 
L 170.47355 -73.112344 
L 169.177536 -69.433423 
L 167.881522 -66.09509 
L 166.585508 -63.138246 
L 165.289494 -60.576476 
L 163.993479 -58.399166 
L 162.697465 -56.576338 
L 161.401451 -55.064468 
L 160.105437 -53.812541 
L 158.809423 -52.76771 
L 157.513409 -51.88008 
L 156.217395 -51.106277 
L 154.921381 -50.411691 
L 153.625366 -49.771395 
L 152.329352 -49.169892 
L 151.033338 -48.599944 
L 149.737324 -48.060771 
L 148.44131 -47.555916 
L 147.145296 -47.091088 
L 145.849282 -46.672194 
L 144.553267 -46.303767 
L 143.257253 -45.987869 
L 141.961239 -45.723534 
L 140.665225 -45.506708 
L 139.369211 -45.33062 
L 138.073197 -45.186478 
L 136.777183 -45.064353 
L 135.481169 -44.954134 
L 134.185154 -44.846433 
L 132.88914 -44.733333 
L 131.593126 -44.608931 
L 130.297112 -44.469627 
L 129.001098 -44.31417 
L 127.705084 -44.143465 
L 126.40907 -43.960215 
L 125.113055 -43.76844 
L 123.817041 -43.572934 
L 122.521027 -43.378741 
L 121.225013 -43.190684 
L 119.928999 -43.012986 
L 118.632985 -42.849014 
L 117.336971 -42.701142 
L 116.040957 -42.570722 
L 114.744942 -42.458152 
L 113.448928 -42.363015 
L 112.152914 -42.284247 
L 110.8569 -42.220333 
L 109.560886 -42.169486 
L 108.264872 -42.129815 
L 106.968858 -42.09945 
L 105.672844 -42.076644 
L 104.376829 -42.059833 
L 103.080815 -42.047669 
z
" id="m381b2e469a" style="stroke:#c44e52;"/>
    </defs>
    <g clip-path="url(#pef8b7b08cb)">
     <use style="fill:#c44e52;fill-opacity:0.25;stroke:#c44e52;" x="0" xlink:href="#m381b2e469a" y="390.116719"/>
    </g>
   </g>
   <g id="PolyCollection_3">
    <defs>
     <path d="M 205.127106 -42.051006 
L 205.127106 -42.021094 
L 206.265184 -42.021094 
L 207.403262 -42.021094 
L 208.541339 -42.021094 
L 209.679417 -42.021094 
L 210.817494 -42.021094 
L 211.955572 -42.021094 
L 213.09365 -42.021094 
L 214.231727 -42.021094 
L 215.369805 -42.021094 
L 216.507882 -42.021094 
L 217.64596 -42.021094 
L 218.784038 -42.021094 
L 219.922115 -42.021094 
L 221.060193 -42.021094 
L 222.19827 -42.021094 
L 223.336348 -42.021094 
L 224.474426 -42.021094 
L 225.612503 -42.021094 
L 226.750581 -42.021094 
L 227.888658 -42.021094 
L 229.026736 -42.021094 
L 230.164814 -42.021094 
L 231.302891 -42.021094 
L 232.440969 -42.021094 
L 233.579046 -42.021094 
L 234.717124 -42.021094 
L 235.855202 -42.021094 
L 236.993279 -42.021094 
L 238.131357 -42.021094 
L 239.269434 -42.021094 
L 240.407512 -42.021094 
L 241.54559 -42.021094 
L 242.683667 -42.021094 
L 243.821745 -42.021094 
L 244.959823 -42.021094 
L 246.0979 -42.021094 
L 247.235978 -42.021094 
L 248.374055 -42.021094 
L 249.512133 -42.021094 
L 250.650211 -42.021094 
L 251.788288 -42.021094 
L 252.926366 -42.021094 
L 254.064443 -42.021094 
L 255.202521 -42.021094 
L 256.340599 -42.021094 
L 257.478676 -42.021094 
L 258.616754 -42.021094 
L 259.754831 -42.021094 
L 260.892909 -42.021094 
L 262.030987 -42.021094 
L 263.169064 -42.021094 
L 264.307142 -42.021094 
L 265.445219 -42.021094 
L 266.583297 -42.021094 
L 267.721375 -42.021094 
L 268.859452 -42.021094 
L 269.99753 -42.021094 
L 271.135607 -42.021094 
L 272.273685 -42.021094 
L 273.411763 -42.021094 
L 274.54984 -42.021094 
L 275.687918 -42.021094 
L 276.825995 -42.021094 
L 277.964073 -42.021094 
L 279.102151 -42.021094 
L 280.240228 -42.021094 
L 281.378306 -42.021094 
L 282.516383 -42.021094 
L 283.654461 -42.021094 
L 284.792539 -42.021094 
L 285.930616 -42.021094 
L 287.068694 -42.021094 
L 288.206772 -42.021094 
L 289.344849 -42.021094 
L 290.482927 -42.021094 
L 291.621004 -42.021094 
L 292.759082 -42.021094 
L 293.89716 -42.021094 
L 295.035237 -42.021094 
L 296.173315 -42.021094 
L 297.311392 -42.021094 
L 298.44947 -42.021094 
L 299.587548 -42.021094 
L 300.725625 -42.021094 
L 301.863703 -42.021094 
L 303.00178 -42.021094 
L 304.139858 -42.021094 
L 305.277936 -42.021094 
L 306.416013 -42.021094 
L 307.554091 -42.021094 
L 308.692168 -42.021094 
L 309.830246 -42.021094 
L 310.968324 -42.021094 
L 312.106401 -42.021094 
L 313.244479 -42.021094 
L 314.382556 -42.021094 
L 315.520634 -42.021094 
L 316.658712 -42.021094 
L 317.796789 -42.021094 
L 318.934867 -42.021094 
L 320.072944 -42.021094 
L 321.211022 -42.021094 
L 322.3491 -42.021094 
L 323.487177 -42.021094 
L 324.625255 -42.021094 
L 325.763332 -42.021094 
L 326.90141 -42.021094 
L 328.039488 -42.021094 
L 329.177565 -42.021094 
L 330.315643 -42.021094 
L 331.453721 -42.021094 
L 332.591798 -42.021094 
L 333.729876 -42.021094 
L 334.867953 -42.021094 
L 336.006031 -42.021094 
L 337.144109 -42.021094 
L 338.282186 -42.021094 
L 339.420264 -42.021094 
L 340.558341 -42.021094 
L 341.696419 -42.021094 
L 342.834497 -42.021094 
L 343.972574 -42.021094 
L 345.110652 -42.021094 
L 346.248729 -42.021094 
L 347.386807 -42.021094 
L 348.524885 -42.021094 
L 349.662962 -42.021094 
L 350.80104 -42.021094 
L 351.939117 -42.021094 
L 353.077195 -42.021094 
L 354.215273 -42.021094 
L 355.35335 -42.021094 
L 356.491428 -42.021094 
L 357.629505 -42.021094 
L 358.767583 -42.021094 
L 359.905661 -42.021094 
L 361.043738 -42.021094 
L 362.181816 -42.021094 
L 363.319893 -42.021094 
L 364.457971 -42.021094 
L 365.596049 -42.021094 
L 366.734126 -42.021094 
L 367.872204 -42.021094 
L 369.010282 -42.021094 
L 370.148359 -42.021094 
L 371.286437 -42.021094 
L 372.424514 -42.021094 
L 373.562592 -42.021094 
L 374.70067 -42.021094 
L 375.838747 -42.021094 
L 376.976825 -42.021094 
L 378.114902 -42.021094 
L 379.25298 -42.021094 
L 380.391058 -42.021094 
L 381.529135 -42.021094 
L 382.667213 -42.021094 
L 383.80529 -42.021094 
L 384.943368 -42.021094 
L 386.081446 -42.021094 
L 387.219523 -42.021094 
L 388.357601 -42.021094 
L 389.495678 -42.021094 
L 390.633756 -42.021094 
L 391.771834 -42.021094 
L 392.909911 -42.021094 
L 394.047989 -42.021094 
L 395.186066 -42.021094 
L 396.324144 -42.021094 
L 397.462222 -42.021094 
L 398.600299 -42.021094 
L 399.738377 -42.021094 
L 400.876454 -42.021094 
L 402.014532 -42.021094 
L 403.15261 -42.021094 
L 404.290687 -42.021094 
L 405.428765 -42.021094 
L 406.566842 -42.021094 
L 407.70492 -42.021094 
L 408.842998 -42.021094 
L 409.981075 -42.021094 
L 411.119153 -42.021094 
L 412.257231 -42.021094 
L 413.395308 -42.021094 
L 414.533386 -42.021094 
L 415.671463 -42.021094 
L 416.809541 -42.021094 
L 417.947619 -42.021094 
L 419.085696 -42.021094 
L 420.223774 -42.021094 
L 421.361851 -42.021094 
L 422.499929 -42.021094 
L 423.638007 -42.021094 
L 424.776084 -42.021094 
L 425.914162 -42.021094 
L 427.052239 -42.021094 
L 428.190317 -42.021094 
L 429.328395 -42.021094 
L 430.466472 -42.021094 
L 431.60455 -42.021094 
L 431.60455 -42.110834 
L 431.60455 -42.110834 
L 430.466472 -42.151358 
L 429.328395 -42.207162 
L 428.190317 -42.282632 
L 427.052239 -42.382849 
L 425.914162 -42.51349 
L 424.776084 -42.680631 
L 423.638007 -42.89045 
L 422.499929 -43.14881 
L 421.361851 -43.460758 
L 420.223774 -43.829947 
L 419.085696 -44.258046 
L 417.947619 -44.744198 
L 416.809541 -45.284619 
L 415.671463 -45.872422 
L 414.533386 -46.497769 
L 413.395308 -47.148422 
L 412.257231 -47.810748 
L 411.119153 -48.471198 
L 409.981075 -49.118201 
L 408.842998 -49.744403 
L 407.70492 -50.349066 
L 406.566842 -50.940451 
L 405.428765 -51.537902 
L 404.290687 -52.173376 
L 403.15261 -52.892117 
L 402.014532 -53.752229 
L 400.876454 -54.822918 
L 399.738377 -56.181291 
L 398.600299 -57.907682 
L 397.462222 -60.079636 
L 396.324144 -62.764834 
L 395.186066 -66.013421 
L 394.047989 -69.850377 
L 392.909911 -74.268658 
L 391.771834 -79.22399 
L 390.633756 -84.632123 
L 389.495678 -90.369295 
L 388.357601 -96.276435 
L 387.219523 -102.167305 
L 386.081446 -107.840412 
L 384.943368 -113.094043 
L 383.80529 -117.743394 
L 382.667213 -121.63835 
L 381.529135 -124.680285 
L 380.391058 -126.836124 
L 379.25298 -128.148034 
L 378.114902 -128.737408 
L 376.976825 -128.802213 
L 375.838747 -128.607366 
L 374.70067 -128.468401 
L 373.562592 -128.729312 
L 372.424514 -129.736017 
L 371.286437 -131.8074 
L 370.148359 -135.206176 
L 369.010282 -140.112053 
L 367.872204 -146.59965 
L 366.734126 -154.62344 
L 365.596049 -164.011608 
L 364.457971 -174.470094 
L 363.319893 -185.59734 
L 362.181816 -196.909329 
L 361.043738 -207.873528 
L 359.905661 -217.949373 
L 358.767583 -226.63214 
L 357.629505 -233.496431 
L 356.491428 -238.23532 
L 355.35335 -240.691329 
L 354.215273 -240.87601 
L 353.077195 -238.975855 
L 351.939117 -235.343443 
L 350.80104 -230.474121 
L 349.662962 -224.96982 
L 348.524885 -219.492801 
L 347.386807 -214.713066 
L 346.248729 -211.253715 
L 345.110652 -209.638757 
L 343.972574 -210.247712 
L 342.834497 -213.280842 
L 341.696419 -218.738025 
L 340.558341 -226.413312 
L 339.420264 -235.905951 
L 338.282186 -246.647389 
L 337.144109 -257.942432 
L 336.006031 -269.021494 
L 334.867953 -279.099808 
L 333.729876 -287.438703 
L 332.591798 -293.403741 
L 331.453721 -296.514606 
L 330.315643 -296.482331 
L 329.177565 -293.23056 
L 328.039488 -286.899034 
L 326.90141 -277.829198 
L 325.763332 -266.533534 
L 324.625255 -253.651706 
L 323.487177 -239.8978 
L 322.3491 -226.00354 
L 321.211022 -212.662542 
L 320.072944 -200.480271 
L 318.934867 -189.933559 
L 317.796789 -181.342468 
L 316.658712 -174.856041 
L 315.520634 -170.452204 
L 314.382556 -167.950936 
L 313.244479 -167.038827 
L 312.106401 -167.302383 
L 310.968324 -168.266928 
L 309.830246 -169.437711 
L 308.692168 -170.339848 
L 307.554091 -170.553995 
L 306.416013 -169.745146 
L 305.277936 -167.682655 
L 304.139858 -164.250401 
L 303.00178 -159.446938 
L 301.863703 -153.376346 
L 300.725625 -146.231291 
L 299.587548 -138.270423 
L 298.44947 -129.792558 
L 297.311392 -121.110229 
L 296.173315 -112.524947 
L 295.035237 -104.306153 
L 293.89716 -96.675256 
L 292.759082 -89.795481 
L 291.621004 -83.767663 
L 290.482927 -78.63151 
L 289.344849 -74.37147 
L 288.206772 -70.926024 
L 287.068694 -68.199133 
L 285.930616 -66.072579 
L 284.792539 -64.418073 
L 283.654461 -63.108201 
L 282.516383 -62.025533 
L 281.378306 -61.069482 
L 280.240228 -60.160719 
L 279.102151 -59.2432 
L 277.964073 -58.284 
L 276.825995 -57.271334 
L 275.687918 -56.211168 
L 274.54984 -55.122928 
L 273.411763 -54.034783 
L 272.273685 -52.978947 
L 271.135607 -51.987378 
L 269.99753 -51.088179 
L 268.859452 -50.302894 
L 267.721375 -49.644782 
L 266.583297 -49.1181 
L 265.445219 -48.71829 
L 264.307142 -48.432957 
L 263.169064 -48.243442 
L 262.030987 -48.126802 
L 260.892909 -48.057968 
L 259.754831 -48.011915 
L 258.616754 -47.965623 
L 257.478676 -47.899734 
L 256.340599 -47.799749 
L 255.202521 -47.656745 
L 254.064443 -47.467562 
L 252.926366 -47.234508 
L 251.788288 -46.964626 
L 250.650211 -46.668636 
L 249.512133 -46.359657 
L 248.374055 -46.051828 
L 247.235978 -45.758964 
L 246.0979 -45.493347 
L 244.959823 -45.264739 
L 243.821745 -45.079683 
L 242.683667 -44.941124 
L 241.54559 -44.848353 
L 240.407512 -44.797259 
L 239.269434 -44.780833 
L 238.131357 -44.789878 
L 236.993279 -44.813848 
L 235.855202 -44.841743 
L 234.717124 -44.862978 
L 233.579046 -44.868165 
L 232.440969 -44.84975 
L 231.302891 -44.802449 
L 230.164814 -44.723483 
L 229.026736 -44.612584 
L 227.888658 -44.471802 
L 226.750581 -44.305148 
L 225.612503 -44.118109 
L 224.474426 -43.9171 
L 223.336348 -43.708901 
L 222.19827 -43.500138 
L 221.060193 -43.296845 
L 219.922115 -43.104127 
L 218.784038 -42.92596 
L 217.64596 -42.7651 
L 216.507882 -42.623106 
L 215.369805 -42.500454 
L 214.231727 -42.396708 
L 213.09365 -42.310721 
L 211.955572 -42.240855 
L 210.817494 -42.185181 
L 209.679417 -42.141656 
L 208.541339 -42.108262 
L 207.403262 -42.083111 
L 206.265184 -42.064512 
L 205.127106 -42.051006 
z
" id="md44e1054cd" style="stroke:#55a868;"/>
    </defs>
    <g clip-path="url(#pef8b7b08cb)">
     <use style="fill:#55a868;fill-opacity:0.25;stroke:#55a868;" x="0" xlink:href="#md44e1054cd" y="390.116719"/>
    </g>
   </g>
   <g id="PolyCollection_4">
    <defs>
     <path d="M 196.677539 -42.047911 
L 196.677539 -42.021094 
L 199.016092 -42.021094 
L 201.354646 -42.021094 
L 203.693199 -42.021094 
L 206.031753 -42.021094 
L 208.370306 -42.021094 
L 210.70886 -42.021094 
L 213.047413 -42.021094 
L 215.385967 -42.021094 
L 217.72452 -42.021094 
L 220.063074 -42.021094 
L 222.401627 -42.021094 
L 224.74018 -42.021094 
L 227.078734 -42.021094 
L 229.417287 -42.021094 
L 231.755841 -42.021094 
L 234.094394 -42.021094 
L 236.432948 -42.021094 
L 238.771501 -42.021094 
L 241.110055 -42.021094 
L 243.448608 -42.021094 
L 245.787162 -42.021094 
L 248.125715 -42.021094 
L 250.464269 -42.021094 
L 252.802822 -42.021094 
L 255.141375 -42.021094 
L 257.479929 -42.021094 
L 259.818482 -42.021094 
L 262.157036 -42.021094 
L 264.495589 -42.021094 
L 266.834143 -42.021094 
L 269.172696 -42.021094 
L 271.51125 -42.021094 
L 273.849803 -42.021094 
L 276.188357 -42.021094 
L 278.52691 -42.021094 
L 280.865463 -42.021094 
L 283.204017 -42.021094 
L 285.54257 -42.021094 
L 287.881124 -42.021094 
L 290.219677 -42.021094 
L 292.558231 -42.021094 
L 294.896784 -42.021094 
L 297.235338 -42.021094 
L 299.573891 -42.021094 
L 301.912445 -42.021094 
L 304.250998 -42.021094 
L 306.589552 -42.021094 
L 308.928105 -42.021094 
L 311.266658 -42.021094 
L 313.605212 -42.021094 
L 315.943765 -42.021094 
L 318.282319 -42.021094 
L 320.620872 -42.021094 
L 322.959426 -42.021094 
L 325.297979 -42.021094 
L 327.636533 -42.021094 
L 329.975086 -42.021094 
L 332.31364 -42.021094 
L 334.652193 -42.021094 
L 336.990746 -42.021094 
L 339.3293 -42.021094 
L 341.667853 -42.021094 
L 344.006407 -42.021094 
L 346.34496 -42.021094 
L 348.683514 -42.021094 
L 351.022067 -42.021094 
L 353.360621 -42.021094 
L 355.699174 -42.021094 
L 358.037728 -42.021094 
L 360.376281 -42.021094 
L 362.714834 -42.021094 
L 365.053388 -42.021094 
L 367.391941 -42.021094 
L 369.730495 -42.021094 
L 372.069048 -42.021094 
L 374.407602 -42.021094 
L 376.746155 -42.021094 
L 379.084709 -42.021094 
L 381.423262 -42.021094 
L 383.761816 -42.021094 
L 386.100369 -42.021094 
L 388.438923 -42.021094 
L 390.777476 -42.021094 
L 393.116029 -42.021094 
L 395.454583 -42.021094 
L 397.793136 -42.021094 
L 400.13169 -42.021094 
L 402.470243 -42.021094 
L 404.808797 -42.021094 
L 407.14735 -42.021094 
L 409.485904 -42.021094 
L 411.824457 -42.021094 
L 414.163011 -42.021094 
L 416.501564 -42.021094 
L 418.840117 -42.021094 
L 421.178671 -42.021094 
L 423.517224 -42.021094 
L 425.855778 -42.021094 
L 428.194331 -42.021094 
L 430.532885 -42.021094 
L 432.871438 -42.021094 
L 435.209992 -42.021094 
L 437.548545 -42.021094 
L 439.887099 -42.021094 
L 442.225652 -42.021094 
L 444.564205 -42.021094 
L 446.902759 -42.021094 
L 449.241312 -42.021094 
L 451.579866 -42.021094 
L 453.918419 -42.021094 
L 456.256973 -42.021094 
L 458.595526 -42.021094 
L 460.93408 -42.021094 
L 463.272633 -42.021094 
L 465.611187 -42.021094 
L 467.94974 -42.021094 
L 470.288294 -42.021094 
L 472.626847 -42.021094 
L 474.9654 -42.021094 
L 477.303954 -42.021094 
L 479.642507 -42.021094 
L 481.981061 -42.021094 
L 484.319614 -42.021094 
L 486.658168 -42.021094 
L 488.996721 -42.021094 
L 491.335275 -42.021094 
L 493.673828 -42.021094 
L 496.012382 -42.021094 
L 498.350935 -42.021094 
L 500.689488 -42.021094 
L 503.028042 -42.021094 
L 505.366595 -42.021094 
L 507.705149 -42.021094 
L 510.043702 -42.021094 
L 512.382256 -42.021094 
L 514.720809 -42.021094 
L 517.059363 -42.021094 
L 519.397916 -42.021094 
L 521.73647 -42.021094 
L 524.075023 -42.021094 
L 526.413576 -42.021094 
L 528.75213 -42.021094 
L 531.090683 -42.021094 
L 533.429237 -42.021094 
L 535.76779 -42.021094 
L 538.106344 -42.021094 
L 540.444897 -42.021094 
L 542.783451 -42.021094 
L 545.122004 -42.021094 
L 547.460558 -42.021094 
L 549.799111 -42.021094 
L 552.137665 -42.021094 
L 554.476218 -42.021094 
L 556.814771 -42.021094 
L 559.153325 -42.021094 
L 561.491878 -42.021094 
L 563.830432 -42.021094 
L 566.168985 -42.021094 
L 568.507539 -42.021094 
L 570.846092 -42.021094 
L 573.184646 -42.021094 
L 575.523199 -42.021094 
L 577.861753 -42.021094 
L 580.200306 -42.021094 
L 582.538859 -42.021094 
L 584.877413 -42.021094 
L 587.215966 -42.021094 
L 589.55452 -42.021094 
L 591.893073 -42.021094 
L 594.231627 -42.021094 
L 596.57018 -42.021094 
L 598.908734 -42.021094 
L 601.247287 -42.021094 
L 603.585841 -42.021094 
L 605.924394 -42.021094 
L 608.262947 -42.021094 
L 610.601501 -42.021094 
L 612.940054 -42.021094 
L 615.278608 -42.021094 
L 617.617161 -42.021094 
L 619.955715 -42.021094 
L 622.294268 -42.021094 
L 624.632822 -42.021094 
L 626.971375 -42.021094 
L 629.309929 -42.021094 
L 631.648482 -42.021094 
L 633.987036 -42.021094 
L 636.325589 -42.021094 
L 638.664142 -42.021094 
L 641.002696 -42.021094 
L 643.341249 -42.021094 
L 645.679803 -42.021094 
L 648.018356 -42.021094 
L 650.35691 -42.021094 
L 652.695463 -42.021094 
L 655.034017 -42.021094 
L 657.37257 -42.021094 
L 659.711124 -42.021094 
L 662.049677 -42.021094 
L 662.049677 -42.048224 
L 662.049677 -42.048224 
L 659.711124 -42.059426 
L 657.37257 -42.074532 
L 655.034017 -42.094604 
L 652.695463 -42.120881 
L 650.35691 -42.154771 
L 648.018356 -42.197829 
L 645.679803 -42.25172 
L 643.341249 -42.31816 
L 641.002696 -42.398842 
L 638.664142 -42.495347 
L 636.325589 -42.60904 
L 633.987036 -42.740969 
L 631.648482 -42.89176 
L 629.309929 -43.061537 
L 626.971375 -43.249857 
L 624.632822 -43.455697 
L 622.294268 -43.67747 
L 619.955715 -43.9131 
L 617.617161 -44.160151 
L 615.278608 -44.415993 
L 612.940054 -44.678009 
L 610.601501 -44.943833 
L 608.262947 -45.21158 
L 605.924394 -45.480073 
L 603.585841 -45.749035 
L 601.247287 -46.019231 
L 598.908734 -46.292551 
L 596.57018 -46.572022 
L 594.231627 -46.861753 
L 591.893073 -47.166807 
L 589.55452 -47.49303 
L 587.215966 -47.846829 
L 584.877413 -48.234932 
L 582.538859 -48.664144 
L 580.200306 -49.14112 
L 577.861753 -49.672163 
L 575.523199 -50.263069 
L 573.184646 -50.919019 
L 570.846092 -51.64452 
L 568.507539 -52.443393 
L 566.168985 -53.318793 
L 563.830432 -54.273263 
L 561.491878 -55.308785 
L 559.153325 -56.426838 
L 556.814771 -57.628435 
L 554.476218 -58.914139 
L 552.137665 -60.284054 
L 549.799111 -61.737786 
L 547.460558 -63.274387 
L 545.122004 -64.892274 
L 542.783451 -66.589143 
L 540.444897 -68.361867 
L 538.106344 -70.2064 
L 535.76779 -72.117678 
L 533.429237 -74.089528 
L 531.090683 -76.11461 
L 528.75213 -78.184378 
L 526.413576 -80.289117 
L 524.075023 -82.418051 
L 521.73647 -84.559554 
L 519.397916 -86.701481 
L 517.059363 -88.831623 
L 514.720809 -90.938255 
L 512.382256 -93.010773 
L 510.043702 -95.040343 
L 507.705149 -97.020507 
L 505.366595 -98.94768 
L 503.028042 -100.821464 
L 500.689488 -102.644723 
L 498.350935 -104.423386 
L 496.012382 -106.165972 
L 493.673828 -107.88285 
L 491.335275 -109.585279 
L 488.996721 -111.284301 
L 486.658168 -112.989559 
L 484.319614 -114.708134 
L 481.981061 -116.443503 
L 479.642507 -118.194677 
L 477.303954 -119.955634 
L 474.9654 -121.715069 
L 472.626847 -123.456531 
L 470.288294 -125.15894 
L 467.94974 -126.797478 
L 465.611187 -128.344799 
L 463.272633 -129.772473 
L 460.93408 -131.052568 
L 458.595526 -132.159234 
L 456.256973 -133.070161 
L 453.918419 -133.767803 
L 451.579866 -134.240277 
L 449.241312 -134.481874 
L 446.902759 -134.493186 
L 444.564205 -134.280882 
L 442.225652 -133.857188 
L 439.887099 -133.239172 
L 437.548545 -132.447913 
L 435.209992 -131.507642 
L 432.871438 -130.4449 
L 430.532885 -129.287754 
L 428.194331 -128.065048 
L 425.855778 -126.805693 
L 423.517224 -125.537934 
L 421.178671 -124.288591 
L 418.840117 -123.082222 
L 416.501564 -121.940247 
L 414.163011 -120.880022 
L 411.824457 -119.913947 
L 409.485904 -119.048651 
L 407.14735 -118.284346 
L 404.808797 -117.61444 
L 402.470243 -117.025462 
L 400.13169 -116.497387 
L 397.793136 -116.00437 
L 395.454583 -115.515895 
L 393.116029 -114.998303 
L 390.777476 -114.416628 
L 388.438923 -113.736607 
L 386.100369 -112.926742 
L 383.761816 -111.960246 
L 381.423262 -110.816709 
L 379.084709 -109.483343 
L 376.746155 -107.9557 
L 374.407602 -106.237785 
L 372.069048 -104.341577 
L 369.730495 -102.285996 
L 367.391941 -100.095429 
L 365.053388 -97.797951 
L 362.714834 -95.423414 
L 360.376281 -93.001563 
L 358.037728 -90.560348 
L 355.699174 -88.124528 
L 353.360621 -85.714677 
L 351.022067 -83.34662 
L 348.683514 -81.031287 
L 346.34496 -78.774973 
L 344.006407 -76.579926 
L 341.667853 -74.445173 
L 339.3293 -72.367525 
L 336.990746 -70.342627 
L 334.652193 -68.366001 
L 332.31364 -66.433979 
L 329.975086 -64.544464 
L 327.636533 -62.697479 
L 325.297979 -60.895449 
L 322.959426 -59.143233 
L 320.620872 -57.447899 
L 318.282319 -55.818286 
L 315.943765 -54.264398 
L 313.605212 -52.796694 
L 311.266658 -51.425354 
L 308.928105 -50.159575 
L 306.589552 -49.006963 
L 304.250998 -47.973065 
L 301.912445 -47.061067 
L 299.573891 -46.271662 
L 297.235338 -45.603074 
L 294.896784 -45.051225 
L 292.558231 -44.60999 
L 290.219677 -44.271517 
L 287.881124 -44.026576 
L 285.54257 -43.864898 
L 283.204017 -43.775494 
L 280.865463 -43.746945 
L 278.52691 -43.767654 
L 276.188357 -43.826075 
L 273.849803 -43.91093 
L 271.51125 -44.01141 
L 269.172696 -44.117386 
L 266.834143 -44.219615 
L 264.495589 -44.309951 
L 262.157036 -44.381529 
L 259.818482 -44.428941 
L 257.479929 -44.448349 
L 255.141375 -44.437553 
L 252.802822 -44.395977 
L 250.464269 -44.324592 
L 248.125715 -44.225748 
L 245.787162 -44.102951 
L 243.448608 -43.960582 
L 241.110055 -43.80359 
L 238.771501 -43.637169 
L 236.432948 -43.466458 
L 234.094394 -43.296271 
L 231.755841 -43.130875 
L 229.417287 -42.973836 
L 227.078734 -42.827926 
L 224.74018 -42.695093 
L 222.401627 -42.576491 
L 220.063074 -42.47255 
L 217.72452 -42.383082 
L 215.385967 -42.307407 
L 213.047413 -42.244479 
L 210.70886 -42.193017 
L 208.370306 -42.151615 
L 206.031753 -42.118839 
L 203.693199 -42.0933 
L 201.354646 -42.073711 
L 199.016092 -42.058915 
L 196.677539 -42.047911 
z
" id="m94359b384a" style="stroke:#dd8452;"/>
    </defs>
    <g clip-path="url(#pef8b7b08cb)">
     <use style="fill:#dd8452;fill-opacity:0.25;stroke:#dd8452;" x="0" xlink:href="#m94359b384a" y="390.116719"/>
    </g>
   </g>
   <g id="PolyCollection_5">
    <defs>
     <path d="M 240.340068 -42.072102 
L 240.340068 -42.021094 
L 242.611654 -42.021094 
L 244.88324 -42.021094 
L 247.154826 -42.021094 
L 249.426412 -42.021094 
L 251.697998 -42.021094 
L 253.969584 -42.021094 
L 256.24117 -42.021094 
L 258.512756 -42.021094 
L 260.784342 -42.021094 
L 263.055928 -42.021094 
L 265.327514 -42.021094 
L 267.599099 -42.021094 
L 269.870685 -42.021094 
L 272.142271 -42.021094 
L 274.413857 -42.021094 
L 276.685443 -42.021094 
L 278.957029 -42.021094 
L 281.228615 -42.021094 
L 283.500201 -42.021094 
L 285.771787 -42.021094 
L 288.043373 -42.021094 
L 290.314959 -42.021094 
L 292.586545 -42.021094 
L 294.858131 -42.021094 
L 297.129717 -42.021094 
L 299.401302 -42.021094 
L 301.672888 -42.021094 
L 303.944474 -42.021094 
L 306.21606 -42.021094 
L 308.487646 -42.021094 
L 310.759232 -42.021094 
L 313.030818 -42.021094 
L 315.302404 -42.021094 
L 317.57399 -42.021094 
L 319.845576 -42.021094 
L 322.117162 -42.021094 
L 324.388748 -42.021094 
L 326.660334 -42.021094 
L 328.931919 -42.021094 
L 331.203505 -42.021094 
L 333.475091 -42.021094 
L 335.746677 -42.021094 
L 338.018263 -42.021094 
L 340.289849 -42.021094 
L 342.561435 -42.021094 
L 344.833021 -42.021094 
L 347.104607 -42.021094 
L 349.376193 -42.021094 
L 351.647779 -42.021094 
L 353.919365 -42.021094 
L 356.190951 -42.021094 
L 358.462537 -42.021094 
L 360.734122 -42.021094 
L 363.005708 -42.021094 
L 365.277294 -42.021094 
L 367.54888 -42.021094 
L 369.820466 -42.021094 
L 372.092052 -42.021094 
L 374.363638 -42.021094 
L 376.635224 -42.021094 
L 378.90681 -42.021094 
L 381.178396 -42.021094 
L 383.449982 -42.021094 
L 385.721568 -42.021094 
L 387.993154 -42.021094 
L 390.264739 -42.021094 
L 392.536325 -42.021094 
L 394.807911 -42.021094 
L 397.079497 -42.021094 
L 399.351083 -42.021094 
L 401.622669 -42.021094 
L 403.894255 -42.021094 
L 406.165841 -42.021094 
L 408.437427 -42.021094 
L 410.709013 -42.021094 
L 412.980599 -42.021094 
L 415.252185 -42.021094 
L 417.523771 -42.021094 
L 419.795357 -42.021094 
L 422.066942 -42.021094 
L 424.338528 -42.021094 
L 426.610114 -42.021094 
L 428.8817 -42.021094 
L 431.153286 -42.021094 
L 433.424872 -42.021094 
L 435.696458 -42.021094 
L 437.968044 -42.021094 
L 440.23963 -42.021094 
L 442.511216 -42.021094 
L 444.782802 -42.021094 
L 447.054388 -42.021094 
L 449.325974 -42.021094 
L 451.597559 -42.021094 
L 453.869145 -42.021094 
L 456.140731 -42.021094 
L 458.412317 -42.021094 
L 460.683903 -42.021094 
L 462.955489 -42.021094 
L 465.227075 -42.021094 
L 467.498661 -42.021094 
L 469.770247 -42.021094 
L 472.041833 -42.021094 
L 474.313419 -42.021094 
L 476.585005 -42.021094 
L 478.856591 -42.021094 
L 481.128177 -42.021094 
L 483.399762 -42.021094 
L 485.671348 -42.021094 
L 487.942934 -42.021094 
L 490.21452 -42.021094 
L 492.486106 -42.021094 
L 494.757692 -42.021094 
L 497.029278 -42.021094 
L 499.300864 -42.021094 
L 501.57245 -42.021094 
L 503.844036 -42.021094 
L 506.115622 -42.021094 
L 508.387208 -42.021094 
L 510.658794 -42.021094 
L 512.930379 -42.021094 
L 515.201965 -42.021094 
L 517.473551 -42.021094 
L 519.745137 -42.021094 
L 522.016723 -42.021094 
L 524.288309 -42.021094 
L 526.559895 -42.021094 
L 528.831481 -42.021094 
L 531.103067 -42.021094 
L 533.374653 -42.021094 
L 535.646239 -42.021094 
L 537.917825 -42.021094 
L 540.189411 -42.021094 
L 542.460997 -42.021094 
L 544.732582 -42.021094 
L 547.004168 -42.021094 
L 549.275754 -42.021094 
L 551.54734 -42.021094 
L 553.818926 -42.021094 
L 556.090512 -42.021094 
L 558.362098 -42.021094 
L 560.633684 -42.021094 
L 562.90527 -42.021094 
L 565.176856 -42.021094 
L 567.448442 -42.021094 
L 569.720028 -42.021094 
L 571.991614 -42.021094 
L 574.263199 -42.021094 
L 576.534785 -42.021094 
L 578.806371 -42.021094 
L 581.077957 -42.021094 
L 583.349543 -42.021094 
L 585.621129 -42.021094 
L 587.892715 -42.021094 
L 590.164301 -42.021094 
L 592.435887 -42.021094 
L 594.707473 -42.021094 
L 596.979059 -42.021094 
L 599.250645 -42.021094 
L 601.522231 -42.021094 
L 603.793817 -42.021094 
L 606.065402 -42.021094 
L 608.336988 -42.021094 
L 610.608574 -42.021094 
L 612.88016 -42.021094 
L 615.151746 -42.021094 
L 617.423332 -42.021094 
L 619.694918 -42.021094 
L 621.966504 -42.021094 
L 624.23809 -42.021094 
L 626.509676 -42.021094 
L 628.781262 -42.021094 
L 631.052848 -42.021094 
L 633.324434 -42.021094 
L 635.596019 -42.021094 
L 637.867605 -42.021094 
L 640.139191 -42.021094 
L 642.410777 -42.021094 
L 644.682363 -42.021094 
L 646.953949 -42.021094 
L 649.225535 -42.021094 
L 651.497121 -42.021094 
L 653.768707 -42.021094 
L 656.040293 -42.021094 
L 658.311879 -42.021094 
L 660.583465 -42.021094 
L 662.855051 -42.021094 
L 665.126637 -42.021094 
L 667.398222 -42.021094 
L 669.669808 -42.021094 
L 671.941394 -42.021094 
L 674.21298 -42.021094 
L 676.484566 -42.021094 
L 678.756152 -42.021094 
L 681.027738 -42.021094 
L 683.299324 -42.021094 
L 685.57091 -42.021094 
L 687.842496 -42.021094 
L 690.114082 -42.021094 
L 692.385668 -42.021094 
L 692.385668 -42.046716 
L 692.385668 -42.046716 
L 690.114082 -42.056073 
L 687.842496 -42.068367 
L 685.57091 -42.084345 
L 683.299324 -42.104887 
L 681.027738 -42.131012 
L 678.756152 -42.163886 
L 676.484566 -42.204815 
L 674.21298 -42.255241 
L 671.941394 -42.31673 
L 669.669808 -42.390946 
L 667.398222 -42.479634 
L 665.126637 -42.584578 
L 662.855051 -42.707576 
L 660.583465 -42.850396 
L 658.311879 -43.014742 
L 656.040293 -43.202221 
L 653.768707 -43.414312 
L 651.497121 -43.652351 
L 649.225535 -43.917515 
L 646.953949 -44.210828 
L 644.682363 -44.533165 
L 642.410777 -44.885283 
L 640.139191 -45.267848 
L 637.867605 -45.681475 
L 635.596019 -46.126772 
L 633.324434 -46.60439 
L 631.052848 -47.115061 
L 628.781262 -47.659645 
L 626.509676 -48.239164 
L 624.23809 -48.854823 
L 621.966504 -49.50803 
L 619.694918 -50.2004 
L 617.423332 -50.933743 
L 615.151746 -51.710047 
L 612.88016 -52.531447 
L 610.608574 -53.400176 
L 608.336988 -54.318512 
L 606.065402 -55.288707 
L 603.793817 -56.312916 
L 601.522231 -57.393101 
L 599.250645 -58.530942 
L 596.979059 -59.72773 
L 594.707473 -60.984265 
L 592.435887 -62.300744 
L 590.164301 -63.676663 
L 587.892715 -65.110721 
L 585.621129 -66.60074 
L 583.349543 -68.143613 
L 581.077957 -69.735279 
L 578.806371 -71.370737 
L 576.534785 -73.044112 
L 574.263199 -74.748766 
L 571.991614 -76.477464 
L 569.720028 -78.222595 
L 567.448442 -79.976431 
L 565.176856 -81.731426 
L 562.90527 -83.480526 
L 560.633684 -85.217475 
L 558.362098 -86.937097 
L 556.090512 -88.635519 
L 553.818926 -90.310333 
L 551.54734 -91.960649 
L 549.275754 -93.587061 
L 547.004168 -95.191489 
L 544.732582 -96.776933 
L 542.460997 -98.347117 
L 540.189411 -99.906081 
L 537.917825 -101.457716 
L 535.646239 -103.005303 
L 533.374653 -104.551068 
L 531.103067 -106.095809 
L 528.831481 -107.638612 
L 526.559895 -109.176689 
L 524.288309 -110.705361 
L 522.016723 -112.218179 
L 519.745137 -113.707204 
L 517.473551 -115.163403 
L 515.201965 -116.577158 
L 512.930379 -117.938847 
L 510.658794 -119.239445 
L 508.387208 -120.471114 
L 506.115622 -121.627729 
L 503.844036 -122.705294 
L 501.57245 -123.702226 
L 499.300864 -124.619468 
L 497.029278 -125.460436 
L 494.757692 -126.230788 
L 492.486106 -126.938032 
L 490.21452 -127.591007 
L 487.942934 -128.199263 
L 485.671348 -128.772378 
L 483.399762 -129.319256 
L 481.128177 -129.847453 
L 478.856591 -130.362543 
L 476.585005 -130.867588 
L 474.313419 -131.362703 
L 472.041833 -131.844743 
L 469.770247 -132.307129 
L 467.498661 -132.739796 
L 465.227075 -133.129274 
L 462.955489 -133.458895 
L 460.683903 -133.709114 
L 458.412317 -133.857943 
L 456.140731 -133.881495 
L 453.869145 -133.75463 
L 451.597559 -133.451699 
L 449.325974 -132.947379 
L 447.054388 -132.217598 
L 444.782802 -131.240515 
L 442.511216 -129.997545 
L 440.23963 -128.474388 
L 437.968044 -126.662003 
L 435.696458 -124.557498 
L 433.424872 -122.164839 
L 431.153286 -119.49535 
L 428.8817 -116.567928 
L 426.610114 -113.408928 
L 424.338528 -110.051704 
L 422.066942 -106.535799 
L 419.795357 -102.905797 
L 417.523771 -99.209905 
L 415.252185 -95.498322 
L 412.980599 -91.821493 
L 410.709013 -88.228354 
L 408.437427 -84.764656 
L 406.165841 -81.471485 
L 403.894255 -78.384037 
L 401.622669 -75.530721 
L 399.351083 -72.932621 
L 397.079497 -70.60331 
L 394.807911 -68.549022 
L 392.536325 -66.769108 
L 390.264739 -65.256747 
L 387.993154 -63.999826 
L 385.721568 -62.981928 
L 383.449982 -62.183351 
L 381.178396 -61.582112 
L 378.90681 -61.154874 
L 376.635224 -60.877764 
L 374.363638 -60.727068 
L 372.092052 -60.67979 
L 369.820466 -60.714066 
L 367.54888 -60.809464 
L 365.277294 -60.947171 
L 363.005708 -61.110083 
L 360.734122 -61.282832 
L 358.462537 -61.451754 
L 356.190951 -61.604829 
L 353.919365 -61.731593 
L 351.647779 -61.823044 
L 349.376193 -61.871554 
L 347.104607 -61.870778 
L 344.833021 -61.815589 
L 342.561435 -61.702012 
L 340.289849 -61.527182 
L 338.018263 -61.289308 
L 335.746677 -60.987648 
L 333.475091 -60.622478 
L 331.203505 -60.195071 
L 328.931919 -59.707657 
L 326.660334 -59.163374 
L 324.388748 -58.566211 
L 322.117162 -57.920918 
L 319.845576 -57.232921 
L 317.57399 -56.508204 
L 315.302404 -55.753197 
L 313.030818 -54.974644 
L 310.759232 -54.17948 
L 308.487646 -53.374703 
L 306.21606 -52.567258 
L 303.944474 -51.763922 
L 301.672888 -50.971204 
L 299.401302 -50.195249 
L 297.129717 -49.441754 
L 294.858131 -48.715889 
L 292.586545 -48.022234 
L 290.314959 -47.364717 
L 288.043373 -46.74657 
L 285.771787 -46.170291 
L 283.500201 -45.637626 
L 281.228615 -45.149565 
L 278.957029 -44.706358 
L 276.685443 -44.30755 
L 274.413857 -43.952034 
L 272.142271 -43.638121 
L 269.870685 -43.363629 
L 267.599099 -43.125972 
L 265.327514 -42.922269 
L 263.055928 -42.749446 
L 260.784342 -42.604331 
L 258.512756 -42.483753 
L 256.24117 -42.384619 
L 253.969584 -42.30398 
L 251.697998 -42.23909 
L 249.426412 -42.187436 
L 247.154826 -42.146763 
L 244.88324 -42.115088 
L 242.611654 -42.090689 
L 240.340068 -42.072102 
z
" id="m1e0c2b8235" style="stroke:#4c72b0;"/>
    </defs>
    <g clip-path="url(#pef8b7b08cb)">
     <use style="fill:#4c72b0;fill-opacity:0.25;stroke:#4c72b0;" x="0" xlink:href="#m1e0c2b8235" y="390.116719"/>
    </g>
   </g>
   <g id="patch_3">
    <path d="M 53.222031 348.095625 
L 53.222031 21.935625 
" style="fill:none;stroke:#ffffff;stroke-linecap:square;stroke-linejoin:miter;stroke-width:1.25;"/>
   </g>
   <g id="patch_4">
    <path d="M 722.822031 348.095625 
L 722.822031 21.935625 
" style="fill:none;stroke:#ffffff;stroke-linecap:square;stroke-linejoin:miter;stroke-width:1.25;"/>
   </g>
   <g id="patch_5">
    <path d="M 53.222031 348.095625 
L 722.822031 348.095625 
" style="fill:none;stroke:#ffffff;stroke-linecap:square;stroke-linejoin:miter;stroke-width:1.25;"/>
   </g>
   <g id="patch_6">
    <path d="M 53.222031 21.935625 
L 722.822031 21.935625 
" style="fill:none;stroke:#ffffff;stroke-linecap:square;stroke-linejoin:miter;stroke-width:1.25;"/>
   </g>
   <g id="text_15">
    <!-- Density Estimation of RSSI Values at Different Distances -->
    <g style="fill:#262626;" transform="translate(237.512031 15.935625)scale(0.12 -0.12)">
     <defs>
      <path d="M 8.6875 0 
L 8.6875 45.015625 
L 0.921875 45.015625 
L 0.921875 51.859375 
L 8.6875 51.859375 
L 8.6875 57.375 
Q 8.6875 62.59375 9.625 65.140625 
Q 10.890625 68.5625 14.078125 70.671875 
Q 17.28125 72.796875 23.046875 72.796875 
Q 26.765625 72.796875 31.25 71.921875 
L 29.9375 64.265625 
Q 27.203125 64.75 24.75 64.75 
Q 20.75 64.75 19.09375 63.03125 
Q 17.4375 61.328125 17.4375 56.640625 
L 17.4375 51.859375 
L 27.546875 51.859375 
L 27.546875 45.015625 
L 17.4375 45.015625 
L 17.4375 0 
z
" id="ArialMT-102"/>
      <path d="M 40.4375 19 
L 49.078125 17.875 
Q 47.65625 8.9375 41.8125 3.875 
Q 35.984375 -1.171875 27.484375 -1.171875 
Q 16.84375 -1.171875 10.375 5.78125 
Q 3.90625 12.75 3.90625 25.734375 
Q 3.90625 34.125 6.6875 40.421875 
Q 9.46875 46.734375 15.15625 49.875 
Q 20.84375 53.03125 27.546875 53.03125 
Q 35.984375 53.03125 41.359375 48.75 
Q 46.734375 44.484375 48.25 36.625 
L 39.703125 35.296875 
Q 38.484375 40.53125 35.375 43.15625 
Q 32.28125 45.796875 27.875 45.796875 
Q 21.234375 45.796875 17.078125 41.03125 
Q 12.9375 36.28125 12.9375 25.984375 
Q 12.9375 15.53125 16.9375 10.796875 
Q 20.953125 6.0625 27.390625 6.0625 
Q 32.5625 6.0625 36.03125 9.234375 
Q 39.5 12.40625 40.4375 19 
z
" id="ArialMT-99"/>
     </defs>
     <use xlink:href="#ArialMT-68"/>
     <use x="72.216797" xlink:href="#ArialMT-101"/>
     <use x="127.832031" xlink:href="#ArialMT-110"/>
     <use x="183.447266" xlink:href="#ArialMT-115"/>
     <use x="233.447266" xlink:href="#ArialMT-105"/>
     <use x="255.664062" xlink:href="#ArialMT-116"/>
     <use x="283.447266" xlink:href="#ArialMT-121"/>
     <use x="333.447266" xlink:href="#ArialMT-32"/>
     <use x="361.230469" xlink:href="#ArialMT-69"/>
     <use x="427.929688" xlink:href="#ArialMT-115"/>
     <use x="477.929688" xlink:href="#ArialMT-116"/>
     <use x="505.712891" xlink:href="#ArialMT-105"/>
     <use x="527.929688" xlink:href="#ArialMT-109"/>
     <use x="611.230469" xlink:href="#ArialMT-97"/>
     <use x="666.845703" xlink:href="#ArialMT-116"/>
     <use x="694.628906" xlink:href="#ArialMT-105"/>
     <use x="716.845703" xlink:href="#ArialMT-111"/>
     <use x="772.460938" xlink:href="#ArialMT-110"/>
     <use x="828.076172" xlink:href="#ArialMT-32"/>
     <use x="855.859375" xlink:href="#ArialMT-111"/>
     <use x="911.474609" xlink:href="#ArialMT-102"/>
     <use x="939.257812" xlink:href="#ArialMT-32"/>
     <use x="967.041016" xlink:href="#ArialMT-82"/>
     <use x="1039.257812" xlink:href="#ArialMT-83"/>
     <use x="1105.957031" xlink:href="#ArialMT-83"/>
     <use x="1172.65625" xlink:href="#ArialMT-73"/>
     <use x="1200.439453" xlink:href="#ArialMT-32"/>
     <use x="1228.222656" xlink:href="#ArialMT-86"/>
     <use x="1287.546875" xlink:href="#ArialMT-97"/>
     <use x="1343.162109" xlink:href="#ArialMT-108"/>
     <use x="1365.378906" xlink:href="#ArialMT-117"/>
     <use x="1420.994141" xlink:href="#ArialMT-101"/>
     <use x="1476.609375" xlink:href="#ArialMT-115"/>
     <use x="1526.609375" xlink:href="#ArialMT-32"/>
     <use x="1554.392578" xlink:href="#ArialMT-97"/>
     <use x="1610.007812" xlink:href="#ArialMT-116"/>
     <use x="1637.791016" xlink:href="#ArialMT-32"/>
     <use x="1665.574219" xlink:href="#ArialMT-68"/>
     <use x="1737.791016" xlink:href="#ArialMT-105"/>
     <use x="1760.007812" xlink:href="#ArialMT-102"/>
     <use x="1786.041016" xlink:href="#ArialMT-102"/>
     <use x="1813.824219" xlink:href="#ArialMT-101"/>
     <use x="1869.439453" xlink:href="#ArialMT-114"/>
     <use x="1902.740234" xlink:href="#ArialMT-101"/>
     <use x="1958.355469" xlink:href="#ArialMT-110"/>
     <use x="2013.970703" xlink:href="#ArialMT-116"/>
     <use x="2041.753906" xlink:href="#ArialMT-32"/>
     <use x="2069.537109" xlink:href="#ArialMT-68"/>
     <use x="2141.753906" xlink:href="#ArialMT-105"/>
     <use x="2163.970703" xlink:href="#ArialMT-115"/>
     <use x="2213.970703" xlink:href="#ArialMT-116"/>
     <use x="2241.753906" xlink:href="#ArialMT-97"/>
     <use x="2297.369141" xlink:href="#ArialMT-110"/>
     <use x="2352.984375" xlink:href="#ArialMT-99"/>
     <use x="2402.984375" xlink:href="#ArialMT-101"/>
     <use x="2458.599609" xlink:href="#ArialMT-115"/>
    </g>
   </g>
   <g id="legend_1">
    <g id="patch_7">
     <path d="M 655.469375 108.534844 
L 715.122031 108.534844 
Q 717.322031 108.534844 717.322031 106.334844 
L 717.322031 29.635625 
Q 717.322031 27.435625 715.122031 27.435625 
L 655.469375 27.435625 
Q 653.269375 27.435625 653.269375 29.635625 
L 653.269375 106.334844 
Q 653.269375 108.534844 655.469375 108.534844 
z
" style="fill:#eaeaf2;opacity:0.8;stroke:#cccccc;stroke-linejoin:miter;"/>
    </g>
    <g id="patch_8">
     <path d="M 657.669375 39.709219 
L 679.669375 39.709219 
L 679.669375 32.009219 
L 657.669375 32.009219 
z
" style="fill:#4c72b0;fill-opacity:0.25;stroke:#4c72b0;stroke-linejoin:miter;"/>
    </g>
    <g id="text_16">
     <!-- 0.5m -->
     <g style="fill:#262626;" transform="translate(688.469375 39.709219)scale(0.11 -0.11)">
      <use xlink:href="#ArialMT-48"/>
      <use x="55.615234" xlink:href="#ArialMT-46"/>
      <use x="83.398438" xlink:href="#ArialMT-53"/>
      <use x="139.013672" xlink:href="#ArialMT-109"/>
     </g>
    </g>
    <g id="patch_9">
     <path d="M 657.669375 55.269063 
L 679.669375 55.269063 
L 679.669375 47.569063 
L 657.669375 47.569063 
z
" style="fill:#dd8452;fill-opacity:0.25;stroke:#dd8452;stroke-linejoin:miter;"/>
    </g>
    <g id="text_17">
     <!-- 1.0m -->
     <g style="fill:#262626;" transform="translate(688.469375 55.269063)scale(0.11 -0.11)">
      <use xlink:href="#ArialMT-49"/>
      <use x="55.615234" xlink:href="#ArialMT-46"/>
      <use x="83.398438" xlink:href="#ArialMT-48"/>
      <use x="139.013672" xlink:href="#ArialMT-109"/>
     </g>
    </g>
    <g id="patch_10">
     <path d="M 657.669375 70.828906 
L 679.669375 70.828906 
L 679.669375 63.128906 
L 657.669375 63.128906 
z
" style="fill:#55a868;fill-opacity:0.25;stroke:#55a868;stroke-linejoin:miter;"/>
    </g>
    <g id="text_18">
     <!-- 1.5m -->
     <g style="fill:#262626;" transform="translate(688.469375 70.828906)scale(0.11 -0.11)">
      <use xlink:href="#ArialMT-49"/>
      <use x="55.615234" xlink:href="#ArialMT-46"/>
      <use x="83.398438" xlink:href="#ArialMT-53"/>
      <use x="139.013672" xlink:href="#ArialMT-109"/>
     </g>
    </g>
    <g id="patch_11">
     <path d="M 657.669375 86.38875 
L 679.669375 86.38875 
L 679.669375 78.68875 
L 657.669375 78.68875 
z
" style="fill:#c44e52;fill-opacity:0.25;stroke:#c44e52;stroke-linejoin:miter;"/>
    </g>
    <g id="text_19">
     <!-- 2.0m -->
     <g style="fill:#262626;" transform="translate(688.469375 86.38875)scale(0.11 -0.11)">
      <use xlink:href="#ArialMT-50"/>
      <use x="55.615234" xlink:href="#ArialMT-46"/>
      <use x="83.398438" xlink:href="#ArialMT-48"/>
      <use x="139.013672" xlink:href="#ArialMT-109"/>
     </g>
    </g>
    <g id="patch_12">
     <path d="M 657.669375 101.948594 
L 679.669375 101.948594 
L 679.669375 94.248594 
L 657.669375 94.248594 
z
" style="fill:#8172b3;fill-opacity:0.25;stroke:#8172b3;stroke-linejoin:miter;"/>
    </g>
    <g id="text_20">
     <!-- 2.5m -->
     <g style="fill:#262626;" transform="translate(688.469375 101.948594)scale(0.11 -0.11)">
      <use xlink:href="#ArialMT-50"/>
      <use x="55.615234" xlink:href="#ArialMT-46"/>
      <use x="83.398438" xlink:href="#ArialMT-53"/>
      <use x="139.013672" xlink:href="#ArialMT-109"/>
     </g>
    </g>
   </g>
  </g>
 </g>
 <defs>
  <clipPath id="pef8b7b08cb">
   <rect height="326.16" width="669.6" x="53.222031" y="21.935625"/>
  </clipPath>
 </defs>
</svg>
