<?xml version="1.0" encoding="utf-8" standalone="no"?>
<!DOCTYPE svg PUBLIC "-//W3C//DTD SVG 1.1//EN"
  "http://www.w3.org/Graphics/SVG/1.1/DTD/svg11.dtd">
<!-- Created with matplotlib (https://matplotlib.org/) -->
<svg height="390.116719pt" version="1.1" viewBox="0 0 736.139062 390.116719" width="736.139062pt" xmlns="http://www.w3.org/2000/svg" xmlns:xlink="http://www.w3.org/1999/xlink">
 <metadata>
  <rdf:RDF xmlns:cc="http://creativecommons.org/ns#" xmlns:dc="http://purl.org/dc/elements/1.1/" xmlns:rdf="http://www.w3.org/1999/02/22-rdf-syntax-ns#">
   <cc:Work>
    <dc:type rdf:resource="http://purl.org/dc/dcmitype/StillImage"/>
    <dc:date>2021-02-07T22:00:04.280117</dc:date>
    <dc:format>image/svg+xml</dc:format>
    <dc:creator>
     <cc:Agent>
      <dc:title>Matplotlib v3.3.2, https://matplotlib.org/</dc:title>
     </cc:Agent>
    </dc:creator>
   </cc:Work>
  </rdf:RDF>
 </metadata>
 <defs>
  <style type="text/css">*{stroke-linecap:butt;stroke-linejoin:round;}</style>
 </defs>
 <g id="figure_1">
  <g id="patch_1">
   <path d="M 0 390.116719 
L 736.139062 390.116719 
L 736.139062 0 
L 0 0 
z
" style="fill:#ffffff;"/>
  </g>
  <g id="axes_1">
   <g id="patch_2">
    <path d="M 59.339063 348.095625 
L 728.939062 348.095625 
L 728.939062 21.935625 
L 59.339063 21.935625 
z
" style="fill:#eaeaf2;"/>
   </g>
   <g id="matplotlib.axis_1">
    <g id="xtick_1">
     <g id="line2d_1">
      <path clip-path="url(#pbb10f77264)" d="M 120.092909 348.095625 
L 120.092909 21.935625 
" style="fill:none;stroke:#ffffff;stroke-linecap:round;"/>
     </g>
     <g id="text_1">
      <!-- −95 -->
      <g style="fill:#262626;" transform="translate(110.763534 365.469219)scale(0.11 -0.11)">
       <defs>
        <path d="M 52.828125 31.203125 
L 5.5625 31.203125 
L 5.5625 39.40625 
L 52.828125 39.40625 
z
" id="ArialMT-8722"/>
        <path d="M 5.46875 16.546875 
L 13.921875 17.328125 
Q 14.984375 11.375 18.015625 8.6875 
Q 21.046875 6 25.78125 6 
Q 29.828125 6 32.875 7.859375 
Q 35.9375 9.71875 37.890625 12.8125 
Q 39.84375 15.921875 41.15625 21.1875 
Q 42.484375 26.46875 42.484375 31.9375 
Q 42.484375 32.515625 42.4375 33.6875 
Q 39.796875 29.5 35.234375 26.875 
Q 30.671875 24.265625 25.34375 24.265625 
Q 16.453125 24.265625 10.296875 30.703125 
Q 4.15625 37.15625 4.15625 47.703125 
Q 4.15625 58.59375 10.578125 65.234375 
Q 17 71.875 26.65625 71.875 
Q 33.640625 71.875 39.421875 68.109375 
Q 45.21875 64.359375 48.21875 57.390625 
Q 51.21875 50.4375 51.21875 37.25 
Q 51.21875 23.53125 48.234375 15.40625 
Q 45.265625 7.28125 39.375 3.03125 
Q 33.5 -1.21875 25.59375 -1.21875 
Q 17.1875 -1.21875 11.859375 3.4375 
Q 6.546875 8.109375 5.46875 16.546875 
z
M 41.453125 48.140625 
Q 41.453125 55.71875 37.421875 60.15625 
Q 33.40625 64.59375 27.734375 64.59375 
Q 21.875 64.59375 17.53125 59.8125 
Q 13.1875 55.03125 13.1875 47.40625 
Q 13.1875 40.578125 17.3125 36.296875 
Q 21.4375 32.03125 27.484375 32.03125 
Q 33.59375 32.03125 37.515625 36.296875 
Q 41.453125 40.578125 41.453125 48.140625 
z
" id="ArialMT-57"/>
        <path d="M 4.15625 18.75 
L 13.375 19.53125 
Q 14.40625 12.796875 18.140625 9.390625 
Q 21.875 6 27.15625 6 
Q 33.5 6 37.890625 10.78125 
Q 42.28125 15.578125 42.28125 23.484375 
Q 42.28125 31 38.0625 35.34375 
Q 33.84375 39.703125 27 39.703125 
Q 22.75 39.703125 19.328125 37.765625 
Q 15.921875 35.84375 13.96875 32.765625 
L 5.71875 33.84375 
L 12.640625 70.609375 
L 48.25 70.609375 
L 48.25 62.203125 
L 19.671875 62.203125 
L 15.828125 42.96875 
Q 22.265625 47.46875 29.34375 47.46875 
Q 38.71875 47.46875 45.15625 40.96875 
Q 51.609375 34.46875 51.609375 24.265625 
Q 51.609375 14.546875 45.953125 7.46875 
Q 39.0625 -1.21875 27.15625 -1.21875 
Q 17.390625 -1.21875 11.203125 4.25 
Q 5.03125 9.71875 4.15625 18.75 
z
" id="ArialMT-53"/>
       </defs>
       <use xlink:href="#ArialMT-8722"/>
       <use x="58.398438" xlink:href="#ArialMT-57"/>
       <use x="114.013672" xlink:href="#ArialMT-53"/>
      </g>
     </g>
    </g>
    <g id="xtick_2">
     <g id="line2d_2">
      <path clip-path="url(#pbb10f77264)" d="M 266.794276 348.095625 
L 266.794276 21.935625 
" style="fill:none;stroke:#ffffff;stroke-linecap:round;"/>
     </g>
     <g id="text_2">
      <!-- −90 -->
      <g style="fill:#262626;" transform="translate(257.464901 365.469219)scale(0.11 -0.11)">
       <defs>
        <path d="M 4.15625 35.296875 
Q 4.15625 48 6.765625 55.734375 
Q 9.375 63.484375 14.515625 67.671875 
Q 19.671875 71.875 27.484375 71.875 
Q 33.25 71.875 37.59375 69.546875 
Q 41.9375 67.234375 44.765625 62.859375 
Q 47.609375 58.5 49.21875 52.21875 
Q 50.828125 45.953125 50.828125 35.296875 
Q 50.828125 22.703125 48.234375 14.96875 
Q 45.65625 7.234375 40.5 3 
Q 35.359375 -1.21875 27.484375 -1.21875 
Q 17.140625 -1.21875 11.234375 6.203125 
Q 4.15625 15.140625 4.15625 35.296875 
z
M 13.1875 35.296875 
Q 13.1875 17.671875 17.3125 11.828125 
Q 21.4375 6 27.484375 6 
Q 33.546875 6 37.671875 11.859375 
Q 41.796875 17.71875 41.796875 35.296875 
Q 41.796875 52.984375 37.671875 58.78125 
Q 33.546875 64.59375 27.390625 64.59375 
Q 21.34375 64.59375 17.71875 59.46875 
Q 13.1875 52.9375 13.1875 35.296875 
z
" id="ArialMT-48"/>
       </defs>
       <use xlink:href="#ArialMT-8722"/>
       <use x="58.398438" xlink:href="#ArialMT-57"/>
       <use x="114.013672" xlink:href="#ArialMT-48"/>
      </g>
     </g>
    </g>
    <g id="xtick_3">
     <g id="line2d_3">
      <path clip-path="url(#pbb10f77264)" d="M 413.495643 348.095625 
L 413.495643 21.935625 
" style="fill:none;stroke:#ffffff;stroke-linecap:round;"/>
     </g>
     <g id="text_3">
      <!-- −85 -->
      <g style="fill:#262626;" transform="translate(404.166268 365.469219)scale(0.11 -0.11)">
       <defs>
        <path d="M 17.671875 38.8125 
Q 12.203125 40.828125 9.5625 44.53125 
Q 6.9375 48.25 6.9375 53.421875 
Q 6.9375 61.234375 12.546875 66.546875 
Q 18.171875 71.875 27.484375 71.875 
Q 36.859375 71.875 42.578125 66.421875 
Q 48.296875 60.984375 48.296875 53.171875 
Q 48.296875 48.1875 45.671875 44.5 
Q 43.0625 40.828125 37.75 38.8125 
Q 44.34375 36.671875 47.78125 31.875 
Q 51.21875 27.09375 51.21875 20.453125 
Q 51.21875 11.28125 44.71875 5.03125 
Q 38.234375 -1.21875 27.640625 -1.21875 
Q 17.046875 -1.21875 10.546875 5.046875 
Q 4.046875 11.328125 4.046875 20.703125 
Q 4.046875 27.6875 7.59375 32.390625 
Q 11.140625 37.109375 17.671875 38.8125 
z
M 15.921875 53.71875 
Q 15.921875 48.640625 19.1875 45.40625 
Q 22.46875 42.1875 27.6875 42.1875 
Q 32.765625 42.1875 36.015625 45.375 
Q 39.265625 48.578125 39.265625 53.21875 
Q 39.265625 58.0625 35.90625 61.359375 
Q 32.5625 64.65625 27.59375 64.65625 
Q 22.5625 64.65625 19.234375 61.421875 
Q 15.921875 58.203125 15.921875 53.71875 
z
M 13.09375 20.65625 
Q 13.09375 16.890625 14.875 13.375 
Q 16.65625 9.859375 20.171875 7.921875 
Q 23.6875 6 27.734375 6 
Q 34.03125 6 38.125 10.046875 
Q 42.234375 14.109375 42.234375 20.359375 
Q 42.234375 26.703125 38.015625 30.859375 
Q 33.796875 35.015625 27.4375 35.015625 
Q 21.234375 35.015625 17.15625 30.90625 
Q 13.09375 26.8125 13.09375 20.65625 
z
" id="ArialMT-56"/>
       </defs>
       <use xlink:href="#ArialMT-8722"/>
       <use x="58.398438" xlink:href="#ArialMT-56"/>
       <use x="114.013672" xlink:href="#ArialMT-53"/>
      </g>
     </g>
    </g>
    <g id="xtick_4">
     <g id="line2d_4">
      <path clip-path="url(#pbb10f77264)" d="M 560.197009 348.095625 
L 560.197009 21.935625 
" style="fill:none;stroke:#ffffff;stroke-linecap:round;"/>
     </g>
     <g id="text_4">
      <!-- −80 -->
      <g style="fill:#262626;" transform="translate(550.867634 365.469219)scale(0.11 -0.11)">
       <use xlink:href="#ArialMT-8722"/>
       <use x="58.398438" xlink:href="#ArialMT-56"/>
       <use x="114.013672" xlink:href="#ArialMT-48"/>
      </g>
     </g>
    </g>
    <g id="xtick_5">
     <g id="line2d_5">
      <path clip-path="url(#pbb10f77264)" d="M 706.898376 348.095625 
L 706.898376 21.935625 
" style="fill:none;stroke:#ffffff;stroke-linecap:round;"/>
     </g>
     <g id="text_5">
      <!-- −75 -->
      <g style="fill:#262626;" transform="translate(697.569001 365.469219)scale(0.11 -0.11)">
       <defs>
        <path d="M 4.734375 62.203125 
L 4.734375 70.65625 
L 51.078125 70.65625 
L 51.078125 63.8125 
Q 44.234375 56.546875 37.515625 44.484375 
Q 30.8125 32.421875 27.15625 19.671875 
Q 24.515625 10.6875 23.78125 0 
L 14.75 0 
Q 14.890625 8.453125 18.0625 20.40625 
Q 21.234375 32.375 27.171875 43.484375 
Q 33.109375 54.59375 39.796875 62.203125 
z
" id="ArialMT-55"/>
       </defs>
       <use xlink:href="#ArialMT-8722"/>
       <use x="58.398438" xlink:href="#ArialMT-55"/>
       <use x="114.013672" xlink:href="#ArialMT-53"/>
      </g>
     </g>
    </g>
    <g id="text_6">
     <!-- RSSI Value (Higher Values Stronger) -->
     <g style="fill:#262626;" transform="translate(295.981875 380.391094)scale(0.12 -0.12)">
      <defs>
       <path d="M 7.859375 0 
L 7.859375 71.578125 
L 39.59375 71.578125 
Q 49.171875 71.578125 54.140625 69.640625 
Q 59.125 67.71875 62.109375 62.828125 
Q 65.09375 57.953125 65.09375 52.046875 
Q 65.09375 44.4375 60.15625 39.203125 
Q 55.21875 33.984375 44.921875 32.5625 
Q 48.6875 30.765625 50.640625 29 
Q 54.78125 25.203125 58.5 19.484375 
L 70.953125 0 
L 59.03125 0 
L 49.5625 14.890625 
Q 45.40625 21.34375 42.71875 24.75 
Q 40.046875 28.171875 37.921875 29.53125 
Q 35.796875 30.90625 33.59375 31.453125 
Q 31.984375 31.78125 28.328125 31.78125 
L 17.328125 31.78125 
L 17.328125 0 
z
M 17.328125 39.984375 
L 37.703125 39.984375 
Q 44.1875 39.984375 47.84375 41.328125 
Q 51.515625 42.671875 53.421875 45.625 
Q 55.328125 48.578125 55.328125 52.046875 
Q 55.328125 57.125 51.640625 60.390625 
Q 47.953125 63.671875 39.984375 63.671875 
L 17.328125 63.671875 
z
" id="ArialMT-82"/>
       <path d="M 4.5 23 
L 13.421875 23.78125 
Q 14.0625 18.40625 16.375 14.96875 
Q 18.703125 11.53125 23.578125 9.40625 
Q 28.46875 7.28125 34.578125 7.28125 
Q 39.984375 7.28125 44.140625 8.890625 
Q 48.296875 10.5 50.3125 13.296875 
Q 52.34375 16.109375 52.34375 19.4375 
Q 52.34375 22.796875 50.390625 25.3125 
Q 48.4375 27.828125 43.953125 29.546875 
Q 41.0625 30.671875 31.203125 33.03125 
Q 21.34375 35.40625 17.390625 37.5 
Q 12.25 40.1875 9.734375 44.15625 
Q 7.234375 48.140625 7.234375 53.078125 
Q 7.234375 58.5 10.296875 63.203125 
Q 13.375 67.921875 19.28125 70.359375 
Q 25.203125 72.796875 32.421875 72.796875 
Q 40.375 72.796875 46.453125 70.234375 
Q 52.546875 67.671875 55.8125 62.6875 
Q 59.078125 57.71875 59.328125 51.421875 
L 50.25 50.734375 
Q 49.515625 57.515625 45.28125 60.984375 
Q 41.0625 64.453125 32.8125 64.453125 
Q 24.21875 64.453125 20.28125 61.296875 
Q 16.359375 58.15625 16.359375 53.71875 
Q 16.359375 49.859375 19.140625 47.359375 
Q 21.875 44.875 33.421875 42.265625 
Q 44.96875 39.65625 49.265625 37.703125 
Q 55.515625 34.8125 58.484375 30.390625 
Q 61.46875 25.984375 61.46875 20.21875 
Q 61.46875 14.5 58.203125 9.4375 
Q 54.9375 4.390625 48.796875 1.578125 
Q 42.671875 -1.21875 35.015625 -1.21875 
Q 25.296875 -1.21875 18.71875 1.609375 
Q 12.15625 4.4375 8.421875 10.125 
Q 4.6875 15.828125 4.5 23 
z
" id="ArialMT-83"/>
       <path d="M 9.328125 0 
L 9.328125 71.578125 
L 18.796875 71.578125 
L 18.796875 0 
z
" id="ArialMT-73"/>
       <path id="ArialMT-32"/>
       <path d="M 28.171875 0 
L 0.4375 71.578125 
L 10.6875 71.578125 
L 29.296875 19.578125 
Q 31.546875 13.328125 33.0625 7.859375 
Q 34.71875 13.71875 36.921875 19.578125 
L 56.25 71.578125 
L 65.921875 71.578125 
L 37.890625 0 
z
" id="ArialMT-86"/>
       <path d="M 40.4375 6.390625 
Q 35.546875 2.25 31.03125 0.53125 
Q 26.515625 -1.171875 21.34375 -1.171875 
Q 12.796875 -1.171875 8.203125 3 
Q 3.609375 7.171875 3.609375 13.671875 
Q 3.609375 17.484375 5.34375 20.625 
Q 7.078125 23.78125 9.890625 25.6875 
Q 12.703125 27.59375 16.21875 28.5625 
Q 18.796875 29.25 24.03125 29.890625 
Q 34.671875 31.15625 39.703125 32.90625 
Q 39.75 34.71875 39.75 35.203125 
Q 39.75 40.578125 37.25 42.78125 
Q 33.890625 45.75 27.25 45.75 
Q 21.046875 45.75 18.09375 43.578125 
Q 15.140625 41.40625 13.71875 35.890625 
L 5.125 37.0625 
Q 6.296875 42.578125 8.984375 45.96875 
Q 11.671875 49.359375 16.75 51.1875 
Q 21.828125 53.03125 28.515625 53.03125 
Q 35.15625 53.03125 39.296875 51.46875 
Q 43.453125 49.90625 45.40625 47.53125 
Q 47.359375 45.171875 48.140625 41.546875 
Q 48.578125 39.3125 48.578125 33.453125 
L 48.578125 21.734375 
Q 48.578125 9.46875 49.140625 6.21875 
Q 49.703125 2.984375 51.375 0 
L 42.1875 0 
Q 40.828125 2.734375 40.4375 6.390625 
z
M 39.703125 26.03125 
Q 34.90625 24.078125 25.34375 22.703125 
Q 19.921875 21.921875 17.671875 20.9375 
Q 15.4375 19.96875 14.203125 18.09375 
Q 12.984375 16.21875 12.984375 13.921875 
Q 12.984375 10.40625 15.640625 8.0625 
Q 18.3125 5.71875 23.4375 5.71875 
Q 28.515625 5.71875 32.46875 7.9375 
Q 36.421875 10.15625 38.28125 14.015625 
Q 39.703125 17 39.703125 22.796875 
z
" id="ArialMT-97"/>
       <path d="M 6.390625 0 
L 6.390625 71.578125 
L 15.1875 71.578125 
L 15.1875 0 
z
" id="ArialMT-108"/>
       <path d="M 40.578125 0 
L 40.578125 7.625 
Q 34.515625 -1.171875 24.125 -1.171875 
Q 19.53125 -1.171875 15.546875 0.578125 
Q 11.578125 2.34375 9.640625 5 
Q 7.71875 7.671875 6.9375 11.53125 
Q 6.390625 14.109375 6.390625 19.734375 
L 6.390625 51.859375 
L 15.1875 51.859375 
L 15.1875 23.09375 
Q 15.1875 16.21875 15.71875 13.8125 
Q 16.546875 10.359375 19.234375 8.375 
Q 21.921875 6.390625 25.875 6.390625 
Q 29.828125 6.390625 33.296875 8.421875 
Q 36.765625 10.453125 38.203125 13.9375 
Q 39.65625 17.4375 39.65625 24.078125 
L 39.65625 51.859375 
L 48.4375 51.859375 
L 48.4375 0 
z
" id="ArialMT-117"/>
       <path d="M 42.09375 16.703125 
L 51.171875 15.578125 
Q 49.03125 7.625 43.21875 3.21875 
Q 37.40625 -1.171875 28.375 -1.171875 
Q 17 -1.171875 10.328125 5.828125 
Q 3.65625 12.84375 3.65625 25.484375 
Q 3.65625 38.578125 10.390625 45.796875 
Q 17.140625 53.03125 27.875 53.03125 
Q 38.28125 53.03125 44.875 45.953125 
Q 51.46875 38.875 51.46875 26.03125 
Q 51.46875 25.25 51.421875 23.6875 
L 12.75 23.6875 
Q 13.234375 15.140625 17.578125 10.59375 
Q 21.921875 6.0625 28.421875 6.0625 
Q 33.25 6.0625 36.671875 8.59375 
Q 40.09375 11.140625 42.09375 16.703125 
z
M 13.234375 30.90625 
L 42.1875 30.90625 
Q 41.609375 37.453125 38.875 40.71875 
Q 34.671875 45.796875 27.984375 45.796875 
Q 21.921875 45.796875 17.796875 41.75 
Q 13.671875 37.703125 13.234375 30.90625 
z
" id="ArialMT-101"/>
       <path d="M 23.390625 -21.046875 
Q 16.109375 -11.859375 11.078125 0.4375 
Q 6.0625 12.75 6.0625 25.921875 
Q 6.0625 37.546875 9.8125 48.1875 
Q 14.203125 60.546875 23.390625 72.796875 
L 29.6875 72.796875 
Q 23.78125 62.640625 21.875 58.296875 
Q 18.890625 51.5625 17.1875 44.234375 
Q 15.09375 35.109375 15.09375 25.875 
Q 15.09375 2.390625 29.6875 -21.046875 
z
" id="ArialMT-40"/>
       <path d="M 8.015625 0 
L 8.015625 71.578125 
L 17.484375 71.578125 
L 17.484375 42.1875 
L 54.6875 42.1875 
L 54.6875 71.578125 
L 64.15625 71.578125 
L 64.15625 0 
L 54.6875 0 
L 54.6875 33.734375 
L 17.484375 33.734375 
L 17.484375 0 
z
" id="ArialMT-72"/>
       <path d="M 6.640625 61.46875 
L 6.640625 71.578125 
L 15.4375 71.578125 
L 15.4375 61.46875 
z
M 6.640625 0 
L 6.640625 51.859375 
L 15.4375 51.859375 
L 15.4375 0 
z
" id="ArialMT-105"/>
       <path d="M 4.984375 -4.296875 
L 13.53125 -5.5625 
Q 14.0625 -9.515625 16.5 -11.328125 
Q 19.78125 -13.765625 25.4375 -13.765625 
Q 31.546875 -13.765625 34.859375 -11.328125 
Q 38.1875 -8.890625 39.359375 -4.5 
Q 40.046875 -1.8125 39.984375 6.78125 
Q 34.234375 0 25.640625 0 
Q 14.9375 0 9.078125 7.71875 
Q 3.21875 15.4375 3.21875 26.21875 
Q 3.21875 33.640625 5.90625 39.90625 
Q 8.59375 46.1875 13.6875 49.609375 
Q 18.796875 53.03125 25.6875 53.03125 
Q 34.859375 53.03125 40.828125 45.609375 
L 40.828125 51.859375 
L 48.921875 51.859375 
L 48.921875 7.03125 
Q 48.921875 -5.078125 46.453125 -10.125 
Q 44 -15.1875 38.640625 -18.109375 
Q 33.296875 -21.046875 25.484375 -21.046875 
Q 16.21875 -21.046875 10.5 -16.875 
Q 4.78125 -12.703125 4.984375 -4.296875 
z
M 12.25 26.859375 
Q 12.25 16.65625 16.296875 11.96875 
Q 20.359375 7.28125 26.46875 7.28125 
Q 32.515625 7.28125 36.609375 11.9375 
Q 40.71875 16.609375 40.71875 26.5625 
Q 40.71875 36.078125 36.5 40.90625 
Q 32.28125 45.75 26.3125 45.75 
Q 20.453125 45.75 16.34375 40.984375 
Q 12.25 36.234375 12.25 26.859375 
z
" id="ArialMT-103"/>
       <path d="M 6.59375 0 
L 6.59375 71.578125 
L 15.375 71.578125 
L 15.375 45.90625 
Q 21.53125 53.03125 30.90625 53.03125 
Q 36.671875 53.03125 40.921875 50.75 
Q 45.171875 48.484375 47 44.484375 
Q 48.828125 40.484375 48.828125 32.859375 
L 48.828125 0 
L 40.046875 0 
L 40.046875 32.859375 
Q 40.046875 39.453125 37.1875 42.453125 
Q 34.328125 45.453125 29.109375 45.453125 
Q 25.203125 45.453125 21.75 43.421875 
Q 18.3125 41.40625 16.84375 37.9375 
Q 15.375 34.46875 15.375 28.375 
L 15.375 0 
z
" id="ArialMT-104"/>
       <path d="M 6.5 0 
L 6.5 51.859375 
L 14.40625 51.859375 
L 14.40625 44 
Q 17.4375 49.515625 20 51.265625 
Q 22.5625 53.03125 25.640625 53.03125 
Q 30.078125 53.03125 34.671875 50.203125 
L 31.640625 42.046875 
Q 28.421875 43.953125 25.203125 43.953125 
Q 22.3125 43.953125 20.015625 42.21875 
Q 17.71875 40.484375 16.75 37.40625 
Q 15.28125 32.71875 15.28125 27.15625 
L 15.28125 0 
z
" id="ArialMT-114"/>
       <path d="M 3.078125 15.484375 
L 11.765625 16.84375 
Q 12.5 11.625 15.84375 8.84375 
Q 19.1875 6.0625 25.203125 6.0625 
Q 31.25 6.0625 34.171875 8.515625 
Q 37.109375 10.984375 37.109375 14.3125 
Q 37.109375 17.28125 34.515625 19 
Q 32.71875 20.171875 25.53125 21.96875 
Q 15.875 24.421875 12.140625 26.203125 
Q 8.40625 27.984375 6.46875 31.125 
Q 4.546875 34.28125 4.546875 38.09375 
Q 4.546875 41.546875 6.125 44.5 
Q 7.71875 47.46875 10.453125 49.421875 
Q 12.5 50.921875 16.03125 51.96875 
Q 19.578125 53.03125 23.640625 53.03125 
Q 29.734375 53.03125 34.34375 51.265625 
Q 38.96875 49.515625 41.15625 46.5 
Q 43.359375 43.5 44.1875 38.484375 
L 35.59375 37.3125 
Q 35.015625 41.3125 32.203125 43.546875 
Q 29.390625 45.796875 24.265625 45.796875 
Q 18.21875 45.796875 15.625 43.796875 
Q 13.03125 41.796875 13.03125 39.109375 
Q 13.03125 37.40625 14.109375 36.03125 
Q 15.1875 34.625 17.484375 33.6875 
Q 18.796875 33.203125 25.25 31.453125 
Q 34.578125 28.953125 38.25 27.359375 
Q 41.9375 25.78125 44.03125 22.75 
Q 46.140625 19.734375 46.140625 15.234375 
Q 46.140625 10.84375 43.578125 6.953125 
Q 41.015625 3.078125 36.171875 0.953125 
Q 31.34375 -1.171875 25.25 -1.171875 
Q 15.140625 -1.171875 9.84375 3.03125 
Q 4.546875 7.234375 3.078125 15.484375 
z
" id="ArialMT-115"/>
       <path d="M 25.78125 7.859375 
L 27.046875 0.09375 
Q 23.34375 -0.6875 20.40625 -0.6875 
Q 15.625 -0.6875 12.984375 0.828125 
Q 10.359375 2.34375 9.28125 4.8125 
Q 8.203125 7.28125 8.203125 15.1875 
L 8.203125 45.015625 
L 1.765625 45.015625 
L 1.765625 51.859375 
L 8.203125 51.859375 
L 8.203125 64.703125 
L 16.9375 69.96875 
L 16.9375 51.859375 
L 25.78125 51.859375 
L 25.78125 45.015625 
L 16.9375 45.015625 
L 16.9375 14.703125 
Q 16.9375 10.9375 17.40625 9.859375 
Q 17.875 8.796875 18.921875 8.15625 
Q 19.96875 7.515625 21.921875 7.515625 
Q 23.390625 7.515625 25.78125 7.859375 
z
" id="ArialMT-116"/>
       <path d="M 3.328125 25.921875 
Q 3.328125 40.328125 11.328125 47.265625 
Q 18.015625 53.03125 27.640625 53.03125 
Q 38.328125 53.03125 45.109375 46.015625 
Q 51.90625 39.015625 51.90625 26.65625 
Q 51.90625 16.65625 48.90625 10.90625 
Q 45.90625 5.171875 40.15625 2 
Q 34.421875 -1.171875 27.640625 -1.171875 
Q 16.75 -1.171875 10.03125 5.8125 
Q 3.328125 12.796875 3.328125 25.921875 
z
M 12.359375 25.921875 
Q 12.359375 15.96875 16.703125 11.015625 
Q 21.046875 6.0625 27.640625 6.0625 
Q 34.1875 6.0625 38.53125 11.03125 
Q 42.875 16.015625 42.875 26.21875 
Q 42.875 35.84375 38.5 40.796875 
Q 34.125 45.75 27.640625 45.75 
Q 21.046875 45.75 16.703125 40.8125 
Q 12.359375 35.890625 12.359375 25.921875 
z
" id="ArialMT-111"/>
       <path d="M 6.59375 0 
L 6.59375 51.859375 
L 14.5 51.859375 
L 14.5 44.484375 
Q 20.21875 53.03125 31 53.03125 
Q 35.6875 53.03125 39.625 51.34375 
Q 43.5625 49.65625 45.515625 46.921875 
Q 47.46875 44.1875 48.25 40.4375 
Q 48.734375 37.984375 48.734375 31.890625 
L 48.734375 0 
L 39.9375 0 
L 39.9375 31.546875 
Q 39.9375 36.921875 38.90625 39.578125 
Q 37.890625 42.234375 35.28125 43.8125 
Q 32.671875 45.40625 29.15625 45.40625 
Q 23.53125 45.40625 19.453125 41.84375 
Q 15.375 38.28125 15.375 28.328125 
L 15.375 0 
z
" id="ArialMT-110"/>
       <path d="M 12.359375 -21.046875 
L 6.0625 -21.046875 
Q 20.65625 2.390625 20.65625 25.875 
Q 20.65625 35.0625 18.5625 44.09375 
Q 16.890625 51.421875 13.921875 58.15625 
Q 12.015625 62.546875 6.0625 72.796875 
L 12.359375 72.796875 
Q 21.53125 60.546875 25.921875 48.1875 
Q 29.6875 37.546875 29.6875 25.921875 
Q 29.6875 12.75 24.625 0.4375 
Q 19.578125 -11.859375 12.359375 -21.046875 
z
" id="ArialMT-41"/>
      </defs>
      <use xlink:href="#ArialMT-82"/>
      <use x="72.216797" xlink:href="#ArialMT-83"/>
      <use x="138.916016" xlink:href="#ArialMT-83"/>
      <use x="205.615234" xlink:href="#ArialMT-73"/>
      <use x="233.398438" xlink:href="#ArialMT-32"/>
      <use x="261.181641" xlink:href="#ArialMT-86"/>
      <use x="320.505859" xlink:href="#ArialMT-97"/>
      <use x="376.121094" xlink:href="#ArialMT-108"/>
      <use x="398.337891" xlink:href="#ArialMT-117"/>
      <use x="453.953125" xlink:href="#ArialMT-101"/>
      <use x="509.568359" xlink:href="#ArialMT-32"/>
      <use x="537.351562" xlink:href="#ArialMT-40"/>
      <use x="570.652344" xlink:href="#ArialMT-72"/>
      <use x="642.869141" xlink:href="#ArialMT-105"/>
      <use x="665.085938" xlink:href="#ArialMT-103"/>
      <use x="720.701172" xlink:href="#ArialMT-104"/>
      <use x="776.316406" xlink:href="#ArialMT-101"/>
      <use x="831.931641" xlink:href="#ArialMT-114"/>
      <use x="865.232422" xlink:href="#ArialMT-32"/>
      <use x="893.015625" xlink:href="#ArialMT-86"/>
      <use x="952.339844" xlink:href="#ArialMT-97"/>
      <use x="1007.955078" xlink:href="#ArialMT-108"/>
      <use x="1030.171875" xlink:href="#ArialMT-117"/>
      <use x="1085.787109" xlink:href="#ArialMT-101"/>
      <use x="1141.402344" xlink:href="#ArialMT-115"/>
      <use x="1191.402344" xlink:href="#ArialMT-32"/>
      <use x="1219.185547" xlink:href="#ArialMT-83"/>
      <use x="1285.884766" xlink:href="#ArialMT-116"/>
      <use x="1313.667969" xlink:href="#ArialMT-114"/>
      <use x="1346.96875" xlink:href="#ArialMT-111"/>
      <use x="1402.583984" xlink:href="#ArialMT-110"/>
      <use x="1458.199219" xlink:href="#ArialMT-103"/>
      <use x="1513.814453" xlink:href="#ArialMT-101"/>
      <use x="1569.429688" xlink:href="#ArialMT-114"/>
      <use x="1602.730469" xlink:href="#ArialMT-41"/>
     </g>
    </g>
   </g>
   <g id="matplotlib.axis_2">
    <g id="ytick_1">
     <g id="line2d_6">
      <path clip-path="url(#pbb10f77264)" d="M 59.339063 348.095625 
L 728.939062 348.095625 
" style="fill:none;stroke:#ffffff;stroke-linecap:round;"/>
     </g>
     <g id="text_7">
      <!-- 0.000 -->
      <g style="fill:#262626;" transform="translate(22.315 352.032422)scale(0.11 -0.11)">
       <defs>
        <path d="M 9.078125 0 
L 9.078125 10.015625 
L 19.09375 10.015625 
L 19.09375 0 
z
" id="ArialMT-46"/>
       </defs>
       <use xlink:href="#ArialMT-48"/>
       <use x="55.615234" xlink:href="#ArialMT-46"/>
       <use x="83.398438" xlink:href="#ArialMT-48"/>
       <use x="139.013672" xlink:href="#ArialMT-48"/>
       <use x="194.628906" xlink:href="#ArialMT-48"/>
      </g>
     </g>
    </g>
    <g id="ytick_2">
     <g id="line2d_7">
      <path clip-path="url(#pbb10f77264)" d="M 59.339063 308.366536 
L 728.939062 308.366536 
" style="fill:none;stroke:#ffffff;stroke-linecap:round;"/>
     </g>
     <g id="text_8">
      <!-- 0.025 -->
      <g style="fill:#262626;" transform="translate(22.315 312.303333)scale(0.11 -0.11)">
       <defs>
        <path d="M 50.34375 8.453125 
L 50.34375 0 
L 3.03125 0 
Q 2.9375 3.171875 4.046875 6.109375 
Q 5.859375 10.9375 9.828125 15.625 
Q 13.8125 20.3125 21.34375 26.46875 
Q 33.015625 36.03125 37.109375 41.625 
Q 41.21875 47.21875 41.21875 52.203125 
Q 41.21875 57.421875 37.46875 61 
Q 33.734375 64.59375 27.734375 64.59375 
Q 21.390625 64.59375 17.578125 60.78125 
Q 13.765625 56.984375 13.71875 50.25 
L 4.6875 51.171875 
Q 5.609375 61.28125 11.65625 66.578125 
Q 17.71875 71.875 27.9375 71.875 
Q 38.234375 71.875 44.234375 66.15625 
Q 50.25 60.453125 50.25 52 
Q 50.25 47.703125 48.484375 43.546875 
Q 46.734375 39.40625 42.65625 34.8125 
Q 38.578125 30.21875 29.109375 22.21875 
Q 21.1875 15.578125 18.9375 13.203125 
Q 16.703125 10.84375 15.234375 8.453125 
z
" id="ArialMT-50"/>
       </defs>
       <use xlink:href="#ArialMT-48"/>
       <use x="55.615234" xlink:href="#ArialMT-46"/>
       <use x="83.398438" xlink:href="#ArialMT-48"/>
       <use x="139.013672" xlink:href="#ArialMT-50"/>
       <use x="194.628906" xlink:href="#ArialMT-53"/>
      </g>
     </g>
    </g>
    <g id="ytick_3">
     <g id="line2d_8">
      <path clip-path="url(#pbb10f77264)" d="M 59.339063 268.637448 
L 728.939062 268.637448 
" style="fill:none;stroke:#ffffff;stroke-linecap:round;"/>
     </g>
     <g id="text_9">
      <!-- 0.050 -->
      <g style="fill:#262626;" transform="translate(22.315 272.574245)scale(0.11 -0.11)">
       <use xlink:href="#ArialMT-48"/>
       <use x="55.615234" xlink:href="#ArialMT-46"/>
       <use x="83.398438" xlink:href="#ArialMT-48"/>
       <use x="139.013672" xlink:href="#ArialMT-53"/>
       <use x="194.628906" xlink:href="#ArialMT-48"/>
      </g>
     </g>
    </g>
    <g id="ytick_4">
     <g id="line2d_9">
      <path clip-path="url(#pbb10f77264)" d="M 59.339063 228.908359 
L 728.939062 228.908359 
" style="fill:none;stroke:#ffffff;stroke-linecap:round;"/>
     </g>
     <g id="text_10">
      <!-- 0.075 -->
      <g style="fill:#262626;" transform="translate(22.315 232.845156)scale(0.11 -0.11)">
       <use xlink:href="#ArialMT-48"/>
       <use x="55.615234" xlink:href="#ArialMT-46"/>
       <use x="83.398438" xlink:href="#ArialMT-48"/>
       <use x="139.013672" xlink:href="#ArialMT-55"/>
       <use x="194.628906" xlink:href="#ArialMT-53"/>
      </g>
     </g>
    </g>
    <g id="ytick_5">
     <g id="line2d_10">
      <path clip-path="url(#pbb10f77264)" d="M 59.339063 189.17927 
L 728.939062 189.17927 
" style="fill:none;stroke:#ffffff;stroke-linecap:round;"/>
     </g>
     <g id="text_11">
      <!-- 0.100 -->
      <g style="fill:#262626;" transform="translate(22.315 193.116067)scale(0.11 -0.11)">
       <defs>
        <path d="M 37.25 0 
L 28.46875 0 
L 28.46875 56 
Q 25.296875 52.984375 20.140625 49.953125 
Q 14.984375 46.921875 10.890625 45.40625 
L 10.890625 53.90625 
Q 18.265625 57.375 23.78125 62.296875 
Q 29.296875 67.234375 31.59375 71.875 
L 37.25 71.875 
z
" id="ArialMT-49"/>
       </defs>
       <use xlink:href="#ArialMT-48"/>
       <use x="55.615234" xlink:href="#ArialMT-46"/>
       <use x="83.398438" xlink:href="#ArialMT-49"/>
       <use x="139.013672" xlink:href="#ArialMT-48"/>
       <use x="194.628906" xlink:href="#ArialMT-48"/>
      </g>
     </g>
    </g>
    <g id="ytick_6">
     <g id="line2d_11">
      <path clip-path="url(#pbb10f77264)" d="M 59.339063 149.450182 
L 728.939062 149.450182 
" style="fill:none;stroke:#ffffff;stroke-linecap:round;"/>
     </g>
     <g id="text_12">
      <!-- 0.125 -->
      <g style="fill:#262626;" transform="translate(22.315 153.386978)scale(0.11 -0.11)">
       <use xlink:href="#ArialMT-48"/>
       <use x="55.615234" xlink:href="#ArialMT-46"/>
       <use x="83.398438" xlink:href="#ArialMT-49"/>
       <use x="139.013672" xlink:href="#ArialMT-50"/>
       <use x="194.628906" xlink:href="#ArialMT-53"/>
      </g>
     </g>
    </g>
    <g id="ytick_7">
     <g id="line2d_12">
      <path clip-path="url(#pbb10f77264)" d="M 59.339063 109.721093 
L 728.939062 109.721093 
" style="fill:none;stroke:#ffffff;stroke-linecap:round;"/>
     </g>
     <g id="text_13">
      <!-- 0.150 -->
      <g style="fill:#262626;" transform="translate(22.315 113.65789)scale(0.11 -0.11)">
       <use xlink:href="#ArialMT-48"/>
       <use x="55.615234" xlink:href="#ArialMT-46"/>
       <use x="83.398438" xlink:href="#ArialMT-49"/>
       <use x="139.013672" xlink:href="#ArialMT-53"/>
       <use x="194.628906" xlink:href="#ArialMT-48"/>
      </g>
     </g>
    </g>
    <g id="ytick_8">
     <g id="line2d_13">
      <path clip-path="url(#pbb10f77264)" d="M 59.339063 69.992004 
L 728.939062 69.992004 
" style="fill:none;stroke:#ffffff;stroke-linecap:round;"/>
     </g>
     <g id="text_14">
      <!-- 0.175 -->
      <g style="fill:#262626;" transform="translate(22.315 73.928801)scale(0.11 -0.11)">
       <use xlink:href="#ArialMT-48"/>
       <use x="55.615234" xlink:href="#ArialMT-46"/>
       <use x="83.398438" xlink:href="#ArialMT-49"/>
       <use x="139.013672" xlink:href="#ArialMT-55"/>
       <use x="194.628906" xlink:href="#ArialMT-53"/>
      </g>
     </g>
    </g>
    <g id="ytick_9">
     <g id="line2d_14">
      <path clip-path="url(#pbb10f77264)" d="M 59.339063 30.262916 
L 728.939062 30.262916 
" style="fill:none;stroke:#ffffff;stroke-linecap:round;"/>
     </g>
     <g id="text_15">
      <!-- 0.200 -->
      <g style="fill:#262626;" transform="translate(22.315 34.199712)scale(0.11 -0.11)">
       <use xlink:href="#ArialMT-48"/>
       <use x="55.615234" xlink:href="#ArialMT-46"/>
       <use x="83.398438" xlink:href="#ArialMT-50"/>
       <use x="139.013672" xlink:href="#ArialMT-48"/>
       <use x="194.628906" xlink:href="#ArialMT-48"/>
      </g>
     </g>
    </g>
    <g id="text_16">
     <!-- Density Estimation -->
     <g style="fill:#262626;" transform="translate(15.789375 234.698438)rotate(-90)scale(0.12 -0.12)">
      <defs>
       <path d="M 7.71875 0 
L 7.71875 71.578125 
L 32.375 71.578125 
Q 40.71875 71.578125 45.125 70.5625 
Q 51.265625 69.140625 55.609375 65.4375 
Q 61.28125 60.640625 64.078125 53.1875 
Q 66.890625 45.75 66.890625 36.1875 
Q 66.890625 28.03125 64.984375 21.734375 
Q 63.09375 15.4375 60.109375 11.296875 
Q 57.125 7.171875 53.578125 4.796875 
Q 50.046875 2.4375 45.046875 1.21875 
Q 40.046875 0 33.546875 0 
z
M 17.1875 8.453125 
L 32.46875 8.453125 
Q 39.546875 8.453125 43.578125 9.765625 
Q 47.609375 11.078125 50 13.484375 
Q 53.375 16.84375 55.25 22.53125 
Q 57.125 28.21875 57.125 36.328125 
Q 57.125 47.5625 53.4375 53.59375 
Q 49.75 59.625 44.484375 61.671875 
Q 40.671875 63.140625 32.234375 63.140625 
L 17.1875 63.140625 
z
" id="ArialMT-68"/>
       <path d="M 6.203125 -19.96875 
L 5.21875 -11.71875 
Q 8.109375 -12.5 10.25 -12.5 
Q 13.1875 -12.5 14.9375 -11.515625 
Q 16.703125 -10.546875 17.828125 -8.796875 
Q 18.65625 -7.46875 20.515625 -2.25 
Q 20.75 -1.515625 21.296875 -0.09375 
L 1.609375 51.859375 
L 11.078125 51.859375 
L 21.875 21.828125 
Q 23.96875 16.109375 25.640625 9.8125 
Q 27.15625 15.875 29.25 21.625 
L 40.328125 51.859375 
L 49.125 51.859375 
L 29.390625 -0.875 
Q 26.21875 -9.421875 24.46875 -12.640625 
Q 22.125 -17 19.09375 -19.015625 
Q 16.0625 -21.046875 11.859375 -21.046875 
Q 9.328125 -21.046875 6.203125 -19.96875 
z
" id="ArialMT-121"/>
       <path d="M 7.90625 0 
L 7.90625 71.578125 
L 59.671875 71.578125 
L 59.671875 63.140625 
L 17.390625 63.140625 
L 17.390625 41.21875 
L 56.984375 41.21875 
L 56.984375 32.8125 
L 17.390625 32.8125 
L 17.390625 8.453125 
L 61.328125 8.453125 
L 61.328125 0 
z
" id="ArialMT-69"/>
       <path d="M 6.59375 0 
L 6.59375 51.859375 
L 14.453125 51.859375 
L 14.453125 44.578125 
Q 16.890625 48.390625 20.9375 50.703125 
Q 25 53.03125 30.171875 53.03125 
Q 35.9375 53.03125 39.625 50.640625 
Q 43.3125 48.25 44.828125 43.953125 
Q 50.984375 53.03125 60.84375 53.03125 
Q 68.5625 53.03125 72.703125 48.75 
Q 76.859375 44.484375 76.859375 35.59375 
L 76.859375 0 
L 68.109375 0 
L 68.109375 32.671875 
Q 68.109375 37.9375 67.25 40.25 
Q 66.40625 42.578125 64.15625 43.984375 
Q 61.921875 45.40625 58.890625 45.40625 
Q 53.421875 45.40625 49.796875 41.765625 
Q 46.1875 38.140625 46.1875 30.125 
L 46.1875 0 
L 37.40625 0 
L 37.40625 33.6875 
Q 37.40625 39.546875 35.25 42.46875 
Q 33.109375 45.40625 28.21875 45.40625 
Q 24.515625 45.40625 21.359375 43.453125 
Q 18.21875 41.5 16.796875 37.734375 
Q 15.375 33.984375 15.375 26.90625 
L 15.375 0 
z
" id="ArialMT-109"/>
      </defs>
      <use xlink:href="#ArialMT-68"/>
      <use x="72.216797" xlink:href="#ArialMT-101"/>
      <use x="127.832031" xlink:href="#ArialMT-110"/>
      <use x="183.447266" xlink:href="#ArialMT-115"/>
      <use x="233.447266" xlink:href="#ArialMT-105"/>
      <use x="255.664062" xlink:href="#ArialMT-116"/>
      <use x="283.447266" xlink:href="#ArialMT-121"/>
      <use x="333.447266" xlink:href="#ArialMT-32"/>
      <use x="361.230469" xlink:href="#ArialMT-69"/>
      <use x="427.929688" xlink:href="#ArialMT-115"/>
      <use x="477.929688" xlink:href="#ArialMT-116"/>
      <use x="505.712891" xlink:href="#ArialMT-105"/>
      <use x="527.929688" xlink:href="#ArialMT-109"/>
      <use x="611.230469" xlink:href="#ArialMT-97"/>
      <use x="666.845703" xlink:href="#ArialMT-116"/>
      <use x="694.628906" xlink:href="#ArialMT-105"/>
      <use x="716.845703" xlink:href="#ArialMT-111"/>
      <use x="772.460938" xlink:href="#ArialMT-110"/>
     </g>
    </g>
   </g>
   <g id="PolyCollection_1">
    <defs>
     <path d="M 117.628009 -42.036928 
L 117.628009 -42.021094 
L 118.83229 -42.021094 
L 120.036571 -42.021094 
L 121.240853 -42.021094 
L 122.445134 -42.021094 
L 123.649415 -42.021094 
L 124.853697 -42.021094 
L 126.057978 -42.021094 
L 127.262259 -42.021094 
L 128.466541 -42.021094 
L 129.670822 -42.021094 
L 130.875103 -42.021094 
L 132.079385 -42.021094 
L 133.283666 -42.021094 
L 134.487947 -42.021094 
L 135.692229 -42.021094 
L 136.89651 -42.021094 
L 138.100791 -42.021094 
L 139.305073 -42.021094 
L 140.509354 -42.021094 
L 141.713635 -42.021094 
L 142.917917 -42.021094 
L 144.122198 -42.021094 
L 145.326479 -42.021094 
L 146.530761 -42.021094 
L 147.735042 -42.021094 
L 148.939323 -42.021094 
L 150.143605 -42.021094 
L 151.347886 -42.021094 
L 152.552168 -42.021094 
L 153.756449 -42.021094 
L 154.96073 -42.021094 
L 156.165012 -42.021094 
L 157.369293 -42.021094 
L 158.573574 -42.021094 
L 159.777856 -42.021094 
L 160.982137 -42.021094 
L 162.186418 -42.021094 
L 163.3907 -42.021094 
L 164.594981 -42.021094 
L 165.799262 -42.021094 
L 167.003544 -42.021094 
L 168.207825 -42.021094 
L 169.412106 -42.021094 
L 170.616388 -42.021094 
L 171.820669 -42.021094 
L 173.02495 -42.021094 
L 174.229232 -42.021094 
L 175.433513 -42.021094 
L 176.637794 -42.021094 
L 177.842076 -42.021094 
L 179.046357 -42.021094 
L 180.250638 -42.021094 
L 181.45492 -42.021094 
L 182.659201 -42.021094 
L 183.863482 -42.021094 
L 185.067764 -42.021094 
L 186.272045 -42.021094 
L 187.476326 -42.021094 
L 188.680608 -42.021094 
L 189.884889 -42.021094 
L 191.089171 -42.021094 
L 192.293452 -42.021094 
L 193.497733 -42.021094 
L 194.702015 -42.021094 
L 195.906296 -42.021094 
L 197.110577 -42.021094 
L 198.314859 -42.021094 
L 199.51914 -42.021094 
L 200.723421 -42.021094 
L 201.927703 -42.021094 
L 203.131984 -42.021094 
L 204.336265 -42.021094 
L 205.540547 -42.021094 
L 206.744828 -42.021094 
L 207.949109 -42.021094 
L 209.153391 -42.021094 
L 210.357672 -42.021094 
L 211.561953 -42.021094 
L 212.766235 -42.021094 
L 213.970516 -42.021094 
L 215.174797 -42.021094 
L 216.379079 -42.021094 
L 217.58336 -42.021094 
L 218.787641 -42.021094 
L 219.991923 -42.021094 
L 221.196204 -42.021094 
L 222.400485 -42.021094 
L 223.604767 -42.021094 
L 224.809048 -42.021094 
L 226.013329 -42.021094 
L 227.217611 -42.021094 
L 228.421892 -42.021094 
L 229.626174 -42.021094 
L 230.830455 -42.021094 
L 232.034736 -42.021094 
L 233.239018 -42.021094 
L 234.443299 -42.021094 
L 235.64758 -42.021094 
L 236.851862 -42.021094 
L 238.056143 -42.021094 
L 239.260424 -42.021094 
L 240.464706 -42.021094 
L 241.668987 -42.021094 
L 242.873268 -42.021094 
L 244.07755 -42.021094 
L 245.281831 -42.021094 
L 246.486112 -42.021094 
L 247.690394 -42.021094 
L 248.894675 -42.021094 
L 250.098956 -42.021094 
L 251.303238 -42.021094 
L 252.507519 -42.021094 
L 253.7118 -42.021094 
L 254.916082 -42.021094 
L 256.120363 -42.021094 
L 257.324644 -42.021094 
L 258.528926 -42.021094 
L 259.733207 -42.021094 
L 260.937488 -42.021094 
L 262.14177 -42.021094 
L 263.346051 -42.021094 
L 264.550332 -42.021094 
L 265.754614 -42.021094 
L 266.958895 -42.021094 
L 268.163177 -42.021094 
L 269.367458 -42.021094 
L 270.571739 -42.021094 
L 271.776021 -42.021094 
L 272.980302 -42.021094 
L 274.184583 -42.021094 
L 275.388865 -42.021094 
L 276.593146 -42.021094 
L 277.797427 -42.021094 
L 279.001709 -42.021094 
L 280.20599 -42.021094 
L 281.410271 -42.021094 
L 282.614553 -42.021094 
L 283.818834 -42.021094 
L 285.023115 -42.021094 
L 286.227397 -42.021094 
L 287.431678 -42.021094 
L 288.635959 -42.021094 
L 289.840241 -42.021094 
L 291.044522 -42.021094 
L 292.248803 -42.021094 
L 293.453085 -42.021094 
L 294.657366 -42.021094 
L 295.861647 -42.021094 
L 297.065929 -42.021094 
L 298.27021 -42.021094 
L 299.474491 -42.021094 
L 300.678773 -42.021094 
L 301.883054 -42.021094 
L 303.087335 -42.021094 
L 304.291617 -42.021094 
L 305.495898 -42.021094 
L 306.70018 -42.021094 
L 307.904461 -42.021094 
L 309.108742 -42.021094 
L 310.313024 -42.021094 
L 311.517305 -42.021094 
L 312.721586 -42.021094 
L 313.925868 -42.021094 
L 315.130149 -42.021094 
L 316.33443 -42.021094 
L 317.538712 -42.021094 
L 318.742993 -42.021094 
L 319.947274 -42.021094 
L 321.151556 -42.021094 
L 322.355837 -42.021094 
L 323.560118 -42.021094 
L 324.7644 -42.021094 
L 325.968681 -42.021094 
L 327.172962 -42.021094 
L 328.377244 -42.021094 
L 329.581525 -42.021094 
L 330.785806 -42.021094 
L 331.990088 -42.021094 
L 333.194369 -42.021094 
L 334.39865 -42.021094 
L 335.602932 -42.021094 
L 336.807213 -42.021094 
L 338.011494 -42.021094 
L 339.215776 -42.021094 
L 340.420057 -42.021094 
L 341.624338 -42.021094 
L 342.82862 -42.021094 
L 344.032901 -42.021094 
L 345.237182 -42.021094 
L 346.441464 -42.021094 
L 347.645745 -42.021094 
L 348.850027 -42.021094 
L 350.054308 -42.021094 
L 351.258589 -42.021094 
L 352.462871 -42.021094 
L 353.667152 -42.021094 
L 354.871433 -42.021094 
L 356.075715 -42.021094 
L 357.279996 -42.021094 
L 357.279996 -42.258605 
L 357.279996 -42.258605 
L 356.075715 -42.3529 
L 354.871433 -42.478689 
L 353.667152 -42.644078 
L 352.462871 -42.858374 
L 351.258589 -43.131967 
L 350.054308 -43.47608 
L 348.850027 -43.902384 
L 347.645745 -44.422455 
L 346.441464 -45.047082 
L 345.237182 -45.785439 
L 344.032901 -46.644159 
L 342.82862 -47.626374 
L 341.624338 -48.730786 
L 340.420057 -49.950874 
L 339.215776 -51.27434 
L 338.011494 -52.682886 
L 336.807213 -54.152431 
L 335.602932 -55.653831 
L 334.39865 -57.154135 
L 333.194369 -58.618376 
L 331.990088 -60.011845 
L 330.785806 -61.302724 
L 329.581525 -62.464928 
L 328.377244 -63.480965 
L 327.172962 -64.344571 
L 325.968681 -65.062906 
L 324.7644 -65.658054 
L 323.560118 -66.167657 
L 322.355837 -66.644498 
L 321.151556 -67.154952 
L 319.947274 -67.776266 
L 318.742993 -68.592739 
L 317.538712 -69.69091 
L 316.33443 -71.153999 
L 315.130149 -73.055883 
L 313.925868 -75.454973 
L 312.721586 -78.388408 
L 311.517305 -81.867017 
L 310.313024 -85.871484 
L 309.108742 -90.350153 
L 307.904461 -95.218797 
L 306.70018 -100.362619 
L 305.495898 -105.640557 
L 304.291617 -110.891837 
L 303.087335 -115.944501 
L 301.883054 -120.625464 
L 300.678773 -124.771486 
L 299.474491 -128.240303 
L 298.27021 -130.921101 
L 297.065929 -132.743508 
L 295.861647 -133.68434 
L 294.657366 -133.771476 
L 293.453085 -133.084438 
L 292.248803 -131.751481 
L 291.044522 -129.943267 
L 289.840241 -127.863433 
L 288.635959 -125.736629 
L 287.431678 -123.794741 
L 286.227397 -122.262206 
L 285.023115 -121.341346 
L 283.818834 -121.198706 
L 282.614553 -121.953287 
L 281.410271 -123.667502 
L 280.20599 -126.341498 
L 279.001709 -129.91131 
L 277.797427 -134.25108 
L 276.593146 -139.179327 
L 275.388865 -144.46898 
L 274.184583 -149.860643 
L 272.980302 -155.078299 
L 271.776021 -159.84647 
L 270.571739 -163.907708 
L 269.367458 -167.039203 
L 268.163177 -169.067362 
L 266.958895 -169.879274 
L 265.754614 -169.430232 
L 264.550332 -167.746741 
L 263.346051 -164.924792 
L 262.14177 -161.123511 
L 260.937488 -156.554681 
L 259.733207 -151.468893 
L 258.528926 -146.13934 
L 257.324644 -140.844401 
L 256.120363 -135.850223 
L 254.916082 -131.39445 
L 253.7118 -127.672155 
L 252.507519 -124.824797 
L 251.303238 -122.932851 
L 250.098956 -122.012444 
L 248.894675 -122.016111 
L 247.690394 -122.83749 
L 246.486112 -124.319581 
L 245.281831 -126.26593 
L 244.07755 -128.453998 
L 242.873268 -130.649784 
L 241.668987 -132.622774 
L 240.464706 -134.160211 
L 239.260424 -135.079786 
L 238.056143 -135.239953 
L 236.851862 -134.547235 
L 235.64758 -132.96013 
L 234.443299 -130.489476 
L 233.239018 -127.19538 
L 232.034736 -123.1811 
L 230.830455 -118.58445 
L 229.626174 -113.56746 
L 228.421892 -108.305142 
L 227.217611 -102.974187 
L 226.013329 -97.742382 
L 224.809048 -92.759428 
L 223.604767 -88.14967 
L 222.400485 -84.007043 
L 221.196204 -80.3924 
L 219.991923 -77.33314 
L 218.787641 -74.824956 
L 217.58336 -72.83537 
L 216.379079 -71.308637 
L 215.174797 -70.171586 
L 213.970516 -69.339922 
L 212.766235 -68.724551 
L 211.561953 -68.23754 
L 210.357672 -67.797375 
L 209.153391 -67.333256 
L 207.949109 -66.788271 
L 206.744828 -66.121348 
L 205.540547 -65.307985 
L 204.336265 -64.339844 
L 203.131984 -63.223329 
L 201.927703 -61.977367 
L 200.723421 -60.630611 
L 199.51914 -59.218311 
L 198.314859 -57.779114 
L 197.110577 -56.352006 
L 195.906296 -54.973593 
L 194.702015 -53.675873 
L 193.497733 -52.484582 
L 192.293452 -51.418165 
L 191.089171 -50.487362 
L 189.884889 -49.69535 
L 188.680608 -49.038377 
L 187.476326 -48.506764 
L 186.272045 -48.08617 
L 185.067764 -47.75901 
L 183.863482 -47.505895 
L 182.659201 -47.307018 
L 181.45492 -47.143403 
L 180.250638 -46.997934 
L 179.046357 -46.856155 
L 177.842076 -46.706801 
L 176.637794 -46.542053 
L 175.433513 -46.357552 
L 174.229232 -46.15218 
L 173.02495 -45.927659 
L 171.820669 -45.688009 
L 170.616388 -45.438925 
L 169.412106 -45.18711 
L 168.207825 -44.939622 
L 167.003544 -44.703279 
L 165.799262 -44.484144 
L 164.594981 -44.287126 
L 163.3907 -44.115703 
L 162.186418 -43.971773 
L 160.982137 -43.855635 
L 159.777856 -43.766076 
L 158.573574 -43.700553 
L 157.369293 -43.655449 
L 156.165012 -43.626379 
L 154.96073 -43.608513 
L 153.756449 -43.596911 
L 152.552168 -43.586825 
L 151.347886 -43.573974 
L 150.143605 -43.554756 
L 148.939323 -43.526409 
L 147.735042 -43.487092 
L 146.530761 -43.435911 
L 145.326479 -43.372874 
L 144.122198 -43.2988 
L 142.917917 -43.215175 
L 141.713635 -43.123991 
L 140.509354 -43.027567 
L 139.305073 -42.928363 
L 138.100791 -42.828821 
L 136.89651 -42.731219 
L 135.692229 -42.637557 
L 134.487947 -42.549483 
L 133.283666 -42.468244 
L 132.079385 -42.39468 
L 130.875103 -42.329238 
L 129.670822 -42.272015 
L 128.466541 -42.222805 
L 127.262259 -42.181172 
L 126.057978 -42.146506 
L 124.853697 -42.118089 
L 123.649415 -42.09515 
L 122.445134 -42.076911 
L 121.240853 -42.062625 
L 120.036571 -42.0516 
L 118.83229 -42.043214 
L 117.628009 -42.036928 
z
" id="m2438c4a915" style="stroke:#8172b3;"/>
    </defs>
    <g clip-path="url(#pbb10f77264)">
     <use style="fill:#8172b3;fill-opacity:0.25;stroke:#8172b3;" x="0" xlink:href="#m2438c4a915" y="390.116719"/>
    </g>
   </g>
   <g id="PolyCollection_2">
    <defs>
     <path d="M 127.154377 -42.043698 
L 127.154377 -42.021094 
L 127.968039 -42.021094 
L 128.781701 -42.021094 
L 129.595363 -42.021094 
L 130.409024 -42.021094 
L 131.222686 -42.021094 
L 132.036348 -42.021094 
L 132.85001 -42.021094 
L 133.663672 -42.021094 
L 134.477334 -42.021094 
L 135.290995 -42.021094 
L 136.104657 -42.021094 
L 136.918319 -42.021094 
L 137.731981 -42.021094 
L 138.545643 -42.021094 
L 139.359304 -42.021094 
L 140.172966 -42.021094 
L 140.986628 -42.021094 
L 141.80029 -42.021094 
L 142.613952 -42.021094 
L 143.427614 -42.021094 
L 144.241275 -42.021094 
L 145.054937 -42.021094 
L 145.868599 -42.021094 
L 146.682261 -42.021094 
L 147.495923 -42.021094 
L 148.309585 -42.021094 
L 149.123246 -42.021094 
L 149.936908 -42.021094 
L 150.75057 -42.021094 
L 151.564232 -42.021094 
L 152.377894 -42.021094 
L 153.191556 -42.021094 
L 154.005217 -42.021094 
L 154.818879 -42.021094 
L 155.632541 -42.021094 
L 156.446203 -42.021094 
L 157.259865 -42.021094 
L 158.073527 -42.021094 
L 158.887188 -42.021094 
L 159.70085 -42.021094 
L 160.514512 -42.021094 
L 161.328174 -42.021094 
L 162.141836 -42.021094 
L 162.955497 -42.021094 
L 163.769159 -42.021094 
L 164.582821 -42.021094 
L 165.396483 -42.021094 
L 166.210145 -42.021094 
L 167.023807 -42.021094 
L 167.837468 -42.021094 
L 168.65113 -42.021094 
L 169.464792 -42.021094 
L 170.278454 -42.021094 
L 171.092116 -42.021094 
L 171.905778 -42.021094 
L 172.719439 -42.021094 
L 173.533101 -42.021094 
L 174.346763 -42.021094 
L 175.160425 -42.021094 
L 175.974087 -42.021094 
L 176.787749 -42.021094 
L 177.60141 -42.021094 
L 178.415072 -42.021094 
L 179.228734 -42.021094 
L 180.042396 -42.021094 
L 180.856058 -42.021094 
L 181.669719 -42.021094 
L 182.483381 -42.021094 
L 183.297043 -42.021094 
L 184.110705 -42.021094 
L 184.924367 -42.021094 
L 185.738029 -42.021094 
L 186.55169 -42.021094 
L 187.365352 -42.021094 
L 188.179014 -42.021094 
L 188.992676 -42.021094 
L 189.806338 -42.021094 
L 190.62 -42.021094 
L 191.433661 -42.021094 
L 192.247323 -42.021094 
L 193.060985 -42.021094 
L 193.874647 -42.021094 
L 194.688309 -42.021094 
L 195.501971 -42.021094 
L 196.315632 -42.021094 
L 197.129294 -42.021094 
L 197.942956 -42.021094 
L 198.756618 -42.021094 
L 199.57028 -42.021094 
L 200.383942 -42.021094 
L 201.197603 -42.021094 
L 202.011265 -42.021094 
L 202.824927 -42.021094 
L 203.638589 -42.021094 
L 204.452251 -42.021094 
L 205.265912 -42.021094 
L 206.079574 -42.021094 
L 206.893236 -42.021094 
L 207.706898 -42.021094 
L 208.52056 -42.021094 
L 209.334222 -42.021094 
L 210.147883 -42.021094 
L 210.961545 -42.021094 
L 211.775207 -42.021094 
L 212.588869 -42.021094 
L 213.402531 -42.021094 
L 214.216193 -42.021094 
L 215.029854 -42.021094 
L 215.843516 -42.021094 
L 216.657178 -42.021094 
L 217.47084 -42.021094 
L 218.284502 -42.021094 
L 219.098164 -42.021094 
L 219.911825 -42.021094 
L 220.725487 -42.021094 
L 221.539149 -42.021094 
L 222.352811 -42.021094 
L 223.166473 -42.021094 
L 223.980134 -42.021094 
L 224.793796 -42.021094 
L 225.607458 -42.021094 
L 226.42112 -42.021094 
L 227.234782 -42.021094 
L 228.048444 -42.021094 
L 228.862105 -42.021094 
L 229.675767 -42.021094 
L 230.489429 -42.021094 
L 231.303091 -42.021094 
L 232.116753 -42.021094 
L 232.930415 -42.021094 
L 233.744076 -42.021094 
L 234.557738 -42.021094 
L 235.3714 -42.021094 
L 236.185062 -42.021094 
L 236.998724 -42.021094 
L 237.812386 -42.021094 
L 238.626047 -42.021094 
L 239.439709 -42.021094 
L 240.253371 -42.021094 
L 241.067033 -42.021094 
L 241.880695 -42.021094 
L 242.694357 -42.021094 
L 243.508018 -42.021094 
L 244.32168 -42.021094 
L 245.135342 -42.021094 
L 245.949004 -42.021094 
L 246.762666 -42.021094 
L 247.576327 -42.021094 
L 248.389989 -42.021094 
L 249.203651 -42.021094 
L 250.017313 -42.021094 
L 250.830975 -42.021094 
L 251.644637 -42.021094 
L 252.458298 -42.021094 
L 253.27196 -42.021094 
L 254.085622 -42.021094 
L 254.899284 -42.021094 
L 255.712946 -42.021094 
L 256.526608 -42.021094 
L 257.340269 -42.021094 
L 258.153931 -42.021094 
L 258.967593 -42.021094 
L 259.781255 -42.021094 
L 260.594917 -42.021094 
L 261.408579 -42.021094 
L 262.22224 -42.021094 
L 263.035902 -42.021094 
L 263.849564 -42.021094 
L 264.663226 -42.021094 
L 265.476888 -42.021094 
L 266.290549 -42.021094 
L 267.104211 -42.021094 
L 267.917873 -42.021094 
L 268.731535 -42.021094 
L 269.545197 -42.021094 
L 270.358859 -42.021094 
L 271.17252 -42.021094 
L 271.986182 -42.021094 
L 272.799844 -42.021094 
L 273.613506 -42.021094 
L 274.427168 -42.021094 
L 275.24083 -42.021094 
L 276.054491 -42.021094 
L 276.868153 -42.021094 
L 277.681815 -42.021094 
L 278.495477 -42.021094 
L 279.309139 -42.021094 
L 280.122801 -42.021094 
L 280.936462 -42.021094 
L 281.750124 -42.021094 
L 282.563786 -42.021094 
L 283.377448 -42.021094 
L 284.19111 -42.021094 
L 285.004771 -42.021094 
L 285.818433 -42.021094 
L 286.632095 -42.021094 
L 287.445757 -42.021094 
L 288.259419 -42.021094 
L 289.073081 -42.021094 
L 289.073081 -42.54099 
L 289.073081 -42.54099 
L 288.259419 -42.738989 
L 287.445757 -43.000565 
L 286.632095 -43.341503 
L 285.818433 -43.779877 
L 285.004771 -44.335835 
L 284.19111 -45.03118 
L 283.377448 -45.888698 
L 282.563786 -46.931209 
L 281.750124 -48.180343 
L 280.936462 -49.655064 
L 280.122801 -51.369976 
L 279.309139 -53.333515 
L 278.495477 -55.546121 
L 277.681815 -57.998548 
L 276.868153 -60.670459 
L 276.054491 -63.529483 
L 275.24083 -66.530879 
L 274.427168 -69.617954 
L 273.613506 -72.723292 
L 272.799844 -75.770848 
L 271.986182 -78.678839 
L 271.17252 -81.36332 
L 270.358859 -83.742258 
L 269.545197 -85.739858 
L 268.731535 -87.290851 
L 267.917873 -88.344467 
L 267.104211 -88.867814 
L 266.290549 -88.848427 
L 265.476888 -88.295857 
L 264.663226 -87.242209 
L 263.849564 -85.741677 
L 263.035902 -83.869173 
L 262.22224 -81.718251 
L 261.408579 -79.39855 
L 260.594917 -77.03301 
L 259.781255 -74.755079 
L 258.967593 -72.706076 
L 258.153931 -71.032816 
L 257.340269 -69.885464 
L 256.526608 -69.415512 
L 255.712946 -69.77369 
L 254.899284 -71.107522 
L 254.085622 -73.558252 
L 253.27196 -77.256867 
L 252.458298 -82.319022 
L 251.644637 -88.838813 
L 250.830975 -96.881487 
L 250.017313 -106.475405 
L 249.203651 -117.603753 
L 248.389989 -130.196691 
L 247.576327 -144.124752 
L 246.762666 -159.194394 
L 245.949004 -175.146554 
L 245.135342 -191.658939 
L 244.32168 -208.352556 
L 243.508018 -224.80267 
L 242.694357 -240.553968 
L 241.880695 -255.139332 
L 241.067033 -268.101207 
L 240.253371 -279.014215 
L 239.439709 -287.507474 
L 238.626047 -293.284957 
L 237.812386 -296.142337 
L 236.998724 -295.978985 
L 236.185062 -292.804145 
L 235.3714 -286.736811 
L 234.557738 -277.999339 
L 233.744076 -266.905358 
L 232.930415 -253.842984 
L 232.116753 -239.254725 
L 231.303091 -223.615633 
L 230.489429 -207.411336 
L 229.675767 -191.117437 
L 228.862105 -175.181535 
L 228.048444 -160.008763 
L 227.234782 -145.951331 
L 226.42112 -133.302129 
L 225.607458 -122.292091 
L 224.793796 -113.090701 
L 223.980134 -105.808849 
L 223.166473 -100.503135 
L 222.352811 -97.180782 
L 221.539149 -95.804453 
L 220.725487 -96.296457 
L 219.911825 -98.542097 
L 219.098164 -102.392183 
L 218.284502 -107.664945 
L 217.47084 -114.147777 
L 216.657178 -121.599347 
L 215.843516 -129.752625 
L 215.029854 -138.319292 
L 214.216193 -146.995862 
L 213.402531 -155.471625 
L 212.588869 -163.438261 
L 211.775207 -170.600736 
L 210.961545 -176.688868 
L 210.147883 -181.468766 
L 209.334222 -184.753292 
L 208.52056 -186.41068 
L 207.706898 -186.370557 
L 206.893236 -184.626814 
L 206.079574 -181.237013 
L 205.265912 -176.318319 
L 204.452251 -170.040237 
L 203.638589 -162.614706 
L 202.824927 -154.284291 
L 202.011265 -145.309376 
L 201.197603 -135.955263 
L 200.383942 -126.480059 
L 199.57028 -117.124092 
L 198.756618 -108.101409 
L 197.942956 -99.593685 
L 197.129294 -91.746642 
L 196.315632 -84.668864 
L 195.501971 -78.432696 
L 194.688309 -73.076828 
L 193.874647 -68.610041 
L 193.060985 -65.01564 
L 192.247323 -62.256096 
L 191.433661 -60.277515 
L 190.62 -59.013674 
L 189.806338 -58.389451 
L 188.992676 -58.323604 
L 188.179014 -58.730958 
L 187.365352 -59.524105 
L 186.55169 -60.614783 
L 185.738029 -61.915106 
L 184.924367 -63.338788 
L 184.110705 -64.80248 
L 183.297043 -66.22727 
L 182.483381 -67.540346 
L 181.669719 -68.676756 
L 180.856058 -69.581156 
L 180.042396 -70.209412 
L 179.228734 -70.529883 
L 178.415072 -70.524277 
L 177.60141 -70.187934 
L 176.787749 -69.529491 
L 175.974087 -68.569912 
L 175.160425 -67.340924 
L 174.346763 -65.882954 
L 173.533101 -64.242721 
L 172.719439 -62.470632 
L 171.905778 -60.61817 
L 171.092116 -58.735445 
L 170.278454 -56.869046 
L 169.464792 -55.060316 
L 168.65113 -53.344115 
L 167.837468 -51.748085 
L 167.023807 -50.292421 
L 166.210145 -48.990064 
L 165.396483 -47.847262 
L 164.582821 -46.864384 
L 163.769159 -46.036901 
L 162.955497 -45.35642 
L 162.141836 -44.811713 
L 161.328174 -44.389655 
L 160.514512 -44.076041 
L 159.70085 -43.856259 
L 158.887188 -43.715804 
L 158.073527 -43.640663 
L 157.259865 -43.617568 
L 156.446203 -43.634164 
L 155.632541 -43.679104 
L 154.818879 -43.742112 
L 154.005217 -43.814011 
L 153.191556 -43.886757 
L 152.377894 -43.953462 
L 151.564232 -44.008423 
L 150.75057 -44.047141 
L 149.936908 -44.066335 
L 149.123246 -44.063929 
L 148.309585 -44.039018 
L 147.495923 -43.991795 
L 146.682261 -43.923445 
L 145.868599 -43.836008 
L 145.054937 -43.732207 
L 144.241275 -43.61526 
L 143.427614 -43.488684 
L 142.613952 -43.356096 
L 141.80029 -43.221029 
L 140.986628 -43.086778 
L 140.172966 -42.956265 
L 139.359304 -42.831949 
L 138.545643 -42.715773 
L 137.731981 -42.609142 
L 136.918319 -42.51294 
L 136.104657 -42.427568 
L 135.290995 -42.353006 
L 134.477334 -42.288888 
L 133.663672 -42.234577 
L 132.85001 -42.189251 
L 132.036348 -42.151967 
L 131.222686 -42.121735 
L 130.409024 -42.097563 
L 129.595363 -42.078503 
L 128.781701 -42.063679 
L 127.968039 -42.052307 
L 127.154377 -42.043698 
z
" id="m1f29348325" style="stroke:#c44e52;"/>
    </defs>
    <g clip-path="url(#pbb10f77264)">
     <use style="fill:#c44e52;fill-opacity:0.25;stroke:#c44e52;" x="0" xlink:href="#m1f29348325" y="390.116719"/>
    </g>
   </g>
   <g id="PolyCollection_3">
    <defs>
     <path d="M 89.775426 -42.037704 
L 89.775426 -42.021094 
L 91.112194 -42.021094 
L 92.448963 -42.021094 
L 93.785731 -42.021094 
L 95.122499 -42.021094 
L 96.459267 -42.021094 
L 97.796036 -42.021094 
L 99.132804 -42.021094 
L 100.469572 -42.021094 
L 101.80634 -42.021094 
L 103.143108 -42.021094 
L 104.479877 -42.021094 
L 105.816645 -42.021094 
L 107.153413 -42.021094 
L 108.490181 -42.021094 
L 109.82695 -42.021094 
L 111.163718 -42.021094 
L 112.500486 -42.021094 
L 113.837254 -42.021094 
L 115.174023 -42.021094 
L 116.510791 -42.021094 
L 117.847559 -42.021094 
L 119.184327 -42.021094 
L 120.521096 -42.021094 
L 121.857864 -42.021094 
L 123.194632 -42.021094 
L 124.5314 -42.021094 
L 125.868168 -42.021094 
L 127.204937 -42.021094 
L 128.541705 -42.021094 
L 129.878473 -42.021094 
L 131.215241 -42.021094 
L 132.55201 -42.021094 
L 133.888778 -42.021094 
L 135.225546 -42.021094 
L 136.562314 -42.021094 
L 137.899083 -42.021094 
L 139.235851 -42.021094 
L 140.572619 -42.021094 
L 141.909387 -42.021094 
L 143.246156 -42.021094 
L 144.582924 -42.021094 
L 145.919692 -42.021094 
L 147.25646 -42.021094 
L 148.593228 -42.021094 
L 149.929997 -42.021094 
L 151.266765 -42.021094 
L 152.603533 -42.021094 
L 153.940301 -42.021094 
L 155.27707 -42.021094 
L 156.613838 -42.021094 
L 157.950606 -42.021094 
L 159.287374 -42.021094 
L 160.624143 -42.021094 
L 161.960911 -42.021094 
L 163.297679 -42.021094 
L 164.634447 -42.021094 
L 165.971216 -42.021094 
L 167.307984 -42.021094 
L 168.644752 -42.021094 
L 169.98152 -42.021094 
L 171.318288 -42.021094 
L 172.655057 -42.021094 
L 173.991825 -42.021094 
L 175.328593 -42.021094 
L 176.665361 -42.021094 
L 178.00213 -42.021094 
L 179.338898 -42.021094 
L 180.675666 -42.021094 
L 182.012434 -42.021094 
L 183.349203 -42.021094 
L 184.685971 -42.021094 
L 186.022739 -42.021094 
L 187.359507 -42.021094 
L 188.696276 -42.021094 
L 190.033044 -42.021094 
L 191.369812 -42.021094 
L 192.70658 -42.021094 
L 194.043348 -42.021094 
L 195.380117 -42.021094 
L 196.716885 -42.021094 
L 198.053653 -42.021094 
L 199.390421 -42.021094 
L 200.72719 -42.021094 
L 202.063958 -42.021094 
L 203.400726 -42.021094 
L 204.737494 -42.021094 
L 206.074263 -42.021094 
L 207.411031 -42.021094 
L 208.747799 -42.021094 
L 210.084567 -42.021094 
L 211.421336 -42.021094 
L 212.758104 -42.021094 
L 214.094872 -42.021094 
L 215.43164 -42.021094 
L 216.768408 -42.021094 
L 218.105177 -42.021094 
L 219.441945 -42.021094 
L 220.778713 -42.021094 
L 222.115481 -42.021094 
L 223.45225 -42.021094 
L 224.789018 -42.021094 
L 226.125786 -42.021094 
L 227.462554 -42.021094 
L 228.799323 -42.021094 
L 230.136091 -42.021094 
L 231.472859 -42.021094 
L 232.809627 -42.021094 
L 234.146396 -42.021094 
L 235.483164 -42.021094 
L 236.819932 -42.021094 
L 238.1567 -42.021094 
L 239.493468 -42.021094 
L 240.830237 -42.021094 
L 242.167005 -42.021094 
L 243.503773 -42.021094 
L 244.840541 -42.021094 
L 246.17731 -42.021094 
L 247.514078 -42.021094 
L 248.850846 -42.021094 
L 250.187614 -42.021094 
L 251.524383 -42.021094 
L 252.861151 -42.021094 
L 254.197919 -42.021094 
L 255.534687 -42.021094 
L 256.871456 -42.021094 
L 258.208224 -42.021094 
L 259.544992 -42.021094 
L 260.88176 -42.021094 
L 262.218528 -42.021094 
L 263.555297 -42.021094 
L 264.892065 -42.021094 
L 266.228833 -42.021094 
L 267.565601 -42.021094 
L 268.90237 -42.021094 
L 270.239138 -42.021094 
L 271.575906 -42.021094 
L 272.912674 -42.021094 
L 274.249443 -42.021094 
L 275.586211 -42.021094 
L 276.922979 -42.021094 
L 278.259747 -42.021094 
L 279.596516 -42.021094 
L 280.933284 -42.021094 
L 282.270052 -42.021094 
L 283.60682 -42.021094 
L 284.943588 -42.021094 
L 286.280357 -42.021094 
L 287.617125 -42.021094 
L 288.953893 -42.021094 
L 290.290661 -42.021094 
L 291.62743 -42.021094 
L 292.964198 -42.021094 
L 294.300966 -42.021094 
L 295.637734 -42.021094 
L 296.974503 -42.021094 
L 298.311271 -42.021094 
L 299.648039 -42.021094 
L 300.984807 -42.021094 
L 302.321576 -42.021094 
L 303.658344 -42.021094 
L 304.995112 -42.021094 
L 306.33188 -42.021094 
L 307.668649 -42.021094 
L 309.005417 -42.021094 
L 310.342185 -42.021094 
L 311.678953 -42.021094 
L 313.015721 -42.021094 
L 314.35249 -42.021094 
L 315.689258 -42.021094 
L 317.026026 -42.021094 
L 318.362794 -42.021094 
L 319.699563 -42.021094 
L 321.036331 -42.021094 
L 322.373099 -42.021094 
L 323.709867 -42.021094 
L 325.046636 -42.021094 
L 326.383404 -42.021094 
L 327.720172 -42.021094 
L 329.05694 -42.021094 
L 330.393709 -42.021094 
L 331.730477 -42.021094 
L 333.067245 -42.021094 
L 334.404013 -42.021094 
L 335.740781 -42.021094 
L 337.07755 -42.021094 
L 338.414318 -42.021094 
L 339.751086 -42.021094 
L 341.087854 -42.021094 
L 342.424623 -42.021094 
L 343.761391 -42.021094 
L 345.098159 -42.021094 
L 346.434927 -42.021094 
L 347.771696 -42.021094 
L 349.108464 -42.021094 
L 350.445232 -42.021094 
L 351.782 -42.021094 
L 353.118769 -42.021094 
L 354.455537 -42.021094 
L 355.792305 -42.021094 
L 355.792305 -42.037705 
L 355.792305 -42.037705 
L 354.455537 -42.045581 
L 353.118769 -42.056567 
L 351.782 -42.071589 
L 350.445232 -42.091727 
L 349.108464 -42.118185 
L 347.771696 -42.152242 
L 346.434927 -42.195178 
L 345.098159 -42.248175 
L 343.761391 -42.312192 
L 342.424623 -42.387825 
L 341.087854 -42.475172 
L 339.751086 -42.573709 
L 338.414318 -42.682203 
L 337.07755 -42.798694 
L 335.740781 -42.920546 
L 334.404013 -43.044611 
L 333.067245 -43.167486 
L 331.730477 -43.285881 
L 330.393709 -43.397079 
L 329.05694 -43.49945 
L 327.720172 -43.59299 
L 326.383404 -43.679833 
L 325.046636 -43.76468 
L 323.709867 -43.855071 
L 322.373099 -43.961472 
L 321.036331 -44.097094 
L 319.699563 -44.277422 
L 318.362794 -44.519438 
L 317.026026 -44.840516 
L 315.689258 -45.257051 
L 314.35249 -45.782874 
L 313.015721 -46.427565 
L 311.678953 -47.194819 
L 310.342185 -48.081035 
L 309.005417 -49.074348 
L 307.668649 -50.15428 
L 306.33188 -51.292212 
L 304.995112 -52.452766 
L 303.658344 -53.596168 
L 302.321576 -54.681495 
L 300.984807 -55.67065 
L 299.648039 -56.532769 
L 298.311271 -57.248688 
L 296.974503 -57.815032 
L 295.637734 -58.24749 
L 294.300966 -58.582821 
L 292.964198 -58.879259 
L 291.62743 -59.215043 
L 290.290661 -59.684944 
L 288.953893 -60.394809 
L 287.617125 -61.454302 
L 286.280357 -62.968193 
L 284.943588 -65.026719 
L 283.60682 -67.69569 
L 282.270052 -71.007197 
L 280.933284 -74.95182 
L 279.596516 -79.473328 
L 278.259747 -84.466739 
L 276.922979 -89.780491 
L 275.586211 -95.223097 
L 274.249443 -100.574309 
L 272.912674 -105.600268 
L 271.575906 -110.071641 
L 270.239138 -113.783271 
L 268.90237 -116.573548 
L 267.565601 -118.341562 
L 266.228833 -119.060187 
L 264.892065 -118.783547 
L 263.555297 -117.647823 
L 262.218528 -115.864964 
L 260.88176 -113.709563 
L 259.544992 -111.49977 
L 258.208224 -109.57366 
L 256.871456 -108.262885 
L 255.534687 -107.865621 
L 254.197919 -108.620967 
L 252.861151 -110.686814 
L 251.524383 -114.123071 
L 250.187614 -118.881806 
L 248.850846 -124.805454 
L 247.514078 -131.633733 
L 246.17731 -139.019269 
L 244.840541 -146.5512 
L 243.503773 -153.785304 
L 242.167005 -160.278421 
L 240.830237 -165.624395 
L 239.493468 -169.488352 
L 238.1567 -171.636138 
L 236.819932 -171.955988 
L 235.483164 -170.47022 
L 234.146396 -167.335643 
L 232.809627 -162.832498 
L 231.472859 -157.342865 
L 230.136091 -151.32048 
L 228.799323 -145.254666 
L 227.462554 -139.631516 
L 226.125786 -134.89562 
L 224.789018 -131.415393 
L 223.45225 -129.454666 
L 222.115481 -129.152614 
L 220.778713 -130.513403 
L 219.441945 -133.406214 
L 218.105177 -137.575601 
L 216.768408 -142.661388 
L 215.43164 -148.22664 
L 214.094872 -153.791609 
L 212.758104 -158.870997 
L 211.421336 -163.011519 
L 210.084567 -165.82663 
L 208.747799 -167.025395 
L 207.411031 -166.432986 
L 206.074263 -164.00106 
L 204.737494 -159.807254 
L 203.400726 -154.044144 
L 202.063958 -146.99909 
L 200.72719 -139.027248 
L 199.390421 -130.520634 
L 198.053653 -121.876341 
L 196.716885 -113.466838 
L 195.380117 -105.614832 
L 194.043348 -98.574455 
L 192.70658 -92.519737 
L 191.369812 -87.540531 
L 190.033044 -83.645359 
L 188.696276 -80.770118 
L 187.359507 -78.791251 
L 186.022739 -77.541827 
L 184.685971 -76.828962 
L 183.349203 -76.451136 
L 182.012434 -76.214139 
L 180.675666 -75.944609 
L 179.338898 -75.50044 
L 178.00213 -74.777574 
L 176.665361 -73.713046 
L 175.328593 -72.284436 
L 173.991825 -70.506137 
L 172.655057 -68.423117 
L 171.318288 -66.102993 
L 169.98152 -63.62731 
L 168.644752 -61.082913 
L 167.307984 -58.554174 
L 165.971216 -56.116675 
L 164.634447 -53.832687 
L 163.297679 -51.748597 
L 161.960911 -49.894155 
L 160.624143 -48.283285 
L 159.287374 -46.916076 
L 157.950606 -45.781505 
L 156.613838 -44.86049 
L 155.27707 -44.1289 
L 153.940301 -43.560258 
L 152.603533 -43.127965 
L 151.266765 -42.80696 
L 149.929997 -42.574831 
L 148.593228 -42.412426 
L 147.25646 -42.304053 
L 145.919692 -42.237372 
L 144.582924 -42.203088 
L 143.246156 -42.194508 
L 141.909387 -42.207045 
L 140.572619 -42.237711 
L 139.235851 -42.284621 
L 137.899083 -42.34654 
L 136.562314 -42.422474 
L 135.225546 -42.511328 
L 133.888778 -42.61162 
L 132.55201 -42.721288 
L 131.215241 -42.837571 
L 129.878473 -42.956997 
L 128.541705 -43.075465 
L 127.204937 -43.188419 
L 125.868168 -43.291104 
L 124.5314 -43.37888 
L 123.194632 -43.447554 
L 121.857864 -43.493714 
L 120.521096 -43.515001 
L 119.184327 -43.51031 
L 117.847559 -43.479886 
L 116.510791 -43.425297 
L 115.174023 -43.349307 
L 113.837254 -43.255638 
L 112.500486 -43.148672 
L 111.163718 -43.03311 
L 109.82695 -42.913638 
L 108.490181 -42.794616 
L 107.153413 -42.679838 
L 105.816645 -42.572361 
L 104.479877 -42.474417 
L 103.143108 -42.38741 
L 101.80634 -42.311967 
L 100.469572 -42.248056 
L 99.132804 -42.195116 
L 97.796036 -42.15221 
L 96.459267 -42.118169 
L 95.122499 -42.091719 
L 93.785731 -42.071585 
L 92.448963 -42.056565 
L 91.112194 -42.04558 
L 89.775426 -42.037704 
z
" id="m38d23b2b54" style="stroke:#55a868;"/>
    </defs>
    <g clip-path="url(#pbb10f77264)">
     <use style="fill:#55a868;fill-opacity:0.25;stroke:#55a868;" x="0" xlink:href="#m38d23b2b54" y="390.116719"/>
    </g>
   </g>
   <g id="PolyCollection_4">
    <defs>
     <path d="M 305.788785 -42.046675 
L 305.788785 -42.021094 
L 306.428951 -42.021094 
L 307.069116 -42.021094 
L 307.709281 -42.021094 
L 308.349446 -42.021094 
L 308.989612 -42.021094 
L 309.629777 -42.021094 
L 310.269942 -42.021094 
L 310.910108 -42.021094 
L 311.550273 -42.021094 
L 312.190438 -42.021094 
L 312.830604 -42.021094 
L 313.470769 -42.021094 
L 314.110934 -42.021094 
L 314.751099 -42.021094 
L 315.391265 -42.021094 
L 316.03143 -42.021094 
L 316.671595 -42.021094 
L 317.311761 -42.021094 
L 317.951926 -42.021094 
L 318.592091 -42.021094 
L 319.232256 -42.021094 
L 319.872422 -42.021094 
L 320.512587 -42.021094 
L 321.152752 -42.021094 
L 321.792918 -42.021094 
L 322.433083 -42.021094 
L 323.073248 -42.021094 
L 323.713414 -42.021094 
L 324.353579 -42.021094 
L 324.993744 -42.021094 
L 325.633909 -42.021094 
L 326.274075 -42.021094 
L 326.91424 -42.021094 
L 327.554405 -42.021094 
L 328.194571 -42.021094 
L 328.834736 -42.021094 
L 329.474901 -42.021094 
L 330.115067 -42.021094 
L 330.755232 -42.021094 
L 331.395397 -42.021094 
L 332.035562 -42.021094 
L 332.675728 -42.021094 
L 333.315893 -42.021094 
L 333.956058 -42.021094 
L 334.596224 -42.021094 
L 335.236389 -42.021094 
L 335.876554 -42.021094 
L 336.51672 -42.021094 
L 337.156885 -42.021094 
L 337.79705 -42.021094 
L 338.437215 -42.021094 
L 339.077381 -42.021094 
L 339.717546 -42.021094 
L 340.357711 -42.021094 
L 340.997877 -42.021094 
L 341.638042 -42.021094 
L 342.278207 -42.021094 
L 342.918373 -42.021094 
L 343.558538 -42.021094 
L 344.198703 -42.021094 
L 344.838868 -42.021094 
L 345.479034 -42.021094 
L 346.119199 -42.021094 
L 346.759364 -42.021094 
L 347.39953 -42.021094 
L 348.039695 -42.021094 
L 348.67986 -42.021094 
L 349.320026 -42.021094 
L 349.960191 -42.021094 
L 350.600356 -42.021094 
L 351.240521 -42.021094 
L 351.880687 -42.021094 
L 352.520852 -42.021094 
L 353.161017 -42.021094 
L 353.801183 -42.021094 
L 354.441348 -42.021094 
L 355.081513 -42.021094 
L 355.721679 -42.021094 
L 356.361844 -42.021094 
L 357.002009 -42.021094 
L 357.642174 -42.021094 
L 358.28234 -42.021094 
L 358.922505 -42.021094 
L 359.56267 -42.021094 
L 360.202836 -42.021094 
L 360.843001 -42.021094 
L 361.483166 -42.021094 
L 362.123332 -42.021094 
L 362.763497 -42.021094 
L 363.403662 -42.021094 
L 364.043827 -42.021094 
L 364.683993 -42.021094 
L 365.324158 -42.021094 
L 365.964323 -42.021094 
L 366.604489 -42.021094 
L 367.244654 -42.021094 
L 367.884819 -42.021094 
L 368.524985 -42.021094 
L 369.16515 -42.021094 
L 369.805315 -42.021094 
L 370.44548 -42.021094 
L 371.085646 -42.021094 
L 371.725811 -42.021094 
L 372.365976 -42.021094 
L 373.006142 -42.021094 
L 373.646307 -42.021094 
L 374.286472 -42.021094 
L 374.926638 -42.021094 
L 375.566803 -42.021094 
L 376.206968 -42.021094 
L 376.847133 -42.021094 
L 377.487299 -42.021094 
L 378.127464 -42.021094 
L 378.767629 -42.021094 
L 379.407795 -42.021094 
L 380.04796 -42.021094 
L 380.688125 -42.021094 
L 381.328291 -42.021094 
L 381.968456 -42.021094 
L 382.608621 -42.021094 
L 383.248786 -42.021094 
L 383.888952 -42.021094 
L 384.529117 -42.021094 
L 385.169282 -42.021094 
L 385.809448 -42.021094 
L 386.449613 -42.021094 
L 387.089778 -42.021094 
L 387.729943 -42.021094 
L 388.370109 -42.021094 
L 389.010274 -42.021094 
L 389.650439 -42.021094 
L 390.290605 -42.021094 
L 390.93077 -42.021094 
L 391.570935 -42.021094 
L 392.211101 -42.021094 
L 392.851266 -42.021094 
L 393.491431 -42.021094 
L 394.131596 -42.021094 
L 394.771762 -42.021094 
L 395.411927 -42.021094 
L 396.052092 -42.021094 
L 396.692258 -42.021094 
L 397.332423 -42.021094 
L 397.972588 -42.021094 
L 398.612754 -42.021094 
L 399.252919 -42.021094 
L 399.893084 -42.021094 
L 400.533249 -42.021094 
L 401.173415 -42.021094 
L 401.81358 -42.021094 
L 402.453745 -42.021094 
L 403.093911 -42.021094 
L 403.734076 -42.021094 
L 404.374241 -42.021094 
L 405.014407 -42.021094 
L 405.654572 -42.021094 
L 406.294737 -42.021094 
L 406.934902 -42.021094 
L 407.575068 -42.021094 
L 408.215233 -42.021094 
L 408.855398 -42.021094 
L 409.495564 -42.021094 
L 410.135729 -42.021094 
L 410.775894 -42.021094 
L 411.41606 -42.021094 
L 412.056225 -42.021094 
L 412.69639 -42.021094 
L 413.336555 -42.021094 
L 413.976721 -42.021094 
L 414.616886 -42.021094 
L 415.257051 -42.021094 
L 415.897217 -42.021094 
L 416.537382 -42.021094 
L 417.177547 -42.021094 
L 417.817713 -42.021094 
L 418.457878 -42.021094 
L 419.098043 -42.021094 
L 419.738208 -42.021094 
L 420.378374 -42.021094 
L 421.018539 -42.021094 
L 421.658704 -42.021094 
L 422.29887 -42.021094 
L 422.939035 -42.021094 
L 423.5792 -42.021094 
L 424.219366 -42.021094 
L 424.859531 -42.021094 
L 425.499696 -42.021094 
L 426.139861 -42.021094 
L 426.780027 -42.021094 
L 427.420192 -42.021094 
L 428.060357 -42.021094 
L 428.700523 -42.021094 
L 429.340688 -42.021094 
L 429.980853 -42.021094 
L 430.621019 -42.021094 
L 431.261184 -42.021094 
L 431.901349 -42.021094 
L 432.541514 -42.021094 
L 433.18168 -42.021094 
L 433.18168 -43.069927 
L 433.18168 -43.069927 
L 432.541514 -43.419857 
L 431.901349 -43.868867 
L 431.261184 -44.438891 
L 430.621019 -45.154797 
L 429.980853 -46.04421 
L 429.340688 -47.137134 
L 428.700523 -48.465339 
L 428.060357 -50.06148 
L 427.420192 -51.957938 
L 426.780027 -54.185384 
L 426.139861 -56.771086 
L 425.499696 -59.737006 
L 424.859531 -63.097764 
L 424.219366 -66.858555 
L 423.5792 -71.013157 
L 422.939035 -75.542158 
L 422.29887 -80.411544 
L 421.658704 -85.571817 
L 421.018539 -90.957752 
L 420.378374 -96.48892 
L 419.738208 -102.071039 
L 419.098043 -107.598177 
L 418.457878 -112.955767 
L 417.817713 -118.02435 
L 417.177547 -122.68388 
L 416.537382 -126.818385 
L 415.897217 -130.320758 
L 415.257051 -133.097378 
L 414.616886 -135.072313 
L 413.976721 -136.190846 
L 413.336555 -136.422092 
L 412.69639 -135.760567 
L 412.056225 -134.226601 
L 411.41606 -131.865596 
L 410.775894 -128.746189 
L 410.135729 -124.957463 
L 409.495564 -120.605421 
L 408.855398 -115.808971 
L 408.215233 -110.695694 
L 407.575068 -105.397698 
L 406.934902 -100.047798 
L 406.294737 -94.776267 
L 405.654572 -89.708317 
L 405.014407 -84.962417 
L 404.374241 -80.64947 
L 403.734076 -76.872804 
L 403.093911 -73.728859 
L 402.453745 -71.308374 
L 401.81358 -69.69786 
L 401.173415 -68.981086 
L 400.533249 -69.240298 
L 399.893084 -70.5569 
L 399.252919 -73.011367 
L 398.612754 -76.682176 
L 397.972588 -81.64364 
L 397.332423 -87.962603 
L 396.692258 -95.694028 
L 396.052092 -104.87567 
L 395.411927 -115.522052 
L 394.771762 -127.618137 
L 394.131596 -141.113114 
L 393.491431 -155.91482 
L 392.851266 -171.885305 
L 392.211101 -188.838074 
L 391.570935 -206.537473 
L 390.93077 -224.700568 
L 390.290605 -243.001781 
L 389.650439 -261.080301 
L 389.010274 -278.550174 
L 388.370109 -295.012701 
L 387.729943 -310.070625 
L 387.089778 -323.343397 
L 386.449613 -334.482701 
L 385.809448 -343.187318 
L 385.169282 -349.216451 
L 384.529117 -352.400652 
L 383.888952 -352.649665 
L 383.248786 -349.956667 
L 382.608621 -344.398622 
L 381.968456 -336.132743 
L 381.328291 -325.389291 
L 380.688125 -312.461188 
L 380.04796 -297.691136 
L 379.407795 -281.457044 
L 378.767629 -264.156681 
L 378.127464 -246.192456 
L 377.487299 -227.95716 
L 376.847133 -209.821419 
L 376.206968 -192.123405 
L 375.566803 -175.161177 
L 374.926638 -159.18781 
L 374.286472 -144.409281 
L 373.646307 -130.984873 
L 373.006142 -119.029742 
L 372.365976 -108.619159 
L 371.725811 -99.79389 
L 371.085646 -92.566149 
L 370.44548 -86.925588 
L 369.805315 -82.844846 
L 369.16515 -80.284265 
L 368.524985 -79.195483 
L 367.884819 -79.523743 
L 367.244654 -81.208867 
L 366.604489 -84.184976 
L 365.964323 -88.379119 
L 365.324158 -93.70909 
L 364.683993 -100.080772 
L 364.043827 -107.38537 
L 363.403662 -115.49695 
L 362.763497 -124.270645 
L 362.123332 -133.541876 
L 361.483166 -143.126852 
L 360.843001 -152.824533 
L 360.202836 -162.420095 
L 359.56267 -171.689873 
L 358.922505 -180.407575 
L 358.28234 -188.351483 
L 357.642174 -195.312256 
L 357.002009 -201.100865 
L 356.361844 -205.556168 
L 355.721679 -208.551638 
L 355.081513 -210.000779 
L 354.441348 -209.860864 
L 353.801183 -208.134723 
L 353.161017 -204.870444 
L 352.520852 -200.158995 
L 351.880687 -194.129903 
L 351.240521 -186.945268 
L 350.600356 -178.792478 
L 349.960191 -169.876088 
L 349.320026 -160.409336 
L 348.67986 -150.605772 
L 348.039695 -140.67148 
L 347.39953 -130.798228 
L 346.759364 -121.157883 
L 346.119199 -111.898241 
L 345.479034 -103.140378 
L 344.838868 -94.97749 
L 344.198703 -87.475106 
L 343.558538 -80.672495 
L 342.918373 -74.58504 
L 342.278207 -69.207297 
L 341.638042 -64.516499 
L 340.997877 -60.476232 
L 340.357711 -57.040074 
L 339.717546 -54.155007 
L 339.077381 -51.764469 
L 338.437215 -49.810954 
L 337.79705 -48.238116 
L 337.156885 -46.992369 
L 336.51672 -46.024006 
L 335.876554 -45.287889 
L 335.236389 -44.743771 
L 334.596224 -44.356326 
L 333.956058 -44.094955 
L 333.315893 -43.933434 
L 332.675728 -43.849483 
L 332.035562 -43.824288 
L 331.395397 -43.842025 
L 330.755232 -43.889418 
L 330.115067 -43.955352 
L 329.474901 -44.030543 
L 328.834736 -44.107272 
L 328.194571 -44.179181 
L 327.554405 -44.241126 
L 326.91424 -44.289056 
L 326.274075 -44.319943 
L 325.633909 -44.33171 
L 324.993744 -44.323175 
L 324.353579 -44.293995 
L 323.713414 -44.244592 
L 323.073248 -44.176076 
L 322.433083 -44.090147 
L 321.792918 -43.988987 
L 321.152752 -43.875142 
L 320.512587 -43.751395 
L 319.872422 -43.620647 
L 319.232256 -43.485793 
L 318.592091 -43.349616 
L 317.951926 -43.214693 
L 317.311761 -43.083319 
L 316.671595 -42.957454 
L 316.03143 -42.838685 
L 315.391265 -42.72822 
L 314.751099 -42.626887 
L 314.110934 -42.53516 
L 313.470769 -42.45319 
L 312.830604 -42.38085 
L 312.190438 -42.317784 
L 311.550273 -42.263456 
L 310.910108 -42.217201 
L 310.269942 -42.17827 
L 309.629777 -42.145875 
L 308.989612 -42.119219 
L 308.349446 -42.097526 
L 307.709281 -42.080064 
L 307.069116 -42.066161 
L 306.428951 -42.05521 
L 305.788785 -42.046675 
z
" id="m7e6a670aca" style="stroke:#dd8452;"/>
    </defs>
    <g clip-path="url(#pbb10f77264)">
     <use style="fill:#dd8452;fill-opacity:0.25;stroke:#dd8452;" x="0" xlink:href="#m7e6a670aca" y="390.116719"/>
    </g>
   </g>
   <g id="PolyCollection_5">
    <defs>
     <path d="M 568.592687 -42.886682 
L 568.592687 -42.021094 
L 569.245501 -42.021094 
L 569.898315 -42.021094 
L 570.551129 -42.021094 
L 571.203943 -42.021094 
L 571.856758 -42.021094 
L 572.509572 -42.021094 
L 573.162386 -42.021094 
L 573.8152 -42.021094 
L 574.468014 -42.021094 
L 575.120828 -42.021094 
L 575.773642 -42.021094 
L 576.426457 -42.021094 
L 577.079271 -42.021094 
L 577.732085 -42.021094 
L 578.384899 -42.021094 
L 579.037713 -42.021094 
L 579.690527 -42.021094 
L 580.343341 -42.021094 
L 580.996155 -42.021094 
L 581.64897 -42.021094 
L 582.301784 -42.021094 
L 582.954598 -42.021094 
L 583.607412 -42.021094 
L 584.260226 -42.021094 
L 584.91304 -42.021094 
L 585.565854 -42.021094 
L 586.218668 -42.021094 
L 586.871483 -42.021094 
L 587.524297 -42.021094 
L 588.177111 -42.021094 
L 588.829925 -42.021094 
L 589.482739 -42.021094 
L 590.135553 -42.021094 
L 590.788367 -42.021094 
L 591.441182 -42.021094 
L 592.093996 -42.021094 
L 592.74681 -42.021094 
L 593.399624 -42.021094 
L 594.052438 -42.021094 
L 594.705252 -42.021094 
L 595.358066 -42.021094 
L 596.01088 -42.021094 
L 596.663695 -42.021094 
L 597.316509 -42.021094 
L 597.969323 -42.021094 
L 598.622137 -42.021094 
L 599.274951 -42.021094 
L 599.927765 -42.021094 
L 600.580579 -42.021094 
L 601.233393 -42.021094 
L 601.886208 -42.021094 
L 602.539022 -42.021094 
L 603.191836 -42.021094 
L 603.84465 -42.021094 
L 604.497464 -42.021094 
L 605.150278 -42.021094 
L 605.803092 -42.021094 
L 606.455907 -42.021094 
L 607.108721 -42.021094 
L 607.761535 -42.021094 
L 608.414349 -42.021094 
L 609.067163 -42.021094 
L 609.719977 -42.021094 
L 610.372791 -42.021094 
L 611.025605 -42.021094 
L 611.67842 -42.021094 
L 612.331234 -42.021094 
L 612.984048 -42.021094 
L 613.636862 -42.021094 
L 614.289676 -42.021094 
L 614.94249 -42.021094 
L 615.595304 -42.021094 
L 616.248118 -42.021094 
L 616.900933 -42.021094 
L 617.553747 -42.021094 
L 618.206561 -42.021094 
L 618.859375 -42.021094 
L 619.512189 -42.021094 
L 620.165003 -42.021094 
L 620.817817 -42.021094 
L 621.470632 -42.021094 
L 622.123446 -42.021094 
L 622.77626 -42.021094 
L 623.429074 -42.021094 
L 624.081888 -42.021094 
L 624.734702 -42.021094 
L 625.387516 -42.021094 
L 626.04033 -42.021094 
L 626.693145 -42.021094 
L 627.345959 -42.021094 
L 627.998773 -42.021094 
L 628.651587 -42.021094 
L 629.304401 -42.021094 
L 629.957215 -42.021094 
L 630.610029 -42.021094 
L 631.262843 -42.021094 
L 631.915658 -42.021094 
L 632.568472 -42.021094 
L 633.221286 -42.021094 
L 633.8741 -42.021094 
L 634.526914 -42.021094 
L 635.179728 -42.021094 
L 635.832542 -42.021094 
L 636.485357 -42.021094 
L 637.138171 -42.021094 
L 637.790985 -42.021094 
L 638.443799 -42.021094 
L 639.096613 -42.021094 
L 639.749427 -42.021094 
L 640.402241 -42.021094 
L 641.055055 -42.021094 
L 641.70787 -42.021094 
L 642.360684 -42.021094 
L 643.013498 -42.021094 
L 643.666312 -42.021094 
L 644.319126 -42.021094 
L 644.97194 -42.021094 
L 645.624754 -42.021094 
L 646.277568 -42.021094 
L 646.930383 -42.021094 
L 647.583197 -42.021094 
L 648.236011 -42.021094 
L 648.888825 -42.021094 
L 649.541639 -42.021094 
L 650.194453 -42.021094 
L 650.847267 -42.021094 
L 651.500081 -42.021094 
L 652.152896 -42.021094 
L 652.80571 -42.021094 
L 653.458524 -42.021094 
L 654.111338 -42.021094 
L 654.764152 -42.021094 
L 655.416966 -42.021094 
L 656.06978 -42.021094 
L 656.722595 -42.021094 
L 657.375409 -42.021094 
L 658.028223 -42.021094 
L 658.681037 -42.021094 
L 659.333851 -42.021094 
L 659.986665 -42.021094 
L 660.639479 -42.021094 
L 661.292293 -42.021094 
L 661.945108 -42.021094 
L 662.597922 -42.021094 
L 663.250736 -42.021094 
L 663.90355 -42.021094 
L 664.556364 -42.021094 
L 665.209178 -42.021094 
L 665.861992 -42.021094 
L 666.514806 -42.021094 
L 667.167621 -42.021094 
L 667.820435 -42.021094 
L 668.473249 -42.021094 
L 669.126063 -42.021094 
L 669.778877 -42.021094 
L 670.431691 -42.021094 
L 671.084505 -42.021094 
L 671.73732 -42.021094 
L 672.390134 -42.021094 
L 673.042948 -42.021094 
L 673.695762 -42.021094 
L 674.348576 -42.021094 
L 675.00139 -42.021094 
L 675.654204 -42.021094 
L 676.307018 -42.021094 
L 676.959833 -42.021094 
L 677.612647 -42.021094 
L 678.265461 -42.021094 
L 678.918275 -42.021094 
L 679.571089 -42.021094 
L 680.223903 -42.021094 
L 680.876717 -42.021094 
L 681.529531 -42.021094 
L 682.182346 -42.021094 
L 682.83516 -42.021094 
L 683.487974 -42.021094 
L 684.140788 -42.021094 
L 684.793602 -42.021094 
L 685.446416 -42.021094 
L 686.09923 -42.021094 
L 686.752045 -42.021094 
L 687.404859 -42.021094 
L 688.057673 -42.021094 
L 688.710487 -42.021094 
L 689.363301 -42.021094 
L 690.016115 -42.021094 
L 690.668929 -42.021094 
L 691.321743 -42.021094 
L 691.974558 -42.021094 
L 692.627372 -42.021094 
L 693.280186 -42.021094 
L 693.933 -42.021094 
L 694.585814 -42.021094 
L 695.238628 -42.021094 
L 695.891442 -42.021094 
L 696.544256 -42.021094 
L 697.197071 -42.021094 
L 697.849885 -42.021094 
L 698.502699 -42.021094 
L 698.502699 -42.189403 
L 698.502699 -42.189403 
L 697.849885 -42.242932 
L 697.197071 -42.31094 
L 696.544256 -42.3965 
L 695.891442 -42.503084 
L 695.238628 -42.634542 
L 694.585814 -42.795058 
L 693.933 -42.989074 
L 693.280186 -43.221187 
L 692.627372 -43.496005 
L 691.974558 -43.817978 
L 691.321743 -44.191179 
L 690.668929 -44.619078 
L 690.016115 -45.104275 
L 689.363301 -45.648235 
L 688.710487 -46.25102 
L 688.057673 -46.911039 
L 687.404859 -47.624837 
L 686.752045 -48.386932 
L 686.09923 -49.189724 
L 685.446416 -50.023493 
L 684.793602 -50.87649 
L 684.140788 -51.735136 
L 683.487974 -52.584326 
L 682.83516 -53.407837 
L 682.182346 -54.188823 
L 681.529531 -54.910384 
L 680.876717 -55.556184 
L 680.223903 -56.111086 
L 679.571089 -56.561777 
L 678.918275 -56.897353 
L 678.265461 -57.109833 
L 677.612647 -57.194576 
L 676.959833 -57.150587 
L 676.307018 -56.980698 
L 675.654204 -56.691631 
L 675.00139 -56.293932 
L 674.348576 -55.801825 
L 673.695762 -55.232972 
L 673.042948 -54.608199 
L 672.390134 -53.951207 
L 671.73732 -53.288292 
L 671.084505 -52.648121 
L 670.431691 -52.061557 
L 669.778877 -51.561572 
L 669.126063 -51.18322 
L 668.473249 -50.963672 
L 667.820435 -50.942277 
L 667.167621 -51.160604 
L 666.514806 -51.662419 
L 665.861992 -52.493525 
L 665.209178 -53.701411 
L 664.556364 -55.334639 
L 663.90355 -57.441916 
L 663.250736 -60.070815 
L 662.597922 -63.266116 
L 661.945108 -67.067782 
L 661.292293 -71.508613 
L 660.639479 -76.611641 
L 659.986665 -82.387385 
L 659.333851 -88.831102 
L 658.681037 -95.920216 
L 658.028223 -103.612096 
L 657.375409 -111.842395 
L 656.722595 -120.524142 
L 656.06978 -129.547734 
L 655.416966 -138.781993 
L 654.764152 -148.076331 
L 654.111338 -157.264074 
L 653.458524 -166.166849 
L 652.80571 -174.599942 
L 652.152896 -182.378384 
L 651.500081 -189.323516 
L 650.847267 -195.269718 
L 650.194453 -200.070933 
L 649.541639 -203.606658 
L 648.888825 -205.787046 
L 648.236011 -206.556845 
L 647.583197 -205.897941 
L 646.930383 -203.830372 
L 646.277568 -200.411758 
L 645.624754 -195.73522 
L 644.97194 -189.925906 
L 644.319126 -183.136391 
L 643.666312 -175.541212 
L 643.013498 -167.330904 
L 642.360684 -158.70587 
L 641.70787 -149.87044 
L 641.055055 -141.027413 
L 640.402241 -132.373341 
L 639.749427 -124.094728 
L 639.096613 -116.365225 
L 638.443799 -109.343834 
L 637.790985 -103.174038 
L 637.138171 -97.983702 
L 636.485357 -93.885538 
L 635.832542 -90.977878 
L 635.179728 -89.345503 
L 634.526914 -89.060257 
L 633.8741 -90.181232 
L 633.221286 -92.754339 
L 632.568472 -96.811167 
L 631.915658 -102.367096 
L 631.262843 -109.41873 
L 630.610029 -117.94079 
L 629.957215 -127.882715 
L 629.304401 -139.165242 
L 628.651587 -151.677338 
L 627.998773 -165.273833 
L 627.345959 -179.774135 
L 626.693145 -194.962348 
L 626.04033 -210.589055 
L 625.387516 -226.374947 
L 624.734702 -242.016343 
L 624.081888 -257.192523 
L 623.429074 -271.57467 
L 622.77626 -284.836069 
L 622.123446 -296.6631 
L 621.470632 -306.766495 
L 620.817817 -314.892233 
L 620.165003 -320.831486 
L 619.512189 -324.429019 
L 618.859375 -325.589549 
L 618.206561 -324.28167 
L 617.553747 -320.539099 
L 616.900933 -314.459161 
L 616.248118 -306.1986 
L 615.595304 -295.966966 
L 614.94249 -284.01797 
L 614.289676 -270.639316 
L 613.636862 -256.141585 
L 612.984048 -240.846798 
L 612.331234 -225.077235 
L 611.67842 -209.145082 
L 611.025605 -193.343353 
L 610.372791 -177.938445 
L 609.719977 -163.164534 
L 609.067163 -149.21992 
L 608.414349 -136.265264 
L 607.761535 -124.423575 
L 607.108721 -113.781705 
L 606.455907 -104.393046 
L 605.803092 -96.281078 
L 605.150278 -89.443433 
L 604.497464 -83.856123 
L 603.84465 -79.477658 
L 603.191836 -76.252801 
L 602.539022 -74.11579 
L 601.886208 -72.992934 
L 601.233393 -72.804543 
L 600.580579 -73.466236 
L 599.927765 -74.889695 
L 599.274951 -76.983024 
L 598.622137 -79.650834 
L 597.969323 -82.794257 
L 597.316509 -86.311017 
L 596.663695 -90.095732 
L 596.01088 -94.040538 
L 595.358066 -98.036126 
L 594.705252 -101.97321 
L 594.052438 -105.74441 
L 593.399624 -109.246485 
L 592.74681 -112.382819 
L 592.093996 -115.066006 
L 591.441182 -117.220393 
L 590.788367 -118.784404 
L 590.135553 -119.712497 
L 589.482739 -119.976594 
L 588.829925 -119.566897 
L 588.177111 -118.492 
L 587.524297 -116.778275 
L 586.871483 -114.468553 
L 586.218668 -111.62017 
L 585.565854 -108.302468 
L 584.91304 -104.593904 
L 584.260226 -100.578908 
L 583.607412 -96.344673 
L 582.954598 -91.978022 
L 582.301784 -87.562515 
L 581.64897 -83.175914 
L 580.996155 -78.888108 
L 580.343341 -74.759554 
L 579.690527 -70.840265 
L 579.037713 -67.169336 
L 578.384899 -63.77497 
L 577.732085 -60.674946 
L 577.079271 -57.877445 
L 576.426457 -55.382151 
L 575.773642 -53.181531 
L 575.120828 -51.262209 
L 574.468014 -49.606353 
L 573.8152 -48.192999 
L 573.162386 -46.999278 
L 572.509572 -46.001482 
L 571.856758 -45.175973 
L 571.203943 -44.499901 
L 570.551129 -43.951753 
L 569.898315 -43.511729 
L 569.245501 -43.161974 
L 568.592687 -42.886682 
z
" id="m4a16a8fb0e" style="stroke:#4c72b0;"/>
    </defs>
    <g clip-path="url(#pbb10f77264)">
     <use style="fill:#4c72b0;fill-opacity:0.25;stroke:#4c72b0;" x="0" xlink:href="#m4a16a8fb0e" y="390.116719"/>
    </g>
   </g>
   <g id="patch_3">
    <path d="M 59.339063 348.095625 
L 59.339063 21.935625 
" style="fill:none;stroke:#ffffff;stroke-linecap:square;stroke-linejoin:miter;stroke-width:1.25;"/>
   </g>
   <g id="patch_4">
    <path d="M 728.939062 348.095625 
L 728.939062 21.935625 
" style="fill:none;stroke:#ffffff;stroke-linecap:square;stroke-linejoin:miter;stroke-width:1.25;"/>
   </g>
   <g id="patch_5">
    <path d="M 59.339063 348.095625 
L 728.939063 348.095625 
" style="fill:none;stroke:#ffffff;stroke-linecap:square;stroke-linejoin:miter;stroke-width:1.25;"/>
   </g>
   <g id="patch_6">
    <path d="M 59.339063 21.935625 
L 728.939063 21.935625 
" style="fill:none;stroke:#ffffff;stroke-linecap:square;stroke-linejoin:miter;stroke-width:1.25;"/>
   </g>
   <g id="text_17">
    <!-- Density Estimation of RSSI Values at Different Distances -->
    <g style="fill:#262626;" transform="translate(243.629063 15.935625)scale(0.12 -0.12)">
     <defs>
      <path d="M 8.6875 0 
L 8.6875 45.015625 
L 0.921875 45.015625 
L 0.921875 51.859375 
L 8.6875 51.859375 
L 8.6875 57.375 
Q 8.6875 62.59375 9.625 65.140625 
Q 10.890625 68.5625 14.078125 70.671875 
Q 17.28125 72.796875 23.046875 72.796875 
Q 26.765625 72.796875 31.25 71.921875 
L 29.9375 64.265625 
Q 27.203125 64.75 24.75 64.75 
Q 20.75 64.75 19.09375 63.03125 
Q 17.4375 61.328125 17.4375 56.640625 
L 17.4375 51.859375 
L 27.546875 51.859375 
L 27.546875 45.015625 
L 17.4375 45.015625 
L 17.4375 0 
z
" id="ArialMT-102"/>
      <path d="M 40.4375 19 
L 49.078125 17.875 
Q 47.65625 8.9375 41.8125 3.875 
Q 35.984375 -1.171875 27.484375 -1.171875 
Q 16.84375 -1.171875 10.375 5.78125 
Q 3.90625 12.75 3.90625 25.734375 
Q 3.90625 34.125 6.6875 40.421875 
Q 9.46875 46.734375 15.15625 49.875 
Q 20.84375 53.03125 27.546875 53.03125 
Q 35.984375 53.03125 41.359375 48.75 
Q 46.734375 44.484375 48.25 36.625 
L 39.703125 35.296875 
Q 38.484375 40.53125 35.375 43.15625 
Q 32.28125 45.796875 27.875 45.796875 
Q 21.234375 45.796875 17.078125 41.03125 
Q 12.9375 36.28125 12.9375 25.984375 
Q 12.9375 15.53125 16.9375 10.796875 
Q 20.953125 6.0625 27.390625 6.0625 
Q 32.5625 6.0625 36.03125 9.234375 
Q 39.5 12.40625 40.4375 19 
z
" id="ArialMT-99"/>
     </defs>
     <use xlink:href="#ArialMT-68"/>
     <use x="72.216797" xlink:href="#ArialMT-101"/>
     <use x="127.832031" xlink:href="#ArialMT-110"/>
     <use x="183.447266" xlink:href="#ArialMT-115"/>
     <use x="233.447266" xlink:href="#ArialMT-105"/>
     <use x="255.664062" xlink:href="#ArialMT-116"/>
     <use x="283.447266" xlink:href="#ArialMT-121"/>
     <use x="333.447266" xlink:href="#ArialMT-32"/>
     <use x="361.230469" xlink:href="#ArialMT-69"/>
     <use x="427.929688" xlink:href="#ArialMT-115"/>
     <use x="477.929688" xlink:href="#ArialMT-116"/>
     <use x="505.712891" xlink:href="#ArialMT-105"/>
     <use x="527.929688" xlink:href="#ArialMT-109"/>
     <use x="611.230469" xlink:href="#ArialMT-97"/>
     <use x="666.845703" xlink:href="#ArialMT-116"/>
     <use x="694.628906" xlink:href="#ArialMT-105"/>
     <use x="716.845703" xlink:href="#ArialMT-111"/>
     <use x="772.460938" xlink:href="#ArialMT-110"/>
     <use x="828.076172" xlink:href="#ArialMT-32"/>
     <use x="855.859375" xlink:href="#ArialMT-111"/>
     <use x="911.474609" xlink:href="#ArialMT-102"/>
     <use x="939.257812" xlink:href="#ArialMT-32"/>
     <use x="967.041016" xlink:href="#ArialMT-82"/>
     <use x="1039.257812" xlink:href="#ArialMT-83"/>
     <use x="1105.957031" xlink:href="#ArialMT-83"/>
     <use x="1172.65625" xlink:href="#ArialMT-73"/>
     <use x="1200.439453" xlink:href="#ArialMT-32"/>
     <use x="1228.222656" xlink:href="#ArialMT-86"/>
     <use x="1287.546875" xlink:href="#ArialMT-97"/>
     <use x="1343.162109" xlink:href="#ArialMT-108"/>
     <use x="1365.378906" xlink:href="#ArialMT-117"/>
     <use x="1420.994141" xlink:href="#ArialMT-101"/>
     <use x="1476.609375" xlink:href="#ArialMT-115"/>
     <use x="1526.609375" xlink:href="#ArialMT-32"/>
     <use x="1554.392578" xlink:href="#ArialMT-97"/>
     <use x="1610.007812" xlink:href="#ArialMT-116"/>
     <use x="1637.791016" xlink:href="#ArialMT-32"/>
     <use x="1665.574219" xlink:href="#ArialMT-68"/>
     <use x="1737.791016" xlink:href="#ArialMT-105"/>
     <use x="1760.007812" xlink:href="#ArialMT-102"/>
     <use x="1786.041016" xlink:href="#ArialMT-102"/>
     <use x="1813.824219" xlink:href="#ArialMT-101"/>
     <use x="1869.439453" xlink:href="#ArialMT-114"/>
     <use x="1902.740234" xlink:href="#ArialMT-101"/>
     <use x="1958.355469" xlink:href="#ArialMT-110"/>
     <use x="2013.970703" xlink:href="#ArialMT-116"/>
     <use x="2041.753906" xlink:href="#ArialMT-32"/>
     <use x="2069.537109" xlink:href="#ArialMT-68"/>
     <use x="2141.753906" xlink:href="#ArialMT-105"/>
     <use x="2163.970703" xlink:href="#ArialMT-115"/>
     <use x="2213.970703" xlink:href="#ArialMT-116"/>
     <use x="2241.753906" xlink:href="#ArialMT-97"/>
     <use x="2297.369141" xlink:href="#ArialMT-110"/>
     <use x="2352.984375" xlink:href="#ArialMT-99"/>
     <use x="2402.984375" xlink:href="#ArialMT-101"/>
     <use x="2458.599609" xlink:href="#ArialMT-115"/>
    </g>
   </g>
   <g id="legend_1">
    <g id="patch_7">
     <path d="M 661.586406 108.534844 
L 721.239062 108.534844 
Q 723.439062 108.534844 723.439062 106.334844 
L 723.439062 29.635625 
Q 723.439062 27.435625 721.239062 27.435625 
L 661.586406 27.435625 
Q 659.386406 27.435625 659.386406 29.635625 
L 659.386406 106.334844 
Q 659.386406 108.534844 661.586406 108.534844 
z
" style="fill:#eaeaf2;opacity:0.8;stroke:#cccccc;stroke-linejoin:miter;"/>
    </g>
    <g id="patch_8">
     <path d="M 663.786406 39.709219 
L 685.786406 39.709219 
L 685.786406 32.009219 
L 663.786406 32.009219 
z
" style="fill:#4c72b0;fill-opacity:0.25;stroke:#4c72b0;stroke-linejoin:miter;"/>
    </g>
    <g id="text_18">
     <!-- 0.5m -->
     <g style="fill:#262626;" transform="translate(694.586406 39.709219)scale(0.11 -0.11)">
      <use xlink:href="#ArialMT-48"/>
      <use x="55.615234" xlink:href="#ArialMT-46"/>
      <use x="83.398438" xlink:href="#ArialMT-53"/>
      <use x="139.013672" xlink:href="#ArialMT-109"/>
     </g>
    </g>
    <g id="patch_9">
     <path d="M 663.786406 55.269063 
L 685.786406 55.269063 
L 685.786406 47.569063 
L 663.786406 47.569063 
z
" style="fill:#dd8452;fill-opacity:0.25;stroke:#dd8452;stroke-linejoin:miter;"/>
    </g>
    <g id="text_19">
     <!-- 1.0m -->
     <g style="fill:#262626;" transform="translate(694.586406 55.269063)scale(0.11 -0.11)">
      <use xlink:href="#ArialMT-49"/>
      <use x="55.615234" xlink:href="#ArialMT-46"/>
      <use x="83.398438" xlink:href="#ArialMT-48"/>
      <use x="139.013672" xlink:href="#ArialMT-109"/>
     </g>
    </g>
    <g id="patch_10">
     <path d="M 663.786406 70.828906 
L 685.786406 70.828906 
L 685.786406 63.128906 
L 663.786406 63.128906 
z
" style="fill:#55a868;fill-opacity:0.25;stroke:#55a868;stroke-linejoin:miter;"/>
    </g>
    <g id="text_20">
     <!-- 1.5m -->
     <g style="fill:#262626;" transform="translate(694.586406 70.828906)scale(0.11 -0.11)">
      <use xlink:href="#ArialMT-49"/>
      <use x="55.615234" xlink:href="#ArialMT-46"/>
      <use x="83.398438" xlink:href="#ArialMT-53"/>
      <use x="139.013672" xlink:href="#ArialMT-109"/>
     </g>
    </g>
    <g id="patch_11">
     <path d="M 663.786406 86.38875 
L 685.786406 86.38875 
L 685.786406 78.68875 
L 663.786406 78.68875 
z
" style="fill:#c44e52;fill-opacity:0.25;stroke:#c44e52;stroke-linejoin:miter;"/>
    </g>
    <g id="text_21">
     <!-- 2.0m -->
     <g style="fill:#262626;" transform="translate(694.586406 86.38875)scale(0.11 -0.11)">
      <use xlink:href="#ArialMT-50"/>
      <use x="55.615234" xlink:href="#ArialMT-46"/>
      <use x="83.398438" xlink:href="#ArialMT-48"/>
      <use x="139.013672" xlink:href="#ArialMT-109"/>
     </g>
    </g>
    <g id="patch_12">
     <path d="M 663.786406 101.948594 
L 685.786406 101.948594 
L 685.786406 94.248594 
L 663.786406 94.248594 
z
" style="fill:#8172b3;fill-opacity:0.25;stroke:#8172b3;stroke-linejoin:miter;"/>
    </g>
    <g id="text_22">
     <!-- 2.5m -->
     <g style="fill:#262626;" transform="translate(694.586406 101.948594)scale(0.11 -0.11)">
      <use xlink:href="#ArialMT-50"/>
      <use x="55.615234" xlink:href="#ArialMT-46"/>
      <use x="83.398438" xlink:href="#ArialMT-53"/>
      <use x="139.013672" xlink:href="#ArialMT-109"/>
     </g>
    </g>
   </g>
  </g>
 </g>
 <defs>
  <clipPath id="pbb10f77264">
   <rect height="326.16" width="669.6" x="59.339063" y="21.935625"/>
  </clipPath>
 </defs>
</svg>
