<?xml version="1.0" encoding="utf-8" standalone="no"?>
<!DOCTYPE svg PUBLIC "-//W3C//DTD SVG 1.1//EN"
  "http://www.w3.org/Graphics/SVG/1.1/DTD/svg11.dtd">
<!-- Created with matplotlib (https://matplotlib.org/) -->
<svg height="390.116719pt" version="1.1" viewBox="0 0 732.527788 390.116719" width="732.527788pt" xmlns="http://www.w3.org/2000/svg" xmlns:xlink="http://www.w3.org/1999/xlink">
 <metadata>
  <rdf:RDF xmlns:cc="http://creativecommons.org/ns#" xmlns:dc="http://purl.org/dc/elements/1.1/" xmlns:rdf="http://www.w3.org/1999/02/22-rdf-syntax-ns#">
   <cc:Work>
    <dc:type rdf:resource="http://purl.org/dc/dcmitype/StillImage"/>
    <dc:date>2021-02-08T14:01:38.665372</dc:date>
    <dc:format>image/svg+xml</dc:format>
    <dc:creator>
     <cc:Agent>
      <dc:title>Matplotlib v3.3.2, https://matplotlib.org/</dc:title>
     </cc:Agent>
    </dc:creator>
   </cc:Work>
  </rdf:RDF>
 </metadata>
 <defs>
  <style type="text/css">*{stroke-linecap:butt;stroke-linejoin:round;}</style>
 </defs>
 <g id="figure_1">
  <g id="patch_1">
   <path d="M 0 390.116719 
L 732.527788 390.116719 
L 732.527788 0 
L 0 0 
z
" style="fill:#ffffff;"/>
  </g>
  <g id="axes_1">
   <g id="patch_2">
    <path d="M 53.222031 348.095625 
L 722.822031 348.095625 
L 722.822031 21.935625 
L 53.222031 21.935625 
z
" style="fill:#eaeaf2;"/>
   </g>
   <g id="matplotlib.axis_1">
    <g id="xtick_1">
     <g id="line2d_1">
      <path clip-path="url(#pdc3af1d2fb)" d="M 112.896572 348.095625 
L 112.896572 21.935625 
" style="fill:none;stroke:#ffffff;stroke-linecap:round;"/>
     </g>
     <g id="text_1">
      <!-- −97.5 -->
      <g style="fill:#262626;" transform="translate(98.980713 365.469219)scale(0.11 -0.11)">
       <defs>
        <path d="M 52.828125 31.203125 
L 5.5625 31.203125 
L 5.5625 39.40625 
L 52.828125 39.40625 
z
" id="ArialMT-8722"/>
        <path d="M 5.46875 16.546875 
L 13.921875 17.328125 
Q 14.984375 11.375 18.015625 8.6875 
Q 21.046875 6 25.78125 6 
Q 29.828125 6 32.875 7.859375 
Q 35.9375 9.71875 37.890625 12.8125 
Q 39.84375 15.921875 41.15625 21.1875 
Q 42.484375 26.46875 42.484375 31.9375 
Q 42.484375 32.515625 42.4375 33.6875 
Q 39.796875 29.5 35.234375 26.875 
Q 30.671875 24.265625 25.34375 24.265625 
Q 16.453125 24.265625 10.296875 30.703125 
Q 4.15625 37.15625 4.15625 47.703125 
Q 4.15625 58.59375 10.578125 65.234375 
Q 17 71.875 26.65625 71.875 
Q 33.640625 71.875 39.421875 68.109375 
Q 45.21875 64.359375 48.21875 57.390625 
Q 51.21875 50.4375 51.21875 37.25 
Q 51.21875 23.53125 48.234375 15.40625 
Q 45.265625 7.28125 39.375 3.03125 
Q 33.5 -1.21875 25.59375 -1.21875 
Q 17.1875 -1.21875 11.859375 3.4375 
Q 6.546875 8.109375 5.46875 16.546875 
z
M 41.453125 48.140625 
Q 41.453125 55.71875 37.421875 60.15625 
Q 33.40625 64.59375 27.734375 64.59375 
Q 21.875 64.59375 17.53125 59.8125 
Q 13.1875 55.03125 13.1875 47.40625 
Q 13.1875 40.578125 17.3125 36.296875 
Q 21.4375 32.03125 27.484375 32.03125 
Q 33.59375 32.03125 37.515625 36.296875 
Q 41.453125 40.578125 41.453125 48.140625 
z
" id="ArialMT-57"/>
        <path d="M 4.734375 62.203125 
L 4.734375 70.65625 
L 51.078125 70.65625 
L 51.078125 63.8125 
Q 44.234375 56.546875 37.515625 44.484375 
Q 30.8125 32.421875 27.15625 19.671875 
Q 24.515625 10.6875 23.78125 0 
L 14.75 0 
Q 14.890625 8.453125 18.0625 20.40625 
Q 21.234375 32.375 27.171875 43.484375 
Q 33.109375 54.59375 39.796875 62.203125 
z
" id="ArialMT-55"/>
        <path d="M 9.078125 0 
L 9.078125 10.015625 
L 19.09375 10.015625 
L 19.09375 0 
z
" id="ArialMT-46"/>
        <path d="M 4.15625 18.75 
L 13.375 19.53125 
Q 14.40625 12.796875 18.140625 9.390625 
Q 21.875 6 27.15625 6 
Q 33.5 6 37.890625 10.78125 
Q 42.28125 15.578125 42.28125 23.484375 
Q 42.28125 31 38.0625 35.34375 
Q 33.84375 39.703125 27 39.703125 
Q 22.75 39.703125 19.328125 37.765625 
Q 15.921875 35.84375 13.96875 32.765625 
L 5.71875 33.84375 
L 12.640625 70.609375 
L 48.25 70.609375 
L 48.25 62.203125 
L 19.671875 62.203125 
L 15.828125 42.96875 
Q 22.265625 47.46875 29.34375 47.46875 
Q 38.71875 47.46875 45.15625 40.96875 
Q 51.609375 34.46875 51.609375 24.265625 
Q 51.609375 14.546875 45.953125 7.46875 
Q 39.0625 -1.21875 27.15625 -1.21875 
Q 17.390625 -1.21875 11.203125 4.25 
Q 5.03125 9.71875 4.15625 18.75 
z
" id="ArialMT-53"/>
       </defs>
       <use xlink:href="#ArialMT-8722"/>
       <use x="58.398438" xlink:href="#ArialMT-57"/>
       <use x="114.013672" xlink:href="#ArialMT-55"/>
       <use x="169.628906" xlink:href="#ArialMT-46"/>
       <use x="197.412109" xlink:href="#ArialMT-53"/>
      </g>
     </g>
    </g>
    <g id="xtick_2">
     <g id="line2d_2">
      <path clip-path="url(#pdc3af1d2fb)" d="M 187.710992 348.095625 
L 187.710992 21.935625 
" style="fill:none;stroke:#ffffff;stroke-linecap:round;"/>
     </g>
     <g id="text_2">
      <!-- −95.0 -->
      <g style="fill:#262626;" transform="translate(173.795132 365.469219)scale(0.11 -0.11)">
       <defs>
        <path d="M 4.15625 35.296875 
Q 4.15625 48 6.765625 55.734375 
Q 9.375 63.484375 14.515625 67.671875 
Q 19.671875 71.875 27.484375 71.875 
Q 33.25 71.875 37.59375 69.546875 
Q 41.9375 67.234375 44.765625 62.859375 
Q 47.609375 58.5 49.21875 52.21875 
Q 50.828125 45.953125 50.828125 35.296875 
Q 50.828125 22.703125 48.234375 14.96875 
Q 45.65625 7.234375 40.5 3 
Q 35.359375 -1.21875 27.484375 -1.21875 
Q 17.140625 -1.21875 11.234375 6.203125 
Q 4.15625 15.140625 4.15625 35.296875 
z
M 13.1875 35.296875 
Q 13.1875 17.671875 17.3125 11.828125 
Q 21.4375 6 27.484375 6 
Q 33.546875 6 37.671875 11.859375 
Q 41.796875 17.71875 41.796875 35.296875 
Q 41.796875 52.984375 37.671875 58.78125 
Q 33.546875 64.59375 27.390625 64.59375 
Q 21.34375 64.59375 17.71875 59.46875 
Q 13.1875 52.9375 13.1875 35.296875 
z
" id="ArialMT-48"/>
       </defs>
       <use xlink:href="#ArialMT-8722"/>
       <use x="58.398438" xlink:href="#ArialMT-57"/>
       <use x="114.013672" xlink:href="#ArialMT-53"/>
       <use x="169.628906" xlink:href="#ArialMT-46"/>
       <use x="197.412109" xlink:href="#ArialMT-48"/>
      </g>
     </g>
    </g>
    <g id="xtick_3">
     <g id="line2d_3">
      <path clip-path="url(#pdc3af1d2fb)" d="M 262.525411 348.095625 
L 262.525411 21.935625 
" style="fill:none;stroke:#ffffff;stroke-linecap:round;"/>
     </g>
     <g id="text_3">
      <!-- −92.5 -->
      <g style="fill:#262626;" transform="translate(248.609552 365.469219)scale(0.11 -0.11)">
       <defs>
        <path d="M 50.34375 8.453125 
L 50.34375 0 
L 3.03125 0 
Q 2.9375 3.171875 4.046875 6.109375 
Q 5.859375 10.9375 9.828125 15.625 
Q 13.8125 20.3125 21.34375 26.46875 
Q 33.015625 36.03125 37.109375 41.625 
Q 41.21875 47.21875 41.21875 52.203125 
Q 41.21875 57.421875 37.46875 61 
Q 33.734375 64.59375 27.734375 64.59375 
Q 21.390625 64.59375 17.578125 60.78125 
Q 13.765625 56.984375 13.71875 50.25 
L 4.6875 51.171875 
Q 5.609375 61.28125 11.65625 66.578125 
Q 17.71875 71.875 27.9375 71.875 
Q 38.234375 71.875 44.234375 66.15625 
Q 50.25 60.453125 50.25 52 
Q 50.25 47.703125 48.484375 43.546875 
Q 46.734375 39.40625 42.65625 34.8125 
Q 38.578125 30.21875 29.109375 22.21875 
Q 21.1875 15.578125 18.9375 13.203125 
Q 16.703125 10.84375 15.234375 8.453125 
z
" id="ArialMT-50"/>
       </defs>
       <use xlink:href="#ArialMT-8722"/>
       <use x="58.398438" xlink:href="#ArialMT-57"/>
       <use x="114.013672" xlink:href="#ArialMT-50"/>
       <use x="169.628906" xlink:href="#ArialMT-46"/>
       <use x="197.412109" xlink:href="#ArialMT-53"/>
      </g>
     </g>
    </g>
    <g id="xtick_4">
     <g id="line2d_4">
      <path clip-path="url(#pdc3af1d2fb)" d="M 337.339831 348.095625 
L 337.339831 21.935625 
" style="fill:none;stroke:#ffffff;stroke-linecap:round;"/>
     </g>
     <g id="text_4">
      <!-- −90.0 -->
      <g style="fill:#262626;" transform="translate(323.423972 365.469219)scale(0.11 -0.11)">
       <use xlink:href="#ArialMT-8722"/>
       <use x="58.398438" xlink:href="#ArialMT-57"/>
       <use x="114.013672" xlink:href="#ArialMT-48"/>
       <use x="169.628906" xlink:href="#ArialMT-46"/>
       <use x="197.412109" xlink:href="#ArialMT-48"/>
      </g>
     </g>
    </g>
    <g id="xtick_5">
     <g id="line2d_5">
      <path clip-path="url(#pdc3af1d2fb)" d="M 412.154251 348.095625 
L 412.154251 21.935625 
" style="fill:none;stroke:#ffffff;stroke-linecap:round;"/>
     </g>
     <g id="text_5">
      <!-- −87.5 -->
      <g style="fill:#262626;" transform="translate(398.238391 365.469219)scale(0.11 -0.11)">
       <defs>
        <path d="M 17.671875 38.8125 
Q 12.203125 40.828125 9.5625 44.53125 
Q 6.9375 48.25 6.9375 53.421875 
Q 6.9375 61.234375 12.546875 66.546875 
Q 18.171875 71.875 27.484375 71.875 
Q 36.859375 71.875 42.578125 66.421875 
Q 48.296875 60.984375 48.296875 53.171875 
Q 48.296875 48.1875 45.671875 44.5 
Q 43.0625 40.828125 37.75 38.8125 
Q 44.34375 36.671875 47.78125 31.875 
Q 51.21875 27.09375 51.21875 20.453125 
Q 51.21875 11.28125 44.71875 5.03125 
Q 38.234375 -1.21875 27.640625 -1.21875 
Q 17.046875 -1.21875 10.546875 5.046875 
Q 4.046875 11.328125 4.046875 20.703125 
Q 4.046875 27.6875 7.59375 32.390625 
Q 11.140625 37.109375 17.671875 38.8125 
z
M 15.921875 53.71875 
Q 15.921875 48.640625 19.1875 45.40625 
Q 22.46875 42.1875 27.6875 42.1875 
Q 32.765625 42.1875 36.015625 45.375 
Q 39.265625 48.578125 39.265625 53.21875 
Q 39.265625 58.0625 35.90625 61.359375 
Q 32.5625 64.65625 27.59375 64.65625 
Q 22.5625 64.65625 19.234375 61.421875 
Q 15.921875 58.203125 15.921875 53.71875 
z
M 13.09375 20.65625 
Q 13.09375 16.890625 14.875 13.375 
Q 16.65625 9.859375 20.171875 7.921875 
Q 23.6875 6 27.734375 6 
Q 34.03125 6 38.125 10.046875 
Q 42.234375 14.109375 42.234375 20.359375 
Q 42.234375 26.703125 38.015625 30.859375 
Q 33.796875 35.015625 27.4375 35.015625 
Q 21.234375 35.015625 17.15625 30.90625 
Q 13.09375 26.8125 13.09375 20.65625 
z
" id="ArialMT-56"/>
       </defs>
       <use xlink:href="#ArialMT-8722"/>
       <use x="58.398438" xlink:href="#ArialMT-56"/>
       <use x="114.013672" xlink:href="#ArialMT-55"/>
       <use x="169.628906" xlink:href="#ArialMT-46"/>
       <use x="197.412109" xlink:href="#ArialMT-53"/>
      </g>
     </g>
    </g>
    <g id="xtick_6">
     <g id="line2d_6">
      <path clip-path="url(#pdc3af1d2fb)" d="M 486.96867 348.095625 
L 486.96867 21.935625 
" style="fill:none;stroke:#ffffff;stroke-linecap:round;"/>
     </g>
     <g id="text_6">
      <!-- −85.0 -->
      <g style="fill:#262626;" transform="translate(473.052811 365.469219)scale(0.11 -0.11)">
       <use xlink:href="#ArialMT-8722"/>
       <use x="58.398438" xlink:href="#ArialMT-56"/>
       <use x="114.013672" xlink:href="#ArialMT-53"/>
       <use x="169.628906" xlink:href="#ArialMT-46"/>
       <use x="197.412109" xlink:href="#ArialMT-48"/>
      </g>
     </g>
    </g>
    <g id="xtick_7">
     <g id="line2d_7">
      <path clip-path="url(#pdc3af1d2fb)" d="M 561.78309 348.095625 
L 561.78309 21.935625 
" style="fill:none;stroke:#ffffff;stroke-linecap:round;"/>
     </g>
     <g id="text_7">
      <!-- −82.5 -->
      <g style="fill:#262626;" transform="translate(547.86723 365.469219)scale(0.11 -0.11)">
       <use xlink:href="#ArialMT-8722"/>
       <use x="58.398438" xlink:href="#ArialMT-56"/>
       <use x="114.013672" xlink:href="#ArialMT-50"/>
       <use x="169.628906" xlink:href="#ArialMT-46"/>
       <use x="197.412109" xlink:href="#ArialMT-53"/>
      </g>
     </g>
    </g>
    <g id="xtick_8">
     <g id="line2d_8">
      <path clip-path="url(#pdc3af1d2fb)" d="M 636.597509 348.095625 
L 636.597509 21.935625 
" style="fill:none;stroke:#ffffff;stroke-linecap:round;"/>
     </g>
     <g id="text_8">
      <!-- −80.0 -->
      <g style="fill:#262626;" transform="translate(622.68165 365.469219)scale(0.11 -0.11)">
       <use xlink:href="#ArialMT-8722"/>
       <use x="58.398438" xlink:href="#ArialMT-56"/>
       <use x="114.013672" xlink:href="#ArialMT-48"/>
       <use x="169.628906" xlink:href="#ArialMT-46"/>
       <use x="197.412109" xlink:href="#ArialMT-48"/>
      </g>
     </g>
    </g>
    <g id="xtick_9">
     <g id="line2d_9">
      <path clip-path="url(#pdc3af1d2fb)" d="M 711.411929 348.095625 
L 711.411929 21.935625 
" style="fill:none;stroke:#ffffff;stroke-linecap:round;"/>
     </g>
     <g id="text_9">
      <!-- −77.5 -->
      <g style="fill:#262626;" transform="translate(697.49607 365.469219)scale(0.11 -0.11)">
       <use xlink:href="#ArialMT-8722"/>
       <use x="58.398438" xlink:href="#ArialMT-55"/>
       <use x="114.013672" xlink:href="#ArialMT-55"/>
       <use x="169.628906" xlink:href="#ArialMT-46"/>
       <use x="197.412109" xlink:href="#ArialMT-53"/>
      </g>
     </g>
    </g>
    <g id="text_10">
     <!-- RSSI Value (Higher Values Stronger) -->
     <g style="fill:#262626;" transform="translate(289.864844 380.391094)scale(0.12 -0.12)">
      <defs>
       <path d="M 7.859375 0 
L 7.859375 71.578125 
L 39.59375 71.578125 
Q 49.171875 71.578125 54.140625 69.640625 
Q 59.125 67.71875 62.109375 62.828125 
Q 65.09375 57.953125 65.09375 52.046875 
Q 65.09375 44.4375 60.15625 39.203125 
Q 55.21875 33.984375 44.921875 32.5625 
Q 48.6875 30.765625 50.640625 29 
Q 54.78125 25.203125 58.5 19.484375 
L 70.953125 0 
L 59.03125 0 
L 49.5625 14.890625 
Q 45.40625 21.34375 42.71875 24.75 
Q 40.046875 28.171875 37.921875 29.53125 
Q 35.796875 30.90625 33.59375 31.453125 
Q 31.984375 31.78125 28.328125 31.78125 
L 17.328125 31.78125 
L 17.328125 0 
z
M 17.328125 39.984375 
L 37.703125 39.984375 
Q 44.1875 39.984375 47.84375 41.328125 
Q 51.515625 42.671875 53.421875 45.625 
Q 55.328125 48.578125 55.328125 52.046875 
Q 55.328125 57.125 51.640625 60.390625 
Q 47.953125 63.671875 39.984375 63.671875 
L 17.328125 63.671875 
z
" id="ArialMT-82"/>
       <path d="M 4.5 23 
L 13.421875 23.78125 
Q 14.0625 18.40625 16.375 14.96875 
Q 18.703125 11.53125 23.578125 9.40625 
Q 28.46875 7.28125 34.578125 7.28125 
Q 39.984375 7.28125 44.140625 8.890625 
Q 48.296875 10.5 50.3125 13.296875 
Q 52.34375 16.109375 52.34375 19.4375 
Q 52.34375 22.796875 50.390625 25.3125 
Q 48.4375 27.828125 43.953125 29.546875 
Q 41.0625 30.671875 31.203125 33.03125 
Q 21.34375 35.40625 17.390625 37.5 
Q 12.25 40.1875 9.734375 44.15625 
Q 7.234375 48.140625 7.234375 53.078125 
Q 7.234375 58.5 10.296875 63.203125 
Q 13.375 67.921875 19.28125 70.359375 
Q 25.203125 72.796875 32.421875 72.796875 
Q 40.375 72.796875 46.453125 70.234375 
Q 52.546875 67.671875 55.8125 62.6875 
Q 59.078125 57.71875 59.328125 51.421875 
L 50.25 50.734375 
Q 49.515625 57.515625 45.28125 60.984375 
Q 41.0625 64.453125 32.8125 64.453125 
Q 24.21875 64.453125 20.28125 61.296875 
Q 16.359375 58.15625 16.359375 53.71875 
Q 16.359375 49.859375 19.140625 47.359375 
Q 21.875 44.875 33.421875 42.265625 
Q 44.96875 39.65625 49.265625 37.703125 
Q 55.515625 34.8125 58.484375 30.390625 
Q 61.46875 25.984375 61.46875 20.21875 
Q 61.46875 14.5 58.203125 9.4375 
Q 54.9375 4.390625 48.796875 1.578125 
Q 42.671875 -1.21875 35.015625 -1.21875 
Q 25.296875 -1.21875 18.71875 1.609375 
Q 12.15625 4.4375 8.421875 10.125 
Q 4.6875 15.828125 4.5 23 
z
" id="ArialMT-83"/>
       <path d="M 9.328125 0 
L 9.328125 71.578125 
L 18.796875 71.578125 
L 18.796875 0 
z
" id="ArialMT-73"/>
       <path id="ArialMT-32"/>
       <path d="M 28.171875 0 
L 0.4375 71.578125 
L 10.6875 71.578125 
L 29.296875 19.578125 
Q 31.546875 13.328125 33.0625 7.859375 
Q 34.71875 13.71875 36.921875 19.578125 
L 56.25 71.578125 
L 65.921875 71.578125 
L 37.890625 0 
z
" id="ArialMT-86"/>
       <path d="M 40.4375 6.390625 
Q 35.546875 2.25 31.03125 0.53125 
Q 26.515625 -1.171875 21.34375 -1.171875 
Q 12.796875 -1.171875 8.203125 3 
Q 3.609375 7.171875 3.609375 13.671875 
Q 3.609375 17.484375 5.34375 20.625 
Q 7.078125 23.78125 9.890625 25.6875 
Q 12.703125 27.59375 16.21875 28.5625 
Q 18.796875 29.25 24.03125 29.890625 
Q 34.671875 31.15625 39.703125 32.90625 
Q 39.75 34.71875 39.75 35.203125 
Q 39.75 40.578125 37.25 42.78125 
Q 33.890625 45.75 27.25 45.75 
Q 21.046875 45.75 18.09375 43.578125 
Q 15.140625 41.40625 13.71875 35.890625 
L 5.125 37.0625 
Q 6.296875 42.578125 8.984375 45.96875 
Q 11.671875 49.359375 16.75 51.1875 
Q 21.828125 53.03125 28.515625 53.03125 
Q 35.15625 53.03125 39.296875 51.46875 
Q 43.453125 49.90625 45.40625 47.53125 
Q 47.359375 45.171875 48.140625 41.546875 
Q 48.578125 39.3125 48.578125 33.453125 
L 48.578125 21.734375 
Q 48.578125 9.46875 49.140625 6.21875 
Q 49.703125 2.984375 51.375 0 
L 42.1875 0 
Q 40.828125 2.734375 40.4375 6.390625 
z
M 39.703125 26.03125 
Q 34.90625 24.078125 25.34375 22.703125 
Q 19.921875 21.921875 17.671875 20.9375 
Q 15.4375 19.96875 14.203125 18.09375 
Q 12.984375 16.21875 12.984375 13.921875 
Q 12.984375 10.40625 15.640625 8.0625 
Q 18.3125 5.71875 23.4375 5.71875 
Q 28.515625 5.71875 32.46875 7.9375 
Q 36.421875 10.15625 38.28125 14.015625 
Q 39.703125 17 39.703125 22.796875 
z
" id="ArialMT-97"/>
       <path d="M 6.390625 0 
L 6.390625 71.578125 
L 15.1875 71.578125 
L 15.1875 0 
z
" id="ArialMT-108"/>
       <path d="M 40.578125 0 
L 40.578125 7.625 
Q 34.515625 -1.171875 24.125 -1.171875 
Q 19.53125 -1.171875 15.546875 0.578125 
Q 11.578125 2.34375 9.640625 5 
Q 7.71875 7.671875 6.9375 11.53125 
Q 6.390625 14.109375 6.390625 19.734375 
L 6.390625 51.859375 
L 15.1875 51.859375 
L 15.1875 23.09375 
Q 15.1875 16.21875 15.71875 13.8125 
Q 16.546875 10.359375 19.234375 8.375 
Q 21.921875 6.390625 25.875 6.390625 
Q 29.828125 6.390625 33.296875 8.421875 
Q 36.765625 10.453125 38.203125 13.9375 
Q 39.65625 17.4375 39.65625 24.078125 
L 39.65625 51.859375 
L 48.4375 51.859375 
L 48.4375 0 
z
" id="ArialMT-117"/>
       <path d="M 42.09375 16.703125 
L 51.171875 15.578125 
Q 49.03125 7.625 43.21875 3.21875 
Q 37.40625 -1.171875 28.375 -1.171875 
Q 17 -1.171875 10.328125 5.828125 
Q 3.65625 12.84375 3.65625 25.484375 
Q 3.65625 38.578125 10.390625 45.796875 
Q 17.140625 53.03125 27.875 53.03125 
Q 38.28125 53.03125 44.875 45.953125 
Q 51.46875 38.875 51.46875 26.03125 
Q 51.46875 25.25 51.421875 23.6875 
L 12.75 23.6875 
Q 13.234375 15.140625 17.578125 10.59375 
Q 21.921875 6.0625 28.421875 6.0625 
Q 33.25 6.0625 36.671875 8.59375 
Q 40.09375 11.140625 42.09375 16.703125 
z
M 13.234375 30.90625 
L 42.1875 30.90625 
Q 41.609375 37.453125 38.875 40.71875 
Q 34.671875 45.796875 27.984375 45.796875 
Q 21.921875 45.796875 17.796875 41.75 
Q 13.671875 37.703125 13.234375 30.90625 
z
" id="ArialMT-101"/>
       <path d="M 23.390625 -21.046875 
Q 16.109375 -11.859375 11.078125 0.4375 
Q 6.0625 12.75 6.0625 25.921875 
Q 6.0625 37.546875 9.8125 48.1875 
Q 14.203125 60.546875 23.390625 72.796875 
L 29.6875 72.796875 
Q 23.78125 62.640625 21.875 58.296875 
Q 18.890625 51.5625 17.1875 44.234375 
Q 15.09375 35.109375 15.09375 25.875 
Q 15.09375 2.390625 29.6875 -21.046875 
z
" id="ArialMT-40"/>
       <path d="M 8.015625 0 
L 8.015625 71.578125 
L 17.484375 71.578125 
L 17.484375 42.1875 
L 54.6875 42.1875 
L 54.6875 71.578125 
L 64.15625 71.578125 
L 64.15625 0 
L 54.6875 0 
L 54.6875 33.734375 
L 17.484375 33.734375 
L 17.484375 0 
z
" id="ArialMT-72"/>
       <path d="M 6.640625 61.46875 
L 6.640625 71.578125 
L 15.4375 71.578125 
L 15.4375 61.46875 
z
M 6.640625 0 
L 6.640625 51.859375 
L 15.4375 51.859375 
L 15.4375 0 
z
" id="ArialMT-105"/>
       <path d="M 4.984375 -4.296875 
L 13.53125 -5.5625 
Q 14.0625 -9.515625 16.5 -11.328125 
Q 19.78125 -13.765625 25.4375 -13.765625 
Q 31.546875 -13.765625 34.859375 -11.328125 
Q 38.1875 -8.890625 39.359375 -4.5 
Q 40.046875 -1.8125 39.984375 6.78125 
Q 34.234375 0 25.640625 0 
Q 14.9375 0 9.078125 7.71875 
Q 3.21875 15.4375 3.21875 26.21875 
Q 3.21875 33.640625 5.90625 39.90625 
Q 8.59375 46.1875 13.6875 49.609375 
Q 18.796875 53.03125 25.6875 53.03125 
Q 34.859375 53.03125 40.828125 45.609375 
L 40.828125 51.859375 
L 48.921875 51.859375 
L 48.921875 7.03125 
Q 48.921875 -5.078125 46.453125 -10.125 
Q 44 -15.1875 38.640625 -18.109375 
Q 33.296875 -21.046875 25.484375 -21.046875 
Q 16.21875 -21.046875 10.5 -16.875 
Q 4.78125 -12.703125 4.984375 -4.296875 
z
M 12.25 26.859375 
Q 12.25 16.65625 16.296875 11.96875 
Q 20.359375 7.28125 26.46875 7.28125 
Q 32.515625 7.28125 36.609375 11.9375 
Q 40.71875 16.609375 40.71875 26.5625 
Q 40.71875 36.078125 36.5 40.90625 
Q 32.28125 45.75 26.3125 45.75 
Q 20.453125 45.75 16.34375 40.984375 
Q 12.25 36.234375 12.25 26.859375 
z
" id="ArialMT-103"/>
       <path d="M 6.59375 0 
L 6.59375 71.578125 
L 15.375 71.578125 
L 15.375 45.90625 
Q 21.53125 53.03125 30.90625 53.03125 
Q 36.671875 53.03125 40.921875 50.75 
Q 45.171875 48.484375 47 44.484375 
Q 48.828125 40.484375 48.828125 32.859375 
L 48.828125 0 
L 40.046875 0 
L 40.046875 32.859375 
Q 40.046875 39.453125 37.1875 42.453125 
Q 34.328125 45.453125 29.109375 45.453125 
Q 25.203125 45.453125 21.75 43.421875 
Q 18.3125 41.40625 16.84375 37.9375 
Q 15.375 34.46875 15.375 28.375 
L 15.375 0 
z
" id="ArialMT-104"/>
       <path d="M 6.5 0 
L 6.5 51.859375 
L 14.40625 51.859375 
L 14.40625 44 
Q 17.4375 49.515625 20 51.265625 
Q 22.5625 53.03125 25.640625 53.03125 
Q 30.078125 53.03125 34.671875 50.203125 
L 31.640625 42.046875 
Q 28.421875 43.953125 25.203125 43.953125 
Q 22.3125 43.953125 20.015625 42.21875 
Q 17.71875 40.484375 16.75 37.40625 
Q 15.28125 32.71875 15.28125 27.15625 
L 15.28125 0 
z
" id="ArialMT-114"/>
       <path d="M 3.078125 15.484375 
L 11.765625 16.84375 
Q 12.5 11.625 15.84375 8.84375 
Q 19.1875 6.0625 25.203125 6.0625 
Q 31.25 6.0625 34.171875 8.515625 
Q 37.109375 10.984375 37.109375 14.3125 
Q 37.109375 17.28125 34.515625 19 
Q 32.71875 20.171875 25.53125 21.96875 
Q 15.875 24.421875 12.140625 26.203125 
Q 8.40625 27.984375 6.46875 31.125 
Q 4.546875 34.28125 4.546875 38.09375 
Q 4.546875 41.546875 6.125 44.5 
Q 7.71875 47.46875 10.453125 49.421875 
Q 12.5 50.921875 16.03125 51.96875 
Q 19.578125 53.03125 23.640625 53.03125 
Q 29.734375 53.03125 34.34375 51.265625 
Q 38.96875 49.515625 41.15625 46.5 
Q 43.359375 43.5 44.1875 38.484375 
L 35.59375 37.3125 
Q 35.015625 41.3125 32.203125 43.546875 
Q 29.390625 45.796875 24.265625 45.796875 
Q 18.21875 45.796875 15.625 43.796875 
Q 13.03125 41.796875 13.03125 39.109375 
Q 13.03125 37.40625 14.109375 36.03125 
Q 15.1875 34.625 17.484375 33.6875 
Q 18.796875 33.203125 25.25 31.453125 
Q 34.578125 28.953125 38.25 27.359375 
Q 41.9375 25.78125 44.03125 22.75 
Q 46.140625 19.734375 46.140625 15.234375 
Q 46.140625 10.84375 43.578125 6.953125 
Q 41.015625 3.078125 36.171875 0.953125 
Q 31.34375 -1.171875 25.25 -1.171875 
Q 15.140625 -1.171875 9.84375 3.03125 
Q 4.546875 7.234375 3.078125 15.484375 
z
" id="ArialMT-115"/>
       <path d="M 25.78125 7.859375 
L 27.046875 0.09375 
Q 23.34375 -0.6875 20.40625 -0.6875 
Q 15.625 -0.6875 12.984375 0.828125 
Q 10.359375 2.34375 9.28125 4.8125 
Q 8.203125 7.28125 8.203125 15.1875 
L 8.203125 45.015625 
L 1.765625 45.015625 
L 1.765625 51.859375 
L 8.203125 51.859375 
L 8.203125 64.703125 
L 16.9375 69.96875 
L 16.9375 51.859375 
L 25.78125 51.859375 
L 25.78125 45.015625 
L 16.9375 45.015625 
L 16.9375 14.703125 
Q 16.9375 10.9375 17.40625 9.859375 
Q 17.875 8.796875 18.921875 8.15625 
Q 19.96875 7.515625 21.921875 7.515625 
Q 23.390625 7.515625 25.78125 7.859375 
z
" id="ArialMT-116"/>
       <path d="M 3.328125 25.921875 
Q 3.328125 40.328125 11.328125 47.265625 
Q 18.015625 53.03125 27.640625 53.03125 
Q 38.328125 53.03125 45.109375 46.015625 
Q 51.90625 39.015625 51.90625 26.65625 
Q 51.90625 16.65625 48.90625 10.90625 
Q 45.90625 5.171875 40.15625 2 
Q 34.421875 -1.171875 27.640625 -1.171875 
Q 16.75 -1.171875 10.03125 5.8125 
Q 3.328125 12.796875 3.328125 25.921875 
z
M 12.359375 25.921875 
Q 12.359375 15.96875 16.703125 11.015625 
Q 21.046875 6.0625 27.640625 6.0625 
Q 34.1875 6.0625 38.53125 11.03125 
Q 42.875 16.015625 42.875 26.21875 
Q 42.875 35.84375 38.5 40.796875 
Q 34.125 45.75 27.640625 45.75 
Q 21.046875 45.75 16.703125 40.8125 
Q 12.359375 35.890625 12.359375 25.921875 
z
" id="ArialMT-111"/>
       <path d="M 6.59375 0 
L 6.59375 51.859375 
L 14.5 51.859375 
L 14.5 44.484375 
Q 20.21875 53.03125 31 53.03125 
Q 35.6875 53.03125 39.625 51.34375 
Q 43.5625 49.65625 45.515625 46.921875 
Q 47.46875 44.1875 48.25 40.4375 
Q 48.734375 37.984375 48.734375 31.890625 
L 48.734375 0 
L 39.9375 0 
L 39.9375 31.546875 
Q 39.9375 36.921875 38.90625 39.578125 
Q 37.890625 42.234375 35.28125 43.8125 
Q 32.671875 45.40625 29.15625 45.40625 
Q 23.53125 45.40625 19.453125 41.84375 
Q 15.375 38.28125 15.375 28.328125 
L 15.375 0 
z
" id="ArialMT-110"/>
       <path d="M 12.359375 -21.046875 
L 6.0625 -21.046875 
Q 20.65625 2.390625 20.65625 25.875 
Q 20.65625 35.0625 18.5625 44.09375 
Q 16.890625 51.421875 13.921875 58.15625 
Q 12.015625 62.546875 6.0625 72.796875 
L 12.359375 72.796875 
Q 21.53125 60.546875 25.921875 48.1875 
Q 29.6875 37.546875 29.6875 25.921875 
Q 29.6875 12.75 24.625 0.4375 
Q 19.578125 -11.859375 12.359375 -21.046875 
z
" id="ArialMT-41"/>
      </defs>
      <use xlink:href="#ArialMT-82"/>
      <use x="72.216797" xlink:href="#ArialMT-83"/>
      <use x="138.916016" xlink:href="#ArialMT-83"/>
      <use x="205.615234" xlink:href="#ArialMT-73"/>
      <use x="233.398438" xlink:href="#ArialMT-32"/>
      <use x="261.181641" xlink:href="#ArialMT-86"/>
      <use x="320.505859" xlink:href="#ArialMT-97"/>
      <use x="376.121094" xlink:href="#ArialMT-108"/>
      <use x="398.337891" xlink:href="#ArialMT-117"/>
      <use x="453.953125" xlink:href="#ArialMT-101"/>
      <use x="509.568359" xlink:href="#ArialMT-32"/>
      <use x="537.351562" xlink:href="#ArialMT-40"/>
      <use x="570.652344" xlink:href="#ArialMT-72"/>
      <use x="642.869141" xlink:href="#ArialMT-105"/>
      <use x="665.085938" xlink:href="#ArialMT-103"/>
      <use x="720.701172" xlink:href="#ArialMT-104"/>
      <use x="776.316406" xlink:href="#ArialMT-101"/>
      <use x="831.931641" xlink:href="#ArialMT-114"/>
      <use x="865.232422" xlink:href="#ArialMT-32"/>
      <use x="893.015625" xlink:href="#ArialMT-86"/>
      <use x="952.339844" xlink:href="#ArialMT-97"/>
      <use x="1007.955078" xlink:href="#ArialMT-108"/>
      <use x="1030.171875" xlink:href="#ArialMT-117"/>
      <use x="1085.787109" xlink:href="#ArialMT-101"/>
      <use x="1141.402344" xlink:href="#ArialMT-115"/>
      <use x="1191.402344" xlink:href="#ArialMT-32"/>
      <use x="1219.185547" xlink:href="#ArialMT-83"/>
      <use x="1285.884766" xlink:href="#ArialMT-116"/>
      <use x="1313.667969" xlink:href="#ArialMT-114"/>
      <use x="1346.96875" xlink:href="#ArialMT-111"/>
      <use x="1402.583984" xlink:href="#ArialMT-110"/>
      <use x="1458.199219" xlink:href="#ArialMT-103"/>
      <use x="1513.814453" xlink:href="#ArialMT-101"/>
      <use x="1569.429688" xlink:href="#ArialMT-114"/>
      <use x="1602.730469" xlink:href="#ArialMT-41"/>
     </g>
    </g>
   </g>
   <g id="matplotlib.axis_2">
    <g id="ytick_1">
     <g id="line2d_10">
      <path clip-path="url(#pdc3af1d2fb)" d="M 53.222031 348.095625 
L 722.822031 348.095625 
" style="fill:none;stroke:#ffffff;stroke-linecap:round;"/>
     </g>
     <g id="text_11">
      <!-- 0.00 -->
      <g style="fill:#262626;" transform="translate(22.315 352.032422)scale(0.11 -0.11)">
       <use xlink:href="#ArialMT-48"/>
       <use x="55.615234" xlink:href="#ArialMT-46"/>
       <use x="83.398438" xlink:href="#ArialMT-48"/>
       <use x="139.013672" xlink:href="#ArialMT-48"/>
      </g>
     </g>
    </g>
    <g id="ytick_2">
     <g id="line2d_11">
      <path clip-path="url(#pdc3af1d2fb)" d="M 53.222031 306.693166 
L 722.822031 306.693166 
" style="fill:none;stroke:#ffffff;stroke-linecap:round;"/>
     </g>
     <g id="text_12">
      <!-- 0.02 -->
      <g style="fill:#262626;" transform="translate(22.315 310.629963)scale(0.11 -0.11)">
       <use xlink:href="#ArialMT-48"/>
       <use x="55.615234" xlink:href="#ArialMT-46"/>
       <use x="83.398438" xlink:href="#ArialMT-48"/>
       <use x="139.013672" xlink:href="#ArialMT-50"/>
      </g>
     </g>
    </g>
    <g id="ytick_3">
     <g id="line2d_12">
      <path clip-path="url(#pdc3af1d2fb)" d="M 53.222031 265.290708 
L 722.822031 265.290708 
" style="fill:none;stroke:#ffffff;stroke-linecap:round;"/>
     </g>
     <g id="text_13">
      <!-- 0.04 -->
      <g style="fill:#262626;" transform="translate(22.315 269.227505)scale(0.11 -0.11)">
       <defs>
        <path d="M 32.328125 0 
L 32.328125 17.140625 
L 1.265625 17.140625 
L 1.265625 25.203125 
L 33.9375 71.578125 
L 41.109375 71.578125 
L 41.109375 25.203125 
L 50.78125 25.203125 
L 50.78125 17.140625 
L 41.109375 17.140625 
L 41.109375 0 
z
M 32.328125 25.203125 
L 32.328125 57.46875 
L 9.90625 25.203125 
z
" id="ArialMT-52"/>
       </defs>
       <use xlink:href="#ArialMT-48"/>
       <use x="55.615234" xlink:href="#ArialMT-46"/>
       <use x="83.398438" xlink:href="#ArialMT-48"/>
       <use x="139.013672" xlink:href="#ArialMT-52"/>
      </g>
     </g>
    </g>
    <g id="ytick_4">
     <g id="line2d_13">
      <path clip-path="url(#pdc3af1d2fb)" d="M 53.222031 223.888249 
L 722.822031 223.888249 
" style="fill:none;stroke:#ffffff;stroke-linecap:round;"/>
     </g>
     <g id="text_14">
      <!-- 0.06 -->
      <g style="fill:#262626;" transform="translate(22.315 227.825046)scale(0.11 -0.11)">
       <defs>
        <path d="M 49.75 54.046875 
L 41.015625 53.375 
Q 39.84375 58.546875 37.703125 60.890625 
Q 34.125 64.65625 28.90625 64.65625 
Q 24.703125 64.65625 21.53125 62.3125 
Q 17.390625 59.28125 14.984375 53.46875 
Q 12.59375 47.65625 12.5 36.921875 
Q 15.671875 41.75 20.265625 44.09375 
Q 24.859375 46.4375 29.890625 46.4375 
Q 38.671875 46.4375 44.84375 39.96875 
Q 51.03125 33.5 51.03125 23.25 
Q 51.03125 16.5 48.125 10.71875 
Q 45.21875 4.9375 40.140625 1.859375 
Q 35.0625 -1.21875 28.609375 -1.21875 
Q 17.625 -1.21875 10.6875 6.859375 
Q 3.765625 14.9375 3.765625 33.5 
Q 3.765625 54.25 11.421875 63.671875 
Q 18.109375 71.875 29.4375 71.875 
Q 37.890625 71.875 43.28125 67.140625 
Q 48.6875 62.40625 49.75 54.046875 
z
M 13.875 23.1875 
Q 13.875 18.65625 15.796875 14.5 
Q 17.71875 10.359375 21.1875 8.171875 
Q 24.65625 6 28.46875 6 
Q 34.03125 6 38.03125 10.484375 
Q 42.046875 14.984375 42.046875 22.703125 
Q 42.046875 30.125 38.078125 34.390625 
Q 34.125 38.671875 28.125 38.671875 
Q 22.171875 38.671875 18.015625 34.390625 
Q 13.875 30.125 13.875 23.1875 
z
" id="ArialMT-54"/>
       </defs>
       <use xlink:href="#ArialMT-48"/>
       <use x="55.615234" xlink:href="#ArialMT-46"/>
       <use x="83.398438" xlink:href="#ArialMT-48"/>
       <use x="139.013672" xlink:href="#ArialMT-54"/>
      </g>
     </g>
    </g>
    <g id="ytick_5">
     <g id="line2d_14">
      <path clip-path="url(#pdc3af1d2fb)" d="M 53.222031 182.485791 
L 722.822031 182.485791 
" style="fill:none;stroke:#ffffff;stroke-linecap:round;"/>
     </g>
     <g id="text_15">
      <!-- 0.08 -->
      <g style="fill:#262626;" transform="translate(22.315 186.422588)scale(0.11 -0.11)">
       <use xlink:href="#ArialMT-48"/>
       <use x="55.615234" xlink:href="#ArialMT-46"/>
       <use x="83.398438" xlink:href="#ArialMT-48"/>
       <use x="139.013672" xlink:href="#ArialMT-56"/>
      </g>
     </g>
    </g>
    <g id="ytick_6">
     <g id="line2d_15">
      <path clip-path="url(#pdc3af1d2fb)" d="M 53.222031 141.083332 
L 722.822031 141.083332 
" style="fill:none;stroke:#ffffff;stroke-linecap:round;"/>
     </g>
     <g id="text_16">
      <!-- 0.10 -->
      <g style="fill:#262626;" transform="translate(22.315 145.020129)scale(0.11 -0.11)">
       <defs>
        <path d="M 37.25 0 
L 28.46875 0 
L 28.46875 56 
Q 25.296875 52.984375 20.140625 49.953125 
Q 14.984375 46.921875 10.890625 45.40625 
L 10.890625 53.90625 
Q 18.265625 57.375 23.78125 62.296875 
Q 29.296875 67.234375 31.59375 71.875 
L 37.25 71.875 
z
" id="ArialMT-49"/>
       </defs>
       <use xlink:href="#ArialMT-48"/>
       <use x="55.615234" xlink:href="#ArialMT-46"/>
       <use x="83.398438" xlink:href="#ArialMT-49"/>
       <use x="139.013672" xlink:href="#ArialMT-48"/>
      </g>
     </g>
    </g>
    <g id="ytick_7">
     <g id="line2d_16">
      <path clip-path="url(#pdc3af1d2fb)" d="M 53.222031 99.680874 
L 722.822031 99.680874 
" style="fill:none;stroke:#ffffff;stroke-linecap:round;"/>
     </g>
     <g id="text_17">
      <!-- 0.12 -->
      <g style="fill:#262626;" transform="translate(22.315 103.617671)scale(0.11 -0.11)">
       <use xlink:href="#ArialMT-48"/>
       <use x="55.615234" xlink:href="#ArialMT-46"/>
       <use x="83.398438" xlink:href="#ArialMT-49"/>
       <use x="139.013672" xlink:href="#ArialMT-50"/>
      </g>
     </g>
    </g>
    <g id="ytick_8">
     <g id="line2d_17">
      <path clip-path="url(#pdc3af1d2fb)" d="M 53.222031 58.278415 
L 722.822031 58.278415 
" style="fill:none;stroke:#ffffff;stroke-linecap:round;"/>
     </g>
     <g id="text_18">
      <!-- 0.14 -->
      <g style="fill:#262626;" transform="translate(22.315 62.215212)scale(0.11 -0.11)">
       <use xlink:href="#ArialMT-48"/>
       <use x="55.615234" xlink:href="#ArialMT-46"/>
       <use x="83.398438" xlink:href="#ArialMT-49"/>
       <use x="139.013672" xlink:href="#ArialMT-52"/>
      </g>
     </g>
    </g>
    <g id="text_19">
     <!-- Density Estimation -->
     <g style="fill:#262626;" transform="translate(15.789375 234.698438)rotate(-90)scale(0.12 -0.12)">
      <defs>
       <path d="M 7.71875 0 
L 7.71875 71.578125 
L 32.375 71.578125 
Q 40.71875 71.578125 45.125 70.5625 
Q 51.265625 69.140625 55.609375 65.4375 
Q 61.28125 60.640625 64.078125 53.1875 
Q 66.890625 45.75 66.890625 36.1875 
Q 66.890625 28.03125 64.984375 21.734375 
Q 63.09375 15.4375 60.109375 11.296875 
Q 57.125 7.171875 53.578125 4.796875 
Q 50.046875 2.4375 45.046875 1.21875 
Q 40.046875 0 33.546875 0 
z
M 17.1875 8.453125 
L 32.46875 8.453125 
Q 39.546875 8.453125 43.578125 9.765625 
Q 47.609375 11.078125 50 13.484375 
Q 53.375 16.84375 55.25 22.53125 
Q 57.125 28.21875 57.125 36.328125 
Q 57.125 47.5625 53.4375 53.59375 
Q 49.75 59.625 44.484375 61.671875 
Q 40.671875 63.140625 32.234375 63.140625 
L 17.1875 63.140625 
z
" id="ArialMT-68"/>
       <path d="M 6.203125 -19.96875 
L 5.21875 -11.71875 
Q 8.109375 -12.5 10.25 -12.5 
Q 13.1875 -12.5 14.9375 -11.515625 
Q 16.703125 -10.546875 17.828125 -8.796875 
Q 18.65625 -7.46875 20.515625 -2.25 
Q 20.75 -1.515625 21.296875 -0.09375 
L 1.609375 51.859375 
L 11.078125 51.859375 
L 21.875 21.828125 
Q 23.96875 16.109375 25.640625 9.8125 
Q 27.15625 15.875 29.25 21.625 
L 40.328125 51.859375 
L 49.125 51.859375 
L 29.390625 -0.875 
Q 26.21875 -9.421875 24.46875 -12.640625 
Q 22.125 -17 19.09375 -19.015625 
Q 16.0625 -21.046875 11.859375 -21.046875 
Q 9.328125 -21.046875 6.203125 -19.96875 
z
" id="ArialMT-121"/>
       <path d="M 7.90625 0 
L 7.90625 71.578125 
L 59.671875 71.578125 
L 59.671875 63.140625 
L 17.390625 63.140625 
L 17.390625 41.21875 
L 56.984375 41.21875 
L 56.984375 32.8125 
L 17.390625 32.8125 
L 17.390625 8.453125 
L 61.328125 8.453125 
L 61.328125 0 
z
" id="ArialMT-69"/>
       <path d="M 6.59375 0 
L 6.59375 51.859375 
L 14.453125 51.859375 
L 14.453125 44.578125 
Q 16.890625 48.390625 20.9375 50.703125 
Q 25 53.03125 30.171875 53.03125 
Q 35.9375 53.03125 39.625 50.640625 
Q 43.3125 48.25 44.828125 43.953125 
Q 50.984375 53.03125 60.84375 53.03125 
Q 68.5625 53.03125 72.703125 48.75 
Q 76.859375 44.484375 76.859375 35.59375 
L 76.859375 0 
L 68.109375 0 
L 68.109375 32.671875 
Q 68.109375 37.9375 67.25 40.25 
Q 66.40625 42.578125 64.15625 43.984375 
Q 61.921875 45.40625 58.890625 45.40625 
Q 53.421875 45.40625 49.796875 41.765625 
Q 46.1875 38.140625 46.1875 30.125 
L 46.1875 0 
L 37.40625 0 
L 37.40625 33.6875 
Q 37.40625 39.546875 35.25 42.46875 
Q 33.109375 45.40625 28.21875 45.40625 
Q 24.515625 45.40625 21.359375 43.453125 
Q 18.21875 41.5 16.796875 37.734375 
Q 15.375 33.984375 15.375 26.90625 
L 15.375 0 
z
" id="ArialMT-109"/>
      </defs>
      <use xlink:href="#ArialMT-68"/>
      <use x="72.216797" xlink:href="#ArialMT-101"/>
      <use x="127.832031" xlink:href="#ArialMT-110"/>
      <use x="183.447266" xlink:href="#ArialMT-115"/>
      <use x="233.447266" xlink:href="#ArialMT-105"/>
      <use x="255.664062" xlink:href="#ArialMT-116"/>
      <use x="283.447266" xlink:href="#ArialMT-121"/>
      <use x="333.447266" xlink:href="#ArialMT-32"/>
      <use x="361.230469" xlink:href="#ArialMT-69"/>
      <use x="427.929688" xlink:href="#ArialMT-115"/>
      <use x="477.929688" xlink:href="#ArialMT-116"/>
      <use x="505.712891" xlink:href="#ArialMT-105"/>
      <use x="527.929688" xlink:href="#ArialMT-109"/>
      <use x="611.230469" xlink:href="#ArialMT-97"/>
      <use x="666.845703" xlink:href="#ArialMT-116"/>
      <use x="694.628906" xlink:href="#ArialMT-105"/>
      <use x="716.845703" xlink:href="#ArialMT-111"/>
      <use x="772.460938" xlink:href="#ArialMT-110"/>
     </g>
    </g>
   </g>
   <g id="PolyCollection_1">
    <defs>
     <path d="M 130.337635 -42.032885 
L 130.337635 -42.021094 
L 132.267678 -42.021094 
L 134.197722 -42.021094 
L 136.127765 -42.021094 
L 138.057808 -42.021094 
L 139.987852 -42.021094 
L 141.917895 -42.021094 
L 143.847938 -42.021094 
L 145.777982 -42.021094 
L 147.708025 -42.021094 
L 149.638068 -42.021094 
L 151.568112 -42.021094 
L 153.498155 -42.021094 
L 155.428198 -42.021094 
L 157.358242 -42.021094 
L 159.288285 -42.021094 
L 161.218328 -42.021094 
L 163.148372 -42.021094 
L 165.078415 -42.021094 
L 167.008458 -42.021094 
L 168.938502 -42.021094 
L 170.868545 -42.021094 
L 172.798588 -42.021094 
L 174.728632 -42.021094 
L 176.658675 -42.021094 
L 178.588718 -42.021094 
L 180.518762 -42.021094 
L 182.448805 -42.021094 
L 184.378848 -42.021094 
L 186.308892 -42.021094 
L 188.238935 -42.021094 
L 190.168978 -42.021094 
L 192.099022 -42.021094 
L 194.029065 -42.021094 
L 195.959108 -42.021094 
L 197.889152 -42.021094 
L 199.819195 -42.021094 
L 201.749238 -42.021094 
L 203.679282 -42.021094 
L 205.609325 -42.021094 
L 207.539368 -42.021094 
L 209.469412 -42.021094 
L 211.399455 -42.021094 
L 213.329498 -42.021094 
L 215.259542 -42.021094 
L 217.189585 -42.021094 
L 219.119628 -42.021094 
L 221.049672 -42.021094 
L 222.979715 -42.021094 
L 224.909758 -42.021094 
L 226.839802 -42.021094 
L 228.769845 -42.021094 
L 230.699888 -42.021094 
L 232.629932 -42.021094 
L 234.559975 -42.021094 
L 236.490018 -42.021094 
L 238.420062 -42.021094 
L 240.350105 -42.021094 
L 242.280148 -42.021094 
L 244.210192 -42.021094 
L 246.140235 -42.021094 
L 248.070278 -42.021094 
L 250.000322 -42.021094 
L 251.930365 -42.021094 
L 253.860408 -42.021094 
L 255.790452 -42.021094 
L 257.720495 -42.021094 
L 259.650539 -42.021094 
L 261.580582 -42.021094 
L 263.510625 -42.021094 
L 265.440669 -42.021094 
L 267.370712 -42.021094 
L 269.300755 -42.021094 
L 271.230799 -42.021094 
L 273.160842 -42.021094 
L 275.090885 -42.021094 
L 277.020929 -42.021094 
L 278.950972 -42.021094 
L 280.881015 -42.021094 
L 282.811059 -42.021094 
L 284.741102 -42.021094 
L 286.671145 -42.021094 
L 288.601189 -42.021094 
L 290.531232 -42.021094 
L 292.461275 -42.021094 
L 294.391319 -42.021094 
L 296.321362 -42.021094 
L 298.251405 -42.021094 
L 300.181449 -42.021094 
L 302.111492 -42.021094 
L 304.041535 -42.021094 
L 305.971579 -42.021094 
L 307.901622 -42.021094 
L 309.831665 -42.021094 
L 311.761709 -42.021094 
L 313.691752 -42.021094 
L 315.621795 -42.021094 
L 317.551839 -42.021094 
L 319.481882 -42.021094 
L 321.411925 -42.021094 
L 323.341969 -42.021094 
L 325.272012 -42.021094 
L 327.202055 -42.021094 
L 329.132099 -42.021094 
L 331.062142 -42.021094 
L 332.992185 -42.021094 
L 334.922229 -42.021094 
L 336.852272 -42.021094 
L 338.782315 -42.021094 
L 340.712359 -42.021094 
L 342.642402 -42.021094 
L 344.572445 -42.021094 
L 346.502489 -42.021094 
L 348.432532 -42.021094 
L 350.362575 -42.021094 
L 352.292619 -42.021094 
L 354.222662 -42.021094 
L 356.152705 -42.021094 
L 358.082749 -42.021094 
L 360.012792 -42.021094 
L 361.942835 -42.021094 
L 363.872879 -42.021094 
L 365.802922 -42.021094 
L 367.732965 -42.021094 
L 369.663009 -42.021094 
L 371.593052 -42.021094 
L 373.523095 -42.021094 
L 375.453139 -42.021094 
L 377.383182 -42.021094 
L 379.313225 -42.021094 
L 381.243269 -42.021094 
L 383.173312 -42.021094 
L 385.103356 -42.021094 
L 387.033399 -42.021094 
L 388.963442 -42.021094 
L 390.893486 -42.021094 
L 392.823529 -42.021094 
L 394.753572 -42.021094 
L 396.683616 -42.021094 
L 398.613659 -42.021094 
L 400.543702 -42.021094 
L 402.473746 -42.021094 
L 404.403789 -42.021094 
L 406.333832 -42.021094 
L 408.263876 -42.021094 
L 410.193919 -42.021094 
L 412.123962 -42.021094 
L 414.054006 -42.021094 
L 415.984049 -42.021094 
L 417.914092 -42.021094 
L 419.844136 -42.021094 
L 421.774179 -42.021094 
L 423.704222 -42.021094 
L 425.634266 -42.021094 
L 427.564309 -42.021094 
L 429.494352 -42.021094 
L 431.424396 -42.021094 
L 433.354439 -42.021094 
L 435.284482 -42.021094 
L 437.214526 -42.021094 
L 439.144569 -42.021094 
L 441.074612 -42.021094 
L 443.004656 -42.021094 
L 444.934699 -42.021094 
L 446.864742 -42.021094 
L 448.794786 -42.021094 
L 450.724829 -42.021094 
L 452.654872 -42.021094 
L 454.584916 -42.021094 
L 456.514959 -42.021094 
L 458.445002 -42.021094 
L 460.375046 -42.021094 
L 462.305089 -42.021094 
L 464.235132 -42.021094 
L 466.165176 -42.021094 
L 468.095219 -42.021094 
L 470.025262 -42.021094 
L 471.955306 -42.021094 
L 473.885349 -42.021094 
L 475.815392 -42.021094 
L 477.745436 -42.021094 
L 479.675479 -42.021094 
L 481.605522 -42.021094 
L 483.535566 -42.021094 
L 485.465609 -42.021094 
L 487.395652 -42.021094 
L 489.325696 -42.021094 
L 491.255739 -42.021094 
L 493.185782 -42.021094 
L 495.115826 -42.021094 
L 497.045869 -42.021094 
L 498.975912 -42.021094 
L 500.905956 -42.021094 
L 502.835999 -42.021094 
L 504.766042 -42.021094 
L 506.696086 -42.021094 
L 508.626129 -42.021094 
L 510.556172 -42.021094 
L 512.486216 -42.021094 
L 514.416259 -42.021094 
L 514.416259 -42.090633 
L 514.416259 -42.090633 
L 512.486216 -42.114851 
L 510.556172 -42.146246 
L 508.626129 -42.186498 
L 506.696086 -42.237538 
L 504.766042 -42.301545 
L 502.835999 -42.380927 
L 500.905956 -42.478292 
L 498.975912 -42.596398 
L 497.045869 -42.738087 
L 495.115826 -42.906204 
L 493.185782 -43.103501 
L 491.255739 -43.332536 
L 489.325696 -43.595563 
L 487.395652 -43.894429 
L 485.465609 -44.230489 
L 483.535566 -44.604535 
L 481.605522 -45.016757 
L 479.675479 -45.466746 
L 477.745436 -45.953524 
L 475.815392 -46.475632 
L 473.885349 -47.031233 
L 471.955306 -47.618269 
L 470.025262 -48.234611 
L 468.095219 -48.878234 
L 466.165176 -49.547363 
L 464.235132 -50.240602 
L 462.305089 -50.957017 
L 460.375046 -51.696162 
L 458.445002 -52.458062 
L 456.514959 -53.243131 
L 454.584916 -54.052047 
L 452.654872 -54.885605 
L 450.724829 -55.74455 
L 448.794786 -56.629429 
L 446.864742 -57.540475 
L 444.934699 -58.477535 
L 443.004656 -59.440062 
L 441.074612 -60.427173 
L 439.144569 -61.437752 
L 437.214526 -62.470596 
L 435.284482 -63.52457 
L 433.354439 -64.598753 
L 431.424396 -65.692536 
L 429.494352 -66.805653 
L 427.564309 -67.938132 
L 425.634266 -69.090165 
L 423.704222 -70.261898 
L 421.774179 -71.453174 
L 419.844136 -72.663256 
L 417.914092 -73.890578 
L 415.984049 -75.132557 
L 414.054006 -76.385507 
L 412.123962 -77.644683 
L 410.193919 -78.904457 
L 408.263876 -80.158621 
L 406.333832 -81.400795 
L 404.403789 -82.624877 
L 402.473746 -83.825517 
L 400.543702 -84.998515 
L 398.613659 -86.141124 
L 396.683616 -87.252204 
L 394.753572 -88.332203 
L 392.823529 -89.382972 
L 390.893486 -90.407434 
L 388.963442 -91.409155 
L 387.033399 -92.391866 
L 385.103356 -93.359016 
L 383.173312 -94.313395 
L 381.243269 -95.256904 
L 379.313225 -96.190472 
L 377.383182 -97.114146 
L 375.453139 -98.027325 
L 373.523095 -98.92909 
L 371.593052 -99.818582 
L 369.663009 -100.695356 
L 367.732965 -101.559642 
L 365.802922 -102.41248 
L 363.872879 -103.255689 
L 361.942835 -104.091677 
L 360.012792 -104.923113 
L 358.082749 -105.752513 
L 356.152705 -106.581804 
L 354.222662 -107.411941 
L 352.292619 -108.242632 
L 350.362575 -109.072225 
L 348.432532 -109.897779 
L 346.502489 -110.715307 
L 344.572445 -111.520166 
L 342.642402 -112.307516 
L 340.712359 -113.072789 
L 338.782315 -113.812088 
L 336.852272 -114.522434 
L 334.922229 -115.20183 
L 332.992185 -115.849115 
L 331.062142 -116.463618 
L 329.132099 -117.044677 
L 327.202055 -117.591082 
L 325.272012 -118.100533 
L 323.341969 -118.56921 
L 321.411925 -118.991539 
L 319.481882 -119.360186 
L 317.551839 -119.666329 
L 315.621795 -119.90017 
L 313.691752 -120.051635 
L 311.761709 -120.111181 
L 309.831665 -120.070612 
L 307.901622 -119.923784 
L 305.971579 -119.667109 
L 304.041535 -119.299804 
L 302.111492 -118.823824 
L 300.181449 -118.24351 
L 298.251405 -117.564995 
L 296.321362 -116.79543 
L 294.391319 -115.942167 
L 292.461275 -115.011975 
L 290.531232 -114.010411 
L 288.601189 -112.941427 
L 286.671145 -111.807243 
L 284.741102 -110.608511 
L 282.811059 -109.344734 
L 280.881015 -108.014871 
L 278.950972 -106.618038 
L 277.020929 -105.154217 
L 275.090885 -103.62486 
L 273.160842 -102.033314 
L 271.230799 -100.385024 
L 269.300755 -98.687467 
L 267.370712 -96.949861 
L 265.440669 -95.182667 
L 263.510625 -93.396973 
L 261.580582 -91.603822 
L 259.650539 -89.813582 
L 257.720495 -88.03542 
L 255.790452 -86.276936 
L 253.860408 -84.543987 
L 251.930365 -82.840697 
L 250.000322 -81.169645 
L 248.070278 -79.532165 
L 246.140235 -77.928722 
L 244.210192 -76.359302 
L 242.280148 -74.823751 
L 240.350105 -73.322041 
L 238.420062 -71.854422 
L 236.490018 -70.42146 
L 234.559975 -69.023978 
L 232.629932 -67.662915 
L 230.699888 -66.339149 
L 228.769845 -65.053313 
L 226.839802 -63.805647 
L 224.909758 -62.595908 
L 222.979715 -61.423356 
L 221.049672 -60.286821 
L 219.119628 -59.184837 
L 217.189585 -58.115826 
L 215.259542 -57.078313 
L 213.329498 -56.071124 
L 211.399455 -55.093566 
L 209.469412 -54.145545 
L 207.539368 -53.227618 
L 205.609325 -52.340972 
L 203.679282 -51.487337 
L 201.749238 -50.668839 
L 199.819195 -49.88781 
L 197.889152 -49.146591 
L 195.959108 -48.447322 
L 194.029065 -47.791766 
L 192.099022 -47.181167 
L 190.168978 -46.61615 
L 188.238935 -46.096677 
L 186.308892 -45.622053 
L 184.378848 -45.190973 
L 182.448805 -44.801606 
L 180.518762 -44.451698 
L 178.588718 -44.138693 
L 176.658675 -43.859849 
L 174.728632 -43.612347 
L 172.798588 -43.393388 
L 170.868545 -43.200263 
L 168.938502 -43.030412 
L 167.008458 -42.881455 
L 165.078415 -42.75121 
L 163.148372 -42.637695 
L 161.218328 -42.539118 
L 159.288285 -42.453861 
L 157.358242 -42.380464 
L 155.428198 -42.317606 
L 153.498155 -42.264085 
L 151.568112 -42.218803 
L 149.638068 -42.180758 
L 147.708025 -42.14903 
L 145.777982 -42.12278 
L 143.847938 -42.101243 
L 141.917895 -42.083727 
L 139.987852 -42.069611 
L 138.057808 -42.05834 
L 136.127765 -42.049427 
L 134.197722 -42.042448 
L 132.267678 -42.037037 
L 130.337635 -42.032885 
z
" id="m8c9a9a36fe" style="stroke:#8172b3;"/>
    </defs>
    <g clip-path="url(#pdc3af1d2fb)">
     <use style="fill:#8172b3;fill-opacity:0.25;stroke:#8172b3;" x="0" xlink:href="#m8c9a9a36fe" y="390.116719"/>
    </g>
   </g>
   <g id="PolyCollection_2">
    <defs>
     <path d="M 122.719022 -42.058772 
L 122.719022 -42.021094 
L 124.124111 -42.021094 
L 125.529201 -42.021094 
L 126.93429 -42.021094 
L 128.339379 -42.021094 
L 129.744469 -42.021094 
L 131.149558 -42.021094 
L 132.554647 -42.021094 
L 133.959737 -42.021094 
L 135.364826 -42.021094 
L 136.769915 -42.021094 
L 138.175005 -42.021094 
L 139.580094 -42.021094 
L 140.985183 -42.021094 
L 142.390273 -42.021094 
L 143.795362 -42.021094 
L 145.200451 -42.021094 
L 146.605541 -42.021094 
L 148.01063 -42.021094 
L 149.415719 -42.021094 
L 150.820809 -42.021094 
L 152.225898 -42.021094 
L 153.630987 -42.021094 
L 155.036077 -42.021094 
L 156.441166 -42.021094 
L 157.846255 -42.021094 
L 159.251345 -42.021094 
L 160.656434 -42.021094 
L 162.061523 -42.021094 
L 163.466613 -42.021094 
L 164.871702 -42.021094 
L 166.276792 -42.021094 
L 167.681881 -42.021094 
L 169.08697 -42.021094 
L 170.49206 -42.021094 
L 171.897149 -42.021094 
L 173.302238 -42.021094 
L 174.707328 -42.021094 
L 176.112417 -42.021094 
L 177.517506 -42.021094 
L 178.922596 -42.021094 
L 180.327685 -42.021094 
L 181.732774 -42.021094 
L 183.137864 -42.021094 
L 184.542953 -42.021094 
L 185.948042 -42.021094 
L 187.353132 -42.021094 
L 188.758221 -42.021094 
L 190.16331 -42.021094 
L 191.5684 -42.021094 
L 192.973489 -42.021094 
L 194.378578 -42.021094 
L 195.783668 -42.021094 
L 197.188757 -42.021094 
L 198.593846 -42.021094 
L 199.998936 -42.021094 
L 201.404025 -42.021094 
L 202.809114 -42.021094 
L 204.214204 -42.021094 
L 205.619293 -42.021094 
L 207.024382 -42.021094 
L 208.429472 -42.021094 
L 209.834561 -42.021094 
L 211.23965 -42.021094 
L 212.64474 -42.021094 
L 214.049829 -42.021094 
L 215.454918 -42.021094 
L 216.860008 -42.021094 
L 218.265097 -42.021094 
L 219.670186 -42.021094 
L 221.075276 -42.021094 
L 222.480365 -42.021094 
L 223.885454 -42.021094 
L 225.290544 -42.021094 
L 226.695633 -42.021094 
L 228.100722 -42.021094 
L 229.505812 -42.021094 
L 230.910901 -42.021094 
L 232.31599 -42.021094 
L 233.72108 -42.021094 
L 235.126169 -42.021094 
L 236.531259 -42.021094 
L 237.936348 -42.021094 
L 239.341437 -42.021094 
L 240.746527 -42.021094 
L 242.151616 -42.021094 
L 243.556705 -42.021094 
L 244.961795 -42.021094 
L 246.366884 -42.021094 
L 247.771973 -42.021094 
L 249.177063 -42.021094 
L 250.582152 -42.021094 
L 251.987241 -42.021094 
L 253.392331 -42.021094 
L 254.79742 -42.021094 
L 256.202509 -42.021094 
L 257.607599 -42.021094 
L 259.012688 -42.021094 
L 260.417777 -42.021094 
L 261.822867 -42.021094 
L 263.227956 -42.021094 
L 264.633045 -42.021094 
L 266.038135 -42.021094 
L 267.443224 -42.021094 
L 268.848313 -42.021094 
L 270.253403 -42.021094 
L 271.658492 -42.021094 
L 273.063581 -42.021094 
L 274.468671 -42.021094 
L 275.87376 -42.021094 
L 277.278849 -42.021094 
L 278.683939 -42.021094 
L 280.089028 -42.021094 
L 281.494117 -42.021094 
L 282.899207 -42.021094 
L 284.304296 -42.021094 
L 285.709385 -42.021094 
L 287.114475 -42.021094 
L 288.519564 -42.021094 
L 289.924653 -42.021094 
L 291.329743 -42.021094 
L 292.734832 -42.021094 
L 294.139921 -42.021094 
L 295.545011 -42.021094 
L 296.9501 -42.021094 
L 298.355189 -42.021094 
L 299.760279 -42.021094 
L 301.165368 -42.021094 
L 302.570458 -42.021094 
L 303.975547 -42.021094 
L 305.380636 -42.021094 
L 306.785726 -42.021094 
L 308.190815 -42.021094 
L 309.595904 -42.021094 
L 311.000994 -42.021094 
L 312.406083 -42.021094 
L 313.811172 -42.021094 
L 315.216262 -42.021094 
L 316.621351 -42.021094 
L 318.02644 -42.021094 
L 319.43153 -42.021094 
L 320.836619 -42.021094 
L 322.241708 -42.021094 
L 323.646798 -42.021094 
L 325.051887 -42.021094 
L 326.456976 -42.021094 
L 327.862066 -42.021094 
L 329.267155 -42.021094 
L 330.672244 -42.021094 
L 332.077334 -42.021094 
L 333.482423 -42.021094 
L 334.887512 -42.021094 
L 336.292602 -42.021094 
L 337.697691 -42.021094 
L 339.10278 -42.021094 
L 340.50787 -42.021094 
L 341.912959 -42.021094 
L 343.318048 -42.021094 
L 344.723138 -42.021094 
L 346.128227 -42.021094 
L 347.533316 -42.021094 
L 348.938406 -42.021094 
L 350.343495 -42.021094 
L 351.748584 -42.021094 
L 353.153674 -42.021094 
L 354.558763 -42.021094 
L 355.963852 -42.021094 
L 357.368942 -42.021094 
L 358.774031 -42.021094 
L 360.17912 -42.021094 
L 361.58421 -42.021094 
L 362.989299 -42.021094 
L 364.394388 -42.021094 
L 365.799478 -42.021094 
L 367.204567 -42.021094 
L 368.609656 -42.021094 
L 370.014746 -42.021094 
L 371.419835 -42.021094 
L 372.824925 -42.021094 
L 374.230014 -42.021094 
L 375.635103 -42.021094 
L 377.040193 -42.021094 
L 378.445282 -42.021094 
L 379.850371 -42.021094 
L 381.255461 -42.021094 
L 382.66055 -42.021094 
L 384.065639 -42.021094 
L 385.470729 -42.021094 
L 386.875818 -42.021094 
L 388.280907 -42.021094 
L 389.685997 -42.021094 
L 391.091086 -42.021094 
L 392.496175 -42.021094 
L 393.901265 -42.021094 
L 395.306354 -42.021094 
L 396.711443 -42.021094 
L 398.116533 -42.021094 
L 399.521622 -42.021094 
L 400.926711 -42.021094 
L 402.331801 -42.021094 
L 402.331801 -42.039932 
L 402.331801 -42.039932 
L 400.926711 -42.047918 
L 399.521622 -42.058743 
L 398.116533 -42.07318 
L 396.711443 -42.092119 
L 395.306354 -42.11656 
L 393.901265 -42.147575 
L 392.496175 -42.186274 
L 391.091086 -42.233736 
L 389.685997 -42.29094 
L 388.280907 -42.358673 
L 386.875818 -42.43744 
L 385.470729 -42.527366 
L 384.065639 -42.628124 
L 382.66055 -42.738881 
L 381.255461 -42.85828 
L 379.850371 -42.984483 
L 378.445282 -43.115263 
L 377.040193 -43.248169 
L 375.635103 -43.380747 
L 374.230014 -43.510814 
L 372.824925 -43.636778 
L 371.419835 -43.757957 
L 370.014746 -43.874889 
L 368.609656 -43.989584 
L 367.204567 -44.105685 
L 365.799478 -44.228512 
L 364.394388 -44.364947 
L 362.989299 -44.523158 
L 361.58421 -44.712147 
L 360.17912 -44.941136 
L 358.774031 -45.218829 
L 357.368942 -45.55259 
L 355.963852 -45.947603 
L 354.558763 -46.406095 
L 353.153674 -46.926704 
L 351.748584 -47.504082 
L 350.343495 -48.128795 
L 348.938406 -48.787597 
L 347.533316 -49.464091 
L 346.128227 -50.139776 
L 344.723138 -50.79544 
L 343.318048 -51.412807 
L 341.912959 -51.976312 
L 340.50787 -52.474864 
L 339.10278 -52.903404 
L 337.697691 -53.264116 
L 336.292602 -53.567108 
L 334.887512 -53.830455 
L 333.482423 -54.079523 
L 332.077334 -54.345557 
L 330.672244 -54.663597 
L 329.267155 -55.069821 
L 327.862066 -55.598526 
L 326.456976 -56.278962 
L 325.051887 -57.132324 
L 323.646798 -58.169165 
L 322.241708 -59.387549 
L 320.836619 -60.772165 
L 319.43153 -62.294609 
L 318.02644 -63.914924 
L 316.621351 -65.584396 
L 315.216262 -67.249478 
L 313.811172 -68.856588 
L 312.406083 -70.357434 
L 311.000994 -71.714413 
L 309.595904 -72.905579 
L 308.190815 -73.928685 
L 306.785726 -74.803792 
L 305.380636 -75.574085 
L 303.975547 -76.304612 
L 302.570458 -77.078858 
L 301.165368 -77.993243 
L 299.760279 -79.149845 
L 298.355189 -80.647812 
L 296.9501 -82.574142 
L 295.545011 -84.994569 
L 294.139921 -87.945416 
L 292.734832 -91.427249 
L 291.329743 -95.40108 
L 289.924653 -99.787724 
L 288.519564 -104.470678 
L 287.114475 -109.302601 
L 285.709385 -114.115135 
L 284.304296 -118.731486 
L 282.899207 -122.980847 
L 281.494117 -126.713505 
L 280.089028 -129.8153 
L 278.683939 -132.220052 
L 277.278849 -133.918675 
L 275.87376 -134.963888 
L 274.468671 -135.46979 
L 273.063581 -135.605977 
L 271.658492 -135.586373 
L 270.253403 -135.653427 
L 268.848313 -136.058779 
L 267.443224 -137.041902 
L 266.038135 -138.808437 
L 264.633045 -141.510109 
L 263.227956 -145.228038 
L 261.822867 -149.961079 
L 260.417777 -155.62045 
L 259.012688 -162.031449 
L 257.607599 -168.942457 
L 256.202509 -176.040795 
L 254.79742 -182.974374 
L 253.392331 -189.3775 
L 251.987241 -194.898756 
L 250.582152 -199.228598 
L 249.177063 -202.124261 
L 247.771973 -203.429729 
L 246.366884 -203.088926 
L 244.961795 -201.150882 
L 243.556705 -197.766335 
L 242.151616 -193.176033 
L 240.746527 -187.691731 
L 239.341437 -181.671558 
L 237.936348 -175.491915 
L 236.531259 -169.518328 
L 235.126169 -164.077743 
L 233.72108 -159.434552 
L 232.31599 -155.772268 
L 230.910901 -153.182207 
L 229.505812 -151.659924 
L 228.100722 -151.10945 
L 226.695633 -151.354733 
L 225.290544 -152.157105 
L 223.885454 -153.237108 
L 222.480365 -154.298754 
L 221.075276 -155.054093 
L 219.670186 -155.246062 
L 218.265097 -154.667777 
L 216.860008 -153.176821 
L 215.454918 -150.703571 
L 214.049829 -147.253159 
L 212.64474 -142.901252 
L 211.23965 -137.784358 
L 209.834561 -132.085826 
L 208.429472 -126.018998 
L 207.024382 -119.809144 
L 205.619293 -113.675786 
L 204.214204 -107.816873 
L 202.809114 -102.39598 
L 201.404025 -97.533326 
L 199.998936 -93.301038 
L 198.593846 -89.722633 
L 197.188757 -86.776378 
L 195.783668 -84.401854 
L 194.378578 -82.508887 
L 192.973489 -80.987865 
L 191.5684 -79.720462 
L 190.16331 -78.589862 
L 188.758221 -77.489701 
L 187.353132 -76.331145 
L 185.948042 -75.04773 
L 184.542953 -73.597823 
L 183.137864 -71.964772 
L 181.732774 -70.155004 
L 180.327685 -68.194476 
L 178.922596 -66.123981 
L 177.517506 -63.993839 
L 176.112417 -61.858512 
L 174.707328 -59.771598 
L 173.302238 -57.781593 
L 171.897149 -55.928652 
L 170.49206 -54.242505 
L 169.08697 -52.741511 
L 167.681881 -51.432783 
L 166.276792 -50.313185 
L 164.871702 -49.370997 
L 163.466613 -48.587994 
L 162.061523 -47.941699 
L 160.656434 -47.407596 
L 159.251345 -46.961128 
L 157.846255 -46.579353 
L 156.441166 -46.24218 
L 155.036077 -45.933169 
L 153.630987 -45.639887 
L 152.225898 -45.353901 
L 150.820809 -45.070449 
L 149.415719 -44.787896 
L 148.01063 -44.507049 
L 146.605541 -44.230423 
L 145.200451 -43.961526 
L 143.795362 -43.704221 
L 142.390273 -43.462201 
L 140.985183 -43.238602 
L 139.580094 -43.035755 
L 138.175005 -42.855067 
L 136.769915 -42.697017 
L 135.364826 -42.561235 
L 133.959737 -42.446638 
L 132.554647 -42.351603 
L 131.149558 -42.274141 
L 129.744469 -42.212072 
L 128.339379 -42.16317 
L 126.93429 -42.125279 
L 125.529201 -42.0964 
L 124.124111 -42.074747 
L 122.719022 -42.058772 
z
" id="m2d695c3c64" style="stroke:#c44e52;"/>
    </defs>
    <g clip-path="url(#pdc3af1d2fb)">
     <use style="fill:#c44e52;fill-opacity:0.25;stroke:#c44e52;" x="0" xlink:href="#m2d695c3c64" y="390.116719"/>
    </g>
   </g>
   <g id="PolyCollection_3">
    <defs>
     <path d="M 83.658395 -42.036054 
L 83.658395 -42.021094 
L 85.305673 -42.021094 
L 86.95295 -42.021094 
L 88.600228 -42.021094 
L 90.247506 -42.021094 
L 91.894783 -42.021094 
L 93.542061 -42.021094 
L 95.189339 -42.021094 
L 96.836617 -42.021094 
L 98.483894 -42.021094 
L 100.131172 -42.021094 
L 101.77845 -42.021094 
L 103.425727 -42.021094 
L 105.073005 -42.021094 
L 106.720283 -42.021094 
L 108.367561 -42.021094 
L 110.014838 -42.021094 
L 111.662116 -42.021094 
L 113.309394 -42.021094 
L 114.956671 -42.021094 
L 116.603949 -42.021094 
L 118.251227 -42.021094 
L 119.898505 -42.021094 
L 121.545782 -42.021094 
L 123.19306 -42.021094 
L 124.840338 -42.021094 
L 126.487615 -42.021094 
L 128.134893 -42.021094 
L 129.782171 -42.021094 
L 131.429449 -42.021094 
L 133.076726 -42.021094 
L 134.724004 -42.021094 
L 136.371282 -42.021094 
L 138.018559 -42.021094 
L 139.665837 -42.021094 
L 141.313115 -42.021094 
L 142.960393 -42.021094 
L 144.60767 -42.021094 
L 146.254948 -42.021094 
L 147.902226 -42.021094 
L 149.549503 -42.021094 
L 151.196781 -42.021094 
L 152.844059 -42.021094 
L 154.491337 -42.021094 
L 156.138614 -42.021094 
L 157.785892 -42.021094 
L 159.43317 -42.021094 
L 161.080447 -42.021094 
L 162.727725 -42.021094 
L 164.375003 -42.021094 
L 166.022281 -42.021094 
L 167.669558 -42.021094 
L 169.316836 -42.021094 
L 170.964114 -42.021094 
L 172.611391 -42.021094 
L 174.258669 -42.021094 
L 175.905947 -42.021094 
L 177.553225 -42.021094 
L 179.200502 -42.021094 
L 180.84778 -42.021094 
L 182.495058 -42.021094 
L 184.142335 -42.021094 
L 185.789613 -42.021094 
L 187.436891 -42.021094 
L 189.084169 -42.021094 
L 190.731446 -42.021094 
L 192.378724 -42.021094 
L 194.026002 -42.021094 
L 195.673279 -42.021094 
L 197.320557 -42.021094 
L 198.967835 -42.021094 
L 200.615113 -42.021094 
L 202.26239 -42.021094 
L 203.909668 -42.021094 
L 205.556946 -42.021094 
L 207.204223 -42.021094 
L 208.851501 -42.021094 
L 210.498779 -42.021094 
L 212.146057 -42.021094 
L 213.793334 -42.021094 
L 215.440612 -42.021094 
L 217.08789 -42.021094 
L 218.735167 -42.021094 
L 220.382445 -42.021094 
L 222.029723 -42.021094 
L 223.677001 -42.021094 
L 225.324278 -42.021094 
L 226.971556 -42.021094 
L 228.618834 -42.021094 
L 230.266111 -42.021094 
L 231.913389 -42.021094 
L 233.560667 -42.021094 
L 235.207945 -42.021094 
L 236.855222 -42.021094 
L 238.5025 -42.021094 
L 240.149778 -42.021094 
L 241.797055 -42.021094 
L 243.444333 -42.021094 
L 245.091611 -42.021094 
L 246.738889 -42.021094 
L 248.386166 -42.021094 
L 250.033444 -42.021094 
L 251.680722 -42.021094 
L 253.327999 -42.021094 
L 254.975277 -42.021094 
L 256.622555 -42.021094 
L 258.269833 -42.021094 
L 259.91711 -42.021094 
L 261.564388 -42.021094 
L 263.211666 -42.021094 
L 264.858943 -42.021094 
L 266.506221 -42.021094 
L 268.153499 -42.021094 
L 269.800777 -42.021094 
L 271.448054 -42.021094 
L 273.095332 -42.021094 
L 274.74261 -42.021094 
L 276.389887 -42.021094 
L 278.037165 -42.021094 
L 279.684443 -42.021094 
L 281.331721 -42.021094 
L 282.978998 -42.021094 
L 284.626276 -42.021094 
L 286.273554 -42.021094 
L 287.920831 -42.021094 
L 289.568109 -42.021094 
L 291.215387 -42.021094 
L 292.862665 -42.021094 
L 294.509942 -42.021094 
L 296.15722 -42.021094 
L 297.804498 -42.021094 
L 299.451775 -42.021094 
L 301.099053 -42.021094 
L 302.746331 -42.021094 
L 304.393608 -42.021094 
L 306.040886 -42.021094 
L 307.688164 -42.021094 
L 309.335442 -42.021094 
L 310.982719 -42.021094 
L 312.629997 -42.021094 
L 314.277275 -42.021094 
L 315.924552 -42.021094 
L 317.57183 -42.021094 
L 319.219108 -42.021094 
L 320.866386 -42.021094 
L 322.513663 -42.021094 
L 324.160941 -42.021094 
L 325.808219 -42.021094 
L 327.455496 -42.021094 
L 329.102774 -42.021094 
L 330.750052 -42.021094 
L 332.39733 -42.021094 
L 334.044607 -42.021094 
L 335.691885 -42.021094 
L 337.339163 -42.021094 
L 338.98644 -42.021094 
L 340.633718 -42.021094 
L 342.280996 -42.021094 
L 343.928274 -42.021094 
L 345.575551 -42.021094 
L 347.222829 -42.021094 
L 348.870107 -42.021094 
L 350.517384 -42.021094 
L 352.164662 -42.021094 
L 353.81194 -42.021094 
L 355.459218 -42.021094 
L 357.106495 -42.021094 
L 358.753773 -42.021094 
L 360.401051 -42.021094 
L 362.048328 -42.021094 
L 363.695606 -42.021094 
L 365.342884 -42.021094 
L 366.990162 -42.021094 
L 368.637439 -42.021094 
L 370.284717 -42.021094 
L 371.931995 -42.021094 
L 373.579272 -42.021094 
L 375.22655 -42.021094 
L 376.873828 -42.021094 
L 378.521106 -42.021094 
L 380.168383 -42.021094 
L 381.815661 -42.021094 
L 383.462939 -42.021094 
L 385.110216 -42.021094 
L 386.757494 -42.021094 
L 388.404772 -42.021094 
L 390.05205 -42.021094 
L 391.699327 -42.021094 
L 393.346605 -42.021094 
L 394.993883 -42.021094 
L 396.64116 -42.021094 
L 398.288438 -42.021094 
L 399.935716 -42.021094 
L 401.582994 -42.021094 
L 403.230271 -42.021094 
L 404.877549 -42.021094 
L 406.524827 -42.021094 
L 408.172104 -42.021094 
L 409.819382 -42.021094 
L 411.46666 -42.021094 
L 411.46666 -42.140791 
L 411.46666 -42.140791 
L 409.819382 -42.187502 
L 408.172104 -42.249587 
L 406.524827 -42.330969 
L 404.877549 -42.436169 
L 403.230271 -42.570266 
L 401.582994 -42.738803 
L 399.935716 -42.947644 
L 398.288438 -43.202767 
L 396.64116 -43.510003 
L 394.993883 -43.874729 
L 393.346605 -44.301534 
L 391.699327 -44.793887 
L 390.05205 -45.353842 
L 388.404772 -45.981815 
L 386.757494 -46.676491 
L 385.110216 -47.434879 
L 383.462939 -48.252563 
L 381.815661 -49.124154 
L 380.168383 -50.043942 
L 378.521106 -51.006713 
L 376.873828 -52.008669 
L 375.22655 -53.048376 
L 373.579272 -54.12762 
L 371.931995 -55.252059 
L 370.284717 -56.431553 
L 368.637439 -57.680069 
L 366.990162 -59.015073 
L 365.342884 -60.456407 
L 363.695606 -62.024657 
L 362.048328 -63.739117 
L 360.401051 -65.615502 
L 358.753773 -67.663618 
L 357.106495 -69.885247 
L 355.459218 -72.272495 
L 353.81194 -74.806859 
L 352.164662 -77.45921 
L 350.517384 -80.190806 
L 348.870107 -82.955369 
L 347.222829 -85.702116 
L 345.575551 -88.379532 
L 343.928274 -90.939569 
L 342.280996 -93.341862 
L 340.633718 -95.557529 
L 338.98644 -97.57211 
L 337.339163 -99.387274 
L 335.691885 -101.021031 
L 334.044607 -102.506322 
L 332.39733 -103.888043 
L 330.750052 -105.218743 
L 329.102774 -106.55339 
L 327.455496 -107.943734 
L 325.808219 -109.432878 
L 324.160941 -111.050661 
L 322.513663 -112.810412 
L 320.866386 -114.707488 
L 319.219108 -116.719832 
L 317.57183 -118.810551 
L 315.924552 -120.932291 
L 314.277275 -123.032955 
L 312.629997 -125.062124 
L 310.982719 -126.977461 
L 309.335442 -128.750307 
L 307.688164 -130.369765 
L 306.040886 -131.844724 
L 304.393608 -133.203471 
L 302.746331 -134.490823 
L 301.099053 -135.763007 
L 299.451775 -137.080785 
L 297.804498 -138.501543 
L 296.15722 -140.071224 
L 294.509942 -141.817034 
L 292.862665 -143.741797 
L 291.215387 -145.820686 
L 289.568109 -148.000795 
L 287.920831 -150.203734 
L 286.273554 -152.331075 
L 284.626276 -154.272157 
L 282.978998 -155.913506 
L 281.331721 -157.14889 
L 279.684443 -157.888988 
L 278.037165 -158.069652 
L 276.389887 -157.657894 
L 274.74261 -156.654973 
L 273.095332 -155.096273 
L 271.448054 -153.047998 
L 269.800777 -150.601055 
L 268.153499 -147.86281 
L 266.506221 -144.947573 
L 264.858943 -141.966842 
L 263.211666 -139.020281 
L 261.564388 -136.188332 
L 259.91711 -133.527146 
L 258.269833 -131.066239 
L 256.622555 -128.808971 
L 254.975277 -126.73564 
L 253.327999 -124.808704 
L 251.680722 -122.979431 
L 250.033444 -121.195178 
L 248.386166 -119.406443 
L 246.738889 -117.572931 
L 245.091611 -115.668014 
L 243.444333 -113.681192 
L 241.797055 -111.618396 
L 240.149778 -109.50024 
L 238.5025 -107.358549 
L 236.855222 -105.231672 
L 235.207945 -103.159194 
L 233.560667 -101.176709 
L 231.913389 -99.311245 
L 230.266111 -97.577857 
L 228.618834 -95.977729 
L 226.971556 -94.497923 
L 225.324278 -93.112742 
L 223.677001 -91.786495 
L 222.029723 -90.477269 
L 220.382445 -89.141286 
L 218.735167 -87.737327 
L 217.08789 -86.230757 
L 215.440612 -84.596756 
L 213.793334 -82.822466 
L 212.146057 -80.907892 
L 210.498779 -78.865565 
L 208.851501 -76.719069 
L 207.204223 -74.500671 
L 205.556946 -72.248365 
L 203.909668 -70.002641 
L 202.26239 -67.803346 
L 200.615113 -65.686898 
L 198.967835 -63.6841 
L 197.320557 -61.818675 
L 195.673279 -60.106582 
L 194.026002 -58.556071 
L 192.378724 -57.168368 
L 190.731446 -55.938835 
L 189.084169 -54.858409 
L 187.436891 -53.915136 
L 185.789613 -53.095629 
L 184.142335 -52.386306 
L 182.495058 -51.77431 
L 180.84778 -51.248091 
L 179.200502 -50.797624 
L 177.553225 -50.414334 
L 175.905947 -50.090794 
L 174.258669 -49.820285 
L 172.611391 -49.596326 
L 170.964114 -49.412256 
L 169.316836 -49.260934 
L 167.669558 -49.134613 
L 166.022281 -49.024997 
L 164.375003 -48.923467 
L 162.727725 -48.821452 
L 161.080447 -48.710882 
L 159.43317 -48.584674 
L 157.785892 -48.437169 
L 156.138614 -48.264493 
L 154.491337 -48.064765 
L 152.844059 -47.838162 
L 151.196781 -47.586802 
L 149.549503 -47.314483 
L 147.902226 -47.026298 
L 146.254948 -46.728165 
L 144.60767 -46.42632 
L 142.960393 -46.126831 
L 141.313115 -45.83516 
L 139.665837 -45.555828 
L 138.018559 -45.292188 
L 136.371282 -45.046324 
L 134.724004 -44.81907 
L 133.076726 -44.610137 
L 131.429449 -44.41832 
L 129.782171 -44.241751 
L 128.134893 -44.078185 
L 126.487615 -43.925266 
L 124.840338 -43.780766 
L 123.19306 -43.642776 
L 121.545782 -43.509828 
L 119.898505 -43.380962 
L 118.251227 -43.255726 
L 116.603949 -43.13413 
L 114.956671 -43.016561 
L 113.309394 -42.903672 
L 111.662116 -42.796267 
L 110.014838 -42.695184 
L 108.367561 -42.601198 
L 106.720283 -42.514941 
L 105.073005 -42.436849 
L 103.425727 -42.367134 
L 101.77845 -42.305781 
L 100.131172 -42.252559 
L 98.483894 -42.207054 
L 96.836617 -42.168706 
L 95.189339 -42.136852 
L 93.542061 -42.11077 
L 91.894783 -42.089717 
L 90.247506 -42.072964 
L 88.600228 -42.05982 
L 86.95295 -42.049651 
L 85.305673 -42.041892 
L 83.658395 -42.036054 
z
" id="mc5fedbe143" style="stroke:#55a868;"/>
    </defs>
    <g clip-path="url(#pdc3af1d2fb)">
     <use style="fill:#55a868;fill-opacity:0.25;stroke:#55a868;" x="0" xlink:href="#mc5fedbe143" y="390.116719"/>
    </g>
   </g>
   <g id="PolyCollection_4">
    <defs>
     <path d="M 198.299766 -42.14198 
L 198.299766 -42.021094 
L 199.847534 -42.021094 
L 201.395302 -42.021094 
L 202.943071 -42.021094 
L 204.490839 -42.021094 
L 206.038607 -42.021094 
L 207.586376 -42.021094 
L 209.134144 -42.021094 
L 210.681912 -42.021094 
L 212.229681 -42.021094 
L 213.777449 -42.021094 
L 215.325217 -42.021094 
L 216.872986 -42.021094 
L 218.420754 -42.021094 
L 219.968522 -42.021094 
L 221.516291 -42.021094 
L 223.064059 -42.021094 
L 224.611827 -42.021094 
L 226.159596 -42.021094 
L 227.707364 -42.021094 
L 229.255132 -42.021094 
L 230.802901 -42.021094 
L 232.350669 -42.021094 
L 233.898437 -42.021094 
L 235.446206 -42.021094 
L 236.993974 -42.021094 
L 238.541742 -42.021094 
L 240.089511 -42.021094 
L 241.637279 -42.021094 
L 243.185047 -42.021094 
L 244.732816 -42.021094 
L 246.280584 -42.021094 
L 247.828352 -42.021094 
L 249.376121 -42.021094 
L 250.923889 -42.021094 
L 252.471657 -42.021094 
L 254.019426 -42.021094 
L 255.567194 -42.021094 
L 257.114962 -42.021094 
L 258.662731 -42.021094 
L 260.210499 -42.021094 
L 261.758267 -42.021094 
L 263.306036 -42.021094 
L 264.853804 -42.021094 
L 266.401572 -42.021094 
L 267.949341 -42.021094 
L 269.497109 -42.021094 
L 271.044877 -42.021094 
L 272.592646 -42.021094 
L 274.140414 -42.021094 
L 275.688182 -42.021094 
L 277.235951 -42.021094 
L 278.783719 -42.021094 
L 280.331487 -42.021094 
L 281.879256 -42.021094 
L 283.427024 -42.021094 
L 284.974792 -42.021094 
L 286.522561 -42.021094 
L 288.070329 -42.021094 
L 289.618097 -42.021094 
L 291.165866 -42.021094 
L 292.713634 -42.021094 
L 294.261402 -42.021094 
L 295.809171 -42.021094 
L 297.356939 -42.021094 
L 298.904707 -42.021094 
L 300.452476 -42.021094 
L 302.000244 -42.021094 
L 303.548012 -42.021094 
L 305.095781 -42.021094 
L 306.643549 -42.021094 
L 308.191317 -42.021094 
L 309.739086 -42.021094 
L 311.286854 -42.021094 
L 312.834622 -42.021094 
L 314.382391 -42.021094 
L 315.930159 -42.021094 
L 317.477927 -42.021094 
L 319.025696 -42.021094 
L 320.573464 -42.021094 
L 322.121232 -42.021094 
L 323.669001 -42.021094 
L 325.216769 -42.021094 
L 326.764537 -42.021094 
L 328.312306 -42.021094 
L 329.860074 -42.021094 
L 331.407842 -42.021094 
L 332.955611 -42.021094 
L 334.503379 -42.021094 
L 336.051147 -42.021094 
L 337.598916 -42.021094 
L 339.146684 -42.021094 
L 340.694452 -42.021094 
L 342.242221 -42.021094 
L 343.789989 -42.021094 
L 345.337757 -42.021094 
L 346.885526 -42.021094 
L 348.433294 -42.021094 
L 349.981062 -42.021094 
L 351.528831 -42.021094 
L 353.076599 -42.021094 
L 354.624367 -42.021094 
L 356.172136 -42.021094 
L 357.719904 -42.021094 
L 359.267672 -42.021094 
L 360.815441 -42.021094 
L 362.363209 -42.021094 
L 363.910977 -42.021094 
L 365.458746 -42.021094 
L 367.006514 -42.021094 
L 368.554282 -42.021094 
L 370.102051 -42.021094 
L 371.649819 -42.021094 
L 373.197587 -42.021094 
L 374.745356 -42.021094 
L 376.293124 -42.021094 
L 377.840892 -42.021094 
L 379.388661 -42.021094 
L 380.936429 -42.021094 
L 382.484197 -42.021094 
L 384.031966 -42.021094 
L 385.579734 -42.021094 
L 387.127502 -42.021094 
L 388.675271 -42.021094 
L 390.223039 -42.021094 
L 391.770807 -42.021094 
L 393.318576 -42.021094 
L 394.866344 -42.021094 
L 396.414112 -42.021094 
L 397.961881 -42.021094 
L 399.509649 -42.021094 
L 401.057417 -42.021094 
L 402.605186 -42.021094 
L 404.152954 -42.021094 
L 405.700722 -42.021094 
L 407.248491 -42.021094 
L 408.796259 -42.021094 
L 410.344027 -42.021094 
L 411.891796 -42.021094 
L 413.439564 -42.021094 
L 414.987332 -42.021094 
L 416.535101 -42.021094 
L 418.082869 -42.021094 
L 419.630637 -42.021094 
L 421.178406 -42.021094 
L 422.726174 -42.021094 
L 424.273942 -42.021094 
L 425.821711 -42.021094 
L 427.369479 -42.021094 
L 428.917247 -42.021094 
L 430.465016 -42.021094 
L 432.012784 -42.021094 
L 433.560552 -42.021094 
L 435.108321 -42.021094 
L 436.656089 -42.021094 
L 438.203857 -42.021094 
L 439.751626 -42.021094 
L 441.299394 -42.021094 
L 442.847162 -42.021094 
L 444.394931 -42.021094 
L 445.942699 -42.021094 
L 447.490467 -42.021094 
L 449.038236 -42.021094 
L 450.586004 -42.021094 
L 452.133772 -42.021094 
L 453.681541 -42.021094 
L 455.229309 -42.021094 
L 456.777077 -42.021094 
L 458.324846 -42.021094 
L 459.872614 -42.021094 
L 461.420382 -42.021094 
L 462.968151 -42.021094 
L 464.515919 -42.021094 
L 466.063687 -42.021094 
L 467.611456 -42.021094 
L 469.159224 -42.021094 
L 470.706992 -42.021094 
L 472.254761 -42.021094 
L 473.802529 -42.021094 
L 475.350297 -42.021094 
L 476.898066 -42.021094 
L 478.445834 -42.021094 
L 479.993602 -42.021094 
L 481.541371 -42.021094 
L 483.089139 -42.021094 
L 484.636907 -42.021094 
L 486.184676 -42.021094 
L 487.732444 -42.021094 
L 489.280212 -42.021094 
L 490.827981 -42.021094 
L 492.375749 -42.021094 
L 493.923517 -42.021094 
L 495.471286 -42.021094 
L 497.019054 -42.021094 
L 498.566822 -42.021094 
L 500.114591 -42.021094 
L 501.662359 -42.021094 
L 503.210127 -42.021094 
L 504.757896 -42.021094 
L 506.305664 -42.021094 
L 506.305664 -42.155388 
L 506.305664 -42.155388 
L 504.757896 -42.198539 
L 503.210127 -42.253494 
L 501.662359 -42.322796 
L 500.114591 -42.409331 
L 498.566822 -42.516313 
L 497.019054 -42.647258 
L 495.471286 -42.805928 
L 493.923517 -42.996256 
L 492.375749 -43.222247 
L 490.827981 -43.487846 
L 489.280212 -43.796794 
L 487.732444 -44.15246 
L 486.184676 -44.557661 
L 484.636907 -45.014483 
L 483.089139 -45.524114 
L 481.541371 -46.086692 
L 479.993602 -46.701194 
L 478.445834 -47.365375 
L 476.898066 -48.075762 
L 475.350297 -48.827721 
L 473.802529 -49.615596 
L 472.254761 -50.432922 
L 470.706992 -51.272706 
L 469.159224 -52.127758 
L 467.611456 -52.991061 
L 466.063687 -53.856155 
L 464.515919 -54.717502 
L 462.968151 -55.570812 
L 461.420382 -56.413291 
L 459.872614 -57.243803 
L 458.324846 -58.062908 
L 456.777077 -58.872782 
L 455.229309 -59.677011 
L 453.681541 -60.480275 
L 452.133772 -61.287937 
L 450.586004 -62.105578 
L 449.038236 -62.938509 
L 447.490467 -63.791313 
L 445.942699 -64.667448 
L 444.394931 -65.568967 
L 442.847162 -66.496366 
L 441.299394 -67.448603 
L 439.751626 -68.423272 
L 438.203857 -69.416935 
L 436.656089 -70.42557 
L 435.108321 -71.445116 
L 433.560552 -72.47203 
L 432.012784 -73.503828 
L 430.465016 -74.539532 
L 428.917247 -75.579976 
L 427.369479 -76.627926 
L 425.821711 -77.687996 
L 424.273942 -78.76635 
L 422.726174 -79.870207 
L 421.178406 -81.007197 
L 419.630637 -82.184618 
L 418.082869 -83.408672 
L 416.535101 -84.683762 
L 414.987332 -86.011915 
L 413.439564 -87.392417 
L 411.891796 -88.821704 
L 410.344027 -90.29353 
L 408.796259 -91.79942 
L 407.248491 -93.329374 
L 405.700722 -94.872762 
L 404.152954 -96.419325 
L 402.605186 -97.960186 
L 401.057417 -99.488757 
L 399.509649 -101.001445 
L 397.961881 -102.498073 
L 396.414112 -103.981939 
L 394.866344 -105.459492 
L 393.318576 -106.939643 
L 391.770807 -108.432732 
L 390.223039 -109.949269 
L 388.675271 -111.498536 
L 387.127502 -113.087195 
L 385.579734 -114.718051 
L 384.031966 -116.389085 
L 382.484197 -118.092891 
L 380.936429 -119.816579 
L 379.388661 -121.542191 
L 377.840892 -123.247617 
L 376.293124 -124.90794 
L 374.745356 -126.497112 
L 373.197587 -127.989822 
L 371.649819 -129.363366 
L 370.102051 -130.599378 
L 368.554282 -131.685221 
L 367.006514 -132.614932 
L 365.458746 -133.389594 
L 363.910977 -134.017107 
L 362.363209 -134.511357 
L 360.815441 -134.890846 
L 359.267672 -135.176925 
L 357.719904 -135.39175 
L 356.172136 -135.556194 
L 354.624367 -135.687865 
L 353.076599 -135.799456 
L 351.528831 -135.897547 
L 349.981062 -135.982002 
L 348.433294 -136.045996 
L 346.885526 -136.07668 
L 345.337757 -136.056425 
L 343.789989 -135.964508 
L 342.242221 -135.779105 
L 340.694452 -135.479384 
L 339.146684 -135.047501 
L 337.598916 -134.470332 
L 336.051147 -133.740761 
L 334.503379 -132.858415 
L 332.955611 -131.829799 
L 331.407842 -130.667807 
L 329.860074 -129.390679 
L 328.312306 -128.020508 
L 326.764537 -126.581445 
L 325.216769 -125.09777 
L 323.669001 -123.592023 
L 322.121232 -122.083349 
L 320.573464 -120.586217 
L 319.025696 -119.109613 
L 317.477927 -117.656761 
L 315.930159 -116.225392 
L 314.382391 -114.808491 
L 312.834622 -113.395465 
L 311.286854 -111.973569 
L 309.739086 -110.529484 
L 308.191317 -109.050853 
L 306.643549 -107.527671 
L 305.095781 -105.953376 
L 303.548012 -104.325566 
L 302.000244 -102.646297 
L 300.452476 -100.92194 
L 298.904707 -99.162651 
L 297.356939 -97.381508 
L 295.809171 -95.593422 
L 294.261402 -93.813936 
L 292.713634 -92.058026 
L 291.165866 -90.339017 
L 289.618097 -88.667712 
L 288.070329 -87.051794 
L 286.522561 -85.495543 
L 284.974792 -83.999872 
L 283.427024 -82.562659 
L 281.879256 -81.17931 
L 280.331487 -79.843506 
L 278.783719 -78.548018 
L 277.235951 -77.285534 
L 275.688182 -76.049403 
L 274.140414 -74.834233 
L 272.592646 -73.636299 
L 271.044877 -72.45373 
L 269.497109 -71.286487 
L 267.949341 -70.136133 
L 266.401572 -69.005452 
L 264.853804 -67.897955 
L 263.306036 -66.817341 
L 261.758267 -65.766963 
L 260.210499 -64.749358 
L 258.662731 -63.765894 
L 257.114962 -62.816542 
L 255.567194 -61.899815 
L 254.019426 -61.012852 
L 252.471657 -60.15164 
L 250.923889 -59.311354 
L 249.376121 -58.486763 
L 247.828352 -57.672672 
L 246.280584 -56.864357 
L 244.732816 -56.057956 
L 243.185047 -55.250778 
L 241.637279 -54.44152 
L 240.089511 -53.630368 
L 238.541742 -52.818984 
L 236.993974 -52.010391 
L 235.446206 -51.208768 
L 233.898437 -50.419169 
L 232.350669 -49.647212 
L 230.802901 -48.898735 
L 229.255132 -48.179471 
L 227.707364 -47.494747 
L 226.159596 -46.849232 
L 224.611827 -46.246737 
L 223.064059 -45.690089 
L 221.516291 -45.181064 
L 219.968522 -44.720379 
L 218.420754 -44.307749 
L 216.872986 -43.94198 
L 215.325217 -43.621091 
L 213.777449 -43.342471 
L 212.229681 -43.10303 
L 210.681912 -42.899355 
L 209.134144 -42.727861 
L 207.586376 -42.584922 
L 206.038607 -42.466978 
L 204.490839 -42.37063 
L 202.943071 -42.292707 
L 201.395302 -42.230306 
L 199.847534 -42.180828 
L 198.299766 -42.14198 
z
" id="mcc9429f20d" style="stroke:#dd8452;"/>
    </defs>
    <g clip-path="url(#pdc3af1d2fb)">
     <use style="fill:#dd8452;fill-opacity:0.25;stroke:#dd8452;" x="0" xlink:href="#mcc9429f20d" y="390.116719"/>
    </g>
   </g>
   <g id="PolyCollection_5">
    <defs>
     <path d="M 431.180512 -42.046633 
L 431.180512 -42.021094 
L 432.493101 -42.021094 
L 433.805689 -42.021094 
L 435.118278 -42.021094 
L 436.430867 -42.021094 
L 437.743456 -42.021094 
L 439.056044 -42.021094 
L 440.368633 -42.021094 
L 441.681222 -42.021094 
L 442.99381 -42.021094 
L 444.306399 -42.021094 
L 445.618988 -42.021094 
L 446.931577 -42.021094 
L 448.244165 -42.021094 
L 449.556754 -42.021094 
L 450.869343 -42.021094 
L 452.181932 -42.021094 
L 453.49452 -42.021094 
L 454.807109 -42.021094 
L 456.119698 -42.021094 
L 457.432286 -42.021094 
L 458.744875 -42.021094 
L 460.057464 -42.021094 
L 461.370053 -42.021094 
L 462.682641 -42.021094 
L 463.99523 -42.021094 
L 465.307819 -42.021094 
L 466.620407 -42.021094 
L 467.932996 -42.021094 
L 469.245585 -42.021094 
L 470.558174 -42.021094 
L 471.870762 -42.021094 
L 473.183351 -42.021094 
L 474.49594 -42.021094 
L 475.808529 -42.021094 
L 477.121117 -42.021094 
L 478.433706 -42.021094 
L 479.746295 -42.021094 
L 481.058883 -42.021094 
L 482.371472 -42.021094 
L 483.684061 -42.021094 
L 484.99665 -42.021094 
L 486.309238 -42.021094 
L 487.621827 -42.021094 
L 488.934416 -42.021094 
L 490.247004 -42.021094 
L 491.559593 -42.021094 
L 492.872182 -42.021094 
L 494.184771 -42.021094 
L 495.497359 -42.021094 
L 496.809948 -42.021094 
L 498.122537 -42.021094 
L 499.435126 -42.021094 
L 500.747714 -42.021094 
L 502.060303 -42.021094 
L 503.372892 -42.021094 
L 504.68548 -42.021094 
L 505.998069 -42.021094 
L 507.310658 -42.021094 
L 508.623247 -42.021094 
L 509.935835 -42.021094 
L 511.248424 -42.021094 
L 512.561013 -42.021094 
L 513.873601 -42.021094 
L 515.18619 -42.021094 
L 516.498779 -42.021094 
L 517.811368 -42.021094 
L 519.123956 -42.021094 
L 520.436545 -42.021094 
L 521.749134 -42.021094 
L 523.061723 -42.021094 
L 524.374311 -42.021094 
L 525.6869 -42.021094 
L 526.999489 -42.021094 
L 528.312077 -42.021094 
L 529.624666 -42.021094 
L 530.937255 -42.021094 
L 532.249844 -42.021094 
L 533.562432 -42.021094 
L 534.875021 -42.021094 
L 536.18761 -42.021094 
L 537.500198 -42.021094 
L 538.812787 -42.021094 
L 540.125376 -42.021094 
L 541.437965 -42.021094 
L 542.750553 -42.021094 
L 544.063142 -42.021094 
L 545.375731 -42.021094 
L 546.68832 -42.021094 
L 548.000908 -42.021094 
L 549.313497 -42.021094 
L 550.626086 -42.021094 
L 551.938674 -42.021094 
L 553.251263 -42.021094 
L 554.563852 -42.021094 
L 555.876441 -42.021094 
L 557.189029 -42.021094 
L 558.501618 -42.021094 
L 559.814207 -42.021094 
L 561.126795 -42.021094 
L 562.439384 -42.021094 
L 563.751973 -42.021094 
L 565.064562 -42.021094 
L 566.37715 -42.021094 
L 567.689739 -42.021094 
L 569.002328 -42.021094 
L 570.314916 -42.021094 
L 571.627505 -42.021094 
L 572.940094 -42.021094 
L 574.252683 -42.021094 
L 575.565271 -42.021094 
L 576.87786 -42.021094 
L 578.190449 -42.021094 
L 579.503038 -42.021094 
L 580.815626 -42.021094 
L 582.128215 -42.021094 
L 583.440804 -42.021094 
L 584.753392 -42.021094 
L 586.065981 -42.021094 
L 587.37857 -42.021094 
L 588.691159 -42.021094 
L 590.003747 -42.021094 
L 591.316336 -42.021094 
L 592.628925 -42.021094 
L 593.941513 -42.021094 
L 595.254102 -42.021094 
L 596.566691 -42.021094 
L 597.87928 -42.021094 
L 599.191868 -42.021094 
L 600.504457 -42.021094 
L 601.817046 -42.021094 
L 603.129635 -42.021094 
L 604.442223 -42.021094 
L 605.754812 -42.021094 
L 607.067401 -42.021094 
L 608.379989 -42.021094 
L 609.692578 -42.021094 
L 611.005167 -42.021094 
L 612.317756 -42.021094 
L 613.630344 -42.021094 
L 614.942933 -42.021094 
L 616.255522 -42.021094 
L 617.56811 -42.021094 
L 618.880699 -42.021094 
L 620.193288 -42.021094 
L 621.505877 -42.021094 
L 622.818465 -42.021094 
L 624.131054 -42.021094 
L 625.443643 -42.021094 
L 626.756232 -42.021094 
L 628.06882 -42.021094 
L 629.381409 -42.021094 
L 630.693998 -42.021094 
L 632.006586 -42.021094 
L 633.319175 -42.021094 
L 634.631764 -42.021094 
L 635.944353 -42.021094 
L 637.256941 -42.021094 
L 638.56953 -42.021094 
L 639.882119 -42.021094 
L 641.194707 -42.021094 
L 642.507296 -42.021094 
L 643.819885 -42.021094 
L 645.132474 -42.021094 
L 646.445062 -42.021094 
L 647.757651 -42.021094 
L 649.07024 -42.021094 
L 650.382829 -42.021094 
L 651.695417 -42.021094 
L 653.008006 -42.021094 
L 654.320595 -42.021094 
L 655.633183 -42.021094 
L 656.945772 -42.021094 
L 658.258361 -42.021094 
L 659.57095 -42.021094 
L 660.883538 -42.021094 
L 662.196127 -42.021094 
L 663.508716 -42.021094 
L 664.821304 -42.021094 
L 666.133893 -42.021094 
L 667.446482 -42.021094 
L 668.759071 -42.021094 
L 670.071659 -42.021094 
L 671.384248 -42.021094 
L 672.696837 -42.021094 
L 674.009426 -42.021094 
L 675.322014 -42.021094 
L 676.634603 -42.021094 
L 677.947192 -42.021094 
L 679.25978 -42.021094 
L 680.572369 -42.021094 
L 681.884958 -42.021094 
L 683.197547 -42.021094 
L 684.510135 -42.021094 
L 685.822724 -42.021094 
L 687.135313 -42.021094 
L 688.447901 -42.021094 
L 689.76049 -42.021094 
L 691.073079 -42.021094 
L 692.385668 -42.021094 
L 692.385668 -42.404186 
L 692.385668 -42.404186 
L 691.073079 -42.619016 
L 689.76049 -42.932932 
L 688.447901 -43.379792 
L 687.135313 -43.999248 
L 685.822724 -44.83513 
L 684.510135 -45.93249 
L 683.197547 -47.333201 
L 681.884958 -49.070227 
L 680.572369 -51.160957 
L 679.25978 -53.600357 
L 677.947192 -56.354957 
L 676.634603 -59.358852 
L 675.322014 -62.512927 
L 674.009426 -65.688199 
L 672.696837 -68.733739 
L 671.384248 -71.488951 
L 670.071659 -73.799267 
L 668.759071 -75.533688 
L 667.446482 -76.60218 
L 666.133893 -76.970867 
L 664.821304 -76.673203 
L 663.508716 -75.815874 
L 662.196127 -74.578885 
L 660.883538 -73.209905 
L 659.57095 -72.013467 
L 658.258361 -71.335723 
L 656.945772 -71.545396 
L 655.633183 -73.011273 
L 654.320595 -76.076391 
L 653.008006 -81.029145 
L 651.695417 -88.072053 
L 650.382829 -97.289906 
L 649.07024 -108.620295 
L 647.757651 -121.830784 
L 646.445062 -136.507745 
L 645.132474 -152.0618 
L 643.819885 -167.753492 
L 642.507296 -182.740375 
L 641.194707 -196.143361 
L 639.882119 -207.126597 
L 638.56953 -214.982072 
L 637.256941 -219.208398 
L 635.944353 -219.57322 
L 634.631764 -216.15067 
L 633.319175 -209.328837 
L 632.006586 -199.786579 
L 630.693998 -188.443306 
L 629.381409 -176.388598 
L 628.06882 -164.80014 
L 626.756232 -154.858277 
L 625.443643 -147.663844 
L 624.131054 -144.163542 
L 622.818465 -145.084912 
L 621.505877 -150.88164 
L 620.193288 -161.689931 
L 618.880699 -177.297877 
L 617.56811 -197.1316 
L 616.255522 -220.263466 
L 614.942933 -245.447925 
L 613.630344 -271.188917 
L 612.317756 -295.839037 
L 611.005167 -317.72538 
L 609.692578 -335.291255 
L 608.379989 -347.238125 
L 607.067401 -352.649665 
L 605.754812 -351.080545 
L 604.442223 -342.596697 
L 603.129635 -327.760743 
L 601.817046 -307.564572 
L 600.504457 -283.319112 
L 599.191868 -256.517415 
L 597.87928 -228.690175 
L 596.566691 -201.272263 
L 595.254102 -175.495197 
L 593.941513 -152.314733 
L 592.628925 -132.376311 
L 591.316336 -116.015309 
L 590.003747 -103.284905 
L 588.691159 -94.002363 
L 587.37857 -87.804546 
L 586.065981 -84.205068 
L 584.753392 -82.647764 
L 583.440804 -82.553601 
L 582.128215 -83.359974 
L 580.815626 -84.552446 
L 579.503038 -85.689363 
L 578.190449 -86.41957 
L 576.87786 -86.493175 
L 575.565271 -85.76505 
L 574.252683 -84.190931 
L 572.940094 -81.816397 
L 571.627505 -78.759786 
L 570.314916 -75.190796 
L 569.002328 -71.307138 
L 567.689739 -67.311796 
L 566.37715 -63.393236 
L 565.064562 -59.710354 
L 563.751973 -56.383088 
L 562.439384 -53.48878 
L 561.126795 -51.063552 
L 559.814207 -49.107486 
L 558.501618 -47.592124 
L 557.189029 -46.468867 
L 555.876441 -45.677132 
L 554.563852 -45.151458 
L 553.251263 -44.827163 
L 551.938674 -44.644462 
L 550.626086 -44.551169 
L 549.313497 -44.504228 
L 548.000908 -44.470323 
L 546.68832 -44.425792 
L 545.375731 -44.356041 
L 544.063142 -44.254551 
L 542.750553 -44.121614 
L 541.437965 -43.962875 
L 540.125376 -43.787777 
L 538.812787 -43.608023 
L 537.500198 -43.436136 
L 536.18761 -43.284205 
L 534.875021 -43.162865 
L 533.562432 -43.080523 
L 532.249844 -43.04282 
L 530.937255 -43.05231 
L 529.624666 -43.108316 
L 528.312077 -43.206948 
L 526.999489 -43.341288 
L 525.6869 -43.501754 
L 524.374311 -43.676652 
L 523.061723 -43.852938 
L 521.749134 -44.017152 
L 520.436545 -44.156482 
L 519.123956 -44.259854 
L 517.811368 -44.318933 
L 516.498779 -44.328911 
L 515.18619 -44.288972 
L 513.873601 -44.202374 
L 512.561013 -44.076131 
L 511.248424 -43.920338 
L 509.935835 -43.747246 
L 508.623247 -43.570189 
L 507.310658 -43.402497 
L 505.998069 -43.256499 
L 504.68548 -43.142694 
L 503.372892 -43.069108 
L 502.060303 -43.040855 
L 500.747714 -43.059884 
L 499.435126 -43.124883 
L 498.122537 -43.231345 
L 496.809948 -43.371784 
L 495.497359 -43.536146 
L 494.184771 -43.712399 
L 492.872182 -43.887335 
L 491.559593 -44.047537 
L 490.247004 -44.180455 
L 488.934416 -44.275492 
L 487.621827 -44.324966 
L 486.309238 -44.324846 
L 484.99665 -44.275141 
L 483.684061 -44.179903 
L 482.371472 -44.046826 
L 481.058883 -43.886523 
L 479.746295 -43.711549 
L 478.433706 -43.535322 
L 477.121117 -43.371047 
L 475.808529 -43.230748 
L 474.49594 -43.124468 
L 473.183351 -43.05968 
L 471.870762 -43.040874 
L 470.558174 -43.069348 
L 469.245585 -43.143133 
L 467.932996 -43.257097 
L 466.620407 -43.403193 
L 465.307819 -43.570898 
L 463.99523 -43.74785 
L 462.682641 -43.920671 
L 461.370053 -44.075956 
L 460.057464 -44.201337 
L 458.744875 -44.286532 
L 457.432286 -44.324237 
L 456.119698 -44.310752 
L 454.807109 -44.246239 
L 453.49452 -44.134582 
L 452.181932 -43.98285 
L 450.869343 -43.800457 
L 449.556754 -43.598128 
L 448.244165 -43.386821 
L 446.931577 -43.176747 
L 445.618988 -42.976589 
L 444.306399 -42.792999 
L 442.99381 -42.630397 
L 441.681222 -42.491026 
L 440.368633 -42.37523 
L 439.056044 -42.281852 
L 437.743456 -42.208695 
L 436.430867 -42.15297 
L 435.118278 -42.111673 
L 433.805689 -42.081883 
L 432.493101 -42.060955 
L 431.180512 -42.046633 
z
" id="m1b1c3d4789" style="stroke:#4c72b0;"/>
    </defs>
    <g clip-path="url(#pdc3af1d2fb)">
     <use style="fill:#4c72b0;fill-opacity:0.25;stroke:#4c72b0;" x="0" xlink:href="#m1b1c3d4789" y="390.116719"/>
    </g>
   </g>
   <g id="patch_3">
    <path d="M 53.222031 348.095625 
L 53.222031 21.935625 
" style="fill:none;stroke:#ffffff;stroke-linecap:square;stroke-linejoin:miter;stroke-width:1.25;"/>
   </g>
   <g id="patch_4">
    <path d="M 722.822031 348.095625 
L 722.822031 21.935625 
" style="fill:none;stroke:#ffffff;stroke-linecap:square;stroke-linejoin:miter;stroke-width:1.25;"/>
   </g>
   <g id="patch_5">
    <path d="M 53.222031 348.095625 
L 722.822031 348.095625 
" style="fill:none;stroke:#ffffff;stroke-linecap:square;stroke-linejoin:miter;stroke-width:1.25;"/>
   </g>
   <g id="patch_6">
    <path d="M 53.222031 21.935625 
L 722.822031 21.935625 
" style="fill:none;stroke:#ffffff;stroke-linecap:square;stroke-linejoin:miter;stroke-width:1.25;"/>
   </g>
   <g id="text_20">
    <!-- Density Estimation of RSSI Values at Different Distances -->
    <g style="fill:#262626;" transform="translate(237.512031 15.935625)scale(0.12 -0.12)">
     <defs>
      <path d="M 8.6875 0 
L 8.6875 45.015625 
L 0.921875 45.015625 
L 0.921875 51.859375 
L 8.6875 51.859375 
L 8.6875 57.375 
Q 8.6875 62.59375 9.625 65.140625 
Q 10.890625 68.5625 14.078125 70.671875 
Q 17.28125 72.796875 23.046875 72.796875 
Q 26.765625 72.796875 31.25 71.921875 
L 29.9375 64.265625 
Q 27.203125 64.75 24.75 64.75 
Q 20.75 64.75 19.09375 63.03125 
Q 17.4375 61.328125 17.4375 56.640625 
L 17.4375 51.859375 
L 27.546875 51.859375 
L 27.546875 45.015625 
L 17.4375 45.015625 
L 17.4375 0 
z
" id="ArialMT-102"/>
      <path d="M 40.4375 19 
L 49.078125 17.875 
Q 47.65625 8.9375 41.8125 3.875 
Q 35.984375 -1.171875 27.484375 -1.171875 
Q 16.84375 -1.171875 10.375 5.78125 
Q 3.90625 12.75 3.90625 25.734375 
Q 3.90625 34.125 6.6875 40.421875 
Q 9.46875 46.734375 15.15625 49.875 
Q 20.84375 53.03125 27.546875 53.03125 
Q 35.984375 53.03125 41.359375 48.75 
Q 46.734375 44.484375 48.25 36.625 
L 39.703125 35.296875 
Q 38.484375 40.53125 35.375 43.15625 
Q 32.28125 45.796875 27.875 45.796875 
Q 21.234375 45.796875 17.078125 41.03125 
Q 12.9375 36.28125 12.9375 25.984375 
Q 12.9375 15.53125 16.9375 10.796875 
Q 20.953125 6.0625 27.390625 6.0625 
Q 32.5625 6.0625 36.03125 9.234375 
Q 39.5 12.40625 40.4375 19 
z
" id="ArialMT-99"/>
     </defs>
     <use xlink:href="#ArialMT-68"/>
     <use x="72.216797" xlink:href="#ArialMT-101"/>
     <use x="127.832031" xlink:href="#ArialMT-110"/>
     <use x="183.447266" xlink:href="#ArialMT-115"/>
     <use x="233.447266" xlink:href="#ArialMT-105"/>
     <use x="255.664062" xlink:href="#ArialMT-116"/>
     <use x="283.447266" xlink:href="#ArialMT-121"/>
     <use x="333.447266" xlink:href="#ArialMT-32"/>
     <use x="361.230469" xlink:href="#ArialMT-69"/>
     <use x="427.929688" xlink:href="#ArialMT-115"/>
     <use x="477.929688" xlink:href="#ArialMT-116"/>
     <use x="505.712891" xlink:href="#ArialMT-105"/>
     <use x="527.929688" xlink:href="#ArialMT-109"/>
     <use x="611.230469" xlink:href="#ArialMT-97"/>
     <use x="666.845703" xlink:href="#ArialMT-116"/>
     <use x="694.628906" xlink:href="#ArialMT-105"/>
     <use x="716.845703" xlink:href="#ArialMT-111"/>
     <use x="772.460938" xlink:href="#ArialMT-110"/>
     <use x="828.076172" xlink:href="#ArialMT-32"/>
     <use x="855.859375" xlink:href="#ArialMT-111"/>
     <use x="911.474609" xlink:href="#ArialMT-102"/>
     <use x="939.257812" xlink:href="#ArialMT-32"/>
     <use x="967.041016" xlink:href="#ArialMT-82"/>
     <use x="1039.257812" xlink:href="#ArialMT-83"/>
     <use x="1105.957031" xlink:href="#ArialMT-83"/>
     <use x="1172.65625" xlink:href="#ArialMT-73"/>
     <use x="1200.439453" xlink:href="#ArialMT-32"/>
     <use x="1228.222656" xlink:href="#ArialMT-86"/>
     <use x="1287.546875" xlink:href="#ArialMT-97"/>
     <use x="1343.162109" xlink:href="#ArialMT-108"/>
     <use x="1365.378906" xlink:href="#ArialMT-117"/>
     <use x="1420.994141" xlink:href="#ArialMT-101"/>
     <use x="1476.609375" xlink:href="#ArialMT-115"/>
     <use x="1526.609375" xlink:href="#ArialMT-32"/>
     <use x="1554.392578" xlink:href="#ArialMT-97"/>
     <use x="1610.007812" xlink:href="#ArialMT-116"/>
     <use x="1637.791016" xlink:href="#ArialMT-32"/>
     <use x="1665.574219" xlink:href="#ArialMT-68"/>
     <use x="1737.791016" xlink:href="#ArialMT-105"/>
     <use x="1760.007812" xlink:href="#ArialMT-102"/>
     <use x="1786.041016" xlink:href="#ArialMT-102"/>
     <use x="1813.824219" xlink:href="#ArialMT-101"/>
     <use x="1869.439453" xlink:href="#ArialMT-114"/>
     <use x="1902.740234" xlink:href="#ArialMT-101"/>
     <use x="1958.355469" xlink:href="#ArialMT-110"/>
     <use x="2013.970703" xlink:href="#ArialMT-116"/>
     <use x="2041.753906" xlink:href="#ArialMT-32"/>
     <use x="2069.537109" xlink:href="#ArialMT-68"/>
     <use x="2141.753906" xlink:href="#ArialMT-105"/>
     <use x="2163.970703" xlink:href="#ArialMT-115"/>
     <use x="2213.970703" xlink:href="#ArialMT-116"/>
     <use x="2241.753906" xlink:href="#ArialMT-97"/>
     <use x="2297.369141" xlink:href="#ArialMT-110"/>
     <use x="2352.984375" xlink:href="#ArialMT-99"/>
     <use x="2402.984375" xlink:href="#ArialMT-101"/>
     <use x="2458.599609" xlink:href="#ArialMT-115"/>
    </g>
   </g>
   <g id="legend_1">
    <g id="patch_7">
     <path d="M 655.469375 108.534844 
L 715.122031 108.534844 
Q 717.322031 108.534844 717.322031 106.334844 
L 717.322031 29.635625 
Q 717.322031 27.435625 715.122031 27.435625 
L 655.469375 27.435625 
Q 653.269375 27.435625 653.269375 29.635625 
L 653.269375 106.334844 
Q 653.269375 108.534844 655.469375 108.534844 
z
" style="fill:#eaeaf2;opacity:0.8;stroke:#cccccc;stroke-linejoin:miter;"/>
    </g>
    <g id="patch_8">
     <path d="M 657.669375 39.709219 
L 679.669375 39.709219 
L 679.669375 32.009219 
L 657.669375 32.009219 
z
" style="fill:#4c72b0;fill-opacity:0.25;stroke:#4c72b0;stroke-linejoin:miter;"/>
    </g>
    <g id="text_21">
     <!-- 0.5m -->
     <g style="fill:#262626;" transform="translate(688.469375 39.709219)scale(0.11 -0.11)">
      <use xlink:href="#ArialMT-48"/>
      <use x="55.615234" xlink:href="#ArialMT-46"/>
      <use x="83.398438" xlink:href="#ArialMT-53"/>
      <use x="139.013672" xlink:href="#ArialMT-109"/>
     </g>
    </g>
    <g id="patch_9">
     <path d="M 657.669375 55.269063 
L 679.669375 55.269063 
L 679.669375 47.569063 
L 657.669375 47.569063 
z
" style="fill:#dd8452;fill-opacity:0.25;stroke:#dd8452;stroke-linejoin:miter;"/>
    </g>
    <g id="text_22">
     <!-- 1.0m -->
     <g style="fill:#262626;" transform="translate(688.469375 55.269063)scale(0.11 -0.11)">
      <use xlink:href="#ArialMT-49"/>
      <use x="55.615234" xlink:href="#ArialMT-46"/>
      <use x="83.398438" xlink:href="#ArialMT-48"/>
      <use x="139.013672" xlink:href="#ArialMT-109"/>
     </g>
    </g>
    <g id="patch_10">
     <path d="M 657.669375 70.828906 
L 679.669375 70.828906 
L 679.669375 63.128906 
L 657.669375 63.128906 
z
" style="fill:#55a868;fill-opacity:0.25;stroke:#55a868;stroke-linejoin:miter;"/>
    </g>
    <g id="text_23">
     <!-- 1.5m -->
     <g style="fill:#262626;" transform="translate(688.469375 70.828906)scale(0.11 -0.11)">
      <use xlink:href="#ArialMT-49"/>
      <use x="55.615234" xlink:href="#ArialMT-46"/>
      <use x="83.398438" xlink:href="#ArialMT-53"/>
      <use x="139.013672" xlink:href="#ArialMT-109"/>
     </g>
    </g>
    <g id="patch_11">
     <path d="M 657.669375 86.38875 
L 679.669375 86.38875 
L 679.669375 78.68875 
L 657.669375 78.68875 
z
" style="fill:#c44e52;fill-opacity:0.25;stroke:#c44e52;stroke-linejoin:miter;"/>
    </g>
    <g id="text_24">
     <!-- 2.0m -->
     <g style="fill:#262626;" transform="translate(688.469375 86.38875)scale(0.11 -0.11)">
      <use xlink:href="#ArialMT-50"/>
      <use x="55.615234" xlink:href="#ArialMT-46"/>
      <use x="83.398438" xlink:href="#ArialMT-48"/>
      <use x="139.013672" xlink:href="#ArialMT-109"/>
     </g>
    </g>
    <g id="patch_12">
     <path d="M 657.669375 101.948594 
L 679.669375 101.948594 
L 679.669375 94.248594 
L 657.669375 94.248594 
z
" style="fill:#8172b3;fill-opacity:0.25;stroke:#8172b3;stroke-linejoin:miter;"/>
    </g>
    <g id="text_25">
     <!-- 2.5m -->
     <g style="fill:#262626;" transform="translate(688.469375 101.948594)scale(0.11 -0.11)">
      <use xlink:href="#ArialMT-50"/>
      <use x="55.615234" xlink:href="#ArialMT-46"/>
      <use x="83.398438" xlink:href="#ArialMT-53"/>
      <use x="139.013672" xlink:href="#ArialMT-109"/>
     </g>
    </g>
   </g>
  </g>
 </g>
 <defs>
  <clipPath id="pdc3af1d2fb">
   <rect height="326.16" width="669.6" x="53.222031" y="21.935625"/>
  </clipPath>
 </defs>
</svg>
