<?xml version="1.0" encoding="utf-8" standalone="no"?>
<!DOCTYPE svg PUBLIC "-//W3C//DTD SVG 1.1//EN"
  "http://www.w3.org/Graphics/SVG/1.1/DTD/svg11.dtd">
<!-- Created with matplotlib (https://matplotlib.org/) -->
<svg height="715.989844pt" version="1.1" viewBox="0 0 730.475937 715.989844" width="730.475937pt" xmlns="http://www.w3.org/2000/svg" xmlns:xlink="http://www.w3.org/1999/xlink">
 <metadata>
  <rdf:RDF xmlns:cc="http://creativecommons.org/ns#" xmlns:dc="http://purl.org/dc/elements/1.1/" xmlns:rdf="http://www.w3.org/1999/02/22-rdf-syntax-ns#">
   <cc:Work>
    <dc:type rdf:resource="http://purl.org/dc/dcmitype/StillImage"/>
    <dc:date>2020-12-03T16:37:12.791798</dc:date>
    <dc:format>image/svg+xml</dc:format>
    <dc:creator>
     <cc:Agent>
      <dc:title>Matplotlib v3.3.2, https://matplotlib.org/</dc:title>
     </cc:Agent>
    </dc:creator>
   </cc:Work>
  </rdf:RDF>
 </metadata>
 <defs>
  <style type="text/css">*{stroke-linecap:butt;stroke-linejoin:round;}</style>
 </defs>
 <g id="figure_1">
  <g id="patch_1">
   <path d="M -0 715.989844 
L 730.475937 715.989844 
L 730.475937 0 
L -0 0 
z
" style="fill:#ffffff;"/>
  </g>
  <g id="axes_1">
   <g id="patch_2">
    <path d="M 53.675938 318.444716 
L 723.275938 318.444716 
L 723.275938 21.935625 
L 53.675938 21.935625 
z
" style="fill:#eaeaf2;"/>
   </g>
   <g id="matplotlib.axis_1">
    <g id="xtick_1">
     <g id="line2d_1">
      <path clip-path="url(#pb897538c41)" d="M 84.112301 318.444716 
L 84.112301 21.935625 
" style="fill:none;stroke:#ffffff;stroke-linecap:round;"/>
     </g>
     <g id="text_1">
      <!-- −100 -->
      <g style="fill:#262626;" transform="translate(71.724411 335.81831)scale(0.11 -0.11)">
       <defs>
        <path d="M 52.828125 31.203125 
L 5.5625 31.203125 
L 5.5625 39.40625 
L 52.828125 39.40625 
z
" id="ArialMT-8722"/>
        <path d="M 37.25 0 
L 28.46875 0 
L 28.46875 56 
Q 25.296875 52.984375 20.140625 49.953125 
Q 14.984375 46.921875 10.890625 45.40625 
L 10.890625 53.90625 
Q 18.265625 57.375 23.78125 62.296875 
Q 29.296875 67.234375 31.59375 71.875 
L 37.25 71.875 
z
" id="ArialMT-49"/>
        <path d="M 4.15625 35.296875 
Q 4.15625 48 6.765625 55.734375 
Q 9.375 63.484375 14.515625 67.671875 
Q 19.671875 71.875 27.484375 71.875 
Q 33.25 71.875 37.59375 69.546875 
Q 41.9375 67.234375 44.765625 62.859375 
Q 47.609375 58.5 49.21875 52.21875 
Q 50.828125 45.953125 50.828125 35.296875 
Q 50.828125 22.703125 48.234375 14.96875 
Q 45.65625 7.234375 40.5 3 
Q 35.359375 -1.21875 27.484375 -1.21875 
Q 17.140625 -1.21875 11.234375 6.203125 
Q 4.15625 15.140625 4.15625 35.296875 
z
M 13.1875 35.296875 
Q 13.1875 17.671875 17.3125 11.828125 
Q 21.4375 6 27.484375 6 
Q 33.546875 6 37.671875 11.859375 
Q 41.796875 17.71875 41.796875 35.296875 
Q 41.796875 52.984375 37.671875 58.78125 
Q 33.546875 64.59375 27.390625 64.59375 
Q 21.34375 64.59375 17.71875 59.46875 
Q 13.1875 52.9375 13.1875 35.296875 
z
" id="ArialMT-48"/>
       </defs>
       <use xlink:href="#ArialMT-8722"/>
       <use x="58.398438" xlink:href="#ArialMT-49"/>
       <use x="114.013672" xlink:href="#ArialMT-48"/>
       <use x="169.628906" xlink:href="#ArialMT-48"/>
      </g>
     </g>
    </g>
    <g id="xtick_2">
     <g id="line2d_2">
      <path clip-path="url(#pb897538c41)" d="M 205.857756 318.444716 
L 205.857756 21.935625 
" style="fill:none;stroke:#ffffff;stroke-linecap:round;"/>
     </g>
     <g id="text_2">
      <!-- −90 -->
      <g style="fill:#262626;" transform="translate(196.528381 335.81831)scale(0.11 -0.11)">
       <defs>
        <path d="M 5.46875 16.546875 
L 13.921875 17.328125 
Q 14.984375 11.375 18.015625 8.6875 
Q 21.046875 6 25.78125 6 
Q 29.828125 6 32.875 7.859375 
Q 35.9375 9.71875 37.890625 12.8125 
Q 39.84375 15.921875 41.15625 21.1875 
Q 42.484375 26.46875 42.484375 31.9375 
Q 42.484375 32.515625 42.4375 33.6875 
Q 39.796875 29.5 35.234375 26.875 
Q 30.671875 24.265625 25.34375 24.265625 
Q 16.453125 24.265625 10.296875 30.703125 
Q 4.15625 37.15625 4.15625 47.703125 
Q 4.15625 58.59375 10.578125 65.234375 
Q 17 71.875 26.65625 71.875 
Q 33.640625 71.875 39.421875 68.109375 
Q 45.21875 64.359375 48.21875 57.390625 
Q 51.21875 50.4375 51.21875 37.25 
Q 51.21875 23.53125 48.234375 15.40625 
Q 45.265625 7.28125 39.375 3.03125 
Q 33.5 -1.21875 25.59375 -1.21875 
Q 17.1875 -1.21875 11.859375 3.4375 
Q 6.546875 8.109375 5.46875 16.546875 
z
M 41.453125 48.140625 
Q 41.453125 55.71875 37.421875 60.15625 
Q 33.40625 64.59375 27.734375 64.59375 
Q 21.875 64.59375 17.53125 59.8125 
Q 13.1875 55.03125 13.1875 47.40625 
Q 13.1875 40.578125 17.3125 36.296875 
Q 21.4375 32.03125 27.484375 32.03125 
Q 33.59375 32.03125 37.515625 36.296875 
Q 41.453125 40.578125 41.453125 48.140625 
z
" id="ArialMT-57"/>
       </defs>
       <use xlink:href="#ArialMT-8722"/>
       <use x="58.398438" xlink:href="#ArialMT-57"/>
       <use x="114.013672" xlink:href="#ArialMT-48"/>
      </g>
     </g>
    </g>
    <g id="xtick_3">
     <g id="line2d_3">
      <path clip-path="url(#pb897538c41)" d="M 327.60321 318.444716 
L 327.60321 21.935625 
" style="fill:none;stroke:#ffffff;stroke-linecap:round;"/>
     </g>
     <g id="text_3">
      <!-- −80 -->
      <g style="fill:#262626;" transform="translate(318.273835 335.81831)scale(0.11 -0.11)">
       <defs>
        <path d="M 17.671875 38.8125 
Q 12.203125 40.828125 9.5625 44.53125 
Q 6.9375 48.25 6.9375 53.421875 
Q 6.9375 61.234375 12.546875 66.546875 
Q 18.171875 71.875 27.484375 71.875 
Q 36.859375 71.875 42.578125 66.421875 
Q 48.296875 60.984375 48.296875 53.171875 
Q 48.296875 48.1875 45.671875 44.5 
Q 43.0625 40.828125 37.75 38.8125 
Q 44.34375 36.671875 47.78125 31.875 
Q 51.21875 27.09375 51.21875 20.453125 
Q 51.21875 11.28125 44.71875 5.03125 
Q 38.234375 -1.21875 27.640625 -1.21875 
Q 17.046875 -1.21875 10.546875 5.046875 
Q 4.046875 11.328125 4.046875 20.703125 
Q 4.046875 27.6875 7.59375 32.390625 
Q 11.140625 37.109375 17.671875 38.8125 
z
M 15.921875 53.71875 
Q 15.921875 48.640625 19.1875 45.40625 
Q 22.46875 42.1875 27.6875 42.1875 
Q 32.765625 42.1875 36.015625 45.375 
Q 39.265625 48.578125 39.265625 53.21875 
Q 39.265625 58.0625 35.90625 61.359375 
Q 32.5625 64.65625 27.59375 64.65625 
Q 22.5625 64.65625 19.234375 61.421875 
Q 15.921875 58.203125 15.921875 53.71875 
z
M 13.09375 20.65625 
Q 13.09375 16.890625 14.875 13.375 
Q 16.65625 9.859375 20.171875 7.921875 
Q 23.6875 6 27.734375 6 
Q 34.03125 6 38.125 10.046875 
Q 42.234375 14.109375 42.234375 20.359375 
Q 42.234375 26.703125 38.015625 30.859375 
Q 33.796875 35.015625 27.4375 35.015625 
Q 21.234375 35.015625 17.15625 30.90625 
Q 13.09375 26.8125 13.09375 20.65625 
z
" id="ArialMT-56"/>
       </defs>
       <use xlink:href="#ArialMT-8722"/>
       <use x="58.398438" xlink:href="#ArialMT-56"/>
       <use x="114.013672" xlink:href="#ArialMT-48"/>
      </g>
     </g>
    </g>
    <g id="xtick_4">
     <g id="line2d_4">
      <path clip-path="url(#pb897538c41)" d="M 449.348665 318.444716 
L 449.348665 21.935625 
" style="fill:none;stroke:#ffffff;stroke-linecap:round;"/>
     </g>
     <g id="text_4">
      <!-- −70 -->
      <g style="fill:#262626;" transform="translate(440.01929 335.81831)scale(0.11 -0.11)">
       <defs>
        <path d="M 4.734375 62.203125 
L 4.734375 70.65625 
L 51.078125 70.65625 
L 51.078125 63.8125 
Q 44.234375 56.546875 37.515625 44.484375 
Q 30.8125 32.421875 27.15625 19.671875 
Q 24.515625 10.6875 23.78125 0 
L 14.75 0 
Q 14.890625 8.453125 18.0625 20.40625 
Q 21.234375 32.375 27.171875 43.484375 
Q 33.109375 54.59375 39.796875 62.203125 
z
" id="ArialMT-55"/>
       </defs>
       <use xlink:href="#ArialMT-8722"/>
       <use x="58.398438" xlink:href="#ArialMT-55"/>
       <use x="114.013672" xlink:href="#ArialMT-48"/>
      </g>
     </g>
    </g>
    <g id="xtick_5">
     <g id="line2d_5">
      <path clip-path="url(#pb897538c41)" d="M 571.094119 318.444716 
L 571.094119 21.935625 
" style="fill:none;stroke:#ffffff;stroke-linecap:round;"/>
     </g>
     <g id="text_5">
      <!-- −60 -->
      <g style="fill:#262626;" transform="translate(561.764744 335.81831)scale(0.11 -0.11)">
       <defs>
        <path d="M 49.75 54.046875 
L 41.015625 53.375 
Q 39.84375 58.546875 37.703125 60.890625 
Q 34.125 64.65625 28.90625 64.65625 
Q 24.703125 64.65625 21.53125 62.3125 
Q 17.390625 59.28125 14.984375 53.46875 
Q 12.59375 47.65625 12.5 36.921875 
Q 15.671875 41.75 20.265625 44.09375 
Q 24.859375 46.4375 29.890625 46.4375 
Q 38.671875 46.4375 44.84375 39.96875 
Q 51.03125 33.5 51.03125 23.25 
Q 51.03125 16.5 48.125 10.71875 
Q 45.21875 4.9375 40.140625 1.859375 
Q 35.0625 -1.21875 28.609375 -1.21875 
Q 17.625 -1.21875 10.6875 6.859375 
Q 3.765625 14.9375 3.765625 33.5 
Q 3.765625 54.25 11.421875 63.671875 
Q 18.109375 71.875 29.4375 71.875 
Q 37.890625 71.875 43.28125 67.140625 
Q 48.6875 62.40625 49.75 54.046875 
z
M 13.875 23.1875 
Q 13.875 18.65625 15.796875 14.5 
Q 17.71875 10.359375 21.1875 8.171875 
Q 24.65625 6 28.46875 6 
Q 34.03125 6 38.03125 10.484375 
Q 42.046875 14.984375 42.046875 22.703125 
Q 42.046875 30.125 38.078125 34.390625 
Q 34.125 38.671875 28.125 38.671875 
Q 22.171875 38.671875 18.015625 34.390625 
Q 13.875 30.125 13.875 23.1875 
z
" id="ArialMT-54"/>
       </defs>
       <use xlink:href="#ArialMT-8722"/>
       <use x="58.398438" xlink:href="#ArialMT-54"/>
       <use x="114.013672" xlink:href="#ArialMT-48"/>
      </g>
     </g>
    </g>
    <g id="xtick_6">
     <g id="line2d_6">
      <path clip-path="url(#pb897538c41)" d="M 692.839574 318.444716 
L 692.839574 21.935625 
" style="fill:none;stroke:#ffffff;stroke-linecap:round;"/>
     </g>
     <g id="text_6">
      <!-- −50 -->
      <g style="fill:#262626;" transform="translate(683.510199 335.81831)scale(0.11 -0.11)">
       <defs>
        <path d="M 4.15625 18.75 
L 13.375 19.53125 
Q 14.40625 12.796875 18.140625 9.390625 
Q 21.875 6 27.15625 6 
Q 33.5 6 37.890625 10.78125 
Q 42.28125 15.578125 42.28125 23.484375 
Q 42.28125 31 38.0625 35.34375 
Q 33.84375 39.703125 27 39.703125 
Q 22.75 39.703125 19.328125 37.765625 
Q 15.921875 35.84375 13.96875 32.765625 
L 5.71875 33.84375 
L 12.640625 70.609375 
L 48.25 70.609375 
L 48.25 62.203125 
L 19.671875 62.203125 
L 15.828125 42.96875 
Q 22.265625 47.46875 29.34375 47.46875 
Q 38.71875 47.46875 45.15625 40.96875 
Q 51.609375 34.46875 51.609375 24.265625 
Q 51.609375 14.546875 45.953125 7.46875 
Q 39.0625 -1.21875 27.15625 -1.21875 
Q 17.390625 -1.21875 11.203125 4.25 
Q 5.03125 9.71875 4.15625 18.75 
z
" id="ArialMT-53"/>
       </defs>
       <use xlink:href="#ArialMT-8722"/>
       <use x="58.398438" xlink:href="#ArialMT-53"/>
       <use x="114.013672" xlink:href="#ArialMT-48"/>
      </g>
     </g>
    </g>
    <g id="text_7">
     <!-- Measured Power -->
     <g style="fill:#262626;" transform="translate(343.124375 350.593935)scale(0.12 -0.12)">
      <defs>
       <path d="M 7.421875 0 
L 7.421875 71.578125 
L 21.6875 71.578125 
L 38.625 20.90625 
Q 40.96875 13.8125 42.046875 10.296875 
Q 43.265625 14.203125 45.84375 21.78125 
L 62.984375 71.578125 
L 75.734375 71.578125 
L 75.734375 0 
L 66.609375 0 
L 66.609375 59.90625 
L 45.796875 0 
L 37.25 0 
L 16.546875 60.9375 
L 16.546875 0 
z
" id="ArialMT-77"/>
       <path d="M 42.09375 16.703125 
L 51.171875 15.578125 
Q 49.03125 7.625 43.21875 3.21875 
Q 37.40625 -1.171875 28.375 -1.171875 
Q 17 -1.171875 10.328125 5.828125 
Q 3.65625 12.84375 3.65625 25.484375 
Q 3.65625 38.578125 10.390625 45.796875 
Q 17.140625 53.03125 27.875 53.03125 
Q 38.28125 53.03125 44.875 45.953125 
Q 51.46875 38.875 51.46875 26.03125 
Q 51.46875 25.25 51.421875 23.6875 
L 12.75 23.6875 
Q 13.234375 15.140625 17.578125 10.59375 
Q 21.921875 6.0625 28.421875 6.0625 
Q 33.25 6.0625 36.671875 8.59375 
Q 40.09375 11.140625 42.09375 16.703125 
z
M 13.234375 30.90625 
L 42.1875 30.90625 
Q 41.609375 37.453125 38.875 40.71875 
Q 34.671875 45.796875 27.984375 45.796875 
Q 21.921875 45.796875 17.796875 41.75 
Q 13.671875 37.703125 13.234375 30.90625 
z
" id="ArialMT-101"/>
       <path d="M 40.4375 6.390625 
Q 35.546875 2.25 31.03125 0.53125 
Q 26.515625 -1.171875 21.34375 -1.171875 
Q 12.796875 -1.171875 8.203125 3 
Q 3.609375 7.171875 3.609375 13.671875 
Q 3.609375 17.484375 5.34375 20.625 
Q 7.078125 23.78125 9.890625 25.6875 
Q 12.703125 27.59375 16.21875 28.5625 
Q 18.796875 29.25 24.03125 29.890625 
Q 34.671875 31.15625 39.703125 32.90625 
Q 39.75 34.71875 39.75 35.203125 
Q 39.75 40.578125 37.25 42.78125 
Q 33.890625 45.75 27.25 45.75 
Q 21.046875 45.75 18.09375 43.578125 
Q 15.140625 41.40625 13.71875 35.890625 
L 5.125 37.0625 
Q 6.296875 42.578125 8.984375 45.96875 
Q 11.671875 49.359375 16.75 51.1875 
Q 21.828125 53.03125 28.515625 53.03125 
Q 35.15625 53.03125 39.296875 51.46875 
Q 43.453125 49.90625 45.40625 47.53125 
Q 47.359375 45.171875 48.140625 41.546875 
Q 48.578125 39.3125 48.578125 33.453125 
L 48.578125 21.734375 
Q 48.578125 9.46875 49.140625 6.21875 
Q 49.703125 2.984375 51.375 0 
L 42.1875 0 
Q 40.828125 2.734375 40.4375 6.390625 
z
M 39.703125 26.03125 
Q 34.90625 24.078125 25.34375 22.703125 
Q 19.921875 21.921875 17.671875 20.9375 
Q 15.4375 19.96875 14.203125 18.09375 
Q 12.984375 16.21875 12.984375 13.921875 
Q 12.984375 10.40625 15.640625 8.0625 
Q 18.3125 5.71875 23.4375 5.71875 
Q 28.515625 5.71875 32.46875 7.9375 
Q 36.421875 10.15625 38.28125 14.015625 
Q 39.703125 17 39.703125 22.796875 
z
" id="ArialMT-97"/>
       <path d="M 3.078125 15.484375 
L 11.765625 16.84375 
Q 12.5 11.625 15.84375 8.84375 
Q 19.1875 6.0625 25.203125 6.0625 
Q 31.25 6.0625 34.171875 8.515625 
Q 37.109375 10.984375 37.109375 14.3125 
Q 37.109375 17.28125 34.515625 19 
Q 32.71875 20.171875 25.53125 21.96875 
Q 15.875 24.421875 12.140625 26.203125 
Q 8.40625 27.984375 6.46875 31.125 
Q 4.546875 34.28125 4.546875 38.09375 
Q 4.546875 41.546875 6.125 44.5 
Q 7.71875 47.46875 10.453125 49.421875 
Q 12.5 50.921875 16.03125 51.96875 
Q 19.578125 53.03125 23.640625 53.03125 
Q 29.734375 53.03125 34.34375 51.265625 
Q 38.96875 49.515625 41.15625 46.5 
Q 43.359375 43.5 44.1875 38.484375 
L 35.59375 37.3125 
Q 35.015625 41.3125 32.203125 43.546875 
Q 29.390625 45.796875 24.265625 45.796875 
Q 18.21875 45.796875 15.625 43.796875 
Q 13.03125 41.796875 13.03125 39.109375 
Q 13.03125 37.40625 14.109375 36.03125 
Q 15.1875 34.625 17.484375 33.6875 
Q 18.796875 33.203125 25.25 31.453125 
Q 34.578125 28.953125 38.25 27.359375 
Q 41.9375 25.78125 44.03125 22.75 
Q 46.140625 19.734375 46.140625 15.234375 
Q 46.140625 10.84375 43.578125 6.953125 
Q 41.015625 3.078125 36.171875 0.953125 
Q 31.34375 -1.171875 25.25 -1.171875 
Q 15.140625 -1.171875 9.84375 3.03125 
Q 4.546875 7.234375 3.078125 15.484375 
z
" id="ArialMT-115"/>
       <path d="M 40.578125 0 
L 40.578125 7.625 
Q 34.515625 -1.171875 24.125 -1.171875 
Q 19.53125 -1.171875 15.546875 0.578125 
Q 11.578125 2.34375 9.640625 5 
Q 7.71875 7.671875 6.9375 11.53125 
Q 6.390625 14.109375 6.390625 19.734375 
L 6.390625 51.859375 
L 15.1875 51.859375 
L 15.1875 23.09375 
Q 15.1875 16.21875 15.71875 13.8125 
Q 16.546875 10.359375 19.234375 8.375 
Q 21.921875 6.390625 25.875 6.390625 
Q 29.828125 6.390625 33.296875 8.421875 
Q 36.765625 10.453125 38.203125 13.9375 
Q 39.65625 17.4375 39.65625 24.078125 
L 39.65625 51.859375 
L 48.4375 51.859375 
L 48.4375 0 
z
" id="ArialMT-117"/>
       <path d="M 6.5 0 
L 6.5 51.859375 
L 14.40625 51.859375 
L 14.40625 44 
Q 17.4375 49.515625 20 51.265625 
Q 22.5625 53.03125 25.640625 53.03125 
Q 30.078125 53.03125 34.671875 50.203125 
L 31.640625 42.046875 
Q 28.421875 43.953125 25.203125 43.953125 
Q 22.3125 43.953125 20.015625 42.21875 
Q 17.71875 40.484375 16.75 37.40625 
Q 15.28125 32.71875 15.28125 27.15625 
L 15.28125 0 
z
" id="ArialMT-114"/>
       <path d="M 40.234375 0 
L 40.234375 6.546875 
Q 35.296875 -1.171875 25.734375 -1.171875 
Q 19.53125 -1.171875 14.328125 2.25 
Q 9.125 5.671875 6.265625 11.796875 
Q 3.421875 17.921875 3.421875 25.875 
Q 3.421875 33.640625 6 39.96875 
Q 8.59375 46.296875 13.765625 49.65625 
Q 18.953125 53.03125 25.34375 53.03125 
Q 30.03125 53.03125 33.6875 51.046875 
Q 37.359375 49.078125 39.65625 45.90625 
L 39.65625 71.578125 
L 48.390625 71.578125 
L 48.390625 0 
z
M 12.453125 25.875 
Q 12.453125 15.921875 16.640625 10.984375 
Q 20.84375 6.0625 26.5625 6.0625 
Q 32.328125 6.0625 36.34375 10.765625 
Q 40.375 15.484375 40.375 25.140625 
Q 40.375 35.796875 36.265625 40.765625 
Q 32.171875 45.75 26.171875 45.75 
Q 20.3125 45.75 16.375 40.96875 
Q 12.453125 36.1875 12.453125 25.875 
z
" id="ArialMT-100"/>
       <path id="ArialMT-32"/>
       <path d="M 7.71875 0 
L 7.71875 71.578125 
L 34.71875 71.578125 
Q 41.84375 71.578125 45.609375 70.90625 
Q 50.875 70.015625 54.4375 67.546875 
Q 58.015625 65.09375 60.1875 60.640625 
Q 62.359375 56.203125 62.359375 50.875 
Q 62.359375 41.75 56.546875 35.421875 
Q 50.734375 29.109375 35.546875 29.109375 
L 17.1875 29.109375 
L 17.1875 0 
z
M 17.1875 37.546875 
L 35.6875 37.546875 
Q 44.875 37.546875 48.734375 40.96875 
Q 52.59375 44.390625 52.59375 50.59375 
Q 52.59375 55.078125 50.3125 58.265625 
Q 48.046875 61.46875 44.34375 62.5 
Q 41.9375 63.140625 35.5 63.140625 
L 17.1875 63.140625 
z
" id="ArialMT-80"/>
       <path d="M 3.328125 25.921875 
Q 3.328125 40.328125 11.328125 47.265625 
Q 18.015625 53.03125 27.640625 53.03125 
Q 38.328125 53.03125 45.109375 46.015625 
Q 51.90625 39.015625 51.90625 26.65625 
Q 51.90625 16.65625 48.90625 10.90625 
Q 45.90625 5.171875 40.15625 2 
Q 34.421875 -1.171875 27.640625 -1.171875 
Q 16.75 -1.171875 10.03125 5.8125 
Q 3.328125 12.796875 3.328125 25.921875 
z
M 12.359375 25.921875 
Q 12.359375 15.96875 16.703125 11.015625 
Q 21.046875 6.0625 27.640625 6.0625 
Q 34.1875 6.0625 38.53125 11.03125 
Q 42.875 16.015625 42.875 26.21875 
Q 42.875 35.84375 38.5 40.796875 
Q 34.125 45.75 27.640625 45.75 
Q 21.046875 45.75 16.703125 40.8125 
Q 12.359375 35.890625 12.359375 25.921875 
z
" id="ArialMT-111"/>
       <path d="M 16.15625 0 
L 0.296875 51.859375 
L 9.375 51.859375 
L 17.625 21.921875 
L 20.703125 10.796875 
Q 20.90625 11.625 23.390625 21.484375 
L 31.640625 51.859375 
L 40.671875 51.859375 
L 48.4375 21.78125 
L 51.03125 11.859375 
L 54 21.875 
L 62.890625 51.859375 
L 71.4375 51.859375 
L 55.21875 0 
L 46.09375 0 
L 37.84375 31.0625 
L 35.84375 39.890625 
L 25.34375 0 
z
" id="ArialMT-119"/>
      </defs>
      <use xlink:href="#ArialMT-77"/>
      <use x="83.300781" xlink:href="#ArialMT-101"/>
      <use x="138.916016" xlink:href="#ArialMT-97"/>
      <use x="194.53125" xlink:href="#ArialMT-115"/>
      <use x="244.53125" xlink:href="#ArialMT-117"/>
      <use x="300.146484" xlink:href="#ArialMT-114"/>
      <use x="333.447266" xlink:href="#ArialMT-101"/>
      <use x="389.0625" xlink:href="#ArialMT-100"/>
      <use x="444.677734" xlink:href="#ArialMT-32"/>
      <use x="472.460938" xlink:href="#ArialMT-80"/>
      <use x="539.160156" xlink:href="#ArialMT-111"/>
      <use x="594.775391" xlink:href="#ArialMT-119"/>
      <use x="666.992188" xlink:href="#ArialMT-101"/>
      <use x="722.607422" xlink:href="#ArialMT-114"/>
     </g>
    </g>
   </g>
   <g id="matplotlib.axis_2">
    <g id="ytick_1">
     <g id="line2d_7">
      <path clip-path="url(#pb897538c41)" d="M 53.675938 318.444716 
L 723.275938 318.444716 
" style="fill:none;stroke:#ffffff;stroke-linecap:round;"/>
     </g>
     <g id="text_8">
      <!-- −2.0 -->
      <g style="fill:#262626;" transform="translate(22.46125 322.381513)scale(0.11 -0.11)">
       <defs>
        <path d="M 50.34375 8.453125 
L 50.34375 0 
L 3.03125 0 
Q 2.9375 3.171875 4.046875 6.109375 
Q 5.859375 10.9375 9.828125 15.625 
Q 13.8125 20.3125 21.34375 26.46875 
Q 33.015625 36.03125 37.109375 41.625 
Q 41.21875 47.21875 41.21875 52.203125 
Q 41.21875 57.421875 37.46875 61 
Q 33.734375 64.59375 27.734375 64.59375 
Q 21.390625 64.59375 17.578125 60.78125 
Q 13.765625 56.984375 13.71875 50.25 
L 4.6875 51.171875 
Q 5.609375 61.28125 11.65625 66.578125 
Q 17.71875 71.875 27.9375 71.875 
Q 38.234375 71.875 44.234375 66.15625 
Q 50.25 60.453125 50.25 52 
Q 50.25 47.703125 48.484375 43.546875 
Q 46.734375 39.40625 42.65625 34.8125 
Q 38.578125 30.21875 29.109375 22.21875 
Q 21.1875 15.578125 18.9375 13.203125 
Q 16.703125 10.84375 15.234375 8.453125 
z
" id="ArialMT-50"/>
        <path d="M 9.078125 0 
L 9.078125 10.015625 
L 19.09375 10.015625 
L 19.09375 0 
z
" id="ArialMT-46"/>
       </defs>
       <use xlink:href="#ArialMT-8722"/>
       <use x="58.398438" xlink:href="#ArialMT-50"/>
       <use x="114.013672" xlink:href="#ArialMT-46"/>
       <use x="141.796875" xlink:href="#ArialMT-48"/>
      </g>
     </g>
    </g>
    <g id="ytick_2">
     <g id="line2d_8">
      <path clip-path="url(#pb897538c41)" d="M 53.675938 281.38108 
L 723.275938 281.38108 
" style="fill:none;stroke:#ffffff;stroke-linecap:round;"/>
     </g>
     <g id="text_9">
      <!-- −1.5 -->
      <g style="fill:#262626;" transform="translate(22.46125 285.317876)scale(0.11 -0.11)">
       <use xlink:href="#ArialMT-8722"/>
       <use x="58.398438" xlink:href="#ArialMT-49"/>
       <use x="114.013672" xlink:href="#ArialMT-46"/>
       <use x="141.796875" xlink:href="#ArialMT-53"/>
      </g>
     </g>
    </g>
    <g id="ytick_3">
     <g id="line2d_9">
      <path clip-path="url(#pb897538c41)" d="M 53.675938 244.317443 
L 723.275938 244.317443 
" style="fill:none;stroke:#ffffff;stroke-linecap:round;"/>
     </g>
     <g id="text_10">
      <!-- −1.0 -->
      <g style="fill:#262626;" transform="translate(22.46125 248.25424)scale(0.11 -0.11)">
       <use xlink:href="#ArialMT-8722"/>
       <use x="58.398438" xlink:href="#ArialMT-49"/>
       <use x="114.013672" xlink:href="#ArialMT-46"/>
       <use x="141.796875" xlink:href="#ArialMT-48"/>
      </g>
     </g>
    </g>
    <g id="ytick_4">
     <g id="line2d_10">
      <path clip-path="url(#pb897538c41)" d="M 53.675938 207.253807 
L 723.275938 207.253807 
" style="fill:none;stroke:#ffffff;stroke-linecap:round;"/>
     </g>
     <g id="text_11">
      <!-- −0.5 -->
      <g style="fill:#262626;" transform="translate(22.46125 211.190604)scale(0.11 -0.11)">
       <use xlink:href="#ArialMT-8722"/>
       <use x="58.398438" xlink:href="#ArialMT-48"/>
       <use x="114.013672" xlink:href="#ArialMT-46"/>
       <use x="141.796875" xlink:href="#ArialMT-53"/>
      </g>
     </g>
    </g>
    <g id="ytick_5">
     <g id="line2d_11">
      <path clip-path="url(#pb897538c41)" d="M 53.675938 170.19017 
L 723.275938 170.19017 
" style="fill:none;stroke:#ffffff;stroke-linecap:round;"/>
     </g>
     <g id="text_12">
      <!-- 0.0 -->
      <g style="fill:#262626;" transform="translate(28.885938 174.126967)scale(0.11 -0.11)">
       <use xlink:href="#ArialMT-48"/>
       <use x="55.615234" xlink:href="#ArialMT-46"/>
       <use x="83.398438" xlink:href="#ArialMT-48"/>
      </g>
     </g>
    </g>
    <g id="ytick_6">
     <g id="line2d_12">
      <path clip-path="url(#pb897538c41)" d="M 53.675938 133.126534 
L 723.275938 133.126534 
" style="fill:none;stroke:#ffffff;stroke-linecap:round;"/>
     </g>
     <g id="text_13">
      <!-- 0.5 -->
      <g style="fill:#262626;" transform="translate(28.885938 137.063331)scale(0.11 -0.11)">
       <use xlink:href="#ArialMT-48"/>
       <use x="55.615234" xlink:href="#ArialMT-46"/>
       <use x="83.398438" xlink:href="#ArialMT-53"/>
      </g>
     </g>
    </g>
    <g id="ytick_7">
     <g id="line2d_13">
      <path clip-path="url(#pb897538c41)" d="M 53.675938 96.062898 
L 723.275938 96.062898 
" style="fill:none;stroke:#ffffff;stroke-linecap:round;"/>
     </g>
     <g id="text_14">
      <!-- 1.0 -->
      <g style="fill:#262626;" transform="translate(28.885938 99.999695)scale(0.11 -0.11)">
       <use xlink:href="#ArialMT-49"/>
       <use x="55.615234" xlink:href="#ArialMT-46"/>
       <use x="83.398438" xlink:href="#ArialMT-48"/>
      </g>
     </g>
    </g>
    <g id="ytick_8">
     <g id="line2d_14">
      <path clip-path="url(#pb897538c41)" d="M 53.675938 58.999261 
L 723.275938 58.999261 
" style="fill:none;stroke:#ffffff;stroke-linecap:round;"/>
     </g>
     <g id="text_15">
      <!-- 1.5 -->
      <g style="fill:#262626;" transform="translate(28.885938 62.936058)scale(0.11 -0.11)">
       <use xlink:href="#ArialMT-49"/>
       <use x="55.615234" xlink:href="#ArialMT-46"/>
       <use x="83.398438" xlink:href="#ArialMT-53"/>
      </g>
     </g>
    </g>
    <g id="ytick_9">
     <g id="line2d_15">
      <path clip-path="url(#pb897538c41)" d="M 53.675938 21.935625 
L 723.275938 21.935625 
" style="fill:none;stroke:#ffffff;stroke-linecap:round;"/>
     </g>
     <g id="text_16">
      <!-- 2.0 -->
      <g style="fill:#262626;" transform="translate(28.885938 25.872422)scale(0.11 -0.11)">
       <use xlink:href="#ArialMT-50"/>
       <use x="55.615234" xlink:href="#ArialMT-46"/>
       <use x="83.398438" xlink:href="#ArialMT-48"/>
      </g>
     </g>
    </g>
    <g id="text_17">
     <!-- Error in Distance Estimation (m) -->
     <g style="fill:#262626;" transform="translate(15.935625 255.205483)rotate(-90)scale(0.12 -0.12)">
      <defs>
       <path d="M 7.90625 0 
L 7.90625 71.578125 
L 59.671875 71.578125 
L 59.671875 63.140625 
L 17.390625 63.140625 
L 17.390625 41.21875 
L 56.984375 41.21875 
L 56.984375 32.8125 
L 17.390625 32.8125 
L 17.390625 8.453125 
L 61.328125 8.453125 
L 61.328125 0 
z
" id="ArialMT-69"/>
       <path d="M 6.640625 61.46875 
L 6.640625 71.578125 
L 15.4375 71.578125 
L 15.4375 61.46875 
z
M 6.640625 0 
L 6.640625 51.859375 
L 15.4375 51.859375 
L 15.4375 0 
z
" id="ArialMT-105"/>
       <path d="M 6.59375 0 
L 6.59375 51.859375 
L 14.5 51.859375 
L 14.5 44.484375 
Q 20.21875 53.03125 31 53.03125 
Q 35.6875 53.03125 39.625 51.34375 
Q 43.5625 49.65625 45.515625 46.921875 
Q 47.46875 44.1875 48.25 40.4375 
Q 48.734375 37.984375 48.734375 31.890625 
L 48.734375 0 
L 39.9375 0 
L 39.9375 31.546875 
Q 39.9375 36.921875 38.90625 39.578125 
Q 37.890625 42.234375 35.28125 43.8125 
Q 32.671875 45.40625 29.15625 45.40625 
Q 23.53125 45.40625 19.453125 41.84375 
Q 15.375 38.28125 15.375 28.328125 
L 15.375 0 
z
" id="ArialMT-110"/>
       <path d="M 7.71875 0 
L 7.71875 71.578125 
L 32.375 71.578125 
Q 40.71875 71.578125 45.125 70.5625 
Q 51.265625 69.140625 55.609375 65.4375 
Q 61.28125 60.640625 64.078125 53.1875 
Q 66.890625 45.75 66.890625 36.1875 
Q 66.890625 28.03125 64.984375 21.734375 
Q 63.09375 15.4375 60.109375 11.296875 
Q 57.125 7.171875 53.578125 4.796875 
Q 50.046875 2.4375 45.046875 1.21875 
Q 40.046875 0 33.546875 0 
z
M 17.1875 8.453125 
L 32.46875 8.453125 
Q 39.546875 8.453125 43.578125 9.765625 
Q 47.609375 11.078125 50 13.484375 
Q 53.375 16.84375 55.25 22.53125 
Q 57.125 28.21875 57.125 36.328125 
Q 57.125 47.5625 53.4375 53.59375 
Q 49.75 59.625 44.484375 61.671875 
Q 40.671875 63.140625 32.234375 63.140625 
L 17.1875 63.140625 
z
" id="ArialMT-68"/>
       <path d="M 25.78125 7.859375 
L 27.046875 0.09375 
Q 23.34375 -0.6875 20.40625 -0.6875 
Q 15.625 -0.6875 12.984375 0.828125 
Q 10.359375 2.34375 9.28125 4.8125 
Q 8.203125 7.28125 8.203125 15.1875 
L 8.203125 45.015625 
L 1.765625 45.015625 
L 1.765625 51.859375 
L 8.203125 51.859375 
L 8.203125 64.703125 
L 16.9375 69.96875 
L 16.9375 51.859375 
L 25.78125 51.859375 
L 25.78125 45.015625 
L 16.9375 45.015625 
L 16.9375 14.703125 
Q 16.9375 10.9375 17.40625 9.859375 
Q 17.875 8.796875 18.921875 8.15625 
Q 19.96875 7.515625 21.921875 7.515625 
Q 23.390625 7.515625 25.78125 7.859375 
z
" id="ArialMT-116"/>
       <path d="M 40.4375 19 
L 49.078125 17.875 
Q 47.65625 8.9375 41.8125 3.875 
Q 35.984375 -1.171875 27.484375 -1.171875 
Q 16.84375 -1.171875 10.375 5.78125 
Q 3.90625 12.75 3.90625 25.734375 
Q 3.90625 34.125 6.6875 40.421875 
Q 9.46875 46.734375 15.15625 49.875 
Q 20.84375 53.03125 27.546875 53.03125 
Q 35.984375 53.03125 41.359375 48.75 
Q 46.734375 44.484375 48.25 36.625 
L 39.703125 35.296875 
Q 38.484375 40.53125 35.375 43.15625 
Q 32.28125 45.796875 27.875 45.796875 
Q 21.234375 45.796875 17.078125 41.03125 
Q 12.9375 36.28125 12.9375 25.984375 
Q 12.9375 15.53125 16.9375 10.796875 
Q 20.953125 6.0625 27.390625 6.0625 
Q 32.5625 6.0625 36.03125 9.234375 
Q 39.5 12.40625 40.4375 19 
z
" id="ArialMT-99"/>
       <path d="M 6.59375 0 
L 6.59375 51.859375 
L 14.453125 51.859375 
L 14.453125 44.578125 
Q 16.890625 48.390625 20.9375 50.703125 
Q 25 53.03125 30.171875 53.03125 
Q 35.9375 53.03125 39.625 50.640625 
Q 43.3125 48.25 44.828125 43.953125 
Q 50.984375 53.03125 60.84375 53.03125 
Q 68.5625 53.03125 72.703125 48.75 
Q 76.859375 44.484375 76.859375 35.59375 
L 76.859375 0 
L 68.109375 0 
L 68.109375 32.671875 
Q 68.109375 37.9375 67.25 40.25 
Q 66.40625 42.578125 64.15625 43.984375 
Q 61.921875 45.40625 58.890625 45.40625 
Q 53.421875 45.40625 49.796875 41.765625 
Q 46.1875 38.140625 46.1875 30.125 
L 46.1875 0 
L 37.40625 0 
L 37.40625 33.6875 
Q 37.40625 39.546875 35.25 42.46875 
Q 33.109375 45.40625 28.21875 45.40625 
Q 24.515625 45.40625 21.359375 43.453125 
Q 18.21875 41.5 16.796875 37.734375 
Q 15.375 33.984375 15.375 26.90625 
L 15.375 0 
z
" id="ArialMT-109"/>
       <path d="M 23.390625 -21.046875 
Q 16.109375 -11.859375 11.078125 0.4375 
Q 6.0625 12.75 6.0625 25.921875 
Q 6.0625 37.546875 9.8125 48.1875 
Q 14.203125 60.546875 23.390625 72.796875 
L 29.6875 72.796875 
Q 23.78125 62.640625 21.875 58.296875 
Q 18.890625 51.5625 17.1875 44.234375 
Q 15.09375 35.109375 15.09375 25.875 
Q 15.09375 2.390625 29.6875 -21.046875 
z
" id="ArialMT-40"/>
       <path d="M 12.359375 -21.046875 
L 6.0625 -21.046875 
Q 20.65625 2.390625 20.65625 25.875 
Q 20.65625 35.0625 18.5625 44.09375 
Q 16.890625 51.421875 13.921875 58.15625 
Q 12.015625 62.546875 6.0625 72.796875 
L 12.359375 72.796875 
Q 21.53125 60.546875 25.921875 48.1875 
Q 29.6875 37.546875 29.6875 25.921875 
Q 29.6875 12.75 24.625 0.4375 
Q 19.578125 -11.859375 12.359375 -21.046875 
z
" id="ArialMT-41"/>
      </defs>
      <use xlink:href="#ArialMT-69"/>
      <use x="66.699219" xlink:href="#ArialMT-114"/>
      <use x="100" xlink:href="#ArialMT-114"/>
      <use x="133.300781" xlink:href="#ArialMT-111"/>
      <use x="188.916016" xlink:href="#ArialMT-114"/>
      <use x="222.216797" xlink:href="#ArialMT-32"/>
      <use x="250" xlink:href="#ArialMT-105"/>
      <use x="272.216797" xlink:href="#ArialMT-110"/>
      <use x="327.832031" xlink:href="#ArialMT-32"/>
      <use x="355.615234" xlink:href="#ArialMT-68"/>
      <use x="427.832031" xlink:href="#ArialMT-105"/>
      <use x="450.048828" xlink:href="#ArialMT-115"/>
      <use x="500.048828" xlink:href="#ArialMT-116"/>
      <use x="527.832031" xlink:href="#ArialMT-97"/>
      <use x="583.447266" xlink:href="#ArialMT-110"/>
      <use x="639.0625" xlink:href="#ArialMT-99"/>
      <use x="689.0625" xlink:href="#ArialMT-101"/>
      <use x="744.677734" xlink:href="#ArialMT-32"/>
      <use x="772.460938" xlink:href="#ArialMT-69"/>
      <use x="839.160156" xlink:href="#ArialMT-115"/>
      <use x="889.160156" xlink:href="#ArialMT-116"/>
      <use x="916.943359" xlink:href="#ArialMT-105"/>
      <use x="939.160156" xlink:href="#ArialMT-109"/>
      <use x="1022.460938" xlink:href="#ArialMT-97"/>
      <use x="1078.076172" xlink:href="#ArialMT-116"/>
      <use x="1105.859375" xlink:href="#ArialMT-105"/>
      <use x="1128.076172" xlink:href="#ArialMT-111"/>
      <use x="1183.691406" xlink:href="#ArialMT-110"/>
      <use x="1239.306641" xlink:href="#ArialMT-32"/>
      <use x="1267.089844" xlink:href="#ArialMT-40"/>
      <use x="1300.390625" xlink:href="#ArialMT-109"/>
      <use x="1383.691406" xlink:href="#ArialMT-41"/>
     </g>
    </g>
   </g>
   <g id="line2d_16">
    <path clip-path="url(#pb897538c41)" d="M 84.112301 136.573032 
L 96.286847 136.993568 
L 108.461392 137.465418 
L 120.635937 137.994842 
L 132.810483 138.588865 
L 144.985028 139.25537 
L 157.159574 140.003202 
L 169.334119 140.842282 
L 181.508665 141.783745 
L 193.68321 142.840085 
L 205.857756 144.025317 
L 218.032301 145.35517 
L 230.206847 146.847289 
L 242.381392 148.521475 
L 254.555937 150.399942 
L 266.730483 152.507616 
L 278.905028 154.872466 
L 291.079574 157.525871 
L 303.254119 160.50304 
L 315.428665 163.843479 
L 327.60321 167.591513 
L 339.777756 171.796877 
L 351.952301 176.515372 
L 364.126847 181.809611 
L 376.301392 187.749845 
L 388.475937 194.414897 
L 400.650483 201.893208 
L 412.825028 210.284012 
L 424.999574 219.698648 
L 437.174119 230.262043 
L 449.348665 242.114368 
L 461.52321 255.412895 
L 473.697756 270.334088 
L 485.872301 287.075942 
L 498.046847 305.86061 
L 510.221392 326.937355 
L 522.395937 350.585852 
L 534.570483 377.119902 
L 546.745028 406.891596 
L 558.919574 440.295985 
L 571.094119 477.776327 
L 583.268665 519.829962 
L 595.44321 567.014917 
L 607.617756 619.957306 
L 619.792301 679.359645 
L 626.665924 716.989844 
" style="fill:none;stroke:#4c72b0;stroke-linecap:round;stroke-width:1.5;"/>
   </g>
   <g id="line2d_17">
    <path clip-path="url(#pb897538c41)" d="M 84.112301 104.461266 
L 96.286847 105.486021 
L 108.461392 106.635816 
L 120.635937 107.925908 
L 132.810483 109.373414 
L 144.985028 110.997542 
L 157.159574 112.819844 
L 169.334119 114.864501 
L 181.508665 117.158644 
L 193.68321 119.732714 
L 205.857756 122.620869 
L 218.032301 125.861431 
L 230.206847 129.497402 
L 242.381392 133.577029 
L 254.555937 138.154445 
L 266.730483 143.29039 
L 278.905028 149.053016 
L 291.079574 155.518788 
L 303.254119 162.773504 
L 315.428665 170.913429 
L 327.60321 180.046576 
L 339.777756 190.294134 
L 351.952301 201.792084 
L 364.126847 214.692996 
L 376.301392 229.168057 
L 388.475937 245.409343 
L 400.650483 263.632365 
L 412.825028 284.078933 
L 424.999574 307.020359 
L 437.174119 332.761062 
L 449.348665 361.642606 
L 461.52321 394.048231 
L 473.697756 430.407941 
L 485.872301 471.204207 
L 498.046847 516.978369 
L 510.221392 568.337825 
L 522.395937 625.964081 
L 534.570483 690.621804 
L 538.995451 716.989844 
" style="fill:none;stroke:#dd8452;stroke-dasharray:6,2.25;stroke-dashoffset:0;stroke-width:1.5;"/>
   </g>
   <g id="line2d_18">
    <path clip-path="url(#pb897538c41)" d="M 84.112301 72.952558 
L 96.286847 74.655117 
L 108.461392 76.565421 
L 120.635937 78.708816 
L 132.810483 81.113746 
L 144.985028 83.812121 
L 157.159574 86.839748 
L 169.334119 90.236801 
L 181.508665 94.048357 
L 193.68321 98.324994 
L 205.857756 103.123459 
L 218.032301 108.507425 
L 230.206847 114.548335 
L 242.381392 121.326347 
L 254.555937 128.931401 
L 266.730483 137.464413 
L 278.905028 147.038609 
L 291.079574 157.781034 
L 303.254119 169.834234 
L 315.428665 183.358146 
L 327.60321 198.532225 
L 339.777756 215.557821 
L 351.952301 234.660854 
L 364.126847 256.094811 
L 376.301392 280.144105 
L 388.475937 307.127857 
L 400.650483 337.404124 
L 412.825028 371.374656 
L 424.999574 409.490218 
L 437.174119 452.256583 
L 449.348665 500.241234 
L 461.52321 554.080897 
L 473.697756 614.489993 
L 485.872301 682.270113 
L 491.430406 716.989844 
" style="fill:none;stroke:#55a868;stroke-dasharray:1.5,1.5;stroke-dashoffset:0;stroke-width:1.5;"/>
   </g>
   <g id="line2d_19">
    <path clip-path="url(#pb897538c41)" d="M 84.112301 46.531459 
L 96.286847 49.532605 
L 108.461392 52.899946 
L 120.635937 56.678164 
L 132.810483 60.917395 
L 144.985028 65.67389 
L 157.159574 71.010766 
L 169.334119 76.998839 
L 181.508665 83.717567 
L 193.68321 91.256104 
L 205.857756 99.714482 
L 218.032301 109.204938 
L 230.206847 119.853404 
L 242.381392 131.801181 
L 254.555937 145.206806 
L 266.730483 160.248165 
L 278.905028 177.124847 
L 291.079574 196.060796 
L 303.254119 217.30728 
L 315.428665 241.146228 
L 327.60321 267.893967 
L 339.777756 297.905423 
L 351.952301 331.578831 
L 364.126847 369.361017 
L 376.301392 411.753326 
L 388.475937 459.31828 
L 400.650483 512.687035 
L 412.825028 572.567764 
L 424.999574 639.755046 
L 437.174119 715.140417 
L 437.440316 716.989844 
" style="fill:none;stroke:#c44e52;stroke-dasharray:4.5,1.875,2.25,1.875;stroke-dashoffset:0;stroke-width:1.5;"/>
   </g>
   <g id="line2d_20">
    <path clip-path="url(#pb897538c41)" d="M 84.112301 15.212732 
L 96.286847 18.914862 
L 108.461392 23.068721 
L 120.635937 27.729428 
L 132.810483 32.958826 
L 144.985028 38.826308 
L 157.159574 45.40973 
L 169.334119 52.796452 
L 181.508665 61.08449 
L 193.68321 70.383821 
L 205.857756 80.817843 
L 218.032301 92.525008 
L 230.206847 105.660663 
L 242.381392 120.39911 
L 254.555937 136.93592 
L 266.730483 155.490526 
L 278.905028 176.309136 
L 291.079574 199.668001 
L 303.254119 225.877079 
L 315.428665 255.284147 
L 327.60321 288.279421 
L 339.777756 325.300727 
L 351.952301 366.839315 
L 364.126847 413.446378 
L 376.301392 465.740362 
L 388.475937 524.415178 
L 400.650483 590.249404 
L 412.825028 664.11662 
L 420.591733 716.989844 
" style="fill:none;stroke:#8172b3;stroke-dasharray:7.5,1.5,1.5,1.5;stroke-dashoffset:0;stroke-width:1.5;"/>
   </g>
   <g id="line2d_21">
    <path clip-path="url(#pb897538c41)" d="M 84.112301 75.146209 
L 96.286847 77.116435 
L 108.461392 79.327064 
L 120.635937 81.807431 
L 132.810483 84.590449 
L 144.985028 87.713046 
L 157.159574 91.216658 
L 169.334119 95.147775 
L 181.508665 99.558561 
L 193.68321 104.507544 
L 205.857756 110.060394 
L 218.032301 116.290794 
L 230.206847 123.281419 
L 242.381392 131.125028 
L 254.555937 139.925703 
L 266.730483 149.800222 
L 278.905028 160.879615 
L 291.079574 173.310898 
L 303.254119 187.259027 
L 315.428665 202.909086 
L 327.60321 220.46874 
L 339.777756 240.170996 
L 351.952301 262.277291 
L 364.126847 287.080962 
L 376.301392 314.911139 
L 388.475937 346.137111 
L 400.650483 381.173227 
L 412.825028 420.484397 
L 424.999574 464.592254 
L 437.174119 514.082084 
L 449.348665 569.610587 
L 461.52321 631.914592 
L 473.697756 701.820835 
L 476.05223 716.989844 
" style="fill:none;stroke:#937860;stroke-dasharray:4.5,1.875,1.875,1.875,1.875,1.875;stroke-dashoffset:0;stroke-width:1.5;"/>
   </g>
   <g id="line2d_22"/>
   <g id="line2d_23"/>
   <g id="line2d_24"/>
   <g id="line2d_25"/>
   <g id="line2d_26"/>
   <g id="line2d_27"/>
   <g id="patch_3">
    <path d="M 53.675938 318.444716 
L 53.675938 21.935625 
" style="fill:none;stroke:#ffffff;stroke-linecap:square;stroke-linejoin:miter;stroke-width:1.25;"/>
   </g>
   <g id="patch_4">
    <path d="M 723.275938 318.444716 
L 723.275938 21.935625 
" style="fill:none;stroke:#ffffff;stroke-linecap:square;stroke-linejoin:miter;stroke-width:1.25;"/>
   </g>
   <g id="patch_5">
    <path d="M 53.675937 318.444716 
L 723.275937 318.444716 
" style="fill:none;stroke:#ffffff;stroke-linecap:square;stroke-linejoin:miter;stroke-width:1.25;"/>
   </g>
   <g id="patch_6">
    <path d="M 53.675937 21.935625 
L 723.275937 21.935625 
" style="fill:none;stroke:#ffffff;stroke-linecap:square;stroke-linejoin:miter;stroke-width:1.25;"/>
   </g>
   <g id="text_18">
    <!-- Comparison of Estimation Accuracy at Different Measured Power (Environment = 2) -->
    <g style="fill:#262626;" transform="translate(166.331562 15.935625)scale(0.12 -0.12)">
     <defs>
      <path d="M 58.796875 25.09375 
L 68.265625 22.703125 
Q 65.28125 11.03125 57.546875 4.90625 
Q 49.8125 -1.21875 38.625 -1.21875 
Q 27.046875 -1.21875 19.796875 3.484375 
Q 12.546875 8.203125 8.765625 17.140625 
Q 4.984375 26.078125 4.984375 36.328125 
Q 4.984375 47.515625 9.25 55.828125 
Q 13.53125 64.15625 21.40625 68.46875 
Q 29.296875 72.796875 38.765625 72.796875 
Q 49.515625 72.796875 56.828125 67.328125 
Q 64.15625 61.859375 67.046875 51.953125 
L 57.71875 49.75 
Q 55.21875 57.5625 50.484375 61.125 
Q 45.75 64.703125 38.578125 64.703125 
Q 30.328125 64.703125 24.78125 60.734375 
Q 19.234375 56.78125 16.984375 50.109375 
Q 14.75 43.453125 14.75 36.375 
Q 14.75 27.25 17.40625 20.4375 
Q 20.0625 13.625 25.671875 10.25 
Q 31.296875 6.890625 37.84375 6.890625 
Q 45.796875 6.890625 51.3125 11.46875 
Q 56.84375 16.0625 58.796875 25.09375 
z
" id="ArialMT-67"/>
      <path d="M 6.59375 -19.875 
L 6.59375 51.859375 
L 14.59375 51.859375 
L 14.59375 45.125 
Q 17.4375 49.078125 21 51.046875 
Q 24.5625 53.03125 29.640625 53.03125 
Q 36.28125 53.03125 41.359375 49.609375 
Q 46.4375 46.1875 49.015625 39.953125 
Q 51.609375 33.734375 51.609375 26.3125 
Q 51.609375 18.359375 48.75 11.984375 
Q 45.90625 5.609375 40.453125 2.21875 
Q 35.015625 -1.171875 29 -1.171875 
Q 24.609375 -1.171875 21.109375 0.6875 
Q 17.625 2.546875 15.375 5.375 
L 15.375 -19.875 
z
M 14.546875 25.640625 
Q 14.546875 15.625 18.59375 10.84375 
Q 22.65625 6.0625 28.421875 6.0625 
Q 34.28125 6.0625 38.453125 11.015625 
Q 42.625 15.96875 42.625 26.375 
Q 42.625 36.28125 38.546875 41.203125 
Q 34.46875 46.140625 28.8125 46.140625 
Q 23.1875 46.140625 18.859375 40.890625 
Q 14.546875 35.640625 14.546875 25.640625 
z
" id="ArialMT-112"/>
      <path d="M 8.6875 0 
L 8.6875 45.015625 
L 0.921875 45.015625 
L 0.921875 51.859375 
L 8.6875 51.859375 
L 8.6875 57.375 
Q 8.6875 62.59375 9.625 65.140625 
Q 10.890625 68.5625 14.078125 70.671875 
Q 17.28125 72.796875 23.046875 72.796875 
Q 26.765625 72.796875 31.25 71.921875 
L 29.9375 64.265625 
Q 27.203125 64.75 24.75 64.75 
Q 20.75 64.75 19.09375 63.03125 
Q 17.4375 61.328125 17.4375 56.640625 
L 17.4375 51.859375 
L 27.546875 51.859375 
L 27.546875 45.015625 
L 17.4375 45.015625 
L 17.4375 0 
z
" id="ArialMT-102"/>
      <path d="M -0.140625 0 
L 27.34375 71.578125 
L 37.546875 71.578125 
L 66.84375 0 
L 56.0625 0 
L 47.703125 21.6875 
L 17.78125 21.6875 
L 9.90625 0 
z
M 20.515625 29.390625 
L 44.78125 29.390625 
L 37.3125 49.21875 
Q 33.890625 58.25 32.234375 64.0625 
Q 30.859375 57.171875 28.375 50.390625 
z
" id="ArialMT-65"/>
      <path d="M 6.203125 -19.96875 
L 5.21875 -11.71875 
Q 8.109375 -12.5 10.25 -12.5 
Q 13.1875 -12.5 14.9375 -11.515625 
Q 16.703125 -10.546875 17.828125 -8.796875 
Q 18.65625 -7.46875 20.515625 -2.25 
Q 20.75 -1.515625 21.296875 -0.09375 
L 1.609375 51.859375 
L 11.078125 51.859375 
L 21.875 21.828125 
Q 23.96875 16.109375 25.640625 9.8125 
Q 27.15625 15.875 29.25 21.625 
L 40.328125 51.859375 
L 49.125 51.859375 
L 29.390625 -0.875 
Q 26.21875 -9.421875 24.46875 -12.640625 
Q 22.125 -17 19.09375 -19.015625 
Q 16.0625 -21.046875 11.859375 -21.046875 
Q 9.328125 -21.046875 6.203125 -19.96875 
z
" id="ArialMT-121"/>
      <path d="M 21 0 
L 1.265625 51.859375 
L 10.546875 51.859375 
L 21.6875 20.796875 
Q 23.484375 15.765625 25 10.359375 
Q 26.171875 14.453125 28.265625 20.21875 
L 39.796875 51.859375 
L 48.828125 51.859375 
L 29.203125 0 
z
" id="ArialMT-118"/>
      <path d="M 52.828125 42.09375 
L 5.5625 42.09375 
L 5.5625 50.296875 
L 52.828125 50.296875 
z
M 52.828125 20.359375 
L 5.5625 20.359375 
L 5.5625 28.5625 
L 52.828125 28.5625 
z
" id="ArialMT-61"/>
     </defs>
     <use xlink:href="#ArialMT-67"/>
     <use x="72.216797" xlink:href="#ArialMT-111"/>
     <use x="127.832031" xlink:href="#ArialMT-109"/>
     <use x="211.132812" xlink:href="#ArialMT-112"/>
     <use x="266.748047" xlink:href="#ArialMT-97"/>
     <use x="322.363281" xlink:href="#ArialMT-114"/>
     <use x="355.664062" xlink:href="#ArialMT-105"/>
     <use x="377.880859" xlink:href="#ArialMT-115"/>
     <use x="427.880859" xlink:href="#ArialMT-111"/>
     <use x="483.496094" xlink:href="#ArialMT-110"/>
     <use x="539.111328" xlink:href="#ArialMT-32"/>
     <use x="566.894531" xlink:href="#ArialMT-111"/>
     <use x="622.509766" xlink:href="#ArialMT-102"/>
     <use x="650.292969" xlink:href="#ArialMT-32"/>
     <use x="678.076172" xlink:href="#ArialMT-69"/>
     <use x="744.775391" xlink:href="#ArialMT-115"/>
     <use x="794.775391" xlink:href="#ArialMT-116"/>
     <use x="822.558594" xlink:href="#ArialMT-105"/>
     <use x="844.775391" xlink:href="#ArialMT-109"/>
     <use x="928.076172" xlink:href="#ArialMT-97"/>
     <use x="983.691406" xlink:href="#ArialMT-116"/>
     <use x="1011.474609" xlink:href="#ArialMT-105"/>
     <use x="1033.691406" xlink:href="#ArialMT-111"/>
     <use x="1089.306641" xlink:href="#ArialMT-110"/>
     <use x="1144.921875" xlink:href="#ArialMT-32"/>
     <use x="1167.205078" xlink:href="#ArialMT-65"/>
     <use x="1233.904297" xlink:href="#ArialMT-99"/>
     <use x="1283.904297" xlink:href="#ArialMT-99"/>
     <use x="1333.904297" xlink:href="#ArialMT-117"/>
     <use x="1389.519531" xlink:href="#ArialMT-114"/>
     <use x="1422.820312" xlink:href="#ArialMT-97"/>
     <use x="1478.435547" xlink:href="#ArialMT-99"/>
     <use x="1528.435547" xlink:href="#ArialMT-121"/>
     <use x="1578.435547" xlink:href="#ArialMT-32"/>
     <use x="1606.21875" xlink:href="#ArialMT-97"/>
     <use x="1661.833984" xlink:href="#ArialMT-116"/>
     <use x="1689.617188" xlink:href="#ArialMT-32"/>
     <use x="1717.400391" xlink:href="#ArialMT-68"/>
     <use x="1789.617188" xlink:href="#ArialMT-105"/>
     <use x="1811.833984" xlink:href="#ArialMT-102"/>
     <use x="1837.867188" xlink:href="#ArialMT-102"/>
     <use x="1865.650391" xlink:href="#ArialMT-101"/>
     <use x="1921.265625" xlink:href="#ArialMT-114"/>
     <use x="1954.566406" xlink:href="#ArialMT-101"/>
     <use x="2010.181641" xlink:href="#ArialMT-110"/>
     <use x="2065.796875" xlink:href="#ArialMT-116"/>
     <use x="2093.580078" xlink:href="#ArialMT-32"/>
     <use x="2121.363281" xlink:href="#ArialMT-77"/>
     <use x="2204.664062" xlink:href="#ArialMT-101"/>
     <use x="2260.279297" xlink:href="#ArialMT-97"/>
     <use x="2315.894531" xlink:href="#ArialMT-115"/>
     <use x="2365.894531" xlink:href="#ArialMT-117"/>
     <use x="2421.509766" xlink:href="#ArialMT-114"/>
     <use x="2454.810547" xlink:href="#ArialMT-101"/>
     <use x="2510.425781" xlink:href="#ArialMT-100"/>
     <use x="2566.041016" xlink:href="#ArialMT-32"/>
     <use x="2593.824219" xlink:href="#ArialMT-80"/>
     <use x="2660.523438" xlink:href="#ArialMT-111"/>
     <use x="2716.138672" xlink:href="#ArialMT-119"/>
     <use x="2788.355469" xlink:href="#ArialMT-101"/>
     <use x="2843.970703" xlink:href="#ArialMT-114"/>
     <use x="2877.271484" xlink:href="#ArialMT-32"/>
     <use x="2905.054688" xlink:href="#ArialMT-40"/>
     <use x="2938.355469" xlink:href="#ArialMT-69"/>
     <use x="3005.054688" xlink:href="#ArialMT-110"/>
     <use x="3060.669922" xlink:href="#ArialMT-118"/>
     <use x="3110.669922" xlink:href="#ArialMT-105"/>
     <use x="3132.886719" xlink:href="#ArialMT-114"/>
     <use x="3166.1875" xlink:href="#ArialMT-111"/>
     <use x="3221.802734" xlink:href="#ArialMT-110"/>
     <use x="3277.417969" xlink:href="#ArialMT-109"/>
     <use x="3360.71875" xlink:href="#ArialMT-101"/>
     <use x="3416.333984" xlink:href="#ArialMT-110"/>
     <use x="3471.949219" xlink:href="#ArialMT-116"/>
     <use x="3499.732422" xlink:href="#ArialMT-32"/>
     <use x="3527.515625" xlink:href="#ArialMT-61"/>
     <use x="3585.914062" xlink:href="#ArialMT-32"/>
     <use x="3613.697266" xlink:href="#ArialMT-50"/>
     <use x="3669.3125" xlink:href="#ArialMT-41"/>
    </g>
   </g>
   <g id="legend_1">
    <g id="patch_7">
     <path d="M 639.600313 124.223594 
L 715.575938 124.223594 
Q 717.775938 124.223594 717.775938 122.023594 
L 717.775938 29.635625 
Q 717.775938 27.435625 715.575938 27.435625 
L 639.600313 27.435625 
Q 637.400313 27.435625 637.400313 29.635625 
L 637.400313 122.023594 
Q 637.400313 124.223594 639.600313 124.223594 
z
" style="fill:#eaeaf2;opacity:0.8;stroke:#cccccc;stroke-linejoin:miter;"/>
    </g>
    <g id="line2d_28">
     <path d="M 641.800313 35.859219 
L 663.800313 35.859219 
" style="fill:none;stroke:#4c72b0;stroke-linecap:round;stroke-width:1.5;"/>
    </g>
    <g id="line2d_29"/>
    <g id="text_19">
     <!-- 0.5m -->
     <g style="fill:#262626;" transform="translate(672.600312 39.709219)scale(0.11 -0.11)">
      <use xlink:href="#ArialMT-48"/>
      <use x="55.615234" xlink:href="#ArialMT-46"/>
      <use x="83.398438" xlink:href="#ArialMT-53"/>
      <use x="139.013672" xlink:href="#ArialMT-109"/>
     </g>
    </g>
    <g id="line2d_30">
     <path d="M 641.800313 51.419063 
L 663.800313 51.419063 
" style="fill:none;stroke:#dd8452;stroke-dasharray:6,2.25;stroke-dashoffset:0;stroke-width:1.5;"/>
    </g>
    <g id="line2d_31"/>
    <g id="text_20">
     <!-- 1.0m -->
     <g style="fill:#262626;" transform="translate(672.600312 55.269063)scale(0.11 -0.11)">
      <use xlink:href="#ArialMT-49"/>
      <use x="55.615234" xlink:href="#ArialMT-46"/>
      <use x="83.398438" xlink:href="#ArialMT-48"/>
      <use x="139.013672" xlink:href="#ArialMT-109"/>
     </g>
    </g>
    <g id="line2d_32">
     <path d="M 641.800313 66.978906 
L 663.800313 66.978906 
" style="fill:none;stroke:#55a868;stroke-dasharray:1.5,1.5;stroke-dashoffset:0;stroke-width:1.5;"/>
    </g>
    <g id="line2d_33"/>
    <g id="text_21">
     <!-- 1.5m -->
     <g style="fill:#262626;" transform="translate(672.600312 70.828906)scale(0.11 -0.11)">
      <use xlink:href="#ArialMT-49"/>
      <use x="55.615234" xlink:href="#ArialMT-46"/>
      <use x="83.398438" xlink:href="#ArialMT-53"/>
      <use x="139.013672" xlink:href="#ArialMT-109"/>
     </g>
    </g>
    <g id="line2d_34">
     <path d="M 641.800313 82.53875 
L 663.800313 82.53875 
" style="fill:none;stroke:#c44e52;stroke-dasharray:4.5,1.875,2.25,1.875;stroke-dashoffset:0;stroke-width:1.5;"/>
    </g>
    <g id="line2d_35"/>
    <g id="text_22">
     <!-- 2.0m -->
     <g style="fill:#262626;" transform="translate(672.600312 86.38875)scale(0.11 -0.11)">
      <use xlink:href="#ArialMT-50"/>
      <use x="55.615234" xlink:href="#ArialMT-46"/>
      <use x="83.398438" xlink:href="#ArialMT-48"/>
      <use x="139.013672" xlink:href="#ArialMT-109"/>
     </g>
    </g>
    <g id="line2d_36">
     <path d="M 641.800313 98.098594 
L 663.800313 98.098594 
" style="fill:none;stroke:#8172b3;stroke-dasharray:7.5,1.5,1.5,1.5;stroke-dashoffset:0;stroke-width:1.5;"/>
    </g>
    <g id="line2d_37"/>
    <g id="text_23">
     <!-- 2.5m -->
     <g style="fill:#262626;" transform="translate(672.600312 101.948594)scale(0.11 -0.11)">
      <use xlink:href="#ArialMT-50"/>
      <use x="55.615234" xlink:href="#ArialMT-46"/>
      <use x="83.398438" xlink:href="#ArialMT-53"/>
      <use x="139.013672" xlink:href="#ArialMT-109"/>
     </g>
    </g>
    <g id="line2d_38">
     <path d="M 641.800313 113.658438 
L 663.800313 113.658438 
" style="fill:none;stroke:#937860;stroke-dasharray:4.5,1.875,1.875,1.875,1.875,1.875;stroke-dashoffset:0;stroke-width:1.5;"/>
    </g>
    <g id="line2d_39"/>
    <g id="text_24">
     <!-- Average -->
     <g style="fill:#262626;" transform="translate(672.600312 117.508438)scale(0.11 -0.11)">
      <defs>
       <path d="M 4.984375 -4.296875 
L 13.53125 -5.5625 
Q 14.0625 -9.515625 16.5 -11.328125 
Q 19.78125 -13.765625 25.4375 -13.765625 
Q 31.546875 -13.765625 34.859375 -11.328125 
Q 38.1875 -8.890625 39.359375 -4.5 
Q 40.046875 -1.8125 39.984375 6.78125 
Q 34.234375 0 25.640625 0 
Q 14.9375 0 9.078125 7.71875 
Q 3.21875 15.4375 3.21875 26.21875 
Q 3.21875 33.640625 5.90625 39.90625 
Q 8.59375 46.1875 13.6875 49.609375 
Q 18.796875 53.03125 25.6875 53.03125 
Q 34.859375 53.03125 40.828125 45.609375 
L 40.828125 51.859375 
L 48.921875 51.859375 
L 48.921875 7.03125 
Q 48.921875 -5.078125 46.453125 -10.125 
Q 44 -15.1875 38.640625 -18.109375 
Q 33.296875 -21.046875 25.484375 -21.046875 
Q 16.21875 -21.046875 10.5 -16.875 
Q 4.78125 -12.703125 4.984375 -4.296875 
z
M 12.25 26.859375 
Q 12.25 16.65625 16.296875 11.96875 
Q 20.359375 7.28125 26.46875 7.28125 
Q 32.515625 7.28125 36.609375 11.9375 
Q 40.71875 16.609375 40.71875 26.5625 
Q 40.71875 36.078125 36.5 40.90625 
Q 32.28125 45.75 26.3125 45.75 
Q 20.453125 45.75 16.34375 40.984375 
Q 12.25 36.234375 12.25 26.859375 
z
" id="ArialMT-103"/>
      </defs>
      <use xlink:href="#ArialMT-65"/>
      <use x="64.949219" xlink:href="#ArialMT-118"/>
      <use x="114.949219" xlink:href="#ArialMT-101"/>
      <use x="170.564453" xlink:href="#ArialMT-114"/>
      <use x="203.865234" xlink:href="#ArialMT-97"/>
      <use x="259.480469" xlink:href="#ArialMT-103"/>
      <use x="315.095703" xlink:href="#ArialMT-101"/>
     </g>
    </g>
   </g>
  </g>
  <g id="axes_2">
   <g id="patch_8">
    <path d="M 53.675938 674.255625 
L 723.275938 674.255625 
L 723.275938 377.746534 
L 53.675938 377.746534 
z
" style="fill:#eaeaf2;"/>
   </g>
   <g id="matplotlib.axis_3">
    <g id="xtick_7">
     <g id="line2d_40">
      <path clip-path="url(#pad28c8c60f)" d="M 84.112301 674.255625 
L 84.112301 377.746534 
" style="fill:none;stroke:#ffffff;stroke-linecap:round;"/>
     </g>
     <g id="text_25">
      <!-- −100 -->
      <g style="fill:#262626;" transform="translate(71.724411 691.629219)scale(0.11 -0.11)">
       <use xlink:href="#ArialMT-8722"/>
       <use x="58.398438" xlink:href="#ArialMT-49"/>
       <use x="114.013672" xlink:href="#ArialMT-48"/>
       <use x="169.628906" xlink:href="#ArialMT-48"/>
      </g>
     </g>
    </g>
    <g id="xtick_8">
     <g id="line2d_41">
      <path clip-path="url(#pad28c8c60f)" d="M 205.857756 674.255625 
L 205.857756 377.746534 
" style="fill:none;stroke:#ffffff;stroke-linecap:round;"/>
     </g>
     <g id="text_26">
      <!-- −90 -->
      <g style="fill:#262626;" transform="translate(196.528381 691.629219)scale(0.11 -0.11)">
       <use xlink:href="#ArialMT-8722"/>
       <use x="58.398438" xlink:href="#ArialMT-57"/>
       <use x="114.013672" xlink:href="#ArialMT-48"/>
      </g>
     </g>
    </g>
    <g id="xtick_9">
     <g id="line2d_42">
      <path clip-path="url(#pad28c8c60f)" d="M 327.60321 674.255625 
L 327.60321 377.746534 
" style="fill:none;stroke:#ffffff;stroke-linecap:round;"/>
     </g>
     <g id="text_27">
      <!-- −80 -->
      <g style="fill:#262626;" transform="translate(318.273835 691.629219)scale(0.11 -0.11)">
       <use xlink:href="#ArialMT-8722"/>
       <use x="58.398438" xlink:href="#ArialMT-56"/>
       <use x="114.013672" xlink:href="#ArialMT-48"/>
      </g>
     </g>
    </g>
    <g id="xtick_10">
     <g id="line2d_43">
      <path clip-path="url(#pad28c8c60f)" d="M 449.348665 674.255625 
L 449.348665 377.746534 
" style="fill:none;stroke:#ffffff;stroke-linecap:round;"/>
     </g>
     <g id="text_28">
      <!-- −70 -->
      <g style="fill:#262626;" transform="translate(440.01929 691.629219)scale(0.11 -0.11)">
       <use xlink:href="#ArialMT-8722"/>
       <use x="58.398438" xlink:href="#ArialMT-55"/>
       <use x="114.013672" xlink:href="#ArialMT-48"/>
      </g>
     </g>
    </g>
    <g id="xtick_11">
     <g id="line2d_44">
      <path clip-path="url(#pad28c8c60f)" d="M 571.094119 674.255625 
L 571.094119 377.746534 
" style="fill:none;stroke:#ffffff;stroke-linecap:round;"/>
     </g>
     <g id="text_29">
      <!-- −60 -->
      <g style="fill:#262626;" transform="translate(561.764744 691.629219)scale(0.11 -0.11)">
       <use xlink:href="#ArialMT-8722"/>
       <use x="58.398438" xlink:href="#ArialMT-54"/>
       <use x="114.013672" xlink:href="#ArialMT-48"/>
      </g>
     </g>
    </g>
    <g id="xtick_12">
     <g id="line2d_45">
      <path clip-path="url(#pad28c8c60f)" d="M 692.839574 674.255625 
L 692.839574 377.746534 
" style="fill:none;stroke:#ffffff;stroke-linecap:round;"/>
     </g>
     <g id="text_30">
      <!-- −50 -->
      <g style="fill:#262626;" transform="translate(683.510199 691.629219)scale(0.11 -0.11)">
       <use xlink:href="#ArialMT-8722"/>
       <use x="58.398438" xlink:href="#ArialMT-53"/>
       <use x="114.013672" xlink:href="#ArialMT-48"/>
      </g>
     </g>
    </g>
    <g id="text_31">
     <!-- Measured Power -->
     <g style="fill:#262626;" transform="translate(343.124375 706.404844)scale(0.12 -0.12)">
      <use xlink:href="#ArialMT-77"/>
      <use x="83.300781" xlink:href="#ArialMT-101"/>
      <use x="138.916016" xlink:href="#ArialMT-97"/>
      <use x="194.53125" xlink:href="#ArialMT-115"/>
      <use x="244.53125" xlink:href="#ArialMT-117"/>
      <use x="300.146484" xlink:href="#ArialMT-114"/>
      <use x="333.447266" xlink:href="#ArialMT-101"/>
      <use x="389.0625" xlink:href="#ArialMT-100"/>
      <use x="444.677734" xlink:href="#ArialMT-32"/>
      <use x="472.460938" xlink:href="#ArialMT-80"/>
      <use x="539.160156" xlink:href="#ArialMT-111"/>
      <use x="594.775391" xlink:href="#ArialMT-119"/>
      <use x="666.992188" xlink:href="#ArialMT-101"/>
      <use x="722.607422" xlink:href="#ArialMT-114"/>
     </g>
    </g>
   </g>
   <g id="matplotlib.axis_4">
    <g id="ytick_10">
     <g id="line2d_46">
      <path clip-path="url(#pad28c8c60f)" d="M 53.675938 674.255625 
L 723.275938 674.255625 
" style="fill:none;stroke:#ffffff;stroke-linecap:round;"/>
     </g>
     <g id="text_32">
      <!-- −2.0 -->
      <g style="fill:#262626;" transform="translate(22.46125 678.192422)scale(0.11 -0.11)">
       <use xlink:href="#ArialMT-8722"/>
       <use x="58.398438" xlink:href="#ArialMT-50"/>
       <use x="114.013672" xlink:href="#ArialMT-46"/>
       <use x="141.796875" xlink:href="#ArialMT-48"/>
      </g>
     </g>
    </g>
    <g id="ytick_11">
     <g id="line2d_47">
      <path clip-path="url(#pad28c8c60f)" d="M 53.675938 637.191989 
L 723.275938 637.191989 
" style="fill:none;stroke:#ffffff;stroke-linecap:round;"/>
     </g>
     <g id="text_33">
      <!-- −1.5 -->
      <g style="fill:#262626;" transform="translate(22.46125 641.128786)scale(0.11 -0.11)">
       <use xlink:href="#ArialMT-8722"/>
       <use x="58.398438" xlink:href="#ArialMT-49"/>
       <use x="114.013672" xlink:href="#ArialMT-46"/>
       <use x="141.796875" xlink:href="#ArialMT-53"/>
      </g>
     </g>
    </g>
    <g id="ytick_12">
     <g id="line2d_48">
      <path clip-path="url(#pad28c8c60f)" d="M 53.675938 600.128352 
L 723.275938 600.128352 
" style="fill:none;stroke:#ffffff;stroke-linecap:round;"/>
     </g>
     <g id="text_34">
      <!-- −1.0 -->
      <g style="fill:#262626;" transform="translate(22.46125 604.065149)scale(0.11 -0.11)">
       <use xlink:href="#ArialMT-8722"/>
       <use x="58.398438" xlink:href="#ArialMT-49"/>
       <use x="114.013672" xlink:href="#ArialMT-46"/>
       <use x="141.796875" xlink:href="#ArialMT-48"/>
      </g>
     </g>
    </g>
    <g id="ytick_13">
     <g id="line2d_49">
      <path clip-path="url(#pad28c8c60f)" d="M 53.675938 563.064716 
L 723.275938 563.064716 
" style="fill:none;stroke:#ffffff;stroke-linecap:round;"/>
     </g>
     <g id="text_35">
      <!-- −0.5 -->
      <g style="fill:#262626;" transform="translate(22.46125 567.001513)scale(0.11 -0.11)">
       <use xlink:href="#ArialMT-8722"/>
       <use x="58.398438" xlink:href="#ArialMT-48"/>
       <use x="114.013672" xlink:href="#ArialMT-46"/>
       <use x="141.796875" xlink:href="#ArialMT-53"/>
      </g>
     </g>
    </g>
    <g id="ytick_14">
     <g id="line2d_50">
      <path clip-path="url(#pad28c8c60f)" d="M 53.675938 526.00108 
L 723.275938 526.00108 
" style="fill:none;stroke:#ffffff;stroke-linecap:round;"/>
     </g>
     <g id="text_36">
      <!-- 0.0 -->
      <g style="fill:#262626;" transform="translate(28.885938 529.937876)scale(0.11 -0.11)">
       <use xlink:href="#ArialMT-48"/>
       <use x="55.615234" xlink:href="#ArialMT-46"/>
       <use x="83.398438" xlink:href="#ArialMT-48"/>
      </g>
     </g>
    </g>
    <g id="ytick_15">
     <g id="line2d_51">
      <path clip-path="url(#pad28c8c60f)" d="M 53.675938 488.937443 
L 723.275938 488.937443 
" style="fill:none;stroke:#ffffff;stroke-linecap:round;"/>
     </g>
     <g id="text_37">
      <!-- 0.5 -->
      <g style="fill:#262626;" transform="translate(28.885938 492.87424)scale(0.11 -0.11)">
       <use xlink:href="#ArialMT-48"/>
       <use x="55.615234" xlink:href="#ArialMT-46"/>
       <use x="83.398438" xlink:href="#ArialMT-53"/>
      </g>
     </g>
    </g>
    <g id="ytick_16">
     <g id="line2d_52">
      <path clip-path="url(#pad28c8c60f)" d="M 53.675938 451.873807 
L 723.275938 451.873807 
" style="fill:none;stroke:#ffffff;stroke-linecap:round;"/>
     </g>
     <g id="text_38">
      <!-- 1.0 -->
      <g style="fill:#262626;" transform="translate(28.885938 455.810604)scale(0.11 -0.11)">
       <use xlink:href="#ArialMT-49"/>
       <use x="55.615234" xlink:href="#ArialMT-46"/>
       <use x="83.398438" xlink:href="#ArialMT-48"/>
      </g>
     </g>
    </g>
    <g id="ytick_17">
     <g id="line2d_53">
      <path clip-path="url(#pad28c8c60f)" d="M 53.675938 414.81017 
L 723.275938 414.81017 
" style="fill:none;stroke:#ffffff;stroke-linecap:round;"/>
     </g>
     <g id="text_39">
      <!-- 1.5 -->
      <g style="fill:#262626;" transform="translate(28.885938 418.746967)scale(0.11 -0.11)">
       <use xlink:href="#ArialMT-49"/>
       <use x="55.615234" xlink:href="#ArialMT-46"/>
       <use x="83.398438" xlink:href="#ArialMT-53"/>
      </g>
     </g>
    </g>
    <g id="ytick_18">
     <g id="line2d_54">
      <path clip-path="url(#pad28c8c60f)" d="M 53.675938 377.746534 
L 723.275938 377.746534 
" style="fill:none;stroke:#ffffff;stroke-linecap:round;"/>
     </g>
     <g id="text_40">
      <!-- 2.0 -->
      <g style="fill:#262626;" transform="translate(28.885938 381.683331)scale(0.11 -0.11)">
       <use xlink:href="#ArialMT-50"/>
       <use x="55.615234" xlink:href="#ArialMT-46"/>
       <use x="83.398438" xlink:href="#ArialMT-48"/>
      </g>
     </g>
    </g>
    <g id="text_41">
     <!-- Absolute Error in Distance Estimation (m) -->
     <g style="fill:#262626;" transform="translate(15.935625 636.031705)rotate(-90)scale(0.12 -0.12)">
      <defs>
       <path d="M 14.703125 0 
L 6.546875 0 
L 6.546875 71.578125 
L 15.328125 71.578125 
L 15.328125 46.046875 
Q 20.90625 53.03125 29.546875 53.03125 
Q 34.328125 53.03125 38.59375 51.09375 
Q 42.875 49.171875 45.625 45.671875 
Q 48.390625 42.1875 49.953125 37.25 
Q 51.515625 32.328125 51.515625 26.703125 
Q 51.515625 13.375 44.921875 6.09375 
Q 38.328125 -1.171875 29.109375 -1.171875 
Q 19.921875 -1.171875 14.703125 6.5 
z
M 14.59375 26.3125 
Q 14.59375 17 17.140625 12.84375 
Q 21.296875 6.0625 28.375 6.0625 
Q 34.125 6.0625 38.328125 11.0625 
Q 42.53125 16.0625 42.53125 25.984375 
Q 42.53125 36.140625 38.5 40.96875 
Q 34.46875 45.796875 28.765625 45.796875 
Q 23 45.796875 18.796875 40.796875 
Q 14.59375 35.796875 14.59375 26.3125 
z
" id="ArialMT-98"/>
       <path d="M 6.390625 0 
L 6.390625 71.578125 
L 15.1875 71.578125 
L 15.1875 0 
z
" id="ArialMT-108"/>
      </defs>
      <use xlink:href="#ArialMT-65"/>
      <use x="66.699219" xlink:href="#ArialMT-98"/>
      <use x="122.314453" xlink:href="#ArialMT-115"/>
      <use x="172.314453" xlink:href="#ArialMT-111"/>
      <use x="227.929688" xlink:href="#ArialMT-108"/>
      <use x="250.146484" xlink:href="#ArialMT-117"/>
      <use x="305.761719" xlink:href="#ArialMT-116"/>
      <use x="333.544922" xlink:href="#ArialMT-101"/>
      <use x="389.160156" xlink:href="#ArialMT-32"/>
      <use x="416.943359" xlink:href="#ArialMT-69"/>
      <use x="483.642578" xlink:href="#ArialMT-114"/>
      <use x="516.943359" xlink:href="#ArialMT-114"/>
      <use x="550.244141" xlink:href="#ArialMT-111"/>
      <use x="605.859375" xlink:href="#ArialMT-114"/>
      <use x="639.160156" xlink:href="#ArialMT-32"/>
      <use x="666.943359" xlink:href="#ArialMT-105"/>
      <use x="689.160156" xlink:href="#ArialMT-110"/>
      <use x="744.775391" xlink:href="#ArialMT-32"/>
      <use x="772.558594" xlink:href="#ArialMT-68"/>
      <use x="844.775391" xlink:href="#ArialMT-105"/>
      <use x="866.992188" xlink:href="#ArialMT-115"/>
      <use x="916.992188" xlink:href="#ArialMT-116"/>
      <use x="944.775391" xlink:href="#ArialMT-97"/>
      <use x="1000.390625" xlink:href="#ArialMT-110"/>
      <use x="1056.005859" xlink:href="#ArialMT-99"/>
      <use x="1106.005859" xlink:href="#ArialMT-101"/>
      <use x="1161.621094" xlink:href="#ArialMT-32"/>
      <use x="1189.404297" xlink:href="#ArialMT-69"/>
      <use x="1256.103516" xlink:href="#ArialMT-115"/>
      <use x="1306.103516" xlink:href="#ArialMT-116"/>
      <use x="1333.886719" xlink:href="#ArialMT-105"/>
      <use x="1356.103516" xlink:href="#ArialMT-109"/>
      <use x="1439.404297" xlink:href="#ArialMT-97"/>
      <use x="1495.019531" xlink:href="#ArialMT-116"/>
      <use x="1522.802734" xlink:href="#ArialMT-105"/>
      <use x="1545.019531" xlink:href="#ArialMT-111"/>
      <use x="1600.634766" xlink:href="#ArialMT-110"/>
      <use x="1656.25" xlink:href="#ArialMT-32"/>
      <use x="1684.033203" xlink:href="#ArialMT-40"/>
      <use x="1717.333984" xlink:href="#ArialMT-109"/>
      <use x="1800.634766" xlink:href="#ArialMT-41"/>
     </g>
    </g>
   </g>
   <g id="line2d_55">
    <path clip-path="url(#pad28c8c60f)" d="M 84.112301 492.383941 
L 96.286847 492.804477 
L 108.461392 493.276327 
L 120.635937 493.805751 
L 132.810483 494.399774 
L 144.985028 495.066279 
L 157.159574 495.814111 
L 169.334119 496.653191 
L 181.508665 497.594655 
L 193.68321 498.650994 
L 205.857756 499.836227 
L 218.032301 501.166079 
L 230.206847 502.658199 
L 242.381392 504.332384 
L 254.555937 506.210851 
L 266.730483 508.318525 
L 278.905028 510.683375 
L 291.079574 513.33678 
L 303.254119 516.313949 
L 315.428665 519.654388 
L 327.60321 523.402422 
L 339.777756 524.394373 
L 351.952301 519.675878 
L 364.126847 514.381639 
L 376.301392 508.441405 
L 388.475937 501.776353 
L 400.650483 494.298042 
L 412.825028 485.907238 
L 424.999574 476.492602 
L 437.174119 465.929207 
L 449.348665 454.076882 
L 461.52321 440.778355 
L 473.697756 425.857162 
L 485.872301 409.115308 
L 498.046847 390.33064 
L 510.221392 369.253895 
L 522.395937 345.605398 
L 534.570483 319.071348 
L 546.745028 289.299654 
L 558.919574 255.895265 
L 571.094119 218.414923 
L 583.268665 176.361288 
L 595.44321 129.176333 
L 607.617756 76.233944 
L 619.792301 16.831605 
L 623.049465 -1 
" style="fill:none;stroke:#4c72b0;stroke-linecap:round;stroke-width:1.5;"/>
   </g>
   <g id="line2d_56">
    <path clip-path="url(#pad28c8c60f)" d="M 84.112301 460.272175 
L 96.286847 461.29693 
L 108.461392 462.446725 
L 120.635937 463.736817 
L 132.810483 465.184323 
L 144.985028 466.808451 
L 157.159574 468.630754 
L 169.334119 470.67541 
L 181.508665 472.969553 
L 193.68321 475.543623 
L 205.857756 478.431778 
L 218.032301 481.67234 
L 230.206847 485.308311 
L 242.381392 489.387938 
L 254.555937 493.965354 
L 266.730483 499.1013 
L 278.905028 504.863925 
L 291.079574 511.329697 
L 303.254119 518.584413 
L 315.428665 525.277821 
L 327.60321 516.144674 
L 339.777756 505.897116 
L 351.952301 494.399166 
L 364.126847 481.498254 
L 376.301392 467.023193 
L 388.475937 450.781907 
L 400.650483 432.558885 
L 412.825028 412.112317 
L 424.999574 389.170891 
L 437.174119 363.430188 
L 449.348665 334.548644 
L 461.52321 302.143019 
L 473.697756 265.783309 
L 485.872301 224.987043 
L 498.046847 179.212881 
L 510.221392 127.853425 
L 522.395937 70.227169 
L 534.570483 5.569446 
L 535.672938 -1 
" style="fill:none;stroke:#dd8452;stroke-dasharray:6,2.25;stroke-dashoffset:0;stroke-width:1.5;"/>
   </g>
   <g id="line2d_57">
    <path clip-path="url(#pad28c8c60f)" d="M 84.112301 428.763467 
L 96.286847 430.466026 
L 108.461392 432.37633 
L 120.635937 434.519725 
L 132.810483 436.924655 
L 144.985028 439.62303 
L 157.159574 442.650657 
L 169.334119 446.04771 
L 181.508665 449.859266 
L 193.68321 454.135903 
L 205.857756 458.934368 
L 218.032301 464.318334 
L 230.206847 470.359244 
L 242.381392 477.137256 
L 254.555937 484.74231 
L 266.730483 493.275322 
L 278.905028 502.849518 
L 291.079574 513.591944 
L 303.254119 525.645143 
L 315.428665 512.833104 
L 327.60321 497.659025 
L 339.777756 480.633429 
L 351.952301 461.530396 
L 364.126847 440.096439 
L 376.301392 416.047145 
L 388.475937 389.063393 
L 400.650483 358.787126 
L 412.825028 324.816594 
L 424.999574 286.701032 
L 437.174119 243.934667 
L 449.348665 195.950016 
L 461.52321 142.110353 
L 473.697756 81.701257 
L 485.872301 13.921137 
L 488.26095 -1 
" style="fill:none;stroke:#55a868;stroke-dasharray:1.5,1.5;stroke-dashoffset:0;stroke-width:1.5;"/>
   </g>
   <g id="line2d_58">
    <path clip-path="url(#pad28c8c60f)" d="M 84.112301 402.342368 
L 96.286847 405.343514 
L 108.461392 408.710855 
L 120.635937 412.489073 
L 132.810483 416.728304 
L 144.985028 421.4848 
L 157.159574 426.821675 
L 169.334119 432.809748 
L 181.508665 439.528476 
L 193.68321 447.067013 
L 205.857756 455.525391 
L 218.032301 465.015847 
L 230.206847 475.664314 
L 242.381392 487.61209 
L 254.555937 501.017715 
L 266.730483 516.059074 
L 278.905028 519.066403 
L 291.079574 500.130454 
L 303.254119 478.88397 
L 315.428665 455.045022 
L 327.60321 428.297283 
L 339.777756 398.285827 
L 351.952301 364.612419 
L 364.126847 326.830233 
L 376.301392 284.437924 
L 388.475937 236.87297 
L 400.650483 183.504215 
L 412.825028 123.623486 
L 424.999574 56.436204 
L 434.275375 -1 
" style="fill:none;stroke:#c44e52;stroke-dasharray:4.5,1.875,2.25,1.875;stroke-dashoffset:0;stroke-width:1.5;"/>
   </g>
   <g id="line2d_59">
    <path clip-path="url(#pad28c8c60f)" d="M 84.112301 371.023641 
L 96.286847 374.725772 
L 108.461392 378.87963 
L 120.635937 383.540337 
L 132.810483 388.769735 
L 144.985028 394.637217 
L 157.159574 401.220639 
L 169.334119 408.607361 
L 181.508665 416.895399 
L 193.68321 426.19473 
L 205.857756 436.628752 
L 218.032301 448.335917 
L 230.206847 461.471572 
L 242.381392 476.210019 
L 254.555937 492.746829 
L 266.730483 511.301435 
L 278.905028 519.882114 
L 291.079574 496.523249 
L 303.254119 470.314171 
L 315.428665 440.907103 
L 327.60321 407.911829 
L 339.777756 370.890523 
L 351.952301 329.351935 
L 364.126847 282.744872 
L 376.301392 230.450888 
L 388.475937 171.776072 
L 400.650483 105.941846 
L 412.825028 32.07463 
L 417.683459 -1 
" style="fill:none;stroke:#8172b3;stroke-dasharray:7.5,1.5,1.5,1.5;stroke-dashoffset:0;stroke-width:1.5;"/>
   </g>
   <g id="line2d_60">
    <path clip-path="url(#pad28c8c60f)" d="M 84.112301 430.957118 
L 96.286847 432.927344 
L 108.461392 435.137973 
L 120.635937 437.618341 
L 132.810483 440.401358 
L 144.985028 443.523955 
L 157.159574 447.027567 
L 169.334119 450.958684 
L 181.508665 455.36947 
L 193.68321 460.318453 
L 205.857756 465.871303 
L 218.032301 472.101703 
L 230.206847 479.092328 
L 242.381392 486.935937 
L 254.555937 495.736612 
L 266.730483 505.611131 
L 278.905028 516.690524 
L 291.079574 522.880352 
L 303.254119 508.932223 
L 315.428665 493.282164 
L 327.60321 475.72251 
L 339.777756 456.020254 
L 351.952301 433.913959 
L 364.126847 409.110288 
L 376.301392 381.280111 
L 388.475937 350.054139 
L 400.650483 315.018023 
L 412.825028 275.706853 
L 424.999574 231.598996 
L 437.174119 182.109166 
L 449.348665 126.580663 
L 461.52321 64.276658 
L 472.891489 -1 
" style="fill:none;stroke:#937860;stroke-dasharray:4.5,1.875,1.875,1.875,1.875,1.875;stroke-dashoffset:0;stroke-width:1.5;"/>
   </g>
   <g id="line2d_61"/>
   <g id="line2d_62"/>
   <g id="line2d_63"/>
   <g id="line2d_64"/>
   <g id="line2d_65"/>
   <g id="line2d_66"/>
   <g id="patch_9">
    <path d="M 53.675938 674.255625 
L 53.675938 377.746534 
" style="fill:none;stroke:#ffffff;stroke-linecap:square;stroke-linejoin:miter;stroke-width:1.25;"/>
   </g>
   <g id="patch_10">
    <path d="M 723.275938 674.255625 
L 723.275938 377.746534 
" style="fill:none;stroke:#ffffff;stroke-linecap:square;stroke-linejoin:miter;stroke-width:1.25;"/>
   </g>
   <g id="patch_11">
    <path d="M 53.675937 674.255625 
L 723.275937 674.255625 
" style="fill:none;stroke:#ffffff;stroke-linecap:square;stroke-linejoin:miter;stroke-width:1.25;"/>
   </g>
   <g id="patch_12">
    <path d="M 53.675937 377.746534 
L 723.275937 377.746534 
" style="fill:none;stroke:#ffffff;stroke-linecap:square;stroke-linejoin:miter;stroke-width:1.25;"/>
   </g>
   <g id="text_42">
    <!-- Absolute Error at Different Measured Power (Environment = 2) -->
    <g style="fill:#262626;" transform="translate(222.685625 371.746534)scale(0.12 -0.12)">
     <use xlink:href="#ArialMT-65"/>
     <use x="66.699219" xlink:href="#ArialMT-98"/>
     <use x="122.314453" xlink:href="#ArialMT-115"/>
     <use x="172.314453" xlink:href="#ArialMT-111"/>
     <use x="227.929688" xlink:href="#ArialMT-108"/>
     <use x="250.146484" xlink:href="#ArialMT-117"/>
     <use x="305.761719" xlink:href="#ArialMT-116"/>
     <use x="333.544922" xlink:href="#ArialMT-101"/>
     <use x="389.160156" xlink:href="#ArialMT-32"/>
     <use x="416.943359" xlink:href="#ArialMT-69"/>
     <use x="483.642578" xlink:href="#ArialMT-114"/>
     <use x="516.943359" xlink:href="#ArialMT-114"/>
     <use x="550.244141" xlink:href="#ArialMT-111"/>
     <use x="605.859375" xlink:href="#ArialMT-114"/>
     <use x="639.160156" xlink:href="#ArialMT-32"/>
     <use x="666.943359" xlink:href="#ArialMT-97"/>
     <use x="722.558594" xlink:href="#ArialMT-116"/>
     <use x="750.341797" xlink:href="#ArialMT-32"/>
     <use x="778.125" xlink:href="#ArialMT-68"/>
     <use x="850.341797" xlink:href="#ArialMT-105"/>
     <use x="872.558594" xlink:href="#ArialMT-102"/>
     <use x="898.591797" xlink:href="#ArialMT-102"/>
     <use x="926.375" xlink:href="#ArialMT-101"/>
     <use x="981.990234" xlink:href="#ArialMT-114"/>
     <use x="1015.291016" xlink:href="#ArialMT-101"/>
     <use x="1070.90625" xlink:href="#ArialMT-110"/>
     <use x="1126.521484" xlink:href="#ArialMT-116"/>
     <use x="1154.304688" xlink:href="#ArialMT-32"/>
     <use x="1182.087891" xlink:href="#ArialMT-77"/>
     <use x="1265.388672" xlink:href="#ArialMT-101"/>
     <use x="1321.003906" xlink:href="#ArialMT-97"/>
     <use x="1376.619141" xlink:href="#ArialMT-115"/>
     <use x="1426.619141" xlink:href="#ArialMT-117"/>
     <use x="1482.234375" xlink:href="#ArialMT-114"/>
     <use x="1515.535156" xlink:href="#ArialMT-101"/>
     <use x="1571.150391" xlink:href="#ArialMT-100"/>
     <use x="1626.765625" xlink:href="#ArialMT-32"/>
     <use x="1654.548828" xlink:href="#ArialMT-80"/>
     <use x="1721.248047" xlink:href="#ArialMT-111"/>
     <use x="1776.863281" xlink:href="#ArialMT-119"/>
     <use x="1849.080078" xlink:href="#ArialMT-101"/>
     <use x="1904.695312" xlink:href="#ArialMT-114"/>
     <use x="1937.996094" xlink:href="#ArialMT-32"/>
     <use x="1965.779297" xlink:href="#ArialMT-40"/>
     <use x="1999.080078" xlink:href="#ArialMT-69"/>
     <use x="2065.779297" xlink:href="#ArialMT-110"/>
     <use x="2121.394531" xlink:href="#ArialMT-118"/>
     <use x="2171.394531" xlink:href="#ArialMT-105"/>
     <use x="2193.611328" xlink:href="#ArialMT-114"/>
     <use x="2226.912109" xlink:href="#ArialMT-111"/>
     <use x="2282.527344" xlink:href="#ArialMT-110"/>
     <use x="2338.142578" xlink:href="#ArialMT-109"/>
     <use x="2421.443359" xlink:href="#ArialMT-101"/>
     <use x="2477.058594" xlink:href="#ArialMT-110"/>
     <use x="2532.673828" xlink:href="#ArialMT-116"/>
     <use x="2560.457031" xlink:href="#ArialMT-32"/>
     <use x="2588.240234" xlink:href="#ArialMT-61"/>
     <use x="2646.638672" xlink:href="#ArialMT-32"/>
     <use x="2674.421875" xlink:href="#ArialMT-50"/>
     <use x="2730.037109" xlink:href="#ArialMT-41"/>
    </g>
   </g>
   <g id="legend_2">
    <g id="patch_13">
     <path d="M 639.600313 480.034503 
L 715.575938 480.034503 
Q 717.775938 480.034503 717.775938 477.834503 
L 717.775938 385.446534 
Q 717.775938 383.246534 715.575938 383.246534 
L 639.600313 383.246534 
Q 637.400313 383.246534 637.400313 385.446534 
L 637.400313 477.834503 
Q 637.400313 480.034503 639.600313 480.034503 
z
" style="fill:#eaeaf2;opacity:0.8;stroke:#cccccc;stroke-linejoin:miter;"/>
    </g>
    <g id="line2d_67">
     <path d="M 641.800313 391.670128 
L 663.800313 391.670128 
" style="fill:none;stroke:#4c72b0;stroke-linecap:round;stroke-width:1.5;"/>
    </g>
    <g id="line2d_68"/>
    <g id="text_43">
     <!-- 0.5m -->
     <g style="fill:#262626;" transform="translate(672.600312 395.520128)scale(0.11 -0.11)">
      <use xlink:href="#ArialMT-48"/>
      <use x="55.615234" xlink:href="#ArialMT-46"/>
      <use x="83.398438" xlink:href="#ArialMT-53"/>
      <use x="139.013672" xlink:href="#ArialMT-109"/>
     </g>
    </g>
    <g id="line2d_69">
     <path d="M 641.800313 407.229972 
L 663.800313 407.229972 
" style="fill:none;stroke:#dd8452;stroke-dasharray:6,2.25;stroke-dashoffset:0;stroke-width:1.5;"/>
    </g>
    <g id="line2d_70"/>
    <g id="text_44">
     <!-- 1.0m -->
     <g style="fill:#262626;" transform="translate(672.600312 411.079972)scale(0.11 -0.11)">
      <use xlink:href="#ArialMT-49"/>
      <use x="55.615234" xlink:href="#ArialMT-46"/>
      <use x="83.398438" xlink:href="#ArialMT-48"/>
      <use x="139.013672" xlink:href="#ArialMT-109"/>
     </g>
    </g>
    <g id="line2d_71">
     <path d="M 641.800313 422.789815 
L 663.800313 422.789815 
" style="fill:none;stroke:#55a868;stroke-dasharray:1.5,1.5;stroke-dashoffset:0;stroke-width:1.5;"/>
    </g>
    <g id="line2d_72"/>
    <g id="text_45">
     <!-- 1.5m -->
     <g style="fill:#262626;" transform="translate(672.600312 426.639815)scale(0.11 -0.11)">
      <use xlink:href="#ArialMT-49"/>
      <use x="55.615234" xlink:href="#ArialMT-46"/>
      <use x="83.398438" xlink:href="#ArialMT-53"/>
      <use x="139.013672" xlink:href="#ArialMT-109"/>
     </g>
    </g>
    <g id="line2d_73">
     <path d="M 641.800313 438.349659 
L 663.800313 438.349659 
" style="fill:none;stroke:#c44e52;stroke-dasharray:4.5,1.875,2.25,1.875;stroke-dashoffset:0;stroke-width:1.5;"/>
    </g>
    <g id="line2d_74"/>
    <g id="text_46">
     <!-- 2.0m -->
     <g style="fill:#262626;" transform="translate(672.600312 442.199659)scale(0.11 -0.11)">
      <use xlink:href="#ArialMT-50"/>
      <use x="55.615234" xlink:href="#ArialMT-46"/>
      <use x="83.398438" xlink:href="#ArialMT-48"/>
      <use x="139.013672" xlink:href="#ArialMT-109"/>
     </g>
    </g>
    <g id="line2d_75">
     <path d="M 641.800313 453.909503 
L 663.800313 453.909503 
" style="fill:none;stroke:#8172b3;stroke-dasharray:7.5,1.5,1.5,1.5;stroke-dashoffset:0;stroke-width:1.5;"/>
    </g>
    <g id="line2d_76"/>
    <g id="text_47">
     <!-- 2.5m -->
     <g style="fill:#262626;" transform="translate(672.600312 457.759503)scale(0.11 -0.11)">
      <use xlink:href="#ArialMT-50"/>
      <use x="55.615234" xlink:href="#ArialMT-46"/>
      <use x="83.398438" xlink:href="#ArialMT-53"/>
      <use x="139.013672" xlink:href="#ArialMT-109"/>
     </g>
    </g>
    <g id="line2d_77">
     <path d="M 641.800313 469.469347 
L 663.800313 469.469347 
" style="fill:none;stroke:#937860;stroke-dasharray:4.5,1.875,1.875,1.875,1.875,1.875;stroke-dashoffset:0;stroke-width:1.5;"/>
    </g>
    <g id="line2d_78"/>
    <g id="text_48">
     <!-- Average -->
     <g style="fill:#262626;" transform="translate(672.600312 473.319347)scale(0.11 -0.11)">
      <use xlink:href="#ArialMT-65"/>
      <use x="64.949219" xlink:href="#ArialMT-118"/>
      <use x="114.949219" xlink:href="#ArialMT-101"/>
      <use x="170.564453" xlink:href="#ArialMT-114"/>
      <use x="203.865234" xlink:href="#ArialMT-97"/>
      <use x="259.480469" xlink:href="#ArialMT-103"/>
      <use x="315.095703" xlink:href="#ArialMT-101"/>
     </g>
    </g>
   </g>
  </g>
 </g>
 <defs>
  <clipPath id="pb897538c41">
   <rect height="296.509091" width="669.6" x="53.675938" y="21.935625"/>
  </clipPath>
  <clipPath id="pad28c8c60f">
   <rect height="296.509091" width="669.6" x="53.675938" y="377.746534"/>
  </clipPath>
 </defs>
</svg>
