<?xml version="1.0" encoding="utf-8" standalone="no"?>
<!DOCTYPE svg PUBLIC "-//W3C//DTD SVG 1.1//EN"
  "http://www.w3.org/Graphics/SVG/1.1/DTD/svg11.dtd">
<!-- Created with matplotlib (https://matplotlib.org/) -->
<svg height="390.245625pt" version="1.1" viewBox="0 0 727.42 390.245625" width="727.42pt" xmlns="http://www.w3.org/2000/svg" xmlns:xlink="http://www.w3.org/1999/xlink">
 <metadata>
  <rdf:RDF xmlns:cc="http://creativecommons.org/ns#" xmlns:dc="http://purl.org/dc/elements/1.1/" xmlns:rdf="http://www.w3.org/1999/02/22-rdf-syntax-ns#">
   <cc:Work>
    <dc:type rdf:resource="http://purl.org/dc/dcmitype/StillImage"/>
    <dc:date>2020-12-03T17:10:29.765204</dc:date>
    <dc:format>image/svg+xml</dc:format>
    <dc:creator>
     <cc:Agent>
      <dc:title>Matplotlib v3.3.2, https://matplotlib.org/</dc:title>
     </cc:Agent>
    </dc:creator>
   </cc:Work>
  </rdf:RDF>
 </metadata>
 <defs>
  <style type="text/css">*{stroke-linecap:butt;stroke-linejoin:round;}</style>
 </defs>
 <g id="figure_1">
  <g id="patch_1">
   <path d="M 0 390.245625 
L 727.42 390.245625 
L 727.42 0 
L 0 0 
z
" style="fill:#ffffff;"/>
  </g>
  <g id="axes_1">
   <g id="patch_2">
    <path d="M 50.62 348.095625 
L 720.22 348.095625 
L 720.22 21.935625 
L 50.62 21.935625 
z
" style="fill:#eaeaf2;"/>
   </g>
   <g id="matplotlib.axis_1">
    <g id="xtick_1">
     <g id="text_1">
      <!-- 0.5m -->
      <g style="fill:#262626;" transform="translate(94.193672 365.469219)scale(0.11 -0.11)">
       <defs>
        <path d="M 4.15625 35.296875 
Q 4.15625 48 6.765625 55.734375 
Q 9.375 63.484375 14.515625 67.671875 
Q 19.671875 71.875 27.484375 71.875 
Q 33.25 71.875 37.59375 69.546875 
Q 41.9375 67.234375 44.765625 62.859375 
Q 47.609375 58.5 49.21875 52.21875 
Q 50.828125 45.953125 50.828125 35.296875 
Q 50.828125 22.703125 48.234375 14.96875 
Q 45.65625 7.234375 40.5 3 
Q 35.359375 -1.21875 27.484375 -1.21875 
Q 17.140625 -1.21875 11.234375 6.203125 
Q 4.15625 15.140625 4.15625 35.296875 
z
M 13.1875 35.296875 
Q 13.1875 17.671875 17.3125 11.828125 
Q 21.4375 6 27.484375 6 
Q 33.546875 6 37.671875 11.859375 
Q 41.796875 17.71875 41.796875 35.296875 
Q 41.796875 52.984375 37.671875 58.78125 
Q 33.546875 64.59375 27.390625 64.59375 
Q 21.34375 64.59375 17.71875 59.46875 
Q 13.1875 52.9375 13.1875 35.296875 
z
" id="ArialMT-48"/>
        <path d="M 9.078125 0 
L 9.078125 10.015625 
L 19.09375 10.015625 
L 19.09375 0 
z
" id="ArialMT-46"/>
        <path d="M 4.15625 18.75 
L 13.375 19.53125 
Q 14.40625 12.796875 18.140625 9.390625 
Q 21.875 6 27.15625 6 
Q 33.5 6 37.890625 10.78125 
Q 42.28125 15.578125 42.28125 23.484375 
Q 42.28125 31 38.0625 35.34375 
Q 33.84375 39.703125 27 39.703125 
Q 22.75 39.703125 19.328125 37.765625 
Q 15.921875 35.84375 13.96875 32.765625 
L 5.71875 33.84375 
L 12.640625 70.609375 
L 48.25 70.609375 
L 48.25 62.203125 
L 19.671875 62.203125 
L 15.828125 42.96875 
Q 22.265625 47.46875 29.34375 47.46875 
Q 38.71875 47.46875 45.15625 40.96875 
Q 51.609375 34.46875 51.609375 24.265625 
Q 51.609375 14.546875 45.953125 7.46875 
Q 39.0625 -1.21875 27.15625 -1.21875 
Q 17.390625 -1.21875 11.203125 4.25 
Q 5.03125 9.71875 4.15625 18.75 
z
" id="ArialMT-53"/>
        <path d="M 6.59375 0 
L 6.59375 51.859375 
L 14.453125 51.859375 
L 14.453125 44.578125 
Q 16.890625 48.390625 20.9375 50.703125 
Q 25 53.03125 30.171875 53.03125 
Q 35.9375 53.03125 39.625 50.640625 
Q 43.3125 48.25 44.828125 43.953125 
Q 50.984375 53.03125 60.84375 53.03125 
Q 68.5625 53.03125 72.703125 48.75 
Q 76.859375 44.484375 76.859375 35.59375 
L 76.859375 0 
L 68.109375 0 
L 68.109375 32.671875 
Q 68.109375 37.9375 67.25 40.25 
Q 66.40625 42.578125 64.15625 43.984375 
Q 61.921875 45.40625 58.890625 45.40625 
Q 53.421875 45.40625 49.796875 41.765625 
Q 46.1875 38.140625 46.1875 30.125 
L 46.1875 0 
L 37.40625 0 
L 37.40625 33.6875 
Q 37.40625 39.546875 35.25 42.46875 
Q 33.109375 45.40625 28.21875 45.40625 
Q 24.515625 45.40625 21.359375 43.453125 
Q 18.21875 41.5 16.796875 37.734375 
Q 15.375 33.984375 15.375 26.90625 
L 15.375 0 
z
" id="ArialMT-109"/>
       </defs>
       <use xlink:href="#ArialMT-48"/>
       <use x="55.615234" xlink:href="#ArialMT-46"/>
       <use x="83.398438" xlink:href="#ArialMT-53"/>
       <use x="139.013672" xlink:href="#ArialMT-109"/>
      </g>
     </g>
    </g>
    <g id="xtick_2">
     <g id="text_2">
      <!-- 1.0m -->
      <g style="fill:#262626;" transform="translate(205.793672 365.469219)scale(0.11 -0.11)">
       <defs>
        <path d="M 37.25 0 
L 28.46875 0 
L 28.46875 56 
Q 25.296875 52.984375 20.140625 49.953125 
Q 14.984375 46.921875 10.890625 45.40625 
L 10.890625 53.90625 
Q 18.265625 57.375 23.78125 62.296875 
Q 29.296875 67.234375 31.59375 71.875 
L 37.25 71.875 
z
" id="ArialMT-49"/>
       </defs>
       <use xlink:href="#ArialMT-49"/>
       <use x="55.615234" xlink:href="#ArialMT-46"/>
       <use x="83.398438" xlink:href="#ArialMT-48"/>
       <use x="139.013672" xlink:href="#ArialMT-109"/>
      </g>
     </g>
    </g>
    <g id="xtick_3">
     <g id="text_3">
      <!-- 1.5m -->
      <g style="fill:#262626;" transform="translate(317.393672 365.469219)scale(0.11 -0.11)">
       <use xlink:href="#ArialMT-49"/>
       <use x="55.615234" xlink:href="#ArialMT-46"/>
       <use x="83.398438" xlink:href="#ArialMT-53"/>
       <use x="139.013672" xlink:href="#ArialMT-109"/>
      </g>
     </g>
    </g>
    <g id="xtick_4">
     <g id="text_4">
      <!-- 2.0m -->
      <g style="fill:#262626;" transform="translate(428.993672 365.469219)scale(0.11 -0.11)">
       <defs>
        <path d="M 50.34375 8.453125 
L 50.34375 0 
L 3.03125 0 
Q 2.9375 3.171875 4.046875 6.109375 
Q 5.859375 10.9375 9.828125 15.625 
Q 13.8125 20.3125 21.34375 26.46875 
Q 33.015625 36.03125 37.109375 41.625 
Q 41.21875 47.21875 41.21875 52.203125 
Q 41.21875 57.421875 37.46875 61 
Q 33.734375 64.59375 27.734375 64.59375 
Q 21.390625 64.59375 17.578125 60.78125 
Q 13.765625 56.984375 13.71875 50.25 
L 4.6875 51.171875 
Q 5.609375 61.28125 11.65625 66.578125 
Q 17.71875 71.875 27.9375 71.875 
Q 38.234375 71.875 44.234375 66.15625 
Q 50.25 60.453125 50.25 52 
Q 50.25 47.703125 48.484375 43.546875 
Q 46.734375 39.40625 42.65625 34.8125 
Q 38.578125 30.21875 29.109375 22.21875 
Q 21.1875 15.578125 18.9375 13.203125 
Q 16.703125 10.84375 15.234375 8.453125 
z
" id="ArialMT-50"/>
       </defs>
       <use xlink:href="#ArialMT-50"/>
       <use x="55.615234" xlink:href="#ArialMT-46"/>
       <use x="83.398438" xlink:href="#ArialMT-48"/>
       <use x="139.013672" xlink:href="#ArialMT-109"/>
      </g>
     </g>
    </g>
    <g id="xtick_5">
     <g id="text_5">
      <!-- 2.5m -->
      <g style="fill:#262626;" transform="translate(540.593672 365.469219)scale(0.11 -0.11)">
       <use xlink:href="#ArialMT-50"/>
       <use x="55.615234" xlink:href="#ArialMT-46"/>
       <use x="83.398438" xlink:href="#ArialMT-53"/>
       <use x="139.013672" xlink:href="#ArialMT-109"/>
      </g>
     </g>
    </g>
    <g id="xtick_6">
     <g id="text_6">
      <!-- Average -->
      <g style="fill:#262626;" transform="translate(644.032187 365.469219)scale(0.11 -0.11)">
       <defs>
        <path d="M -0.140625 0 
L 27.34375 71.578125 
L 37.546875 71.578125 
L 66.84375 0 
L 56.0625 0 
L 47.703125 21.6875 
L 17.78125 21.6875 
L 9.90625 0 
z
M 20.515625 29.390625 
L 44.78125 29.390625 
L 37.3125 49.21875 
Q 33.890625 58.25 32.234375 64.0625 
Q 30.859375 57.171875 28.375 50.390625 
z
" id="ArialMT-65"/>
        <path d="M 21 0 
L 1.265625 51.859375 
L 10.546875 51.859375 
L 21.6875 20.796875 
Q 23.484375 15.765625 25 10.359375 
Q 26.171875 14.453125 28.265625 20.21875 
L 39.796875 51.859375 
L 48.828125 51.859375 
L 29.203125 0 
z
" id="ArialMT-118"/>
        <path d="M 42.09375 16.703125 
L 51.171875 15.578125 
Q 49.03125 7.625 43.21875 3.21875 
Q 37.40625 -1.171875 28.375 -1.171875 
Q 17 -1.171875 10.328125 5.828125 
Q 3.65625 12.84375 3.65625 25.484375 
Q 3.65625 38.578125 10.390625 45.796875 
Q 17.140625 53.03125 27.875 53.03125 
Q 38.28125 53.03125 44.875 45.953125 
Q 51.46875 38.875 51.46875 26.03125 
Q 51.46875 25.25 51.421875 23.6875 
L 12.75 23.6875 
Q 13.234375 15.140625 17.578125 10.59375 
Q 21.921875 6.0625 28.421875 6.0625 
Q 33.25 6.0625 36.671875 8.59375 
Q 40.09375 11.140625 42.09375 16.703125 
z
M 13.234375 30.90625 
L 42.1875 30.90625 
Q 41.609375 37.453125 38.875 40.71875 
Q 34.671875 45.796875 27.984375 45.796875 
Q 21.921875 45.796875 17.796875 41.75 
Q 13.671875 37.703125 13.234375 30.90625 
z
" id="ArialMT-101"/>
        <path d="M 6.5 0 
L 6.5 51.859375 
L 14.40625 51.859375 
L 14.40625 44 
Q 17.4375 49.515625 20 51.265625 
Q 22.5625 53.03125 25.640625 53.03125 
Q 30.078125 53.03125 34.671875 50.203125 
L 31.640625 42.046875 
Q 28.421875 43.953125 25.203125 43.953125 
Q 22.3125 43.953125 20.015625 42.21875 
Q 17.71875 40.484375 16.75 37.40625 
Q 15.28125 32.71875 15.28125 27.15625 
L 15.28125 0 
z
" id="ArialMT-114"/>
        <path d="M 40.4375 6.390625 
Q 35.546875 2.25 31.03125 0.53125 
Q 26.515625 -1.171875 21.34375 -1.171875 
Q 12.796875 -1.171875 8.203125 3 
Q 3.609375 7.171875 3.609375 13.671875 
Q 3.609375 17.484375 5.34375 20.625 
Q 7.078125 23.78125 9.890625 25.6875 
Q 12.703125 27.59375 16.21875 28.5625 
Q 18.796875 29.25 24.03125 29.890625 
Q 34.671875 31.15625 39.703125 32.90625 
Q 39.75 34.71875 39.75 35.203125 
Q 39.75 40.578125 37.25 42.78125 
Q 33.890625 45.75 27.25 45.75 
Q 21.046875 45.75 18.09375 43.578125 
Q 15.140625 41.40625 13.71875 35.890625 
L 5.125 37.0625 
Q 6.296875 42.578125 8.984375 45.96875 
Q 11.671875 49.359375 16.75 51.1875 
Q 21.828125 53.03125 28.515625 53.03125 
Q 35.15625 53.03125 39.296875 51.46875 
Q 43.453125 49.90625 45.40625 47.53125 
Q 47.359375 45.171875 48.140625 41.546875 
Q 48.578125 39.3125 48.578125 33.453125 
L 48.578125 21.734375 
Q 48.578125 9.46875 49.140625 6.21875 
Q 49.703125 2.984375 51.375 0 
L 42.1875 0 
Q 40.828125 2.734375 40.4375 6.390625 
z
M 39.703125 26.03125 
Q 34.90625 24.078125 25.34375 22.703125 
Q 19.921875 21.921875 17.671875 20.9375 
Q 15.4375 19.96875 14.203125 18.09375 
Q 12.984375 16.21875 12.984375 13.921875 
Q 12.984375 10.40625 15.640625 8.0625 
Q 18.3125 5.71875 23.4375 5.71875 
Q 28.515625 5.71875 32.46875 7.9375 
Q 36.421875 10.15625 38.28125 14.015625 
Q 39.703125 17 39.703125 22.796875 
z
" id="ArialMT-97"/>
        <path d="M 4.984375 -4.296875 
L 13.53125 -5.5625 
Q 14.0625 -9.515625 16.5 -11.328125 
Q 19.78125 -13.765625 25.4375 -13.765625 
Q 31.546875 -13.765625 34.859375 -11.328125 
Q 38.1875 -8.890625 39.359375 -4.5 
Q 40.046875 -1.8125 39.984375 6.78125 
Q 34.234375 0 25.640625 0 
Q 14.9375 0 9.078125 7.71875 
Q 3.21875 15.4375 3.21875 26.21875 
Q 3.21875 33.640625 5.90625 39.90625 
Q 8.59375 46.1875 13.6875 49.609375 
Q 18.796875 53.03125 25.6875 53.03125 
Q 34.859375 53.03125 40.828125 45.609375 
L 40.828125 51.859375 
L 48.921875 51.859375 
L 48.921875 7.03125 
Q 48.921875 -5.078125 46.453125 -10.125 
Q 44 -15.1875 38.640625 -18.109375 
Q 33.296875 -21.046875 25.484375 -21.046875 
Q 16.21875 -21.046875 10.5 -16.875 
Q 4.78125 -12.703125 4.984375 -4.296875 
z
M 12.25 26.859375 
Q 12.25 16.65625 16.296875 11.96875 
Q 20.359375 7.28125 26.46875 7.28125 
Q 32.515625 7.28125 36.609375 11.9375 
Q 40.71875 16.609375 40.71875 26.5625 
Q 40.71875 36.078125 36.5 40.90625 
Q 32.28125 45.75 26.3125 45.75 
Q 20.453125 45.75 16.34375 40.984375 
Q 12.25 36.234375 12.25 26.859375 
z
" id="ArialMT-103"/>
       </defs>
       <use xlink:href="#ArialMT-65"/>
       <use x="64.949219" xlink:href="#ArialMT-118"/>
       <use x="114.949219" xlink:href="#ArialMT-101"/>
       <use x="170.564453" xlink:href="#ArialMT-114"/>
       <use x="203.865234" xlink:href="#ArialMT-97"/>
       <use x="259.480469" xlink:href="#ArialMT-103"/>
       <use x="315.095703" xlink:href="#ArialMT-101"/>
      </g>
     </g>
    </g>
    <g id="text_7">
     <!-- Distance (m) -->
     <g style="fill:#262626;" transform="translate(351.416875 380.52)scale(0.12 -0.12)">
      <defs>
       <path d="M 7.71875 0 
L 7.71875 71.578125 
L 32.375 71.578125 
Q 40.71875 71.578125 45.125 70.5625 
Q 51.265625 69.140625 55.609375 65.4375 
Q 61.28125 60.640625 64.078125 53.1875 
Q 66.890625 45.75 66.890625 36.1875 
Q 66.890625 28.03125 64.984375 21.734375 
Q 63.09375 15.4375 60.109375 11.296875 
Q 57.125 7.171875 53.578125 4.796875 
Q 50.046875 2.4375 45.046875 1.21875 
Q 40.046875 0 33.546875 0 
z
M 17.1875 8.453125 
L 32.46875 8.453125 
Q 39.546875 8.453125 43.578125 9.765625 
Q 47.609375 11.078125 50 13.484375 
Q 53.375 16.84375 55.25 22.53125 
Q 57.125 28.21875 57.125 36.328125 
Q 57.125 47.5625 53.4375 53.59375 
Q 49.75 59.625 44.484375 61.671875 
Q 40.671875 63.140625 32.234375 63.140625 
L 17.1875 63.140625 
z
" id="ArialMT-68"/>
       <path d="M 6.640625 61.46875 
L 6.640625 71.578125 
L 15.4375 71.578125 
L 15.4375 61.46875 
z
M 6.640625 0 
L 6.640625 51.859375 
L 15.4375 51.859375 
L 15.4375 0 
z
" id="ArialMT-105"/>
       <path d="M 3.078125 15.484375 
L 11.765625 16.84375 
Q 12.5 11.625 15.84375 8.84375 
Q 19.1875 6.0625 25.203125 6.0625 
Q 31.25 6.0625 34.171875 8.515625 
Q 37.109375 10.984375 37.109375 14.3125 
Q 37.109375 17.28125 34.515625 19 
Q 32.71875 20.171875 25.53125 21.96875 
Q 15.875 24.421875 12.140625 26.203125 
Q 8.40625 27.984375 6.46875 31.125 
Q 4.546875 34.28125 4.546875 38.09375 
Q 4.546875 41.546875 6.125 44.5 
Q 7.71875 47.46875 10.453125 49.421875 
Q 12.5 50.921875 16.03125 51.96875 
Q 19.578125 53.03125 23.640625 53.03125 
Q 29.734375 53.03125 34.34375 51.265625 
Q 38.96875 49.515625 41.15625 46.5 
Q 43.359375 43.5 44.1875 38.484375 
L 35.59375 37.3125 
Q 35.015625 41.3125 32.203125 43.546875 
Q 29.390625 45.796875 24.265625 45.796875 
Q 18.21875 45.796875 15.625 43.796875 
Q 13.03125 41.796875 13.03125 39.109375 
Q 13.03125 37.40625 14.109375 36.03125 
Q 15.1875 34.625 17.484375 33.6875 
Q 18.796875 33.203125 25.25 31.453125 
Q 34.578125 28.953125 38.25 27.359375 
Q 41.9375 25.78125 44.03125 22.75 
Q 46.140625 19.734375 46.140625 15.234375 
Q 46.140625 10.84375 43.578125 6.953125 
Q 41.015625 3.078125 36.171875 0.953125 
Q 31.34375 -1.171875 25.25 -1.171875 
Q 15.140625 -1.171875 9.84375 3.03125 
Q 4.546875 7.234375 3.078125 15.484375 
z
" id="ArialMT-115"/>
       <path d="M 25.78125 7.859375 
L 27.046875 0.09375 
Q 23.34375 -0.6875 20.40625 -0.6875 
Q 15.625 -0.6875 12.984375 0.828125 
Q 10.359375 2.34375 9.28125 4.8125 
Q 8.203125 7.28125 8.203125 15.1875 
L 8.203125 45.015625 
L 1.765625 45.015625 
L 1.765625 51.859375 
L 8.203125 51.859375 
L 8.203125 64.703125 
L 16.9375 69.96875 
L 16.9375 51.859375 
L 25.78125 51.859375 
L 25.78125 45.015625 
L 16.9375 45.015625 
L 16.9375 14.703125 
Q 16.9375 10.9375 17.40625 9.859375 
Q 17.875 8.796875 18.921875 8.15625 
Q 19.96875 7.515625 21.921875 7.515625 
Q 23.390625 7.515625 25.78125 7.859375 
z
" id="ArialMT-116"/>
       <path d="M 6.59375 0 
L 6.59375 51.859375 
L 14.5 51.859375 
L 14.5 44.484375 
Q 20.21875 53.03125 31 53.03125 
Q 35.6875 53.03125 39.625 51.34375 
Q 43.5625 49.65625 45.515625 46.921875 
Q 47.46875 44.1875 48.25 40.4375 
Q 48.734375 37.984375 48.734375 31.890625 
L 48.734375 0 
L 39.9375 0 
L 39.9375 31.546875 
Q 39.9375 36.921875 38.90625 39.578125 
Q 37.890625 42.234375 35.28125 43.8125 
Q 32.671875 45.40625 29.15625 45.40625 
Q 23.53125 45.40625 19.453125 41.84375 
Q 15.375 38.28125 15.375 28.328125 
L 15.375 0 
z
" id="ArialMT-110"/>
       <path d="M 40.4375 19 
L 49.078125 17.875 
Q 47.65625 8.9375 41.8125 3.875 
Q 35.984375 -1.171875 27.484375 -1.171875 
Q 16.84375 -1.171875 10.375 5.78125 
Q 3.90625 12.75 3.90625 25.734375 
Q 3.90625 34.125 6.6875 40.421875 
Q 9.46875 46.734375 15.15625 49.875 
Q 20.84375 53.03125 27.546875 53.03125 
Q 35.984375 53.03125 41.359375 48.75 
Q 46.734375 44.484375 48.25 36.625 
L 39.703125 35.296875 
Q 38.484375 40.53125 35.375 43.15625 
Q 32.28125 45.796875 27.875 45.796875 
Q 21.234375 45.796875 17.078125 41.03125 
Q 12.9375 36.28125 12.9375 25.984375 
Q 12.9375 15.53125 16.9375 10.796875 
Q 20.953125 6.0625 27.390625 6.0625 
Q 32.5625 6.0625 36.03125 9.234375 
Q 39.5 12.40625 40.4375 19 
z
" id="ArialMT-99"/>
       <path id="ArialMT-32"/>
       <path d="M 23.390625 -21.046875 
Q 16.109375 -11.859375 11.078125 0.4375 
Q 6.0625 12.75 6.0625 25.921875 
Q 6.0625 37.546875 9.8125 48.1875 
Q 14.203125 60.546875 23.390625 72.796875 
L 29.6875 72.796875 
Q 23.78125 62.640625 21.875 58.296875 
Q 18.890625 51.5625 17.1875 44.234375 
Q 15.09375 35.109375 15.09375 25.875 
Q 15.09375 2.390625 29.6875 -21.046875 
z
" id="ArialMT-40"/>
       <path d="M 12.359375 -21.046875 
L 6.0625 -21.046875 
Q 20.65625 2.390625 20.65625 25.875 
Q 20.65625 35.0625 18.5625 44.09375 
Q 16.890625 51.421875 13.921875 58.15625 
Q 12.015625 62.546875 6.0625 72.796875 
L 12.359375 72.796875 
Q 21.53125 60.546875 25.921875 48.1875 
Q 29.6875 37.546875 29.6875 25.921875 
Q 29.6875 12.75 24.625 0.4375 
Q 19.578125 -11.859375 12.359375 -21.046875 
z
" id="ArialMT-41"/>
      </defs>
      <use xlink:href="#ArialMT-68"/>
      <use x="72.216797" xlink:href="#ArialMT-105"/>
      <use x="94.433594" xlink:href="#ArialMT-115"/>
      <use x="144.433594" xlink:href="#ArialMT-116"/>
      <use x="172.216797" xlink:href="#ArialMT-97"/>
      <use x="227.832031" xlink:href="#ArialMT-110"/>
      <use x="283.447266" xlink:href="#ArialMT-99"/>
      <use x="333.447266" xlink:href="#ArialMT-101"/>
      <use x="389.0625" xlink:href="#ArialMT-32"/>
      <use x="416.845703" xlink:href="#ArialMT-40"/>
      <use x="450.146484" xlink:href="#ArialMT-109"/>
      <use x="533.447266" xlink:href="#ArialMT-41"/>
     </g>
    </g>
   </g>
   <g id="matplotlib.axis_2">
    <g id="ytick_1">
     <g id="line2d_1">
      <path clip-path="url(#pa97822c059)" d="M 50.62 338.646389 
L 720.22 338.646389 
" style="fill:none;stroke:#ffffff;stroke-linecap:round;"/>
     </g>
     <g id="text_8">
      <!-- −30 -->
      <g style="fill:#262626;" transform="translate(22.46125 342.583186)scale(0.11 -0.11)">
       <defs>
        <path d="M 52.828125 31.203125 
L 5.5625 31.203125 
L 5.5625 39.40625 
L 52.828125 39.40625 
z
" id="ArialMT-8722"/>
        <path d="M 4.203125 18.890625 
L 12.984375 20.0625 
Q 14.5 12.59375 18.140625 9.296875 
Q 21.78125 6 27 6 
Q 33.203125 6 37.46875 10.296875 
Q 41.75 14.59375 41.75 20.953125 
Q 41.75 27 37.796875 30.921875 
Q 33.84375 34.859375 27.734375 34.859375 
Q 25.25 34.859375 21.53125 33.890625 
L 22.515625 41.609375 
Q 23.390625 41.5 23.921875 41.5 
Q 29.546875 41.5 34.03125 44.421875 
Q 38.53125 47.359375 38.53125 53.46875 
Q 38.53125 58.296875 35.25 61.46875 
Q 31.984375 64.65625 26.8125 64.65625 
Q 21.6875 64.65625 18.265625 61.421875 
Q 14.84375 58.203125 13.875 51.765625 
L 5.078125 53.328125 
Q 6.6875 62.15625 12.390625 67.015625 
Q 18.109375 71.875 26.609375 71.875 
Q 32.46875 71.875 37.390625 69.359375 
Q 42.328125 66.84375 44.9375 62.5 
Q 47.5625 58.15625 47.5625 53.265625 
Q 47.5625 48.640625 45.0625 44.828125 
Q 42.578125 41.015625 37.703125 38.765625 
Q 44.046875 37.3125 47.5625 32.6875 
Q 51.078125 28.078125 51.078125 21.140625 
Q 51.078125 11.765625 44.234375 5.25 
Q 37.40625 -1.265625 26.953125 -1.265625 
Q 17.53125 -1.265625 11.296875 4.34375 
Q 5.078125 9.96875 4.203125 18.890625 
z
" id="ArialMT-51"/>
       </defs>
       <use xlink:href="#ArialMT-8722"/>
       <use x="58.398438" xlink:href="#ArialMT-51"/>
       <use x="114.013672" xlink:href="#ArialMT-48"/>
      </g>
     </g>
    </g>
    <g id="ytick_2">
     <g id="line2d_2">
      <path clip-path="url(#pa97822c059)" d="M 50.62 299.112961 
L 720.22 299.112961 
" style="fill:none;stroke:#ffffff;stroke-linecap:round;"/>
     </g>
     <g id="text_9">
      <!-- −25 -->
      <g style="fill:#262626;" transform="translate(22.46125 303.049758)scale(0.11 -0.11)">
       <use xlink:href="#ArialMT-8722"/>
       <use x="58.398438" xlink:href="#ArialMT-50"/>
       <use x="114.013672" xlink:href="#ArialMT-53"/>
      </g>
     </g>
    </g>
    <g id="ytick_3">
     <g id="line2d_3">
      <path clip-path="url(#pa97822c059)" d="M 50.62 259.579533 
L 720.22 259.579533 
" style="fill:none;stroke:#ffffff;stroke-linecap:round;"/>
     </g>
     <g id="text_10">
      <!-- −20 -->
      <g style="fill:#262626;" transform="translate(22.46125 263.51633)scale(0.11 -0.11)">
       <use xlink:href="#ArialMT-8722"/>
       <use x="58.398438" xlink:href="#ArialMT-50"/>
       <use x="114.013672" xlink:href="#ArialMT-48"/>
      </g>
     </g>
    </g>
    <g id="ytick_4">
     <g id="line2d_4">
      <path clip-path="url(#pa97822c059)" d="M 50.62 220.046104 
L 720.22 220.046104 
" style="fill:none;stroke:#ffffff;stroke-linecap:round;"/>
     </g>
     <g id="text_11">
      <!-- −15 -->
      <g style="fill:#262626;" transform="translate(22.46125 223.982901)scale(0.11 -0.11)">
       <use xlink:href="#ArialMT-8722"/>
       <use x="58.398438" xlink:href="#ArialMT-49"/>
       <use x="114.013672" xlink:href="#ArialMT-53"/>
      </g>
     </g>
    </g>
    <g id="ytick_5">
     <g id="line2d_5">
      <path clip-path="url(#pa97822c059)" d="M 50.62 180.512676 
L 720.22 180.512676 
" style="fill:none;stroke:#ffffff;stroke-linecap:round;"/>
     </g>
     <g id="text_12">
      <!-- −10 -->
      <g style="fill:#262626;" transform="translate(22.46125 184.449473)scale(0.11 -0.11)">
       <use xlink:href="#ArialMT-8722"/>
       <use x="58.398438" xlink:href="#ArialMT-49"/>
       <use x="114.013672" xlink:href="#ArialMT-48"/>
      </g>
     </g>
    </g>
    <g id="ytick_6">
     <g id="line2d_6">
      <path clip-path="url(#pa97822c059)" d="M 50.62 140.979248 
L 720.22 140.979248 
" style="fill:none;stroke:#ffffff;stroke-linecap:round;"/>
     </g>
     <g id="text_13">
      <!-- −5 -->
      <g style="fill:#262626;" transform="translate(28.578281 144.916045)scale(0.11 -0.11)">
       <use xlink:href="#ArialMT-8722"/>
       <use x="58.398438" xlink:href="#ArialMT-53"/>
      </g>
     </g>
    </g>
    <g id="ytick_7">
     <g id="line2d_7">
      <path clip-path="url(#pa97822c059)" d="M 50.62 101.445819 
L 720.22 101.445819 
" style="fill:none;stroke:#ffffff;stroke-linecap:round;"/>
     </g>
     <g id="text_14">
      <!-- 0 -->
      <g style="fill:#262626;" transform="translate(35.002969 105.382616)scale(0.11 -0.11)">
       <use xlink:href="#ArialMT-48"/>
      </g>
     </g>
    </g>
    <g id="ytick_8">
     <g id="line2d_8">
      <path clip-path="url(#pa97822c059)" d="M 50.62 61.912391 
L 720.22 61.912391 
" style="fill:none;stroke:#ffffff;stroke-linecap:round;"/>
     </g>
     <g id="text_15">
      <!-- 5 -->
      <g style="fill:#262626;" transform="translate(35.002969 65.849188)scale(0.11 -0.11)">
       <use xlink:href="#ArialMT-53"/>
      </g>
     </g>
    </g>
    <g id="ytick_9">
     <g id="line2d_9">
      <path clip-path="url(#pa97822c059)" d="M 50.62 22.378963 
L 720.22 22.378963 
" style="fill:none;stroke:#ffffff;stroke-linecap:round;"/>
     </g>
     <g id="text_16">
      <!-- 10 -->
      <g style="fill:#262626;" transform="translate(28.885938 26.315759)scale(0.11 -0.11)">
       <use xlink:href="#ArialMT-49"/>
       <use x="55.615234" xlink:href="#ArialMT-48"/>
      </g>
     </g>
    </g>
    <g id="text_17">
     <!-- 1 - Estimation of Distance from average RSSI (m) -->
     <g style="fill:#262626;" transform="translate(15.935625 316.718437)rotate(-90)scale(0.12 -0.12)">
      <defs>
       <path d="M 3.171875 21.484375 
L 3.171875 30.328125 
L 30.171875 30.328125 
L 30.171875 21.484375 
z
" id="ArialMT-45"/>
       <path d="M 7.90625 0 
L 7.90625 71.578125 
L 59.671875 71.578125 
L 59.671875 63.140625 
L 17.390625 63.140625 
L 17.390625 41.21875 
L 56.984375 41.21875 
L 56.984375 32.8125 
L 17.390625 32.8125 
L 17.390625 8.453125 
L 61.328125 8.453125 
L 61.328125 0 
z
" id="ArialMT-69"/>
       <path d="M 3.328125 25.921875 
Q 3.328125 40.328125 11.328125 47.265625 
Q 18.015625 53.03125 27.640625 53.03125 
Q 38.328125 53.03125 45.109375 46.015625 
Q 51.90625 39.015625 51.90625 26.65625 
Q 51.90625 16.65625 48.90625 10.90625 
Q 45.90625 5.171875 40.15625 2 
Q 34.421875 -1.171875 27.640625 -1.171875 
Q 16.75 -1.171875 10.03125 5.8125 
Q 3.328125 12.796875 3.328125 25.921875 
z
M 12.359375 25.921875 
Q 12.359375 15.96875 16.703125 11.015625 
Q 21.046875 6.0625 27.640625 6.0625 
Q 34.1875 6.0625 38.53125 11.03125 
Q 42.875 16.015625 42.875 26.21875 
Q 42.875 35.84375 38.5 40.796875 
Q 34.125 45.75 27.640625 45.75 
Q 21.046875 45.75 16.703125 40.8125 
Q 12.359375 35.890625 12.359375 25.921875 
z
" id="ArialMT-111"/>
       <path d="M 8.6875 0 
L 8.6875 45.015625 
L 0.921875 45.015625 
L 0.921875 51.859375 
L 8.6875 51.859375 
L 8.6875 57.375 
Q 8.6875 62.59375 9.625 65.140625 
Q 10.890625 68.5625 14.078125 70.671875 
Q 17.28125 72.796875 23.046875 72.796875 
Q 26.765625 72.796875 31.25 71.921875 
L 29.9375 64.265625 
Q 27.203125 64.75 24.75 64.75 
Q 20.75 64.75 19.09375 63.03125 
Q 17.4375 61.328125 17.4375 56.640625 
L 17.4375 51.859375 
L 27.546875 51.859375 
L 27.546875 45.015625 
L 17.4375 45.015625 
L 17.4375 0 
z
" id="ArialMT-102"/>
       <path d="M 7.859375 0 
L 7.859375 71.578125 
L 39.59375 71.578125 
Q 49.171875 71.578125 54.140625 69.640625 
Q 59.125 67.71875 62.109375 62.828125 
Q 65.09375 57.953125 65.09375 52.046875 
Q 65.09375 44.4375 60.15625 39.203125 
Q 55.21875 33.984375 44.921875 32.5625 
Q 48.6875 30.765625 50.640625 29 
Q 54.78125 25.203125 58.5 19.484375 
L 70.953125 0 
L 59.03125 0 
L 49.5625 14.890625 
Q 45.40625 21.34375 42.71875 24.75 
Q 40.046875 28.171875 37.921875 29.53125 
Q 35.796875 30.90625 33.59375 31.453125 
Q 31.984375 31.78125 28.328125 31.78125 
L 17.328125 31.78125 
L 17.328125 0 
z
M 17.328125 39.984375 
L 37.703125 39.984375 
Q 44.1875 39.984375 47.84375 41.328125 
Q 51.515625 42.671875 53.421875 45.625 
Q 55.328125 48.578125 55.328125 52.046875 
Q 55.328125 57.125 51.640625 60.390625 
Q 47.953125 63.671875 39.984375 63.671875 
L 17.328125 63.671875 
z
" id="ArialMT-82"/>
       <path d="M 4.5 23 
L 13.421875 23.78125 
Q 14.0625 18.40625 16.375 14.96875 
Q 18.703125 11.53125 23.578125 9.40625 
Q 28.46875 7.28125 34.578125 7.28125 
Q 39.984375 7.28125 44.140625 8.890625 
Q 48.296875 10.5 50.3125 13.296875 
Q 52.34375 16.109375 52.34375 19.4375 
Q 52.34375 22.796875 50.390625 25.3125 
Q 48.4375 27.828125 43.953125 29.546875 
Q 41.0625 30.671875 31.203125 33.03125 
Q 21.34375 35.40625 17.390625 37.5 
Q 12.25 40.1875 9.734375 44.15625 
Q 7.234375 48.140625 7.234375 53.078125 
Q 7.234375 58.5 10.296875 63.203125 
Q 13.375 67.921875 19.28125 70.359375 
Q 25.203125 72.796875 32.421875 72.796875 
Q 40.375 72.796875 46.453125 70.234375 
Q 52.546875 67.671875 55.8125 62.6875 
Q 59.078125 57.71875 59.328125 51.421875 
L 50.25 50.734375 
Q 49.515625 57.515625 45.28125 60.984375 
Q 41.0625 64.453125 32.8125 64.453125 
Q 24.21875 64.453125 20.28125 61.296875 
Q 16.359375 58.15625 16.359375 53.71875 
Q 16.359375 49.859375 19.140625 47.359375 
Q 21.875 44.875 33.421875 42.265625 
Q 44.96875 39.65625 49.265625 37.703125 
Q 55.515625 34.8125 58.484375 30.390625 
Q 61.46875 25.984375 61.46875 20.21875 
Q 61.46875 14.5 58.203125 9.4375 
Q 54.9375 4.390625 48.796875 1.578125 
Q 42.671875 -1.21875 35.015625 -1.21875 
Q 25.296875 -1.21875 18.71875 1.609375 
Q 12.15625 4.4375 8.421875 10.125 
Q 4.6875 15.828125 4.5 23 
z
" id="ArialMT-83"/>
       <path d="M 9.328125 0 
L 9.328125 71.578125 
L 18.796875 71.578125 
L 18.796875 0 
z
" id="ArialMT-73"/>
      </defs>
      <use xlink:href="#ArialMT-49"/>
      <use x="55.615234" xlink:href="#ArialMT-32"/>
      <use x="83.398438" xlink:href="#ArialMT-45"/>
      <use x="116.699219" xlink:href="#ArialMT-32"/>
      <use x="144.482422" xlink:href="#ArialMT-69"/>
      <use x="211.181641" xlink:href="#ArialMT-115"/>
      <use x="261.181641" xlink:href="#ArialMT-116"/>
      <use x="288.964844" xlink:href="#ArialMT-105"/>
      <use x="311.181641" xlink:href="#ArialMT-109"/>
      <use x="394.482422" xlink:href="#ArialMT-97"/>
      <use x="450.097656" xlink:href="#ArialMT-116"/>
      <use x="477.880859" xlink:href="#ArialMT-105"/>
      <use x="500.097656" xlink:href="#ArialMT-111"/>
      <use x="555.712891" xlink:href="#ArialMT-110"/>
      <use x="611.328125" xlink:href="#ArialMT-32"/>
      <use x="639.111328" xlink:href="#ArialMT-111"/>
      <use x="694.726562" xlink:href="#ArialMT-102"/>
      <use x="722.509766" xlink:href="#ArialMT-32"/>
      <use x="750.292969" xlink:href="#ArialMT-68"/>
      <use x="822.509766" xlink:href="#ArialMT-105"/>
      <use x="844.726562" xlink:href="#ArialMT-115"/>
      <use x="894.726562" xlink:href="#ArialMT-116"/>
      <use x="922.509766" xlink:href="#ArialMT-97"/>
      <use x="978.125" xlink:href="#ArialMT-110"/>
      <use x="1033.740234" xlink:href="#ArialMT-99"/>
      <use x="1083.740234" xlink:href="#ArialMT-101"/>
      <use x="1139.355469" xlink:href="#ArialMT-32"/>
      <use x="1167.138672" xlink:href="#ArialMT-102"/>
      <use x="1194.921875" xlink:href="#ArialMT-114"/>
      <use x="1228.222656" xlink:href="#ArialMT-111"/>
      <use x="1283.837891" xlink:href="#ArialMT-109"/>
      <use x="1367.138672" xlink:href="#ArialMT-32"/>
      <use x="1394.921875" xlink:href="#ArialMT-97"/>
      <use x="1450.537109" xlink:href="#ArialMT-118"/>
      <use x="1500.537109" xlink:href="#ArialMT-101"/>
      <use x="1556.152344" xlink:href="#ArialMT-114"/>
      <use x="1589.453125" xlink:href="#ArialMT-97"/>
      <use x="1645.068359" xlink:href="#ArialMT-103"/>
      <use x="1700.683594" xlink:href="#ArialMT-101"/>
      <use x="1756.298828" xlink:href="#ArialMT-32"/>
      <use x="1784.082031" xlink:href="#ArialMT-82"/>
      <use x="1856.298828" xlink:href="#ArialMT-83"/>
      <use x="1922.998047" xlink:href="#ArialMT-83"/>
      <use x="1989.697266" xlink:href="#ArialMT-73"/>
      <use x="2017.480469" xlink:href="#ArialMT-32"/>
      <use x="2045.263672" xlink:href="#ArialMT-40"/>
      <use x="2078.564453" xlink:href="#ArialMT-109"/>
      <use x="2161.865234" xlink:href="#ArialMT-41"/>
     </g>
    </g>
   </g>
   <g id="PolyCollection_1">
    <defs>
     <path d="M 106.682957 -233.742586 
L 106.157043 -233.742586 
L 106.079825 -234.445072 
L 105.985586 -235.147557 
L 105.872273 -235.850043 
L 105.738038 -236.552528 
L 105.581355 -237.255014 
L 105.401143 -237.957499 
L 105.196885 -238.659985 
L 104.968715 -239.36247 
L 104.717484 -240.064956 
L 104.444781 -240.767441 
L 104.152911 -241.469927 
L 103.844828 -242.172412 
L 103.524018 -242.874898 
L 103.194353 -243.577383 
L 102.859908 -244.279869 
L 102.524768 -244.982354 
L 102.192839 -245.68484 
L 101.867667 -246.387325 
L 101.552287 -247.089811 
L 101.249109 -247.792296 
L 100.959853 -248.494782 
L 100.685519 -249.197267 
L 100.426411 -249.899753 
L 100.182187 -250.602238 
L 99.951953 -251.304724 
L 99.73436 -252.007209 
L 99.527721 -252.709694 
L 99.330122 -253.41218 
L 99.139529 -254.114665 
L 98.953872 -254.817151 
L 98.771124 -255.519636 
L 98.589345 -256.222122 
L 98.40672 -256.924607 
L 98.22157 -257.627093 
L 98.032353 -258.329578 
L 97.837653 -259.032064 
L 97.636154 -259.734549 
L 97.42662 -260.437035 
L 97.207858 -261.13952 
L 96.978688 -261.842006 
L 96.737906 -262.544491 
L 96.484251 -263.246977 
L 96.216366 -263.949462 
L 95.932759 -264.651948 
L 95.631763 -265.354433 
L 95.311485 -266.056919 
L 94.969759 -266.759404 
L 94.604088 -267.46189 
L 94.211574 -268.164375 
L 93.788852 -268.866861 
L 93.332014 -269.569346 
L 92.836529 -270.271832 
L 92.297178 -270.974317 
L 91.707998 -271.676803 
L 91.062252 -272.379288 
L 90.352449 -273.081774 
L 89.570429 -273.784259 
L 88.707532 -274.486745 
L 87.75488 -275.18923 
L 86.7038 -275.891716 
L 85.546389 -276.594201 
L 84.276244 -277.296687 
L 82.889344 -277.999172 
L 81.385059 -278.701658 
L 79.767233 -279.404143 
L 78.045282 -280.106629 
L 76.235191 -280.809114 
L 74.36032 -281.511599 
L 72.451868 -282.214085 
L 70.548898 -282.91657 
L 68.697796 -283.619056 
L 66.951114 -284.321541 
L 65.365752 -285.024027 
L 64.00055 -285.726512 
L 62.913362 -286.428998 
L 62.15782 -287.131483 
L 61.78 -287.833969 
L 61.815267 -288.536454 
L 62.285571 -289.23894 
L 63.197461 -289.941425 
L 64.541023 -290.643911 
L 66.289872 -291.346396 
L 68.402242 -292.048882 
L 70.823095 -292.751367 
L 73.487099 -293.453853 
L 76.322222 -294.156338 
L 79.253645 -294.858824 
L 82.207679 -295.561309 
L 85.115367 -296.263795 
L 87.91554 -296.96628 
L 90.557099 -297.668766 
L 93.000456 -298.371251 
L 95.218079 -299.073737 
L 97.194239 -299.776222 
L 98.924054 -300.478708 
L 100.412017 -301.181193 
L 101.670195 -301.883679 
L 102.716286 -302.586164 
L 103.571697 -303.28865 
L 109.268303 -303.28865 
L 109.268303 -303.28865 
L 110.123714 -302.586164 
L 111.169805 -301.883679 
L 112.427983 -301.181193 
L 113.915946 -300.478708 
L 115.645761 -299.776222 
L 117.621921 -299.073737 
L 119.839544 -298.371251 
L 122.282901 -297.668766 
L 124.92446 -296.96628 
L 127.724633 -296.263795 
L 130.632321 -295.561309 
L 133.586355 -294.858824 
L 136.517778 -294.156338 
L 139.352901 -293.453853 
L 142.016905 -292.751367 
L 144.437758 -292.048882 
L 146.550128 -291.346396 
L 148.298977 -290.643911 
L 149.642539 -289.941425 
L 150.554429 -289.23894 
L 151.024733 -288.536454 
L 151.06 -287.833969 
L 150.68218 -287.131483 
L 149.926638 -286.428998 
L 148.83945 -285.726512 
L 147.474248 -285.024027 
L 145.888886 -284.321541 
L 144.142204 -283.619056 
L 142.291102 -282.91657 
L 140.388132 -282.214085 
L 138.47968 -281.511599 
L 136.604809 -280.809114 
L 134.794718 -280.106629 
L 133.072767 -279.404143 
L 131.454941 -278.701658 
L 129.950656 -277.999172 
L 128.563756 -277.296687 
L 127.293611 -276.594201 
L 126.1362 -275.891716 
L 125.08512 -275.18923 
L 124.132468 -274.486745 
L 123.269571 -273.784259 
L 122.487551 -273.081774 
L 121.777748 -272.379288 
L 121.132002 -271.676803 
L 120.542822 -270.974317 
L 120.003471 -270.271832 
L 119.507986 -269.569346 
L 119.051148 -268.866861 
L 118.628426 -268.164375 
L 118.235912 -267.46189 
L 117.870241 -266.759404 
L 117.528515 -266.056919 
L 117.208237 -265.354433 
L 116.907241 -264.651948 
L 116.623634 -263.949462 
L 116.355749 -263.246977 
L 116.102094 -262.544491 
L 115.861312 -261.842006 
L 115.632142 -261.13952 
L 115.41338 -260.437035 
L 115.203846 -259.734549 
L 115.002347 -259.032064 
L 114.807647 -258.329578 
L 114.61843 -257.627093 
L 114.43328 -256.924607 
L 114.250655 -256.222122 
L 114.068876 -255.519636 
L 113.886128 -254.817151 
L 113.700471 -254.114665 
L 113.509878 -253.41218 
L 113.312279 -252.709694 
L 113.10564 -252.007209 
L 112.888047 -251.304724 
L 112.657813 -250.602238 
L 112.413589 -249.899753 
L 112.154481 -249.197267 
L 111.880147 -248.494782 
L 111.590891 -247.792296 
L 111.287713 -247.089811 
L 110.972333 -246.387325 
L 110.647161 -245.68484 
L 110.315232 -244.982354 
L 109.980092 -244.279869 
L 109.645647 -243.577383 
L 109.315982 -242.874898 
L 108.995172 -242.172412 
L 108.687089 -241.469927 
L 108.395219 -240.767441 
L 108.122516 -240.064956 
L 107.871285 -239.36247 
L 107.643115 -238.659985 
L 107.438857 -237.957499 
L 107.258645 -237.255014 
L 107.101962 -236.552528 
L 106.967727 -235.850043 
L 106.854414 -235.147557 
L 106.760175 -234.445072 
L 106.682957 -233.742586 
z
" id="ma2f3e1fe4e" style="stroke:#494949;stroke-width:1.5;"/>
    </defs>
    <g clip-path="url(#pa97822c059)">
     <use style="fill:#5875a4;stroke:#494949;stroke-width:1.5;" x="0" xlink:href="#ma2f3e1fe4e" y="390.245625"/>
    </g>
   </g>
   <g id="PolyCollection_2">
    <defs>
     <path d="M 218.165214 -189.848338 
L 217.874786 -189.848338 
L 217.832144 -191.120421 
L 217.780102 -192.392503 
L 217.717527 -193.664586 
L 217.643399 -194.936668 
L 217.556873 -196.208751 
L 217.457354 -197.480833 
L 217.344556 -198.752916 
L 217.218553 -200.024998 
L 217.079815 -201.29708 
L 216.92922 -202.569163 
L 216.76804 -203.841245 
L 216.597906 -205.113328 
L 216.420744 -206.38541 
L 216.238692 -207.657493 
L 216.054001 -208.929575 
L 215.868926 -210.201658 
L 215.685624 -211.47374 
L 215.506053 -212.745823 
L 215.33189 -214.017905 
L 215.164465 -215.289988 
L 215.004729 -216.56207 
L 214.853233 -217.834153 
L 214.710144 -219.106235 
L 214.575276 -220.378318 
L 214.448133 -221.6504 
L 214.327971 -222.922482 
L 214.213858 -224.194565 
L 214.104738 -225.466647 
L 213.999486 -226.73873 
L 213.89696 -228.010812 
L 213.796041 -229.282895 
L 213.695657 -230.554977 
L 213.594805 -231.82706 
L 213.492559 -233.099142 
L 213.388068 -234.371225 
L 213.280547 -235.643307 
L 213.169273 -236.91539 
L 213.053562 -238.187472 
L 212.932754 -239.459555 
L 212.806199 -240.731637 
L 212.673232 -242.00372 
L 212.533155 -243.275802 
L 212.38522 -244.547885 
L 212.228603 -245.819967 
L 212.062383 -247.092049 
L 211.885515 -248.364132 
L 211.696803 -249.636214 
L 211.494867 -250.908297 
L 211.278108 -252.180379 
L 211.044668 -253.452462 
L 210.792386 -254.724544 
L 210.518764 -255.996627 
L 210.220917 -257.268709 
L 209.895552 -258.540792 
L 209.53895 -259.812874 
L 209.146974 -261.084957 
L 208.715117 -262.357039 
L 208.238596 -263.629122 
L 207.712511 -264.901204 
L 207.13207 -266.173287 
L 206.49291 -267.445369 
L 205.791495 -268.717451 
L 205.025603 -269.989534 
L 204.194888 -271.261616 
L 203.301472 -272.533699 
L 202.350554 -273.805781 
L 201.350963 -275.077864 
L 200.315597 -276.349946 
L 199.261688 -277.622029 
L 198.210806 -278.894111 
L 197.188567 -280.166194 
L 196.223992 -281.438276 
L 195.348504 -282.710359 
L 194.594594 -283.982441 
L 193.994213 -285.254524 
L 193.576978 -286.526606 
L 193.368334 -287.798689 
L 193.38781 -289.070771 
L 193.647527 -290.342853 
L 194.151102 -291.614936 
L 194.893061 -292.887018 
L 195.858833 -294.159101 
L 197.025352 -295.431183 
L 198.362226 -296.703266 
L 199.833376 -297.975348 
L 201.399024 -299.247431 
L 203.017852 -300.519513 
L 204.649165 -301.791596 
L 206.254886 -303.063678 
L 207.801233 -304.335761 
L 209.259988 -305.607843 
L 210.609289 -306.879926 
L 211.833933 -308.152008 
L 212.925234 -309.424091 
L 213.880494 -310.696173 
L 214.702195 -311.968256 
L 215.397002 -313.240338 
L 215.974688 -314.51242 
L 216.447074 -315.784503 
L 219.592926 -315.784503 
L 219.592926 -315.784503 
L 220.065312 -314.51242 
L 220.642998 -313.240338 
L 221.337805 -311.968256 
L 222.159506 -310.696173 
L 223.114766 -309.424091 
L 224.206067 -308.152008 
L 225.430711 -306.879926 
L 226.780012 -305.607843 
L 228.238767 -304.335761 
L 229.785114 -303.063678 
L 231.390835 -301.791596 
L 233.022148 -300.519513 
L 234.640976 -299.247431 
L 236.206624 -297.975348 
L 237.677774 -296.703266 
L 239.014648 -295.431183 
L 240.181167 -294.159101 
L 241.146939 -292.887018 
L 241.888898 -291.614936 
L 242.392473 -290.342853 
L 242.65219 -289.070771 
L 242.671666 -287.798689 
L 242.463022 -286.526606 
L 242.045787 -285.254524 
L 241.445406 -283.982441 
L 240.691496 -282.710359 
L 239.816008 -281.438276 
L 238.851433 -280.166194 
L 237.829194 -278.894111 
L 236.778312 -277.622029 
L 235.724403 -276.349946 
L 234.689037 -275.077864 
L 233.689446 -273.805781 
L 232.738528 -272.533699 
L 231.845112 -271.261616 
L 231.014397 -269.989534 
L 230.248505 -268.717451 
L 229.54709 -267.445369 
L 228.90793 -266.173287 
L 228.327489 -264.901204 
L 227.801404 -263.629122 
L 227.324883 -262.357039 
L 226.893026 -261.084957 
L 226.50105 -259.812874 
L 226.144448 -258.540792 
L 225.819083 -257.268709 
L 225.521236 -255.996627 
L 225.247614 -254.724544 
L 224.995332 -253.452462 
L 224.761892 -252.180379 
L 224.545133 -250.908297 
L 224.343197 -249.636214 
L 224.154485 -248.364132 
L 223.977617 -247.092049 
L 223.811397 -245.819967 
L 223.65478 -244.547885 
L 223.506845 -243.275802 
L 223.366768 -242.00372 
L 223.233801 -240.731637 
L 223.107246 -239.459555 
L 222.986438 -238.187472 
L 222.870727 -236.91539 
L 222.759453 -235.643307 
L 222.651932 -234.371225 
L 222.547441 -233.099142 
L 222.445195 -231.82706 
L 222.344343 -230.554977 
L 222.243959 -229.282895 
L 222.14304 -228.010812 
L 222.040514 -226.73873 
L 221.935262 -225.466647 
L 221.826142 -224.194565 
L 221.712029 -222.922482 
L 221.591867 -221.6504 
L 221.464724 -220.378318 
L 221.329856 -219.106235 
L 221.186767 -217.834153 
L 221.035271 -216.56207 
L 220.875535 -215.289988 
L 220.70811 -214.017905 
L 220.533947 -212.745823 
L 220.354376 -211.47374 
L 220.171074 -210.201658 
L 219.985999 -208.929575 
L 219.801308 -207.657493 
L 219.619256 -206.38541 
L 219.442094 -205.113328 
L 219.27196 -203.841245 
L 219.11078 -202.569163 
L 218.960185 -201.29708 
L 218.821447 -200.024998 
L 218.695444 -198.752916 
L 218.582646 -197.480833 
L 218.483127 -196.208751 
L 218.396601 -194.936668 
L 218.322473 -193.664586 
L 218.259898 -192.392503 
L 218.207856 -191.120421 
L 218.165214 -189.848338 
z
" id="mc04fb5c9ed" style="stroke:#494949;stroke-width:1.5;"/>
    </defs>
    <g clip-path="url(#pa97822c059)">
     <use style="fill:#cc8963;stroke:#494949;stroke-width:1.5;" x="0" xlink:href="#mc04fb5c9ed" y="390.245625"/>
    </g>
   </g>
   <g id="PolyCollection_3">
    <defs>
     <path d="M 329.723519 -150.761911 
L 329.516481 -150.761911 
L 329.486083 -152.546356 
L 329.448983 -154.330801 
L 329.404375 -156.115247 
L 329.351531 -157.899692 
L 329.289849 -159.684137 
L 329.218905 -161.468582 
L 329.138494 -163.253028 
L 329.04867 -165.037473 
L 328.949768 -166.821918 
L 328.842412 -168.606363 
L 328.727511 -170.390808 
L 328.606228 -172.175254 
L 328.479934 -173.959699 
L 328.350154 -175.744144 
L 328.218493 -177.528589 
L 328.086558 -179.313035 
L 327.955887 -181.09748 
L 327.827876 -182.881925 
L 327.703719 -184.66637 
L 327.584367 -186.450815 
L 327.470495 -188.235261 
L 327.362498 -190.019706 
L 327.260494 -191.804151 
L 327.16435 -193.588596 
L 327.073713 -195.373042 
L 326.988053 -197.157487 
L 326.906705 -198.941932 
L 326.828916 -200.726377 
L 326.753885 -202.510822 
L 326.680797 -204.295268 
L 326.608854 -206.079713 
L 326.537293 -207.864158 
L 326.465399 -209.648603 
L 326.392511 -211.433049 
L 326.318021 -213.217494 
L 326.241373 -215.001939 
L 326.162049 -216.786384 
L 326.079561 -218.570829 
L 325.993441 -220.355275 
L 325.903223 -222.13972 
L 325.808434 -223.924165 
L 325.708577 -225.70861 
L 325.603119 -227.493056 
L 325.491471 -229.277501 
L 325.372977 -231.061946 
L 325.246892 -232.846391 
L 325.112365 -234.630836 
L 324.96841 -236.415282 
L 324.813889 -238.199727 
L 324.647475 -239.984172 
L 324.467631 -241.768617 
L 324.272572 -243.553062 
L 324.060246 -245.337508 
L 323.828302 -247.121953 
L 323.57409 -248.906398 
L 323.294661 -250.690843 
L 322.986802 -252.475289 
L 322.647103 -254.259734 
L 322.272071 -256.044179 
L 321.858291 -257.828624 
L 321.402651 -259.613069 
L 320.902631 -261.397515 
L 320.356648 -263.18196 
L 319.764454 -264.966405 
L 319.127561 -266.75085 
L 318.449678 -268.535296 
L 317.737097 -270.319741 
L 316.999013 -272.104186 
L 316.24771 -273.888631 
L 315.498564 -275.673076 
L 314.769838 -277.457522 
L 314.082219 -279.241967 
L 313.458107 -281.026412 
L 312.920665 -282.810857 
L 312.49267 -284.595303 
L 312.195235 -286.379748 
L 312.046498 -288.164193 
L 312.060381 -289.948638 
L 312.245527 -291.733083 
L 312.604512 -293.517529 
L 313.133434 -295.301974 
L 313.821906 -297.086419 
L 314.653487 -298.870864 
L 315.606508 -300.65531 
L 316.65525 -302.439755 
L 317.771358 -304.2242 
L 318.925376 -306.008645 
L 320.088296 -307.79309 
L 321.23297 -309.577536 
L 322.335319 -311.361981 
L 323.375226 -313.146426 
L 324.337106 -314.930871 
L 325.210121 -316.715317 
L 325.98808 -318.499762 
L 326.669059 -320.284207 
L 327.254827 -322.068652 
L 327.750136 -323.853097 
L 328.161953 -325.637543 
L 328.498704 -327.421988 
L 330.741296 -327.421988 
L 330.741296 -327.421988 
L 331.078047 -325.637543 
L 331.489864 -323.853097 
L 331.985173 -322.068652 
L 332.570941 -320.284207 
L 333.25192 -318.499762 
L 334.029879 -316.715317 
L 334.902894 -314.930871 
L 335.864774 -313.146426 
L 336.904681 -311.361981 
L 338.00703 -309.577536 
L 339.151704 -307.79309 
L 340.314624 -306.008645 
L 341.468642 -304.2242 
L 342.58475 -302.439755 
L 343.633492 -300.65531 
L 344.586513 -298.870864 
L 345.418094 -297.086419 
L 346.106566 -295.301974 
L 346.635488 -293.517529 
L 346.994473 -291.733083 
L 347.179619 -289.948638 
L 347.193502 -288.164193 
L 347.044765 -286.379748 
L 346.74733 -284.595303 
L 346.319335 -282.810857 
L 345.781893 -281.026412 
L 345.157781 -279.241967 
L 344.470162 -277.457522 
L 343.741436 -275.673076 
L 342.99229 -273.888631 
L 342.240987 -272.104186 
L 341.502903 -270.319741 
L 340.790322 -268.535296 
L 340.112439 -266.75085 
L 339.475546 -264.966405 
L 338.883352 -263.18196 
L 338.337369 -261.397515 
L 337.837349 -259.613069 
L 337.381709 -257.828624 
L 336.967929 -256.044179 
L 336.592897 -254.259734 
L 336.253198 -252.475289 
L 335.945339 -250.690843 
L 335.66591 -248.906398 
L 335.411698 -247.121953 
L 335.179754 -245.337508 
L 334.967428 -243.553062 
L 334.772369 -241.768617 
L 334.592525 -239.984172 
L 334.426111 -238.199727 
L 334.27159 -236.415282 
L 334.127635 -234.630836 
L 333.993108 -232.846391 
L 333.867023 -231.061946 
L 333.748529 -229.277501 
L 333.636881 -227.493056 
L 333.531423 -225.70861 
L 333.431566 -223.924165 
L 333.336777 -222.13972 
L 333.246559 -220.355275 
L 333.160439 -218.570829 
L 333.077951 -216.786384 
L 332.998627 -215.001939 
L 332.921979 -213.217494 
L 332.847489 -211.433049 
L 332.774601 -209.648603 
L 332.702707 -207.864158 
L 332.631146 -206.079713 
L 332.559203 -204.295268 
L 332.486115 -202.510822 
L 332.411084 -200.726377 
L 332.333295 -198.941932 
L 332.251947 -197.157487 
L 332.166287 -195.373042 
L 332.07565 -193.588596 
L 331.979506 -191.804151 
L 331.877502 -190.019706 
L 331.769505 -188.235261 
L 331.655633 -186.450815 
L 331.536281 -184.66637 
L 331.412124 -182.881925 
L 331.284113 -181.09748 
L 331.153442 -179.313035 
L 331.021507 -177.528589 
L 330.889846 -175.744144 
L 330.760066 -173.959699 
L 330.633772 -172.175254 
L 330.512489 -170.390808 
L 330.397588 -168.606363 
L 330.290232 -166.821918 
L 330.19133 -165.037473 
L 330.101506 -163.253028 
L 330.021095 -161.468582 
L 329.950151 -159.684137 
L 329.888469 -157.899692 
L 329.835625 -156.115247 
L 329.791017 -154.330801 
L 329.753917 -152.546356 
L 329.723519 -150.761911 
z
" id="mc0fb569a5e" style="stroke:#494949;stroke-width:1.5;"/>
    </defs>
    <g clip-path="url(#pa97822c059)">
     <use style="fill:#5f9e6e;stroke:#494949;stroke-width:1.5;" x="0" xlink:href="#mc0fb569a5e" y="390.245625"/>
    </g>
   </g>
   <g id="PolyCollection_4">
    <defs>
     <path d="M 441.290941 -85.877928 
L 441.149059 -85.877928 
L 441.128227 -88.48184 
L 441.102803 -91.085753 
L 441.072234 -93.689665 
L 441.03602 -96.293578 
L 440.99375 -98.89749 
L 440.945132 -101.501403 
L 440.890027 -104.105315 
L 440.828471 -106.709228 
L 440.760694 -109.31314 
L 440.687124 -111.917053 
L 440.608383 -114.520965 
L 440.525268 -117.124877 
L 440.43872 -119.72879 
L 440.349783 -122.332702 
L 440.259556 -124.936615 
L 440.169141 -127.540527 
L 440.079593 -130.14444 
L 439.991868 -132.748352 
L 439.906785 -135.352265 
L 439.824993 -137.956177 
L 439.746957 -140.56009 
L 439.672947 -143.164002 
L 439.603045 -145.767915 
L 439.537158 -148.371827 
L 439.475045 -150.975739 
L 439.416343 -153.579652 
L 439.360596 -156.183564 
L 439.307287 -158.787477 
L 439.255869 -161.391389 
L 439.205782 -163.995302 
L 439.15648 -166.599214 
L 439.10744 -169.203127 
L 439.058171 -171.807039 
L 439.008221 -174.410952 
L 438.957174 -177.014864 
L 438.904648 -179.618776 
L 438.850287 -182.222689 
L 438.793759 -184.826601 
L 438.734741 -187.430514 
L 438.672916 -190.034426 
L 438.607957 -192.638339 
L 438.539526 -195.242251 
L 438.467256 -197.846164 
L 438.390744 -200.450076 
L 438.309541 -203.053989 
L 438.223136 -205.657901 
L 438.130945 -208.261814 
L 438.032294 -210.865726 
L 437.926402 -213.469638 
L 437.812359 -216.073551 
L 437.689113 -218.677463 
L 437.555441 -221.281376 
L 437.409934 -223.885288 
L 437.250985 -226.489201 
L 437.076775 -229.093113 
L 436.885284 -231.697026 
L 436.67431 -234.300938 
L 436.441517 -236.904851 
L 436.18451 -239.508763 
L 435.900948 -242.112676 
L 435.588701 -244.716588 
L 435.246041 -247.3205 
L 434.871882 -249.924413 
L 434.466055 -252.528325 
L 434.029596 -255.132238 
L 433.565047 -257.73615 
L 433.076719 -260.340063 
L 432.570915 -262.943975 
L 432.056051 -265.547888 
L 431.542667 -268.1518 
L 431.043275 -270.755713 
L 430.572054 -273.359625 
L 430.144354 -275.963537 
L 429.776048 -278.56745 
L 429.482746 -281.171362 
L 429.278915 -283.775275 
L 429.176987 -286.379187 
L 429.186501 -288.9831 
L 429.31338 -291.587012 
L 429.55939 -294.190925 
L 429.921858 -296.794837 
L 430.393663 -299.39875 
L 430.96354 -302.002662 
L 431.61664 -304.606575 
L 432.335337 -307.210487 
L 433.100198 -309.814399 
L 433.89104 -312.418312 
L 434.687982 -315.022224 
L 435.47242 -317.626137 
L 436.227853 -320.230049 
L 436.940495 -322.833962 
L 437.599665 -325.437874 
L 438.197937 -328.041787 
L 438.731067 -330.645699 
L 439.197738 -333.249612 
L 439.599162 -335.853524 
L 439.938594 -338.457437 
L 440.220809 -341.061349 
L 440.451583 -343.665261 
L 441.988417 -343.665261 
L 441.988417 -343.665261 
L 442.219191 -341.061349 
L 442.501406 -338.457437 
L 442.840838 -335.853524 
L 443.242262 -333.249612 
L 443.708933 -330.645699 
L 444.242063 -328.041787 
L 444.840335 -325.437874 
L 445.499505 -322.833962 
L 446.212147 -320.230049 
L 446.96758 -317.626137 
L 447.752018 -315.022224 
L 448.54896 -312.418312 
L 449.339802 -309.814399 
L 450.104663 -307.210487 
L 450.82336 -304.606575 
L 451.47646 -302.002662 
L 452.046337 -299.39875 
L 452.518142 -296.794837 
L 452.88061 -294.190925 
L 453.12662 -291.587012 
L 453.253499 -288.9831 
L 453.263013 -286.379187 
L 453.161085 -283.775275 
L 452.957254 -281.171362 
L 452.663952 -278.56745 
L 452.295646 -275.963537 
L 451.867946 -273.359625 
L 451.396725 -270.755713 
L 450.897333 -268.1518 
L 450.383949 -265.547888 
L 449.869085 -262.943975 
L 449.363281 -260.340063 
L 448.874953 -257.73615 
L 448.410404 -255.132238 
L 447.973945 -252.528325 
L 447.568118 -249.924413 
L 447.193959 -247.3205 
L 446.851299 -244.716588 
L 446.539052 -242.112676 
L 446.25549 -239.508763 
L 445.998483 -236.904851 
L 445.76569 -234.300938 
L 445.554716 -231.697026 
L 445.363225 -229.093113 
L 445.189015 -226.489201 
L 445.030066 -223.885288 
L 444.884559 -221.281376 
L 444.750887 -218.677463 
L 444.627641 -216.073551 
L 444.513598 -213.469638 
L 444.407706 -210.865726 
L 444.309055 -208.261814 
L 444.216864 -205.657901 
L 444.130459 -203.053989 
L 444.049256 -200.450076 
L 443.972744 -197.846164 
L 443.900474 -195.242251 
L 443.832043 -192.638339 
L 443.767084 -190.034426 
L 443.705259 -187.430514 
L 443.646241 -184.826601 
L 443.589713 -182.222689 
L 443.535352 -179.618776 
L 443.482826 -177.014864 
L 443.431779 -174.410952 
L 443.381829 -171.807039 
L 443.33256 -169.203127 
L 443.28352 -166.599214 
L 443.234218 -163.995302 
L 443.184131 -161.391389 
L 443.132713 -158.787477 
L 443.079404 -156.183564 
L 443.023657 -153.579652 
L 442.964955 -150.975739 
L 442.902842 -148.371827 
L 442.836955 -145.767915 
L 442.767053 -143.164002 
L 442.693043 -140.56009 
L 442.615007 -137.956177 
L 442.533215 -135.352265 
L 442.448132 -132.748352 
L 442.360407 -130.14444 
L 442.270859 -127.540527 
L 442.180444 -124.936615 
L 442.090217 -122.332702 
L 442.00128 -119.72879 
L 441.914732 -117.124877 
L 441.831617 -114.520965 
L 441.752876 -111.917053 
L 441.679306 -109.31314 
L 441.611529 -106.709228 
L 441.549973 -104.105315 
L 441.494868 -101.501403 
L 441.44625 -98.89749 
L 441.40398 -96.293578 
L 441.367766 -93.689665 
L 441.337197 -91.085753 
L 441.311773 -88.48184 
L 441.290941 -85.877928 
z
" id="m98da019d36" style="stroke:#494949;stroke-width:1.5;"/>
    </defs>
    <g clip-path="url(#pa97822c059)">
     <use style="fill:#b55d60;stroke:#494949;stroke-width:1.5;" x="0" xlink:href="#m98da019d36" y="390.245625"/>
    </g>
   </g>
   <g id="PolyCollection_5">
    <defs>
     <path d="M 552.881676 -56.975455 
L 552.758324 -56.975455 
L 552.740212 -59.970496 
L 552.718108 -62.965537 
L 552.691531 -65.960579 
L 552.660046 -68.95562 
L 552.623296 -71.950661 
L 552.581028 -74.945702 
L 552.533119 -77.940744 
L 552.479602 -80.935785 
L 552.420676 -83.930826 
L 552.356713 -86.925868 
L 552.288255 -89.920909 
L 552.215995 -92.91595 
L 552.140749 -95.910992 
L 552.063426 -98.906033 
L 551.984982 -101.901074 
L 551.906375 -104.896116 
L 551.828522 -107.891157 
L 551.752253 -110.886198 
L 551.67828 -113.88124 
L 551.60717 -116.876281 
L 551.539325 -119.871322 
L 551.47498 -122.866364 
L 551.414207 -125.861405 
L 551.356924 -128.856446 
L 551.302923 -131.851488 
L 551.251886 -134.846529 
L 551.203419 -137.84157 
L 551.157073 -140.836612 
L 551.112369 -143.831653 
L 551.068823 -146.826694 
L 551.02596 -149.821736 
L 550.983324 -152.816777 
L 550.940489 -155.811818 
L 550.897062 -158.80686 
L 550.852682 -161.801901 
L 550.807015 -164.796942 
L 550.759753 -167.791983 
L 550.710607 -170.787025 
L 550.659297 -173.782066 
L 550.605545 -176.777107 
L 550.54907 -179.772149 
L 550.489575 -182.76719 
L 550.426743 -185.762231 
L 550.360223 -188.757273 
L 550.289624 -191.752314 
L 550.214503 -194.747355 
L 550.134352 -197.742397 
L 550.048584 -200.737438 
L 549.95652 -203.732479 
L 549.85737 -206.727521 
L 549.750219 -209.722562 
L 549.634003 -212.717603 
L 549.507499 -215.712645 
L 549.369307 -218.707686 
L 549.217848 -221.702727 
L 549.051364 -224.697769 
L 548.867941 -227.69281 
L 548.665549 -230.687851 
L 548.442105 -233.682893 
L 548.195575 -236.677934 
L 547.924105 -239.672975 
L 547.626193 -242.668017 
L 547.300896 -245.663058 
L 546.948067 -248.658099 
L 546.568607 -251.65314 
L 546.164724 -254.648182 
L 545.740168 -257.643223 
L 545.300418 -260.638264 
L 544.852791 -263.633306 
L 544.40645 -266.628347 
L 543.972275 -269.623388 
L 543.562592 -272.61843 
L 543.190746 -275.613471 
L 542.870539 -278.608512 
L 542.615539 -281.603554 
L 542.438327 -284.598595 
L 542.34971 -287.593636 
L 542.357982 -290.588678 
L 542.468291 -293.583719 
L 542.682174 -296.57876 
L 542.997306 -299.573802 
L 543.407498 -302.568843 
L 543.902953 -305.563884 
L 544.470763 -308.558926 
L 545.095604 -311.553967 
L 545.760581 -314.549008 
L 546.448145 -317.54405 
L 547.141012 -320.539091 
L 547.823009 -323.534132 
L 548.479788 -326.529174 
L 549.099364 -329.524215 
L 549.672452 -332.519256 
L 550.192595 -335.514298 
L 550.656102 -338.509339 
L 551.061829 -341.50438 
L 551.41083 -344.499421 
L 551.705936 -347.494463 
L 551.951296 -350.489504 
L 552.151932 -353.484545 
L 553.488068 -353.484545 
L 553.488068 -353.484545 
L 553.688704 -350.489504 
L 553.934064 -347.494463 
L 554.22917 -344.499421 
L 554.578171 -341.50438 
L 554.983898 -338.509339 
L 555.447405 -335.514298 
L 555.967548 -332.519256 
L 556.540636 -329.524215 
L 557.160212 -326.529174 
L 557.816991 -323.534132 
L 558.498988 -320.539091 
L 559.191855 -317.54405 
L 559.879419 -314.549008 
L 560.544396 -311.553967 
L 561.169237 -308.558926 
L 561.737047 -305.563884 
L 562.232502 -302.568843 
L 562.642694 -299.573802 
L 562.957826 -296.57876 
L 563.171709 -293.583719 
L 563.282018 -290.588678 
L 563.29029 -287.593636 
L 563.201673 -284.598595 
L 563.024461 -281.603554 
L 562.769461 -278.608512 
L 562.449254 -275.613471 
L 562.077408 -272.61843 
L 561.667725 -269.623388 
L 561.23355 -266.628347 
L 560.787209 -263.633306 
L 560.339582 -260.638264 
L 559.899832 -257.643223 
L 559.475276 -254.648182 
L 559.071393 -251.65314 
L 558.691933 -248.658099 
L 558.339104 -245.663058 
L 558.013807 -242.668017 
L 557.715895 -239.672975 
L 557.444425 -236.677934 
L 557.197895 -233.682893 
L 556.974451 -230.687851 
L 556.772059 -227.69281 
L 556.588636 -224.697769 
L 556.422152 -221.702727 
L 556.270693 -218.707686 
L 556.132501 -215.712645 
L 556.005997 -212.717603 
L 555.889781 -209.722562 
L 555.78263 -206.727521 
L 555.68348 -203.732479 
L 555.591416 -200.737438 
L 555.505648 -197.742397 
L 555.425497 -194.747355 
L 555.350376 -191.752314 
L 555.279777 -188.757273 
L 555.213257 -185.762231 
L 555.150425 -182.76719 
L 555.09093 -179.772149 
L 555.034455 -176.777107 
L 554.980703 -173.782066 
L 554.929393 -170.787025 
L 554.880247 -167.791983 
L 554.832985 -164.796942 
L 554.787318 -161.801901 
L 554.742938 -158.80686 
L 554.699511 -155.811818 
L 554.656676 -152.816777 
L 554.61404 -149.821736 
L 554.571177 -146.826694 
L 554.527631 -143.831653 
L 554.482927 -140.836612 
L 554.436581 -137.84157 
L 554.388114 -134.846529 
L 554.337077 -131.851488 
L 554.283076 -128.856446 
L 554.225793 -125.861405 
L 554.16502 -122.866364 
L 554.100675 -119.871322 
L 554.03283 -116.876281 
L 553.96172 -113.88124 
L 553.887747 -110.886198 
L 553.811478 -107.891157 
L 553.733625 -104.896116 
L 553.655018 -101.901074 
L 553.576574 -98.906033 
L 553.499251 -95.910992 
L 553.424005 -92.91595 
L 553.351745 -89.920909 
L 553.283287 -86.925868 
L 553.219324 -83.930826 
L 553.160398 -80.935785 
L 553.106881 -77.940744 
L 553.058972 -74.945702 
L 553.016704 -71.950661 
L 552.979954 -68.95562 
L 552.948469 -65.960579 
L 552.921892 -62.965537 
L 552.899788 -59.970496 
L 552.881676 -56.975455 
z
" id="mb2eb8d3bfd" style="stroke:#494949;stroke-width:1.5;"/>
    </defs>
    <g clip-path="url(#pa97822c059)">
     <use style="fill:#857aab;stroke:#494949;stroke-width:1.5;" x="0" xlink:href="#mb2eb8d3bfd" y="390.245625"/>
    </g>
   </g>
   <g id="PolyCollection_6">
    <defs>
     <path d="M 664.518699 -143.441244 
L 664.321301 -143.441244 
L 664.292319 -145.312837 
L 664.256947 -147.18443 
L 664.214416 -149.056024 
L 664.164032 -150.927617 
L 664.105222 -152.799211 
L 664.037581 -154.670804 
L 663.960915 -156.542397 
L 663.875273 -158.413991 
L 663.780976 -160.285584 
L 663.67862 -162.157178 
L 663.569069 -164.028771 
L 663.453433 -165.900364 
L 663.33302 -167.771958 
L 663.209283 -169.643551 
L 663.083752 -171.515145 
L 662.95796 -173.386738 
L 662.833374 -175.258331 
L 662.711323 -177.129925 
L 662.592948 -179.001518 
L 662.479153 -180.873111 
L 662.370584 -182.744705 
L 662.267615 -184.616298 
L 662.170361 -186.487892 
L 662.078694 -188.359485 
L 661.992278 -190.231078 
L 661.910606 -192.102672 
L 661.833046 -193.974265 
L 661.758879 -195.845859 
L 661.687342 -197.717452 
L 661.617657 -199.589045 
L 661.549064 -201.460639 
L 661.480835 -203.332232 
L 661.412289 -205.203826 
L 661.342794 -207.075419 
L 661.271773 -208.947012 
L 661.198694 -210.818606 
L 661.123064 -212.690199 
L 661.044417 -214.561793 
L 660.962307 -216.433386 
L 660.87629 -218.304979 
L 660.785914 -220.176573 
L 660.690707 -222.048166 
L 660.590159 -223.919759 
L 660.48371 -225.791353 
L 660.370734 -227.662946 
L 660.25052 -229.53454 
L 660.122257 -231.406133 
L 659.985005 -233.277726 
L 659.837679 -235.14932 
L 659.679014 -237.020913 
L 659.507544 -238.892507 
L 659.321568 -240.7641 
L 659.119128 -242.635693 
L 658.897984 -244.507287 
L 658.655609 -246.37888 
L 658.389192 -248.250474 
L 658.095668 -250.122067 
L 657.771787 -251.99366 
L 657.414218 -253.865254 
L 657.019704 -255.736847 
L 656.585281 -257.608441 
L 656.108543 -259.480034 
L 655.587983 -261.351627 
L 655.023364 -263.223221 
L 654.416127 -265.094814 
L 653.769809 -266.966408 
L 653.090408 -268.838001 
L 652.386692 -270.709594 
L 651.670372 -272.581188 
L 650.956109 -274.452781 
L 650.261315 -276.324374 
L 649.605714 -278.195968 
L 649.010663 -280.067561 
L 648.498247 -281.939155 
L 648.090181 -283.810748 
L 647.806595 -285.682341 
L 647.664784 -287.553935 
L 647.678021 -289.425528 
L 647.854545 -291.297122 
L 648.196815 -293.168715 
L 648.701108 -295.040308 
L 649.357523 -296.911902 
L 650.150382 -298.783495 
L 651.059027 -300.655089 
L 652.058936 -302.526682 
L 653.123074 -304.398275 
L 654.223357 -306.269869 
L 655.332126 -308.141462 
L 656.423501 -310.013056 
L 657.47452 -311.884649 
L 658.466005 -313.756242 
L 659.383097 -315.627836 
L 660.215461 -317.499429 
L 660.957195 -319.371022 
L 661.606465 -321.242616 
L 662.164958 -323.114209 
L 662.637204 -324.985803 
L 663.029845 -326.857396 
L 663.350916 -328.728989 
L 665.489084 -328.728989 
L 665.489084 -328.728989 
L 665.810155 -326.857396 
L 666.202796 -324.985803 
L 666.675042 -323.114209 
L 667.233535 -321.242616 
L 667.882805 -319.371022 
L 668.624539 -317.499429 
L 669.456903 -315.627836 
L 670.373995 -313.756242 
L 671.36548 -311.884649 
L 672.416499 -310.013056 
L 673.507874 -308.141462 
L 674.616643 -306.269869 
L 675.716926 -304.398275 
L 676.781064 -302.526682 
L 677.780973 -300.655089 
L 678.689618 -298.783495 
L 679.482477 -296.911902 
L 680.138892 -295.040308 
L 680.643185 -293.168715 
L 680.985455 -291.297122 
L 681.161979 -289.425528 
L 681.175216 -287.553935 
L 681.033405 -285.682341 
L 680.749819 -283.810748 
L 680.341753 -281.939155 
L 679.829337 -280.067561 
L 679.234286 -278.195968 
L 678.578685 -276.324374 
L 677.883891 -274.452781 
L 677.169628 -272.581188 
L 676.453308 -270.709594 
L 675.749592 -268.838001 
L 675.070191 -266.966408 
L 674.423873 -265.094814 
L 673.816636 -263.223221 
L 673.252017 -261.351627 
L 672.731457 -259.480034 
L 672.254719 -257.608441 
L 671.820296 -255.736847 
L 671.425782 -253.865254 
L 671.068213 -251.99366 
L 670.744332 -250.122067 
L 670.450808 -248.250474 
L 670.184391 -246.37888 
L 669.942016 -244.507287 
L 669.720872 -242.635693 
L 669.518432 -240.7641 
L 669.332456 -238.892507 
L 669.160986 -237.020913 
L 669.002321 -235.14932 
L 668.854995 -233.277726 
L 668.717743 -231.406133 
L 668.58948 -229.53454 
L 668.469266 -227.662946 
L 668.35629 -225.791353 
L 668.249841 -223.919759 
L 668.149293 -222.048166 
L 668.054086 -220.176573 
L 667.96371 -218.304979 
L 667.877693 -216.433386 
L 667.795583 -214.561793 
L 667.716936 -212.690199 
L 667.641306 -210.818606 
L 667.568227 -208.947012 
L 667.497206 -207.075419 
L 667.427711 -205.203826 
L 667.359165 -203.332232 
L 667.290936 -201.460639 
L 667.222343 -199.589045 
L 667.152658 -197.717452 
L 667.081121 -195.845859 
L 667.006954 -193.974265 
L 666.929394 -192.102672 
L 666.847722 -190.231078 
L 666.761306 -188.359485 
L 666.669639 -186.487892 
L 666.572385 -184.616298 
L 666.469416 -182.744705 
L 666.360847 -180.873111 
L 666.247052 -179.001518 
L 666.128677 -177.129925 
L 666.006626 -175.258331 
L 665.88204 -173.386738 
L 665.756248 -171.515145 
L 665.630717 -169.643551 
L 665.50698 -167.771958 
L 665.386567 -165.900364 
L 665.270931 -164.028771 
L 665.16138 -162.157178 
L 665.059024 -160.285584 
L 664.964727 -158.413991 
L 664.879085 -156.542397 
L 664.802419 -154.670804 
L 664.734778 -152.799211 
L 664.675968 -150.927617 
L 664.625584 -149.056024 
L 664.583053 -147.18443 
L 664.547681 -145.312837 
L 664.518699 -143.441244 
z
" id="m5cb1b2c957" style="stroke:#494949;stroke-width:1.5;"/>
    </defs>
    <g clip-path="url(#pa97822c059)">
     <use style="fill:#8d7866;stroke:#494949;stroke-width:1.5;" x="0" xlink:href="#m5cb1b2c957" y="390.245625"/>
    </g>
   </g>
   <g id="line2d_10">
    <path clip-path="url(#pa97822c059)" d="M 106.42 138.192483 
L 106.42 98.514814 
" style="fill:none;stroke:#494949;stroke-linecap:round;stroke-width:1.5;"/>
   </g>
   <g id="line2d_11">
    <path clip-path="url(#pa97822c059)" d="M 106.42 115.68589 
L 106.42 100.162904 
" style="fill:none;stroke:#494949;stroke-linecap:round;stroke-width:4.5;"/>
   </g>
   <g id="line2d_12">
    <path clip-path="url(#pa97822c059)" d="M 218.02 167.239965 
L 218.02 95.390415 
" style="fill:none;stroke:#494949;stroke-linecap:round;stroke-width:1.5;"/>
   </g>
   <g id="line2d_13">
    <path clip-path="url(#pa97822c059)" d="M 218.02 126.484331 
L 218.02 98.374827 
" style="fill:none;stroke:#494949;stroke-linecap:round;stroke-width:4.5;"/>
   </g>
   <g id="line2d_14">
    <path clip-path="url(#pa97822c059)" d="M 329.62 192.971459 
L 329.62 92.182721 
" style="fill:none;stroke:#494949;stroke-linecap:round;stroke-width:1.5;"/>
   </g>
   <g id="line2d_15">
    <path clip-path="url(#pa97822c059)" d="M 329.62 135.800483 
L 329.62 96.36918 
" style="fill:none;stroke:#494949;stroke-linecap:round;stroke-width:4.5;"/>
   </g>
   <g id="line2d_16">
    <path clip-path="url(#pa97822c059)" d="M 441.22 236.495711 
L 441.22 89.421962 
" style="fill:none;stroke:#494949;stroke-linecap:round;stroke-width:1.5;"/>
   </g>
   <g id="line2d_17">
    <path clip-path="url(#pa97822c059)" d="M 441.22 153.070221 
L 441.22 95.530959 
" style="fill:none;stroke:#494949;stroke-linecap:round;stroke-width:4.5;"/>
   </g>
   <g id="line2d_18">
    <path clip-path="url(#pa97822c059)" d="M 552.82 255.203259 
L 552.82 86.037835 
" style="fill:none;stroke:#494949;stroke-linecap:round;stroke-width:1.5;"/>
   </g>
   <g id="line2d_19">
    <path clip-path="url(#pa97822c059)" d="M 552.82 159.246581 
L 552.82 93.064454 
" style="fill:none;stroke:#494949;stroke-linecap:round;stroke-width:4.5;"/>
   </g>
   <g id="line2d_20">
    <path clip-path="url(#pa97822c059)" d="M 664.42 198.020575 
L 664.42 92.309549 
" style="fill:none;stroke:#494949;stroke-linecap:round;stroke-width:1.5;"/>
   </g>
   <g id="line2d_21">
    <path clip-path="url(#pa97822c059)" d="M 664.42 138.057501 
L 664.42 96.700465 
" style="fill:none;stroke:#494949;stroke-linecap:round;stroke-width:4.5;"/>
   </g>
   <g id="patch_3">
    <path d="M 50.62 348.095625 
L 50.62 21.935625 
" style="fill:none;stroke:#ffffff;stroke-linecap:square;stroke-linejoin:miter;stroke-width:1.25;"/>
   </g>
   <g id="patch_4">
    <path d="M 720.22 348.095625 
L 720.22 21.935625 
" style="fill:none;stroke:#ffffff;stroke-linecap:square;stroke-linejoin:miter;stroke-width:1.25;"/>
   </g>
   <g id="patch_5">
    <path d="M 50.62 348.095625 
L 720.22 348.095625 
" style="fill:none;stroke:#ffffff;stroke-linecap:square;stroke-linejoin:miter;stroke-width:1.25;"/>
   </g>
   <g id="patch_6">
    <path d="M 50.62 21.935625 
L 720.22 21.935625 
" style="fill:none;stroke:#ffffff;stroke-linecap:square;stroke-linejoin:miter;stroke-width:1.25;"/>
   </g>
   <g id="PathCollection_1">
    <defs>
     <path d="M 0 1.5 
C 0.397805 1.5 0.77937 1.341951 1.06066 1.06066 
C 1.341951 0.77937 1.5 0.397805 1.5 0 
C 1.5 -0.397805 1.341951 -0.77937 1.06066 -1.06066 
C 0.77937 -1.341951 0.397805 -1.5 0 -1.5 
C -0.397805 -1.5 -0.77937 -1.341951 -1.06066 -1.06066 
C -1.341951 -0.77937 -1.5 -0.397805 -1.5 0 
C -1.5 0.397805 -1.341951 0.77937 -1.06066 1.06066 
C -0.77937 1.341951 -0.397805 1.5 0 1.5 
z
" id="m0ecf3a3a9e" style="stroke:#494949;"/>
    </defs>
    <g clip-path="url(#pa97822c059)">
     <use style="fill:#ffffff;stroke:#494949;" x="106.42" xlink:href="#m0ecf3a3a9e" y="104.457584"/>
    </g>
   </g>
   <g id="PathCollection_2">
    <g clip-path="url(#pa97822c059)">
     <use style="fill:#ffffff;stroke:#494949;" x="218.02" xlink:href="#m0ecf3a3a9e" y="106.151765"/>
    </g>
   </g>
   <g id="PathCollection_3">
    <g clip-path="url(#pa97822c059)">
     <use style="fill:#ffffff;stroke:#494949;" x="329.62" xlink:href="#m0ecf3a3a9e" y="107.278473"/>
    </g>
   </g>
   <g id="PathCollection_4">
    <g clip-path="url(#pa97822c059)">
     <use style="fill:#ffffff;stroke:#494949;" x="441.22" xlink:href="#m0ecf3a3a9e" y="111.450105"/>
    </g>
   </g>
   <g id="PathCollection_5">
    <g clip-path="url(#pa97822c059)">
     <use style="fill:#ffffff;stroke:#494949;" x="552.82" xlink:href="#m0ecf3a3a9e" y="111.374785"/>
    </g>
   </g>
   <g id="PathCollection_6">
    <g clip-path="url(#pa97822c059)">
     <use style="fill:#ffffff;stroke:#494949;" x="664.42" xlink:href="#m0ecf3a3a9e" y="108.142542"/>
    </g>
   </g>
   <g id="text_18">
    <!-- Violinplot of Accuracy of Measure Power Estimation (Environment = 3) -->
    <g style="fill:#262626;" transform="translate(198.950313 15.935625)scale(0.12 -0.12)">
     <defs>
      <path d="M 28.171875 0 
L 0.4375 71.578125 
L 10.6875 71.578125 
L 29.296875 19.578125 
Q 31.546875 13.328125 33.0625 7.859375 
Q 34.71875 13.71875 36.921875 19.578125 
L 56.25 71.578125 
L 65.921875 71.578125 
L 37.890625 0 
z
" id="ArialMT-86"/>
      <path d="M 6.390625 0 
L 6.390625 71.578125 
L 15.1875 71.578125 
L 15.1875 0 
z
" id="ArialMT-108"/>
      <path d="M 6.59375 -19.875 
L 6.59375 51.859375 
L 14.59375 51.859375 
L 14.59375 45.125 
Q 17.4375 49.078125 21 51.046875 
Q 24.5625 53.03125 29.640625 53.03125 
Q 36.28125 53.03125 41.359375 49.609375 
Q 46.4375 46.1875 49.015625 39.953125 
Q 51.609375 33.734375 51.609375 26.3125 
Q 51.609375 18.359375 48.75 11.984375 
Q 45.90625 5.609375 40.453125 2.21875 
Q 35.015625 -1.171875 29 -1.171875 
Q 24.609375 -1.171875 21.109375 0.6875 
Q 17.625 2.546875 15.375 5.375 
L 15.375 -19.875 
z
M 14.546875 25.640625 
Q 14.546875 15.625 18.59375 10.84375 
Q 22.65625 6.0625 28.421875 6.0625 
Q 34.28125 6.0625 38.453125 11.015625 
Q 42.625 15.96875 42.625 26.375 
Q 42.625 36.28125 38.546875 41.203125 
Q 34.46875 46.140625 28.8125 46.140625 
Q 23.1875 46.140625 18.859375 40.890625 
Q 14.546875 35.640625 14.546875 25.640625 
z
" id="ArialMT-112"/>
      <path d="M 40.578125 0 
L 40.578125 7.625 
Q 34.515625 -1.171875 24.125 -1.171875 
Q 19.53125 -1.171875 15.546875 0.578125 
Q 11.578125 2.34375 9.640625 5 
Q 7.71875 7.671875 6.9375 11.53125 
Q 6.390625 14.109375 6.390625 19.734375 
L 6.390625 51.859375 
L 15.1875 51.859375 
L 15.1875 23.09375 
Q 15.1875 16.21875 15.71875 13.8125 
Q 16.546875 10.359375 19.234375 8.375 
Q 21.921875 6.390625 25.875 6.390625 
Q 29.828125 6.390625 33.296875 8.421875 
Q 36.765625 10.453125 38.203125 13.9375 
Q 39.65625 17.4375 39.65625 24.078125 
L 39.65625 51.859375 
L 48.4375 51.859375 
L 48.4375 0 
z
" id="ArialMT-117"/>
      <path d="M 6.203125 -19.96875 
L 5.21875 -11.71875 
Q 8.109375 -12.5 10.25 -12.5 
Q 13.1875 -12.5 14.9375 -11.515625 
Q 16.703125 -10.546875 17.828125 -8.796875 
Q 18.65625 -7.46875 20.515625 -2.25 
Q 20.75 -1.515625 21.296875 -0.09375 
L 1.609375 51.859375 
L 11.078125 51.859375 
L 21.875 21.828125 
Q 23.96875 16.109375 25.640625 9.8125 
Q 27.15625 15.875 29.25 21.625 
L 40.328125 51.859375 
L 49.125 51.859375 
L 29.390625 -0.875 
Q 26.21875 -9.421875 24.46875 -12.640625 
Q 22.125 -17 19.09375 -19.015625 
Q 16.0625 -21.046875 11.859375 -21.046875 
Q 9.328125 -21.046875 6.203125 -19.96875 
z
" id="ArialMT-121"/>
      <path d="M 7.421875 0 
L 7.421875 71.578125 
L 21.6875 71.578125 
L 38.625 20.90625 
Q 40.96875 13.8125 42.046875 10.296875 
Q 43.265625 14.203125 45.84375 21.78125 
L 62.984375 71.578125 
L 75.734375 71.578125 
L 75.734375 0 
L 66.609375 0 
L 66.609375 59.90625 
L 45.796875 0 
L 37.25 0 
L 16.546875 60.9375 
L 16.546875 0 
z
" id="ArialMT-77"/>
      <path d="M 7.71875 0 
L 7.71875 71.578125 
L 34.71875 71.578125 
Q 41.84375 71.578125 45.609375 70.90625 
Q 50.875 70.015625 54.4375 67.546875 
Q 58.015625 65.09375 60.1875 60.640625 
Q 62.359375 56.203125 62.359375 50.875 
Q 62.359375 41.75 56.546875 35.421875 
Q 50.734375 29.109375 35.546875 29.109375 
L 17.1875 29.109375 
L 17.1875 0 
z
M 17.1875 37.546875 
L 35.6875 37.546875 
Q 44.875 37.546875 48.734375 40.96875 
Q 52.59375 44.390625 52.59375 50.59375 
Q 52.59375 55.078125 50.3125 58.265625 
Q 48.046875 61.46875 44.34375 62.5 
Q 41.9375 63.140625 35.5 63.140625 
L 17.1875 63.140625 
z
" id="ArialMT-80"/>
      <path d="M 16.15625 0 
L 0.296875 51.859375 
L 9.375 51.859375 
L 17.625 21.921875 
L 20.703125 10.796875 
Q 20.90625 11.625 23.390625 21.484375 
L 31.640625 51.859375 
L 40.671875 51.859375 
L 48.4375 21.78125 
L 51.03125 11.859375 
L 54 21.875 
L 62.890625 51.859375 
L 71.4375 51.859375 
L 55.21875 0 
L 46.09375 0 
L 37.84375 31.0625 
L 35.84375 39.890625 
L 25.34375 0 
z
" id="ArialMT-119"/>
      <path d="M 52.828125 42.09375 
L 5.5625 42.09375 
L 5.5625 50.296875 
L 52.828125 50.296875 
z
M 52.828125 20.359375 
L 5.5625 20.359375 
L 5.5625 28.5625 
L 52.828125 28.5625 
z
" id="ArialMT-61"/>
     </defs>
     <use xlink:href="#ArialMT-86"/>
     <use x="64.949219" xlink:href="#ArialMT-105"/>
     <use x="87.166016" xlink:href="#ArialMT-111"/>
     <use x="142.78125" xlink:href="#ArialMT-108"/>
     <use x="164.998047" xlink:href="#ArialMT-105"/>
     <use x="187.214844" xlink:href="#ArialMT-110"/>
     <use x="242.830078" xlink:href="#ArialMT-112"/>
     <use x="298.445312" xlink:href="#ArialMT-108"/>
     <use x="320.662109" xlink:href="#ArialMT-111"/>
     <use x="376.277344" xlink:href="#ArialMT-116"/>
     <use x="404.060547" xlink:href="#ArialMT-32"/>
     <use x="431.84375" xlink:href="#ArialMT-111"/>
     <use x="487.458984" xlink:href="#ArialMT-102"/>
     <use x="515.242188" xlink:href="#ArialMT-32"/>
     <use x="537.525391" xlink:href="#ArialMT-65"/>
     <use x="604.224609" xlink:href="#ArialMT-99"/>
     <use x="654.224609" xlink:href="#ArialMT-99"/>
     <use x="704.224609" xlink:href="#ArialMT-117"/>
     <use x="759.839844" xlink:href="#ArialMT-114"/>
     <use x="793.140625" xlink:href="#ArialMT-97"/>
     <use x="848.755859" xlink:href="#ArialMT-99"/>
     <use x="898.755859" xlink:href="#ArialMT-121"/>
     <use x="948.755859" xlink:href="#ArialMT-32"/>
     <use x="976.539062" xlink:href="#ArialMT-111"/>
     <use x="1032.154297" xlink:href="#ArialMT-102"/>
     <use x="1059.9375" xlink:href="#ArialMT-32"/>
     <use x="1087.720703" xlink:href="#ArialMT-77"/>
     <use x="1171.021484" xlink:href="#ArialMT-101"/>
     <use x="1226.636719" xlink:href="#ArialMT-97"/>
     <use x="1282.251953" xlink:href="#ArialMT-115"/>
     <use x="1332.251953" xlink:href="#ArialMT-117"/>
     <use x="1387.867188" xlink:href="#ArialMT-114"/>
     <use x="1421.167969" xlink:href="#ArialMT-101"/>
     <use x="1476.783203" xlink:href="#ArialMT-32"/>
     <use x="1504.566406" xlink:href="#ArialMT-80"/>
     <use x="1571.265625" xlink:href="#ArialMT-111"/>
     <use x="1626.880859" xlink:href="#ArialMT-119"/>
     <use x="1699.097656" xlink:href="#ArialMT-101"/>
     <use x="1754.712891" xlink:href="#ArialMT-114"/>
     <use x="1788.013672" xlink:href="#ArialMT-32"/>
     <use x="1815.796875" xlink:href="#ArialMT-69"/>
     <use x="1882.496094" xlink:href="#ArialMT-115"/>
     <use x="1932.496094" xlink:href="#ArialMT-116"/>
     <use x="1960.279297" xlink:href="#ArialMT-105"/>
     <use x="1982.496094" xlink:href="#ArialMT-109"/>
     <use x="2065.796875" xlink:href="#ArialMT-97"/>
     <use x="2121.412109" xlink:href="#ArialMT-116"/>
     <use x="2149.195312" xlink:href="#ArialMT-105"/>
     <use x="2171.412109" xlink:href="#ArialMT-111"/>
     <use x="2227.027344" xlink:href="#ArialMT-110"/>
     <use x="2282.642578" xlink:href="#ArialMT-32"/>
     <use x="2310.425781" xlink:href="#ArialMT-40"/>
     <use x="2343.726562" xlink:href="#ArialMT-69"/>
     <use x="2410.425781" xlink:href="#ArialMT-110"/>
     <use x="2466.041016" xlink:href="#ArialMT-118"/>
     <use x="2516.041016" xlink:href="#ArialMT-105"/>
     <use x="2538.257812" xlink:href="#ArialMT-114"/>
     <use x="2571.558594" xlink:href="#ArialMT-111"/>
     <use x="2627.173828" xlink:href="#ArialMT-110"/>
     <use x="2682.789062" xlink:href="#ArialMT-109"/>
     <use x="2766.089844" xlink:href="#ArialMT-101"/>
     <use x="2821.705078" xlink:href="#ArialMT-110"/>
     <use x="2877.320312" xlink:href="#ArialMT-116"/>
     <use x="2905.103516" xlink:href="#ArialMT-32"/>
     <use x="2932.886719" xlink:href="#ArialMT-61"/>
     <use x="2991.285156" xlink:href="#ArialMT-32"/>
     <use x="3019.068359" xlink:href="#ArialMT-51"/>
     <use x="3074.683594" xlink:href="#ArialMT-41"/>
    </g>
   </g>
  </g>
 </g>
 <defs>
  <clipPath id="pa97822c059">
   <rect height="326.16" width="669.6" x="50.62" y="21.935625"/>
  </clipPath>
 </defs>
</svg>
