<?xml version="1.0" encoding="utf-8" standalone="no"?>
<!DOCTYPE svg PUBLIC "-//W3C//DTD SVG 1.1//EN"
  "http://www.w3.org/Graphics/SVG/1.1/DTD/svg11.dtd">
<!-- Created with matplotlib (https://matplotlib.org/) -->
<svg height="390.245625pt" version="1.1" viewBox="0 0 733.537031 390.245625" width="733.537031pt" xmlns="http://www.w3.org/2000/svg" xmlns:xlink="http://www.w3.org/1999/xlink">
 <metadata>
  <rdf:RDF xmlns:cc="http://creativecommons.org/ns#" xmlns:dc="http://purl.org/dc/elements/1.1/" xmlns:rdf="http://www.w3.org/1999/02/22-rdf-syntax-ns#">
   <cc:Work>
    <dc:type rdf:resource="http://purl.org/dc/dcmitype/StillImage"/>
    <dc:date>2020-12-03T16:11:08.433542</dc:date>
    <dc:format>image/svg+xml</dc:format>
    <dc:creator>
     <cc:Agent>
      <dc:title>Matplotlib v3.3.2, https://matplotlib.org/</dc:title>
     </cc:Agent>
    </dc:creator>
   </cc:Work>
  </rdf:RDF>
 </metadata>
 <defs>
  <style type="text/css">*{stroke-linecap:butt;stroke-linejoin:round;}</style>
 </defs>
 <g id="figure_1">
  <g id="patch_1">
   <path d="M 0 390.245625 
L 733.537031 390.245625 
L 733.537031 0 
L 0 0 
z
" style="fill:#ffffff;"/>
  </g>
  <g id="axes_1">
   <g id="patch_2">
    <path d="M 56.737031 348.095625 
L 726.337031 348.095625 
L 726.337031 21.935625 
L 56.737031 21.935625 
z
" style="fill:#eaeaf2;"/>
   </g>
   <g id="matplotlib.axis_1">
    <g id="xtick_1">
     <g id="text_1">
      <!-- 0.5m -->
      <g style="fill:#262626;" transform="translate(100.310703 365.469219)scale(0.11 -0.11)">
       <defs>
        <path d="M 4.15625 35.296875 
Q 4.15625 48 6.765625 55.734375 
Q 9.375 63.484375 14.515625 67.671875 
Q 19.671875 71.875 27.484375 71.875 
Q 33.25 71.875 37.59375 69.546875 
Q 41.9375 67.234375 44.765625 62.859375 
Q 47.609375 58.5 49.21875 52.21875 
Q 50.828125 45.953125 50.828125 35.296875 
Q 50.828125 22.703125 48.234375 14.96875 
Q 45.65625 7.234375 40.5 3 
Q 35.359375 -1.21875 27.484375 -1.21875 
Q 17.140625 -1.21875 11.234375 6.203125 
Q 4.15625 15.140625 4.15625 35.296875 
z
M 13.1875 35.296875 
Q 13.1875 17.671875 17.3125 11.828125 
Q 21.4375 6 27.484375 6 
Q 33.546875 6 37.671875 11.859375 
Q 41.796875 17.71875 41.796875 35.296875 
Q 41.796875 52.984375 37.671875 58.78125 
Q 33.546875 64.59375 27.390625 64.59375 
Q 21.34375 64.59375 17.71875 59.46875 
Q 13.1875 52.9375 13.1875 35.296875 
z
" id="ArialMT-48"/>
        <path d="M 9.078125 0 
L 9.078125 10.015625 
L 19.09375 10.015625 
L 19.09375 0 
z
" id="ArialMT-46"/>
        <path d="M 4.15625 18.75 
L 13.375 19.53125 
Q 14.40625 12.796875 18.140625 9.390625 
Q 21.875 6 27.15625 6 
Q 33.5 6 37.890625 10.78125 
Q 42.28125 15.578125 42.28125 23.484375 
Q 42.28125 31 38.0625 35.34375 
Q 33.84375 39.703125 27 39.703125 
Q 22.75 39.703125 19.328125 37.765625 
Q 15.921875 35.84375 13.96875 32.765625 
L 5.71875 33.84375 
L 12.640625 70.609375 
L 48.25 70.609375 
L 48.25 62.203125 
L 19.671875 62.203125 
L 15.828125 42.96875 
Q 22.265625 47.46875 29.34375 47.46875 
Q 38.71875 47.46875 45.15625 40.96875 
Q 51.609375 34.46875 51.609375 24.265625 
Q 51.609375 14.546875 45.953125 7.46875 
Q 39.0625 -1.21875 27.15625 -1.21875 
Q 17.390625 -1.21875 11.203125 4.25 
Q 5.03125 9.71875 4.15625 18.75 
z
" id="ArialMT-53"/>
        <path d="M 6.59375 0 
L 6.59375 51.859375 
L 14.453125 51.859375 
L 14.453125 44.578125 
Q 16.890625 48.390625 20.9375 50.703125 
Q 25 53.03125 30.171875 53.03125 
Q 35.9375 53.03125 39.625 50.640625 
Q 43.3125 48.25 44.828125 43.953125 
Q 50.984375 53.03125 60.84375 53.03125 
Q 68.5625 53.03125 72.703125 48.75 
Q 76.859375 44.484375 76.859375 35.59375 
L 76.859375 0 
L 68.109375 0 
L 68.109375 32.671875 
Q 68.109375 37.9375 67.25 40.25 
Q 66.40625 42.578125 64.15625 43.984375 
Q 61.921875 45.40625 58.890625 45.40625 
Q 53.421875 45.40625 49.796875 41.765625 
Q 46.1875 38.140625 46.1875 30.125 
L 46.1875 0 
L 37.40625 0 
L 37.40625 33.6875 
Q 37.40625 39.546875 35.25 42.46875 
Q 33.109375 45.40625 28.21875 45.40625 
Q 24.515625 45.40625 21.359375 43.453125 
Q 18.21875 41.5 16.796875 37.734375 
Q 15.375 33.984375 15.375 26.90625 
L 15.375 0 
z
" id="ArialMT-109"/>
       </defs>
       <use xlink:href="#ArialMT-48"/>
       <use x="55.615234" xlink:href="#ArialMT-46"/>
       <use x="83.398438" xlink:href="#ArialMT-53"/>
       <use x="139.013672" xlink:href="#ArialMT-109"/>
      </g>
     </g>
    </g>
    <g id="xtick_2">
     <g id="text_2">
      <!-- 1.0m -->
      <g style="fill:#262626;" transform="translate(211.910703 365.469219)scale(0.11 -0.11)">
       <defs>
        <path d="M 37.25 0 
L 28.46875 0 
L 28.46875 56 
Q 25.296875 52.984375 20.140625 49.953125 
Q 14.984375 46.921875 10.890625 45.40625 
L 10.890625 53.90625 
Q 18.265625 57.375 23.78125 62.296875 
Q 29.296875 67.234375 31.59375 71.875 
L 37.25 71.875 
z
" id="ArialMT-49"/>
       </defs>
       <use xlink:href="#ArialMT-49"/>
       <use x="55.615234" xlink:href="#ArialMT-46"/>
       <use x="83.398438" xlink:href="#ArialMT-48"/>
       <use x="139.013672" xlink:href="#ArialMT-109"/>
      </g>
     </g>
    </g>
    <g id="xtick_3">
     <g id="text_3">
      <!-- 1.5m -->
      <g style="fill:#262626;" transform="translate(323.510703 365.469219)scale(0.11 -0.11)">
       <use xlink:href="#ArialMT-49"/>
       <use x="55.615234" xlink:href="#ArialMT-46"/>
       <use x="83.398438" xlink:href="#ArialMT-53"/>
       <use x="139.013672" xlink:href="#ArialMT-109"/>
      </g>
     </g>
    </g>
    <g id="xtick_4">
     <g id="text_4">
      <!-- 2.0m -->
      <g style="fill:#262626;" transform="translate(435.110703 365.469219)scale(0.11 -0.11)">
       <defs>
        <path d="M 50.34375 8.453125 
L 50.34375 0 
L 3.03125 0 
Q 2.9375 3.171875 4.046875 6.109375 
Q 5.859375 10.9375 9.828125 15.625 
Q 13.8125 20.3125 21.34375 26.46875 
Q 33.015625 36.03125 37.109375 41.625 
Q 41.21875 47.21875 41.21875 52.203125 
Q 41.21875 57.421875 37.46875 61 
Q 33.734375 64.59375 27.734375 64.59375 
Q 21.390625 64.59375 17.578125 60.78125 
Q 13.765625 56.984375 13.71875 50.25 
L 4.6875 51.171875 
Q 5.609375 61.28125 11.65625 66.578125 
Q 17.71875 71.875 27.9375 71.875 
Q 38.234375 71.875 44.234375 66.15625 
Q 50.25 60.453125 50.25 52 
Q 50.25 47.703125 48.484375 43.546875 
Q 46.734375 39.40625 42.65625 34.8125 
Q 38.578125 30.21875 29.109375 22.21875 
Q 21.1875 15.578125 18.9375 13.203125 
Q 16.703125 10.84375 15.234375 8.453125 
z
" id="ArialMT-50"/>
       </defs>
       <use xlink:href="#ArialMT-50"/>
       <use x="55.615234" xlink:href="#ArialMT-46"/>
       <use x="83.398438" xlink:href="#ArialMT-48"/>
       <use x="139.013672" xlink:href="#ArialMT-109"/>
      </g>
     </g>
    </g>
    <g id="xtick_5">
     <g id="text_5">
      <!-- 2.5m -->
      <g style="fill:#262626;" transform="translate(546.710703 365.469219)scale(0.11 -0.11)">
       <use xlink:href="#ArialMT-50"/>
       <use x="55.615234" xlink:href="#ArialMT-46"/>
       <use x="83.398438" xlink:href="#ArialMT-53"/>
       <use x="139.013672" xlink:href="#ArialMT-109"/>
      </g>
     </g>
    </g>
    <g id="xtick_6">
     <g id="text_6">
      <!-- Average -->
      <g style="fill:#262626;" transform="translate(650.149219 365.469219)scale(0.11 -0.11)">
       <defs>
        <path d="M -0.140625 0 
L 27.34375 71.578125 
L 37.546875 71.578125 
L 66.84375 0 
L 56.0625 0 
L 47.703125 21.6875 
L 17.78125 21.6875 
L 9.90625 0 
z
M 20.515625 29.390625 
L 44.78125 29.390625 
L 37.3125 49.21875 
Q 33.890625 58.25 32.234375 64.0625 
Q 30.859375 57.171875 28.375 50.390625 
z
" id="ArialMT-65"/>
        <path d="M 21 0 
L 1.265625 51.859375 
L 10.546875 51.859375 
L 21.6875 20.796875 
Q 23.484375 15.765625 25 10.359375 
Q 26.171875 14.453125 28.265625 20.21875 
L 39.796875 51.859375 
L 48.828125 51.859375 
L 29.203125 0 
z
" id="ArialMT-118"/>
        <path d="M 42.09375 16.703125 
L 51.171875 15.578125 
Q 49.03125 7.625 43.21875 3.21875 
Q 37.40625 -1.171875 28.375 -1.171875 
Q 17 -1.171875 10.328125 5.828125 
Q 3.65625 12.84375 3.65625 25.484375 
Q 3.65625 38.578125 10.390625 45.796875 
Q 17.140625 53.03125 27.875 53.03125 
Q 38.28125 53.03125 44.875 45.953125 
Q 51.46875 38.875 51.46875 26.03125 
Q 51.46875 25.25 51.421875 23.6875 
L 12.75 23.6875 
Q 13.234375 15.140625 17.578125 10.59375 
Q 21.921875 6.0625 28.421875 6.0625 
Q 33.25 6.0625 36.671875 8.59375 
Q 40.09375 11.140625 42.09375 16.703125 
z
M 13.234375 30.90625 
L 42.1875 30.90625 
Q 41.609375 37.453125 38.875 40.71875 
Q 34.671875 45.796875 27.984375 45.796875 
Q 21.921875 45.796875 17.796875 41.75 
Q 13.671875 37.703125 13.234375 30.90625 
z
" id="ArialMT-101"/>
        <path d="M 6.5 0 
L 6.5 51.859375 
L 14.40625 51.859375 
L 14.40625 44 
Q 17.4375 49.515625 20 51.265625 
Q 22.5625 53.03125 25.640625 53.03125 
Q 30.078125 53.03125 34.671875 50.203125 
L 31.640625 42.046875 
Q 28.421875 43.953125 25.203125 43.953125 
Q 22.3125 43.953125 20.015625 42.21875 
Q 17.71875 40.484375 16.75 37.40625 
Q 15.28125 32.71875 15.28125 27.15625 
L 15.28125 0 
z
" id="ArialMT-114"/>
        <path d="M 40.4375 6.390625 
Q 35.546875 2.25 31.03125 0.53125 
Q 26.515625 -1.171875 21.34375 -1.171875 
Q 12.796875 -1.171875 8.203125 3 
Q 3.609375 7.171875 3.609375 13.671875 
Q 3.609375 17.484375 5.34375 20.625 
Q 7.078125 23.78125 9.890625 25.6875 
Q 12.703125 27.59375 16.21875 28.5625 
Q 18.796875 29.25 24.03125 29.890625 
Q 34.671875 31.15625 39.703125 32.90625 
Q 39.75 34.71875 39.75 35.203125 
Q 39.75 40.578125 37.25 42.78125 
Q 33.890625 45.75 27.25 45.75 
Q 21.046875 45.75 18.09375 43.578125 
Q 15.140625 41.40625 13.71875 35.890625 
L 5.125 37.0625 
Q 6.296875 42.578125 8.984375 45.96875 
Q 11.671875 49.359375 16.75 51.1875 
Q 21.828125 53.03125 28.515625 53.03125 
Q 35.15625 53.03125 39.296875 51.46875 
Q 43.453125 49.90625 45.40625 47.53125 
Q 47.359375 45.171875 48.140625 41.546875 
Q 48.578125 39.3125 48.578125 33.453125 
L 48.578125 21.734375 
Q 48.578125 9.46875 49.140625 6.21875 
Q 49.703125 2.984375 51.375 0 
L 42.1875 0 
Q 40.828125 2.734375 40.4375 6.390625 
z
M 39.703125 26.03125 
Q 34.90625 24.078125 25.34375 22.703125 
Q 19.921875 21.921875 17.671875 20.9375 
Q 15.4375 19.96875 14.203125 18.09375 
Q 12.984375 16.21875 12.984375 13.921875 
Q 12.984375 10.40625 15.640625 8.0625 
Q 18.3125 5.71875 23.4375 5.71875 
Q 28.515625 5.71875 32.46875 7.9375 
Q 36.421875 10.15625 38.28125 14.015625 
Q 39.703125 17 39.703125 22.796875 
z
" id="ArialMT-97"/>
        <path d="M 4.984375 -4.296875 
L 13.53125 -5.5625 
Q 14.0625 -9.515625 16.5 -11.328125 
Q 19.78125 -13.765625 25.4375 -13.765625 
Q 31.546875 -13.765625 34.859375 -11.328125 
Q 38.1875 -8.890625 39.359375 -4.5 
Q 40.046875 -1.8125 39.984375 6.78125 
Q 34.234375 0 25.640625 0 
Q 14.9375 0 9.078125 7.71875 
Q 3.21875 15.4375 3.21875 26.21875 
Q 3.21875 33.640625 5.90625 39.90625 
Q 8.59375 46.1875 13.6875 49.609375 
Q 18.796875 53.03125 25.6875 53.03125 
Q 34.859375 53.03125 40.828125 45.609375 
L 40.828125 51.859375 
L 48.921875 51.859375 
L 48.921875 7.03125 
Q 48.921875 -5.078125 46.453125 -10.125 
Q 44 -15.1875 38.640625 -18.109375 
Q 33.296875 -21.046875 25.484375 -21.046875 
Q 16.21875 -21.046875 10.5 -16.875 
Q 4.78125 -12.703125 4.984375 -4.296875 
z
M 12.25 26.859375 
Q 12.25 16.65625 16.296875 11.96875 
Q 20.359375 7.28125 26.46875 7.28125 
Q 32.515625 7.28125 36.609375 11.9375 
Q 40.71875 16.609375 40.71875 26.5625 
Q 40.71875 36.078125 36.5 40.90625 
Q 32.28125 45.75 26.3125 45.75 
Q 20.453125 45.75 16.34375 40.984375 
Q 12.25 36.234375 12.25 26.859375 
z
" id="ArialMT-103"/>
       </defs>
       <use xlink:href="#ArialMT-65"/>
       <use x="64.949219" xlink:href="#ArialMT-118"/>
       <use x="114.949219" xlink:href="#ArialMT-101"/>
       <use x="170.564453" xlink:href="#ArialMT-114"/>
       <use x="203.865234" xlink:href="#ArialMT-97"/>
       <use x="259.480469" xlink:href="#ArialMT-103"/>
       <use x="315.095703" xlink:href="#ArialMT-101"/>
      </g>
     </g>
    </g>
    <g id="text_7">
     <!-- Distance (m) -->
     <g style="fill:#262626;" transform="translate(357.533906 380.52)scale(0.12 -0.12)">
      <defs>
       <path d="M 7.71875 0 
L 7.71875 71.578125 
L 32.375 71.578125 
Q 40.71875 71.578125 45.125 70.5625 
Q 51.265625 69.140625 55.609375 65.4375 
Q 61.28125 60.640625 64.078125 53.1875 
Q 66.890625 45.75 66.890625 36.1875 
Q 66.890625 28.03125 64.984375 21.734375 
Q 63.09375 15.4375 60.109375 11.296875 
Q 57.125 7.171875 53.578125 4.796875 
Q 50.046875 2.4375 45.046875 1.21875 
Q 40.046875 0 33.546875 0 
z
M 17.1875 8.453125 
L 32.46875 8.453125 
Q 39.546875 8.453125 43.578125 9.765625 
Q 47.609375 11.078125 50 13.484375 
Q 53.375 16.84375 55.25 22.53125 
Q 57.125 28.21875 57.125 36.328125 
Q 57.125 47.5625 53.4375 53.59375 
Q 49.75 59.625 44.484375 61.671875 
Q 40.671875 63.140625 32.234375 63.140625 
L 17.1875 63.140625 
z
" id="ArialMT-68"/>
       <path d="M 6.640625 61.46875 
L 6.640625 71.578125 
L 15.4375 71.578125 
L 15.4375 61.46875 
z
M 6.640625 0 
L 6.640625 51.859375 
L 15.4375 51.859375 
L 15.4375 0 
z
" id="ArialMT-105"/>
       <path d="M 3.078125 15.484375 
L 11.765625 16.84375 
Q 12.5 11.625 15.84375 8.84375 
Q 19.1875 6.0625 25.203125 6.0625 
Q 31.25 6.0625 34.171875 8.515625 
Q 37.109375 10.984375 37.109375 14.3125 
Q 37.109375 17.28125 34.515625 19 
Q 32.71875 20.171875 25.53125 21.96875 
Q 15.875 24.421875 12.140625 26.203125 
Q 8.40625 27.984375 6.46875 31.125 
Q 4.546875 34.28125 4.546875 38.09375 
Q 4.546875 41.546875 6.125 44.5 
Q 7.71875 47.46875 10.453125 49.421875 
Q 12.5 50.921875 16.03125 51.96875 
Q 19.578125 53.03125 23.640625 53.03125 
Q 29.734375 53.03125 34.34375 51.265625 
Q 38.96875 49.515625 41.15625 46.5 
Q 43.359375 43.5 44.1875 38.484375 
L 35.59375 37.3125 
Q 35.015625 41.3125 32.203125 43.546875 
Q 29.390625 45.796875 24.265625 45.796875 
Q 18.21875 45.796875 15.625 43.796875 
Q 13.03125 41.796875 13.03125 39.109375 
Q 13.03125 37.40625 14.109375 36.03125 
Q 15.1875 34.625 17.484375 33.6875 
Q 18.796875 33.203125 25.25 31.453125 
Q 34.578125 28.953125 38.25 27.359375 
Q 41.9375 25.78125 44.03125 22.75 
Q 46.140625 19.734375 46.140625 15.234375 
Q 46.140625 10.84375 43.578125 6.953125 
Q 41.015625 3.078125 36.171875 0.953125 
Q 31.34375 -1.171875 25.25 -1.171875 
Q 15.140625 -1.171875 9.84375 3.03125 
Q 4.546875 7.234375 3.078125 15.484375 
z
" id="ArialMT-115"/>
       <path d="M 25.78125 7.859375 
L 27.046875 0.09375 
Q 23.34375 -0.6875 20.40625 -0.6875 
Q 15.625 -0.6875 12.984375 0.828125 
Q 10.359375 2.34375 9.28125 4.8125 
Q 8.203125 7.28125 8.203125 15.1875 
L 8.203125 45.015625 
L 1.765625 45.015625 
L 1.765625 51.859375 
L 8.203125 51.859375 
L 8.203125 64.703125 
L 16.9375 69.96875 
L 16.9375 51.859375 
L 25.78125 51.859375 
L 25.78125 45.015625 
L 16.9375 45.015625 
L 16.9375 14.703125 
Q 16.9375 10.9375 17.40625 9.859375 
Q 17.875 8.796875 18.921875 8.15625 
Q 19.96875 7.515625 21.921875 7.515625 
Q 23.390625 7.515625 25.78125 7.859375 
z
" id="ArialMT-116"/>
       <path d="M 6.59375 0 
L 6.59375 51.859375 
L 14.5 51.859375 
L 14.5 44.484375 
Q 20.21875 53.03125 31 53.03125 
Q 35.6875 53.03125 39.625 51.34375 
Q 43.5625 49.65625 45.515625 46.921875 
Q 47.46875 44.1875 48.25 40.4375 
Q 48.734375 37.984375 48.734375 31.890625 
L 48.734375 0 
L 39.9375 0 
L 39.9375 31.546875 
Q 39.9375 36.921875 38.90625 39.578125 
Q 37.890625 42.234375 35.28125 43.8125 
Q 32.671875 45.40625 29.15625 45.40625 
Q 23.53125 45.40625 19.453125 41.84375 
Q 15.375 38.28125 15.375 28.328125 
L 15.375 0 
z
" id="ArialMT-110"/>
       <path d="M 40.4375 19 
L 49.078125 17.875 
Q 47.65625 8.9375 41.8125 3.875 
Q 35.984375 -1.171875 27.484375 -1.171875 
Q 16.84375 -1.171875 10.375 5.78125 
Q 3.90625 12.75 3.90625 25.734375 
Q 3.90625 34.125 6.6875 40.421875 
Q 9.46875 46.734375 15.15625 49.875 
Q 20.84375 53.03125 27.546875 53.03125 
Q 35.984375 53.03125 41.359375 48.75 
Q 46.734375 44.484375 48.25 36.625 
L 39.703125 35.296875 
Q 38.484375 40.53125 35.375 43.15625 
Q 32.28125 45.796875 27.875 45.796875 
Q 21.234375 45.796875 17.078125 41.03125 
Q 12.9375 36.28125 12.9375 25.984375 
Q 12.9375 15.53125 16.9375 10.796875 
Q 20.953125 6.0625 27.390625 6.0625 
Q 32.5625 6.0625 36.03125 9.234375 
Q 39.5 12.40625 40.4375 19 
z
" id="ArialMT-99"/>
       <path id="ArialMT-32"/>
       <path d="M 23.390625 -21.046875 
Q 16.109375 -11.859375 11.078125 0.4375 
Q 6.0625 12.75 6.0625 25.921875 
Q 6.0625 37.546875 9.8125 48.1875 
Q 14.203125 60.546875 23.390625 72.796875 
L 29.6875 72.796875 
Q 23.78125 62.640625 21.875 58.296875 
Q 18.890625 51.5625 17.1875 44.234375 
Q 15.09375 35.109375 15.09375 25.875 
Q 15.09375 2.390625 29.6875 -21.046875 
z
" id="ArialMT-40"/>
       <path d="M 12.359375 -21.046875 
L 6.0625 -21.046875 
Q 20.65625 2.390625 20.65625 25.875 
Q 20.65625 35.0625 18.5625 44.09375 
Q 16.890625 51.421875 13.921875 58.15625 
Q 12.015625 62.546875 6.0625 72.796875 
L 12.359375 72.796875 
Q 21.53125 60.546875 25.921875 48.1875 
Q 29.6875 37.546875 29.6875 25.921875 
Q 29.6875 12.75 24.625 0.4375 
Q 19.578125 -11.859375 12.359375 -21.046875 
z
" id="ArialMT-41"/>
      </defs>
      <use xlink:href="#ArialMT-68"/>
      <use x="72.216797" xlink:href="#ArialMT-105"/>
      <use x="94.433594" xlink:href="#ArialMT-115"/>
      <use x="144.433594" xlink:href="#ArialMT-116"/>
      <use x="172.216797" xlink:href="#ArialMT-97"/>
      <use x="227.832031" xlink:href="#ArialMT-110"/>
      <use x="283.447266" xlink:href="#ArialMT-99"/>
      <use x="333.447266" xlink:href="#ArialMT-101"/>
      <use x="389.0625" xlink:href="#ArialMT-32"/>
      <use x="416.845703" xlink:href="#ArialMT-40"/>
      <use x="450.146484" xlink:href="#ArialMT-109"/>
      <use x="533.447266" xlink:href="#ArialMT-41"/>
     </g>
    </g>
   </g>
   <g id="matplotlib.axis_2">
    <g id="ytick_1">
     <g id="line2d_1">
      <path clip-path="url(#p00501b77fb)" d="M 56.737031 322.549685 
L 726.337031 322.549685 
" style="fill:none;stroke:#ffffff;stroke-linecap:round;"/>
     </g>
     <g id="text_8">
      <!-- −150 -->
      <g style="fill:#262626;" transform="translate(22.46125 326.486482)scale(0.11 -0.11)">
       <defs>
        <path d="M 52.828125 31.203125 
L 5.5625 31.203125 
L 5.5625 39.40625 
L 52.828125 39.40625 
z
" id="ArialMT-8722"/>
       </defs>
       <use xlink:href="#ArialMT-8722"/>
       <use x="58.398438" xlink:href="#ArialMT-49"/>
       <use x="114.013672" xlink:href="#ArialMT-53"/>
       <use x="169.628906" xlink:href="#ArialMT-48"/>
      </g>
     </g>
    </g>
    <g id="ytick_2">
     <g id="line2d_2">
      <path clip-path="url(#p00501b77fb)" d="M 56.737031 283.289405 
L 726.337031 283.289405 
" style="fill:none;stroke:#ffffff;stroke-linecap:round;"/>
     </g>
     <g id="text_9">
      <!-- −125 -->
      <g style="fill:#262626;" transform="translate(22.46125 287.226201)scale(0.11 -0.11)">
       <use xlink:href="#ArialMT-8722"/>
       <use x="58.398438" xlink:href="#ArialMT-49"/>
       <use x="114.013672" xlink:href="#ArialMT-50"/>
       <use x="169.628906" xlink:href="#ArialMT-53"/>
      </g>
     </g>
    </g>
    <g id="ytick_3">
     <g id="line2d_3">
      <path clip-path="url(#p00501b77fb)" d="M 56.737031 244.029124 
L 726.337031 244.029124 
" style="fill:none;stroke:#ffffff;stroke-linecap:round;"/>
     </g>
     <g id="text_10">
      <!-- −100 -->
      <g style="fill:#262626;" transform="translate(22.46125 247.965921)scale(0.11 -0.11)">
       <use xlink:href="#ArialMT-8722"/>
       <use x="58.398438" xlink:href="#ArialMT-49"/>
       <use x="114.013672" xlink:href="#ArialMT-48"/>
       <use x="169.628906" xlink:href="#ArialMT-48"/>
      </g>
     </g>
    </g>
    <g id="ytick_4">
     <g id="line2d_4">
      <path clip-path="url(#p00501b77fb)" d="M 56.737031 204.768844 
L 726.337031 204.768844 
" style="fill:none;stroke:#ffffff;stroke-linecap:round;"/>
     </g>
     <g id="text_11">
      <!-- −75 -->
      <g style="fill:#262626;" transform="translate(28.578281 208.705641)scale(0.11 -0.11)">
       <defs>
        <path d="M 4.734375 62.203125 
L 4.734375 70.65625 
L 51.078125 70.65625 
L 51.078125 63.8125 
Q 44.234375 56.546875 37.515625 44.484375 
Q 30.8125 32.421875 27.15625 19.671875 
Q 24.515625 10.6875 23.78125 0 
L 14.75 0 
Q 14.890625 8.453125 18.0625 20.40625 
Q 21.234375 32.375 27.171875 43.484375 
Q 33.109375 54.59375 39.796875 62.203125 
z
" id="ArialMT-55"/>
       </defs>
       <use xlink:href="#ArialMT-8722"/>
       <use x="58.398438" xlink:href="#ArialMT-55"/>
       <use x="114.013672" xlink:href="#ArialMT-53"/>
      </g>
     </g>
    </g>
    <g id="ytick_5">
     <g id="line2d_5">
      <path clip-path="url(#p00501b77fb)" d="M 56.737031 165.508564 
L 726.337031 165.508564 
" style="fill:none;stroke:#ffffff;stroke-linecap:round;"/>
     </g>
     <g id="text_12">
      <!-- −50 -->
      <g style="fill:#262626;" transform="translate(28.578281 169.445361)scale(0.11 -0.11)">
       <use xlink:href="#ArialMT-8722"/>
       <use x="58.398438" xlink:href="#ArialMT-53"/>
       <use x="114.013672" xlink:href="#ArialMT-48"/>
      </g>
     </g>
    </g>
    <g id="ytick_6">
     <g id="line2d_6">
      <path clip-path="url(#p00501b77fb)" d="M 56.737031 126.248284 
L 726.337031 126.248284 
" style="fill:none;stroke:#ffffff;stroke-linecap:round;"/>
     </g>
     <g id="text_13">
      <!-- −25 -->
      <g style="fill:#262626;" transform="translate(28.578281 130.185081)scale(0.11 -0.11)">
       <use xlink:href="#ArialMT-8722"/>
       <use x="58.398438" xlink:href="#ArialMT-50"/>
       <use x="114.013672" xlink:href="#ArialMT-53"/>
      </g>
     </g>
    </g>
    <g id="ytick_7">
     <g id="line2d_7">
      <path clip-path="url(#p00501b77fb)" d="M 56.737031 86.988004 
L 726.337031 86.988004 
" style="fill:none;stroke:#ffffff;stroke-linecap:round;"/>
     </g>
     <g id="text_14">
      <!-- 0 -->
      <g style="fill:#262626;" transform="translate(41.12 90.9248)scale(0.11 -0.11)">
       <use xlink:href="#ArialMT-48"/>
      </g>
     </g>
    </g>
    <g id="ytick_8">
     <g id="line2d_8">
      <path clip-path="url(#p00501b77fb)" d="M 56.737031 47.727723 
L 726.337031 47.727723 
" style="fill:none;stroke:#ffffff;stroke-linecap:round;"/>
     </g>
     <g id="text_15">
      <!-- 25 -->
      <g style="fill:#262626;" transform="translate(35.002969 51.66452)scale(0.11 -0.11)">
       <use xlink:href="#ArialMT-50"/>
       <use x="55.615234" xlink:href="#ArialMT-53"/>
      </g>
     </g>
    </g>
    <g id="text_16">
     <!-- 1 - Estimation of Distance from average RSSI (m) -->
     <g style="fill:#262626;" transform="translate(15.935625 316.718437)rotate(-90)scale(0.12 -0.12)">
      <defs>
       <path d="M 3.171875 21.484375 
L 3.171875 30.328125 
L 30.171875 30.328125 
L 30.171875 21.484375 
z
" id="ArialMT-45"/>
       <path d="M 7.90625 0 
L 7.90625 71.578125 
L 59.671875 71.578125 
L 59.671875 63.140625 
L 17.390625 63.140625 
L 17.390625 41.21875 
L 56.984375 41.21875 
L 56.984375 32.8125 
L 17.390625 32.8125 
L 17.390625 8.453125 
L 61.328125 8.453125 
L 61.328125 0 
z
" id="ArialMT-69"/>
       <path d="M 3.328125 25.921875 
Q 3.328125 40.328125 11.328125 47.265625 
Q 18.015625 53.03125 27.640625 53.03125 
Q 38.328125 53.03125 45.109375 46.015625 
Q 51.90625 39.015625 51.90625 26.65625 
Q 51.90625 16.65625 48.90625 10.90625 
Q 45.90625 5.171875 40.15625 2 
Q 34.421875 -1.171875 27.640625 -1.171875 
Q 16.75 -1.171875 10.03125 5.8125 
Q 3.328125 12.796875 3.328125 25.921875 
z
M 12.359375 25.921875 
Q 12.359375 15.96875 16.703125 11.015625 
Q 21.046875 6.0625 27.640625 6.0625 
Q 34.1875 6.0625 38.53125 11.03125 
Q 42.875 16.015625 42.875 26.21875 
Q 42.875 35.84375 38.5 40.796875 
Q 34.125 45.75 27.640625 45.75 
Q 21.046875 45.75 16.703125 40.8125 
Q 12.359375 35.890625 12.359375 25.921875 
z
" id="ArialMT-111"/>
       <path d="M 8.6875 0 
L 8.6875 45.015625 
L 0.921875 45.015625 
L 0.921875 51.859375 
L 8.6875 51.859375 
L 8.6875 57.375 
Q 8.6875 62.59375 9.625 65.140625 
Q 10.890625 68.5625 14.078125 70.671875 
Q 17.28125 72.796875 23.046875 72.796875 
Q 26.765625 72.796875 31.25 71.921875 
L 29.9375 64.265625 
Q 27.203125 64.75 24.75 64.75 
Q 20.75 64.75 19.09375 63.03125 
Q 17.4375 61.328125 17.4375 56.640625 
L 17.4375 51.859375 
L 27.546875 51.859375 
L 27.546875 45.015625 
L 17.4375 45.015625 
L 17.4375 0 
z
" id="ArialMT-102"/>
       <path d="M 7.859375 0 
L 7.859375 71.578125 
L 39.59375 71.578125 
Q 49.171875 71.578125 54.140625 69.640625 
Q 59.125 67.71875 62.109375 62.828125 
Q 65.09375 57.953125 65.09375 52.046875 
Q 65.09375 44.4375 60.15625 39.203125 
Q 55.21875 33.984375 44.921875 32.5625 
Q 48.6875 30.765625 50.640625 29 
Q 54.78125 25.203125 58.5 19.484375 
L 70.953125 0 
L 59.03125 0 
L 49.5625 14.890625 
Q 45.40625 21.34375 42.71875 24.75 
Q 40.046875 28.171875 37.921875 29.53125 
Q 35.796875 30.90625 33.59375 31.453125 
Q 31.984375 31.78125 28.328125 31.78125 
L 17.328125 31.78125 
L 17.328125 0 
z
M 17.328125 39.984375 
L 37.703125 39.984375 
Q 44.1875 39.984375 47.84375 41.328125 
Q 51.515625 42.671875 53.421875 45.625 
Q 55.328125 48.578125 55.328125 52.046875 
Q 55.328125 57.125 51.640625 60.390625 
Q 47.953125 63.671875 39.984375 63.671875 
L 17.328125 63.671875 
z
" id="ArialMT-82"/>
       <path d="M 4.5 23 
L 13.421875 23.78125 
Q 14.0625 18.40625 16.375 14.96875 
Q 18.703125 11.53125 23.578125 9.40625 
Q 28.46875 7.28125 34.578125 7.28125 
Q 39.984375 7.28125 44.140625 8.890625 
Q 48.296875 10.5 50.3125 13.296875 
Q 52.34375 16.109375 52.34375 19.4375 
Q 52.34375 22.796875 50.390625 25.3125 
Q 48.4375 27.828125 43.953125 29.546875 
Q 41.0625 30.671875 31.203125 33.03125 
Q 21.34375 35.40625 17.390625 37.5 
Q 12.25 40.1875 9.734375 44.15625 
Q 7.234375 48.140625 7.234375 53.078125 
Q 7.234375 58.5 10.296875 63.203125 
Q 13.375 67.921875 19.28125 70.359375 
Q 25.203125 72.796875 32.421875 72.796875 
Q 40.375 72.796875 46.453125 70.234375 
Q 52.546875 67.671875 55.8125 62.6875 
Q 59.078125 57.71875 59.328125 51.421875 
L 50.25 50.734375 
Q 49.515625 57.515625 45.28125 60.984375 
Q 41.0625 64.453125 32.8125 64.453125 
Q 24.21875 64.453125 20.28125 61.296875 
Q 16.359375 58.15625 16.359375 53.71875 
Q 16.359375 49.859375 19.140625 47.359375 
Q 21.875 44.875 33.421875 42.265625 
Q 44.96875 39.65625 49.265625 37.703125 
Q 55.515625 34.8125 58.484375 30.390625 
Q 61.46875 25.984375 61.46875 20.21875 
Q 61.46875 14.5 58.203125 9.4375 
Q 54.9375 4.390625 48.796875 1.578125 
Q 42.671875 -1.21875 35.015625 -1.21875 
Q 25.296875 -1.21875 18.71875 1.609375 
Q 12.15625 4.4375 8.421875 10.125 
Q 4.6875 15.828125 4.5 23 
z
" id="ArialMT-83"/>
       <path d="M 9.328125 0 
L 9.328125 71.578125 
L 18.796875 71.578125 
L 18.796875 0 
z
" id="ArialMT-73"/>
      </defs>
      <use xlink:href="#ArialMT-49"/>
      <use x="55.615234" xlink:href="#ArialMT-32"/>
      <use x="83.398438" xlink:href="#ArialMT-45"/>
      <use x="116.699219" xlink:href="#ArialMT-32"/>
      <use x="144.482422" xlink:href="#ArialMT-69"/>
      <use x="211.181641" xlink:href="#ArialMT-115"/>
      <use x="261.181641" xlink:href="#ArialMT-116"/>
      <use x="288.964844" xlink:href="#ArialMT-105"/>
      <use x="311.181641" xlink:href="#ArialMT-109"/>
      <use x="394.482422" xlink:href="#ArialMT-97"/>
      <use x="450.097656" xlink:href="#ArialMT-116"/>
      <use x="477.880859" xlink:href="#ArialMT-105"/>
      <use x="500.097656" xlink:href="#ArialMT-111"/>
      <use x="555.712891" xlink:href="#ArialMT-110"/>
      <use x="611.328125" xlink:href="#ArialMT-32"/>
      <use x="639.111328" xlink:href="#ArialMT-111"/>
      <use x="694.726562" xlink:href="#ArialMT-102"/>
      <use x="722.509766" xlink:href="#ArialMT-32"/>
      <use x="750.292969" xlink:href="#ArialMT-68"/>
      <use x="822.509766" xlink:href="#ArialMT-105"/>
      <use x="844.726562" xlink:href="#ArialMT-115"/>
      <use x="894.726562" xlink:href="#ArialMT-116"/>
      <use x="922.509766" xlink:href="#ArialMT-97"/>
      <use x="978.125" xlink:href="#ArialMT-110"/>
      <use x="1033.740234" xlink:href="#ArialMT-99"/>
      <use x="1083.740234" xlink:href="#ArialMT-101"/>
      <use x="1139.355469" xlink:href="#ArialMT-32"/>
      <use x="1167.138672" xlink:href="#ArialMT-102"/>
      <use x="1194.921875" xlink:href="#ArialMT-114"/>
      <use x="1228.222656" xlink:href="#ArialMT-111"/>
      <use x="1283.837891" xlink:href="#ArialMT-109"/>
      <use x="1367.138672" xlink:href="#ArialMT-32"/>
      <use x="1394.921875" xlink:href="#ArialMT-97"/>
      <use x="1450.537109" xlink:href="#ArialMT-118"/>
      <use x="1500.537109" xlink:href="#ArialMT-101"/>
      <use x="1556.152344" xlink:href="#ArialMT-114"/>
      <use x="1589.453125" xlink:href="#ArialMT-97"/>
      <use x="1645.068359" xlink:href="#ArialMT-103"/>
      <use x="1700.683594" xlink:href="#ArialMT-101"/>
      <use x="1756.298828" xlink:href="#ArialMT-32"/>
      <use x="1784.082031" xlink:href="#ArialMT-82"/>
      <use x="1856.298828" xlink:href="#ArialMT-83"/>
      <use x="1922.998047" xlink:href="#ArialMT-83"/>
      <use x="1989.697266" xlink:href="#ArialMT-73"/>
      <use x="2017.480469" xlink:href="#ArialMT-32"/>
      <use x="2045.263672" xlink:href="#ArialMT-40"/>
      <use x="2078.564453" xlink:href="#ArialMT-109"/>
      <use x="2161.865234" xlink:href="#ArialMT-41"/>
     </g>
    </g>
   </g>
   <g id="PolyCollection_1">
    <defs>
     <path d="M 112.730529 -275.620912 
L 112.343534 -275.620912 
L 112.286152 -275.961128 
L 112.216488 -276.301344 
L 112.133361 -276.64156 
L 112.035862 -276.981776 
L 111.923452 -277.321992 
L 111.796048 -277.662207 
L 111.654085 -278.002423 
L 111.498547 -278.342639 
L 111.330959 -278.682855 
L 111.153342 -279.023071 
L 110.968122 -279.363287 
L 110.77801 -279.703503 
L 110.585855 -280.043719 
L 110.394489 -280.383935 
L 110.206565 -280.724151 
L 110.024424 -281.064367 
L 109.849982 -281.404583 
L 109.684654 -281.744798 
L 109.529322 -282.085014 
L 109.384335 -282.42523 
L 109.249558 -282.765446 
L 109.124433 -283.105662 
L 109.008066 -283.445878 
L 108.899326 -283.786094 
L 108.79693 -284.12631 
L 108.699533 -284.466526 
L 108.605796 -284.806742 
L 108.514439 -285.146958 
L 108.424276 -285.487174 
L 108.334237 -285.827389 
L 108.243374 -286.167605 
L 108.150852 -286.507821 
L 108.055944 -286.848037 
L 107.958005 -287.188253 
L 107.856461 -287.528469 
L 107.750782 -287.868685 
L 107.640465 -288.208901 
L 107.525016 -288.549117 
L 107.403935 -288.889333 
L 107.276693 -289.229549 
L 107.142724 -289.569765 
L 107.001405 -289.90998 
L 106.852041 -290.250196 
L 106.693845 -290.590412 
L 106.525918 -290.930628 
L 106.347215 -291.270844 
L 106.15652 -291.61106 
L 105.952391 -291.951276 
L 105.733113 -292.291492 
L 105.496618 -292.631708 
L 105.240401 -292.971924 
L 104.961406 -293.31214 
L 104.655893 -293.652355 
L 104.319278 -293.992571 
L 103.945959 -294.332787 
L 103.529123 -294.673003 
L 103.06056 -295.013219 
L 102.530498 -295.353435 
L 101.927491 -295.693651 
L 101.238409 -296.033867 
L 100.448564 -296.374083 
L 99.542043 -296.714299 
L 98.502291 -297.054515 
L 97.312988 -297.394731 
L 95.959259 -297.734946 
L 94.429206 -298.075162 
L 92.715715 -298.415378 
L 90.818453 -298.755594 
L 88.7459 -299.09581 
L 86.517218 -299.436026 
L 84.163732 -299.776242 
L 81.729749 -300.116458 
L 79.272497 -300.456674 
L 76.860986 -300.79689 
L 74.573689 -301.137106 
L 72.49506 -301.477322 
L 70.711037 -301.817537 
L 69.303827 -302.157753 
L 68.346378 -302.497969 
L 67.897031 -302.838185 
L 67.994886 -303.178401 
L 68.65636 -303.518617 
L 69.873325 -303.858833 
L 71.613074 -304.199049 
L 73.82014 -304.539265 
L 76.419828 -304.879481 
L 79.323122 -305.219697 
L 82.432486 -305.559913 
L 85.648006 -305.900128 
L 88.873319 -306.240344 
L 92.020807 -306.58056 
L 95.015685 -306.920776 
L 97.798722 -307.260992 
L 100.327532 -307.601208 
L 102.576505 -307.941424 
L 104.535574 -308.28164 
L 106.208109 -308.621856 
L 107.608258 -308.962072 
L 108.758063 -309.302288 
L 116.315999 -309.302288 
L 116.315999 -309.302288 
L 117.465804 -308.962072 
L 118.865954 -308.621856 
L 120.538489 -308.28164 
L 122.497558 -307.941424 
L 124.746531 -307.601208 
L 127.275341 -307.260992 
L 130.058378 -306.920776 
L 133.053255 -306.58056 
L 136.200744 -306.240344 
L 139.426057 -305.900128 
L 142.641577 -305.559913 
L 145.75094 -305.219697 
L 148.654235 -304.879481 
L 151.253923 -304.539265 
L 153.460989 -304.199049 
L 155.200738 -303.858833 
L 156.417703 -303.518617 
L 157.079176 -303.178401 
L 157.177031 -302.838185 
L 156.727684 -302.497969 
L 155.770235 -302.157753 
L 154.363026 -301.817537 
L 152.579003 -301.477322 
L 150.500373 -301.137106 
L 148.213076 -300.79689 
L 145.801565 -300.456674 
L 143.344313 -300.116458 
L 140.91033 -299.776242 
L 138.556844 -299.436026 
L 136.328163 -299.09581 
L 134.255609 -298.755594 
L 132.358347 -298.415378 
L 130.644857 -298.075162 
L 129.114804 -297.734946 
L 127.761075 -297.394731 
L 126.571771 -297.054515 
L 125.532019 -296.714299 
L 124.625499 -296.374083 
L 123.835654 -296.033867 
L 123.146571 -295.693651 
L 122.543565 -295.353435 
L 122.013502 -295.013219 
L 121.54494 -294.673003 
L 121.128104 -294.332787 
L 120.754785 -293.992571 
L 120.41817 -293.652355 
L 120.112657 -293.31214 
L 119.833662 -292.971924 
L 119.577445 -292.631708 
L 119.34095 -292.291492 
L 119.121671 -291.951276 
L 118.917543 -291.61106 
L 118.726847 -291.270844 
L 118.548145 -290.930628 
L 118.380217 -290.590412 
L 118.222022 -290.250196 
L 118.072658 -289.90998 
L 117.931339 -289.569765 
L 117.79737 -289.229549 
L 117.670128 -288.889333 
L 117.549046 -288.549117 
L 117.433598 -288.208901 
L 117.323281 -287.868685 
L 117.217601 -287.528469 
L 117.116057 -287.188253 
L 117.018119 -286.848037 
L 116.92321 -286.507821 
L 116.830689 -286.167605 
L 116.739826 -285.827389 
L 116.649787 -285.487174 
L 116.559624 -285.146958 
L 116.468266 -284.806742 
L 116.37453 -284.466526 
L 116.277133 -284.12631 
L 116.174737 -283.786094 
L 116.065996 -283.445878 
L 115.94963 -283.105662 
L 115.824504 -282.765446 
L 115.689727 -282.42523 
L 115.544741 -282.085014 
L 115.389408 -281.744798 
L 115.22408 -281.404583 
L 115.049638 -281.064367 
L 114.867498 -280.724151 
L 114.679574 -280.383935 
L 114.488207 -280.043719 
L 114.296053 -279.703503 
L 114.10594 -279.363287 
L 113.92072 -279.023071 
L 113.743103 -278.682855 
L 113.575515 -278.342639 
L 113.419977 -278.002423 
L 113.278015 -277.662207 
L 113.150611 -277.321992 
L 113.038201 -276.981776 
L 112.940702 -276.64156 
L 112.857575 -276.301344 
L 112.787911 -275.961128 
L 112.730529 -275.620912 
z
" id="md3aa7c7f89" style="stroke:#494949;stroke-width:1.5;"/>
    </defs>
    <g clip-path="url(#p00501b77fb)">
     <use style="fill:#5875a4;stroke:#494949;stroke-width:1.5;" x="0" xlink:href="#md3aa7c7f89" y="390.245625"/>
    </g>
   </g>
   <g id="PolyCollection_2">
    <defs>
     <path d="M 224.216438 -235.569991 
L 224.057624 -235.569991 
L 224.034076 -236.399024 
L 224.005488 -237.228056 
L 223.971374 -238.057089 
L 223.931363 -238.886121 
L 223.885232 -239.715153 
L 223.832949 -240.544186 
L 223.77469 -241.373218 
L 223.710861 -242.20225 
L 223.642087 -243.031283 
L 223.569197 -243.860315 
L 223.493187 -244.689348 
L 223.415169 -245.51838 
L 223.336313 -246.347412 
L 223.257781 -247.176445 
L 223.180661 -248.005477 
L 223.105915 -248.83451 
L 223.034328 -249.663542 
L 222.966481 -250.492574 
L 222.902736 -251.321607 
L 222.843237 -252.150639 
L 222.787928 -252.979671 
L 222.736579 -253.808704 
L 222.688825 -254.637736 
L 222.6442 -255.466769 
L 222.602179 -256.295801 
L 222.56221 -257.124833 
L 222.523742 -257.953866 
L 222.486251 -258.782898 
L 222.44925 -259.61193 
L 222.412301 -260.440963 
L 222.375012 -261.269995 
L 222.337044 -262.099028 
L 222.298096 -262.92806 
L 222.257904 -263.757092 
L 222.216232 -264.586125 
L 222.172864 -265.415157 
L 222.127592 -266.244189 
L 222.080215 -267.073222 
L 222.030526 -267.902254 
L 221.978309 -268.731287 
L 221.923331 -269.560319 
L 221.865337 -270.389351 
L 221.804041 -271.218384 
L 221.739121 -272.047416 
L 221.670208 -272.876449 
L 221.596872 -273.705481 
L 221.518615 -274.534513 
L 221.434846 -275.363546 
L 221.344859 -276.192578 
L 221.247807 -277.02161 
L 221.142661 -277.850643 
L 221.028168 -278.679675 
L 220.902792 -279.508708 
L 220.764653 -280.33774 
L 220.611452 -281.166772 
L 220.440392 -281.995805 
L 220.248104 -282.824837 
L 220.030579 -283.653869 
L 219.783119 -284.482902 
L 219.500335 -285.311934 
L 219.176201 -286.140967 
L 218.804186 -286.969999 
L 218.377495 -287.799031 
L 217.889432 -288.628064 
L 217.333893 -289.457096 
L 216.705994 -290.286129 
L 216.002817 -291.115161 
L 215.224224 -291.944193 
L 214.373695 -292.773226 
L 213.459096 -293.602258 
L 212.493279 -294.43129 
L 211.494428 -295.260323 
L 210.486028 -296.089355 
L 209.496399 -296.918388 
L 208.557745 -297.74742 
L 207.704723 -298.576452 
L 206.9726 -299.405485 
L 206.395114 -300.234517 
L 206.002199 -301.063549 
L 205.817797 -301.892582 
L 205.857954 -302.721614 
L 206.129408 -303.550647 
L 206.628823 -304.379679 
L 207.342776 -305.208711 
L 208.248505 -306.037744 
L 209.315358 -306.866776 
L 210.506803 -307.695808 
L 211.782815 -308.524841 
L 213.102391 -309.353873 
L 214.425985 -310.182906 
L 215.717642 -311.011938 
L 216.946672 -311.84097 
L 218.088766 -312.670003 
L 219.126532 -313.499035 
L 220.049459 -314.328068 
L 220.853416 -315.1571 
L 221.539786 -315.986132 
L 222.114376 -316.815165 
L 222.586229 -317.644197 
L 225.687833 -317.644197 
L 225.687833 -317.644197 
L 226.159687 -316.815165 
L 226.734276 -315.986132 
L 227.420646 -315.1571 
L 228.224603 -314.328068 
L 229.14753 -313.499035 
L 230.185296 -312.670003 
L 231.327391 -311.84097 
L 232.55642 -311.011938 
L 233.848077 -310.182906 
L 235.171672 -309.353873 
L 236.491248 -308.524841 
L 237.767259 -307.695808 
L 238.958705 -306.866776 
L 240.025557 -306.037744 
L 240.931287 -305.208711 
L 241.64524 -304.379679 
L 242.144655 -303.550647 
L 242.416108 -302.721614 
L 242.456266 -301.892582 
L 242.271864 -301.063549 
L 241.878949 -300.234517 
L 241.301462 -299.405485 
L 240.56934 -298.576452 
L 239.716318 -297.74742 
L 238.777664 -296.918388 
L 237.788035 -296.089355 
L 236.779635 -295.260323 
L 235.780784 -294.43129 
L 234.814967 -293.602258 
L 233.900367 -292.773226 
L 233.049839 -291.944193 
L 232.271246 -291.115161 
L 231.568068 -290.286129 
L 230.94017 -289.457096 
L 230.38463 -288.628064 
L 229.896567 -287.799031 
L 229.469877 -286.969999 
L 229.097862 -286.140967 
L 228.773727 -285.311934 
L 228.490944 -284.482902 
L 228.243484 -283.653869 
L 228.025958 -282.824837 
L 227.833671 -281.995805 
L 227.662611 -281.166772 
L 227.509409 -280.33774 
L 227.37127 -279.508708 
L 227.245895 -278.679675 
L 227.131401 -277.850643 
L 227.026256 -277.02161 
L 226.929204 -276.192578 
L 226.839217 -275.363546 
L 226.755447 -274.534513 
L 226.67719 -273.705481 
L 226.603855 -272.876449 
L 226.534941 -272.047416 
L 226.470021 -271.218384 
L 226.408726 -270.389351 
L 226.350732 -269.560319 
L 226.295754 -268.731287 
L 226.243537 -267.902254 
L 226.193847 -267.073222 
L 226.14647 -266.244189 
L 226.101199 -265.415157 
L 226.05783 -264.586125 
L 226.016159 -263.757092 
L 225.975967 -262.92806 
L 225.937019 -262.099028 
L 225.89905 -261.269995 
L 225.861762 -260.440963 
L 225.824812 -259.61193 
L 225.787811 -258.782898 
L 225.75032 -257.953866 
L 225.711853 -257.124833 
L 225.671883 -256.295801 
L 225.629862 -255.466769 
L 225.585238 -254.637736 
L 225.537484 -253.808704 
L 225.486135 -252.979671 
L 225.430826 -252.150639 
L 225.371326 -251.321607 
L 225.307581 -250.492574 
L 225.239735 -249.663542 
L 225.168148 -248.83451 
L 225.093401 -248.005477 
L 225.016282 -247.176445 
L 224.937749 -246.347412 
L 224.858893 -245.51838 
L 224.780876 -244.689348 
L 224.704866 -243.860315 
L 224.631976 -243.031283 
L 224.563201 -242.20225 
L 224.499372 -241.373218 
L 224.441114 -240.544186 
L 224.38883 -239.715153 
L 224.3427 -238.886121 
L 224.302688 -238.057089 
L 224.268575 -237.228056 
L 224.239987 -236.399024 
L 224.216438 -235.569991 
z
" id="mfab97fed37" style="stroke:#494949;stroke-width:1.5;"/>
    </defs>
    <g clip-path="url(#p00501b77fb)">
     <use style="fill:#cc8963;stroke:#494949;stroke-width:1.5;" x="0" xlink:href="#mfab97fed37" y="390.245625"/>
    </g>
   </g>
   <g id="PolyCollection_3">
    <defs>
     <path d="M 335.784826 -190.545883 
L 335.689237 -190.545883 
L 335.675063 -191.923262 
L 335.657856 -193.300641 
L 335.637324 -194.678019 
L 335.613241 -196.055398 
L 335.585476 -197.432777 
L 335.554007 -198.810156 
L 335.518941 -200.187535 
L 335.480523 -201.564914 
L 335.439129 -202.942293 
L 335.395257 -204.319672 
L 335.349507 -205.69705 
L 335.302549 -207.074429 
L 335.255086 -208.451808 
L 335.207818 -209.829187 
L 335.1614 -211.206566 
L 335.116411 -212.583945 
L 335.073324 -213.961324 
L 335.032487 -215.338703 
L 334.99412 -216.716082 
L 334.958308 -218.09346 
L 334.925017 -219.470839 
L 334.894111 -220.848218 
L 334.865368 -222.225597 
L 334.838509 -223.602976 
L 334.813217 -224.980355 
L 334.78916 -226.357734 
L 334.766007 -227.735113 
L 334.743441 -229.112492 
L 334.721171 -230.48987 
L 334.698931 -231.867249 
L 334.676487 -233.244628 
L 334.653634 -234.622007 
L 334.630192 -235.999386 
L 334.606001 -237.376765 
L 334.580919 -238.754144 
L 334.554816 -240.131523 
L 334.527567 -241.508901 
L 334.499051 -242.88628 
L 334.469144 -244.263659 
L 334.437715 -245.641038 
L 334.404624 -247.018417 
L 334.369718 -248.395796 
L 334.332825 -249.773175 
L 334.29375 -251.150554 
L 334.252272 -252.527933 
L 334.208132 -253.905311 
L 334.16103 -255.28269 
L 334.110609 -256.660069 
L 334.056447 -258.037448 
L 333.998032 -259.414827 
L 333.934746 -260.792206 
L 333.865833 -262.169585 
L 333.790371 -263.546964 
L 333.707226 -264.924343 
L 333.615016 -266.301721 
L 333.512056 -267.6791 
L 333.39632 -269.056479 
L 333.265393 -270.433858 
L 333.116449 -271.811237 
L 332.946244 -273.188616 
L 332.751151 -274.565995 
L 332.527238 -275.943374 
L 332.270417 -277.320753 
L 331.976656 -278.698131 
L 331.642281 -280.07551 
L 331.264355 -281.452889 
L 330.841118 -282.830268 
L 330.37249 -284.207647 
L 329.860564 -285.585026 
L 329.310075 -286.962405 
L 328.728758 -288.339784 
L 328.127558 -289.717162 
L 327.520611 -291.094541 
L 326.924962 -292.47192 
L 326.359994 -293.849299 
L 325.846567 -295.226678 
L 325.40591 -296.604057 
L 325.058325 -297.981436 
L 324.821833 -299.358815 
L 324.710843 -300.736194 
L 324.735014 -302.113572 
L 324.898399 -303.490951 
L 325.198993 -304.86833 
L 325.628715 -306.245709 
L 326.173865 -307.623088 
L 326.815995 -309.000467 
L 327.533115 -310.377846 
L 328.301136 -311.755225 
L 329.095377 -313.132604 
L 329.892037 -314.509982 
L 330.669474 -315.887361 
L 331.409216 -317.26474 
L 332.096633 -318.642119 
L 332.721255 -320.019498 
L 333.276757 -321.396877 
L 333.760652 -322.774256 
L 334.173772 -324.151635 
L 334.519612 -325.529013 
L 334.803617 -326.906392 
L 336.670445 -326.906392 
L 336.670445 -326.906392 
L 336.95445 -325.529013 
L 337.30029 -324.151635 
L 337.713411 -322.774256 
L 338.197305 -321.396877 
L 338.752807 -320.019498 
L 339.377429 -318.642119 
L 340.064846 -317.26474 
L 340.804588 -315.887361 
L 341.582025 -314.509982 
L 342.378686 -313.132604 
L 343.172927 -311.755225 
L 343.940947 -310.377846 
L 344.658068 -309.000467 
L 345.300197 -307.623088 
L 345.845348 -306.245709 
L 346.27507 -304.86833 
L 346.575663 -303.490951 
L 346.739049 -302.113572 
L 346.763219 -300.736194 
L 346.652229 -299.358815 
L 346.415737 -297.981436 
L 346.068153 -296.604057 
L 345.627495 -295.226678 
L 345.114068 -293.849299 
L 344.549101 -292.47192 
L 343.953452 -291.094541 
L 343.346504 -289.717162 
L 342.745305 -288.339784 
L 342.163988 -286.962405 
L 341.613498 -285.585026 
L 341.101573 -284.207647 
L 340.632944 -282.830268 
L 340.209708 -281.452889 
L 339.831781 -280.07551 
L 339.497407 -278.698131 
L 339.203646 -277.320753 
L 338.946825 -275.943374 
L 338.722912 -274.565995 
L 338.527818 -273.188616 
L 338.357613 -271.811237 
L 338.208669 -270.433858 
L 338.077743 -269.056479 
L 337.962006 -267.6791 
L 337.859047 -266.301721 
L 337.766836 -264.924343 
L 337.683692 -263.546964 
L 337.608229 -262.169585 
L 337.539317 -260.792206 
L 337.47603 -259.414827 
L 337.417616 -258.037448 
L 337.363453 -256.660069 
L 337.313033 -255.28269 
L 337.265931 -253.905311 
L 337.221791 -252.527933 
L 337.180312 -251.150554 
L 337.141238 -249.773175 
L 337.104344 -248.395796 
L 337.069438 -247.018417 
L 337.036348 -245.641038 
L 337.004919 -244.263659 
L 336.975011 -242.88628 
L 336.946495 -241.508901 
L 336.919246 -240.131523 
L 336.893143 -238.754144 
L 336.868062 -237.376765 
L 336.843871 -235.999386 
L 336.820428 -234.622007 
L 336.797575 -233.244628 
L 336.775132 -231.867249 
L 336.752892 -230.48987 
L 336.730621 -229.112492 
L 336.708056 -227.735113 
L 336.684903 -226.357734 
L 336.660845 -224.980355 
L 336.635553 -223.602976 
L 336.608694 -222.225597 
L 336.579951 -220.848218 
L 336.549045 -219.470839 
L 336.515755 -218.09346 
L 336.479943 -216.716082 
L 336.441575 -215.338703 
L 336.400739 -213.961324 
L 336.357651 -212.583945 
L 336.312662 -211.206566 
L 336.266244 -209.829187 
L 336.218976 -208.451808 
L 336.171514 -207.074429 
L 336.124556 -205.69705 
L 336.078806 -204.319672 
L 336.034934 -202.942293 
L 335.993539 -201.564914 
L 335.955121 -200.187535 
L 335.920056 -198.810156 
L 335.888587 -197.432777 
L 335.860821 -196.055398 
L 335.836739 -194.678019 
L 335.816206 -193.300641 
L 335.798999 -191.923262 
L 335.784826 -190.545883 
z
" id="m82d96ab902" style="stroke:#494949;stroke-width:1.5;"/>
    </defs>
    <g clip-path="url(#p00501b77fb)">
     <use style="fill:#5f9e6e;stroke:#494949;stroke-width:1.5;" x="0" xlink:href="#m82d96ab902" y="390.245625"/>
    </g>
   </g>
   <g id="PolyCollection_4">
    <defs>
     <path d="M 447.364145 -103.566258 
L 447.309917 -103.566258 
L 447.301877 -105.994199 
L 447.292115 -108.42214 
L 447.280467 -110.850081 
L 447.266805 -113.278023 
L 447.251053 -115.705964 
L 447.233201 -118.133905 
L 447.213308 -120.561846 
L 447.191513 -122.989787 
L 447.16803 -125.417728 
L 447.143141 -127.84567 
L 447.117187 -130.273611 
L 447.090548 -132.701552 
L 447.063622 -135.129493 
L 447.036807 -137.557434 
L 447.010474 -139.985376 
L 446.984951 -142.413317 
L 446.960508 -144.841258 
L 446.937341 -147.269199 
L 446.915575 -149.69714 
L 446.895259 -152.125081 
L 446.876373 -154.553023 
L 446.85884 -156.980964 
L 446.842534 -159.408905 
L 446.827297 -161.836846 
L 446.812949 -164.264787 
L 446.799301 -166.692728 
L 446.786166 -169.12067 
L 446.773364 -171.548611 
L 446.76073 -173.976552 
L 446.748114 -176.404493 
L 446.735381 -178.832434 
L 446.722417 -181.260375 
L 446.709118 -183.688317 
L 446.695394 -186.116258 
L 446.681165 -188.544199 
L 446.666357 -190.97214 
L 446.650899 -193.400081 
L 446.634721 -195.828022 
L 446.617755 -198.255964 
L 446.599925 -200.683905 
L 446.581152 -203.111846 
L 446.56135 -205.539787 
L 446.54042 -207.967728 
L 446.518253 -210.39567 
L 446.494722 -212.823611 
L 446.469682 -215.251552 
L 446.44296 -217.679493 
L 446.414357 -220.107434 
L 446.38363 -222.535375 
L 446.350491 -224.963317 
L 446.314589 -227.391258 
L 446.275495 -229.819199 
L 446.232685 -232.24714 
L 446.185516 -234.675081 
L 446.133205 -237.103022 
L 446.074796 -239.530964 
L 446.009138 -241.958905 
L 445.934863 -244.386846 
L 445.850367 -246.814787 
L 445.753809 -249.242728 
L 445.643131 -251.670669 
L 445.516105 -254.098611 
L 445.370409 -256.526552 
L 445.203758 -258.954493 
L 445.014066 -261.382434 
L 444.799667 -263.810375 
L 444.559564 -266.238317 
L 444.29371 -268.666258 
L 444.003292 -271.094199 
L 443.690998 -273.52214 
L 443.361215 -275.950081 
L 443.020153 -278.378022 
L 442.675829 -280.805964 
L 442.337916 -283.233905 
L 442.017408 -285.661846 
L 441.726139 -288.089787 
L 441.476152 -290.517728 
L 441.278967 -292.945669 
L 441.144804 -295.373611 
L 441.081839 -297.801552 
L 441.095551 -300.229493 
L 441.18824 -302.657434 
L 441.358768 -305.085375 
L 441.602551 -307.513316 
L 441.911816 -309.941258 
L 442.276098 -312.369199 
L 442.682923 -314.79714 
L 443.118624 -317.225081 
L 443.569199 -319.653022 
L 444.021147 -322.080964 
L 444.46219 -324.508905 
L 444.881848 -326.936846 
L 445.271822 -329.364787 
L 445.626172 -331.792728 
L 445.94131 -334.220669 
L 446.215825 -336.648611 
L 446.450189 -339.076552 
L 446.646386 -341.504493 
L 446.807502 -343.932434 
L 447.86656 -343.932434 
L 447.86656 -343.932434 
L 448.027677 -341.504493 
L 448.223873 -339.076552 
L 448.458238 -336.648611 
L 448.732753 -334.220669 
L 449.047891 -331.792728 
L 449.402241 -329.364787 
L 449.792215 -326.936846 
L 450.211873 -324.508905 
L 450.652915 -322.080964 
L 451.104863 -319.653022 
L 451.555439 -317.225081 
L 451.991139 -314.79714 
L 452.397964 -312.369199 
L 452.762246 -309.941258 
L 453.071512 -307.513316 
L 453.315295 -305.085375 
L 453.485822 -302.657434 
L 453.578511 -300.229493 
L 453.592223 -297.801552 
L 453.529258 -295.373611 
L 453.395096 -292.945669 
L 453.19791 -290.517728 
L 452.947923 -288.089787 
L 452.656655 -285.661846 
L 452.336147 -283.233905 
L 451.998233 -280.805964 
L 451.65391 -278.378022 
L 451.312847 -275.950081 
L 450.983065 -273.52214 
L 450.67077 -271.094199 
L 450.380353 -268.666258 
L 450.114499 -266.238317 
L 449.874395 -263.810375 
L 449.659996 -261.382434 
L 449.470304 -258.954493 
L 449.303653 -256.526552 
L 449.157957 -254.098611 
L 449.030931 -251.670669 
L 448.920254 -249.242728 
L 448.823696 -246.814787 
L 448.739199 -244.386846 
L 448.664924 -241.958905 
L 448.599267 -239.530964 
L 448.540858 -237.103022 
L 448.488546 -234.675081 
L 448.441378 -232.24714 
L 448.398568 -229.819199 
L 448.359474 -227.391258 
L 448.323571 -224.963317 
L 448.290432 -222.535375 
L 448.259706 -220.107434 
L 448.231102 -217.679493 
L 448.204381 -215.251552 
L 448.17934 -212.823611 
L 448.155809 -210.39567 
L 448.133642 -207.967728 
L 448.112712 -205.539787 
L 448.09291 -203.111846 
L 448.074138 -200.683905 
L 448.056308 -198.255964 
L 448.039341 -195.828022 
L 448.023164 -193.400081 
L 448.007706 -190.97214 
L 447.992897 -188.544199 
L 447.978668 -186.116258 
L 447.964945 -183.688317 
L 447.951646 -181.260375 
L 447.938681 -178.832434 
L 447.925949 -176.404493 
L 447.913332 -173.976552 
L 447.900698 -171.548611 
L 447.887897 -169.12067 
L 447.874762 -166.692728 
L 447.861114 -164.264787 
L 447.846766 -161.836846 
L 447.831528 -159.408905 
L 447.815223 -156.980964 
L 447.797689 -154.553023 
L 447.778804 -152.125081 
L 447.758487 -149.69714 
L 447.736721 -147.269199 
L 447.713555 -144.841258 
L 447.689111 -142.413317 
L 447.663589 -139.985376 
L 447.637256 -137.557434 
L 447.61044 -135.129493 
L 447.583515 -132.701552 
L 447.556875 -130.273611 
L 447.530921 -127.84567 
L 447.506032 -125.417728 
L 447.482549 -122.989787 
L 447.460754 -120.561846 
L 447.440862 -118.133905 
L 447.423009 -115.705964 
L 447.407258 -113.278023 
L 447.393596 -110.850081 
L 447.381947 -108.42214 
L 447.372186 -105.994199 
L 447.364145 -103.566258 
z
" id="maf3a4e8ecf" style="stroke:#494949;stroke-width:1.5;"/>
    </defs>
    <g clip-path="url(#p00501b77fb)">
     <use style="fill:#b55d60;stroke:#494949;stroke-width:1.5;" x="0" xlink:href="#maf3a4e8ecf" y="390.245625"/>
    </g>
   </g>
   <g id="PolyCollection_5">
    <defs>
     <path d="M 558.959011 -56.975455 
L 558.915051 -56.975455 
L 558.908533 -59.970496 
L 558.90062 -62.965537 
L 558.891177 -65.960579 
L 558.880102 -68.95562 
L 558.867333 -71.950661 
L 558.852861 -74.945702 
L 558.836735 -77.940744 
L 558.819067 -80.935785 
L 558.80003 -83.930826 
L 558.779854 -86.925868 
L 558.758814 -89.920909 
L 558.737219 -92.91595 
L 558.715391 -95.910992 
L 558.693653 -98.906033 
L 558.672306 -101.901074 
L 558.651616 -104.896116 
L 558.631801 -107.891157 
L 558.613021 -110.886198 
L 558.595376 -113.88124 
L 558.578907 -116.876281 
L 558.563597 -119.871322 
L 558.549384 -122.866364 
L 558.536165 -125.861405 
L 558.523813 -128.856446 
L 558.512182 -131.851488 
L 558.501118 -134.846529 
L 558.49047 -137.84157 
L 558.480093 -140.836612 
L 558.469851 -143.831653 
L 558.459623 -146.826694 
L 558.449302 -149.821736 
L 558.438792 -152.816777 
L 558.428011 -155.811818 
L 558.416886 -158.80686 
L 558.405351 -161.801901 
L 558.393347 -164.796942 
L 558.380815 -167.791983 
L 558.367701 -170.787025 
L 558.353947 -173.782066 
L 558.339493 -176.777107 
L 558.324275 -179.772149 
L 558.308222 -182.76719 
L 558.291256 -185.762231 
L 558.273286 -188.757273 
L 558.25421 -191.752314 
L 558.233911 -194.747355 
L 558.212249 -197.742397 
L 558.189062 -200.737438 
L 558.164153 -203.732479 
L 558.137289 -206.727521 
L 558.108185 -209.722562 
L 558.076493 -212.717603 
L 558.041789 -215.712645 
L 558.003551 -218.707686 
L 557.961145 -221.702727 
L 557.913795 -224.697769 
L 557.86057 -227.69281 
L 557.800358 -230.687851 
L 557.731861 -233.682893 
L 557.653586 -236.677934 
L 557.563865 -239.672975 
L 557.460891 -242.668017 
L 557.342782 -245.663058 
L 557.207686 -248.658099 
L 557.053911 -251.65314 
L 556.880108 -254.648182 
L 556.685467 -257.643223 
L 556.469951 -260.638264 
L 556.234524 -263.633306 
L 555.981361 -266.628347 
L 555.714021 -269.623388 
L 555.437538 -272.61843 
L 555.158411 -275.613471 
L 554.88448 -278.608512 
L 554.624659 -281.603554 
L 554.388541 -284.598595 
L 554.185888 -287.593636 
L 554.026039 -290.588678 
L 553.91728 -293.583719 
L 553.866237 -296.57876 
L 553.877353 -299.573802 
L 553.952491 -302.568843 
L 554.09073 -305.563884 
L 554.288354 -308.558926 
L 554.539061 -311.553967 
L 554.834368 -314.549008 
L 555.164162 -317.54405 
L 555.517364 -320.539091 
L 555.882625 -323.534132 
L 556.248998 -326.529174 
L 556.606531 -329.524215 
L 556.946728 -332.519256 
L 557.262862 -335.514298 
L 557.550117 -338.509339 
L 557.805585 -341.50438 
L 558.028121 -344.499421 
L 558.21811 -347.494463 
L 558.377157 -350.489504 
L 558.507767 -353.484545 
L 559.366296 -353.484545 
L 559.366296 -353.484545 
L 559.496906 -350.489504 
L 559.655953 -347.494463 
L 559.845941 -344.499421 
L 560.068478 -341.50438 
L 560.323946 -338.509339 
L 560.611201 -335.514298 
L 560.927335 -332.519256 
L 561.267532 -329.524215 
L 561.625065 -326.529174 
L 561.991438 -323.534132 
L 562.356699 -320.539091 
L 562.709901 -317.54405 
L 563.039695 -314.549008 
L 563.335002 -311.553967 
L 563.585709 -308.558926 
L 563.783332 -305.563884 
L 563.921571 -302.568843 
L 563.99671 -299.573802 
L 564.007826 -296.57876 
L 563.956783 -293.583719 
L 563.848023 -290.588678 
L 563.688174 -287.593636 
L 563.485521 -284.598595 
L 563.249404 -281.603554 
L 562.989582 -278.608512 
L 562.715652 -275.613471 
L 562.436525 -272.61843 
L 562.160041 -269.623388 
L 561.892701 -266.628347 
L 561.639539 -263.633306 
L 561.404111 -260.638264 
L 561.188595 -257.643223 
L 560.993955 -254.648182 
L 560.820151 -251.65314 
L 560.666377 -248.658099 
L 560.53128 -245.663058 
L 560.413172 -242.668017 
L 560.310197 -239.672975 
L 560.220476 -236.677934 
L 560.142201 -233.682893 
L 560.073704 -230.687851 
L 560.013493 -227.69281 
L 559.960267 -224.697769 
L 559.912918 -221.702727 
L 559.870511 -218.707686 
L 559.832274 -215.712645 
L 559.79757 -212.717603 
L 559.765878 -209.722562 
L 559.736773 -206.727521 
L 559.709909 -203.732479 
L 559.685001 -200.737438 
L 559.661813 -197.742397 
L 559.640151 -194.747355 
L 559.619852 -191.752314 
L 559.600777 -188.757273 
L 559.582807 -185.762231 
L 559.56584 -182.76719 
L 559.549787 -179.772149 
L 559.534569 -176.777107 
L 559.520115 -173.782066 
L 559.506361 -170.787025 
L 559.493247 -167.791983 
L 559.480716 -164.796942 
L 559.468712 -161.801901 
L 559.457177 -158.80686 
L 559.446052 -155.811818 
L 559.435271 -152.816777 
L 559.424761 -149.821736 
L 559.41444 -146.826694 
L 559.404212 -143.831653 
L 559.39397 -140.836612 
L 559.383592 -137.84157 
L 559.372944 -134.846529 
L 559.361881 -131.851488 
L 559.350249 -128.856446 
L 559.337897 -125.861405 
L 559.324679 -122.866364 
L 559.310465 -119.871322 
L 559.295156 -116.876281 
L 559.278686 -113.88124 
L 559.261041 -110.886198 
L 559.242261 -107.891157 
L 559.222446 -104.896116 
L 559.201756 -101.901074 
L 559.180409 -98.906033 
L 559.158671 -95.910992 
L 559.136844 -92.91595 
L 559.115248 -89.920909 
L 559.094209 -86.925868 
L 559.074033 -83.930826 
L 559.054996 -80.935785 
L 559.037328 -77.940744 
L 559.021202 -74.945702 
L 559.00673 -71.950661 
L 558.993961 -68.95562 
L 558.982885 -65.960579 
L 558.973443 -62.965537 
L 558.965529 -59.970496 
L 558.959011 -56.975455 
z
" id="meadc61083b" style="stroke:#494949;stroke-width:1.5;"/>
    </defs>
    <g clip-path="url(#p00501b77fb)">
     <use style="fill:#857aab;stroke:#494949;stroke-width:1.5;" x="0" xlink:href="#meadc61083b" y="390.245625"/>
    </g>
   </g>
   <g id="PolyCollection_6">
    <defs>
     <path d="M 670.578332 -172.4557 
L 670.49573 -172.4557 
L 670.483482 -174.049622 
L 670.468613 -175.643544 
L 670.45087 -177.237466 
L 670.430059 -178.831387 
L 670.406065 -180.425309 
L 670.378871 -182.019231 
L 670.34857 -183.613153 
L 670.315371 -185.207075 
L 670.2796 -186.800997 
L 670.241689 -188.394919 
L 670.202154 -189.988841 
L 670.161576 -191.582763 
L 670.120561 -193.176685 
L 670.079715 -194.770607 
L 670.039603 -196.364529 
L 670.000726 -197.958451 
L 669.963492 -199.552373 
L 669.928203 -201.146295 
L 669.895048 -202.740216 
L 669.864102 -204.334138 
L 669.835334 -205.92806 
L 669.808626 -207.521982 
L 669.783789 -209.115904 
L 669.760578 -210.709826 
L 669.738722 -212.303748 
L 669.717933 -213.89767 
L 669.697926 -215.491592 
L 669.678426 -217.085514 
L 669.659181 -218.679436 
L 669.639963 -220.273358 
L 669.620568 -221.86728 
L 669.60082 -223.461202 
L 669.580562 -225.055124 
L 669.559658 -226.649046 
L 669.537983 -228.242967 
L 669.515426 -229.836889 
L 669.49188 -231.430811 
L 669.467238 -233.024733 
L 669.441393 -234.618655 
L 669.414234 -236.212577 
L 669.385639 -237.806499 
L 669.355475 -239.400421 
L 669.323594 -240.994343 
L 669.289828 -242.588265 
L 669.253984 -244.182187 
L 669.215841 -245.776109 
L 669.175138 -247.370031 
L 669.131568 -248.963953 
L 669.084764 -250.557875 
L 669.034285 -252.151796 
L 668.979596 -253.745718 
L 668.920046 -255.33964 
L 668.854835 -256.933562 
L 668.782986 -258.527484 
L 668.703303 -260.121406 
L 668.614331 -261.715328 
L 668.514318 -263.30925 
L 668.401179 -264.903172 
L 668.27247 -266.497094 
L 668.125388 -268.091016 
L 667.956799 -269.684938 
L 667.763306 -271.27886 
L 667.541375 -272.872782 
L 667.287523 -274.466704 
L 666.998576 -276.060626 
L 666.671992 -277.654547 
L 666.306255 -279.248469 
L 665.901292 -280.842391 
L 665.458915 -282.436313 
L 664.983212 -284.030235 
L 664.48087 -285.624157 
L 663.961347 -287.218079 
L 663.436857 -288.812001 
L 662.92213 -290.405923 
L 662.433916 -291.999845 
L 661.990241 -293.593767 
L 661.609449 -295.187689 
L 661.309086 -296.781611 
L 661.104723 -298.375533 
L 661.008812 -299.969455 
L 661.029698 -301.563376 
L 661.170887 -303.157298 
L 661.430643 -304.75122 
L 661.801985 -306.345142 
L 662.273074 -307.939064 
L 662.827966 -309.532986 
L 663.447662 -311.126908 
L 664.111343 -312.72083 
L 664.797682 -314.314752 
L 665.486112 -315.908674 
L 666.15793 -317.502596 
L 666.797174 -319.096518 
L 667.391201 -320.69044 
L 667.930965 -322.284362 
L 668.410999 -323.878284 
L 668.829154 -325.472206 
L 669.186149 -327.066127 
L 669.485005 -328.660049 
L 669.730426 -330.253971 
L 671.343636 -330.253971 
L 671.343636 -330.253971 
L 671.589057 -328.660049 
L 671.887913 -327.066127 
L 672.244909 -325.472206 
L 672.663064 -323.878284 
L 673.143097 -322.284362 
L 673.682861 -320.69044 
L 674.276889 -319.096518 
L 674.916133 -317.502596 
L 675.587951 -315.908674 
L 676.27638 -314.314752 
L 676.96272 -312.72083 
L 677.6264 -311.126908 
L 678.246096 -309.532986 
L 678.800988 -307.939064 
L 679.272077 -306.345142 
L 679.643419 -304.75122 
L 679.903176 -303.157298 
L 680.044364 -301.563376 
L 680.065251 -299.969455 
L 679.96934 -298.375533 
L 679.764976 -296.781611 
L 679.464613 -295.187689 
L 679.083821 -293.593767 
L 678.640146 -291.999845 
L 678.151933 -290.405923 
L 677.637206 -288.812001 
L 677.112716 -287.218079 
L 676.593192 -285.624157 
L 676.090851 -284.030235 
L 675.615148 -282.436313 
L 675.17277 -280.842391 
L 674.767808 -279.248469 
L 674.40207 -277.654547 
L 674.075487 -276.060626 
L 673.786539 -274.466704 
L 673.532687 -272.872782 
L 673.310757 -271.27886 
L 673.117264 -269.684938 
L 672.948675 -268.091016 
L 672.801593 -266.497094 
L 672.672884 -264.903172 
L 672.559744 -263.30925 
L 672.459731 -261.715328 
L 672.370759 -260.121406 
L 672.291076 -258.527484 
L 672.219227 -256.933562 
L 672.154017 -255.33964 
L 672.094466 -253.745718 
L 672.039778 -252.151796 
L 671.989299 -250.557875 
L 671.942495 -248.963953 
L 671.898924 -247.370031 
L 671.858221 -245.776109 
L 671.820078 -244.182187 
L 671.784235 -242.588265 
L 671.750469 -240.994343 
L 671.718587 -239.400421 
L 671.688423 -237.806499 
L 671.659828 -236.212577 
L 671.632669 -234.618655 
L 671.606825 -233.024733 
L 671.582183 -231.430811 
L 671.558636 -229.836889 
L 671.536079 -228.242967 
L 671.514405 -226.649046 
L 671.4935 -225.055124 
L 671.473243 -223.461202 
L 671.453494 -221.86728 
L 671.4341 -220.273358 
L 671.414882 -218.679436 
L 671.395637 -217.085514 
L 671.376137 -215.491592 
L 671.356129 -213.89767 
L 671.33534 -212.303748 
L 671.313484 -210.709826 
L 671.290274 -209.115904 
L 671.265436 -207.521982 
L 671.238729 -205.92806 
L 671.209961 -204.334138 
L 671.179014 -202.740216 
L 671.145859 -201.146295 
L 671.110571 -199.552373 
L 671.073337 -197.958451 
L 671.03446 -196.364529 
L 670.994348 -194.770607 
L 670.953501 -193.176685 
L 670.912487 -191.582763 
L 670.871908 -189.988841 
L 670.832374 -188.394919 
L 670.794462 -186.800997 
L 670.758691 -185.207075 
L 670.725492 -183.613153 
L 670.695191 -182.019231 
L 670.667997 -180.425309 
L 670.644004 -178.831387 
L 670.623193 -177.237466 
L 670.60545 -175.643544 
L 670.59058 -174.049622 
L 670.578332 -172.4557 
z
" id="m76fb1742c7" style="stroke:#494949;stroke-width:1.5;"/>
    </defs>
    <g clip-path="url(#p00501b77fb)">
     <use style="fill:#8d7866;stroke:#494949;stroke-width:1.5;" x="0" xlink:href="#m76fb1742c7" y="390.245625"/>
    </g>
   </g>
   <g id="line2d_9">
    <path clip-path="url(#p00501b77fb)" d="M 112.537031 99.186944 
L 112.537031 86.275813 
" style="fill:none;stroke:#494949;stroke-linecap:round;stroke-width:1.5;"/>
   </g>
   <g id="line2d_10">
    <path clip-path="url(#p00501b77fb)" d="M 112.537031 91.687241 
L 112.537031 86.511211 
" style="fill:none;stroke:#494949;stroke-linecap:round;stroke-width:4.5;"/>
   </g>
   <g id="line2d_11">
    <path clip-path="url(#p00501b77fb)" d="M 224.137031 117.057139 
L 224.137031 85.595515 
" style="fill:none;stroke:#494949;stroke-linecap:round;stroke-width:1.5;"/>
   </g>
   <g id="line2d_12">
    <path clip-path="url(#p00501b77fb)" d="M 224.137031 98.781991 
L 224.137031 86.169128 
" style="fill:none;stroke:#494949;stroke-linecap:round;stroke-width:4.5;"/>
   </g>
   <g id="line2d_13">
    <path clip-path="url(#p00501b77fb)" d="M 335.737031 137.199264 
L 335.737031 84.927992 
" style="fill:none;stroke:#494949;stroke-linecap:round;stroke-width:1.5;"/>
   </g>
   <g id="line2d_14">
    <path clip-path="url(#p00501b77fb)" d="M 335.737031 106.836393 
L 335.737031 85.88101 
" style="fill:none;stroke:#494949;stroke-linecap:round;stroke-width:4.5;"/>
   </g>
   <g id="line2d_15">
    <path clip-path="url(#p00501b77fb)" d="M 447.337031 176.508168 
L 447.337031 84.368252 
" style="fill:none;stroke:#494949;stroke-linecap:round;stroke-width:1.5;"/>
   </g>
   <g id="line2d_16">
    <path clip-path="url(#p00501b77fb)" d="M 447.337031 122.986754 
L 447.337031 86.048161 
" style="fill:none;stroke:#494949;stroke-linecap:round;stroke-width:4.5;"/>
   </g>
   <g id="line2d_17">
    <path clip-path="url(#p00501b77fb)" d="M 558.937031 197.366015 
L 558.937031 83.704754 
" style="fill:none;stroke:#494949;stroke-linecap:round;stroke-width:1.5;"/>
   </g>
   <g id="line2d_18">
    <path clip-path="url(#p00501b77fb)" d="M 558.937031 131.343474 
L 558.937031 85.777044 
" style="fill:none;stroke:#494949;stroke-linecap:round;stroke-width:4.5;"/>
   </g>
   <g id="line2d_19">
    <path clip-path="url(#p00501b77fb)" d="M 670.537031 145.463506 
L 670.537031 84.974465 
" style="fill:none;stroke:#494949;stroke-linecap:round;stroke-width:1.5;"/>
   </g>
   <g id="line2d_20">
    <path clip-path="url(#p00501b77fb)" d="M 670.537031 110.327171 
L 670.537031 86.077311 
" style="fill:none;stroke:#494949;stroke-linecap:round;stroke-width:4.5;"/>
   </g>
   <g id="patch_3">
    <path d="M 56.737031 348.095625 
L 56.737031 21.935625 
" style="fill:none;stroke:#ffffff;stroke-linecap:square;stroke-linejoin:miter;stroke-width:1.25;"/>
   </g>
   <g id="patch_4">
    <path d="M 726.337031 348.095625 
L 726.337031 21.935625 
" style="fill:none;stroke:#ffffff;stroke-linecap:square;stroke-linejoin:miter;stroke-width:1.25;"/>
   </g>
   <g id="patch_5">
    <path d="M 56.737031 348.095625 
L 726.337031 348.095625 
" style="fill:none;stroke:#ffffff;stroke-linecap:square;stroke-linejoin:miter;stroke-width:1.25;"/>
   </g>
   <g id="patch_6">
    <path d="M 56.737031 21.935625 
L 726.337031 21.935625 
" style="fill:none;stroke:#ffffff;stroke-linecap:square;stroke-linejoin:miter;stroke-width:1.25;"/>
   </g>
   <g id="PathCollection_1">
    <defs>
     <path d="M 0 1.5 
C 0.397805 1.5 0.77937 1.341951 1.06066 1.06066 
C 1.341951 0.77937 1.5 0.397805 1.5 0 
C 1.5 -0.397805 1.341951 -0.77937 1.06066 -1.06066 
C 0.77937 -1.341951 0.397805 -1.5 0 -1.5 
C -0.397805 -1.5 -0.77937 -1.341951 -1.06066 -1.06066 
C -1.341951 -0.77937 -1.5 -0.397805 -1.5 0 
C -1.5 0.397805 -1.341951 0.77937 -1.06066 1.06066 
C -0.77937 1.341951 -0.397805 1.5 0 1.5 
z
" id="mcedca5794d" style="stroke:#494949;"/>
    </defs>
    <g clip-path="url(#p00501b77fb)">
     <use style="fill:#ffffff;stroke:#494949;" x="112.537031" xlink:href="#mcedca5794d" y="87.501213"/>
    </g>
   </g>
   <g id="PathCollection_2">
    <g clip-path="url(#p00501b77fb)">
     <use style="fill:#ffffff;stroke:#494949;" x="224.137031" xlink:href="#mcedca5794d" y="88.581547"/>
    </g>
   </g>
   <g id="PathCollection_3">
    <g clip-path="url(#p00501b77fb)">
     <use style="fill:#ffffff;stroke:#494949;" x="335.737031" xlink:href="#mcedca5794d" y="89.889075"/>
    </g>
   </g>
   <g id="PathCollection_4">
    <g clip-path="url(#p00501b77fb)">
     <use style="fill:#ffffff;stroke:#494949;" x="447.337031" xlink:href="#mcedca5794d" y="93.11328"/>
    </g>
   </g>
   <g id="PathCollection_5">
    <g clip-path="url(#p00501b77fb)">
     <use style="fill:#ffffff;stroke:#494949;" x="558.937031" xlink:href="#mcedca5794d" y="94.49238"/>
    </g>
   </g>
   <g id="PathCollection_6">
    <g clip-path="url(#p00501b77fb)">
     <use style="fill:#ffffff;stroke:#494949;" x="670.537031" xlink:href="#mcedca5794d" y="90.715499"/>
    </g>
   </g>
   <g id="text_17">
    <!-- Violinplot of Accuracy of Measure Power Estimation -->
    <g style="fill:#262626;" transform="translate(254.585156 15.935625)scale(0.12 -0.12)">
     <defs>
      <path d="M 28.171875 0 
L 0.4375 71.578125 
L 10.6875 71.578125 
L 29.296875 19.578125 
Q 31.546875 13.328125 33.0625 7.859375 
Q 34.71875 13.71875 36.921875 19.578125 
L 56.25 71.578125 
L 65.921875 71.578125 
L 37.890625 0 
z
" id="ArialMT-86"/>
      <path d="M 6.390625 0 
L 6.390625 71.578125 
L 15.1875 71.578125 
L 15.1875 0 
z
" id="ArialMT-108"/>
      <path d="M 6.59375 -19.875 
L 6.59375 51.859375 
L 14.59375 51.859375 
L 14.59375 45.125 
Q 17.4375 49.078125 21 51.046875 
Q 24.5625 53.03125 29.640625 53.03125 
Q 36.28125 53.03125 41.359375 49.609375 
Q 46.4375 46.1875 49.015625 39.953125 
Q 51.609375 33.734375 51.609375 26.3125 
Q 51.609375 18.359375 48.75 11.984375 
Q 45.90625 5.609375 40.453125 2.21875 
Q 35.015625 -1.171875 29 -1.171875 
Q 24.609375 -1.171875 21.109375 0.6875 
Q 17.625 2.546875 15.375 5.375 
L 15.375 -19.875 
z
M 14.546875 25.640625 
Q 14.546875 15.625 18.59375 10.84375 
Q 22.65625 6.0625 28.421875 6.0625 
Q 34.28125 6.0625 38.453125 11.015625 
Q 42.625 15.96875 42.625 26.375 
Q 42.625 36.28125 38.546875 41.203125 
Q 34.46875 46.140625 28.8125 46.140625 
Q 23.1875 46.140625 18.859375 40.890625 
Q 14.546875 35.640625 14.546875 25.640625 
z
" id="ArialMT-112"/>
      <path d="M 40.578125 0 
L 40.578125 7.625 
Q 34.515625 -1.171875 24.125 -1.171875 
Q 19.53125 -1.171875 15.546875 0.578125 
Q 11.578125 2.34375 9.640625 5 
Q 7.71875 7.671875 6.9375 11.53125 
Q 6.390625 14.109375 6.390625 19.734375 
L 6.390625 51.859375 
L 15.1875 51.859375 
L 15.1875 23.09375 
Q 15.1875 16.21875 15.71875 13.8125 
Q 16.546875 10.359375 19.234375 8.375 
Q 21.921875 6.390625 25.875 6.390625 
Q 29.828125 6.390625 33.296875 8.421875 
Q 36.765625 10.453125 38.203125 13.9375 
Q 39.65625 17.4375 39.65625 24.078125 
L 39.65625 51.859375 
L 48.4375 51.859375 
L 48.4375 0 
z
" id="ArialMT-117"/>
      <path d="M 6.203125 -19.96875 
L 5.21875 -11.71875 
Q 8.109375 -12.5 10.25 -12.5 
Q 13.1875 -12.5 14.9375 -11.515625 
Q 16.703125 -10.546875 17.828125 -8.796875 
Q 18.65625 -7.46875 20.515625 -2.25 
Q 20.75 -1.515625 21.296875 -0.09375 
L 1.609375 51.859375 
L 11.078125 51.859375 
L 21.875 21.828125 
Q 23.96875 16.109375 25.640625 9.8125 
Q 27.15625 15.875 29.25 21.625 
L 40.328125 51.859375 
L 49.125 51.859375 
L 29.390625 -0.875 
Q 26.21875 -9.421875 24.46875 -12.640625 
Q 22.125 -17 19.09375 -19.015625 
Q 16.0625 -21.046875 11.859375 -21.046875 
Q 9.328125 -21.046875 6.203125 -19.96875 
z
" id="ArialMT-121"/>
      <path d="M 7.421875 0 
L 7.421875 71.578125 
L 21.6875 71.578125 
L 38.625 20.90625 
Q 40.96875 13.8125 42.046875 10.296875 
Q 43.265625 14.203125 45.84375 21.78125 
L 62.984375 71.578125 
L 75.734375 71.578125 
L 75.734375 0 
L 66.609375 0 
L 66.609375 59.90625 
L 45.796875 0 
L 37.25 0 
L 16.546875 60.9375 
L 16.546875 0 
z
" id="ArialMT-77"/>
      <path d="M 7.71875 0 
L 7.71875 71.578125 
L 34.71875 71.578125 
Q 41.84375 71.578125 45.609375 70.90625 
Q 50.875 70.015625 54.4375 67.546875 
Q 58.015625 65.09375 60.1875 60.640625 
Q 62.359375 56.203125 62.359375 50.875 
Q 62.359375 41.75 56.546875 35.421875 
Q 50.734375 29.109375 35.546875 29.109375 
L 17.1875 29.109375 
L 17.1875 0 
z
M 17.1875 37.546875 
L 35.6875 37.546875 
Q 44.875 37.546875 48.734375 40.96875 
Q 52.59375 44.390625 52.59375 50.59375 
Q 52.59375 55.078125 50.3125 58.265625 
Q 48.046875 61.46875 44.34375 62.5 
Q 41.9375 63.140625 35.5 63.140625 
L 17.1875 63.140625 
z
" id="ArialMT-80"/>
      <path d="M 16.15625 0 
L 0.296875 51.859375 
L 9.375 51.859375 
L 17.625 21.921875 
L 20.703125 10.796875 
Q 20.90625 11.625 23.390625 21.484375 
L 31.640625 51.859375 
L 40.671875 51.859375 
L 48.4375 21.78125 
L 51.03125 11.859375 
L 54 21.875 
L 62.890625 51.859375 
L 71.4375 51.859375 
L 55.21875 0 
L 46.09375 0 
L 37.84375 31.0625 
L 35.84375 39.890625 
L 25.34375 0 
z
" id="ArialMT-119"/>
     </defs>
     <use xlink:href="#ArialMT-86"/>
     <use x="64.949219" xlink:href="#ArialMT-105"/>
     <use x="87.166016" xlink:href="#ArialMT-111"/>
     <use x="142.78125" xlink:href="#ArialMT-108"/>
     <use x="164.998047" xlink:href="#ArialMT-105"/>
     <use x="187.214844" xlink:href="#ArialMT-110"/>
     <use x="242.830078" xlink:href="#ArialMT-112"/>
     <use x="298.445312" xlink:href="#ArialMT-108"/>
     <use x="320.662109" xlink:href="#ArialMT-111"/>
     <use x="376.277344" xlink:href="#ArialMT-116"/>
     <use x="404.060547" xlink:href="#ArialMT-32"/>
     <use x="431.84375" xlink:href="#ArialMT-111"/>
     <use x="487.458984" xlink:href="#ArialMT-102"/>
     <use x="515.242188" xlink:href="#ArialMT-32"/>
     <use x="537.525391" xlink:href="#ArialMT-65"/>
     <use x="604.224609" xlink:href="#ArialMT-99"/>
     <use x="654.224609" xlink:href="#ArialMT-99"/>
     <use x="704.224609" xlink:href="#ArialMT-117"/>
     <use x="759.839844" xlink:href="#ArialMT-114"/>
     <use x="793.140625" xlink:href="#ArialMT-97"/>
     <use x="848.755859" xlink:href="#ArialMT-99"/>
     <use x="898.755859" xlink:href="#ArialMT-121"/>
     <use x="948.755859" xlink:href="#ArialMT-32"/>
     <use x="976.539062" xlink:href="#ArialMT-111"/>
     <use x="1032.154297" xlink:href="#ArialMT-102"/>
     <use x="1059.9375" xlink:href="#ArialMT-32"/>
     <use x="1087.720703" xlink:href="#ArialMT-77"/>
     <use x="1171.021484" xlink:href="#ArialMT-101"/>
     <use x="1226.636719" xlink:href="#ArialMT-97"/>
     <use x="1282.251953" xlink:href="#ArialMT-115"/>
     <use x="1332.251953" xlink:href="#ArialMT-117"/>
     <use x="1387.867188" xlink:href="#ArialMT-114"/>
     <use x="1421.167969" xlink:href="#ArialMT-101"/>
     <use x="1476.783203" xlink:href="#ArialMT-32"/>
     <use x="1504.566406" xlink:href="#ArialMT-80"/>
     <use x="1571.265625" xlink:href="#ArialMT-111"/>
     <use x="1626.880859" xlink:href="#ArialMT-119"/>
     <use x="1699.097656" xlink:href="#ArialMT-101"/>
     <use x="1754.712891" xlink:href="#ArialMT-114"/>
     <use x="1788.013672" xlink:href="#ArialMT-32"/>
     <use x="1815.796875" xlink:href="#ArialMT-69"/>
     <use x="1882.496094" xlink:href="#ArialMT-115"/>
     <use x="1932.496094" xlink:href="#ArialMT-116"/>
     <use x="1960.279297" xlink:href="#ArialMT-105"/>
     <use x="1982.496094" xlink:href="#ArialMT-109"/>
     <use x="2065.796875" xlink:href="#ArialMT-97"/>
     <use x="2121.412109" xlink:href="#ArialMT-116"/>
     <use x="2149.195312" xlink:href="#ArialMT-105"/>
     <use x="2171.412109" xlink:href="#ArialMT-111"/>
     <use x="2227.027344" xlink:href="#ArialMT-110"/>
    </g>
   </g>
  </g>
 </g>
 <defs>
  <clipPath id="p00501b77fb">
   <rect height="326.16" width="669.6" x="56.737031" y="21.935625"/>
  </clipPath>
 </defs>
</svg>
