<?xml version="1.0" encoding="utf-8" standalone="no"?>
<!DOCTYPE svg PUBLIC "-//W3C//DTD SVG 1.1//EN"
  "http://www.w3.org/Graphics/SVG/1.1/DTD/svg11.dtd">
<!-- Created with matplotlib (https://matplotlib.org/) -->
<svg height="390.116719pt" version="1.1" viewBox="0 0 730.022031 390.116719" width="730.022031pt" xmlns="http://www.w3.org/2000/svg" xmlns:xlink="http://www.w3.org/1999/xlink">
 <metadata>
  <rdf:RDF xmlns:cc="http://creativecommons.org/ns#" xmlns:dc="http://purl.org/dc/elements/1.1/" xmlns:rdf="http://www.w3.org/1999/02/22-rdf-syntax-ns#">
   <cc:Work>
    <dc:type rdf:resource="http://purl.org/dc/dcmitype/StillImage"/>
    <dc:date>2020-12-03T16:09:49.182090</dc:date>
    <dc:format>image/svg+xml</dc:format>
    <dc:creator>
     <cc:Agent>
      <dc:title>Matplotlib v3.3.2, https://matplotlib.org/</dc:title>
     </cc:Agent>
    </dc:creator>
   </cc:Work>
  </rdf:RDF>
 </metadata>
 <defs>
  <style type="text/css">*{stroke-linecap:butt;stroke-linejoin:round;}</style>
 </defs>
 <g id="figure_1">
  <g id="patch_1">
   <path d="M 0 390.116719 
L 730.022031 390.116719 
L 730.022031 0 
L 0 0 
z
" style="fill:#ffffff;"/>
  </g>
  <g id="axes_1">
   <g id="patch_2">
    <path d="M 53.222031 348.095625 
L 722.822031 348.095625 
L 722.822031 21.935625 
L 53.222031 21.935625 
z
" style="fill:#eaeaf2;"/>
   </g>
   <g id="matplotlib.axis_1">
    <g id="xtick_1">
     <g id="line2d_1">
      <path clip-path="url(#p9c102c3885)" d="M 57.379072 348.095625 
L 57.379072 21.935625 
" style="fill:none;stroke:#ffffff;stroke-linecap:round;"/>
     </g>
     <g id="text_1">
      <!-- −105 -->
      <g style="fill:#262626;" transform="translate(44.991182 365.469219)scale(0.11 -0.11)">
       <defs>
        <path d="M 52.828125 31.203125 
L 5.5625 31.203125 
L 5.5625 39.40625 
L 52.828125 39.40625 
z
" id="ArialMT-8722"/>
        <path d="M 37.25 0 
L 28.46875 0 
L 28.46875 56 
Q 25.296875 52.984375 20.140625 49.953125 
Q 14.984375 46.921875 10.890625 45.40625 
L 10.890625 53.90625 
Q 18.265625 57.375 23.78125 62.296875 
Q 29.296875 67.234375 31.59375 71.875 
L 37.25 71.875 
z
" id="ArialMT-49"/>
        <path d="M 4.15625 35.296875 
Q 4.15625 48 6.765625 55.734375 
Q 9.375 63.484375 14.515625 67.671875 
Q 19.671875 71.875 27.484375 71.875 
Q 33.25 71.875 37.59375 69.546875 
Q 41.9375 67.234375 44.765625 62.859375 
Q 47.609375 58.5 49.21875 52.21875 
Q 50.828125 45.953125 50.828125 35.296875 
Q 50.828125 22.703125 48.234375 14.96875 
Q 45.65625 7.234375 40.5 3 
Q 35.359375 -1.21875 27.484375 -1.21875 
Q 17.140625 -1.21875 11.234375 6.203125 
Q 4.15625 15.140625 4.15625 35.296875 
z
M 13.1875 35.296875 
Q 13.1875 17.671875 17.3125 11.828125 
Q 21.4375 6 27.484375 6 
Q 33.546875 6 37.671875 11.859375 
Q 41.796875 17.71875 41.796875 35.296875 
Q 41.796875 52.984375 37.671875 58.78125 
Q 33.546875 64.59375 27.390625 64.59375 
Q 21.34375 64.59375 17.71875 59.46875 
Q 13.1875 52.9375 13.1875 35.296875 
z
" id="ArialMT-48"/>
        <path d="M 4.15625 18.75 
L 13.375 19.53125 
Q 14.40625 12.796875 18.140625 9.390625 
Q 21.875 6 27.15625 6 
Q 33.5 6 37.890625 10.78125 
Q 42.28125 15.578125 42.28125 23.484375 
Q 42.28125 31 38.0625 35.34375 
Q 33.84375 39.703125 27 39.703125 
Q 22.75 39.703125 19.328125 37.765625 
Q 15.921875 35.84375 13.96875 32.765625 
L 5.71875 33.84375 
L 12.640625 70.609375 
L 48.25 70.609375 
L 48.25 62.203125 
L 19.671875 62.203125 
L 15.828125 42.96875 
Q 22.265625 47.46875 29.34375 47.46875 
Q 38.71875 47.46875 45.15625 40.96875 
Q 51.609375 34.46875 51.609375 24.265625 
Q 51.609375 14.546875 45.953125 7.46875 
Q 39.0625 -1.21875 27.15625 -1.21875 
Q 17.390625 -1.21875 11.203125 4.25 
Q 5.03125 9.71875 4.15625 18.75 
z
" id="ArialMT-53"/>
       </defs>
       <use xlink:href="#ArialMT-8722"/>
       <use x="58.398438" xlink:href="#ArialMT-49"/>
       <use x="114.013672" xlink:href="#ArialMT-48"/>
       <use x="169.628906" xlink:href="#ArialMT-53"/>
      </g>
     </g>
    </g>
    <g id="xtick_2">
     <g id="line2d_2">
      <path clip-path="url(#p9c102c3885)" d="M 136.006151 348.095625 
L 136.006151 21.935625 
" style="fill:none;stroke:#ffffff;stroke-linecap:round;"/>
     </g>
     <g id="text_2">
      <!-- −100 -->
      <g style="fill:#262626;" transform="translate(123.61826 365.469219)scale(0.11 -0.11)">
       <use xlink:href="#ArialMT-8722"/>
       <use x="58.398438" xlink:href="#ArialMT-49"/>
       <use x="114.013672" xlink:href="#ArialMT-48"/>
       <use x="169.628906" xlink:href="#ArialMT-48"/>
      </g>
     </g>
    </g>
    <g id="xtick_3">
     <g id="line2d_3">
      <path clip-path="url(#p9c102c3885)" d="M 214.63323 348.095625 
L 214.63323 21.935625 
" style="fill:none;stroke:#ffffff;stroke-linecap:round;"/>
     </g>
     <g id="text_3">
      <!-- −95 -->
      <g style="fill:#262626;" transform="translate(205.303855 365.469219)scale(0.11 -0.11)">
       <defs>
        <path d="M 5.46875 16.546875 
L 13.921875 17.328125 
Q 14.984375 11.375 18.015625 8.6875 
Q 21.046875 6 25.78125 6 
Q 29.828125 6 32.875 7.859375 
Q 35.9375 9.71875 37.890625 12.8125 
Q 39.84375 15.921875 41.15625 21.1875 
Q 42.484375 26.46875 42.484375 31.9375 
Q 42.484375 32.515625 42.4375 33.6875 
Q 39.796875 29.5 35.234375 26.875 
Q 30.671875 24.265625 25.34375 24.265625 
Q 16.453125 24.265625 10.296875 30.703125 
Q 4.15625 37.15625 4.15625 47.703125 
Q 4.15625 58.59375 10.578125 65.234375 
Q 17 71.875 26.65625 71.875 
Q 33.640625 71.875 39.421875 68.109375 
Q 45.21875 64.359375 48.21875 57.390625 
Q 51.21875 50.4375 51.21875 37.25 
Q 51.21875 23.53125 48.234375 15.40625 
Q 45.265625 7.28125 39.375 3.03125 
Q 33.5 -1.21875 25.59375 -1.21875 
Q 17.1875 -1.21875 11.859375 3.4375 
Q 6.546875 8.109375 5.46875 16.546875 
z
M 41.453125 48.140625 
Q 41.453125 55.71875 37.421875 60.15625 
Q 33.40625 64.59375 27.734375 64.59375 
Q 21.875 64.59375 17.53125 59.8125 
Q 13.1875 55.03125 13.1875 47.40625 
Q 13.1875 40.578125 17.3125 36.296875 
Q 21.4375 32.03125 27.484375 32.03125 
Q 33.59375 32.03125 37.515625 36.296875 
Q 41.453125 40.578125 41.453125 48.140625 
z
" id="ArialMT-57"/>
       </defs>
       <use xlink:href="#ArialMT-8722"/>
       <use x="58.398438" xlink:href="#ArialMT-57"/>
       <use x="114.013672" xlink:href="#ArialMT-53"/>
      </g>
     </g>
    </g>
    <g id="xtick_4">
     <g id="line2d_4">
      <path clip-path="url(#p9c102c3885)" d="M 293.260308 348.095625 
L 293.260308 21.935625 
" style="fill:none;stroke:#ffffff;stroke-linecap:round;"/>
     </g>
     <g id="text_4">
      <!-- −90 -->
      <g style="fill:#262626;" transform="translate(283.930933 365.469219)scale(0.11 -0.11)">
       <use xlink:href="#ArialMT-8722"/>
       <use x="58.398438" xlink:href="#ArialMT-57"/>
       <use x="114.013672" xlink:href="#ArialMT-48"/>
      </g>
     </g>
    </g>
    <g id="xtick_5">
     <g id="line2d_5">
      <path clip-path="url(#p9c102c3885)" d="M 371.887387 348.095625 
L 371.887387 21.935625 
" style="fill:none;stroke:#ffffff;stroke-linecap:round;"/>
     </g>
     <g id="text_5">
      <!-- −85 -->
      <g style="fill:#262626;" transform="translate(362.558012 365.469219)scale(0.11 -0.11)">
       <defs>
        <path d="M 17.671875 38.8125 
Q 12.203125 40.828125 9.5625 44.53125 
Q 6.9375 48.25 6.9375 53.421875 
Q 6.9375 61.234375 12.546875 66.546875 
Q 18.171875 71.875 27.484375 71.875 
Q 36.859375 71.875 42.578125 66.421875 
Q 48.296875 60.984375 48.296875 53.171875 
Q 48.296875 48.1875 45.671875 44.5 
Q 43.0625 40.828125 37.75 38.8125 
Q 44.34375 36.671875 47.78125 31.875 
Q 51.21875 27.09375 51.21875 20.453125 
Q 51.21875 11.28125 44.71875 5.03125 
Q 38.234375 -1.21875 27.640625 -1.21875 
Q 17.046875 -1.21875 10.546875 5.046875 
Q 4.046875 11.328125 4.046875 20.703125 
Q 4.046875 27.6875 7.59375 32.390625 
Q 11.140625 37.109375 17.671875 38.8125 
z
M 15.921875 53.71875 
Q 15.921875 48.640625 19.1875 45.40625 
Q 22.46875 42.1875 27.6875 42.1875 
Q 32.765625 42.1875 36.015625 45.375 
Q 39.265625 48.578125 39.265625 53.21875 
Q 39.265625 58.0625 35.90625 61.359375 
Q 32.5625 64.65625 27.59375 64.65625 
Q 22.5625 64.65625 19.234375 61.421875 
Q 15.921875 58.203125 15.921875 53.71875 
z
M 13.09375 20.65625 
Q 13.09375 16.890625 14.875 13.375 
Q 16.65625 9.859375 20.171875 7.921875 
Q 23.6875 6 27.734375 6 
Q 34.03125 6 38.125 10.046875 
Q 42.234375 14.109375 42.234375 20.359375 
Q 42.234375 26.703125 38.015625 30.859375 
Q 33.796875 35.015625 27.4375 35.015625 
Q 21.234375 35.015625 17.15625 30.90625 
Q 13.09375 26.8125 13.09375 20.65625 
z
" id="ArialMT-56"/>
       </defs>
       <use xlink:href="#ArialMT-8722"/>
       <use x="58.398438" xlink:href="#ArialMT-56"/>
       <use x="114.013672" xlink:href="#ArialMT-53"/>
      </g>
     </g>
    </g>
    <g id="xtick_6">
     <g id="line2d_6">
      <path clip-path="url(#p9c102c3885)" d="M 450.514465 348.095625 
L 450.514465 21.935625 
" style="fill:none;stroke:#ffffff;stroke-linecap:round;"/>
     </g>
     <g id="text_6">
      <!-- −80 -->
      <g style="fill:#262626;" transform="translate(441.18509 365.469219)scale(0.11 -0.11)">
       <use xlink:href="#ArialMT-8722"/>
       <use x="58.398438" xlink:href="#ArialMT-56"/>
       <use x="114.013672" xlink:href="#ArialMT-48"/>
      </g>
     </g>
    </g>
    <g id="xtick_7">
     <g id="line2d_7">
      <path clip-path="url(#p9c102c3885)" d="M 529.141544 348.095625 
L 529.141544 21.935625 
" style="fill:none;stroke:#ffffff;stroke-linecap:round;"/>
     </g>
     <g id="text_7">
      <!-- −75 -->
      <g style="fill:#262626;" transform="translate(519.812169 365.469219)scale(0.11 -0.11)">
       <defs>
        <path d="M 4.734375 62.203125 
L 4.734375 70.65625 
L 51.078125 70.65625 
L 51.078125 63.8125 
Q 44.234375 56.546875 37.515625 44.484375 
Q 30.8125 32.421875 27.15625 19.671875 
Q 24.515625 10.6875 23.78125 0 
L 14.75 0 
Q 14.890625 8.453125 18.0625 20.40625 
Q 21.234375 32.375 27.171875 43.484375 
Q 33.109375 54.59375 39.796875 62.203125 
z
" id="ArialMT-55"/>
       </defs>
       <use xlink:href="#ArialMT-8722"/>
       <use x="58.398438" xlink:href="#ArialMT-55"/>
       <use x="114.013672" xlink:href="#ArialMT-53"/>
      </g>
     </g>
    </g>
    <g id="xtick_8">
     <g id="line2d_8">
      <path clip-path="url(#p9c102c3885)" d="M 607.768623 348.095625 
L 607.768623 21.935625 
" style="fill:none;stroke:#ffffff;stroke-linecap:round;"/>
     </g>
     <g id="text_8">
      <!-- −70 -->
      <g style="fill:#262626;" transform="translate(598.439248 365.469219)scale(0.11 -0.11)">
       <use xlink:href="#ArialMT-8722"/>
       <use x="58.398438" xlink:href="#ArialMT-55"/>
       <use x="114.013672" xlink:href="#ArialMT-48"/>
      </g>
     </g>
    </g>
    <g id="xtick_9">
     <g id="line2d_9">
      <path clip-path="url(#p9c102c3885)" d="M 686.395701 348.095625 
L 686.395701 21.935625 
" style="fill:none;stroke:#ffffff;stroke-linecap:round;"/>
     </g>
     <g id="text_9">
      <!-- −65 -->
      <g style="fill:#262626;" transform="translate(677.066326 365.469219)scale(0.11 -0.11)">
       <defs>
        <path d="M 49.75 54.046875 
L 41.015625 53.375 
Q 39.84375 58.546875 37.703125 60.890625 
Q 34.125 64.65625 28.90625 64.65625 
Q 24.703125 64.65625 21.53125 62.3125 
Q 17.390625 59.28125 14.984375 53.46875 
Q 12.59375 47.65625 12.5 36.921875 
Q 15.671875 41.75 20.265625 44.09375 
Q 24.859375 46.4375 29.890625 46.4375 
Q 38.671875 46.4375 44.84375 39.96875 
Q 51.03125 33.5 51.03125 23.25 
Q 51.03125 16.5 48.125 10.71875 
Q 45.21875 4.9375 40.140625 1.859375 
Q 35.0625 -1.21875 28.609375 -1.21875 
Q 17.625 -1.21875 10.6875 6.859375 
Q 3.765625 14.9375 3.765625 33.5 
Q 3.765625 54.25 11.421875 63.671875 
Q 18.109375 71.875 29.4375 71.875 
Q 37.890625 71.875 43.28125 67.140625 
Q 48.6875 62.40625 49.75 54.046875 
z
M 13.875 23.1875 
Q 13.875 18.65625 15.796875 14.5 
Q 17.71875 10.359375 21.1875 8.171875 
Q 24.65625 6 28.46875 6 
Q 34.03125 6 38.03125 10.484375 
Q 42.046875 14.984375 42.046875 22.703125 
Q 42.046875 30.125 38.078125 34.390625 
Q 34.125 38.671875 28.125 38.671875 
Q 22.171875 38.671875 18.015625 34.390625 
Q 13.875 30.125 13.875 23.1875 
z
" id="ArialMT-54"/>
       </defs>
       <use xlink:href="#ArialMT-8722"/>
       <use x="58.398438" xlink:href="#ArialMT-54"/>
       <use x="114.013672" xlink:href="#ArialMT-53"/>
      </g>
     </g>
    </g>
    <g id="text_10">
     <!-- RSSI Value (Higher Values Stronger) -->
     <g style="fill:#262626;" transform="translate(289.864844 380.391094)scale(0.12 -0.12)">
      <defs>
       <path d="M 7.859375 0 
L 7.859375 71.578125 
L 39.59375 71.578125 
Q 49.171875 71.578125 54.140625 69.640625 
Q 59.125 67.71875 62.109375 62.828125 
Q 65.09375 57.953125 65.09375 52.046875 
Q 65.09375 44.4375 60.15625 39.203125 
Q 55.21875 33.984375 44.921875 32.5625 
Q 48.6875 30.765625 50.640625 29 
Q 54.78125 25.203125 58.5 19.484375 
L 70.953125 0 
L 59.03125 0 
L 49.5625 14.890625 
Q 45.40625 21.34375 42.71875 24.75 
Q 40.046875 28.171875 37.921875 29.53125 
Q 35.796875 30.90625 33.59375 31.453125 
Q 31.984375 31.78125 28.328125 31.78125 
L 17.328125 31.78125 
L 17.328125 0 
z
M 17.328125 39.984375 
L 37.703125 39.984375 
Q 44.1875 39.984375 47.84375 41.328125 
Q 51.515625 42.671875 53.421875 45.625 
Q 55.328125 48.578125 55.328125 52.046875 
Q 55.328125 57.125 51.640625 60.390625 
Q 47.953125 63.671875 39.984375 63.671875 
L 17.328125 63.671875 
z
" id="ArialMT-82"/>
       <path d="M 4.5 23 
L 13.421875 23.78125 
Q 14.0625 18.40625 16.375 14.96875 
Q 18.703125 11.53125 23.578125 9.40625 
Q 28.46875 7.28125 34.578125 7.28125 
Q 39.984375 7.28125 44.140625 8.890625 
Q 48.296875 10.5 50.3125 13.296875 
Q 52.34375 16.109375 52.34375 19.4375 
Q 52.34375 22.796875 50.390625 25.3125 
Q 48.4375 27.828125 43.953125 29.546875 
Q 41.0625 30.671875 31.203125 33.03125 
Q 21.34375 35.40625 17.390625 37.5 
Q 12.25 40.1875 9.734375 44.15625 
Q 7.234375 48.140625 7.234375 53.078125 
Q 7.234375 58.5 10.296875 63.203125 
Q 13.375 67.921875 19.28125 70.359375 
Q 25.203125 72.796875 32.421875 72.796875 
Q 40.375 72.796875 46.453125 70.234375 
Q 52.546875 67.671875 55.8125 62.6875 
Q 59.078125 57.71875 59.328125 51.421875 
L 50.25 50.734375 
Q 49.515625 57.515625 45.28125 60.984375 
Q 41.0625 64.453125 32.8125 64.453125 
Q 24.21875 64.453125 20.28125 61.296875 
Q 16.359375 58.15625 16.359375 53.71875 
Q 16.359375 49.859375 19.140625 47.359375 
Q 21.875 44.875 33.421875 42.265625 
Q 44.96875 39.65625 49.265625 37.703125 
Q 55.515625 34.8125 58.484375 30.390625 
Q 61.46875 25.984375 61.46875 20.21875 
Q 61.46875 14.5 58.203125 9.4375 
Q 54.9375 4.390625 48.796875 1.578125 
Q 42.671875 -1.21875 35.015625 -1.21875 
Q 25.296875 -1.21875 18.71875 1.609375 
Q 12.15625 4.4375 8.421875 10.125 
Q 4.6875 15.828125 4.5 23 
z
" id="ArialMT-83"/>
       <path d="M 9.328125 0 
L 9.328125 71.578125 
L 18.796875 71.578125 
L 18.796875 0 
z
" id="ArialMT-73"/>
       <path id="ArialMT-32"/>
       <path d="M 28.171875 0 
L 0.4375 71.578125 
L 10.6875 71.578125 
L 29.296875 19.578125 
Q 31.546875 13.328125 33.0625 7.859375 
Q 34.71875 13.71875 36.921875 19.578125 
L 56.25 71.578125 
L 65.921875 71.578125 
L 37.890625 0 
z
" id="ArialMT-86"/>
       <path d="M 40.4375 6.390625 
Q 35.546875 2.25 31.03125 0.53125 
Q 26.515625 -1.171875 21.34375 -1.171875 
Q 12.796875 -1.171875 8.203125 3 
Q 3.609375 7.171875 3.609375 13.671875 
Q 3.609375 17.484375 5.34375 20.625 
Q 7.078125 23.78125 9.890625 25.6875 
Q 12.703125 27.59375 16.21875 28.5625 
Q 18.796875 29.25 24.03125 29.890625 
Q 34.671875 31.15625 39.703125 32.90625 
Q 39.75 34.71875 39.75 35.203125 
Q 39.75 40.578125 37.25 42.78125 
Q 33.890625 45.75 27.25 45.75 
Q 21.046875 45.75 18.09375 43.578125 
Q 15.140625 41.40625 13.71875 35.890625 
L 5.125 37.0625 
Q 6.296875 42.578125 8.984375 45.96875 
Q 11.671875 49.359375 16.75 51.1875 
Q 21.828125 53.03125 28.515625 53.03125 
Q 35.15625 53.03125 39.296875 51.46875 
Q 43.453125 49.90625 45.40625 47.53125 
Q 47.359375 45.171875 48.140625 41.546875 
Q 48.578125 39.3125 48.578125 33.453125 
L 48.578125 21.734375 
Q 48.578125 9.46875 49.140625 6.21875 
Q 49.703125 2.984375 51.375 0 
L 42.1875 0 
Q 40.828125 2.734375 40.4375 6.390625 
z
M 39.703125 26.03125 
Q 34.90625 24.078125 25.34375 22.703125 
Q 19.921875 21.921875 17.671875 20.9375 
Q 15.4375 19.96875 14.203125 18.09375 
Q 12.984375 16.21875 12.984375 13.921875 
Q 12.984375 10.40625 15.640625 8.0625 
Q 18.3125 5.71875 23.4375 5.71875 
Q 28.515625 5.71875 32.46875 7.9375 
Q 36.421875 10.15625 38.28125 14.015625 
Q 39.703125 17 39.703125 22.796875 
z
" id="ArialMT-97"/>
       <path d="M 6.390625 0 
L 6.390625 71.578125 
L 15.1875 71.578125 
L 15.1875 0 
z
" id="ArialMT-108"/>
       <path d="M 40.578125 0 
L 40.578125 7.625 
Q 34.515625 -1.171875 24.125 -1.171875 
Q 19.53125 -1.171875 15.546875 0.578125 
Q 11.578125 2.34375 9.640625 5 
Q 7.71875 7.671875 6.9375 11.53125 
Q 6.390625 14.109375 6.390625 19.734375 
L 6.390625 51.859375 
L 15.1875 51.859375 
L 15.1875 23.09375 
Q 15.1875 16.21875 15.71875 13.8125 
Q 16.546875 10.359375 19.234375 8.375 
Q 21.921875 6.390625 25.875 6.390625 
Q 29.828125 6.390625 33.296875 8.421875 
Q 36.765625 10.453125 38.203125 13.9375 
Q 39.65625 17.4375 39.65625 24.078125 
L 39.65625 51.859375 
L 48.4375 51.859375 
L 48.4375 0 
z
" id="ArialMT-117"/>
       <path d="M 42.09375 16.703125 
L 51.171875 15.578125 
Q 49.03125 7.625 43.21875 3.21875 
Q 37.40625 -1.171875 28.375 -1.171875 
Q 17 -1.171875 10.328125 5.828125 
Q 3.65625 12.84375 3.65625 25.484375 
Q 3.65625 38.578125 10.390625 45.796875 
Q 17.140625 53.03125 27.875 53.03125 
Q 38.28125 53.03125 44.875 45.953125 
Q 51.46875 38.875 51.46875 26.03125 
Q 51.46875 25.25 51.421875 23.6875 
L 12.75 23.6875 
Q 13.234375 15.140625 17.578125 10.59375 
Q 21.921875 6.0625 28.421875 6.0625 
Q 33.25 6.0625 36.671875 8.59375 
Q 40.09375 11.140625 42.09375 16.703125 
z
M 13.234375 30.90625 
L 42.1875 30.90625 
Q 41.609375 37.453125 38.875 40.71875 
Q 34.671875 45.796875 27.984375 45.796875 
Q 21.921875 45.796875 17.796875 41.75 
Q 13.671875 37.703125 13.234375 30.90625 
z
" id="ArialMT-101"/>
       <path d="M 23.390625 -21.046875 
Q 16.109375 -11.859375 11.078125 0.4375 
Q 6.0625 12.75 6.0625 25.921875 
Q 6.0625 37.546875 9.8125 48.1875 
Q 14.203125 60.546875 23.390625 72.796875 
L 29.6875 72.796875 
Q 23.78125 62.640625 21.875 58.296875 
Q 18.890625 51.5625 17.1875 44.234375 
Q 15.09375 35.109375 15.09375 25.875 
Q 15.09375 2.390625 29.6875 -21.046875 
z
" id="ArialMT-40"/>
       <path d="M 8.015625 0 
L 8.015625 71.578125 
L 17.484375 71.578125 
L 17.484375 42.1875 
L 54.6875 42.1875 
L 54.6875 71.578125 
L 64.15625 71.578125 
L 64.15625 0 
L 54.6875 0 
L 54.6875 33.734375 
L 17.484375 33.734375 
L 17.484375 0 
z
" id="ArialMT-72"/>
       <path d="M 6.640625 61.46875 
L 6.640625 71.578125 
L 15.4375 71.578125 
L 15.4375 61.46875 
z
M 6.640625 0 
L 6.640625 51.859375 
L 15.4375 51.859375 
L 15.4375 0 
z
" id="ArialMT-105"/>
       <path d="M 4.984375 -4.296875 
L 13.53125 -5.5625 
Q 14.0625 -9.515625 16.5 -11.328125 
Q 19.78125 -13.765625 25.4375 -13.765625 
Q 31.546875 -13.765625 34.859375 -11.328125 
Q 38.1875 -8.890625 39.359375 -4.5 
Q 40.046875 -1.8125 39.984375 6.78125 
Q 34.234375 0 25.640625 0 
Q 14.9375 0 9.078125 7.71875 
Q 3.21875 15.4375 3.21875 26.21875 
Q 3.21875 33.640625 5.90625 39.90625 
Q 8.59375 46.1875 13.6875 49.609375 
Q 18.796875 53.03125 25.6875 53.03125 
Q 34.859375 53.03125 40.828125 45.609375 
L 40.828125 51.859375 
L 48.921875 51.859375 
L 48.921875 7.03125 
Q 48.921875 -5.078125 46.453125 -10.125 
Q 44 -15.1875 38.640625 -18.109375 
Q 33.296875 -21.046875 25.484375 -21.046875 
Q 16.21875 -21.046875 10.5 -16.875 
Q 4.78125 -12.703125 4.984375 -4.296875 
z
M 12.25 26.859375 
Q 12.25 16.65625 16.296875 11.96875 
Q 20.359375 7.28125 26.46875 7.28125 
Q 32.515625 7.28125 36.609375 11.9375 
Q 40.71875 16.609375 40.71875 26.5625 
Q 40.71875 36.078125 36.5 40.90625 
Q 32.28125 45.75 26.3125 45.75 
Q 20.453125 45.75 16.34375 40.984375 
Q 12.25 36.234375 12.25 26.859375 
z
" id="ArialMT-103"/>
       <path d="M 6.59375 0 
L 6.59375 71.578125 
L 15.375 71.578125 
L 15.375 45.90625 
Q 21.53125 53.03125 30.90625 53.03125 
Q 36.671875 53.03125 40.921875 50.75 
Q 45.171875 48.484375 47 44.484375 
Q 48.828125 40.484375 48.828125 32.859375 
L 48.828125 0 
L 40.046875 0 
L 40.046875 32.859375 
Q 40.046875 39.453125 37.1875 42.453125 
Q 34.328125 45.453125 29.109375 45.453125 
Q 25.203125 45.453125 21.75 43.421875 
Q 18.3125 41.40625 16.84375 37.9375 
Q 15.375 34.46875 15.375 28.375 
L 15.375 0 
z
" id="ArialMT-104"/>
       <path d="M 6.5 0 
L 6.5 51.859375 
L 14.40625 51.859375 
L 14.40625 44 
Q 17.4375 49.515625 20 51.265625 
Q 22.5625 53.03125 25.640625 53.03125 
Q 30.078125 53.03125 34.671875 50.203125 
L 31.640625 42.046875 
Q 28.421875 43.953125 25.203125 43.953125 
Q 22.3125 43.953125 20.015625 42.21875 
Q 17.71875 40.484375 16.75 37.40625 
Q 15.28125 32.71875 15.28125 27.15625 
L 15.28125 0 
z
" id="ArialMT-114"/>
       <path d="M 3.078125 15.484375 
L 11.765625 16.84375 
Q 12.5 11.625 15.84375 8.84375 
Q 19.1875 6.0625 25.203125 6.0625 
Q 31.25 6.0625 34.171875 8.515625 
Q 37.109375 10.984375 37.109375 14.3125 
Q 37.109375 17.28125 34.515625 19 
Q 32.71875 20.171875 25.53125 21.96875 
Q 15.875 24.421875 12.140625 26.203125 
Q 8.40625 27.984375 6.46875 31.125 
Q 4.546875 34.28125 4.546875 38.09375 
Q 4.546875 41.546875 6.125 44.5 
Q 7.71875 47.46875 10.453125 49.421875 
Q 12.5 50.921875 16.03125 51.96875 
Q 19.578125 53.03125 23.640625 53.03125 
Q 29.734375 53.03125 34.34375 51.265625 
Q 38.96875 49.515625 41.15625 46.5 
Q 43.359375 43.5 44.1875 38.484375 
L 35.59375 37.3125 
Q 35.015625 41.3125 32.203125 43.546875 
Q 29.390625 45.796875 24.265625 45.796875 
Q 18.21875 45.796875 15.625 43.796875 
Q 13.03125 41.796875 13.03125 39.109375 
Q 13.03125 37.40625 14.109375 36.03125 
Q 15.1875 34.625 17.484375 33.6875 
Q 18.796875 33.203125 25.25 31.453125 
Q 34.578125 28.953125 38.25 27.359375 
Q 41.9375 25.78125 44.03125 22.75 
Q 46.140625 19.734375 46.140625 15.234375 
Q 46.140625 10.84375 43.578125 6.953125 
Q 41.015625 3.078125 36.171875 0.953125 
Q 31.34375 -1.171875 25.25 -1.171875 
Q 15.140625 -1.171875 9.84375 3.03125 
Q 4.546875 7.234375 3.078125 15.484375 
z
" id="ArialMT-115"/>
       <path d="M 25.78125 7.859375 
L 27.046875 0.09375 
Q 23.34375 -0.6875 20.40625 -0.6875 
Q 15.625 -0.6875 12.984375 0.828125 
Q 10.359375 2.34375 9.28125 4.8125 
Q 8.203125 7.28125 8.203125 15.1875 
L 8.203125 45.015625 
L 1.765625 45.015625 
L 1.765625 51.859375 
L 8.203125 51.859375 
L 8.203125 64.703125 
L 16.9375 69.96875 
L 16.9375 51.859375 
L 25.78125 51.859375 
L 25.78125 45.015625 
L 16.9375 45.015625 
L 16.9375 14.703125 
Q 16.9375 10.9375 17.40625 9.859375 
Q 17.875 8.796875 18.921875 8.15625 
Q 19.96875 7.515625 21.921875 7.515625 
Q 23.390625 7.515625 25.78125 7.859375 
z
" id="ArialMT-116"/>
       <path d="M 3.328125 25.921875 
Q 3.328125 40.328125 11.328125 47.265625 
Q 18.015625 53.03125 27.640625 53.03125 
Q 38.328125 53.03125 45.109375 46.015625 
Q 51.90625 39.015625 51.90625 26.65625 
Q 51.90625 16.65625 48.90625 10.90625 
Q 45.90625 5.171875 40.15625 2 
Q 34.421875 -1.171875 27.640625 -1.171875 
Q 16.75 -1.171875 10.03125 5.8125 
Q 3.328125 12.796875 3.328125 25.921875 
z
M 12.359375 25.921875 
Q 12.359375 15.96875 16.703125 11.015625 
Q 21.046875 6.0625 27.640625 6.0625 
Q 34.1875 6.0625 38.53125 11.03125 
Q 42.875 16.015625 42.875 26.21875 
Q 42.875 35.84375 38.5 40.796875 
Q 34.125 45.75 27.640625 45.75 
Q 21.046875 45.75 16.703125 40.8125 
Q 12.359375 35.890625 12.359375 25.921875 
z
" id="ArialMT-111"/>
       <path d="M 6.59375 0 
L 6.59375 51.859375 
L 14.5 51.859375 
L 14.5 44.484375 
Q 20.21875 53.03125 31 53.03125 
Q 35.6875 53.03125 39.625 51.34375 
Q 43.5625 49.65625 45.515625 46.921875 
Q 47.46875 44.1875 48.25 40.4375 
Q 48.734375 37.984375 48.734375 31.890625 
L 48.734375 0 
L 39.9375 0 
L 39.9375 31.546875 
Q 39.9375 36.921875 38.90625 39.578125 
Q 37.890625 42.234375 35.28125 43.8125 
Q 32.671875 45.40625 29.15625 45.40625 
Q 23.53125 45.40625 19.453125 41.84375 
Q 15.375 38.28125 15.375 28.328125 
L 15.375 0 
z
" id="ArialMT-110"/>
       <path d="M 12.359375 -21.046875 
L 6.0625 -21.046875 
Q 20.65625 2.390625 20.65625 25.875 
Q 20.65625 35.0625 18.5625 44.09375 
Q 16.890625 51.421875 13.921875 58.15625 
Q 12.015625 62.546875 6.0625 72.796875 
L 12.359375 72.796875 
Q 21.53125 60.546875 25.921875 48.1875 
Q 29.6875 37.546875 29.6875 25.921875 
Q 29.6875 12.75 24.625 0.4375 
Q 19.578125 -11.859375 12.359375 -21.046875 
z
" id="ArialMT-41"/>
      </defs>
      <use xlink:href="#ArialMT-82"/>
      <use x="72.216797" xlink:href="#ArialMT-83"/>
      <use x="138.916016" xlink:href="#ArialMT-83"/>
      <use x="205.615234" xlink:href="#ArialMT-73"/>
      <use x="233.398438" xlink:href="#ArialMT-32"/>
      <use x="261.181641" xlink:href="#ArialMT-86"/>
      <use x="320.505859" xlink:href="#ArialMT-97"/>
      <use x="376.121094" xlink:href="#ArialMT-108"/>
      <use x="398.337891" xlink:href="#ArialMT-117"/>
      <use x="453.953125" xlink:href="#ArialMT-101"/>
      <use x="509.568359" xlink:href="#ArialMT-32"/>
      <use x="537.351562" xlink:href="#ArialMT-40"/>
      <use x="570.652344" xlink:href="#ArialMT-72"/>
      <use x="642.869141" xlink:href="#ArialMT-105"/>
      <use x="665.085938" xlink:href="#ArialMT-103"/>
      <use x="720.701172" xlink:href="#ArialMT-104"/>
      <use x="776.316406" xlink:href="#ArialMT-101"/>
      <use x="831.931641" xlink:href="#ArialMT-114"/>
      <use x="865.232422" xlink:href="#ArialMT-32"/>
      <use x="893.015625" xlink:href="#ArialMT-86"/>
      <use x="952.339844" xlink:href="#ArialMT-97"/>
      <use x="1007.955078" xlink:href="#ArialMT-108"/>
      <use x="1030.171875" xlink:href="#ArialMT-117"/>
      <use x="1085.787109" xlink:href="#ArialMT-101"/>
      <use x="1141.402344" xlink:href="#ArialMT-115"/>
      <use x="1191.402344" xlink:href="#ArialMT-32"/>
      <use x="1219.185547" xlink:href="#ArialMT-83"/>
      <use x="1285.884766" xlink:href="#ArialMT-116"/>
      <use x="1313.667969" xlink:href="#ArialMT-114"/>
      <use x="1346.96875" xlink:href="#ArialMT-111"/>
      <use x="1402.583984" xlink:href="#ArialMT-110"/>
      <use x="1458.199219" xlink:href="#ArialMT-103"/>
      <use x="1513.814453" xlink:href="#ArialMT-101"/>
      <use x="1569.429688" xlink:href="#ArialMT-114"/>
      <use x="1602.730469" xlink:href="#ArialMT-41"/>
     </g>
    </g>
   </g>
   <g id="matplotlib.axis_2">
    <g id="ytick_1">
     <g id="line2d_10">
      <path clip-path="url(#p9c102c3885)" d="M 53.222031 348.095625 
L 722.822031 348.095625 
" style="fill:none;stroke:#ffffff;stroke-linecap:round;"/>
     </g>
     <g id="text_11">
      <!-- 0.00 -->
      <g style="fill:#262626;" transform="translate(22.315 352.032422)scale(0.11 -0.11)">
       <defs>
        <path d="M 9.078125 0 
L 9.078125 10.015625 
L 19.09375 10.015625 
L 19.09375 0 
z
" id="ArialMT-46"/>
       </defs>
       <use xlink:href="#ArialMT-48"/>
       <use x="55.615234" xlink:href="#ArialMT-46"/>
       <use x="83.398438" xlink:href="#ArialMT-48"/>
       <use x="139.013672" xlink:href="#ArialMT-48"/>
      </g>
     </g>
    </g>
    <g id="ytick_2">
     <g id="line2d_11">
      <path clip-path="url(#p9c102c3885)" d="M 53.222031 279.827328 
L 722.822031 279.827328 
" style="fill:none;stroke:#ffffff;stroke-linecap:round;"/>
     </g>
     <g id="text_12">
      <!-- 0.02 -->
      <g style="fill:#262626;" transform="translate(22.315 283.764125)scale(0.11 -0.11)">
       <defs>
        <path d="M 50.34375 8.453125 
L 50.34375 0 
L 3.03125 0 
Q 2.9375 3.171875 4.046875 6.109375 
Q 5.859375 10.9375 9.828125 15.625 
Q 13.8125 20.3125 21.34375 26.46875 
Q 33.015625 36.03125 37.109375 41.625 
Q 41.21875 47.21875 41.21875 52.203125 
Q 41.21875 57.421875 37.46875 61 
Q 33.734375 64.59375 27.734375 64.59375 
Q 21.390625 64.59375 17.578125 60.78125 
Q 13.765625 56.984375 13.71875 50.25 
L 4.6875 51.171875 
Q 5.609375 61.28125 11.65625 66.578125 
Q 17.71875 71.875 27.9375 71.875 
Q 38.234375 71.875 44.234375 66.15625 
Q 50.25 60.453125 50.25 52 
Q 50.25 47.703125 48.484375 43.546875 
Q 46.734375 39.40625 42.65625 34.8125 
Q 38.578125 30.21875 29.109375 22.21875 
Q 21.1875 15.578125 18.9375 13.203125 
Q 16.703125 10.84375 15.234375 8.453125 
z
" id="ArialMT-50"/>
       </defs>
       <use xlink:href="#ArialMT-48"/>
       <use x="55.615234" xlink:href="#ArialMT-46"/>
       <use x="83.398438" xlink:href="#ArialMT-48"/>
       <use x="139.013672" xlink:href="#ArialMT-50"/>
      </g>
     </g>
    </g>
    <g id="ytick_3">
     <g id="line2d_12">
      <path clip-path="url(#p9c102c3885)" d="M 53.222031 211.559031 
L 722.822031 211.559031 
" style="fill:none;stroke:#ffffff;stroke-linecap:round;"/>
     </g>
     <g id="text_13">
      <!-- 0.04 -->
      <g style="fill:#262626;" transform="translate(22.315 215.495828)scale(0.11 -0.11)">
       <defs>
        <path d="M 32.328125 0 
L 32.328125 17.140625 
L 1.265625 17.140625 
L 1.265625 25.203125 
L 33.9375 71.578125 
L 41.109375 71.578125 
L 41.109375 25.203125 
L 50.78125 25.203125 
L 50.78125 17.140625 
L 41.109375 17.140625 
L 41.109375 0 
z
M 32.328125 25.203125 
L 32.328125 57.46875 
L 9.90625 25.203125 
z
" id="ArialMT-52"/>
       </defs>
       <use xlink:href="#ArialMT-48"/>
       <use x="55.615234" xlink:href="#ArialMT-46"/>
       <use x="83.398438" xlink:href="#ArialMT-48"/>
       <use x="139.013672" xlink:href="#ArialMT-52"/>
      </g>
     </g>
    </g>
    <g id="ytick_4">
     <g id="line2d_13">
      <path clip-path="url(#p9c102c3885)" d="M 53.222031 143.290734 
L 722.822031 143.290734 
" style="fill:none;stroke:#ffffff;stroke-linecap:round;"/>
     </g>
     <g id="text_14">
      <!-- 0.06 -->
      <g style="fill:#262626;" transform="translate(22.315 147.227531)scale(0.11 -0.11)">
       <use xlink:href="#ArialMT-48"/>
       <use x="55.615234" xlink:href="#ArialMT-46"/>
       <use x="83.398438" xlink:href="#ArialMT-48"/>
       <use x="139.013672" xlink:href="#ArialMT-54"/>
      </g>
     </g>
    </g>
    <g id="ytick_5">
     <g id="line2d_14">
      <path clip-path="url(#p9c102c3885)" d="M 53.222031 75.022437 
L 722.822031 75.022437 
" style="fill:none;stroke:#ffffff;stroke-linecap:round;"/>
     </g>
     <g id="text_15">
      <!-- 0.08 -->
      <g style="fill:#262626;" transform="translate(22.315 78.959234)scale(0.11 -0.11)">
       <use xlink:href="#ArialMT-48"/>
       <use x="55.615234" xlink:href="#ArialMT-46"/>
       <use x="83.398438" xlink:href="#ArialMT-48"/>
       <use x="139.013672" xlink:href="#ArialMT-56"/>
      </g>
     </g>
    </g>
    <g id="text_16">
     <!-- Density Estimation -->
     <g style="fill:#262626;" transform="translate(15.789375 234.698438)rotate(-90)scale(0.12 -0.12)">
      <defs>
       <path d="M 7.71875 0 
L 7.71875 71.578125 
L 32.375 71.578125 
Q 40.71875 71.578125 45.125 70.5625 
Q 51.265625 69.140625 55.609375 65.4375 
Q 61.28125 60.640625 64.078125 53.1875 
Q 66.890625 45.75 66.890625 36.1875 
Q 66.890625 28.03125 64.984375 21.734375 
Q 63.09375 15.4375 60.109375 11.296875 
Q 57.125 7.171875 53.578125 4.796875 
Q 50.046875 2.4375 45.046875 1.21875 
Q 40.046875 0 33.546875 0 
z
M 17.1875 8.453125 
L 32.46875 8.453125 
Q 39.546875 8.453125 43.578125 9.765625 
Q 47.609375 11.078125 50 13.484375 
Q 53.375 16.84375 55.25 22.53125 
Q 57.125 28.21875 57.125 36.328125 
Q 57.125 47.5625 53.4375 53.59375 
Q 49.75 59.625 44.484375 61.671875 
Q 40.671875 63.140625 32.234375 63.140625 
L 17.1875 63.140625 
z
" id="ArialMT-68"/>
       <path d="M 6.203125 -19.96875 
L 5.21875 -11.71875 
Q 8.109375 -12.5 10.25 -12.5 
Q 13.1875 -12.5 14.9375 -11.515625 
Q 16.703125 -10.546875 17.828125 -8.796875 
Q 18.65625 -7.46875 20.515625 -2.25 
Q 20.75 -1.515625 21.296875 -0.09375 
L 1.609375 51.859375 
L 11.078125 51.859375 
L 21.875 21.828125 
Q 23.96875 16.109375 25.640625 9.8125 
Q 27.15625 15.875 29.25 21.625 
L 40.328125 51.859375 
L 49.125 51.859375 
L 29.390625 -0.875 
Q 26.21875 -9.421875 24.46875 -12.640625 
Q 22.125 -17 19.09375 -19.015625 
Q 16.0625 -21.046875 11.859375 -21.046875 
Q 9.328125 -21.046875 6.203125 -19.96875 
z
" id="ArialMT-121"/>
       <path d="M 7.90625 0 
L 7.90625 71.578125 
L 59.671875 71.578125 
L 59.671875 63.140625 
L 17.390625 63.140625 
L 17.390625 41.21875 
L 56.984375 41.21875 
L 56.984375 32.8125 
L 17.390625 32.8125 
L 17.390625 8.453125 
L 61.328125 8.453125 
L 61.328125 0 
z
" id="ArialMT-69"/>
       <path d="M 6.59375 0 
L 6.59375 51.859375 
L 14.453125 51.859375 
L 14.453125 44.578125 
Q 16.890625 48.390625 20.9375 50.703125 
Q 25 53.03125 30.171875 53.03125 
Q 35.9375 53.03125 39.625 50.640625 
Q 43.3125 48.25 44.828125 43.953125 
Q 50.984375 53.03125 60.84375 53.03125 
Q 68.5625 53.03125 72.703125 48.75 
Q 76.859375 44.484375 76.859375 35.59375 
L 76.859375 0 
L 68.109375 0 
L 68.109375 32.671875 
Q 68.109375 37.9375 67.25 40.25 
Q 66.40625 42.578125 64.15625 43.984375 
Q 61.921875 45.40625 58.890625 45.40625 
Q 53.421875 45.40625 49.796875 41.765625 
Q 46.1875 38.140625 46.1875 30.125 
L 46.1875 0 
L 37.40625 0 
L 37.40625 33.6875 
Q 37.40625 39.546875 35.25 42.46875 
Q 33.109375 45.40625 28.21875 45.40625 
Q 24.515625 45.40625 21.359375 43.453125 
Q 18.21875 41.5 16.796875 37.734375 
Q 15.375 33.984375 15.375 26.90625 
L 15.375 0 
z
" id="ArialMT-109"/>
      </defs>
      <use xlink:href="#ArialMT-68"/>
      <use x="72.216797" xlink:href="#ArialMT-101"/>
      <use x="127.832031" xlink:href="#ArialMT-110"/>
      <use x="183.447266" xlink:href="#ArialMT-115"/>
      <use x="233.447266" xlink:href="#ArialMT-105"/>
      <use x="255.664062" xlink:href="#ArialMT-116"/>
      <use x="283.447266" xlink:href="#ArialMT-121"/>
      <use x="333.447266" xlink:href="#ArialMT-32"/>
      <use x="361.230469" xlink:href="#ArialMT-69"/>
      <use x="427.929688" xlink:href="#ArialMT-115"/>
      <use x="477.929688" xlink:href="#ArialMT-116"/>
      <use x="505.712891" xlink:href="#ArialMT-105"/>
      <use x="527.929688" xlink:href="#ArialMT-109"/>
      <use x="611.230469" xlink:href="#ArialMT-97"/>
      <use x="666.845703" xlink:href="#ArialMT-116"/>
      <use x="694.628906" xlink:href="#ArialMT-105"/>
      <use x="716.845703" xlink:href="#ArialMT-111"/>
      <use x="772.460938" xlink:href="#ArialMT-110"/>
     </g>
    </g>
   </g>
   <g id="PolyCollection_1">
    <defs>
     <path d="M 141.476911 -42.06526 
L 141.476911 -42.021094 
L 142.528239 -42.021094 
L 143.579567 -42.021094 
L 144.630896 -42.021094 
L 145.682224 -42.021094 
L 146.733552 -42.021094 
L 147.78488 -42.021094 
L 148.836208 -42.021094 
L 149.887536 -42.021094 
L 150.938864 -42.021094 
L 151.990193 -42.021094 
L 153.041521 -42.021094 
L 154.092849 -42.021094 
L 155.144177 -42.021094 
L 156.195505 -42.021094 
L 157.246833 -42.021094 
L 158.298161 -42.021094 
L 159.349489 -42.021094 
L 160.400818 -42.021094 
L 161.452146 -42.021094 
L 162.503474 -42.021094 
L 163.554802 -42.021094 
L 164.60613 -42.021094 
L 165.657458 -42.021094 
L 166.708786 -42.021094 
L 167.760115 -42.021094 
L 168.811443 -42.021094 
L 169.862771 -42.021094 
L 170.914099 -42.021094 
L 171.965427 -42.021094 
L 173.016755 -42.021094 
L 174.068083 -42.021094 
L 175.119412 -42.021094 
L 176.17074 -42.021094 
L 177.222068 -42.021094 
L 178.273396 -42.021094 
L 179.324724 -42.021094 
L 180.376052 -42.021094 
L 181.42738 -42.021094 
L 182.478709 -42.021094 
L 183.530037 -42.021094 
L 184.581365 -42.021094 
L 185.632693 -42.021094 
L 186.684021 -42.021094 
L 187.735349 -42.021094 
L 188.786677 -42.021094 
L 189.838006 -42.021094 
L 190.889334 -42.021094 
L 191.940662 -42.021094 
L 192.99199 -42.021094 
L 194.043318 -42.021094 
L 195.094646 -42.021094 
L 196.145974 -42.021094 
L 197.197302 -42.021094 
L 198.248631 -42.021094 
L 199.299959 -42.021094 
L 200.351287 -42.021094 
L 201.402615 -42.021094 
L 202.453943 -42.021094 
L 203.505271 -42.021094 
L 204.556599 -42.021094 
L 205.607928 -42.021094 
L 206.659256 -42.021094 
L 207.710584 -42.021094 
L 208.761912 -42.021094 
L 209.81324 -42.021094 
L 210.864568 -42.021094 
L 211.915896 -42.021094 
L 212.967225 -42.021094 
L 214.018553 -42.021094 
L 215.069881 -42.021094 
L 216.121209 -42.021094 
L 217.172537 -42.021094 
L 218.223865 -42.021094 
L 219.275193 -42.021094 
L 220.326522 -42.021094 
L 221.37785 -42.021094 
L 222.429178 -42.021094 
L 223.480506 -42.021094 
L 224.531834 -42.021094 
L 225.583162 -42.021094 
L 226.63449 -42.021094 
L 227.685819 -42.021094 
L 228.737147 -42.021094 
L 229.788475 -42.021094 
L 230.839803 -42.021094 
L 231.891131 -42.021094 
L 232.942459 -42.021094 
L 233.993787 -42.021094 
L 235.045116 -42.021094 
L 236.096444 -42.021094 
L 237.147772 -42.021094 
L 238.1991 -42.021094 
L 239.250428 -42.021094 
L 240.301756 -42.021094 
L 241.353084 -42.021094 
L 242.404412 -42.021094 
L 243.455741 -42.021094 
L 244.507069 -42.021094 
L 245.558397 -42.021094 
L 246.609725 -42.021094 
L 247.661053 -42.021094 
L 248.712381 -42.021094 
L 249.763709 -42.021094 
L 250.815038 -42.021094 
L 251.866366 -42.021094 
L 252.917694 -42.021094 
L 253.969022 -42.021094 
L 255.02035 -42.021094 
L 256.071678 -42.021094 
L 257.123006 -42.021094 
L 258.174335 -42.021094 
L 259.225663 -42.021094 
L 260.276991 -42.021094 
L 261.328319 -42.021094 
L 262.379647 -42.021094 
L 263.430975 -42.021094 
L 264.482303 -42.021094 
L 265.533632 -42.021094 
L 266.58496 -42.021094 
L 267.636288 -42.021094 
L 268.687616 -42.021094 
L 269.738944 -42.021094 
L 270.790272 -42.021094 
L 271.8416 -42.021094 
L 272.892929 -42.021094 
L 273.944257 -42.021094 
L 274.995585 -42.021094 
L 276.046913 -42.021094 
L 277.098241 -42.021094 
L 278.149569 -42.021094 
L 279.200897 -42.021094 
L 280.252225 -42.021094 
L 281.303554 -42.021094 
L 282.354882 -42.021094 
L 283.40621 -42.021094 
L 284.457538 -42.021094 
L 285.508866 -42.021094 
L 286.560194 -42.021094 
L 287.611522 -42.021094 
L 288.662851 -42.021094 
L 289.714179 -42.021094 
L 290.765507 -42.021094 
L 291.816835 -42.021094 
L 292.868163 -42.021094 
L 293.919491 -42.021094 
L 294.970819 -42.021094 
L 296.022148 -42.021094 
L 297.073476 -42.021094 
L 298.124804 -42.021094 
L 299.176132 -42.021094 
L 300.22746 -42.021094 
L 301.278788 -42.021094 
L 302.330116 -42.021094 
L 303.381445 -42.021094 
L 304.432773 -42.021094 
L 305.484101 -42.021094 
L 306.535429 -42.021094 
L 307.586757 -42.021094 
L 308.638085 -42.021094 
L 309.689413 -42.021094 
L 310.740742 -42.021094 
L 311.79207 -42.021094 
L 312.843398 -42.021094 
L 313.894726 -42.021094 
L 314.946054 -42.021094 
L 315.997382 -42.021094 
L 317.04871 -42.021094 
L 318.100038 -42.021094 
L 319.151367 -42.021094 
L 320.202695 -42.021094 
L 321.254023 -42.021094 
L 322.305351 -42.021094 
L 323.356679 -42.021094 
L 324.408007 -42.021094 
L 325.459335 -42.021094 
L 326.510664 -42.021094 
L 327.561992 -42.021094 
L 328.61332 -42.021094 
L 329.664648 -42.021094 
L 330.715976 -42.021094 
L 331.767304 -42.021094 
L 332.818632 -42.021094 
L 333.869961 -42.021094 
L 334.921289 -42.021094 
L 335.972617 -42.021094 
L 337.023945 -42.021094 
L 338.075273 -42.021094 
L 339.126601 -42.021094 
L 340.177929 -42.021094 
L 341.229258 -42.021094 
L 342.280586 -42.021094 
L 343.331914 -42.021094 
L 344.383242 -42.021094 
L 345.43457 -42.021094 
L 346.485898 -42.021094 
L 347.537226 -42.021094 
L 348.588555 -42.021094 
L 349.639883 -42.021094 
L 350.691211 -42.021094 
L 350.691211 -42.043213 
L 350.691211 -42.043213 
L 349.639883 -42.052724 
L 348.588555 -42.065671 
L 347.537226 -42.083013 
L 346.485898 -42.105871 
L 345.43457 -42.135512 
L 344.383242 -42.173331 
L 343.331914 -42.220805 
L 342.280586 -42.27944 
L 341.229258 -42.350703 
L 340.177929 -42.435937 
L 339.126601 -42.53629 
L 338.075273 -42.652637 
L 337.023945 -42.785538 
L 335.972617 -42.935215 
L 334.921289 -43.101579 
L 333.869961 -43.284311 
L 332.818632 -43.482984 
L 331.767304 -43.697243 
L 330.715976 -43.92701 
L 329.664648 -44.17271 
L 328.61332 -44.435481 
L 327.561992 -44.717356 
L 326.510664 -45.021381 
L 325.459335 -45.351669 
L 324.408007 -45.713382 
L 323.356679 -46.112648 
L 322.305351 -46.556463 
L 321.254023 -47.052594 
L 320.202695 -47.609549 
L 319.151367 -48.236644 
L 318.100038 -48.944203 
L 317.04871 -49.743884 
L 315.997382 -50.649093 
L 314.946054 -51.675416 
L 313.894726 -52.84096 
L 312.843398 -54.166454 
L 311.79207 -55.67498 
L 310.740742 -57.391222 
L 309.689413 -59.340148 
L 308.638085 -61.545149 
L 307.586757 -64.02575 
L 306.535429 -66.795082 
L 305.484101 -69.857446 
L 304.432773 -73.206309 
L 303.381445 -76.823132 
L 302.330116 -80.677344 
L 301.278788 -84.727693 
L 300.22746 -88.925008 
L 299.176132 -93.216237 
L 298.124804 -97.549362 
L 297.073476 -101.878636 
L 296.022148 -106.169436 
L 294.970819 -110.40201 
L 293.919491 -114.573452 
L 292.868163 -118.697448 
L 291.816835 -122.801631 
L 290.765507 -126.922719 
L 289.714179 -131.100003 
L 288.662851 -135.36803 
L 287.611522 -139.749553 
L 286.560194 -144.24986 
L 285.508866 -148.853459 
L 284.457538 -153.523804 
L 283.40621 -158.206297 
L 282.354882 -162.834295 
L 281.303554 -167.337341 
L 280.252225 -171.650429 
L 279.200897 -175.722855 
L 278.149569 -179.525197 
L 277.098241 -183.053187 
L 276.046913 -186.327646 
L 274.995585 -189.390302 
L 273.944257 -192.295916 
L 272.892929 -195.101819 
L 271.8416 -197.8564 
L 270.790272 -200.58836 
L 269.738944 -203.298487 
L 268.687616 -205.955399 
L 267.636288 -208.496108 
L 266.58496 -210.831534 
L 265.533632 -212.856326 
L 264.482303 -214.461645 
L 263.430975 -215.54907 
L 262.379647 -216.043584 
L 261.328319 -215.90369 
L 260.276991 -215.127154 
L 259.225663 -213.751502 
L 258.174335 -211.849216 
L 257.123006 -209.518374 
L 256.071678 -206.870162 
L 255.02035 -204.015133 
L 253.969022 -201.050255 
L 252.917694 -198.048587 
L 251.866366 -195.053011 
L 250.815038 -192.074737 
L 249.763709 -189.096574 
L 248.712381 -186.080205 
L 247.661053 -182.97613 
L 246.609725 -179.7346 
L 245.558397 -176.315772 
L 244.507069 -172.697551 
L 243.455741 -168.88002 
L 242.404412 -164.885965 
L 241.353084 -160.75763 
L 240.301756 -156.550454 
L 239.250428 -152.324947 
L 238.1991 -148.138119 
L 237.147772 -144.035832 
L 236.096444 -140.04725 
L 235.045116 -136.182139 
L 233.993787 -132.431271 
L 232.942459 -128.769718 
L 231.891131 -125.162338 
L 230.839803 -121.57052 
L 229.788475 -117.959072 
L 228.737147 -114.302242 
L 227.685819 -110.588032 
L 226.63449 -106.820317 
L 225.583162 -103.018624 
L 224.531834 -99.215805 
L 223.480506 -95.454094 
L 222.429178 -91.780273 
L 221.37785 -88.240666 
L 220.326522 -84.876676 
L 219.275193 -81.721386 
L 218.223865 -78.797541 
L 217.172537 -76.116975 
L 216.121209 -73.681346 
L 215.069881 -71.483854 
L 214.018553 -69.511532 
L 212.967225 -67.74768 
L 211.915896 -66.174079 
L 210.864568 -64.77269 
L 209.81324 -63.526729 
L 208.761912 -62.421098 
L 207.710584 -61.442283 
L 206.659256 -60.57792 
L 205.607928 -59.816228 
L 204.556599 -59.145516 
L 203.505271 -58.553919 
L 202.453943 -58.029413 
L 201.402615 -57.560136 
L 200.351287 -57.134906 
L 199.299959 -56.743831 
L 198.248631 -56.37886 
L 197.197302 -56.034143 
L 196.145974 -55.706114 
L 195.094646 -55.393262 
L 194.043318 -55.095599 
L 192.99199 -54.813938 
L 191.940662 -54.549074 
L 190.889334 -54.301017 
L 189.838006 -54.068412 
L 188.786677 -53.848229 
L 187.735349 -53.635791 
L 186.684021 -53.425115 
L 185.632693 -53.209517 
L 184.581365 -52.982378 
L 183.530037 -52.737939 
L 182.478709 -52.472003 
L 181.42738 -52.182426 
L 180.376052 -51.869325 
L 179.324724 -51.534983 
L 178.273396 -51.183454 
L 177.222068 -50.819958 
L 176.17074 -50.45014 
L 175.119412 -50.07932 
L 174.068083 -49.711837 
L 173.016755 -49.350578 
L 171.965427 -48.996747 
L 170.914099 -48.649899 
L 169.862771 -48.308206 
L 168.811443 -47.968919 
L 167.760115 -47.628927 
L 166.708786 -47.285351 
L 165.657458 -46.93607 
L 164.60613 -46.580127 
L 163.554802 -46.217956 
L 162.503474 -45.851428 
L 161.452146 -45.483711 
L 160.400818 -45.118992 
L 159.349489 -44.762087 
L 158.298161 -44.418019 
L 157.246833 -44.091593 
L 156.195505 -43.787028 
L 155.144177 -43.507683 
L 154.092849 -43.255875 
L 153.041521 -43.032816 
L 151.990193 -42.838645 
L 150.938864 -42.672537 
L 149.887536 -42.532879 
L 148.836208 -42.417462 
L 147.78488 -42.323695 
L 146.733552 -42.248799 
L 145.682224 -42.189974 
L 144.630896 -42.144537 
L 143.579567 -42.110019 
L 142.528239 -42.084224 
L 141.476911 -42.06526 
z
" id="mabfcf54b0f" style="stroke:#8172b3;"/>
    </defs>
    <g clip-path="url(#p9c102c3885)">
     <use style="fill:#8172b3;fill-opacity:0.25;stroke:#8172b3;" x="0" xlink:href="#mabfcf54b0f" y="390.116719"/>
    </g>
   </g>
   <g id="PolyCollection_2">
    <defs>
     <path d="M 128.604874 -42.045459 
L 128.604874 -42.021094 
L 130.259703 -42.021094 
L 131.914531 -42.021094 
L 133.56936 -42.021094 
L 135.224188 -42.021094 
L 136.879017 -42.021094 
L 138.533845 -42.021094 
L 140.188674 -42.021094 
L 141.843502 -42.021094 
L 143.498331 -42.021094 
L 145.153159 -42.021094 
L 146.807988 -42.021094 
L 148.462816 -42.021094 
L 150.117645 -42.021094 
L 151.772473 -42.021094 
L 153.427302 -42.021094 
L 155.08213 -42.021094 
L 156.736959 -42.021094 
L 158.391787 -42.021094 
L 160.046616 -42.021094 
L 161.701444 -42.021094 
L 163.356272 -42.021094 
L 165.011101 -42.021094 
L 166.665929 -42.021094 
L 168.320758 -42.021094 
L 169.975586 -42.021094 
L 171.630415 -42.021094 
L 173.285243 -42.021094 
L 174.940072 -42.021094 
L 176.5949 -42.021094 
L 178.249729 -42.021094 
L 179.904557 -42.021094 
L 181.559386 -42.021094 
L 183.214214 -42.021094 
L 184.869043 -42.021094 
L 186.523871 -42.021094 
L 188.1787 -42.021094 
L 189.833528 -42.021094 
L 191.488357 -42.021094 
L 193.143185 -42.021094 
L 194.798014 -42.021094 
L 196.452842 -42.021094 
L 198.107671 -42.021094 
L 199.762499 -42.021094 
L 201.417328 -42.021094 
L 203.072156 -42.021094 
L 204.726984 -42.021094 
L 206.381813 -42.021094 
L 208.036641 -42.021094 
L 209.69147 -42.021094 
L 211.346298 -42.021094 
L 213.001127 -42.021094 
L 214.655955 -42.021094 
L 216.310784 -42.021094 
L 217.965612 -42.021094 
L 219.620441 -42.021094 
L 221.275269 -42.021094 
L 222.930098 -42.021094 
L 224.584926 -42.021094 
L 226.239755 -42.021094 
L 227.894583 -42.021094 
L 229.549412 -42.021094 
L 231.20424 -42.021094 
L 232.859069 -42.021094 
L 234.513897 -42.021094 
L 236.168726 -42.021094 
L 237.823554 -42.021094 
L 239.478383 -42.021094 
L 241.133211 -42.021094 
L 242.78804 -42.021094 
L 244.442868 -42.021094 
L 246.097696 -42.021094 
L 247.752525 -42.021094 
L 249.407353 -42.021094 
L 251.062182 -42.021094 
L 252.71701 -42.021094 
L 254.371839 -42.021094 
L 256.026667 -42.021094 
L 257.681496 -42.021094 
L 259.336324 -42.021094 
L 260.991153 -42.021094 
L 262.645981 -42.021094 
L 264.30081 -42.021094 
L 265.955638 -42.021094 
L 267.610467 -42.021094 
L 269.265295 -42.021094 
L 270.920124 -42.021094 
L 272.574952 -42.021094 
L 274.229781 -42.021094 
L 275.884609 -42.021094 
L 277.539438 -42.021094 
L 279.194266 -42.021094 
L 280.849095 -42.021094 
L 282.503923 -42.021094 
L 284.158752 -42.021094 
L 285.81358 -42.021094 
L 287.468408 -42.021094 
L 289.123237 -42.021094 
L 290.778065 -42.021094 
L 292.432894 -42.021094 
L 294.087722 -42.021094 
L 295.742551 -42.021094 
L 297.397379 -42.021094 
L 299.052208 -42.021094 
L 300.707036 -42.021094 
L 302.361865 -42.021094 
L 304.016693 -42.021094 
L 305.671522 -42.021094 
L 307.32635 -42.021094 
L 308.981179 -42.021094 
L 310.636007 -42.021094 
L 312.290836 -42.021094 
L 313.945664 -42.021094 
L 315.600493 -42.021094 
L 317.255321 -42.021094 
L 318.91015 -42.021094 
L 320.564978 -42.021094 
L 322.219807 -42.021094 
L 323.874635 -42.021094 
L 325.529464 -42.021094 
L 327.184292 -42.021094 
L 328.83912 -42.021094 
L 330.493949 -42.021094 
L 332.148777 -42.021094 
L 333.803606 -42.021094 
L 335.458434 -42.021094 
L 337.113263 -42.021094 
L 338.768091 -42.021094 
L 340.42292 -42.021094 
L 342.077748 -42.021094 
L 343.732577 -42.021094 
L 345.387405 -42.021094 
L 347.042234 -42.021094 
L 348.697062 -42.021094 
L 350.351891 -42.021094 
L 352.006719 -42.021094 
L 353.661548 -42.021094 
L 355.316376 -42.021094 
L 356.971205 -42.021094 
L 358.626033 -42.021094 
L 360.280862 -42.021094 
L 361.93569 -42.021094 
L 363.590519 -42.021094 
L 365.245347 -42.021094 
L 366.900176 -42.021094 
L 368.555004 -42.021094 
L 370.209832 -42.021094 
L 371.864661 -42.021094 
L 373.519489 -42.021094 
L 375.174318 -42.021094 
L 376.829146 -42.021094 
L 378.483975 -42.021094 
L 380.138803 -42.021094 
L 381.793632 -42.021094 
L 383.44846 -42.021094 
L 385.103289 -42.021094 
L 386.758117 -42.021094 
L 388.412946 -42.021094 
L 390.067774 -42.021094 
L 391.722603 -42.021094 
L 393.377431 -42.021094 
L 395.03226 -42.021094 
L 396.687088 -42.021094 
L 398.341917 -42.021094 
L 399.996745 -42.021094 
L 401.651574 -42.021094 
L 403.306402 -42.021094 
L 404.961231 -42.021094 
L 406.616059 -42.021094 
L 408.270888 -42.021094 
L 409.925716 -42.021094 
L 411.580545 -42.021094 
L 413.235373 -42.021094 
L 414.890201 -42.021094 
L 416.54503 -42.021094 
L 418.199858 -42.021094 
L 419.854687 -42.021094 
L 421.509515 -42.021094 
L 423.164344 -42.021094 
L 424.819172 -42.021094 
L 426.474001 -42.021094 
L 428.128829 -42.021094 
L 429.783658 -42.021094 
L 431.438486 -42.021094 
L 433.093315 -42.021094 
L 434.748143 -42.021094 
L 436.402972 -42.021094 
L 438.0578 -42.021094 
L 439.712629 -42.021094 
L 441.367457 -42.021094 
L 443.022286 -42.021094 
L 444.677114 -42.021094 
L 446.331943 -42.021094 
L 447.986771 -42.021094 
L 449.6416 -42.021094 
L 451.296428 -42.021094 
L 452.951257 -42.021094 
L 454.606085 -42.021094 
L 456.260913 -42.021094 
L 457.915742 -42.021094 
L 457.915742 -42.064595 
L 457.915742 -42.064595 
L 456.260913 -42.079309 
L 454.606085 -42.098462 
L 452.951257 -42.12321 
L 451.296428 -42.154954 
L 449.6416 -42.195377 
L 447.986771 -42.246479 
L 446.331943 -42.310614 
L 444.677114 -42.390522 
L 443.022286 -42.489362 
L 441.367457 -42.610736 
L 439.712629 -42.758696 
L 438.0578 -42.937751 
L 436.402972 -43.152849 
L 434.748143 -43.409341 
L 433.093315 -43.712923 
L 431.438486 -44.069553 
L 429.783658 -44.485338 
L 428.128829 -44.966389 
L 426.474001 -45.518655 
L 424.819172 -46.147723 
L 423.164344 -46.858595 
L 421.509515 -47.655446 
L 419.854687 -48.541375 
L 418.199858 -49.518153 
L 416.54503 -50.58598 
L 414.890201 -51.743272 
L 413.235373 -52.986477 
L 411.580545 -54.309953 
L 409.925716 -55.705899 
L 408.270888 -57.164373 
L 406.616059 -58.673382 
L 404.961231 -60.219067 
L 403.306402 -61.785976 
L 401.651574 -63.357408 
L 399.996745 -64.91584 
L 398.341917 -66.443406 
L 396.687088 -67.922406 
L 395.03226 -69.335835 
L 393.377431 -70.667895 
L 391.722603 -71.904473 
L 390.067774 -73.033559 
L 388.412946 -74.045571 
L 386.758117 -74.933602 
L 385.103289 -75.693537 
L 383.44846 -76.324075 
L 381.793632 -76.82663 
L 380.138803 -77.205144 
L 378.483975 -77.4658 
L 376.829146 -77.616689 
L 375.174318 -77.66742 
L 373.519489 -77.62872 
L 371.864661 -77.512038 
L 370.209832 -77.329169 
L 368.555004 -77.091932 
L 366.900176 -76.811886 
L 365.245347 -76.500122 
L 363.590519 -76.167106 
L 361.93569 -75.82258 
L 360.280862 -75.47552 
L 358.626033 -75.134121 
L 356.971205 -74.80582 
L 355.316376 -74.497324 
L 353.661548 -74.214643 
L 352.006719 -73.963124 
L 350.351891 -73.747471 
L 348.697062 -73.571747 
L 347.042234 -73.439381 
L 345.387405 -73.353156 
L 343.732577 -73.315204 
L 342.077748 -73.327009 
L 340.42292 -73.389431 
L 338.768091 -73.502742 
L 337.113263 -73.666696 
L 335.458434 -73.880626 
L 333.803606 -74.143563 
L 332.148777 -74.454379 
L 330.493949 -74.811935 
L 328.83912 -75.215237 
L 327.184292 -75.663586 
L 325.529464 -76.156692 
L 323.874635 -76.694779 
L 322.219807 -77.278631 
L 320.564978 -77.909608 
L 318.91015 -78.589611 
L 317.255321 -79.321004 
L 315.600493 -80.106497 
L 313.945664 -80.948999 
L 312.290836 -81.851455 
L 310.636007 -82.816668 
L 308.981179 -83.847135 
L 307.32635 -84.944888 
L 305.671522 -86.111371 
L 304.016693 -87.347341 
L 302.361865 -88.652815 
L 300.707036 -90.027041 
L 299.052208 -91.468519 
L 297.397379 -92.975043 
L 295.742551 -94.543762 
L 294.087722 -96.171264 
L 292.432894 -97.853643 
L 290.778065 -99.586578 
L 289.123237 -101.365367 
L 287.468408 -103.184959 
L 285.81358 -105.039928 
L 284.158752 -106.924424 
L 282.503923 -108.832085 
L 280.849095 -110.755911 
L 279.194266 -112.688116 
L 277.539438 -114.61996 
L 275.884609 -116.541585 
L 274.229781 -118.441855 
L 272.574952 -120.308228 
L 270.920124 -122.126669 
L 269.265295 -123.881625 
L 267.610467 -125.556069 
L 265.955638 -127.131627 
L 264.30081 -128.588795 
L 262.645981 -129.907248 
L 260.991153 -131.066227 
L 259.336324 -132.045013 
L 257.681496 -132.823458 
L 256.026667 -133.382565 
L 254.371839 -133.705077 
L 252.71701 -133.776075 
L 251.062182 -133.583526 
L 249.407353 -133.118783 
L 247.752525 -132.376987 
L 246.097696 -131.357369 
L 244.442868 -130.063417 
L 242.78804 -128.502915 
L 241.133211 -126.687831 
L 239.478383 -124.634075 
L 237.823554 -122.361124 
L 236.168726 -119.891534 
L 234.513897 -117.250363 
L 232.859069 -114.464529 
L 231.20424 -111.562126 
L 229.549412 -108.571735 
L 227.894583 -105.521749 
L 226.239755 -102.439742 
L 224.584926 -99.3519 
L 222.930098 -96.282536 
L 221.275269 -93.253698 
L 219.620441 -90.284876 
L 217.965612 -87.392813 
L 216.310784 -84.591414 
L 214.655955 -81.89175 
L 213.001127 -79.302149 
L 211.346298 -76.828349 
L 209.69147 -74.473719 
L 208.036641 -72.239519 
L 206.381813 -70.125185 
L 204.726984 -68.128635 
L 203.072156 -66.24657 
L 201.417328 -64.474776 
L 199.762499 -62.808392 
L 198.107671 -61.242171 
L 196.452842 -59.770692 
L 194.798014 -58.388547 
L 193.143185 -57.090492 
L 191.488357 -55.871559 
L 189.833528 -54.72713 
L 188.1787 -53.652989 
L 186.523871 -52.645337 
L 184.869043 -51.700785 
L 183.214214 -50.81633 
L 181.559386 -49.989314 
L 179.904557 -49.217374 
L 178.249729 -48.498385 
L 176.5949 -47.8304 
L 174.940072 -47.211594 
L 173.285243 -46.640212 
L 171.630415 -46.114523 
L 169.975586 -45.632777 
L 168.320758 -45.193178 
L 166.665929 -44.793866 
L 165.011101 -44.432898 
L 163.356272 -44.108253 
L 161.701444 -43.81783 
L 160.046616 -43.559464 
L 158.391787 -43.33094 
L 156.736959 -43.130013 
L 155.08213 -42.954435 
L 153.427302 -42.801972 
L 151.772473 -42.670437 
L 150.117645 -42.557706 
L 148.462816 -42.461741 
L 146.807988 -42.380609 
L 145.153159 -42.312497 
L 143.498331 -42.25572 
L 141.843502 -42.208732 
L 140.188674 -42.17013 
L 138.533845 -42.13865 
L 136.879017 -42.11317 
L 135.224188 -42.092703 
L 133.56936 -42.076387 
L 131.914531 -42.06348 
L 130.259703 -42.053349 
L 128.604874 -42.045459 
z
" id="mc49006ca52" style="stroke:#c44e52;"/>
    </defs>
    <g clip-path="url(#p9c102c3885)">
     <use style="fill:#c44e52;fill-opacity:0.25;stroke:#c44e52;" x="0" xlink:href="#mc49006ca52" y="390.116719"/>
    </g>
   </g>
   <g id="PolyCollection_3">
    <defs>
     <path d="M 83.658395 -42.036734 
L 83.658395 -42.021094 
L 85.52788 -42.021094 
L 87.397366 -42.021094 
L 89.266851 -42.021094 
L 91.136336 -42.021094 
L 93.005822 -42.021094 
L 94.875307 -42.021094 
L 96.744792 -42.021094 
L 98.614277 -42.021094 
L 100.483763 -42.021094 
L 102.353248 -42.021094 
L 104.222733 -42.021094 
L 106.092219 -42.021094 
L 107.961704 -42.021094 
L 109.831189 -42.021094 
L 111.700675 -42.021094 
L 113.57016 -42.021094 
L 115.439645 -42.021094 
L 117.309131 -42.021094 
L 119.178616 -42.021094 
L 121.048101 -42.021094 
L 122.917587 -42.021094 
L 124.787072 -42.021094 
L 126.656557 -42.021094 
L 128.526043 -42.021094 
L 130.395528 -42.021094 
L 132.265013 -42.021094 
L 134.134499 -42.021094 
L 136.003984 -42.021094 
L 137.873469 -42.021094 
L 139.742955 -42.021094 
L 141.61244 -42.021094 
L 143.481925 -42.021094 
L 145.351411 -42.021094 
L 147.220896 -42.021094 
L 149.090381 -42.021094 
L 150.959867 -42.021094 
L 152.829352 -42.021094 
L 154.698837 -42.021094 
L 156.568322 -42.021094 
L 158.437808 -42.021094 
L 160.307293 -42.021094 
L 162.176778 -42.021094 
L 164.046264 -42.021094 
L 165.915749 -42.021094 
L 167.785234 -42.021094 
L 169.65472 -42.021094 
L 171.524205 -42.021094 
L 173.39369 -42.021094 
L 175.263176 -42.021094 
L 177.132661 -42.021094 
L 179.002146 -42.021094 
L 180.871632 -42.021094 
L 182.741117 -42.021094 
L 184.610602 -42.021094 
L 186.480088 -42.021094 
L 188.349573 -42.021094 
L 190.219058 -42.021094 
L 192.088544 -42.021094 
L 193.958029 -42.021094 
L 195.827514 -42.021094 
L 197.697 -42.021094 
L 199.566485 -42.021094 
L 201.43597 -42.021094 
L 203.305456 -42.021094 
L 205.174941 -42.021094 
L 207.044426 -42.021094 
L 208.913912 -42.021094 
L 210.783397 -42.021094 
L 212.652882 -42.021094 
L 214.522368 -42.021094 
L 216.391853 -42.021094 
L 218.261338 -42.021094 
L 220.130823 -42.021094 
L 222.000309 -42.021094 
L 223.869794 -42.021094 
L 225.739279 -42.021094 
L 227.608765 -42.021094 
L 229.47825 -42.021094 
L 231.347735 -42.021094 
L 233.217221 -42.021094 
L 235.086706 -42.021094 
L 236.956191 -42.021094 
L 238.825677 -42.021094 
L 240.695162 -42.021094 
L 242.564647 -42.021094 
L 244.434133 -42.021094 
L 246.303618 -42.021094 
L 248.173103 -42.021094 
L 250.042589 -42.021094 
L 251.912074 -42.021094 
L 253.781559 -42.021094 
L 255.651045 -42.021094 
L 257.52053 -42.021094 
L 259.390015 -42.021094 
L 261.259501 -42.021094 
L 263.128986 -42.021094 
L 264.998471 -42.021094 
L 266.867957 -42.021094 
L 268.737442 -42.021094 
L 270.606927 -42.021094 
L 272.476413 -42.021094 
L 274.345898 -42.021094 
L 276.215383 -42.021094 
L 278.084869 -42.021094 
L 279.954354 -42.021094 
L 281.823839 -42.021094 
L 283.693324 -42.021094 
L 285.56281 -42.021094 
L 287.432295 -42.021094 
L 289.30178 -42.021094 
L 291.171266 -42.021094 
L 293.040751 -42.021094 
L 294.910236 -42.021094 
L 296.779722 -42.021094 
L 298.649207 -42.021094 
L 300.518692 -42.021094 
L 302.388178 -42.021094 
L 304.257663 -42.021094 
L 306.127148 -42.021094 
L 307.996634 -42.021094 
L 309.866119 -42.021094 
L 311.735604 -42.021094 
L 313.60509 -42.021094 
L 315.474575 -42.021094 
L 317.34406 -42.021094 
L 319.213546 -42.021094 
L 321.083031 -42.021094 
L 322.952516 -42.021094 
L 324.822002 -42.021094 
L 326.691487 -42.021094 
L 328.560972 -42.021094 
L 330.430458 -42.021094 
L 332.299943 -42.021094 
L 334.169428 -42.021094 
L 336.038914 -42.021094 
L 337.908399 -42.021094 
L 339.777884 -42.021094 
L 341.64737 -42.021094 
L 343.516855 -42.021094 
L 345.38634 -42.021094 
L 347.255825 -42.021094 
L 349.125311 -42.021094 
L 350.994796 -42.021094 
L 352.864281 -42.021094 
L 354.733767 -42.021094 
L 356.603252 -42.021094 
L 358.472737 -42.021094 
L 360.342223 -42.021094 
L 362.211708 -42.021094 
L 364.081193 -42.021094 
L 365.950679 -42.021094 
L 367.820164 -42.021094 
L 369.689649 -42.021094 
L 371.559135 -42.021094 
L 373.42862 -42.021094 
L 375.298105 -42.021094 
L 377.167591 -42.021094 
L 379.037076 -42.021094 
L 380.906561 -42.021094 
L 382.776047 -42.021094 
L 384.645532 -42.021094 
L 386.515017 -42.021094 
L 388.384503 -42.021094 
L 390.253988 -42.021094 
L 392.123473 -42.021094 
L 393.992959 -42.021094 
L 395.862444 -42.021094 
L 397.731929 -42.021094 
L 399.601415 -42.021094 
L 401.4709 -42.021094 
L 403.340385 -42.021094 
L 405.209871 -42.021094 
L 407.079356 -42.021094 
L 408.948841 -42.021094 
L 410.818326 -42.021094 
L 412.687812 -42.021094 
L 414.557297 -42.021094 
L 416.426782 -42.021094 
L 418.296268 -42.021094 
L 420.165753 -42.021094 
L 422.035238 -42.021094 
L 423.904724 -42.021094 
L 425.774209 -42.021094 
L 427.643694 -42.021094 
L 429.51318 -42.021094 
L 431.382665 -42.021094 
L 433.25215 -42.021094 
L 435.121636 -42.021094 
L 436.991121 -42.021094 
L 438.860606 -42.021094 
L 440.730092 -42.021094 
L 442.599577 -42.021094 
L 444.469062 -42.021094 
L 446.338548 -42.021094 
L 448.208033 -42.021094 
L 450.077518 -42.021094 
L 451.947004 -42.021094 
L 453.816489 -42.021094 
L 455.685974 -42.021094 
L 455.685974 -42.05711 
L 455.685974 -42.05711 
L 453.816489 -42.079071 
L 451.947004 -42.112733 
L 450.077518 -42.163425 
L 448.208033 -42.238483 
L 446.338548 -42.347862 
L 444.469062 -42.504857 
L 442.599577 -42.726961 
L 440.730092 -43.036818 
L 438.860606 -43.463227 
L 436.991121 -44.04207 
L 435.121636 -44.817017 
L 433.25215 -45.839755 
L 431.382665 -47.169489 
L 429.51318 -48.871447 
L 427.643694 -51.014185 
L 425.774209 -53.665638 
L 423.904724 -56.888085 
L 422.035238 -60.732426 
L 420.165753 -65.232429 
L 418.296268 -70.399729 
L 416.426782 -76.220373 
L 414.557297 -82.653508 
L 412.687812 -89.63245 
L 410.818326 -97.067915 
L 408.948841 -104.852772 
L 407.079356 -112.867379 
L 405.209871 -120.984588 
L 403.340385 -129.073705 
L 401.4709 -137.00324 
L 399.601415 -144.642761 
L 397.731929 -151.864622 
L 395.862444 -158.546421 
L 393.992959 -164.574856 
L 392.123473 -169.851077 
L 390.253988 -174.296988 
L 388.384503 -177.861426 
L 386.515017 -180.524844 
L 384.645532 -182.301348 
L 382.776047 -183.237413 
L 380.906561 -183.407367 
L 379.037076 -182.906404 
L 377.167591 -181.842346 
L 375.298105 -180.327436 
L 373.42862 -178.471225 
L 371.559135 -176.375104 
L 369.689649 -174.128565 
L 367.820164 -171.806859 
L 365.950679 -169.469596 
L 364.081193 -167.159827 
L 362.211708 -164.903347 
L 360.342223 -162.708132 
L 358.472737 -160.564027 
L 356.603252 -158.44287 
L 354.733767 -156.29933 
L 352.864281 -154.072763 
L 350.994796 -151.690381 
L 349.125311 -149.071983 
L 347.255825 -146.136322 
L 345.38634 -142.808891 
L 343.516855 -139.03052 
L 341.64737 -134.765785 
L 339.777884 -130.009962 
L 337.908399 -124.793228 
L 336.038914 -119.181135 
L 334.169428 -113.270916 
L 332.299943 -107.183972 
L 330.430458 -101.055547 
L 328.560972 -95.023134 
L 326.691487 -89.215314 
L 324.822002 -83.742524 
L 322.952516 -78.690781 
L 321.083031 -74.118757 
L 319.213546 -70.057964 
L 317.34406 -66.515384 
L 315.474575 -63.477596 
L 313.60509 -60.915502 
L 311.735604 -58.788899 
L 309.866119 -57.050438 
L 307.996634 -55.648788 
L 306.127148 -54.531065 
L 304.257663 -53.64471 
L 302.388178 -52.939053 
L 300.518692 -52.366736 
L 298.649207 -51.885108 
L 296.779722 -51.457558 
L 294.910236 -51.054696 
L 293.040751 -50.655202 
L 291.171266 -50.246192 
L 289.30178 -49.82295 
L 287.432295 -49.388009 
L 285.56281 -48.949619 
L 283.693324 -48.519772 
L 281.823839 -48.112002 
L 279.954354 -47.739234 
L 278.084869 -47.411928 
L 276.215383 -47.136727 
L 274.345898 -46.915721 
L 272.476413 -46.746379 
L 270.606927 -46.622085 
L 268.737442 -46.533147 
L 266.867957 -46.46811 
L 264.998471 -46.415176 
L 263.128986 -46.363529 
L 261.259501 -46.304402 
L 259.390015 -46.23178 
L 257.52053 -46.142688 
L 255.651045 -46.037068 
L 253.781559 -45.917319 
L 251.912074 -45.787618 
L 250.042589 -45.653127 
L 248.173103 -45.519225 
L 246.303618 -45.390838 
L 244.434133 -45.271957 
L 242.564647 -45.165341 
L 240.695162 -45.072407 
L 238.825677 -44.993277 
L 236.956191 -44.926933 
L 235.086706 -44.871433 
L 233.217221 -44.824149 
L 231.347735 -44.781995 
L 229.47825 -44.741632 
L 227.608765 -44.699646 
L 225.739279 -44.652709 
L 223.869794 -44.597754 
L 222.000309 -44.532157 
L 220.130823 -44.453962 
L 218.261338 -44.362126 
L 216.391853 -44.256752 
L 214.522368 -44.139295 
L 212.652882 -44.012649 
L 210.783397 -43.881102 
L 208.913912 -43.750097 
L 207.044426 -43.625811 
L 205.174941 -43.514564 
L 203.305456 -43.422129 
L 201.43597 -43.353025 
L 199.566485 -43.309889 
L 197.697 -43.293028 
L 195.827514 -43.300225 
L 193.958029 -43.326843 
L 192.088544 -43.366228 
L 190.219058 -43.410373 
L 188.349573 -43.450758 
L 186.480088 -43.479263 
L 184.610602 -43.489023 
L 182.741117 -43.475131 
L 180.871632 -43.435074 
L 179.002146 -43.368884 
L 177.132661 -43.278965 
L 175.263176 -43.169672 
L 173.39369 -43.0467 
L 171.524205 -42.916377 
L 169.65472 -42.78499 
L 167.785234 -42.658202 
L 165.915749 -42.540644 
L 164.046264 -42.435696 
L 162.176778 -42.345469 
L 160.307293 -42.270943 
L 158.437808 -42.212219 
L 156.568322 -42.168836 
L 154.698837 -42.140096 
L 152.829352 -42.125338 
L 150.959867 -42.12416 
L 149.090381 -42.136524 
L 147.220896 -42.162775 
L 145.351411 -42.203534 
L 143.481925 -42.259507 
L 141.61244 -42.331204 
L 139.742955 -42.418622 
L 137.873469 -42.520914 
L 136.003984 -42.636113 
L 134.134499 -42.760955 
L 132.265013 -42.890846 
L 130.395528 -43.020017 
L 128.526043 -43.141868 
L 126.656557 -43.249479 
L 124.787072 -43.336237 
L 122.917587 -43.396494 
L 121.048101 -43.426175 
L 119.178616 -43.423226 
L 117.309131 -43.387851 
L 115.439645 -43.322487 
L 113.57016 -43.231525 
L 111.700675 -43.120825 
L 109.831189 -42.997089 
L 107.961704 -42.867197 
L 106.092219 -42.737589 
L 104.222733 -42.613771 
L 102.353248 -42.499986 
L 100.483763 -42.399076 
L 98.614277 -42.312514 
L 96.744792 -42.240568 
L 94.875307 -42.182552 
L 93.005822 -42.137119 
L 91.136336 -42.102538 
L 89.266851 -42.076938 
L 87.397366 -42.058498 
L 85.52788 -42.045566 
L 83.658395 -42.036734 
z
" id="m0e83a58f46" style="stroke:#55a868;"/>
    </defs>
    <g clip-path="url(#p9c102c3885)">
     <use style="fill:#55a868;fill-opacity:0.25;stroke:#55a868;" x="0" xlink:href="#m0e83a58f46" y="390.116719"/>
    </g>
   </g>
   <g id="PolyCollection_4">
    <defs>
     <path d="M 258.031187 -42.050461 
L 258.031187 -42.021094 
L 259.175471 -42.021094 
L 260.319754 -42.021094 
L 261.464038 -42.021094 
L 262.608321 -42.021094 
L 263.752604 -42.021094 
L 264.896888 -42.021094 
L 266.041171 -42.021094 
L 267.185455 -42.021094 
L 268.329738 -42.021094 
L 269.474022 -42.021094 
L 270.618305 -42.021094 
L 271.762588 -42.021094 
L 272.906872 -42.021094 
L 274.051155 -42.021094 
L 275.195439 -42.021094 
L 276.339722 -42.021094 
L 277.484005 -42.021094 
L 278.628289 -42.021094 
L 279.772572 -42.021094 
L 280.916856 -42.021094 
L 282.061139 -42.021094 
L 283.205422 -42.021094 
L 284.349706 -42.021094 
L 285.493989 -42.021094 
L 286.638273 -42.021094 
L 287.782556 -42.021094 
L 288.92684 -42.021094 
L 290.071123 -42.021094 
L 291.215406 -42.021094 
L 292.35969 -42.021094 
L 293.503973 -42.021094 
L 294.648257 -42.021094 
L 295.79254 -42.021094 
L 296.936823 -42.021094 
L 298.081107 -42.021094 
L 299.22539 -42.021094 
L 300.369674 -42.021094 
L 301.513957 -42.021094 
L 302.65824 -42.021094 
L 303.802524 -42.021094 
L 304.946807 -42.021094 
L 306.091091 -42.021094 
L 307.235374 -42.021094 
L 308.379658 -42.021094 
L 309.523941 -42.021094 
L 310.668224 -42.021094 
L 311.812508 -42.021094 
L 312.956791 -42.021094 
L 314.101075 -42.021094 
L 315.245358 -42.021094 
L 316.389641 -42.021094 
L 317.533925 -42.021094 
L 318.678208 -42.021094 
L 319.822492 -42.021094 
L 320.966775 -42.021094 
L 322.111058 -42.021094 
L 323.255342 -42.021094 
L 324.399625 -42.021094 
L 325.543909 -42.021094 
L 326.688192 -42.021094 
L 327.832476 -42.021094 
L 328.976759 -42.021094 
L 330.121042 -42.021094 
L 331.265326 -42.021094 
L 332.409609 -42.021094 
L 333.553893 -42.021094 
L 334.698176 -42.021094 
L 335.842459 -42.021094 
L 336.986743 -42.021094 
L 338.131026 -42.021094 
L 339.27531 -42.021094 
L 340.419593 -42.021094 
L 341.563876 -42.021094 
L 342.70816 -42.021094 
L 343.852443 -42.021094 
L 344.996727 -42.021094 
L 346.14101 -42.021094 
L 347.285293 -42.021094 
L 348.429577 -42.021094 
L 349.57386 -42.021094 
L 350.718144 -42.021094 
L 351.862427 -42.021094 
L 353.006711 -42.021094 
L 354.150994 -42.021094 
L 355.295277 -42.021094 
L 356.439561 -42.021094 
L 357.583844 -42.021094 
L 358.728128 -42.021094 
L 359.872411 -42.021094 
L 361.016694 -42.021094 
L 362.160978 -42.021094 
L 363.305261 -42.021094 
L 364.449545 -42.021094 
L 365.593828 -42.021094 
L 366.738111 -42.021094 
L 367.882395 -42.021094 
L 369.026678 -42.021094 
L 370.170962 -42.021094 
L 371.315245 -42.021094 
L 372.459529 -42.021094 
L 373.603812 -42.021094 
L 374.748095 -42.021094 
L 375.892379 -42.021094 
L 377.036662 -42.021094 
L 378.180946 -42.021094 
L 379.325229 -42.021094 
L 380.469512 -42.021094 
L 381.613796 -42.021094 
L 382.758079 -42.021094 
L 383.902363 -42.021094 
L 385.046646 -42.021094 
L 386.190929 -42.021094 
L 387.335213 -42.021094 
L 388.479496 -42.021094 
L 389.62378 -42.021094 
L 390.768063 -42.021094 
L 391.912347 -42.021094 
L 393.05663 -42.021094 
L 394.200913 -42.021094 
L 395.345197 -42.021094 
L 396.48948 -42.021094 
L 397.633764 -42.021094 
L 398.778047 -42.021094 
L 399.92233 -42.021094 
L 401.066614 -42.021094 
L 402.210897 -42.021094 
L 403.355181 -42.021094 
L 404.499464 -42.021094 
L 405.643747 -42.021094 
L 406.788031 -42.021094 
L 407.932314 -42.021094 
L 409.076598 -42.021094 
L 410.220881 -42.021094 
L 411.365165 -42.021094 
L 412.509448 -42.021094 
L 413.653731 -42.021094 
L 414.798015 -42.021094 
L 415.942298 -42.021094 
L 417.086582 -42.021094 
L 418.230865 -42.021094 
L 419.375148 -42.021094 
L 420.519432 -42.021094 
L 421.663715 -42.021094 
L 422.807999 -42.021094 
L 423.952282 -42.021094 
L 425.096565 -42.021094 
L 426.240849 -42.021094 
L 427.385132 -42.021094 
L 428.529416 -42.021094 
L 429.673699 -42.021094 
L 430.817983 -42.021094 
L 431.962266 -42.021094 
L 433.106549 -42.021094 
L 434.250833 -42.021094 
L 435.395116 -42.021094 
L 436.5394 -42.021094 
L 437.683683 -42.021094 
L 438.827966 -42.021094 
L 439.97225 -42.021094 
L 441.116533 -42.021094 
L 442.260817 -42.021094 
L 443.4051 -42.021094 
L 444.549383 -42.021094 
L 445.693667 -42.021094 
L 446.83795 -42.021094 
L 447.982234 -42.021094 
L 449.126517 -42.021094 
L 450.2708 -42.021094 
L 451.415084 -42.021094 
L 452.559367 -42.021094 
L 453.703651 -42.021094 
L 454.847934 -42.021094 
L 455.992218 -42.021094 
L 457.136501 -42.021094 
L 458.280784 -42.021094 
L 459.425068 -42.021094 
L 460.569351 -42.021094 
L 461.713635 -42.021094 
L 462.857918 -42.021094 
L 464.002201 -42.021094 
L 465.146485 -42.021094 
L 466.290768 -42.021094 
L 467.435052 -42.021094 
L 468.579335 -42.021094 
L 469.723618 -42.021094 
L 470.867902 -42.021094 
L 472.012185 -42.021094 
L 473.156469 -42.021094 
L 474.300752 -42.021094 
L 475.445036 -42.021094 
L 476.589319 -42.021094 
L 477.733602 -42.021094 
L 478.877886 -42.021094 
L 480.022169 -42.021094 
L 481.166453 -42.021094 
L 482.310736 -42.021094 
L 483.455019 -42.021094 
L 484.599303 -42.021094 
L 485.743586 -42.021094 
L 485.743586 -42.608484 
L 485.743586 -42.608484 
L 484.599303 -43.001799 
L 483.455019 -43.608565 
L 482.310736 -44.512439 
L 481.166453 -45.81189 
L 480.022169 -47.613614 
L 478.877886 -50.020978 
L 477.733602 -53.117622 
L 476.589319 -56.947695 
L 475.445036 -61.495805 
L 474.300752 -66.671137 
L 473.156469 -72.30093 
L 472.012185 -78.13793 
L 470.867902 -83.884508 
L 469.723618 -89.232743 
L 468.579335 -93.9157 
L 467.435052 -97.761218 
L 466.290768 -100.736997 
L 465.146485 -102.975511 
L 464.002201 -104.769841 
L 462.857918 -106.536673 
L 461.713635 -108.749562 
L 460.569351 -111.852723 
L 459.425068 -116.171461 
L 458.280784 -121.838321 
L 457.136501 -128.753173 
L 455.992218 -136.590409 
L 454.847934 -144.857738 
L 453.703651 -153.00018 
L 452.559367 -160.53193 
L 451.415084 -167.170086 
L 450.2708 -172.94023 
L 449.126517 -178.225935 
L 447.982234 -183.74281 
L 446.83795 -190.431671 
L 445.693667 -199.282381 
L 444.549383 -211.116552 
L 443.4051 -226.369911 
L 442.260817 -244.920477 
L 441.116533 -266.004592 
L 439.97225 -288.249039 
L 438.827966 -309.825742 
L 437.683683 -328.709988 
L 436.5394 -342.999186 
L 435.395116 -351.232778 
L 434.250833 -352.649665 
L 433.106549 -347.329416 
L 431.962266 -336.185932 
L 430.817983 -320.81244 
L 429.673699 -303.207481 
L 428.529416 -285.43582 
L 427.385132 -269.2904 
L 426.240849 -256.019141 
L 425.096565 -246.164832 
L 423.952282 -239.541578 
L 422.807999 -235.343244 
L 421.663715 -232.354011 
L 420.519432 -229.213706 
L 419.375148 -224.683746 
L 418.230865 -217.864118 
L 417.086582 -208.325848 
L 415.942298 -196.143361 
L 414.798015 -181.832285 
L 413.653731 -166.216043 
L 412.509448 -150.255566 
L 411.365165 -134.879021 
L 410.220881 -120.842999 
L 409.076598 -108.645604 
L 407.932314 -98.498367 
L 406.788031 -90.351395 
L 405.643747 -83.957027 
L 404.499464 -78.952853 
L 403.355181 -74.945195 
L 402.210897 -71.578042 
L 401.066614 -68.578354 
L 399.92233 -65.775065 
L 398.778047 -63.094583 
L 397.633764 -60.539328 
L 396.48948 -58.157519 
L 395.345197 -56.012161 
L 394.200913 -54.15546 
L 393.05663 -52.612405 
L 391.912347 -51.374604 
L 390.768063 -50.40318 
L 389.62378 -49.638066 
L 388.479496 -49.010352 
L 387.335213 -48.454492 
L 386.190929 -47.917905 
L 385.046646 -47.366578 
L 383.902363 -46.786339 
L 382.758079 -46.180431 
L 381.613796 -45.564597 
L 380.469512 -44.961117 
L 379.325229 -44.393127 
L 378.180946 -43.880182 
L 377.036662 -43.435564 
L 375.892379 -43.065349 
L 374.748095 -42.768936 
L 373.603812 -42.540515 
L 372.459529 -42.370942 
L 371.315245 -42.249577 
L 370.170962 -42.165777 
L 369.026678 -42.109924 
L 367.882395 -42.07397 
L 366.738111 -42.05161 
L 365.593828 -42.038168 
L 364.449545 -42.030356 
L 363.305261 -42.025965 
L 362.160978 -42.023578 
L 361.016694 -42.022322 
L 359.872411 -42.021683 
L 358.728128 -42.02137 
L 357.583844 -42.021224 
L 356.439561 -42.021165 
L 355.295277 -42.021158 
L 354.150994 -42.021196 
L 353.006711 -42.021301 
L 351.862427 -42.021526 
L 350.718144 -42.02198 
L 349.57386 -42.022857 
L 348.429577 -42.024497 
L 347.285293 -42.027463 
L 346.14101 -42.032649 
L 344.996727 -42.041419 
L 343.852443 -42.055753 
L 342.70816 -42.078393 
L 341.563876 -42.112932 
L 340.419593 -42.163802 
L 339.27531 -42.236084 
L 338.131026 -42.335098 
L 336.986743 -42.465721 
L 335.842459 -42.631478 
L 334.698176 -42.833467 
L 333.553893 -43.069318 
L 332.409609 -43.332383 
L 331.265326 -43.611428 
L 330.121042 -43.891019 
L 328.976759 -44.152693 
L 327.832476 -44.376863 
L 326.688192 -44.545189 
L 325.543909 -44.643044 
L 324.399625 -44.66161 
L 323.255342 -44.599189 
L 322.111058 -44.461459 
L 320.966775 -44.260622 
L 319.822492 -44.013619 
L 318.678208 -43.739781 
L 317.533925 -43.458355 
L 316.389641 -43.186347 
L 315.245358 -42.936999 
L 314.101075 -42.719048 
L 312.956791 -42.536737 
L 311.812508 -42.390428 
L 310.668224 -42.277566 
L 309.523941 -42.193767 
L 308.379658 -42.13382 
L 307.235374 -42.09248 
L 306.091091 -42.065011 
L 304.946807 -42.047477 
L 303.802524 -42.03685 
L 302.65824 -42.030992 
L 301.513957 -42.028577 
L 300.369674 -42.029019 
L 299.22539 -42.032427 
L 298.081107 -42.039615 
L 296.936823 -42.052157 
L 295.79254 -42.072466 
L 294.648257 -42.103861 
L 293.503973 -42.150549 
L 292.35969 -42.217471 
L 291.215406 -42.309932 
L 290.071123 -42.432978 
L 288.92684 -42.59053 
L 287.782556 -42.784335 
L 286.638273 -43.012894 
L 285.493989 -43.270584 
L 284.349706 -43.547209 
L 283.205422 -43.828216 
L 282.061139 -44.095688 
L 280.916856 -44.330099 
L 279.772572 -44.512601 
L 278.628289 -44.627519 
L 277.484005 -44.664562 
L 276.339722 -44.620347 
L 275.195439 -44.498909 
L 274.051155 -44.311091 
L 272.906872 -44.072949 
L 271.762588 -43.80349 
L 270.618305 -43.522186 
L 269.474022 -43.246716 
L 268.329738 -42.991271 
L 267.185455 -42.76564 
L 266.041171 -42.575053 
L 264.896888 -42.420679 
L 263.752604 -42.300533 
L 262.608321 -42.210551 
L 261.464038 -42.145626 
L 260.319754 -42.100453 
L 259.175471 -42.070123 
L 258.031187 -42.050461 
z
" id="m23c140cdf6" style="stroke:#dd8452;"/>
    </defs>
    <g clip-path="url(#p9c102c3885)">
     <use style="fill:#dd8452;fill-opacity:0.25;stroke:#dd8452;" x="0" xlink:href="#m23c140cdf6" y="390.116719"/>
    </g>
   </g>
   <g id="PolyCollection_5">
    <defs>
     <path d="M 413.073668 -42.053516 
L 413.073668 -42.021094 
L 414.477246 -42.021094 
L 415.880824 -42.021094 
L 417.284402 -42.021094 
L 418.687979 -42.021094 
L 420.091557 -42.021094 
L 421.495135 -42.021094 
L 422.898713 -42.021094 
L 424.302291 -42.021094 
L 425.705869 -42.021094 
L 427.109447 -42.021094 
L 428.513025 -42.021094 
L 429.916603 -42.021094 
L 431.32018 -42.021094 
L 432.723758 -42.021094 
L 434.127336 -42.021094 
L 435.530914 -42.021094 
L 436.934492 -42.021094 
L 438.33807 -42.021094 
L 439.741648 -42.021094 
L 441.145226 -42.021094 
L 442.548804 -42.021094 
L 443.952381 -42.021094 
L 445.355959 -42.021094 
L 446.759537 -42.021094 
L 448.163115 -42.021094 
L 449.566693 -42.021094 
L 450.970271 -42.021094 
L 452.373849 -42.021094 
L 453.777427 -42.021094 
L 455.181005 -42.021094 
L 456.584582 -42.021094 
L 457.98816 -42.021094 
L 459.391738 -42.021094 
L 460.795316 -42.021094 
L 462.198894 -42.021094 
L 463.602472 -42.021094 
L 465.00605 -42.021094 
L 466.409628 -42.021094 
L 467.813206 -42.021094 
L 469.216783 -42.021094 
L 470.620361 -42.021094 
L 472.023939 -42.021094 
L 473.427517 -42.021094 
L 474.831095 -42.021094 
L 476.234673 -42.021094 
L 477.638251 -42.021094 
L 479.041829 -42.021094 
L 480.445407 -42.021094 
L 481.848984 -42.021094 
L 483.252562 -42.021094 
L 484.65614 -42.021094 
L 486.059718 -42.021094 
L 487.463296 -42.021094 
L 488.866874 -42.021094 
L 490.270452 -42.021094 
L 491.67403 -42.021094 
L 493.077608 -42.021094 
L 494.481185 -42.021094 
L 495.884763 -42.021094 
L 497.288341 -42.021094 
L 498.691919 -42.021094 
L 500.095497 -42.021094 
L 501.499075 -42.021094 
L 502.902653 -42.021094 
L 504.306231 -42.021094 
L 505.709809 -42.021094 
L 507.113386 -42.021094 
L 508.516964 -42.021094 
L 509.920542 -42.021094 
L 511.32412 -42.021094 
L 512.727698 -42.021094 
L 514.131276 -42.021094 
L 515.534854 -42.021094 
L 516.938432 -42.021094 
L 518.34201 -42.021094 
L 519.745587 -42.021094 
L 521.149165 -42.021094 
L 522.552743 -42.021094 
L 523.956321 -42.021094 
L 525.359899 -42.021094 
L 526.763477 -42.021094 
L 528.167055 -42.021094 
L 529.570633 -42.021094 
L 530.974211 -42.021094 
L 532.377788 -42.021094 
L 533.781366 -42.021094 
L 535.184944 -42.021094 
L 536.588522 -42.021094 
L 537.9921 -42.021094 
L 539.395678 -42.021094 
L 540.799256 -42.021094 
L 542.202834 -42.021094 
L 543.606411 -42.021094 
L 545.009989 -42.021094 
L 546.413567 -42.021094 
L 547.817145 -42.021094 
L 549.220723 -42.021094 
L 550.624301 -42.021094 
L 552.027879 -42.021094 
L 553.431457 -42.021094 
L 554.835035 -42.021094 
L 556.238612 -42.021094 
L 557.64219 -42.021094 
L 559.045768 -42.021094 
L 560.449346 -42.021094 
L 561.852924 -42.021094 
L 563.256502 -42.021094 
L 564.66008 -42.021094 
L 566.063658 -42.021094 
L 567.467236 -42.021094 
L 568.870813 -42.021094 
L 570.274391 -42.021094 
L 571.677969 -42.021094 
L 573.081547 -42.021094 
L 574.485125 -42.021094 
L 575.888703 -42.021094 
L 577.292281 -42.021094 
L 578.695859 -42.021094 
L 580.099437 -42.021094 
L 581.503014 -42.021094 
L 582.906592 -42.021094 
L 584.31017 -42.021094 
L 585.713748 -42.021094 
L 587.117326 -42.021094 
L 588.520904 -42.021094 
L 589.924482 -42.021094 
L 591.32806 -42.021094 
L 592.731638 -42.021094 
L 594.135215 -42.021094 
L 595.538793 -42.021094 
L 596.942371 -42.021094 
L 598.345949 -42.021094 
L 599.749527 -42.021094 
L 601.153105 -42.021094 
L 602.556683 -42.021094 
L 603.960261 -42.021094 
L 605.363839 -42.021094 
L 606.767416 -42.021094 
L 608.170994 -42.021094 
L 609.574572 -42.021094 
L 610.97815 -42.021094 
L 612.381728 -42.021094 
L 613.785306 -42.021094 
L 615.188884 -42.021094 
L 616.592462 -42.021094 
L 617.99604 -42.021094 
L 619.399617 -42.021094 
L 620.803195 -42.021094 
L 622.206773 -42.021094 
L 623.610351 -42.021094 
L 625.013929 -42.021094 
L 626.417507 -42.021094 
L 627.821085 -42.021094 
L 629.224663 -42.021094 
L 630.628241 -42.021094 
L 632.031818 -42.021094 
L 633.435396 -42.021094 
L 634.838974 -42.021094 
L 636.242552 -42.021094 
L 637.64613 -42.021094 
L 639.049708 -42.021094 
L 640.453286 -42.021094 
L 641.856864 -42.021094 
L 643.260442 -42.021094 
L 644.664019 -42.021094 
L 646.067597 -42.021094 
L 647.471175 -42.021094 
L 648.874753 -42.021094 
L 650.278331 -42.021094 
L 651.681909 -42.021094 
L 653.085487 -42.021094 
L 654.489065 -42.021094 
L 655.892643 -42.021094 
L 657.29622 -42.021094 
L 658.699798 -42.021094 
L 660.103376 -42.021094 
L 661.506954 -42.021094 
L 662.910532 -42.021094 
L 664.31411 -42.021094 
L 665.717688 -42.021094 
L 667.121266 -42.021094 
L 668.524844 -42.021094 
L 669.928421 -42.021094 
L 671.331999 -42.021094 
L 672.735577 -42.021094 
L 674.139155 -42.021094 
L 675.542733 -42.021094 
L 676.946311 -42.021094 
L 678.349889 -42.021094 
L 679.753467 -42.021094 
L 681.157045 -42.021094 
L 682.560622 -42.021094 
L 683.9642 -42.021094 
L 685.367778 -42.021094 
L 686.771356 -42.021094 
L 688.174934 -42.021094 
L 689.578512 -42.021094 
L 690.98209 -42.021094 
L 692.385668 -42.021094 
L 692.385668 -42.118992 
L 692.385668 -42.118992 
L 690.98209 -42.146946 
L 689.578512 -42.18202 
L 688.174934 -42.225779 
L 686.771356 -42.280069 
L 685.367778 -42.347048 
L 683.9642 -42.429221 
L 682.560622 -42.529476 
L 681.157045 -42.651115 
L 679.753467 -42.797882 
L 678.349889 -42.97399 
L 676.946311 -43.184139 
L 675.542733 -43.433522 
L 674.139155 -43.727827 
L 672.735577 -44.073218 
L 671.331999 -44.476308 
L 669.928421 -44.944102 
L 668.524844 -45.483933 
L 667.121266 -46.103366 
L 665.717688 -46.810078 
L 664.31411 -47.611722 
L 662.910532 -48.51575 
L 661.506954 -49.529231 
L 660.103376 -50.658631 
L 658.699798 -51.909585 
L 657.29622 -53.286648 
L 655.892643 -54.793045 
L 654.489065 -56.43042 
L 653.085487 -58.198589 
L 651.681909 -60.095317 
L 650.278331 -62.11613 
L 648.874753 -64.254155 
L 647.471175 -66.500024 
L 646.067597 -68.841837 
L 644.664019 -71.265196 
L 643.260442 -73.753318 
L 641.856864 -76.287234 
L 640.453286 -78.846068 
L 639.049708 -81.407412 
L 637.64613 -83.947765 
L 636.242552 -86.443054 
L 634.838974 -88.869207 
L 633.435396 -91.202762 
L 632.031818 -93.421511 
L 630.628241 -95.505129 
L 629.224663 -97.435788 
L 627.821085 -99.198721 
L 626.417507 -100.782722 
L 625.013929 -102.18054 
L 623.610351 -103.38918 
L 622.206773 -104.410064 
L 620.803195 -105.249057 
L 619.399617 -105.916357 
L 617.99604 -106.426226 
L 616.592462 -106.796591 
L 615.188884 -107.048508 
L 613.785306 -107.205514 
L 612.381728 -107.292876 
L 610.97815 -107.336773 
L 609.574572 -107.363425 
L 608.170994 -107.398207 
L 606.767416 -107.46477 
L 605.363839 -107.584207 
L 603.960261 -107.774287 
L 602.556683 -108.048782 
L 601.153105 -108.416918 
L 599.749527 -108.882964 
L 598.345949 -109.445985 
L 596.942371 -110.099751 
L 595.538793 -110.832831 
L 594.135215 -111.628853 
L 592.731638 -112.466936 
L 591.32806 -113.322275 
L 589.924482 -114.166862 
L 588.520904 -114.970326 
L 587.117326 -115.70086 
L 585.713748 -116.326201 
L 584.31017 -116.814642 
L 582.906592 -117.136025 
L 581.503014 -117.262695 
L 580.099437 -117.170383 
L 578.695859 -116.838969 
L 577.292281 -116.253123 
L 575.888703 -115.402797 
L 574.485125 -114.283539 
L 573.081547 -112.896644 
L 571.677969 -111.24913 
L 570.274391 -109.35354 
L 568.870813 -107.227595 
L 567.467236 -104.893712 
L 566.063658 -102.378406 
L 564.66008 -99.711607 
L 563.256502 -96.925919 
L 561.852924 -94.055858 
L 560.449346 -91.137077 
L 559.045768 -88.205636 
L 557.64219 -85.297304 
L 556.238612 -82.446949 
L 554.835035 -79.688001 
L 553.431457 -77.05201 
L 552.027879 -74.568305 
L 550.624301 -72.263747 
L 549.220723 -70.162575 
L 547.817145 -68.286332 
L 546.413567 -66.653863 
L 545.009989 -65.28136 
L 543.606411 -64.182453 
L 542.202834 -63.368315 
L 540.799256 -62.847778 
L 539.395678 -62.627436 
L 537.9921 -62.711721 
L 536.588522 -63.102955 
L 535.184944 -63.801354 
L 533.781366 -64.804994 
L 532.377788 -66.109731 
L 530.974211 -67.709082 
L 529.570633 -69.594077 
L 528.167055 -71.753084 
L 526.763477 -74.17163 
L 525.359899 -76.832224 
L 523.956321 -79.714214 
L 522.552743 -82.793672 
L 521.149165 -86.043347 
L 519.745587 -89.432692 
L 518.34201 -92.927977 
L 516.938432 -96.492503 
L 515.534854 -100.086927 
L 514.131276 -103.669691 
L 512.727698 -107.197565 
L 511.32412 -110.626287 
L 509.920542 -113.911291 
L 508.516964 -117.008505 
L 507.113386 -119.875202 
L 505.709809 -122.470859 
L 504.306231 -124.758026 
L 502.902653 -126.703147 
L 501.499075 -128.27732 
L 500.095497 -129.456957 
L 498.691919 -130.224337 
L 497.288341 -130.568002 
L 495.884763 -130.483011 
L 494.481185 -129.971015 
L 493.077608 -129.040178 
L 491.67403 -127.704917 
L 490.270452 -125.985491 
L 488.866874 -123.907455 
L 487.463296 -121.500986 
L 486.059718 -118.80012 
L 484.65614 -115.841914 
L 483.252562 -112.665578 
L 481.848984 -109.311592 
L 480.445407 -105.820838 
L 479.041829 -102.233782 
L 477.638251 -98.589714 
L 476.234673 -94.926077 
L 474.831095 -91.277886 
L 473.427517 -87.677261 
L 472.023939 -84.15306 
L 470.620361 -80.730632 
L 469.216783 -77.431672 
L 467.813206 -74.274175 
L 466.409628 -71.272481 
L 465.00605 -68.437404 
L 463.602472 -65.776415 
L 462.198894 -63.293893 
L 460.795316 -60.991402 
L 459.391738 -58.868006 
L 457.98816 -56.920588 
L 456.584582 -55.144187 
L 455.181005 -53.532312 
L 453.777427 -52.077266 
L 452.373849 -50.770431 
L 450.970271 -49.60254 
L 449.566693 -48.563925 
L 448.163115 -47.644729 
L 446.759537 -46.835093 
L 445.355959 -46.125315 
L 443.952381 -45.505979 
L 442.548804 -44.968059 
L 441.145226 -44.502998 
L 439.741648 -44.102762 
L 438.33807 -43.759881 
L 436.934492 -43.467468 
L 435.530914 -43.219222 
L 434.127336 -43.009426 
L 432.723758 -42.832925 
L 431.32018 -42.68511 
L 429.916603 -42.56188 
L 428.513025 -42.459615 
L 427.109447 -42.375136 
L 425.705869 -42.305673 
L 424.302291 -42.24882 
L 422.898713 -42.202506 
L 421.495135 -42.164955 
L 420.091557 -42.134652 
L 418.687979 -42.110317 
L 417.284402 -42.090867 
L 415.880824 -42.075399 
L 414.477246 -42.063157 
L 413.073668 -42.053516 
z
" id="me99718f7b1" style="stroke:#4c72b0;"/>
    </defs>
    <g clip-path="url(#p9c102c3885)">
     <use style="fill:#4c72b0;fill-opacity:0.25;stroke:#4c72b0;" x="0" xlink:href="#me99718f7b1" y="390.116719"/>
    </g>
   </g>
   <g id="patch_3">
    <path d="M 53.222031 348.095625 
L 53.222031 21.935625 
" style="fill:none;stroke:#ffffff;stroke-linecap:square;stroke-linejoin:miter;stroke-width:1.25;"/>
   </g>
   <g id="patch_4">
    <path d="M 722.822031 348.095625 
L 722.822031 21.935625 
" style="fill:none;stroke:#ffffff;stroke-linecap:square;stroke-linejoin:miter;stroke-width:1.25;"/>
   </g>
   <g id="patch_5">
    <path d="M 53.222031 348.095625 
L 722.822031 348.095625 
" style="fill:none;stroke:#ffffff;stroke-linecap:square;stroke-linejoin:miter;stroke-width:1.25;"/>
   </g>
   <g id="patch_6">
    <path d="M 53.222031 21.935625 
L 722.822031 21.935625 
" style="fill:none;stroke:#ffffff;stroke-linecap:square;stroke-linejoin:miter;stroke-width:1.25;"/>
   </g>
   <g id="text_17">
    <!-- Density Estimation of RSSI Values at Different Distances -->
    <g style="fill:#262626;" transform="translate(237.512031 15.935625)scale(0.12 -0.12)">
     <defs>
      <path d="M 8.6875 0 
L 8.6875 45.015625 
L 0.921875 45.015625 
L 0.921875 51.859375 
L 8.6875 51.859375 
L 8.6875 57.375 
Q 8.6875 62.59375 9.625 65.140625 
Q 10.890625 68.5625 14.078125 70.671875 
Q 17.28125 72.796875 23.046875 72.796875 
Q 26.765625 72.796875 31.25 71.921875 
L 29.9375 64.265625 
Q 27.203125 64.75 24.75 64.75 
Q 20.75 64.75 19.09375 63.03125 
Q 17.4375 61.328125 17.4375 56.640625 
L 17.4375 51.859375 
L 27.546875 51.859375 
L 27.546875 45.015625 
L 17.4375 45.015625 
L 17.4375 0 
z
" id="ArialMT-102"/>
      <path d="M 40.4375 19 
L 49.078125 17.875 
Q 47.65625 8.9375 41.8125 3.875 
Q 35.984375 -1.171875 27.484375 -1.171875 
Q 16.84375 -1.171875 10.375 5.78125 
Q 3.90625 12.75 3.90625 25.734375 
Q 3.90625 34.125 6.6875 40.421875 
Q 9.46875 46.734375 15.15625 49.875 
Q 20.84375 53.03125 27.546875 53.03125 
Q 35.984375 53.03125 41.359375 48.75 
Q 46.734375 44.484375 48.25 36.625 
L 39.703125 35.296875 
Q 38.484375 40.53125 35.375 43.15625 
Q 32.28125 45.796875 27.875 45.796875 
Q 21.234375 45.796875 17.078125 41.03125 
Q 12.9375 36.28125 12.9375 25.984375 
Q 12.9375 15.53125 16.9375 10.796875 
Q 20.953125 6.0625 27.390625 6.0625 
Q 32.5625 6.0625 36.03125 9.234375 
Q 39.5 12.40625 40.4375 19 
z
" id="ArialMT-99"/>
     </defs>
     <use xlink:href="#ArialMT-68"/>
     <use x="72.216797" xlink:href="#ArialMT-101"/>
     <use x="127.832031" xlink:href="#ArialMT-110"/>
     <use x="183.447266" xlink:href="#ArialMT-115"/>
     <use x="233.447266" xlink:href="#ArialMT-105"/>
     <use x="255.664062" xlink:href="#ArialMT-116"/>
     <use x="283.447266" xlink:href="#ArialMT-121"/>
     <use x="333.447266" xlink:href="#ArialMT-32"/>
     <use x="361.230469" xlink:href="#ArialMT-69"/>
     <use x="427.929688" xlink:href="#ArialMT-115"/>
     <use x="477.929688" xlink:href="#ArialMT-116"/>
     <use x="505.712891" xlink:href="#ArialMT-105"/>
     <use x="527.929688" xlink:href="#ArialMT-109"/>
     <use x="611.230469" xlink:href="#ArialMT-97"/>
     <use x="666.845703" xlink:href="#ArialMT-116"/>
     <use x="694.628906" xlink:href="#ArialMT-105"/>
     <use x="716.845703" xlink:href="#ArialMT-111"/>
     <use x="772.460938" xlink:href="#ArialMT-110"/>
     <use x="828.076172" xlink:href="#ArialMT-32"/>
     <use x="855.859375" xlink:href="#ArialMT-111"/>
     <use x="911.474609" xlink:href="#ArialMT-102"/>
     <use x="939.257812" xlink:href="#ArialMT-32"/>
     <use x="967.041016" xlink:href="#ArialMT-82"/>
     <use x="1039.257812" xlink:href="#ArialMT-83"/>
     <use x="1105.957031" xlink:href="#ArialMT-83"/>
     <use x="1172.65625" xlink:href="#ArialMT-73"/>
     <use x="1200.439453" xlink:href="#ArialMT-32"/>
     <use x="1228.222656" xlink:href="#ArialMT-86"/>
     <use x="1287.546875" xlink:href="#ArialMT-97"/>
     <use x="1343.162109" xlink:href="#ArialMT-108"/>
     <use x="1365.378906" xlink:href="#ArialMT-117"/>
     <use x="1420.994141" xlink:href="#ArialMT-101"/>
     <use x="1476.609375" xlink:href="#ArialMT-115"/>
     <use x="1526.609375" xlink:href="#ArialMT-32"/>
     <use x="1554.392578" xlink:href="#ArialMT-97"/>
     <use x="1610.007812" xlink:href="#ArialMT-116"/>
     <use x="1637.791016" xlink:href="#ArialMT-32"/>
     <use x="1665.574219" xlink:href="#ArialMT-68"/>
     <use x="1737.791016" xlink:href="#ArialMT-105"/>
     <use x="1760.007812" xlink:href="#ArialMT-102"/>
     <use x="1786.041016" xlink:href="#ArialMT-102"/>
     <use x="1813.824219" xlink:href="#ArialMT-101"/>
     <use x="1869.439453" xlink:href="#ArialMT-114"/>
     <use x="1902.740234" xlink:href="#ArialMT-101"/>
     <use x="1958.355469" xlink:href="#ArialMT-110"/>
     <use x="2013.970703" xlink:href="#ArialMT-116"/>
     <use x="2041.753906" xlink:href="#ArialMT-32"/>
     <use x="2069.537109" xlink:href="#ArialMT-68"/>
     <use x="2141.753906" xlink:href="#ArialMT-105"/>
     <use x="2163.970703" xlink:href="#ArialMT-115"/>
     <use x="2213.970703" xlink:href="#ArialMT-116"/>
     <use x="2241.753906" xlink:href="#ArialMT-97"/>
     <use x="2297.369141" xlink:href="#ArialMT-110"/>
     <use x="2352.984375" xlink:href="#ArialMT-99"/>
     <use x="2402.984375" xlink:href="#ArialMT-101"/>
     <use x="2458.599609" xlink:href="#ArialMT-115"/>
    </g>
   </g>
   <g id="legend_1">
    <g id="patch_7">
     <path d="M 655.469375 108.534844 
L 715.122031 108.534844 
Q 717.322031 108.534844 717.322031 106.334844 
L 717.322031 29.635625 
Q 717.322031 27.435625 715.122031 27.435625 
L 655.469375 27.435625 
Q 653.269375 27.435625 653.269375 29.635625 
L 653.269375 106.334844 
Q 653.269375 108.534844 655.469375 108.534844 
z
" style="fill:#eaeaf2;opacity:0.8;stroke:#cccccc;stroke-linejoin:miter;"/>
    </g>
    <g id="patch_8">
     <path d="M 657.669375 39.709219 
L 679.669375 39.709219 
L 679.669375 32.009219 
L 657.669375 32.009219 
z
" style="fill:#4c72b0;fill-opacity:0.25;stroke:#4c72b0;stroke-linejoin:miter;"/>
    </g>
    <g id="text_18">
     <!-- 0.5m -->
     <g style="fill:#262626;" transform="translate(688.469375 39.709219)scale(0.11 -0.11)">
      <use xlink:href="#ArialMT-48"/>
      <use x="55.615234" xlink:href="#ArialMT-46"/>
      <use x="83.398438" xlink:href="#ArialMT-53"/>
      <use x="139.013672" xlink:href="#ArialMT-109"/>
     </g>
    </g>
    <g id="patch_9">
     <path d="M 657.669375 55.269063 
L 679.669375 55.269063 
L 679.669375 47.569063 
L 657.669375 47.569063 
z
" style="fill:#dd8452;fill-opacity:0.25;stroke:#dd8452;stroke-linejoin:miter;"/>
    </g>
    <g id="text_19">
     <!-- 1.0m -->
     <g style="fill:#262626;" transform="translate(688.469375 55.269063)scale(0.11 -0.11)">
      <use xlink:href="#ArialMT-49"/>
      <use x="55.615234" xlink:href="#ArialMT-46"/>
      <use x="83.398438" xlink:href="#ArialMT-48"/>
      <use x="139.013672" xlink:href="#ArialMT-109"/>
     </g>
    </g>
    <g id="patch_10">
     <path d="M 657.669375 70.828906 
L 679.669375 70.828906 
L 679.669375 63.128906 
L 657.669375 63.128906 
z
" style="fill:#55a868;fill-opacity:0.25;stroke:#55a868;stroke-linejoin:miter;"/>
    </g>
    <g id="text_20">
     <!-- 1.5m -->
     <g style="fill:#262626;" transform="translate(688.469375 70.828906)scale(0.11 -0.11)">
      <use xlink:href="#ArialMT-49"/>
      <use x="55.615234" xlink:href="#ArialMT-46"/>
      <use x="83.398438" xlink:href="#ArialMT-53"/>
      <use x="139.013672" xlink:href="#ArialMT-109"/>
     </g>
    </g>
    <g id="patch_11">
     <path d="M 657.669375 86.38875 
L 679.669375 86.38875 
L 679.669375 78.68875 
L 657.669375 78.68875 
z
" style="fill:#c44e52;fill-opacity:0.25;stroke:#c44e52;stroke-linejoin:miter;"/>
    </g>
    <g id="text_21">
     <!-- 2.0m -->
     <g style="fill:#262626;" transform="translate(688.469375 86.38875)scale(0.11 -0.11)">
      <use xlink:href="#ArialMT-50"/>
      <use x="55.615234" xlink:href="#ArialMT-46"/>
      <use x="83.398438" xlink:href="#ArialMT-48"/>
      <use x="139.013672" xlink:href="#ArialMT-109"/>
     </g>
    </g>
    <g id="patch_12">
     <path d="M 657.669375 101.948594 
L 679.669375 101.948594 
L 679.669375 94.248594 
L 657.669375 94.248594 
z
" style="fill:#8172b3;fill-opacity:0.25;stroke:#8172b3;stroke-linejoin:miter;"/>
    </g>
    <g id="text_22">
     <!-- 2.5m -->
     <g style="fill:#262626;" transform="translate(688.469375 101.948594)scale(0.11 -0.11)">
      <use xlink:href="#ArialMT-50"/>
      <use x="55.615234" xlink:href="#ArialMT-46"/>
      <use x="83.398438" xlink:href="#ArialMT-53"/>
      <use x="139.013672" xlink:href="#ArialMT-109"/>
     </g>
    </g>
   </g>
  </g>
 </g>
 <defs>
  <clipPath id="p9c102c3885">
   <rect height="326.16" width="669.6" x="53.222031" y="21.935625"/>
  </clipPath>
 </defs>
</svg>
