<?xml version="1.0" encoding="utf-8" standalone="no"?>
<!DOCTYPE svg PUBLIC "-//W3C//DTD SVG 1.1//EN"
  "http://www.w3.org/Graphics/SVG/1.1/DTD/svg11.dtd">
<!-- Created with matplotlib (https://matplotlib.org/) -->
<svg height="390.116719pt" version="1.1" viewBox="0 0 730.022031 390.116719" width="730.022031pt" xmlns="http://www.w3.org/2000/svg" xmlns:xlink="http://www.w3.org/1999/xlink">
 <metadata>
  <rdf:RDF xmlns:cc="http://creativecommons.org/ns#" xmlns:dc="http://purl.org/dc/elements/1.1/" xmlns:rdf="http://www.w3.org/1999/02/22-rdf-syntax-ns#">
   <cc:Work>
    <dc:type rdf:resource="http://purl.org/dc/dcmitype/StillImage"/>
    <dc:date>2021-02-08T00:07:59.875730</dc:date>
    <dc:format>image/svg+xml</dc:format>
    <dc:creator>
     <cc:Agent>
      <dc:title>Matplotlib v3.3.2, https://matplotlib.org/</dc:title>
     </cc:Agent>
    </dc:creator>
   </cc:Work>
  </rdf:RDF>
 </metadata>
 <defs>
  <style type="text/css">*{stroke-linecap:butt;stroke-linejoin:round;}</style>
 </defs>
 <g id="figure_1">
  <g id="patch_1">
   <path d="M 0 390.116719 
L 730.022031 390.116719 
L 730.022031 0 
L 0 0 
z
" style="fill:#ffffff;"/>
  </g>
  <g id="axes_1">
   <g id="patch_2">
    <path d="M 53.222031 348.095625 
L 722.822031 348.095625 
L 722.822031 21.935625 
L 53.222031 21.935625 
z
" style="fill:#eaeaf2;"/>
   </g>
   <g id="matplotlib.axis_1">
    <g id="xtick_1">
     <g id="line2d_1">
      <path clip-path="url(#p4c9b257acc)" d="M 93.99257 348.095625 
L 93.99257 21.935625 
" style="fill:none;stroke:#ffffff;stroke-linecap:round;"/>
     </g>
     <g id="text_1">
      <!-- −100 -->
      <g style="fill:#262626;" transform="translate(81.604679 365.469219)scale(0.11 -0.11)">
       <defs>
        <path d="M 52.828125 31.203125 
L 5.5625 31.203125 
L 5.5625 39.40625 
L 52.828125 39.40625 
z
" id="ArialMT-8722"/>
        <path d="M 37.25 0 
L 28.46875 0 
L 28.46875 56 
Q 25.296875 52.984375 20.140625 49.953125 
Q 14.984375 46.921875 10.890625 45.40625 
L 10.890625 53.90625 
Q 18.265625 57.375 23.78125 62.296875 
Q 29.296875 67.234375 31.59375 71.875 
L 37.25 71.875 
z
" id="ArialMT-49"/>
        <path d="M 4.15625 35.296875 
Q 4.15625 48 6.765625 55.734375 
Q 9.375 63.484375 14.515625 67.671875 
Q 19.671875 71.875 27.484375 71.875 
Q 33.25 71.875 37.59375 69.546875 
Q 41.9375 67.234375 44.765625 62.859375 
Q 47.609375 58.5 49.21875 52.21875 
Q 50.828125 45.953125 50.828125 35.296875 
Q 50.828125 22.703125 48.234375 14.96875 
Q 45.65625 7.234375 40.5 3 
Q 35.359375 -1.21875 27.484375 -1.21875 
Q 17.140625 -1.21875 11.234375 6.203125 
Q 4.15625 15.140625 4.15625 35.296875 
z
M 13.1875 35.296875 
Q 13.1875 17.671875 17.3125 11.828125 
Q 21.4375 6 27.484375 6 
Q 33.546875 6 37.671875 11.859375 
Q 41.796875 17.71875 41.796875 35.296875 
Q 41.796875 52.984375 37.671875 58.78125 
Q 33.546875 64.59375 27.390625 64.59375 
Q 21.34375 64.59375 17.71875 59.46875 
Q 13.1875 52.9375 13.1875 35.296875 
z
" id="ArialMT-48"/>
       </defs>
       <use xlink:href="#ArialMT-8722"/>
       <use x="58.398438" xlink:href="#ArialMT-49"/>
       <use x="114.013672" xlink:href="#ArialMT-48"/>
       <use x="169.628906" xlink:href="#ArialMT-48"/>
      </g>
     </g>
    </g>
    <g id="xtick_2">
     <g id="line2d_2">
      <path clip-path="url(#p4c9b257acc)" d="M 228.042452 348.095625 
L 228.042452 21.935625 
" style="fill:none;stroke:#ffffff;stroke-linecap:round;"/>
     </g>
     <g id="text_2">
      <!-- −95 -->
      <g style="fill:#262626;" transform="translate(218.713077 365.469219)scale(0.11 -0.11)">
       <defs>
        <path d="M 5.46875 16.546875 
L 13.921875 17.328125 
Q 14.984375 11.375 18.015625 8.6875 
Q 21.046875 6 25.78125 6 
Q 29.828125 6 32.875 7.859375 
Q 35.9375 9.71875 37.890625 12.8125 
Q 39.84375 15.921875 41.15625 21.1875 
Q 42.484375 26.46875 42.484375 31.9375 
Q 42.484375 32.515625 42.4375 33.6875 
Q 39.796875 29.5 35.234375 26.875 
Q 30.671875 24.265625 25.34375 24.265625 
Q 16.453125 24.265625 10.296875 30.703125 
Q 4.15625 37.15625 4.15625 47.703125 
Q 4.15625 58.59375 10.578125 65.234375 
Q 17 71.875 26.65625 71.875 
Q 33.640625 71.875 39.421875 68.109375 
Q 45.21875 64.359375 48.21875 57.390625 
Q 51.21875 50.4375 51.21875 37.25 
Q 51.21875 23.53125 48.234375 15.40625 
Q 45.265625 7.28125 39.375 3.03125 
Q 33.5 -1.21875 25.59375 -1.21875 
Q 17.1875 -1.21875 11.859375 3.4375 
Q 6.546875 8.109375 5.46875 16.546875 
z
M 41.453125 48.140625 
Q 41.453125 55.71875 37.421875 60.15625 
Q 33.40625 64.59375 27.734375 64.59375 
Q 21.875 64.59375 17.53125 59.8125 
Q 13.1875 55.03125 13.1875 47.40625 
Q 13.1875 40.578125 17.3125 36.296875 
Q 21.4375 32.03125 27.484375 32.03125 
Q 33.59375 32.03125 37.515625 36.296875 
Q 41.453125 40.578125 41.453125 48.140625 
z
" id="ArialMT-57"/>
        <path d="M 4.15625 18.75 
L 13.375 19.53125 
Q 14.40625 12.796875 18.140625 9.390625 
Q 21.875 6 27.15625 6 
Q 33.5 6 37.890625 10.78125 
Q 42.28125 15.578125 42.28125 23.484375 
Q 42.28125 31 38.0625 35.34375 
Q 33.84375 39.703125 27 39.703125 
Q 22.75 39.703125 19.328125 37.765625 
Q 15.921875 35.84375 13.96875 32.765625 
L 5.71875 33.84375 
L 12.640625 70.609375 
L 48.25 70.609375 
L 48.25 62.203125 
L 19.671875 62.203125 
L 15.828125 42.96875 
Q 22.265625 47.46875 29.34375 47.46875 
Q 38.71875 47.46875 45.15625 40.96875 
Q 51.609375 34.46875 51.609375 24.265625 
Q 51.609375 14.546875 45.953125 7.46875 
Q 39.0625 -1.21875 27.15625 -1.21875 
Q 17.390625 -1.21875 11.203125 4.25 
Q 5.03125 9.71875 4.15625 18.75 
z
" id="ArialMT-53"/>
       </defs>
       <use xlink:href="#ArialMT-8722"/>
       <use x="58.398438" xlink:href="#ArialMT-57"/>
       <use x="114.013672" xlink:href="#ArialMT-53"/>
      </g>
     </g>
    </g>
    <g id="xtick_3">
     <g id="line2d_3">
      <path clip-path="url(#p4c9b257acc)" d="M 362.092333 348.095625 
L 362.092333 21.935625 
" style="fill:none;stroke:#ffffff;stroke-linecap:round;"/>
     </g>
     <g id="text_3">
      <!-- −90 -->
      <g style="fill:#262626;" transform="translate(352.762958 365.469219)scale(0.11 -0.11)">
       <use xlink:href="#ArialMT-8722"/>
       <use x="58.398438" xlink:href="#ArialMT-57"/>
       <use x="114.013672" xlink:href="#ArialMT-48"/>
      </g>
     </g>
    </g>
    <g id="xtick_4">
     <g id="line2d_4">
      <path clip-path="url(#p4c9b257acc)" d="M 496.142215 348.095625 
L 496.142215 21.935625 
" style="fill:none;stroke:#ffffff;stroke-linecap:round;"/>
     </g>
     <g id="text_4">
      <!-- −85 -->
      <g style="fill:#262626;" transform="translate(486.81284 365.469219)scale(0.11 -0.11)">
       <defs>
        <path d="M 17.671875 38.8125 
Q 12.203125 40.828125 9.5625 44.53125 
Q 6.9375 48.25 6.9375 53.421875 
Q 6.9375 61.234375 12.546875 66.546875 
Q 18.171875 71.875 27.484375 71.875 
Q 36.859375 71.875 42.578125 66.421875 
Q 48.296875 60.984375 48.296875 53.171875 
Q 48.296875 48.1875 45.671875 44.5 
Q 43.0625 40.828125 37.75 38.8125 
Q 44.34375 36.671875 47.78125 31.875 
Q 51.21875 27.09375 51.21875 20.453125 
Q 51.21875 11.28125 44.71875 5.03125 
Q 38.234375 -1.21875 27.640625 -1.21875 
Q 17.046875 -1.21875 10.546875 5.046875 
Q 4.046875 11.328125 4.046875 20.703125 
Q 4.046875 27.6875 7.59375 32.390625 
Q 11.140625 37.109375 17.671875 38.8125 
z
M 15.921875 53.71875 
Q 15.921875 48.640625 19.1875 45.40625 
Q 22.46875 42.1875 27.6875 42.1875 
Q 32.765625 42.1875 36.015625 45.375 
Q 39.265625 48.578125 39.265625 53.21875 
Q 39.265625 58.0625 35.90625 61.359375 
Q 32.5625 64.65625 27.59375 64.65625 
Q 22.5625 64.65625 19.234375 61.421875 
Q 15.921875 58.203125 15.921875 53.71875 
z
M 13.09375 20.65625 
Q 13.09375 16.890625 14.875 13.375 
Q 16.65625 9.859375 20.171875 7.921875 
Q 23.6875 6 27.734375 6 
Q 34.03125 6 38.125 10.046875 
Q 42.234375 14.109375 42.234375 20.359375 
Q 42.234375 26.703125 38.015625 30.859375 
Q 33.796875 35.015625 27.4375 35.015625 
Q 21.234375 35.015625 17.15625 30.90625 
Q 13.09375 26.8125 13.09375 20.65625 
z
" id="ArialMT-56"/>
       </defs>
       <use xlink:href="#ArialMT-8722"/>
       <use x="58.398438" xlink:href="#ArialMT-56"/>
       <use x="114.013672" xlink:href="#ArialMT-53"/>
      </g>
     </g>
    </g>
    <g id="xtick_5">
     <g id="line2d_5">
      <path clip-path="url(#p4c9b257acc)" d="M 630.192097 348.095625 
L 630.192097 21.935625 
" style="fill:none;stroke:#ffffff;stroke-linecap:round;"/>
     </g>
     <g id="text_5">
      <!-- −80 -->
      <g style="fill:#262626;" transform="translate(620.862722 365.469219)scale(0.11 -0.11)">
       <use xlink:href="#ArialMT-8722"/>
       <use x="58.398438" xlink:href="#ArialMT-56"/>
       <use x="114.013672" xlink:href="#ArialMT-48"/>
      </g>
     </g>
    </g>
    <g id="text_6">
     <!-- RSSI Value (Higher Values Stronger) -->
     <g style="fill:#262626;" transform="translate(289.864844 380.391094)scale(0.12 -0.12)">
      <defs>
       <path d="M 7.859375 0 
L 7.859375 71.578125 
L 39.59375 71.578125 
Q 49.171875 71.578125 54.140625 69.640625 
Q 59.125 67.71875 62.109375 62.828125 
Q 65.09375 57.953125 65.09375 52.046875 
Q 65.09375 44.4375 60.15625 39.203125 
Q 55.21875 33.984375 44.921875 32.5625 
Q 48.6875 30.765625 50.640625 29 
Q 54.78125 25.203125 58.5 19.484375 
L 70.953125 0 
L 59.03125 0 
L 49.5625 14.890625 
Q 45.40625 21.34375 42.71875 24.75 
Q 40.046875 28.171875 37.921875 29.53125 
Q 35.796875 30.90625 33.59375 31.453125 
Q 31.984375 31.78125 28.328125 31.78125 
L 17.328125 31.78125 
L 17.328125 0 
z
M 17.328125 39.984375 
L 37.703125 39.984375 
Q 44.1875 39.984375 47.84375 41.328125 
Q 51.515625 42.671875 53.421875 45.625 
Q 55.328125 48.578125 55.328125 52.046875 
Q 55.328125 57.125 51.640625 60.390625 
Q 47.953125 63.671875 39.984375 63.671875 
L 17.328125 63.671875 
z
" id="ArialMT-82"/>
       <path d="M 4.5 23 
L 13.421875 23.78125 
Q 14.0625 18.40625 16.375 14.96875 
Q 18.703125 11.53125 23.578125 9.40625 
Q 28.46875 7.28125 34.578125 7.28125 
Q 39.984375 7.28125 44.140625 8.890625 
Q 48.296875 10.5 50.3125 13.296875 
Q 52.34375 16.109375 52.34375 19.4375 
Q 52.34375 22.796875 50.390625 25.3125 
Q 48.4375 27.828125 43.953125 29.546875 
Q 41.0625 30.671875 31.203125 33.03125 
Q 21.34375 35.40625 17.390625 37.5 
Q 12.25 40.1875 9.734375 44.15625 
Q 7.234375 48.140625 7.234375 53.078125 
Q 7.234375 58.5 10.296875 63.203125 
Q 13.375 67.921875 19.28125 70.359375 
Q 25.203125 72.796875 32.421875 72.796875 
Q 40.375 72.796875 46.453125 70.234375 
Q 52.546875 67.671875 55.8125 62.6875 
Q 59.078125 57.71875 59.328125 51.421875 
L 50.25 50.734375 
Q 49.515625 57.515625 45.28125 60.984375 
Q 41.0625 64.453125 32.8125 64.453125 
Q 24.21875 64.453125 20.28125 61.296875 
Q 16.359375 58.15625 16.359375 53.71875 
Q 16.359375 49.859375 19.140625 47.359375 
Q 21.875 44.875 33.421875 42.265625 
Q 44.96875 39.65625 49.265625 37.703125 
Q 55.515625 34.8125 58.484375 30.390625 
Q 61.46875 25.984375 61.46875 20.21875 
Q 61.46875 14.5 58.203125 9.4375 
Q 54.9375 4.390625 48.796875 1.578125 
Q 42.671875 -1.21875 35.015625 -1.21875 
Q 25.296875 -1.21875 18.71875 1.609375 
Q 12.15625 4.4375 8.421875 10.125 
Q 4.6875 15.828125 4.5 23 
z
" id="ArialMT-83"/>
       <path d="M 9.328125 0 
L 9.328125 71.578125 
L 18.796875 71.578125 
L 18.796875 0 
z
" id="ArialMT-73"/>
       <path id="ArialMT-32"/>
       <path d="M 28.171875 0 
L 0.4375 71.578125 
L 10.6875 71.578125 
L 29.296875 19.578125 
Q 31.546875 13.328125 33.0625 7.859375 
Q 34.71875 13.71875 36.921875 19.578125 
L 56.25 71.578125 
L 65.921875 71.578125 
L 37.890625 0 
z
" id="ArialMT-86"/>
       <path d="M 40.4375 6.390625 
Q 35.546875 2.25 31.03125 0.53125 
Q 26.515625 -1.171875 21.34375 -1.171875 
Q 12.796875 -1.171875 8.203125 3 
Q 3.609375 7.171875 3.609375 13.671875 
Q 3.609375 17.484375 5.34375 20.625 
Q 7.078125 23.78125 9.890625 25.6875 
Q 12.703125 27.59375 16.21875 28.5625 
Q 18.796875 29.25 24.03125 29.890625 
Q 34.671875 31.15625 39.703125 32.90625 
Q 39.75 34.71875 39.75 35.203125 
Q 39.75 40.578125 37.25 42.78125 
Q 33.890625 45.75 27.25 45.75 
Q 21.046875 45.75 18.09375 43.578125 
Q 15.140625 41.40625 13.71875 35.890625 
L 5.125 37.0625 
Q 6.296875 42.578125 8.984375 45.96875 
Q 11.671875 49.359375 16.75 51.1875 
Q 21.828125 53.03125 28.515625 53.03125 
Q 35.15625 53.03125 39.296875 51.46875 
Q 43.453125 49.90625 45.40625 47.53125 
Q 47.359375 45.171875 48.140625 41.546875 
Q 48.578125 39.3125 48.578125 33.453125 
L 48.578125 21.734375 
Q 48.578125 9.46875 49.140625 6.21875 
Q 49.703125 2.984375 51.375 0 
L 42.1875 0 
Q 40.828125 2.734375 40.4375 6.390625 
z
M 39.703125 26.03125 
Q 34.90625 24.078125 25.34375 22.703125 
Q 19.921875 21.921875 17.671875 20.9375 
Q 15.4375 19.96875 14.203125 18.09375 
Q 12.984375 16.21875 12.984375 13.921875 
Q 12.984375 10.40625 15.640625 8.0625 
Q 18.3125 5.71875 23.4375 5.71875 
Q 28.515625 5.71875 32.46875 7.9375 
Q 36.421875 10.15625 38.28125 14.015625 
Q 39.703125 17 39.703125 22.796875 
z
" id="ArialMT-97"/>
       <path d="M 6.390625 0 
L 6.390625 71.578125 
L 15.1875 71.578125 
L 15.1875 0 
z
" id="ArialMT-108"/>
       <path d="M 40.578125 0 
L 40.578125 7.625 
Q 34.515625 -1.171875 24.125 -1.171875 
Q 19.53125 -1.171875 15.546875 0.578125 
Q 11.578125 2.34375 9.640625 5 
Q 7.71875 7.671875 6.9375 11.53125 
Q 6.390625 14.109375 6.390625 19.734375 
L 6.390625 51.859375 
L 15.1875 51.859375 
L 15.1875 23.09375 
Q 15.1875 16.21875 15.71875 13.8125 
Q 16.546875 10.359375 19.234375 8.375 
Q 21.921875 6.390625 25.875 6.390625 
Q 29.828125 6.390625 33.296875 8.421875 
Q 36.765625 10.453125 38.203125 13.9375 
Q 39.65625 17.4375 39.65625 24.078125 
L 39.65625 51.859375 
L 48.4375 51.859375 
L 48.4375 0 
z
" id="ArialMT-117"/>
       <path d="M 42.09375 16.703125 
L 51.171875 15.578125 
Q 49.03125 7.625 43.21875 3.21875 
Q 37.40625 -1.171875 28.375 -1.171875 
Q 17 -1.171875 10.328125 5.828125 
Q 3.65625 12.84375 3.65625 25.484375 
Q 3.65625 38.578125 10.390625 45.796875 
Q 17.140625 53.03125 27.875 53.03125 
Q 38.28125 53.03125 44.875 45.953125 
Q 51.46875 38.875 51.46875 26.03125 
Q 51.46875 25.25 51.421875 23.6875 
L 12.75 23.6875 
Q 13.234375 15.140625 17.578125 10.59375 
Q 21.921875 6.0625 28.421875 6.0625 
Q 33.25 6.0625 36.671875 8.59375 
Q 40.09375 11.140625 42.09375 16.703125 
z
M 13.234375 30.90625 
L 42.1875 30.90625 
Q 41.609375 37.453125 38.875 40.71875 
Q 34.671875 45.796875 27.984375 45.796875 
Q 21.921875 45.796875 17.796875 41.75 
Q 13.671875 37.703125 13.234375 30.90625 
z
" id="ArialMT-101"/>
       <path d="M 23.390625 -21.046875 
Q 16.109375 -11.859375 11.078125 0.4375 
Q 6.0625 12.75 6.0625 25.921875 
Q 6.0625 37.546875 9.8125 48.1875 
Q 14.203125 60.546875 23.390625 72.796875 
L 29.6875 72.796875 
Q 23.78125 62.640625 21.875 58.296875 
Q 18.890625 51.5625 17.1875 44.234375 
Q 15.09375 35.109375 15.09375 25.875 
Q 15.09375 2.390625 29.6875 -21.046875 
z
" id="ArialMT-40"/>
       <path d="M 8.015625 0 
L 8.015625 71.578125 
L 17.484375 71.578125 
L 17.484375 42.1875 
L 54.6875 42.1875 
L 54.6875 71.578125 
L 64.15625 71.578125 
L 64.15625 0 
L 54.6875 0 
L 54.6875 33.734375 
L 17.484375 33.734375 
L 17.484375 0 
z
" id="ArialMT-72"/>
       <path d="M 6.640625 61.46875 
L 6.640625 71.578125 
L 15.4375 71.578125 
L 15.4375 61.46875 
z
M 6.640625 0 
L 6.640625 51.859375 
L 15.4375 51.859375 
L 15.4375 0 
z
" id="ArialMT-105"/>
       <path d="M 4.984375 -4.296875 
L 13.53125 -5.5625 
Q 14.0625 -9.515625 16.5 -11.328125 
Q 19.78125 -13.765625 25.4375 -13.765625 
Q 31.546875 -13.765625 34.859375 -11.328125 
Q 38.1875 -8.890625 39.359375 -4.5 
Q 40.046875 -1.8125 39.984375 6.78125 
Q 34.234375 0 25.640625 0 
Q 14.9375 0 9.078125 7.71875 
Q 3.21875 15.4375 3.21875 26.21875 
Q 3.21875 33.640625 5.90625 39.90625 
Q 8.59375 46.1875 13.6875 49.609375 
Q 18.796875 53.03125 25.6875 53.03125 
Q 34.859375 53.03125 40.828125 45.609375 
L 40.828125 51.859375 
L 48.921875 51.859375 
L 48.921875 7.03125 
Q 48.921875 -5.078125 46.453125 -10.125 
Q 44 -15.1875 38.640625 -18.109375 
Q 33.296875 -21.046875 25.484375 -21.046875 
Q 16.21875 -21.046875 10.5 -16.875 
Q 4.78125 -12.703125 4.984375 -4.296875 
z
M 12.25 26.859375 
Q 12.25 16.65625 16.296875 11.96875 
Q 20.359375 7.28125 26.46875 7.28125 
Q 32.515625 7.28125 36.609375 11.9375 
Q 40.71875 16.609375 40.71875 26.5625 
Q 40.71875 36.078125 36.5 40.90625 
Q 32.28125 45.75 26.3125 45.75 
Q 20.453125 45.75 16.34375 40.984375 
Q 12.25 36.234375 12.25 26.859375 
z
" id="ArialMT-103"/>
       <path d="M 6.59375 0 
L 6.59375 71.578125 
L 15.375 71.578125 
L 15.375 45.90625 
Q 21.53125 53.03125 30.90625 53.03125 
Q 36.671875 53.03125 40.921875 50.75 
Q 45.171875 48.484375 47 44.484375 
Q 48.828125 40.484375 48.828125 32.859375 
L 48.828125 0 
L 40.046875 0 
L 40.046875 32.859375 
Q 40.046875 39.453125 37.1875 42.453125 
Q 34.328125 45.453125 29.109375 45.453125 
Q 25.203125 45.453125 21.75 43.421875 
Q 18.3125 41.40625 16.84375 37.9375 
Q 15.375 34.46875 15.375 28.375 
L 15.375 0 
z
" id="ArialMT-104"/>
       <path d="M 6.5 0 
L 6.5 51.859375 
L 14.40625 51.859375 
L 14.40625 44 
Q 17.4375 49.515625 20 51.265625 
Q 22.5625 53.03125 25.640625 53.03125 
Q 30.078125 53.03125 34.671875 50.203125 
L 31.640625 42.046875 
Q 28.421875 43.953125 25.203125 43.953125 
Q 22.3125 43.953125 20.015625 42.21875 
Q 17.71875 40.484375 16.75 37.40625 
Q 15.28125 32.71875 15.28125 27.15625 
L 15.28125 0 
z
" id="ArialMT-114"/>
       <path d="M 3.078125 15.484375 
L 11.765625 16.84375 
Q 12.5 11.625 15.84375 8.84375 
Q 19.1875 6.0625 25.203125 6.0625 
Q 31.25 6.0625 34.171875 8.515625 
Q 37.109375 10.984375 37.109375 14.3125 
Q 37.109375 17.28125 34.515625 19 
Q 32.71875 20.171875 25.53125 21.96875 
Q 15.875 24.421875 12.140625 26.203125 
Q 8.40625 27.984375 6.46875 31.125 
Q 4.546875 34.28125 4.546875 38.09375 
Q 4.546875 41.546875 6.125 44.5 
Q 7.71875 47.46875 10.453125 49.421875 
Q 12.5 50.921875 16.03125 51.96875 
Q 19.578125 53.03125 23.640625 53.03125 
Q 29.734375 53.03125 34.34375 51.265625 
Q 38.96875 49.515625 41.15625 46.5 
Q 43.359375 43.5 44.1875 38.484375 
L 35.59375 37.3125 
Q 35.015625 41.3125 32.203125 43.546875 
Q 29.390625 45.796875 24.265625 45.796875 
Q 18.21875 45.796875 15.625 43.796875 
Q 13.03125 41.796875 13.03125 39.109375 
Q 13.03125 37.40625 14.109375 36.03125 
Q 15.1875 34.625 17.484375 33.6875 
Q 18.796875 33.203125 25.25 31.453125 
Q 34.578125 28.953125 38.25 27.359375 
Q 41.9375 25.78125 44.03125 22.75 
Q 46.140625 19.734375 46.140625 15.234375 
Q 46.140625 10.84375 43.578125 6.953125 
Q 41.015625 3.078125 36.171875 0.953125 
Q 31.34375 -1.171875 25.25 -1.171875 
Q 15.140625 -1.171875 9.84375 3.03125 
Q 4.546875 7.234375 3.078125 15.484375 
z
" id="ArialMT-115"/>
       <path d="M 25.78125 7.859375 
L 27.046875 0.09375 
Q 23.34375 -0.6875 20.40625 -0.6875 
Q 15.625 -0.6875 12.984375 0.828125 
Q 10.359375 2.34375 9.28125 4.8125 
Q 8.203125 7.28125 8.203125 15.1875 
L 8.203125 45.015625 
L 1.765625 45.015625 
L 1.765625 51.859375 
L 8.203125 51.859375 
L 8.203125 64.703125 
L 16.9375 69.96875 
L 16.9375 51.859375 
L 25.78125 51.859375 
L 25.78125 45.015625 
L 16.9375 45.015625 
L 16.9375 14.703125 
Q 16.9375 10.9375 17.40625 9.859375 
Q 17.875 8.796875 18.921875 8.15625 
Q 19.96875 7.515625 21.921875 7.515625 
Q 23.390625 7.515625 25.78125 7.859375 
z
" id="ArialMT-116"/>
       <path d="M 3.328125 25.921875 
Q 3.328125 40.328125 11.328125 47.265625 
Q 18.015625 53.03125 27.640625 53.03125 
Q 38.328125 53.03125 45.109375 46.015625 
Q 51.90625 39.015625 51.90625 26.65625 
Q 51.90625 16.65625 48.90625 10.90625 
Q 45.90625 5.171875 40.15625 2 
Q 34.421875 -1.171875 27.640625 -1.171875 
Q 16.75 -1.171875 10.03125 5.8125 
Q 3.328125 12.796875 3.328125 25.921875 
z
M 12.359375 25.921875 
Q 12.359375 15.96875 16.703125 11.015625 
Q 21.046875 6.0625 27.640625 6.0625 
Q 34.1875 6.0625 38.53125 11.03125 
Q 42.875 16.015625 42.875 26.21875 
Q 42.875 35.84375 38.5 40.796875 
Q 34.125 45.75 27.640625 45.75 
Q 21.046875 45.75 16.703125 40.8125 
Q 12.359375 35.890625 12.359375 25.921875 
z
" id="ArialMT-111"/>
       <path d="M 6.59375 0 
L 6.59375 51.859375 
L 14.5 51.859375 
L 14.5 44.484375 
Q 20.21875 53.03125 31 53.03125 
Q 35.6875 53.03125 39.625 51.34375 
Q 43.5625 49.65625 45.515625 46.921875 
Q 47.46875 44.1875 48.25 40.4375 
Q 48.734375 37.984375 48.734375 31.890625 
L 48.734375 0 
L 39.9375 0 
L 39.9375 31.546875 
Q 39.9375 36.921875 38.90625 39.578125 
Q 37.890625 42.234375 35.28125 43.8125 
Q 32.671875 45.40625 29.15625 45.40625 
Q 23.53125 45.40625 19.453125 41.84375 
Q 15.375 38.28125 15.375 28.328125 
L 15.375 0 
z
" id="ArialMT-110"/>
       <path d="M 12.359375 -21.046875 
L 6.0625 -21.046875 
Q 20.65625 2.390625 20.65625 25.875 
Q 20.65625 35.0625 18.5625 44.09375 
Q 16.890625 51.421875 13.921875 58.15625 
Q 12.015625 62.546875 6.0625 72.796875 
L 12.359375 72.796875 
Q 21.53125 60.546875 25.921875 48.1875 
Q 29.6875 37.546875 29.6875 25.921875 
Q 29.6875 12.75 24.625 0.4375 
Q 19.578125 -11.859375 12.359375 -21.046875 
z
" id="ArialMT-41"/>
      </defs>
      <use xlink:href="#ArialMT-82"/>
      <use x="72.216797" xlink:href="#ArialMT-83"/>
      <use x="138.916016" xlink:href="#ArialMT-83"/>
      <use x="205.615234" xlink:href="#ArialMT-73"/>
      <use x="233.398438" xlink:href="#ArialMT-32"/>
      <use x="261.181641" xlink:href="#ArialMT-86"/>
      <use x="320.505859" xlink:href="#ArialMT-97"/>
      <use x="376.121094" xlink:href="#ArialMT-108"/>
      <use x="398.337891" xlink:href="#ArialMT-117"/>
      <use x="453.953125" xlink:href="#ArialMT-101"/>
      <use x="509.568359" xlink:href="#ArialMT-32"/>
      <use x="537.351562" xlink:href="#ArialMT-40"/>
      <use x="570.652344" xlink:href="#ArialMT-72"/>
      <use x="642.869141" xlink:href="#ArialMT-105"/>
      <use x="665.085938" xlink:href="#ArialMT-103"/>
      <use x="720.701172" xlink:href="#ArialMT-104"/>
      <use x="776.316406" xlink:href="#ArialMT-101"/>
      <use x="831.931641" xlink:href="#ArialMT-114"/>
      <use x="865.232422" xlink:href="#ArialMT-32"/>
      <use x="893.015625" xlink:href="#ArialMT-86"/>
      <use x="952.339844" xlink:href="#ArialMT-97"/>
      <use x="1007.955078" xlink:href="#ArialMT-108"/>
      <use x="1030.171875" xlink:href="#ArialMT-117"/>
      <use x="1085.787109" xlink:href="#ArialMT-101"/>
      <use x="1141.402344" xlink:href="#ArialMT-115"/>
      <use x="1191.402344" xlink:href="#ArialMT-32"/>
      <use x="1219.185547" xlink:href="#ArialMT-83"/>
      <use x="1285.884766" xlink:href="#ArialMT-116"/>
      <use x="1313.667969" xlink:href="#ArialMT-114"/>
      <use x="1346.96875" xlink:href="#ArialMT-111"/>
      <use x="1402.583984" xlink:href="#ArialMT-110"/>
      <use x="1458.199219" xlink:href="#ArialMT-103"/>
      <use x="1513.814453" xlink:href="#ArialMT-101"/>
      <use x="1569.429688" xlink:href="#ArialMT-114"/>
      <use x="1602.730469" xlink:href="#ArialMT-41"/>
     </g>
    </g>
   </g>
   <g id="matplotlib.axis_2">
    <g id="ytick_1">
     <g id="line2d_6">
      <path clip-path="url(#p4c9b257acc)" d="M 53.222031 348.095625 
L 722.822031 348.095625 
" style="fill:none;stroke:#ffffff;stroke-linecap:round;"/>
     </g>
     <g id="text_7">
      <!-- 0.00 -->
      <g style="fill:#262626;" transform="translate(22.315 352.032422)scale(0.11 -0.11)">
       <defs>
        <path d="M 9.078125 0 
L 9.078125 10.015625 
L 19.09375 10.015625 
L 19.09375 0 
z
" id="ArialMT-46"/>
       </defs>
       <use xlink:href="#ArialMT-48"/>
       <use x="55.615234" xlink:href="#ArialMT-46"/>
       <use x="83.398438" xlink:href="#ArialMT-48"/>
       <use x="139.013672" xlink:href="#ArialMT-48"/>
      </g>
     </g>
    </g>
    <g id="ytick_2">
     <g id="line2d_7">
      <path clip-path="url(#p4c9b257acc)" d="M 53.222031 290.775943 
L 722.822031 290.775943 
" style="fill:none;stroke:#ffffff;stroke-linecap:round;"/>
     </g>
     <g id="text_8">
      <!-- 0.05 -->
      <g style="fill:#262626;" transform="translate(22.315 294.712739)scale(0.11 -0.11)">
       <use xlink:href="#ArialMT-48"/>
       <use x="55.615234" xlink:href="#ArialMT-46"/>
       <use x="83.398438" xlink:href="#ArialMT-48"/>
       <use x="139.013672" xlink:href="#ArialMT-53"/>
      </g>
     </g>
    </g>
    <g id="ytick_3">
     <g id="line2d_8">
      <path clip-path="url(#p4c9b257acc)" d="M 53.222031 233.45626 
L 722.822031 233.45626 
" style="fill:none;stroke:#ffffff;stroke-linecap:round;"/>
     </g>
     <g id="text_9">
      <!-- 0.10 -->
      <g style="fill:#262626;" transform="translate(22.315 237.393057)scale(0.11 -0.11)">
       <use xlink:href="#ArialMT-48"/>
       <use x="55.615234" xlink:href="#ArialMT-46"/>
       <use x="83.398438" xlink:href="#ArialMT-49"/>
       <use x="139.013672" xlink:href="#ArialMT-48"/>
      </g>
     </g>
    </g>
    <g id="ytick_4">
     <g id="line2d_9">
      <path clip-path="url(#p4c9b257acc)" d="M 53.222031 176.136578 
L 722.822031 176.136578 
" style="fill:none;stroke:#ffffff;stroke-linecap:round;"/>
     </g>
     <g id="text_10">
      <!-- 0.15 -->
      <g style="fill:#262626;" transform="translate(22.315 180.073375)scale(0.11 -0.11)">
       <use xlink:href="#ArialMT-48"/>
       <use x="55.615234" xlink:href="#ArialMT-46"/>
       <use x="83.398438" xlink:href="#ArialMT-49"/>
       <use x="139.013672" xlink:href="#ArialMT-53"/>
      </g>
     </g>
    </g>
    <g id="ytick_5">
     <g id="line2d_10">
      <path clip-path="url(#p4c9b257acc)" d="M 53.222031 118.816895 
L 722.822031 118.816895 
" style="fill:none;stroke:#ffffff;stroke-linecap:round;"/>
     </g>
     <g id="text_11">
      <!-- 0.20 -->
      <g style="fill:#262626;" transform="translate(22.315 122.753692)scale(0.11 -0.11)">
       <defs>
        <path d="M 50.34375 8.453125 
L 50.34375 0 
L 3.03125 0 
Q 2.9375 3.171875 4.046875 6.109375 
Q 5.859375 10.9375 9.828125 15.625 
Q 13.8125 20.3125 21.34375 26.46875 
Q 33.015625 36.03125 37.109375 41.625 
Q 41.21875 47.21875 41.21875 52.203125 
Q 41.21875 57.421875 37.46875 61 
Q 33.734375 64.59375 27.734375 64.59375 
Q 21.390625 64.59375 17.578125 60.78125 
Q 13.765625 56.984375 13.71875 50.25 
L 4.6875 51.171875 
Q 5.609375 61.28125 11.65625 66.578125 
Q 17.71875 71.875 27.9375 71.875 
Q 38.234375 71.875 44.234375 66.15625 
Q 50.25 60.453125 50.25 52 
Q 50.25 47.703125 48.484375 43.546875 
Q 46.734375 39.40625 42.65625 34.8125 
Q 38.578125 30.21875 29.109375 22.21875 
Q 21.1875 15.578125 18.9375 13.203125 
Q 16.703125 10.84375 15.234375 8.453125 
z
" id="ArialMT-50"/>
       </defs>
       <use xlink:href="#ArialMT-48"/>
       <use x="55.615234" xlink:href="#ArialMT-46"/>
       <use x="83.398438" xlink:href="#ArialMT-50"/>
       <use x="139.013672" xlink:href="#ArialMT-48"/>
      </g>
     </g>
    </g>
    <g id="ytick_6">
     <g id="line2d_11">
      <path clip-path="url(#p4c9b257acc)" d="M 53.222031 61.497213 
L 722.822031 61.497213 
" style="fill:none;stroke:#ffffff;stroke-linecap:round;"/>
     </g>
     <g id="text_12">
      <!-- 0.25 -->
      <g style="fill:#262626;" transform="translate(22.315 65.43401)scale(0.11 -0.11)">
       <use xlink:href="#ArialMT-48"/>
       <use x="55.615234" xlink:href="#ArialMT-46"/>
       <use x="83.398438" xlink:href="#ArialMT-50"/>
       <use x="139.013672" xlink:href="#ArialMT-53"/>
      </g>
     </g>
    </g>
    <g id="text_13">
     <!-- Density Estimation -->
     <g style="fill:#262626;" transform="translate(15.789375 234.698438)rotate(-90)scale(0.12 -0.12)">
      <defs>
       <path d="M 7.71875 0 
L 7.71875 71.578125 
L 32.375 71.578125 
Q 40.71875 71.578125 45.125 70.5625 
Q 51.265625 69.140625 55.609375 65.4375 
Q 61.28125 60.640625 64.078125 53.1875 
Q 66.890625 45.75 66.890625 36.1875 
Q 66.890625 28.03125 64.984375 21.734375 
Q 63.09375 15.4375 60.109375 11.296875 
Q 57.125 7.171875 53.578125 4.796875 
Q 50.046875 2.4375 45.046875 1.21875 
Q 40.046875 0 33.546875 0 
z
M 17.1875 8.453125 
L 32.46875 8.453125 
Q 39.546875 8.453125 43.578125 9.765625 
Q 47.609375 11.078125 50 13.484375 
Q 53.375 16.84375 55.25 22.53125 
Q 57.125 28.21875 57.125 36.328125 
Q 57.125 47.5625 53.4375 53.59375 
Q 49.75 59.625 44.484375 61.671875 
Q 40.671875 63.140625 32.234375 63.140625 
L 17.1875 63.140625 
z
" id="ArialMT-68"/>
       <path d="M 6.203125 -19.96875 
L 5.21875 -11.71875 
Q 8.109375 -12.5 10.25 -12.5 
Q 13.1875 -12.5 14.9375 -11.515625 
Q 16.703125 -10.546875 17.828125 -8.796875 
Q 18.65625 -7.46875 20.515625 -2.25 
Q 20.75 -1.515625 21.296875 -0.09375 
L 1.609375 51.859375 
L 11.078125 51.859375 
L 21.875 21.828125 
Q 23.96875 16.109375 25.640625 9.8125 
Q 27.15625 15.875 29.25 21.625 
L 40.328125 51.859375 
L 49.125 51.859375 
L 29.390625 -0.875 
Q 26.21875 -9.421875 24.46875 -12.640625 
Q 22.125 -17 19.09375 -19.015625 
Q 16.0625 -21.046875 11.859375 -21.046875 
Q 9.328125 -21.046875 6.203125 -19.96875 
z
" id="ArialMT-121"/>
       <path d="M 7.90625 0 
L 7.90625 71.578125 
L 59.671875 71.578125 
L 59.671875 63.140625 
L 17.390625 63.140625 
L 17.390625 41.21875 
L 56.984375 41.21875 
L 56.984375 32.8125 
L 17.390625 32.8125 
L 17.390625 8.453125 
L 61.328125 8.453125 
L 61.328125 0 
z
" id="ArialMT-69"/>
       <path d="M 6.59375 0 
L 6.59375 51.859375 
L 14.453125 51.859375 
L 14.453125 44.578125 
Q 16.890625 48.390625 20.9375 50.703125 
Q 25 53.03125 30.171875 53.03125 
Q 35.9375 53.03125 39.625 50.640625 
Q 43.3125 48.25 44.828125 43.953125 
Q 50.984375 53.03125 60.84375 53.03125 
Q 68.5625 53.03125 72.703125 48.75 
Q 76.859375 44.484375 76.859375 35.59375 
L 76.859375 0 
L 68.109375 0 
L 68.109375 32.671875 
Q 68.109375 37.9375 67.25 40.25 
Q 66.40625 42.578125 64.15625 43.984375 
Q 61.921875 45.40625 58.890625 45.40625 
Q 53.421875 45.40625 49.796875 41.765625 
Q 46.1875 38.140625 46.1875 30.125 
L 46.1875 0 
L 37.40625 0 
L 37.40625 33.6875 
Q 37.40625 39.546875 35.25 42.46875 
Q 33.109375 45.40625 28.21875 45.40625 
Q 24.515625 45.40625 21.359375 43.453125 
Q 18.21875 41.5 16.796875 37.734375 
Q 15.375 33.984375 15.375 26.90625 
L 15.375 0 
z
" id="ArialMT-109"/>
      </defs>
      <use xlink:href="#ArialMT-68"/>
      <use x="72.216797" xlink:href="#ArialMT-101"/>
      <use x="127.832031" xlink:href="#ArialMT-110"/>
      <use x="183.447266" xlink:href="#ArialMT-115"/>
      <use x="233.447266" xlink:href="#ArialMT-105"/>
      <use x="255.664062" xlink:href="#ArialMT-116"/>
      <use x="283.447266" xlink:href="#ArialMT-121"/>
      <use x="333.447266" xlink:href="#ArialMT-32"/>
      <use x="361.230469" xlink:href="#ArialMT-69"/>
      <use x="427.929688" xlink:href="#ArialMT-115"/>
      <use x="477.929688" xlink:href="#ArialMT-116"/>
      <use x="505.712891" xlink:href="#ArialMT-105"/>
      <use x="527.929688" xlink:href="#ArialMT-109"/>
      <use x="611.230469" xlink:href="#ArialMT-97"/>
      <use x="666.845703" xlink:href="#ArialMT-116"/>
      <use x="694.628906" xlink:href="#ArialMT-105"/>
      <use x="716.845703" xlink:href="#ArialMT-111"/>
      <use x="772.460938" xlink:href="#ArialMT-110"/>
     </g>
    </g>
   </g>
   <g id="PolyCollection_1">
    <defs>
     <path d="M 83.658395 -42.037005 
L 83.658395 -42.021094 
L 85.648385 -42.021094 
L 87.638375 -42.021094 
L 89.628365 -42.021094 
L 91.618355 -42.021094 
L 93.608345 -42.021094 
L 95.598335 -42.021094 
L 97.588325 -42.021094 
L 99.578315 -42.021094 
L 101.568305 -42.021094 
L 103.558295 -42.021094 
L 105.548285 -42.021094 
L 107.538275 -42.021094 
L 109.528265 -42.021094 
L 111.518256 -42.021094 
L 113.508246 -42.021094 
L 115.498236 -42.021094 
L 117.488226 -42.021094 
L 119.478216 -42.021094 
L 121.468206 -42.021094 
L 123.458196 -42.021094 
L 125.448186 -42.021094 
L 127.438176 -42.021094 
L 129.428166 -42.021094 
L 131.418156 -42.021094 
L 133.408146 -42.021094 
L 135.398136 -42.021094 
L 137.388126 -42.021094 
L 139.378116 -42.021094 
L 141.368106 -42.021094 
L 143.358096 -42.021094 
L 145.348086 -42.021094 
L 147.338076 -42.021094 
L 149.328066 -42.021094 
L 151.318056 -42.021094 
L 153.308046 -42.021094 
L 155.298037 -42.021094 
L 157.288027 -42.021094 
L 159.278017 -42.021094 
L 161.268007 -42.021094 
L 163.257997 -42.021094 
L 165.247987 -42.021094 
L 167.237977 -42.021094 
L 169.227967 -42.021094 
L 171.217957 -42.021094 
L 173.207947 -42.021094 
L 175.197937 -42.021094 
L 177.187927 -42.021094 
L 179.177917 -42.021094 
L 181.167907 -42.021094 
L 183.157897 -42.021094 
L 185.147887 -42.021094 
L 187.137877 -42.021094 
L 189.127867 -42.021094 
L 191.117857 -42.021094 
L 193.107847 -42.021094 
L 195.097837 -42.021094 
L 197.087827 -42.021094 
L 199.077818 -42.021094 
L 201.067808 -42.021094 
L 203.057798 -42.021094 
L 205.047788 -42.021094 
L 207.037778 -42.021094 
L 209.027768 -42.021094 
L 211.017758 -42.021094 
L 213.007748 -42.021094 
L 214.997738 -42.021094 
L 216.987728 -42.021094 
L 218.977718 -42.021094 
L 220.967708 -42.021094 
L 222.957698 -42.021094 
L 224.947688 -42.021094 
L 226.937678 -42.021094 
L 228.927668 -42.021094 
L 230.917658 -42.021094 
L 232.907648 -42.021094 
L 234.897638 -42.021094 
L 236.887628 -42.021094 
L 238.877618 -42.021094 
L 240.867608 -42.021094 
L 242.857599 -42.021094 
L 244.847589 -42.021094 
L 246.837579 -42.021094 
L 248.827569 -42.021094 
L 250.817559 -42.021094 
L 252.807549 -42.021094 
L 254.797539 -42.021094 
L 256.787529 -42.021094 
L 258.777519 -42.021094 
L 260.767509 -42.021094 
L 262.757499 -42.021094 
L 264.747489 -42.021094 
L 266.737479 -42.021094 
L 268.727469 -42.021094 
L 270.717459 -42.021094 
L 272.707449 -42.021094 
L 274.697439 -42.021094 
L 276.687429 -42.021094 
L 278.677419 -42.021094 
L 280.667409 -42.021094 
L 282.657399 -42.021094 
L 284.64739 -42.021094 
L 286.63738 -42.021094 
L 288.62737 -42.021094 
L 290.61736 -42.021094 
L 292.60735 -42.021094 
L 294.59734 -42.021094 
L 296.58733 -42.021094 
L 298.57732 -42.021094 
L 300.56731 -42.021094 
L 302.5573 -42.021094 
L 304.54729 -42.021094 
L 306.53728 -42.021094 
L 308.52727 -42.021094 
L 310.51726 -42.021094 
L 312.50725 -42.021094 
L 314.49724 -42.021094 
L 316.48723 -42.021094 
L 318.47722 -42.021094 
L 320.46721 -42.021094 
L 322.4572 -42.021094 
L 324.44719 -42.021094 
L 326.43718 -42.021094 
L 328.427171 -42.021094 
L 330.417161 -42.021094 
L 332.407151 -42.021094 
L 334.397141 -42.021094 
L 336.387131 -42.021094 
L 338.377121 -42.021094 
L 340.367111 -42.021094 
L 342.357101 -42.021094 
L 344.347091 -42.021094 
L 346.337081 -42.021094 
L 348.327071 -42.021094 
L 350.317061 -42.021094 
L 352.307051 -42.021094 
L 354.297041 -42.021094 
L 356.287031 -42.021094 
L 358.277021 -42.021094 
L 360.267011 -42.021094 
L 362.257001 -42.021094 
L 364.246991 -42.021094 
L 366.236981 -42.021094 
L 368.226971 -42.021094 
L 370.216961 -42.021094 
L 372.206952 -42.021094 
L 374.196942 -42.021094 
L 376.186932 -42.021094 
L 378.176922 -42.021094 
L 380.166912 -42.021094 
L 382.156902 -42.021094 
L 384.146892 -42.021094 
L 386.136882 -42.021094 
L 388.126872 -42.021094 
L 390.116862 -42.021094 
L 392.106852 -42.021094 
L 394.096842 -42.021094 
L 396.086832 -42.021094 
L 398.076822 -42.021094 
L 400.066812 -42.021094 
L 402.056802 -42.021094 
L 404.046792 -42.021094 
L 406.036782 -42.021094 
L 408.026772 -42.021094 
L 410.016762 -42.021094 
L 412.006752 -42.021094 
L 413.996742 -42.021094 
L 415.986733 -42.021094 
L 417.976723 -42.021094 
L 419.966713 -42.021094 
L 421.956703 -42.021094 
L 423.946693 -42.021094 
L 425.936683 -42.021094 
L 427.926673 -42.021094 
L 429.916663 -42.021094 
L 431.906653 -42.021094 
L 433.896643 -42.021094 
L 435.886633 -42.021094 
L 437.876623 -42.021094 
L 439.866613 -42.021094 
L 441.856603 -42.021094 
L 443.846593 -42.021094 
L 445.836583 -42.021094 
L 447.826573 -42.021094 
L 449.816563 -42.021094 
L 451.806553 -42.021094 
L 453.796543 -42.021094 
L 455.786533 -42.021094 
L 457.776523 -42.021094 
L 459.766514 -42.021094 
L 461.756504 -42.021094 
L 463.746494 -42.021094 
L 465.736484 -42.021094 
L 467.726474 -42.021094 
L 469.716464 -42.021094 
L 471.706454 -42.021094 
L 473.696444 -42.021094 
L 475.686434 -42.021094 
L 477.676424 -42.021094 
L 479.666414 -42.021094 
L 479.666414 -42.037329 
L 479.666414 -42.037329 
L 477.676424 -42.042589 
L 475.686434 -42.049324 
L 473.696444 -42.057872 
L 471.706454 -42.068627 
L 469.716464 -42.082044 
L 467.726474 -42.098641 
L 465.736484 -42.118998 
L 463.746494 -42.143763 
L 461.756504 -42.173645 
L 459.766514 -42.209413 
L 457.776523 -42.25189 
L 455.786533 -42.301946 
L 453.796543 -42.36049 
L 451.806553 -42.428459 
L 449.816563 -42.506806 
L 447.826573 -42.596485 
L 445.836583 -42.698442 
L 443.846593 -42.813595 
L 441.856603 -42.942822 
L 439.866613 -43.086943 
L 437.876623 -43.2467 
L 435.886633 -43.422738 
L 433.896643 -43.615586 
L 431.906653 -43.825628 
L 429.916663 -44.053078 
L 427.926673 -44.297953 
L 425.936683 -44.560035 
L 423.946693 -44.838844 
L 421.956703 -45.133603 
L 419.966713 -45.44321 
L 417.976723 -45.766209 
L 415.986733 -46.100777 
L 413.996742 -46.444711 
L 412.006752 -46.795441 
L 410.016762 -47.150044 
L 408.026772 -47.505281 
L 406.036782 -47.857656 
L 404.046792 -48.203478 
L 402.056802 -48.538949 
L 400.066812 -48.860255 
L 398.076822 -49.163664 
L 396.086832 -49.445626 
L 394.096842 -49.702874 
L 392.106852 -49.932504 
L 390.116862 -50.13205 
L 388.126872 -50.299543 
L 386.136882 -50.433547 
L 384.146892 -50.533172 
L 382.156902 -50.598075 
L 380.166912 -50.628441 
L 378.176922 -50.62495 
L 376.186932 -50.588736 
L 374.196942 -50.521336 
L 372.206952 -50.424645 
L 370.216961 -50.300869 
L 368.226971 -50.152484 
L 366.236981 -49.982199 
L 364.246991 -49.792931 
L 362.257001 -49.587783 
L 360.267011 -49.370029 
L 358.277021 -49.143104 
L 356.287031 -48.910593 
L 354.297041 -48.676225 
L 352.307051 -48.443865 
L 350.317061 -48.2175 
L 348.327071 -48.001231 
L 346.337081 -47.799255 
L 344.347091 -47.615855 
L 342.357101 -47.455378 
L 340.367111 -47.322222 
L 338.377121 -47.220816 
L 336.387131 -47.155603 
L 334.397141 -47.131018 
L 332.407151 -47.151463 
L 330.417161 -47.221276 
L 328.427171 -47.344692 
L 326.43718 -47.525792 
L 324.44719 -47.768444 
L 322.4572 -48.076228 
L 320.46721 -48.452354 
L 318.47722 -48.899565 
L 316.48723 -49.420039 
L 314.49724 -50.015285 
L 312.50725 -50.686055 
L 310.51726 -51.432249 
L 308.52727 -52.252861 
L 306.53728 -53.145929 
L 304.54729 -54.108535 
L 302.5573 -55.136822 
L 300.56731 -56.226055 
L 298.57732 -57.370715 
L 296.58733 -58.564616 
L 294.59734 -59.801054 
L 292.60735 -61.072957 
L 290.61736 -62.373056 
L 288.62737 -63.694033 
L 286.63738 -65.028663 
L 284.64739 -66.369936 
L 282.657399 -67.711139 
L 280.667409 -69.045914 
L 278.677419 -70.36828 
L 276.687429 -71.672622 
L 274.697439 -72.953654 
L 272.707449 -74.206366 
L 270.717459 -75.42594 
L 268.727469 -76.60768 
L 266.737479 -77.746918 
L 264.747489 -78.838937 
L 262.757499 -79.878897 
L 260.767509 -80.861767 
L 258.777519 -81.782279 
L 256.787529 -82.634889 
L 254.797539 -83.413762 
L 252.807549 -84.112779 
L 250.817559 -84.725568 
L 248.827569 -85.245565 
L 246.837579 -85.66611 
L 244.847589 -85.98058 
L 242.857599 -86.182559 
L 240.867608 -86.266044 
L 238.877618 -86.225676 
L 236.887628 -86.057003 
L 234.897638 -85.756736 
L 232.907648 -85.323012 
L 230.917658 -84.755624 
L 228.927668 -84.056203 
L 226.937678 -83.228354 
L 224.947688 -82.277704 
L 222.957698 -81.211877 
L 220.967708 -80.040383 
L 218.977718 -78.774417 
L 216.987728 -77.426591 
L 214.997738 -76.010608 
L 213.007748 -74.540888 
L 211.017758 -73.032178 
L 209.027768 -71.499165 
L 207.037778 -69.956108 
L 205.047788 -68.41651 
L 203.057798 -66.892846 
L 201.067808 -65.396347 
L 199.077818 -63.936857 
L 197.087827 -62.522747 
L 195.097837 -61.160899 
L 193.107847 -59.856727 
L 191.117857 -58.614259 
L 189.127867 -57.436231 
L 187.137877 -56.324214 
L 185.147887 -55.278751 
L 183.157897 -54.299485 
L 181.167907 -53.385304 
L 179.177917 -52.534456 
L 177.187927 -51.744672 
L 175.197937 -51.013271 
L 173.207947 -50.337249 
L 171.217957 -49.713367 
L 169.227967 -49.138225 
L 167.237977 -48.608331 
L 165.247987 -48.120158 
L 163.257997 -47.670206 
L 161.268007 -47.255044 
L 159.278017 -46.871366 
L 157.288027 -46.516024 
L 155.298037 -46.186069 
L 153.308046 -45.878779 
L 151.318056 -45.591684 
L 149.328066 -45.322585 
L 147.338076 -45.069565 
L 145.348086 -44.83099 
L 143.358096 -44.605507 
L 141.368106 -44.392031 
L 139.378116 -44.189729 
L 137.388126 -43.997989 
L 135.398136 -43.816398 
L 133.408146 -43.644701 
L 131.418156 -43.482768 
L 129.428166 -43.330555 
L 127.438176 -43.188069 
L 125.448186 -43.055333 
L 123.458196 -42.932358 
L 121.468206 -42.819111 
L 119.478216 -42.715506 
L 117.488226 -42.62138 
L 115.498236 -42.536495 
L 113.508246 -42.460528 
L 111.518256 -42.393081 
L 109.528265 -42.333687 
L 107.538275 -42.28182 
L 105.548285 -42.236912 
L 103.558295 -42.198366 
L 101.568305 -42.165569 
L 99.578315 -42.137912 
L 97.588325 -42.114796 
L 95.598335 -42.095649 
L 93.608345 -42.079933 
L 91.618355 -42.067151 
L 89.628365 -42.056848 
L 87.638375 -42.048621 
L 85.648385 -42.04211 
L 83.658395 -42.037005 
z
" id="m1562e40c1c" style="stroke:#c44e52;"/>
    </defs>
    <g clip-path="url(#p4c9b257acc)">
     <use style="fill:#c44e52;fill-opacity:0.25;stroke:#c44e52;" x="0" xlink:href="#m1562e40c1c" y="390.116719"/>
    </g>
   </g>
   <g id="PolyCollection_2">
    <defs>
     <path d="M 156.857865 -42.032371 
L 156.857865 -42.021094 
L 158.651076 -42.021094 
L 160.444287 -42.021094 
L 162.237498 -42.021094 
L 164.030709 -42.021094 
L 165.82392 -42.021094 
L 167.617131 -42.021094 
L 169.410342 -42.021094 
L 171.203553 -42.021094 
L 172.996764 -42.021094 
L 174.789975 -42.021094 
L 176.583186 -42.021094 
L 178.376397 -42.021094 
L 180.169608 -42.021094 
L 181.962819 -42.021094 
L 183.75603 -42.021094 
L 185.549241 -42.021094 
L 187.342452 -42.021094 
L 189.135663 -42.021094 
L 190.928874 -42.021094 
L 192.722085 -42.021094 
L 194.515296 -42.021094 
L 196.308507 -42.021094 
L 198.101718 -42.021094 
L 199.894929 -42.021094 
L 201.68814 -42.021094 
L 203.481351 -42.021094 
L 205.274562 -42.021094 
L 207.067773 -42.021094 
L 208.860983 -42.021094 
L 210.654194 -42.021094 
L 212.447405 -42.021094 
L 214.240616 -42.021094 
L 216.033827 -42.021094 
L 217.827038 -42.021094 
L 219.620249 -42.021094 
L 221.41346 -42.021094 
L 223.206671 -42.021094 
L 224.999882 -42.021094 
L 226.793093 -42.021094 
L 228.586304 -42.021094 
L 230.379515 -42.021094 
L 232.172726 -42.021094 
L 233.965937 -42.021094 
L 235.759148 -42.021094 
L 237.552359 -42.021094 
L 239.34557 -42.021094 
L 241.138781 -42.021094 
L 242.931992 -42.021094 
L 244.725203 -42.021094 
L 246.518414 -42.021094 
L 248.311625 -42.021094 
L 250.104836 -42.021094 
L 251.898047 -42.021094 
L 253.691258 -42.021094 
L 255.484469 -42.021094 
L 257.27768 -42.021094 
L 259.070891 -42.021094 
L 260.864102 -42.021094 
L 262.657313 -42.021094 
L 264.450524 -42.021094 
L 266.243735 -42.021094 
L 268.036946 -42.021094 
L 269.830157 -42.021094 
L 271.623368 -42.021094 
L 273.416579 -42.021094 
L 275.20979 -42.021094 
L 277.003 -42.021094 
L 278.796211 -42.021094 
L 280.589422 -42.021094 
L 282.382633 -42.021094 
L 284.175844 -42.021094 
L 285.969055 -42.021094 
L 287.762266 -42.021094 
L 289.555477 -42.021094 
L 291.348688 -42.021094 
L 293.141899 -42.021094 
L 294.93511 -42.021094 
L 296.728321 -42.021094 
L 298.521532 -42.021094 
L 300.314743 -42.021094 
L 302.107954 -42.021094 
L 303.901165 -42.021094 
L 305.694376 -42.021094 
L 307.487587 -42.021094 
L 309.280798 -42.021094 
L 311.074009 -42.021094 
L 312.86722 -42.021094 
L 314.660431 -42.021094 
L 316.453642 -42.021094 
L 318.246853 -42.021094 
L 320.040064 -42.021094 
L 321.833275 -42.021094 
L 323.626486 -42.021094 
L 325.419697 -42.021094 
L 327.212908 -42.021094 
L 329.006119 -42.021094 
L 330.79933 -42.021094 
L 332.592541 -42.021094 
L 334.385752 -42.021094 
L 336.178963 -42.021094 
L 337.972174 -42.021094 
L 339.765385 -42.021094 
L 341.558596 -42.021094 
L 343.351807 -42.021094 
L 345.145017 -42.021094 
L 346.938228 -42.021094 
L 348.731439 -42.021094 
L 350.52465 -42.021094 
L 352.317861 -42.021094 
L 354.111072 -42.021094 
L 355.904283 -42.021094 
L 357.697494 -42.021094 
L 359.490705 -42.021094 
L 361.283916 -42.021094 
L 363.077127 -42.021094 
L 364.870338 -42.021094 
L 366.663549 -42.021094 
L 368.45676 -42.021094 
L 370.249971 -42.021094 
L 372.043182 -42.021094 
L 373.836393 -42.021094 
L 375.629604 -42.021094 
L 377.422815 -42.021094 
L 379.216026 -42.021094 
L 381.009237 -42.021094 
L 382.802448 -42.021094 
L 384.595659 -42.021094 
L 386.38887 -42.021094 
L 388.182081 -42.021094 
L 389.975292 -42.021094 
L 391.768503 -42.021094 
L 393.561714 -42.021094 
L 395.354925 -42.021094 
L 397.148136 -42.021094 
L 398.941347 -42.021094 
L 400.734558 -42.021094 
L 402.527769 -42.021094 
L 404.32098 -42.021094 
L 406.114191 -42.021094 
L 407.907402 -42.021094 
L 409.700613 -42.021094 
L 411.493823 -42.021094 
L 413.287034 -42.021094 
L 415.080245 -42.021094 
L 416.873456 -42.021094 
L 418.666667 -42.021094 
L 420.459878 -42.021094 
L 422.253089 -42.021094 
L 424.0463 -42.021094 
L 425.839511 -42.021094 
L 427.632722 -42.021094 
L 429.425933 -42.021094 
L 431.219144 -42.021094 
L 433.012355 -42.021094 
L 434.805566 -42.021094 
L 436.598777 -42.021094 
L 438.391988 -42.021094 
L 440.185199 -42.021094 
L 441.97841 -42.021094 
L 443.771621 -42.021094 
L 445.564832 -42.021094 
L 447.358043 -42.021094 
L 449.151254 -42.021094 
L 450.944465 -42.021094 
L 452.737676 -42.021094 
L 454.530887 -42.021094 
L 456.324098 -42.021094 
L 458.117309 -42.021094 
L 459.91052 -42.021094 
L 461.703731 -42.021094 
L 463.496942 -42.021094 
L 465.290153 -42.021094 
L 467.083364 -42.021094 
L 468.876575 -42.021094 
L 470.669786 -42.021094 
L 472.462997 -42.021094 
L 474.256208 -42.021094 
L 476.049419 -42.021094 
L 477.84263 -42.021094 
L 479.63584 -42.021094 
L 481.429051 -42.021094 
L 483.222262 -42.021094 
L 485.015473 -42.021094 
L 486.808684 -42.021094 
L 488.601895 -42.021094 
L 490.395106 -42.021094 
L 492.188317 -42.021094 
L 493.981528 -42.021094 
L 495.774739 -42.021094 
L 497.56795 -42.021094 
L 499.361161 -42.021094 
L 501.154372 -42.021094 
L 502.947583 -42.021094 
L 504.740794 -42.021094 
L 506.534005 -42.021094 
L 508.327216 -42.021094 
L 510.120427 -42.021094 
L 511.913638 -42.021094 
L 513.706849 -42.021094 
L 513.706849 -42.066052 
L 513.706849 -42.066052 
L 511.913638 -42.085313 
L 510.120427 -42.11149 
L 508.327216 -42.14649 
L 506.534005 -42.192517 
L 504.740794 -42.252042 
L 502.947583 -42.327733 
L 501.154372 -42.422353 
L 499.361161 -42.538606 
L 497.56795 -42.678957 
L 495.774739 -42.84541 
L 493.981528 -43.039277 
L 492.188317 -43.260948 
L 490.395106 -43.50968 
L 488.601895 -43.783452 
L 486.808684 -44.078888 
L 485.015473 -44.391291 
L 483.222262 -44.714785 
L 481.429051 -45.042587 
L 479.63584 -45.367371 
L 477.84263 -45.681726 
L 476.049419 -45.978649 
L 474.256208 -46.252029 
L 472.462997 -46.497073 
L 470.669786 -46.710616 
L 468.876575 -46.891274 
L 467.083364 -47.03942 
L 465.290153 -47.156981 
L 463.496942 -47.247066 
L 461.703731 -47.313478 
L 459.91052 -47.360165 
L 458.117309 -47.390674 
L 456.324098 -47.407694 
L 454.530887 -47.412719 
L 452.737676 -47.405906 
L 450.944465 -47.386116 
L 449.151254 -47.351153 
L 447.358043 -47.298148 
L 445.564832 -47.224037 
L 443.771621 -47.126081 
L 441.97841 -47.002335 
L 440.185199 -46.852024 
L 438.391988 -46.675761 
L 436.598777 -46.475611 
L 434.805566 -46.254965 
L 433.012355 -46.018279 
L 431.219144 -45.7707 
L 429.425933 -45.517641 
L 427.632722 -45.264349 
L 425.839511 -45.015539 
L 424.0463 -44.775108 
L 422.253089 -44.545978 
L 420.459878 -44.33005 
L 418.666667 -44.128294 
L 416.873456 -43.940911 
L 415.080245 -43.767583 
L 413.287034 -43.607733 
L 411.493823 -43.460798 
L 409.700613 -43.326468 
L 407.907402 -43.20488 
L 406.114191 -43.09675 
L 404.32098 -43.003452 
L 402.527769 -42.927031 
L 400.734558 -42.870177 
L 398.941347 -42.836151 
L 397.148136 -42.828683 
L 395.354925 -42.851854 
L 393.561714 -42.909965 
L 391.768503 -43.007395 
L 389.975292 -43.148487 
L 388.182081 -43.337439 
L 386.38887 -43.578247 
L 384.595659 -43.874709 
L 382.802448 -44.230507 
L 381.009237 -44.649392 
L 379.216026 -45.135471 
L 377.422815 -45.693598 
L 375.629604 -46.329831 
L 373.836393 -47.051911 
L 372.043182 -47.869685 
L 370.249971 -48.795387 
L 368.45676 -49.843668 
L 366.663549 -51.031292 
L 364.870338 -52.376419 
L 363.077127 -53.89747 
L 361.283916 -55.611582 
L 359.490705 -57.532794 
L 357.697494 -59.670112 
L 355.904283 -62.025717 
L 354.111072 -64.593558 
L 352.317861 -67.358634 
L 350.52465 -70.297151 
L 348.731439 -73.377713 
L 346.938228 -76.563522 
L 345.145017 -79.815452 
L 343.351807 -83.095659 
L 341.558596 -86.371312 
L 339.765385 -89.617879 
L 337.972174 -92.821462 
L 336.178963 -95.979691 
L 334.385752 -99.100874 
L 332.592541 -102.201335 
L 330.79933 -105.301106 
L 329.006119 -108.418453 
L 327.212908 -111.56391 
L 325.419697 -114.734677 
L 323.626486 -117.910225 
L 321.833275 -121.049907 
L 320.040064 -124.093089 
L 318.246853 -126.962042 
L 316.453642 -129.567427 
L 314.660431 -131.815816 
L 312.86722 -133.618401 
L 311.074009 -134.899805 
L 309.280798 -135.60587 
L 307.487587 -135.70939 
L 305.694376 -135.213027 
L 303.901165 -134.149008 
L 302.107954 -132.575652 
L 300.314743 -130.571191 
L 298.521532 -128.225708 
L 296.728321 -125.632264 
L 294.93511 -122.878349 
L 293.141899 -120.038707 
L 291.348688 -117.170351 
L 289.555477 -114.310243 
L 287.762266 -111.475724 
L 285.969055 -108.667385 
L 284.175844 -105.873766 
L 282.382633 -103.077066 
L 280.589422 -100.258963 
L 278.796211 -97.405736 
L 277.003 -94.512015 
L 275.20979 -91.582805 
L 273.416579 -88.633653 
L 271.623368 -85.689162 
L 269.830157 -82.780235 
L 268.036946 -79.940598 
L 266.243735 -77.203179 
L 264.450524 -74.596872 
L 262.657313 -72.1441 
L 260.864102 -69.859413 
L 259.070891 -67.749188 
L 257.27768 -65.812302 
L 255.484469 -64.041556 
L 253.691258 -62.425519 
L 251.898047 -60.950481 
L 250.104836 -59.602209 
L 248.311625 -58.367293 
L 246.518414 -57.233983 
L 244.725203 -56.192487 
L 242.931992 -55.234817 
L 241.138781 -54.35432 
L 239.34557 -53.545062 
L 237.552359 -52.80122 
L 235.759148 -52.116634 
L 233.965937 -51.484578 
L 232.172726 -50.897794 
L 230.379515 -50.348758 
L 228.586304 -49.830104 
L 226.793093 -49.335124 
L 224.999882 -48.858236 
L 223.206671 -48.395344 
L 221.41346 -47.944029 
L 219.620249 -47.503541 
L 217.827038 -47.074608 
L 216.033827 -46.659089 
L 214.240616 -46.25954 
L 212.447405 -45.878742 
L 210.654194 -45.519274 
L 208.860983 -45.183159 
L 207.067773 -44.871639 
L 205.274562 -44.585075 
L 203.481351 -44.322977 
L 201.68814 -44.084128 
L 199.894929 -43.866786 
L 198.101718 -43.66891 
L 196.308507 -43.488386 
L 194.515296 -43.32322 
L 192.722085 -43.171678 
L 190.928874 -43.032367 
L 189.135663 -42.904255 
L 187.342452 -42.786646 
L 185.549241 -42.679107 
L 183.75603 -42.581387 
L 181.962819 -42.493324 
L 180.169608 -42.414762 
L 178.376397 -42.345483 
L 176.583186 -42.285169 
L 174.789975 -42.233376 
L 172.996764 -42.189539 
L 171.203553 -42.152987 
L 169.410342 -42.122975 
L 167.617131 -42.098715 
L 165.82392 -42.079413 
L 164.030709 -42.064296 
L 162.237498 -42.052647 
L 160.444287 -42.043811 
L 158.651076 -42.037216 
L 156.857865 -42.032371 
z
" id="m2f53e995a7" style="stroke:#55a868;"/>
    </defs>
    <g clip-path="url(#p4c9b257acc)">
     <use style="fill:#55a868;fill-opacity:0.25;stroke:#55a868;" x="0" xlink:href="#m2f53e995a7" y="390.116719"/>
    </g>
   </g>
   <g id="PolyCollection_3">
    <defs>
     <path d="M 315.067194 -42.045745 
L 315.067194 -42.021094 
L 315.943979 -42.021094 
L 316.820764 -42.021094 
L 317.697549 -42.021094 
L 318.574334 -42.021094 
L 319.451119 -42.021094 
L 320.327904 -42.021094 
L 321.204689 -42.021094 
L 322.081473 -42.021094 
L 322.958258 -42.021094 
L 323.835043 -42.021094 
L 324.711828 -42.021094 
L 325.588613 -42.021094 
L 326.465398 -42.021094 
L 327.342183 -42.021094 
L 328.218968 -42.021094 
L 329.095753 -42.021094 
L 329.972538 -42.021094 
L 330.849323 -42.021094 
L 331.726108 -42.021094 
L 332.602893 -42.021094 
L 333.479678 -42.021094 
L 334.356463 -42.021094 
L 335.233248 -42.021094 
L 336.110033 -42.021094 
L 336.986818 -42.021094 
L 337.863603 -42.021094 
L 338.740388 -42.021094 
L 339.617173 -42.021094 
L 340.493958 -42.021094 
L 341.370743 -42.021094 
L 342.247528 -42.021094 
L 343.124313 -42.021094 
L 344.001098 -42.021094 
L 344.877883 -42.021094 
L 345.754668 -42.021094 
L 346.631453 -42.021094 
L 347.508238 -42.021094 
L 348.385022 -42.021094 
L 349.261807 -42.021094 
L 350.138592 -42.021094 
L 351.015377 -42.021094 
L 351.892162 -42.021094 
L 352.768947 -42.021094 
L 353.645732 -42.021094 
L 354.522517 -42.021094 
L 355.399302 -42.021094 
L 356.276087 -42.021094 
L 357.152872 -42.021094 
L 358.029657 -42.021094 
L 358.906442 -42.021094 
L 359.783227 -42.021094 
L 360.660012 -42.021094 
L 361.536797 -42.021094 
L 362.413582 -42.021094 
L 363.290367 -42.021094 
L 364.167152 -42.021094 
L 365.043937 -42.021094 
L 365.920722 -42.021094 
L 366.797507 -42.021094 
L 367.674292 -42.021094 
L 368.551077 -42.021094 
L 369.427862 -42.021094 
L 370.304647 -42.021094 
L 371.181432 -42.021094 
L 372.058217 -42.021094 
L 372.935002 -42.021094 
L 373.811787 -42.021094 
L 374.688572 -42.021094 
L 375.565356 -42.021094 
L 376.442141 -42.021094 
L 377.318926 -42.021094 
L 378.195711 -42.021094 
L 379.072496 -42.021094 
L 379.949281 -42.021094 
L 380.826066 -42.021094 
L 381.702851 -42.021094 
L 382.579636 -42.021094 
L 383.456421 -42.021094 
L 384.333206 -42.021094 
L 385.209991 -42.021094 
L 386.086776 -42.021094 
L 386.963561 -42.021094 
L 387.840346 -42.021094 
L 388.717131 -42.021094 
L 389.593916 -42.021094 
L 390.470701 -42.021094 
L 391.347486 -42.021094 
L 392.224271 -42.021094 
L 393.101056 -42.021094 
L 393.977841 -42.021094 
L 394.854626 -42.021094 
L 395.731411 -42.021094 
L 396.608196 -42.021094 
L 397.484981 -42.021094 
L 398.361766 -42.021094 
L 399.238551 -42.021094 
L 400.115336 -42.021094 
L 400.992121 -42.021094 
L 401.868905 -42.021094 
L 402.74569 -42.021094 
L 403.622475 -42.021094 
L 404.49926 -42.021094 
L 405.376045 -42.021094 
L 406.25283 -42.021094 
L 407.129615 -42.021094 
L 408.0064 -42.021094 
L 408.883185 -42.021094 
L 409.75997 -42.021094 
L 410.636755 -42.021094 
L 411.51354 -42.021094 
L 412.390325 -42.021094 
L 413.26711 -42.021094 
L 414.143895 -42.021094 
L 415.02068 -42.021094 
L 415.897465 -42.021094 
L 416.77425 -42.021094 
L 417.651035 -42.021094 
L 418.52782 -42.021094 
L 419.404605 -42.021094 
L 420.28139 -42.021094 
L 421.158175 -42.021094 
L 422.03496 -42.021094 
L 422.911745 -42.021094 
L 423.78853 -42.021094 
L 424.665315 -42.021094 
L 425.5421 -42.021094 
L 426.418885 -42.021094 
L 427.29567 -42.021094 
L 428.172455 -42.021094 
L 429.049239 -42.021094 
L 429.926024 -42.021094 
L 430.802809 -42.021094 
L 431.679594 -42.021094 
L 432.556379 -42.021094 
L 433.433164 -42.021094 
L 434.309949 -42.021094 
L 435.186734 -42.021094 
L 436.063519 -42.021094 
L 436.940304 -42.021094 
L 437.817089 -42.021094 
L 438.693874 -42.021094 
L 439.570659 -42.021094 
L 440.447444 -42.021094 
L 441.324229 -42.021094 
L 442.201014 -42.021094 
L 443.077799 -42.021094 
L 443.954584 -42.021094 
L 444.831369 -42.021094 
L 445.708154 -42.021094 
L 446.584939 -42.021094 
L 447.461724 -42.021094 
L 448.338509 -42.021094 
L 449.215294 -42.021094 
L 450.092079 -42.021094 
L 450.968864 -42.021094 
L 451.845649 -42.021094 
L 452.722434 -42.021094 
L 453.599219 -42.021094 
L 454.476004 -42.021094 
L 455.352788 -42.021094 
L 456.229573 -42.021094 
L 457.106358 -42.021094 
L 457.983143 -42.021094 
L 458.859928 -42.021094 
L 459.736713 -42.021094 
L 460.613498 -42.021094 
L 461.490283 -42.021094 
L 462.367068 -42.021094 
L 463.243853 -42.021094 
L 464.120638 -42.021094 
L 464.997423 -42.021094 
L 465.874208 -42.021094 
L 466.750993 -42.021094 
L 467.627778 -42.021094 
L 468.504563 -42.021094 
L 469.381348 -42.021094 
L 470.258133 -42.021094 
L 471.134918 -42.021094 
L 472.011703 -42.021094 
L 472.888488 -42.021094 
L 473.765273 -42.021094 
L 474.642058 -42.021094 
L 475.518843 -42.021094 
L 476.395628 -42.021094 
L 477.272413 -42.021094 
L 478.149198 -42.021094 
L 479.025983 -42.021094 
L 479.902768 -42.021094 
L 480.779553 -42.021094 
L 481.656338 -42.021094 
L 482.533122 -42.021094 
L 483.409907 -42.021094 
L 484.286692 -42.021094 
L 485.163477 -42.021094 
L 486.040262 -42.021094 
L 486.917047 -42.021094 
L 487.793832 -42.021094 
L 488.670617 -42.021094 
L 489.547402 -42.021094 
L 489.547402 -42.045745 
L 489.547402 -42.045745 
L 488.670617 -42.05721 
L 487.793832 -42.073117 
L 486.917047 -42.094773 
L 486.040262 -42.123691 
L 485.163477 -42.161562 
L 484.286692 -42.210182 
L 483.409907 -42.271359 
L 482.533122 -42.346767 
L 481.656338 -42.437784 
L 480.779553 -42.545287 
L 479.902768 -42.669457 
L 479.025983 -42.809583 
L 478.149198 -42.963906 
L 477.272413 -43.129527 
L 476.395628 -43.302405 
L 475.518843 -43.477457 
L 474.642058 -43.648778 
L 473.765273 -43.809977 
L 472.888488 -43.954612 
L 472.011703 -44.076712 
L 471.134918 -44.171327 
L 470.258133 -44.235112 
L 469.381348 -44.266869 
L 468.504563 -44.268067 
L 467.627778 -44.243305 
L 466.750993 -44.200736 
L 465.874208 -44.152486 
L 464.997423 -44.115068 
L 464.120638 -44.109847 
L 463.243853 -44.163527 
L 462.367068 -44.308655 
L 461.490283 -44.584049 
L 460.613498 -45.035026 
L 459.736713 -45.713244 
L 458.859928 -46.675948 
L 457.983143 -47.984361 
L 457.106358 -49.701049 
L 456.229573 -51.886101 
L 455.352788 -54.592129 
L 454.476004 -57.858266 
L 453.599219 -61.703519 
L 452.722434 -66.120062 
L 451.845649 -71.067239 
L 450.968864 -76.467112 
L 450.092079 -82.202451 
L 449.215294 -88.11789 
L 448.338509 -94.02475 
L 447.461724 -99.709627 
L 446.584939 -104.946426 
L 445.708154 -109.511022 
L 444.831369 -113.197356 
L 443.954584 -115.833477 
L 443.077799 -117.295976 
L 442.201014 -117.521356 
L 441.324229 -116.513247 
L 440.447444 -114.344868 
L 439.570659 -111.156714 
L 438.693874 -107.150041 
L 437.817089 -102.577201 
L 436.940304 -97.730148 
L 436.063519 -92.928513 
L 435.186734 -88.508416 
L 434.309949 -84.81279 
L 433.433164 -82.183419 
L 432.556379 -80.954279 
L 431.679594 -81.445274 
L 430.802809 -83.955071 
L 429.926024 -88.75172 
L 429.049239 -96.059951 
L 428.172455 -106.044659 
L 427.29567 -118.790898 
L 426.418885 -134.281725 
L 425.5421 -152.376206 
L 424.665315 -172.790722 
L 423.78853 -195.087116 
L 422.911745 -218.671172 
L 422.03496 -242.804249 
L 421.158175 -266.629615 
L 420.28139 -289.213354 
L 419.404605 -309.597755 
L 418.52782 -326.863174 
L 417.651035 -340.192835 
L 416.77425 -348.934096 
L 415.897465 -352.649665 
L 415.02068 -351.153061 
L 414.143895 -344.524288 
L 413.26711 -333.103955 
L 412.390325 -317.466573 
L 411.51354 -298.376202 
L 410.636755 -276.72953 
L 409.75997 -253.492656 
L 408.883185 -229.638119 
L 408.0064 -206.088117 
L 407.129615 -183.668498 
L 406.25283 -163.076287 
L 405.376045 -144.861502 
L 404.49926 -129.42218 
L 403.622475 -117.010098 
L 402.74569 -107.743801 
L 401.868905 -101.625353 
L 400.992121 -98.557576 
L 400.115336 -98.359409 
L 399.238551 -100.778085 
L 398.361766 -105.498042 
L 397.484981 -112.147449 
L 396.608196 -120.30399 
L 395.731411 -129.501822 
L 394.854626 -139.241492 
L 393.977841 -149.004054 
L 393.101056 -158.269776 
L 392.224271 -166.540848 
L 391.347486 -173.366543 
L 390.470701 -178.368522 
L 389.593916 -181.263584 
L 388.717131 -181.88115 
L 387.840346 -180.173241 
L 386.963561 -176.215508 
L 386.086776 -170.198921 
L 385.209991 -162.412858 
L 384.333206 -153.221337 
L 383.456421 -143.034908 
L 382.579636 -132.281077 
L 381.702851 -121.376168 
L 380.826066 -110.701074 
L 379.949281 -100.582721 
L 379.072496 -91.282184 
L 378.195711 -82.989537 
L 377.318926 -75.824761 
L 376.442141 -69.843452 
L 375.565356 -65.045778 
L 374.688572 -61.38706 
L 373.811787 -58.788561 
L 372.935002 -57.147359 
L 372.058217 -56.344633 
L 371.181432 -56.252118 
L 370.304647 -56.736829 
L 369.427862 -57.664448 
L 368.551077 -58.901887 
L 367.674292 -60.319554 
L 366.797507 -61.793736 
L 365.920722 -63.209348 
L 365.043937 -64.463071 
L 364.167152 -65.466707 
L 363.290367 -66.150417 
L 362.413582 -66.465429 
L 361.536797 -66.385793 
L 360.660012 -65.908841 
L 359.783227 -65.05419 
L 358.906442 -63.861243 
L 358.029657 -62.385409 
L 357.152872 -60.693368 
L 356.276087 -58.857838 
L 355.399302 -56.952351 
L 354.522517 -55.046504 
L 353.645732 -53.20206 
L 352.768947 -51.470167 
L 351.892162 -49.889781 
L 351.015377 -48.487265 
L 350.138592 -47.276991 
L 349.261807 -46.262707 
L 348.385022 -45.439379 
L 347.508238 -44.795246 
L 346.631453 -44.313834 
L 345.754668 -43.975761 
L 344.877883 -43.760226 
L 344.001098 -43.646141 
L 343.124313 -43.61293 
L 342.247528 -43.64104 
L 341.370743 -43.712267 
L 340.493958 -43.809948 
L 339.617173 -43.919107 
L 338.740388 -44.026589 
L 337.863603 -44.121211 
L 336.986818 -44.193915 
L 336.110033 -44.237908 
L 335.233248 -44.248762 
L 334.356463 -44.224423 
L 333.479678 -44.165124 
L 332.602893 -44.073171 
L 331.726108 -43.952626 
L 330.849323 -43.808881 
L 329.972538 -43.648184 
L 329.095753 -43.47714 
L 328.218968 -43.302239 
L 327.342183 -43.129441 
L 326.465398 -42.963863 
L 325.588613 -42.809562 
L 324.711828 -42.669447 
L 323.835043 -42.545282 
L 322.958258 -42.437781 
L 322.081473 -42.346766 
L 321.204689 -42.271358 
L 320.327904 -42.210182 
L 319.451119 -42.161561 
L 318.574334 -42.123691 
L 317.697549 -42.094773 
L 316.820764 -42.073117 
L 315.943979 -42.05721 
L 315.067194 -42.045745 
z
" id="maa738eed67" style="stroke:#dd8452;"/>
    </defs>
    <g clip-path="url(#p4c9b257acc)">
     <use style="fill:#dd8452;fill-opacity:0.25;stroke:#dd8452;" x="0" xlink:href="#maa738eed67" y="390.116719"/>
    </g>
   </g>
   <g id="PolyCollection_4">
    <defs>
     <path d="M 487.568597 -42.133819 
L 487.568597 -42.021094 
L 488.597829 -42.021094 
L 489.62706 -42.021094 
L 490.656292 -42.021094 
L 491.685523 -42.021094 
L 492.714755 -42.021094 
L 493.743986 -42.021094 
L 494.773218 -42.021094 
L 495.802449 -42.021094 
L 496.831681 -42.021094 
L 497.860912 -42.021094 
L 498.890144 -42.021094 
L 499.919375 -42.021094 
L 500.948607 -42.021094 
L 501.977838 -42.021094 
L 503.00707 -42.021094 
L 504.036301 -42.021094 
L 505.065533 -42.021094 
L 506.094764 -42.021094 
L 507.123996 -42.021094 
L 508.153227 -42.021094 
L 509.182459 -42.021094 
L 510.21169 -42.021094 
L 511.240922 -42.021094 
L 512.270153 -42.021094 
L 513.299385 -42.021094 
L 514.328616 -42.021094 
L 515.357848 -42.021094 
L 516.387079 -42.021094 
L 517.416311 -42.021094 
L 518.445542 -42.021094 
L 519.474774 -42.021094 
L 520.504005 -42.021094 
L 521.533237 -42.021094 
L 522.562469 -42.021094 
L 523.5917 -42.021094 
L 524.620932 -42.021094 
L 525.650163 -42.021094 
L 526.679395 -42.021094 
L 527.708626 -42.021094 
L 528.737858 -42.021094 
L 529.767089 -42.021094 
L 530.796321 -42.021094 
L 531.825552 -42.021094 
L 532.854784 -42.021094 
L 533.884015 -42.021094 
L 534.913247 -42.021094 
L 535.942478 -42.021094 
L 536.97171 -42.021094 
L 538.000941 -42.021094 
L 539.030173 -42.021094 
L 540.059404 -42.021094 
L 541.088636 -42.021094 
L 542.117867 -42.021094 
L 543.147099 -42.021094 
L 544.17633 -42.021094 
L 545.205562 -42.021094 
L 546.234793 -42.021094 
L 547.264025 -42.021094 
L 548.293256 -42.021094 
L 549.322488 -42.021094 
L 550.351719 -42.021094 
L 551.380951 -42.021094 
L 552.410182 -42.021094 
L 553.439414 -42.021094 
L 554.468645 -42.021094 
L 555.497877 -42.021094 
L 556.527108 -42.021094 
L 557.55634 -42.021094 
L 558.585571 -42.021094 
L 559.614803 -42.021094 
L 560.644034 -42.021094 
L 561.673266 -42.021094 
L 562.702497 -42.021094 
L 563.731729 -42.021094 
L 564.76096 -42.021094 
L 565.790192 -42.021094 
L 566.819423 -42.021094 
L 567.848655 -42.021094 
L 568.877886 -42.021094 
L 569.907118 -42.021094 
L 570.936349 -42.021094 
L 571.965581 -42.021094 
L 572.994812 -42.021094 
L 574.024044 -42.021094 
L 575.053276 -42.021094 
L 576.082507 -42.021094 
L 577.111739 -42.021094 
L 578.14097 -42.021094 
L 579.170202 -42.021094 
L 580.199433 -42.021094 
L 581.228665 -42.021094 
L 582.257896 -42.021094 
L 583.287128 -42.021094 
L 584.316359 -42.021094 
L 585.345591 -42.021094 
L 586.374822 -42.021094 
L 587.404054 -42.021094 
L 588.433285 -42.021094 
L 589.462517 -42.021094 
L 590.491748 -42.021094 
L 591.52098 -42.021094 
L 592.550211 -42.021094 
L 593.579443 -42.021094 
L 594.608674 -42.021094 
L 595.637906 -42.021094 
L 596.667137 -42.021094 
L 597.696369 -42.021094 
L 598.7256 -42.021094 
L 599.754832 -42.021094 
L 600.784063 -42.021094 
L 601.813295 -42.021094 
L 602.842526 -42.021094 
L 603.871758 -42.021094 
L 604.900989 -42.021094 
L 605.930221 -42.021094 
L 606.959452 -42.021094 
L 607.988684 -42.021094 
L 609.017915 -42.021094 
L 610.047147 -42.021094 
L 611.076378 -42.021094 
L 612.10561 -42.021094 
L 613.134841 -42.021094 
L 614.164073 -42.021094 
L 615.193304 -42.021094 
L 616.222536 -42.021094 
L 617.251767 -42.021094 
L 618.280999 -42.021094 
L 619.31023 -42.021094 
L 620.339462 -42.021094 
L 621.368693 -42.021094 
L 622.397925 -42.021094 
L 623.427156 -42.021094 
L 624.456388 -42.021094 
L 625.485619 -42.021094 
L 626.514851 -42.021094 
L 627.544082 -42.021094 
L 628.573314 -42.021094 
L 629.602546 -42.021094 
L 630.631777 -42.021094 
L 631.661009 -42.021094 
L 632.69024 -42.021094 
L 633.719472 -42.021094 
L 634.748703 -42.021094 
L 635.777935 -42.021094 
L 636.807166 -42.021094 
L 637.836398 -42.021094 
L 638.865629 -42.021094 
L 639.894861 -42.021094 
L 640.924092 -42.021094 
L 641.953324 -42.021094 
L 642.982555 -42.021094 
L 644.011787 -42.021094 
L 645.041018 -42.021094 
L 646.07025 -42.021094 
L 647.099481 -42.021094 
L 648.128713 -42.021094 
L 649.157944 -42.021094 
L 650.187176 -42.021094 
L 651.216407 -42.021094 
L 652.245639 -42.021094 
L 653.27487 -42.021094 
L 654.304102 -42.021094 
L 655.333333 -42.021094 
L 656.362565 -42.021094 
L 657.391796 -42.021094 
L 658.421028 -42.021094 
L 659.450259 -42.021094 
L 660.479491 -42.021094 
L 661.508722 -42.021094 
L 662.537954 -42.021094 
L 663.567185 -42.021094 
L 664.596417 -42.021094 
L 665.625648 -42.021094 
L 666.65488 -42.021094 
L 667.684111 -42.021094 
L 668.713343 -42.021094 
L 669.742574 -42.021094 
L 670.771806 -42.021094 
L 671.801037 -42.021094 
L 672.830269 -42.021094 
L 673.8595 -42.021094 
L 674.888732 -42.021094 
L 675.917963 -42.021094 
L 676.947195 -42.021094 
L 677.976426 -42.021094 
L 679.005658 -42.021094 
L 680.034889 -42.021094 
L 681.064121 -42.021094 
L 682.093353 -42.021094 
L 683.122584 -42.021094 
L 684.151816 -42.021094 
L 685.181047 -42.021094 
L 686.210279 -42.021094 
L 687.23951 -42.021094 
L 688.268742 -42.021094 
L 689.297973 -42.021094 
L 690.327205 -42.021094 
L 691.356436 -42.021094 
L 692.385668 -42.021094 
L 692.385668 -42.105743 
L 692.385668 -42.105743 
L 691.356436 -42.130698 
L 690.327205 -42.161946 
L 689.297973 -42.200747 
L 688.268742 -42.248526 
L 687.23951 -42.306871 
L 686.210279 -42.377524 
L 685.181047 -42.462372 
L 684.151816 -42.563419 
L 683.122584 -42.682766 
L 682.093353 -42.822573 
L 681.064121 -42.985022 
L 680.034889 -43.172281 
L 679.005658 -43.386459 
L 677.976426 -43.629585 
L 676.947195 -43.903586 
L 675.917963 -44.210289 
L 674.888732 -44.551457 
L 673.8595 -44.928847 
L 672.830269 -45.344326 
L 671.801037 -45.800022 
L 670.771806 -46.298542 
L 669.742574 -46.84323 
L 668.713343 -47.438498 
L 667.684111 -48.090187 
L 666.65488 -48.805982 
L 665.625648 -49.595835 
L 664.596417 -50.472398 
L 663.567185 -51.451417 
L 662.537954 -52.552073 
L 661.508722 -53.797219 
L 660.479491 -55.213475 
L 659.450259 -56.83115 
L 658.421028 -58.683938 
L 657.391796 -60.808368 
L 656.362565 -63.242975 
L 655.333333 -66.027182 
L 654.304102 -69.199891 
L 653.27487 -72.797809 
L 652.245639 -76.853541 
L 651.216407 -81.393508 
L 650.187176 -86.435778 
L 649.157944 -91.987899 
L 648.128713 -98.044849 
L 647.099481 -104.587226 
L 646.07025 -111.579808 
L 645.041018 -118.970599 
L 644.011787 -126.690479 
L 642.982555 -134.653541 
L 641.953324 -142.758185 
L 640.924092 -150.888984 
L 639.894861 -158.919318 
L 638.865629 -166.714709 
L 637.836398 -174.136748 
L 636.807166 -181.047485 
L 635.777935 -187.314077 
L 634.748703 -192.813507 
L 633.719472 -197.437134 
L 632.69024 -201.094848 
L 631.661009 -203.718625 
L 630.631777 -205.265272 
L 629.602546 -205.718223 
L 628.573314 -205.08827 
L 627.544082 -203.413183 
L 626.514851 -200.75622 
L 625.485619 -197.203607 
L 624.456388 -192.861099 
L 623.427156 -187.84981 
L 622.397925 -182.301501 
L 621.368693 -176.35359 
L 620.339462 -170.144108 
L 619.31023 -163.806851 
L 618.280999 -157.466957 
L 617.251767 -151.237108 
L 616.222536 -145.214486 
L 615.193304 -139.478627 
L 614.164073 -134.090195 
L 613.134841 -129.090699 
L 612.10561 -124.503096 
L 611.076378 -120.333189 
L 610.047147 -116.571701 
L 609.017915 -113.196847 
L 607.988684 -110.177261 
L 606.959452 -107.475068 
L 605.930221 -105.048945 
L 604.900989 -102.857009 
L 603.871758 -100.85937 
L 602.842526 -99.02027 
L 601.813295 -97.309691 
L 600.784063 -95.704422 
L 599.754832 -94.18854 
L 598.7256 -92.753353 
L 597.696369 -91.396844 
L 596.667137 -90.122695 
L 595.637906 -88.938986 
L 594.608674 -87.856689 
L 593.579443 -86.888051 
L 592.550211 -86.044997 
L 591.52098 -85.337659 
L 590.491748 -84.773113 
L 589.462517 -84.35441 
L 588.433285 -84.079957 
L 587.404054 -83.943267 
L 586.374822 -83.933099 
L 585.345591 -84.033965 
L 584.316359 -84.226952 
L 583.287128 -84.490822 
L 582.257896 -84.803292 
L 581.228665 -85.14242 
L 580.199433 -85.488004 
L 579.170202 -85.822888 
L 578.14097 -86.134107 
L 577.111739 -86.413775 
L 576.082507 -86.659665 
L 575.053276 -86.875427 
L 574.024044 -87.07043 
L 572.994812 -87.259221 
L 571.965581 -87.460626 
L 570.936349 -87.696535 
L 569.907118 -87.990442 
L 568.877886 -88.365808 
L 567.848655 -88.844353 
L 566.819423 -89.444365 
L 565.790192 -90.179132 
L 564.76096 -91.055586 
L 563.731729 -92.07325 
L 562.702497 -93.223556 
L 561.673266 -94.489571 
L 560.644034 -95.846183 
L 559.614803 -97.260722 
L 558.585571 -98.694011 
L 557.55634 -100.101788 
L 556.527108 -101.43644 
L 555.497877 -102.648951 
L 554.468645 -103.690972 
L 553.439414 -104.516905 
L 552.410182 -105.085881 
L 551.380951 -105.363551 
L 550.351719 -105.323576 
L 549.322488 -104.948753 
L 548.293256 -104.231723 
L 547.264025 -103.175225 
L 546.234793 -101.791898 
L 545.205562 -100.103643 
L 544.17633 -98.140597 
L 543.147099 -95.939774 
L 542.117867 -93.543454 
L 541.088636 -90.997416 
L 540.059404 -88.349095 
L 539.030173 -85.645772 
L 538.000941 -82.932867 
L 536.97171 -80.25243 
L 535.942478 -77.641869 
L 534.913247 -75.132982 
L 533.884015 -72.751301 
L 532.854784 -70.515765 
L 531.825552 -68.438702 
L 530.796321 -66.526108 
L 529.767089 -64.778166 
L 528.737858 -63.189971 
L 527.708626 -61.752399 
L 526.679395 -60.453061 
L 525.650163 -59.277292 
L 524.620932 -58.209122 
L 523.5917 -57.23218 
L 522.562469 -56.330495 
L 521.533237 -55.489171 
L 520.504005 -54.694912 
L 519.474774 -53.936396 
L 518.445542 -53.204496 
L 517.416311 -52.492352 
L 516.387079 -51.795324 
L 515.357848 -51.110834 
L 514.328616 -50.438121 
L 513.299385 -49.77794 
L 512.270153 -49.132232 
L 511.240922 -48.503773 
L 510.21169 -47.895843 
L 509.182459 -47.311906 
L 508.153227 -46.755346 
L 507.123996 -46.229237 
L 506.094764 -45.736171 
L 505.065533 -45.278135 
L 504.036301 -44.856445 
L 503.00707 -44.471722 
L 501.977838 -44.123907 
L 500.948607 -43.812311 
L 499.919375 -43.53569 
L 498.890144 -43.292332 
L 497.860912 -43.08016 
L 496.831681 -42.896828 
L 495.802449 -42.73982 
L 494.773218 -42.606541 
L 493.743986 -42.494396 
L 492.714755 -42.400854 
L 491.685523 -42.323503 
L 490.656292 -42.260091 
L 489.62706 -42.208549 
L 488.597829 -42.167011 
L 487.568597 -42.133819 
z
" id="m91ed33352e" style="stroke:#4c72b0;"/>
    </defs>
    <g clip-path="url(#p4c9b257acc)">
     <use style="fill:#4c72b0;fill-opacity:0.25;stroke:#4c72b0;" x="0" xlink:href="#m91ed33352e" y="390.116719"/>
    </g>
   </g>
   <g id="patch_3">
    <path d="M 53.222031 348.095625 
L 53.222031 21.935625 
" style="fill:none;stroke:#ffffff;stroke-linecap:square;stroke-linejoin:miter;stroke-width:1.25;"/>
   </g>
   <g id="patch_4">
    <path d="M 722.822031 348.095625 
L 722.822031 21.935625 
" style="fill:none;stroke:#ffffff;stroke-linecap:square;stroke-linejoin:miter;stroke-width:1.25;"/>
   </g>
   <g id="patch_5">
    <path d="M 53.222031 348.095625 
L 722.822031 348.095625 
" style="fill:none;stroke:#ffffff;stroke-linecap:square;stroke-linejoin:miter;stroke-width:1.25;"/>
   </g>
   <g id="patch_6">
    <path d="M 53.222031 21.935625 
L 722.822031 21.935625 
" style="fill:none;stroke:#ffffff;stroke-linecap:square;stroke-linejoin:miter;stroke-width:1.25;"/>
   </g>
   <g id="text_14">
    <!-- Density Estimation of RSSI Values at Different Distances -->
    <g style="fill:#262626;" transform="translate(237.512031 15.935625)scale(0.12 -0.12)">
     <defs>
      <path d="M 8.6875 0 
L 8.6875 45.015625 
L 0.921875 45.015625 
L 0.921875 51.859375 
L 8.6875 51.859375 
L 8.6875 57.375 
Q 8.6875 62.59375 9.625 65.140625 
Q 10.890625 68.5625 14.078125 70.671875 
Q 17.28125 72.796875 23.046875 72.796875 
Q 26.765625 72.796875 31.25 71.921875 
L 29.9375 64.265625 
Q 27.203125 64.75 24.75 64.75 
Q 20.75 64.75 19.09375 63.03125 
Q 17.4375 61.328125 17.4375 56.640625 
L 17.4375 51.859375 
L 27.546875 51.859375 
L 27.546875 45.015625 
L 17.4375 45.015625 
L 17.4375 0 
z
" id="ArialMT-102"/>
      <path d="M 40.4375 19 
L 49.078125 17.875 
Q 47.65625 8.9375 41.8125 3.875 
Q 35.984375 -1.171875 27.484375 -1.171875 
Q 16.84375 -1.171875 10.375 5.78125 
Q 3.90625 12.75 3.90625 25.734375 
Q 3.90625 34.125 6.6875 40.421875 
Q 9.46875 46.734375 15.15625 49.875 
Q 20.84375 53.03125 27.546875 53.03125 
Q 35.984375 53.03125 41.359375 48.75 
Q 46.734375 44.484375 48.25 36.625 
L 39.703125 35.296875 
Q 38.484375 40.53125 35.375 43.15625 
Q 32.28125 45.796875 27.875 45.796875 
Q 21.234375 45.796875 17.078125 41.03125 
Q 12.9375 36.28125 12.9375 25.984375 
Q 12.9375 15.53125 16.9375 10.796875 
Q 20.953125 6.0625 27.390625 6.0625 
Q 32.5625 6.0625 36.03125 9.234375 
Q 39.5 12.40625 40.4375 19 
z
" id="ArialMT-99"/>
     </defs>
     <use xlink:href="#ArialMT-68"/>
     <use x="72.216797" xlink:href="#ArialMT-101"/>
     <use x="127.832031" xlink:href="#ArialMT-110"/>
     <use x="183.447266" xlink:href="#ArialMT-115"/>
     <use x="233.447266" xlink:href="#ArialMT-105"/>
     <use x="255.664062" xlink:href="#ArialMT-116"/>
     <use x="283.447266" xlink:href="#ArialMT-121"/>
     <use x="333.447266" xlink:href="#ArialMT-32"/>
     <use x="361.230469" xlink:href="#ArialMT-69"/>
     <use x="427.929688" xlink:href="#ArialMT-115"/>
     <use x="477.929688" xlink:href="#ArialMT-116"/>
     <use x="505.712891" xlink:href="#ArialMT-105"/>
     <use x="527.929688" xlink:href="#ArialMT-109"/>
     <use x="611.230469" xlink:href="#ArialMT-97"/>
     <use x="666.845703" xlink:href="#ArialMT-116"/>
     <use x="694.628906" xlink:href="#ArialMT-105"/>
     <use x="716.845703" xlink:href="#ArialMT-111"/>
     <use x="772.460938" xlink:href="#ArialMT-110"/>
     <use x="828.076172" xlink:href="#ArialMT-32"/>
     <use x="855.859375" xlink:href="#ArialMT-111"/>
     <use x="911.474609" xlink:href="#ArialMT-102"/>
     <use x="939.257812" xlink:href="#ArialMT-32"/>
     <use x="967.041016" xlink:href="#ArialMT-82"/>
     <use x="1039.257812" xlink:href="#ArialMT-83"/>
     <use x="1105.957031" xlink:href="#ArialMT-83"/>
     <use x="1172.65625" xlink:href="#ArialMT-73"/>
     <use x="1200.439453" xlink:href="#ArialMT-32"/>
     <use x="1228.222656" xlink:href="#ArialMT-86"/>
     <use x="1287.546875" xlink:href="#ArialMT-97"/>
     <use x="1343.162109" xlink:href="#ArialMT-108"/>
     <use x="1365.378906" xlink:href="#ArialMT-117"/>
     <use x="1420.994141" xlink:href="#ArialMT-101"/>
     <use x="1476.609375" xlink:href="#ArialMT-115"/>
     <use x="1526.609375" xlink:href="#ArialMT-32"/>
     <use x="1554.392578" xlink:href="#ArialMT-97"/>
     <use x="1610.007812" xlink:href="#ArialMT-116"/>
     <use x="1637.791016" xlink:href="#ArialMT-32"/>
     <use x="1665.574219" xlink:href="#ArialMT-68"/>
     <use x="1737.791016" xlink:href="#ArialMT-105"/>
     <use x="1760.007812" xlink:href="#ArialMT-102"/>
     <use x="1786.041016" xlink:href="#ArialMT-102"/>
     <use x="1813.824219" xlink:href="#ArialMT-101"/>
     <use x="1869.439453" xlink:href="#ArialMT-114"/>
     <use x="1902.740234" xlink:href="#ArialMT-101"/>
     <use x="1958.355469" xlink:href="#ArialMT-110"/>
     <use x="2013.970703" xlink:href="#ArialMT-116"/>
     <use x="2041.753906" xlink:href="#ArialMT-32"/>
     <use x="2069.537109" xlink:href="#ArialMT-68"/>
     <use x="2141.753906" xlink:href="#ArialMT-105"/>
     <use x="2163.970703" xlink:href="#ArialMT-115"/>
     <use x="2213.970703" xlink:href="#ArialMT-116"/>
     <use x="2241.753906" xlink:href="#ArialMT-97"/>
     <use x="2297.369141" xlink:href="#ArialMT-110"/>
     <use x="2352.984375" xlink:href="#ArialMT-99"/>
     <use x="2402.984375" xlink:href="#ArialMT-101"/>
     <use x="2458.599609" xlink:href="#ArialMT-115"/>
    </g>
   </g>
   <g id="legend_1">
    <g id="patch_7">
     <path d="M 655.469375 92.975 
L 715.122031 92.975 
Q 717.322031 92.975 717.322031 90.775 
L 717.322031 29.635625 
Q 717.322031 27.435625 715.122031 27.435625 
L 655.469375 27.435625 
Q 653.269375 27.435625 653.269375 29.635625 
L 653.269375 90.775 
Q 653.269375 92.975 655.469375 92.975 
z
" style="fill:#eaeaf2;opacity:0.8;stroke:#cccccc;stroke-linejoin:miter;"/>
    </g>
    <g id="patch_8">
     <path d="M 657.669375 39.709219 
L 679.669375 39.709219 
L 679.669375 32.009219 
L 657.669375 32.009219 
z
" style="fill:#4c72b0;fill-opacity:0.25;stroke:#4c72b0;stroke-linejoin:miter;"/>
    </g>
    <g id="text_15">
     <!-- 0.5m -->
     <g style="fill:#262626;" transform="translate(688.469375 39.709219)scale(0.11 -0.11)">
      <use xlink:href="#ArialMT-48"/>
      <use x="55.615234" xlink:href="#ArialMT-46"/>
      <use x="83.398438" xlink:href="#ArialMT-53"/>
      <use x="139.013672" xlink:href="#ArialMT-109"/>
     </g>
    </g>
    <g id="patch_9">
     <path d="M 657.669375 55.269063 
L 679.669375 55.269063 
L 679.669375 47.569063 
L 657.669375 47.569063 
z
" style="fill:#dd8452;fill-opacity:0.25;stroke:#dd8452;stroke-linejoin:miter;"/>
    </g>
    <g id="text_16">
     <!-- 1.0m -->
     <g style="fill:#262626;" transform="translate(688.469375 55.269063)scale(0.11 -0.11)">
      <use xlink:href="#ArialMT-49"/>
      <use x="55.615234" xlink:href="#ArialMT-46"/>
      <use x="83.398438" xlink:href="#ArialMT-48"/>
      <use x="139.013672" xlink:href="#ArialMT-109"/>
     </g>
    </g>
    <g id="patch_10">
     <path d="M 657.669375 70.828906 
L 679.669375 70.828906 
L 679.669375 63.128906 
L 657.669375 63.128906 
z
" style="fill:#55a868;fill-opacity:0.25;stroke:#55a868;stroke-linejoin:miter;"/>
    </g>
    <g id="text_17">
     <!-- 1.5m -->
     <g style="fill:#262626;" transform="translate(688.469375 70.828906)scale(0.11 -0.11)">
      <use xlink:href="#ArialMT-49"/>
      <use x="55.615234" xlink:href="#ArialMT-46"/>
      <use x="83.398438" xlink:href="#ArialMT-53"/>
      <use x="139.013672" xlink:href="#ArialMT-109"/>
     </g>
    </g>
    <g id="patch_11">
     <path d="M 657.669375 86.38875 
L 679.669375 86.38875 
L 679.669375 78.68875 
L 657.669375 78.68875 
z
" style="fill:#c44e52;fill-opacity:0.25;stroke:#c44e52;stroke-linejoin:miter;"/>
    </g>
    <g id="text_18">
     <!-- 2.0m -->
     <g style="fill:#262626;" transform="translate(688.469375 86.38875)scale(0.11 -0.11)">
      <use xlink:href="#ArialMT-50"/>
      <use x="55.615234" xlink:href="#ArialMT-46"/>
      <use x="83.398438" xlink:href="#ArialMT-48"/>
      <use x="139.013672" xlink:href="#ArialMT-109"/>
     </g>
    </g>
   </g>
  </g>
 </g>
 <defs>
  <clipPath id="p4c9b257acc">
   <rect height="326.16" width="669.6" x="53.222031" y="21.935625"/>
  </clipPath>
 </defs>
</svg>
