<?xml version="1.0" encoding="utf-8" standalone="no"?>
<!DOCTYPE svg PUBLIC "-//W3C//DTD SVG 1.1//EN"
  "http://www.w3.org/Graphics/SVG/1.1/DTD/svg11.dtd">
<!-- Created with matplotlib (https://matplotlib.org/) -->
<svg height="390.116719pt" version="1.1" viewBox="0 0 730.022031 390.116719" width="730.022031pt" xmlns="http://www.w3.org/2000/svg" xmlns:xlink="http://www.w3.org/1999/xlink">
 <metadata>
  <rdf:RDF xmlns:cc="http://creativecommons.org/ns#" xmlns:dc="http://purl.org/dc/elements/1.1/" xmlns:rdf="http://www.w3.org/1999/02/22-rdf-syntax-ns#">
   <cc:Work>
    <dc:type rdf:resource="http://purl.org/dc/dcmitype/StillImage"/>
    <dc:date>2021-02-09T21:41:58.418189</dc:date>
    <dc:format>image/svg+xml</dc:format>
    <dc:creator>
     <cc:Agent>
      <dc:title>Matplotlib v3.3.2, https://matplotlib.org/</dc:title>
     </cc:Agent>
    </dc:creator>
   </cc:Work>
  </rdf:RDF>
 </metadata>
 <defs>
  <style type="text/css">*{stroke-linecap:butt;stroke-linejoin:round;}</style>
 </defs>
 <g id="figure_1">
  <g id="patch_1">
   <path d="M 0 390.116719 
L 730.022031 390.116719 
L 730.022031 0 
L 0 0 
z
" style="fill:#ffffff;"/>
  </g>
  <g id="axes_1">
   <g id="patch_2">
    <path d="M 53.222031 348.095625 
L 722.822031 348.095625 
L 722.822031 21.935625 
L 53.222031 21.935625 
z
" style="fill:#eaeaf2;"/>
   </g>
   <g id="matplotlib.axis_1">
    <g id="xtick_1">
     <g id="line2d_1">
      <path clip-path="url(#p0191c03c42)" d="M 79.678214 348.095625 
L 79.678214 21.935625 
" style="fill:none;stroke:#ffffff;stroke-linecap:round;"/>
     </g>
     <g id="text_1">
      <!-- −90 -->
      <g style="fill:#262626;" transform="translate(70.348839 365.469219)scale(0.11 -0.11)">
       <defs>
        <path d="M 52.828125 31.203125 
L 5.5625 31.203125 
L 5.5625 39.40625 
L 52.828125 39.40625 
z
" id="ArialMT-8722"/>
        <path d="M 5.46875 16.546875 
L 13.921875 17.328125 
Q 14.984375 11.375 18.015625 8.6875 
Q 21.046875 6 25.78125 6 
Q 29.828125 6 32.875 7.859375 
Q 35.9375 9.71875 37.890625 12.8125 
Q 39.84375 15.921875 41.15625 21.1875 
Q 42.484375 26.46875 42.484375 31.9375 
Q 42.484375 32.515625 42.4375 33.6875 
Q 39.796875 29.5 35.234375 26.875 
Q 30.671875 24.265625 25.34375 24.265625 
Q 16.453125 24.265625 10.296875 30.703125 
Q 4.15625 37.15625 4.15625 47.703125 
Q 4.15625 58.59375 10.578125 65.234375 
Q 17 71.875 26.65625 71.875 
Q 33.640625 71.875 39.421875 68.109375 
Q 45.21875 64.359375 48.21875 57.390625 
Q 51.21875 50.4375 51.21875 37.25 
Q 51.21875 23.53125 48.234375 15.40625 
Q 45.265625 7.28125 39.375 3.03125 
Q 33.5 -1.21875 25.59375 -1.21875 
Q 17.1875 -1.21875 11.859375 3.4375 
Q 6.546875 8.109375 5.46875 16.546875 
z
M 41.453125 48.140625 
Q 41.453125 55.71875 37.421875 60.15625 
Q 33.40625 64.59375 27.734375 64.59375 
Q 21.875 64.59375 17.53125 59.8125 
Q 13.1875 55.03125 13.1875 47.40625 
Q 13.1875 40.578125 17.3125 36.296875 
Q 21.4375 32.03125 27.484375 32.03125 
Q 33.59375 32.03125 37.515625 36.296875 
Q 41.453125 40.578125 41.453125 48.140625 
z
" id="ArialMT-57"/>
        <path d="M 4.15625 35.296875 
Q 4.15625 48 6.765625 55.734375 
Q 9.375 63.484375 14.515625 67.671875 
Q 19.671875 71.875 27.484375 71.875 
Q 33.25 71.875 37.59375 69.546875 
Q 41.9375 67.234375 44.765625 62.859375 
Q 47.609375 58.5 49.21875 52.21875 
Q 50.828125 45.953125 50.828125 35.296875 
Q 50.828125 22.703125 48.234375 14.96875 
Q 45.65625 7.234375 40.5 3 
Q 35.359375 -1.21875 27.484375 -1.21875 
Q 17.140625 -1.21875 11.234375 6.203125 
Q 4.15625 15.140625 4.15625 35.296875 
z
M 13.1875 35.296875 
Q 13.1875 17.671875 17.3125 11.828125 
Q 21.4375 6 27.484375 6 
Q 33.546875 6 37.671875 11.859375 
Q 41.796875 17.71875 41.796875 35.296875 
Q 41.796875 52.984375 37.671875 58.78125 
Q 33.546875 64.59375 27.390625 64.59375 
Q 21.34375 64.59375 17.71875 59.46875 
Q 13.1875 52.9375 13.1875 35.296875 
z
" id="ArialMT-48"/>
       </defs>
       <use xlink:href="#ArialMT-8722"/>
       <use x="58.398438" xlink:href="#ArialMT-57"/>
       <use x="114.013672" xlink:href="#ArialMT-48"/>
      </g>
     </g>
    </g>
    <g id="xtick_2">
     <g id="line2d_2">
      <path clip-path="url(#p0191c03c42)" d="M 221.210351 348.095625 
L 221.210351 21.935625 
" style="fill:none;stroke:#ffffff;stroke-linecap:round;"/>
     </g>
     <g id="text_2">
      <!-- −85 -->
      <g style="fill:#262626;" transform="translate(211.880976 365.469219)scale(0.11 -0.11)">
       <defs>
        <path d="M 17.671875 38.8125 
Q 12.203125 40.828125 9.5625 44.53125 
Q 6.9375 48.25 6.9375 53.421875 
Q 6.9375 61.234375 12.546875 66.546875 
Q 18.171875 71.875 27.484375 71.875 
Q 36.859375 71.875 42.578125 66.421875 
Q 48.296875 60.984375 48.296875 53.171875 
Q 48.296875 48.1875 45.671875 44.5 
Q 43.0625 40.828125 37.75 38.8125 
Q 44.34375 36.671875 47.78125 31.875 
Q 51.21875 27.09375 51.21875 20.453125 
Q 51.21875 11.28125 44.71875 5.03125 
Q 38.234375 -1.21875 27.640625 -1.21875 
Q 17.046875 -1.21875 10.546875 5.046875 
Q 4.046875 11.328125 4.046875 20.703125 
Q 4.046875 27.6875 7.59375 32.390625 
Q 11.140625 37.109375 17.671875 38.8125 
z
M 15.921875 53.71875 
Q 15.921875 48.640625 19.1875 45.40625 
Q 22.46875 42.1875 27.6875 42.1875 
Q 32.765625 42.1875 36.015625 45.375 
Q 39.265625 48.578125 39.265625 53.21875 
Q 39.265625 58.0625 35.90625 61.359375 
Q 32.5625 64.65625 27.59375 64.65625 
Q 22.5625 64.65625 19.234375 61.421875 
Q 15.921875 58.203125 15.921875 53.71875 
z
M 13.09375 20.65625 
Q 13.09375 16.890625 14.875 13.375 
Q 16.65625 9.859375 20.171875 7.921875 
Q 23.6875 6 27.734375 6 
Q 34.03125 6 38.125 10.046875 
Q 42.234375 14.109375 42.234375 20.359375 
Q 42.234375 26.703125 38.015625 30.859375 
Q 33.796875 35.015625 27.4375 35.015625 
Q 21.234375 35.015625 17.15625 30.90625 
Q 13.09375 26.8125 13.09375 20.65625 
z
" id="ArialMT-56"/>
        <path d="M 4.15625 18.75 
L 13.375 19.53125 
Q 14.40625 12.796875 18.140625 9.390625 
Q 21.875 6 27.15625 6 
Q 33.5 6 37.890625 10.78125 
Q 42.28125 15.578125 42.28125 23.484375 
Q 42.28125 31 38.0625 35.34375 
Q 33.84375 39.703125 27 39.703125 
Q 22.75 39.703125 19.328125 37.765625 
Q 15.921875 35.84375 13.96875 32.765625 
L 5.71875 33.84375 
L 12.640625 70.609375 
L 48.25 70.609375 
L 48.25 62.203125 
L 19.671875 62.203125 
L 15.828125 42.96875 
Q 22.265625 47.46875 29.34375 47.46875 
Q 38.71875 47.46875 45.15625 40.96875 
Q 51.609375 34.46875 51.609375 24.265625 
Q 51.609375 14.546875 45.953125 7.46875 
Q 39.0625 -1.21875 27.15625 -1.21875 
Q 17.390625 -1.21875 11.203125 4.25 
Q 5.03125 9.71875 4.15625 18.75 
z
" id="ArialMT-53"/>
       </defs>
       <use xlink:href="#ArialMT-8722"/>
       <use x="58.398438" xlink:href="#ArialMT-56"/>
       <use x="114.013672" xlink:href="#ArialMT-53"/>
      </g>
     </g>
    </g>
    <g id="xtick_3">
     <g id="line2d_3">
      <path clip-path="url(#p0191c03c42)" d="M 362.742488 348.095625 
L 362.742488 21.935625 
" style="fill:none;stroke:#ffffff;stroke-linecap:round;"/>
     </g>
     <g id="text_3">
      <!-- −80 -->
      <g style="fill:#262626;" transform="translate(353.413113 365.469219)scale(0.11 -0.11)">
       <use xlink:href="#ArialMT-8722"/>
       <use x="58.398438" xlink:href="#ArialMT-56"/>
       <use x="114.013672" xlink:href="#ArialMT-48"/>
      </g>
     </g>
    </g>
    <g id="xtick_4">
     <g id="line2d_4">
      <path clip-path="url(#p0191c03c42)" d="M 504.274625 348.095625 
L 504.274625 21.935625 
" style="fill:none;stroke:#ffffff;stroke-linecap:round;"/>
     </g>
     <g id="text_4">
      <!-- −75 -->
      <g style="fill:#262626;" transform="translate(494.94525 365.469219)scale(0.11 -0.11)">
       <defs>
        <path d="M 4.734375 62.203125 
L 4.734375 70.65625 
L 51.078125 70.65625 
L 51.078125 63.8125 
Q 44.234375 56.546875 37.515625 44.484375 
Q 30.8125 32.421875 27.15625 19.671875 
Q 24.515625 10.6875 23.78125 0 
L 14.75 0 
Q 14.890625 8.453125 18.0625 20.40625 
Q 21.234375 32.375 27.171875 43.484375 
Q 33.109375 54.59375 39.796875 62.203125 
z
" id="ArialMT-55"/>
       </defs>
       <use xlink:href="#ArialMT-8722"/>
       <use x="58.398438" xlink:href="#ArialMT-55"/>
       <use x="114.013672" xlink:href="#ArialMT-53"/>
      </g>
     </g>
    </g>
    <g id="xtick_5">
     <g id="line2d_5">
      <path clip-path="url(#p0191c03c42)" d="M 645.806762 348.095625 
L 645.806762 21.935625 
" style="fill:none;stroke:#ffffff;stroke-linecap:round;"/>
     </g>
     <g id="text_5">
      <!-- −70 -->
      <g style="fill:#262626;" transform="translate(636.477387 365.469219)scale(0.11 -0.11)">
       <use xlink:href="#ArialMT-8722"/>
       <use x="58.398438" xlink:href="#ArialMT-55"/>
       <use x="114.013672" xlink:href="#ArialMT-48"/>
      </g>
     </g>
    </g>
    <g id="text_6">
     <!-- RSSI Value (Higher Values Stronger) -->
     <g style="fill:#262626;" transform="translate(289.864844 380.391094)scale(0.12 -0.12)">
      <defs>
       <path d="M 7.859375 0 
L 7.859375 71.578125 
L 39.59375 71.578125 
Q 49.171875 71.578125 54.140625 69.640625 
Q 59.125 67.71875 62.109375 62.828125 
Q 65.09375 57.953125 65.09375 52.046875 
Q 65.09375 44.4375 60.15625 39.203125 
Q 55.21875 33.984375 44.921875 32.5625 
Q 48.6875 30.765625 50.640625 29 
Q 54.78125 25.203125 58.5 19.484375 
L 70.953125 0 
L 59.03125 0 
L 49.5625 14.890625 
Q 45.40625 21.34375 42.71875 24.75 
Q 40.046875 28.171875 37.921875 29.53125 
Q 35.796875 30.90625 33.59375 31.453125 
Q 31.984375 31.78125 28.328125 31.78125 
L 17.328125 31.78125 
L 17.328125 0 
z
M 17.328125 39.984375 
L 37.703125 39.984375 
Q 44.1875 39.984375 47.84375 41.328125 
Q 51.515625 42.671875 53.421875 45.625 
Q 55.328125 48.578125 55.328125 52.046875 
Q 55.328125 57.125 51.640625 60.390625 
Q 47.953125 63.671875 39.984375 63.671875 
L 17.328125 63.671875 
z
" id="ArialMT-82"/>
       <path d="M 4.5 23 
L 13.421875 23.78125 
Q 14.0625 18.40625 16.375 14.96875 
Q 18.703125 11.53125 23.578125 9.40625 
Q 28.46875 7.28125 34.578125 7.28125 
Q 39.984375 7.28125 44.140625 8.890625 
Q 48.296875 10.5 50.3125 13.296875 
Q 52.34375 16.109375 52.34375 19.4375 
Q 52.34375 22.796875 50.390625 25.3125 
Q 48.4375 27.828125 43.953125 29.546875 
Q 41.0625 30.671875 31.203125 33.03125 
Q 21.34375 35.40625 17.390625 37.5 
Q 12.25 40.1875 9.734375 44.15625 
Q 7.234375 48.140625 7.234375 53.078125 
Q 7.234375 58.5 10.296875 63.203125 
Q 13.375 67.921875 19.28125 70.359375 
Q 25.203125 72.796875 32.421875 72.796875 
Q 40.375 72.796875 46.453125 70.234375 
Q 52.546875 67.671875 55.8125 62.6875 
Q 59.078125 57.71875 59.328125 51.421875 
L 50.25 50.734375 
Q 49.515625 57.515625 45.28125 60.984375 
Q 41.0625 64.453125 32.8125 64.453125 
Q 24.21875 64.453125 20.28125 61.296875 
Q 16.359375 58.15625 16.359375 53.71875 
Q 16.359375 49.859375 19.140625 47.359375 
Q 21.875 44.875 33.421875 42.265625 
Q 44.96875 39.65625 49.265625 37.703125 
Q 55.515625 34.8125 58.484375 30.390625 
Q 61.46875 25.984375 61.46875 20.21875 
Q 61.46875 14.5 58.203125 9.4375 
Q 54.9375 4.390625 48.796875 1.578125 
Q 42.671875 -1.21875 35.015625 -1.21875 
Q 25.296875 -1.21875 18.71875 1.609375 
Q 12.15625 4.4375 8.421875 10.125 
Q 4.6875 15.828125 4.5 23 
z
" id="ArialMT-83"/>
       <path d="M 9.328125 0 
L 9.328125 71.578125 
L 18.796875 71.578125 
L 18.796875 0 
z
" id="ArialMT-73"/>
       <path id="ArialMT-32"/>
       <path d="M 28.171875 0 
L 0.4375 71.578125 
L 10.6875 71.578125 
L 29.296875 19.578125 
Q 31.546875 13.328125 33.0625 7.859375 
Q 34.71875 13.71875 36.921875 19.578125 
L 56.25 71.578125 
L 65.921875 71.578125 
L 37.890625 0 
z
" id="ArialMT-86"/>
       <path d="M 40.4375 6.390625 
Q 35.546875 2.25 31.03125 0.53125 
Q 26.515625 -1.171875 21.34375 -1.171875 
Q 12.796875 -1.171875 8.203125 3 
Q 3.609375 7.171875 3.609375 13.671875 
Q 3.609375 17.484375 5.34375 20.625 
Q 7.078125 23.78125 9.890625 25.6875 
Q 12.703125 27.59375 16.21875 28.5625 
Q 18.796875 29.25 24.03125 29.890625 
Q 34.671875 31.15625 39.703125 32.90625 
Q 39.75 34.71875 39.75 35.203125 
Q 39.75 40.578125 37.25 42.78125 
Q 33.890625 45.75 27.25 45.75 
Q 21.046875 45.75 18.09375 43.578125 
Q 15.140625 41.40625 13.71875 35.890625 
L 5.125 37.0625 
Q 6.296875 42.578125 8.984375 45.96875 
Q 11.671875 49.359375 16.75 51.1875 
Q 21.828125 53.03125 28.515625 53.03125 
Q 35.15625 53.03125 39.296875 51.46875 
Q 43.453125 49.90625 45.40625 47.53125 
Q 47.359375 45.171875 48.140625 41.546875 
Q 48.578125 39.3125 48.578125 33.453125 
L 48.578125 21.734375 
Q 48.578125 9.46875 49.140625 6.21875 
Q 49.703125 2.984375 51.375 0 
L 42.1875 0 
Q 40.828125 2.734375 40.4375 6.390625 
z
M 39.703125 26.03125 
Q 34.90625 24.078125 25.34375 22.703125 
Q 19.921875 21.921875 17.671875 20.9375 
Q 15.4375 19.96875 14.203125 18.09375 
Q 12.984375 16.21875 12.984375 13.921875 
Q 12.984375 10.40625 15.640625 8.0625 
Q 18.3125 5.71875 23.4375 5.71875 
Q 28.515625 5.71875 32.46875 7.9375 
Q 36.421875 10.15625 38.28125 14.015625 
Q 39.703125 17 39.703125 22.796875 
z
" id="ArialMT-97"/>
       <path d="M 6.390625 0 
L 6.390625 71.578125 
L 15.1875 71.578125 
L 15.1875 0 
z
" id="ArialMT-108"/>
       <path d="M 40.578125 0 
L 40.578125 7.625 
Q 34.515625 -1.171875 24.125 -1.171875 
Q 19.53125 -1.171875 15.546875 0.578125 
Q 11.578125 2.34375 9.640625 5 
Q 7.71875 7.671875 6.9375 11.53125 
Q 6.390625 14.109375 6.390625 19.734375 
L 6.390625 51.859375 
L 15.1875 51.859375 
L 15.1875 23.09375 
Q 15.1875 16.21875 15.71875 13.8125 
Q 16.546875 10.359375 19.234375 8.375 
Q 21.921875 6.390625 25.875 6.390625 
Q 29.828125 6.390625 33.296875 8.421875 
Q 36.765625 10.453125 38.203125 13.9375 
Q 39.65625 17.4375 39.65625 24.078125 
L 39.65625 51.859375 
L 48.4375 51.859375 
L 48.4375 0 
z
" id="ArialMT-117"/>
       <path d="M 42.09375 16.703125 
L 51.171875 15.578125 
Q 49.03125 7.625 43.21875 3.21875 
Q 37.40625 -1.171875 28.375 -1.171875 
Q 17 -1.171875 10.328125 5.828125 
Q 3.65625 12.84375 3.65625 25.484375 
Q 3.65625 38.578125 10.390625 45.796875 
Q 17.140625 53.03125 27.875 53.03125 
Q 38.28125 53.03125 44.875 45.953125 
Q 51.46875 38.875 51.46875 26.03125 
Q 51.46875 25.25 51.421875 23.6875 
L 12.75 23.6875 
Q 13.234375 15.140625 17.578125 10.59375 
Q 21.921875 6.0625 28.421875 6.0625 
Q 33.25 6.0625 36.671875 8.59375 
Q 40.09375 11.140625 42.09375 16.703125 
z
M 13.234375 30.90625 
L 42.1875 30.90625 
Q 41.609375 37.453125 38.875 40.71875 
Q 34.671875 45.796875 27.984375 45.796875 
Q 21.921875 45.796875 17.796875 41.75 
Q 13.671875 37.703125 13.234375 30.90625 
z
" id="ArialMT-101"/>
       <path d="M 23.390625 -21.046875 
Q 16.109375 -11.859375 11.078125 0.4375 
Q 6.0625 12.75 6.0625 25.921875 
Q 6.0625 37.546875 9.8125 48.1875 
Q 14.203125 60.546875 23.390625 72.796875 
L 29.6875 72.796875 
Q 23.78125 62.640625 21.875 58.296875 
Q 18.890625 51.5625 17.1875 44.234375 
Q 15.09375 35.109375 15.09375 25.875 
Q 15.09375 2.390625 29.6875 -21.046875 
z
" id="ArialMT-40"/>
       <path d="M 8.015625 0 
L 8.015625 71.578125 
L 17.484375 71.578125 
L 17.484375 42.1875 
L 54.6875 42.1875 
L 54.6875 71.578125 
L 64.15625 71.578125 
L 64.15625 0 
L 54.6875 0 
L 54.6875 33.734375 
L 17.484375 33.734375 
L 17.484375 0 
z
" id="ArialMT-72"/>
       <path d="M 6.640625 61.46875 
L 6.640625 71.578125 
L 15.4375 71.578125 
L 15.4375 61.46875 
z
M 6.640625 0 
L 6.640625 51.859375 
L 15.4375 51.859375 
L 15.4375 0 
z
" id="ArialMT-105"/>
       <path d="M 4.984375 -4.296875 
L 13.53125 -5.5625 
Q 14.0625 -9.515625 16.5 -11.328125 
Q 19.78125 -13.765625 25.4375 -13.765625 
Q 31.546875 -13.765625 34.859375 -11.328125 
Q 38.1875 -8.890625 39.359375 -4.5 
Q 40.046875 -1.8125 39.984375 6.78125 
Q 34.234375 0 25.640625 0 
Q 14.9375 0 9.078125 7.71875 
Q 3.21875 15.4375 3.21875 26.21875 
Q 3.21875 33.640625 5.90625 39.90625 
Q 8.59375 46.1875 13.6875 49.609375 
Q 18.796875 53.03125 25.6875 53.03125 
Q 34.859375 53.03125 40.828125 45.609375 
L 40.828125 51.859375 
L 48.921875 51.859375 
L 48.921875 7.03125 
Q 48.921875 -5.078125 46.453125 -10.125 
Q 44 -15.1875 38.640625 -18.109375 
Q 33.296875 -21.046875 25.484375 -21.046875 
Q 16.21875 -21.046875 10.5 -16.875 
Q 4.78125 -12.703125 4.984375 -4.296875 
z
M 12.25 26.859375 
Q 12.25 16.65625 16.296875 11.96875 
Q 20.359375 7.28125 26.46875 7.28125 
Q 32.515625 7.28125 36.609375 11.9375 
Q 40.71875 16.609375 40.71875 26.5625 
Q 40.71875 36.078125 36.5 40.90625 
Q 32.28125 45.75 26.3125 45.75 
Q 20.453125 45.75 16.34375 40.984375 
Q 12.25 36.234375 12.25 26.859375 
z
" id="ArialMT-103"/>
       <path d="M 6.59375 0 
L 6.59375 71.578125 
L 15.375 71.578125 
L 15.375 45.90625 
Q 21.53125 53.03125 30.90625 53.03125 
Q 36.671875 53.03125 40.921875 50.75 
Q 45.171875 48.484375 47 44.484375 
Q 48.828125 40.484375 48.828125 32.859375 
L 48.828125 0 
L 40.046875 0 
L 40.046875 32.859375 
Q 40.046875 39.453125 37.1875 42.453125 
Q 34.328125 45.453125 29.109375 45.453125 
Q 25.203125 45.453125 21.75 43.421875 
Q 18.3125 41.40625 16.84375 37.9375 
Q 15.375 34.46875 15.375 28.375 
L 15.375 0 
z
" id="ArialMT-104"/>
       <path d="M 6.5 0 
L 6.5 51.859375 
L 14.40625 51.859375 
L 14.40625 44 
Q 17.4375 49.515625 20 51.265625 
Q 22.5625 53.03125 25.640625 53.03125 
Q 30.078125 53.03125 34.671875 50.203125 
L 31.640625 42.046875 
Q 28.421875 43.953125 25.203125 43.953125 
Q 22.3125 43.953125 20.015625 42.21875 
Q 17.71875 40.484375 16.75 37.40625 
Q 15.28125 32.71875 15.28125 27.15625 
L 15.28125 0 
z
" id="ArialMT-114"/>
       <path d="M 3.078125 15.484375 
L 11.765625 16.84375 
Q 12.5 11.625 15.84375 8.84375 
Q 19.1875 6.0625 25.203125 6.0625 
Q 31.25 6.0625 34.171875 8.515625 
Q 37.109375 10.984375 37.109375 14.3125 
Q 37.109375 17.28125 34.515625 19 
Q 32.71875 20.171875 25.53125 21.96875 
Q 15.875 24.421875 12.140625 26.203125 
Q 8.40625 27.984375 6.46875 31.125 
Q 4.546875 34.28125 4.546875 38.09375 
Q 4.546875 41.546875 6.125 44.5 
Q 7.71875 47.46875 10.453125 49.421875 
Q 12.5 50.921875 16.03125 51.96875 
Q 19.578125 53.03125 23.640625 53.03125 
Q 29.734375 53.03125 34.34375 51.265625 
Q 38.96875 49.515625 41.15625 46.5 
Q 43.359375 43.5 44.1875 38.484375 
L 35.59375 37.3125 
Q 35.015625 41.3125 32.203125 43.546875 
Q 29.390625 45.796875 24.265625 45.796875 
Q 18.21875 45.796875 15.625 43.796875 
Q 13.03125 41.796875 13.03125 39.109375 
Q 13.03125 37.40625 14.109375 36.03125 
Q 15.1875 34.625 17.484375 33.6875 
Q 18.796875 33.203125 25.25 31.453125 
Q 34.578125 28.953125 38.25 27.359375 
Q 41.9375 25.78125 44.03125 22.75 
Q 46.140625 19.734375 46.140625 15.234375 
Q 46.140625 10.84375 43.578125 6.953125 
Q 41.015625 3.078125 36.171875 0.953125 
Q 31.34375 -1.171875 25.25 -1.171875 
Q 15.140625 -1.171875 9.84375 3.03125 
Q 4.546875 7.234375 3.078125 15.484375 
z
" id="ArialMT-115"/>
       <path d="M 25.78125 7.859375 
L 27.046875 0.09375 
Q 23.34375 -0.6875 20.40625 -0.6875 
Q 15.625 -0.6875 12.984375 0.828125 
Q 10.359375 2.34375 9.28125 4.8125 
Q 8.203125 7.28125 8.203125 15.1875 
L 8.203125 45.015625 
L 1.765625 45.015625 
L 1.765625 51.859375 
L 8.203125 51.859375 
L 8.203125 64.703125 
L 16.9375 69.96875 
L 16.9375 51.859375 
L 25.78125 51.859375 
L 25.78125 45.015625 
L 16.9375 45.015625 
L 16.9375 14.703125 
Q 16.9375 10.9375 17.40625 9.859375 
Q 17.875 8.796875 18.921875 8.15625 
Q 19.96875 7.515625 21.921875 7.515625 
Q 23.390625 7.515625 25.78125 7.859375 
z
" id="ArialMT-116"/>
       <path d="M 3.328125 25.921875 
Q 3.328125 40.328125 11.328125 47.265625 
Q 18.015625 53.03125 27.640625 53.03125 
Q 38.328125 53.03125 45.109375 46.015625 
Q 51.90625 39.015625 51.90625 26.65625 
Q 51.90625 16.65625 48.90625 10.90625 
Q 45.90625 5.171875 40.15625 2 
Q 34.421875 -1.171875 27.640625 -1.171875 
Q 16.75 -1.171875 10.03125 5.8125 
Q 3.328125 12.796875 3.328125 25.921875 
z
M 12.359375 25.921875 
Q 12.359375 15.96875 16.703125 11.015625 
Q 21.046875 6.0625 27.640625 6.0625 
Q 34.1875 6.0625 38.53125 11.03125 
Q 42.875 16.015625 42.875 26.21875 
Q 42.875 35.84375 38.5 40.796875 
Q 34.125 45.75 27.640625 45.75 
Q 21.046875 45.75 16.703125 40.8125 
Q 12.359375 35.890625 12.359375 25.921875 
z
" id="ArialMT-111"/>
       <path d="M 6.59375 0 
L 6.59375 51.859375 
L 14.5 51.859375 
L 14.5 44.484375 
Q 20.21875 53.03125 31 53.03125 
Q 35.6875 53.03125 39.625 51.34375 
Q 43.5625 49.65625 45.515625 46.921875 
Q 47.46875 44.1875 48.25 40.4375 
Q 48.734375 37.984375 48.734375 31.890625 
L 48.734375 0 
L 39.9375 0 
L 39.9375 31.546875 
Q 39.9375 36.921875 38.90625 39.578125 
Q 37.890625 42.234375 35.28125 43.8125 
Q 32.671875 45.40625 29.15625 45.40625 
Q 23.53125 45.40625 19.453125 41.84375 
Q 15.375 38.28125 15.375 28.328125 
L 15.375 0 
z
" id="ArialMT-110"/>
       <path d="M 12.359375 -21.046875 
L 6.0625 -21.046875 
Q 20.65625 2.390625 20.65625 25.875 
Q 20.65625 35.0625 18.5625 44.09375 
Q 16.890625 51.421875 13.921875 58.15625 
Q 12.015625 62.546875 6.0625 72.796875 
L 12.359375 72.796875 
Q 21.53125 60.546875 25.921875 48.1875 
Q 29.6875 37.546875 29.6875 25.921875 
Q 29.6875 12.75 24.625 0.4375 
Q 19.578125 -11.859375 12.359375 -21.046875 
z
" id="ArialMT-41"/>
      </defs>
      <use xlink:href="#ArialMT-82"/>
      <use x="72.216797" xlink:href="#ArialMT-83"/>
      <use x="138.916016" xlink:href="#ArialMT-83"/>
      <use x="205.615234" xlink:href="#ArialMT-73"/>
      <use x="233.398438" xlink:href="#ArialMT-32"/>
      <use x="261.181641" xlink:href="#ArialMT-86"/>
      <use x="320.505859" xlink:href="#ArialMT-97"/>
      <use x="376.121094" xlink:href="#ArialMT-108"/>
      <use x="398.337891" xlink:href="#ArialMT-117"/>
      <use x="453.953125" xlink:href="#ArialMT-101"/>
      <use x="509.568359" xlink:href="#ArialMT-32"/>
      <use x="537.351562" xlink:href="#ArialMT-40"/>
      <use x="570.652344" xlink:href="#ArialMT-72"/>
      <use x="642.869141" xlink:href="#ArialMT-105"/>
      <use x="665.085938" xlink:href="#ArialMT-103"/>
      <use x="720.701172" xlink:href="#ArialMT-104"/>
      <use x="776.316406" xlink:href="#ArialMT-101"/>
      <use x="831.931641" xlink:href="#ArialMT-114"/>
      <use x="865.232422" xlink:href="#ArialMT-32"/>
      <use x="893.015625" xlink:href="#ArialMT-86"/>
      <use x="952.339844" xlink:href="#ArialMT-97"/>
      <use x="1007.955078" xlink:href="#ArialMT-108"/>
      <use x="1030.171875" xlink:href="#ArialMT-117"/>
      <use x="1085.787109" xlink:href="#ArialMT-101"/>
      <use x="1141.402344" xlink:href="#ArialMT-115"/>
      <use x="1191.402344" xlink:href="#ArialMT-32"/>
      <use x="1219.185547" xlink:href="#ArialMT-83"/>
      <use x="1285.884766" xlink:href="#ArialMT-116"/>
      <use x="1313.667969" xlink:href="#ArialMT-114"/>
      <use x="1346.96875" xlink:href="#ArialMT-111"/>
      <use x="1402.583984" xlink:href="#ArialMT-110"/>
      <use x="1458.199219" xlink:href="#ArialMT-103"/>
      <use x="1513.814453" xlink:href="#ArialMT-101"/>
      <use x="1569.429688" xlink:href="#ArialMT-114"/>
      <use x="1602.730469" xlink:href="#ArialMT-41"/>
     </g>
    </g>
   </g>
   <g id="matplotlib.axis_2">
    <g id="ytick_1">
     <g id="line2d_6">
      <path clip-path="url(#p0191c03c42)" d="M 53.222031 348.095625 
L 722.822031 348.095625 
" style="fill:none;stroke:#ffffff;stroke-linecap:round;"/>
     </g>
     <g id="text_7">
      <!-- 0.00 -->
      <g style="fill:#262626;" transform="translate(22.315 352.032422)scale(0.11 -0.11)">
       <defs>
        <path d="M 9.078125 0 
L 9.078125 10.015625 
L 19.09375 10.015625 
L 19.09375 0 
z
" id="ArialMT-46"/>
       </defs>
       <use xlink:href="#ArialMT-48"/>
       <use x="55.615234" xlink:href="#ArialMT-46"/>
       <use x="83.398438" xlink:href="#ArialMT-48"/>
       <use x="139.013672" xlink:href="#ArialMT-48"/>
      </g>
     </g>
    </g>
    <g id="ytick_2">
     <g id="line2d_7">
      <path clip-path="url(#p0191c03c42)" d="M 53.222031 294.255211 
L 722.822031 294.255211 
" style="fill:none;stroke:#ffffff;stroke-linecap:round;"/>
     </g>
     <g id="text_8">
      <!-- 0.05 -->
      <g style="fill:#262626;" transform="translate(22.315 298.192008)scale(0.11 -0.11)">
       <use xlink:href="#ArialMT-48"/>
       <use x="55.615234" xlink:href="#ArialMT-46"/>
       <use x="83.398438" xlink:href="#ArialMT-48"/>
       <use x="139.013672" xlink:href="#ArialMT-53"/>
      </g>
     </g>
    </g>
    <g id="ytick_3">
     <g id="line2d_8">
      <path clip-path="url(#p0191c03c42)" d="M 53.222031 240.414797 
L 722.822031 240.414797 
" style="fill:none;stroke:#ffffff;stroke-linecap:round;"/>
     </g>
     <g id="text_9">
      <!-- 0.10 -->
      <g style="fill:#262626;" transform="translate(22.315 244.351593)scale(0.11 -0.11)">
       <defs>
        <path d="M 37.25 0 
L 28.46875 0 
L 28.46875 56 
Q 25.296875 52.984375 20.140625 49.953125 
Q 14.984375 46.921875 10.890625 45.40625 
L 10.890625 53.90625 
Q 18.265625 57.375 23.78125 62.296875 
Q 29.296875 67.234375 31.59375 71.875 
L 37.25 71.875 
z
" id="ArialMT-49"/>
       </defs>
       <use xlink:href="#ArialMT-48"/>
       <use x="55.615234" xlink:href="#ArialMT-46"/>
       <use x="83.398438" xlink:href="#ArialMT-49"/>
       <use x="139.013672" xlink:href="#ArialMT-48"/>
      </g>
     </g>
    </g>
    <g id="ytick_4">
     <g id="line2d_9">
      <path clip-path="url(#p0191c03c42)" d="M 53.222031 186.574382 
L 722.822031 186.574382 
" style="fill:none;stroke:#ffffff;stroke-linecap:round;"/>
     </g>
     <g id="text_10">
      <!-- 0.15 -->
      <g style="fill:#262626;" transform="translate(22.315 190.511179)scale(0.11 -0.11)">
       <use xlink:href="#ArialMT-48"/>
       <use x="55.615234" xlink:href="#ArialMT-46"/>
       <use x="83.398438" xlink:href="#ArialMT-49"/>
       <use x="139.013672" xlink:href="#ArialMT-53"/>
      </g>
     </g>
    </g>
    <g id="ytick_5">
     <g id="line2d_10">
      <path clip-path="url(#p0191c03c42)" d="M 53.222031 132.733968 
L 722.822031 132.733968 
" style="fill:none;stroke:#ffffff;stroke-linecap:round;"/>
     </g>
     <g id="text_11">
      <!-- 0.20 -->
      <g style="fill:#262626;" transform="translate(22.315 136.670765)scale(0.11 -0.11)">
       <defs>
        <path d="M 50.34375 8.453125 
L 50.34375 0 
L 3.03125 0 
Q 2.9375 3.171875 4.046875 6.109375 
Q 5.859375 10.9375 9.828125 15.625 
Q 13.8125 20.3125 21.34375 26.46875 
Q 33.015625 36.03125 37.109375 41.625 
Q 41.21875 47.21875 41.21875 52.203125 
Q 41.21875 57.421875 37.46875 61 
Q 33.734375 64.59375 27.734375 64.59375 
Q 21.390625 64.59375 17.578125 60.78125 
Q 13.765625 56.984375 13.71875 50.25 
L 4.6875 51.171875 
Q 5.609375 61.28125 11.65625 66.578125 
Q 17.71875 71.875 27.9375 71.875 
Q 38.234375 71.875 44.234375 66.15625 
Q 50.25 60.453125 50.25 52 
Q 50.25 47.703125 48.484375 43.546875 
Q 46.734375 39.40625 42.65625 34.8125 
Q 38.578125 30.21875 29.109375 22.21875 
Q 21.1875 15.578125 18.9375 13.203125 
Q 16.703125 10.84375 15.234375 8.453125 
z
" id="ArialMT-50"/>
       </defs>
       <use xlink:href="#ArialMT-48"/>
       <use x="55.615234" xlink:href="#ArialMT-46"/>
       <use x="83.398438" xlink:href="#ArialMT-50"/>
       <use x="139.013672" xlink:href="#ArialMT-48"/>
      </g>
     </g>
    </g>
    <g id="ytick_6">
     <g id="line2d_11">
      <path clip-path="url(#p0191c03c42)" d="M 53.222031 78.893554 
L 722.822031 78.893554 
" style="fill:none;stroke:#ffffff;stroke-linecap:round;"/>
     </g>
     <g id="text_12">
      <!-- 0.25 -->
      <g style="fill:#262626;" transform="translate(22.315 82.830351)scale(0.11 -0.11)">
       <use xlink:href="#ArialMT-48"/>
       <use x="55.615234" xlink:href="#ArialMT-46"/>
       <use x="83.398438" xlink:href="#ArialMT-50"/>
       <use x="139.013672" xlink:href="#ArialMT-53"/>
      </g>
     </g>
    </g>
    <g id="ytick_7">
     <g id="line2d_12">
      <path clip-path="url(#p0191c03c42)" d="M 53.222031 25.05314 
L 722.822031 25.05314 
" style="fill:none;stroke:#ffffff;stroke-linecap:round;"/>
     </g>
     <g id="text_13">
      <!-- 0.30 -->
      <g style="fill:#262626;" transform="translate(22.315 28.989937)scale(0.11 -0.11)">
       <defs>
        <path d="M 4.203125 18.890625 
L 12.984375 20.0625 
Q 14.5 12.59375 18.140625 9.296875 
Q 21.78125 6 27 6 
Q 33.203125 6 37.46875 10.296875 
Q 41.75 14.59375 41.75 20.953125 
Q 41.75 27 37.796875 30.921875 
Q 33.84375 34.859375 27.734375 34.859375 
Q 25.25 34.859375 21.53125 33.890625 
L 22.515625 41.609375 
Q 23.390625 41.5 23.921875 41.5 
Q 29.546875 41.5 34.03125 44.421875 
Q 38.53125 47.359375 38.53125 53.46875 
Q 38.53125 58.296875 35.25 61.46875 
Q 31.984375 64.65625 26.8125 64.65625 
Q 21.6875 64.65625 18.265625 61.421875 
Q 14.84375 58.203125 13.875 51.765625 
L 5.078125 53.328125 
Q 6.6875 62.15625 12.390625 67.015625 
Q 18.109375 71.875 26.609375 71.875 
Q 32.46875 71.875 37.390625 69.359375 
Q 42.328125 66.84375 44.9375 62.5 
Q 47.5625 58.15625 47.5625 53.265625 
Q 47.5625 48.640625 45.0625 44.828125 
Q 42.578125 41.015625 37.703125 38.765625 
Q 44.046875 37.3125 47.5625 32.6875 
Q 51.078125 28.078125 51.078125 21.140625 
Q 51.078125 11.765625 44.234375 5.25 
Q 37.40625 -1.265625 26.953125 -1.265625 
Q 17.53125 -1.265625 11.296875 4.34375 
Q 5.078125 9.96875 4.203125 18.890625 
z
" id="ArialMT-51"/>
       </defs>
       <use xlink:href="#ArialMT-48"/>
       <use x="55.615234" xlink:href="#ArialMT-46"/>
       <use x="83.398438" xlink:href="#ArialMT-51"/>
       <use x="139.013672" xlink:href="#ArialMT-48"/>
      </g>
     </g>
    </g>
    <g id="text_14">
     <!-- Density Estimation -->
     <g style="fill:#262626;" transform="translate(15.789375 234.698438)rotate(-90)scale(0.12 -0.12)">
      <defs>
       <path d="M 7.71875 0 
L 7.71875 71.578125 
L 32.375 71.578125 
Q 40.71875 71.578125 45.125 70.5625 
Q 51.265625 69.140625 55.609375 65.4375 
Q 61.28125 60.640625 64.078125 53.1875 
Q 66.890625 45.75 66.890625 36.1875 
Q 66.890625 28.03125 64.984375 21.734375 
Q 63.09375 15.4375 60.109375 11.296875 
Q 57.125 7.171875 53.578125 4.796875 
Q 50.046875 2.4375 45.046875 1.21875 
Q 40.046875 0 33.546875 0 
z
M 17.1875 8.453125 
L 32.46875 8.453125 
Q 39.546875 8.453125 43.578125 9.765625 
Q 47.609375 11.078125 50 13.484375 
Q 53.375 16.84375 55.25 22.53125 
Q 57.125 28.21875 57.125 36.328125 
Q 57.125 47.5625 53.4375 53.59375 
Q 49.75 59.625 44.484375 61.671875 
Q 40.671875 63.140625 32.234375 63.140625 
L 17.1875 63.140625 
z
" id="ArialMT-68"/>
       <path d="M 6.203125 -19.96875 
L 5.21875 -11.71875 
Q 8.109375 -12.5 10.25 -12.5 
Q 13.1875 -12.5 14.9375 -11.515625 
Q 16.703125 -10.546875 17.828125 -8.796875 
Q 18.65625 -7.46875 20.515625 -2.25 
Q 20.75 -1.515625 21.296875 -0.09375 
L 1.609375 51.859375 
L 11.078125 51.859375 
L 21.875 21.828125 
Q 23.96875 16.109375 25.640625 9.8125 
Q 27.15625 15.875 29.25 21.625 
L 40.328125 51.859375 
L 49.125 51.859375 
L 29.390625 -0.875 
Q 26.21875 -9.421875 24.46875 -12.640625 
Q 22.125 -17 19.09375 -19.015625 
Q 16.0625 -21.046875 11.859375 -21.046875 
Q 9.328125 -21.046875 6.203125 -19.96875 
z
" id="ArialMT-121"/>
       <path d="M 7.90625 0 
L 7.90625 71.578125 
L 59.671875 71.578125 
L 59.671875 63.140625 
L 17.390625 63.140625 
L 17.390625 41.21875 
L 56.984375 41.21875 
L 56.984375 32.8125 
L 17.390625 32.8125 
L 17.390625 8.453125 
L 61.328125 8.453125 
L 61.328125 0 
z
" id="ArialMT-69"/>
       <path d="M 6.59375 0 
L 6.59375 51.859375 
L 14.453125 51.859375 
L 14.453125 44.578125 
Q 16.890625 48.390625 20.9375 50.703125 
Q 25 53.03125 30.171875 53.03125 
Q 35.9375 53.03125 39.625 50.640625 
Q 43.3125 48.25 44.828125 43.953125 
Q 50.984375 53.03125 60.84375 53.03125 
Q 68.5625 53.03125 72.703125 48.75 
Q 76.859375 44.484375 76.859375 35.59375 
L 76.859375 0 
L 68.109375 0 
L 68.109375 32.671875 
Q 68.109375 37.9375 67.25 40.25 
Q 66.40625 42.578125 64.15625 43.984375 
Q 61.921875 45.40625 58.890625 45.40625 
Q 53.421875 45.40625 49.796875 41.765625 
Q 46.1875 38.140625 46.1875 30.125 
L 46.1875 0 
L 37.40625 0 
L 37.40625 33.6875 
Q 37.40625 39.546875 35.25 42.46875 
Q 33.109375 45.40625 28.21875 45.40625 
Q 24.515625 45.40625 21.359375 43.453125 
Q 18.21875 41.5 16.796875 37.734375 
Q 15.375 33.984375 15.375 26.90625 
L 15.375 0 
z
" id="ArialMT-109"/>
      </defs>
      <use xlink:href="#ArialMT-68"/>
      <use x="72.216797" xlink:href="#ArialMT-101"/>
      <use x="127.832031" xlink:href="#ArialMT-110"/>
      <use x="183.447266" xlink:href="#ArialMT-115"/>
      <use x="233.447266" xlink:href="#ArialMT-105"/>
      <use x="255.664062" xlink:href="#ArialMT-116"/>
      <use x="283.447266" xlink:href="#ArialMT-121"/>
      <use x="333.447266" xlink:href="#ArialMT-32"/>
      <use x="361.230469" xlink:href="#ArialMT-69"/>
      <use x="427.929688" xlink:href="#ArialMT-115"/>
      <use x="477.929688" xlink:href="#ArialMT-116"/>
      <use x="505.712891" xlink:href="#ArialMT-105"/>
      <use x="527.929688" xlink:href="#ArialMT-109"/>
      <use x="611.230469" xlink:href="#ArialMT-97"/>
      <use x="666.845703" xlink:href="#ArialMT-116"/>
      <use x="694.628906" xlink:href="#ArialMT-105"/>
      <use x="716.845703" xlink:href="#ArialMT-111"/>
      <use x="772.460938" xlink:href="#ArialMT-110"/>
     </g>
    </g>
   </g>
   <g id="PolyCollection_1">
    <defs>
     <path d="M 174.01873 -42.055428 
L 174.01873 -42.021094 
L 174.635261 -42.021094 
L 175.251792 -42.021094 
L 175.868323 -42.021094 
L 176.484854 -42.021094 
L 177.101385 -42.021094 
L 177.717916 -42.021094 
L 178.334447 -42.021094 
L 178.950978 -42.021094 
L 179.567509 -42.021094 
L 180.18404 -42.021094 
L 180.800571 -42.021094 
L 181.417102 -42.021094 
L 182.033633 -42.021094 
L 182.650164 -42.021094 
L 183.266695 -42.021094 
L 183.883226 -42.021094 
L 184.499757 -42.021094 
L 185.116288 -42.021094 
L 185.732819 -42.021094 
L 186.34935 -42.021094 
L 186.965881 -42.021094 
L 187.582412 -42.021094 
L 188.198943 -42.021094 
L 188.815474 -42.021094 
L 189.432005 -42.021094 
L 190.048536 -42.021094 
L 190.665067 -42.021094 
L 191.281598 -42.021094 
L 191.898129 -42.021094 
L 192.51466 -42.021094 
L 193.131191 -42.021094 
L 193.747722 -42.021094 
L 194.364253 -42.021094 
L 194.980784 -42.021094 
L 195.597315 -42.021094 
L 196.213846 -42.021094 
L 196.830377 -42.021094 
L 197.446908 -42.021094 
L 198.063439 -42.021094 
L 198.67997 -42.021094 
L 199.296501 -42.021094 
L 199.913032 -42.021094 
L 200.529563 -42.021094 
L 201.146094 -42.021094 
L 201.762625 -42.021094 
L 202.379156 -42.021094 
L 202.995687 -42.021094 
L 203.612218 -42.021094 
L 204.228749 -42.021094 
L 204.84528 -42.021094 
L 205.461811 -42.021094 
L 206.078342 -42.021094 
L 206.694873 -42.021094 
L 207.311404 -42.021094 
L 207.927935 -42.021094 
L 208.544466 -42.021094 
L 209.160997 -42.021094 
L 209.777528 -42.021094 
L 210.394059 -42.021094 
L 211.01059 -42.021094 
L 211.627121 -42.021094 
L 212.243652 -42.021094 
L 212.860183 -42.021094 
L 213.476714 -42.021094 
L 214.093245 -42.021094 
L 214.709776 -42.021094 
L 215.326307 -42.021094 
L 215.942838 -42.021094 
L 216.559369 -42.021094 
L 217.1759 -42.021094 
L 217.792431 -42.021094 
L 218.408963 -42.021094 
L 219.025494 -42.021094 
L 219.642025 -42.021094 
L 220.258556 -42.021094 
L 220.875087 -42.021094 
L 221.491618 -42.021094 
L 222.108149 -42.021094 
L 222.72468 -42.021094 
L 223.341211 -42.021094 
L 223.957742 -42.021094 
L 224.574273 -42.021094 
L 225.190804 -42.021094 
L 225.807335 -42.021094 
L 226.423866 -42.021094 
L 227.040397 -42.021094 
L 227.656928 -42.021094 
L 228.273459 -42.021094 
L 228.88999 -42.021094 
L 229.506521 -42.021094 
L 230.123052 -42.021094 
L 230.739583 -42.021094 
L 231.356114 -42.021094 
L 231.972645 -42.021094 
L 232.589176 -42.021094 
L 233.205707 -42.021094 
L 233.822238 -42.021094 
L 234.438769 -42.021094 
L 235.0553 -42.021094 
L 235.671831 -42.021094 
L 236.288362 -42.021094 
L 236.904893 -42.021094 
L 237.521424 -42.021094 
L 238.137955 -42.021094 
L 238.754486 -42.021094 
L 239.371017 -42.021094 
L 239.987548 -42.021094 
L 240.604079 -42.021094 
L 241.22061 -42.021094 
L 241.837141 -42.021094 
L 242.453672 -42.021094 
L 243.070203 -42.021094 
L 243.686734 -42.021094 
L 244.303265 -42.021094 
L 244.919796 -42.021094 
L 245.536327 -42.021094 
L 246.152858 -42.021094 
L 246.769389 -42.021094 
L 247.38592 -42.021094 
L 248.002451 -42.021094 
L 248.618982 -42.021094 
L 249.235513 -42.021094 
L 249.852044 -42.021094 
L 250.468575 -42.021094 
L 251.085106 -42.021094 
L 251.701637 -42.021094 
L 252.318168 -42.021094 
L 252.934699 -42.021094 
L 253.55123 -42.021094 
L 254.167761 -42.021094 
L 254.784292 -42.021094 
L 255.400823 -42.021094 
L 256.017354 -42.021094 
L 256.633885 -42.021094 
L 257.250416 -42.021094 
L 257.866947 -42.021094 
L 258.483478 -42.021094 
L 259.100009 -42.021094 
L 259.71654 -42.021094 
L 260.333071 -42.021094 
L 260.949602 -42.021094 
L 261.566133 -42.021094 
L 262.182664 -42.021094 
L 262.799195 -42.021094 
L 263.415726 -42.021094 
L 264.032257 -42.021094 
L 264.648788 -42.021094 
L 265.265319 -42.021094 
L 265.88185 -42.021094 
L 266.498381 -42.021094 
L 267.114912 -42.021094 
L 267.731443 -42.021094 
L 268.347974 -42.021094 
L 268.964505 -42.021094 
L 269.581036 -42.021094 
L 270.197567 -42.021094 
L 270.814098 -42.021094 
L 271.430629 -42.021094 
L 272.04716 -42.021094 
L 272.663691 -42.021094 
L 273.280222 -42.021094 
L 273.896753 -42.021094 
L 274.513284 -42.021094 
L 275.129815 -42.021094 
L 275.746346 -42.021094 
L 276.362877 -42.021094 
L 276.979408 -42.021094 
L 277.595939 -42.021094 
L 278.21247 -42.021094 
L 278.829001 -42.021094 
L 279.445532 -42.021094 
L 280.062063 -42.021094 
L 280.678594 -42.021094 
L 281.295125 -42.021094 
L 281.911656 -42.021094 
L 282.528187 -42.021094 
L 283.144718 -42.021094 
L 283.761249 -42.021094 
L 284.37778 -42.021094 
L 284.994311 -42.021094 
L 285.610842 -42.021094 
L 286.227373 -42.021094 
L 286.843904 -42.021094 
L 287.460435 -42.021094 
L 288.076966 -42.021094 
L 288.693497 -42.021094 
L 289.310028 -42.021094 
L 289.926559 -42.021094 
L 290.54309 -42.021094 
L 291.159621 -42.021094 
L 291.776152 -42.021094 
L 292.392683 -42.021094 
L 293.009214 -42.021094 
L 293.625745 -42.021094 
L 294.242276 -42.021094 
L 294.858807 -42.021094 
L 295.475338 -42.021094 
L 296.091869 -42.021094 
L 296.7084 -42.021094 
L 296.7084 -42.82795 
L 296.7084 -42.82795 
L 296.091869 -43.098342 
L 295.475338 -43.445619 
L 294.858807 -43.886866 
L 294.242276 -44.441461 
L 293.625745 -45.130935 
L 293.009214 -45.978671 
L 292.392683 -47.009419 
L 291.776152 -48.248604 
L 291.159621 -49.721406 
L 290.54309 -51.451632 
L 289.926559 -53.460379 
L 289.310028 -55.764537 
L 288.693497 -58.375186 
L 288.076966 -61.295969 
L 287.460435 -64.521532 
L 286.843904 -68.036141 
L 286.227373 -71.812605 
L 285.610842 -75.811601 
L 284.994311 -79.981528 
L 284.37778 -84.258958 
L 283.761249 -88.569741 
L 283.144718 -92.830787 
L 282.528187 -96.952481 
L 281.911656 -100.841656 
L 281.295125 -104.405005 
L 280.678594 -107.552751 
L 280.062063 -110.202401 
L 279.445532 -112.282346 
L 278.829001 -113.735106 
L 278.21247 -114.520018 
L 277.595939 -114.615201 
L 276.979408 -114.01867 
L 276.362877 -112.74854 
L 275.746346 -110.842315 
L 275.129815 -108.35532 
L 274.513284 -105.358406 
L 273.896753 -101.935081 
L 273.280222 -98.178284 
L 272.663691 -94.187013 
L 272.04716 -90.063044 
L 271.430629 -85.907932 
L 270.814098 -81.820473 
L 270.197567 -77.894769 
L 269.581036 -74.218949 
L 268.964505 -70.874578 
L 268.347974 -67.936714 
L 267.731443 -65.474504 
L 267.114912 -63.55219 
L 266.498381 -62.230332 
L 265.88185 -61.567062 
L 265.265319 -61.619143 
L 264.648788 -62.442629 
L 264.032257 -64.092959 
L 263.415726 -66.624308 
L 262.799195 -70.088136 
L 262.182664 -74.530865 
L 261.566133 -79.990747 
L 260.949602 -86.494021 
L 260.333071 -94.050564 
L 259.71654 -102.649282 
L 259.100009 -112.253579 
L 258.483478 -122.797264 
L 257.866947 -134.181292 
L 257.250416 -146.271711 
L 256.633885 -158.899163 
L 256.017354 -171.860211 
L 255.400823 -184.92066 
L 254.784292 -197.82091 
L 254.167761 -210.283259 
L 253.55123 -222.020888 
L 252.934699 -232.74814 
L 252.318168 -242.191592 
L 251.701637 -250.101294 
L 251.085106 -256.261525 
L 250.468575 -260.500409 
L 249.852044 -262.697771 
L 249.235513 -262.790738 
L 248.618982 -260.776697 
L 248.002451 -256.713431 
L 247.38592 -250.716409 
L 246.769389 -242.953424 
L 246.152858 -233.636928 
L 245.536327 -223.014572 
L 244.919796 -211.358541 
L 244.303265 -198.954361 
L 243.686734 -186.089825 
L 243.070203 -173.044657 
L 242.453672 -160.081437 
L 241.837141 -147.438195 
L 241.22061 -135.322931 
L 240.604079 -123.910164 
L 239.987548 -113.339493 
L 239.371017 -103.715989 
L 238.754486 -95.112159 
L 238.137955 -87.571131 
L 237.521424 -81.11068 
L 236.904893 -75.727704 
L 236.288362 -71.402755 
L 235.671831 -68.104303 
L 235.0553 -65.792464 
L 234.438769 -64.421972 
L 233.822238 -63.944301 
L 233.205707 -64.308881 
L 232.589176 -65.463444 
L 231.972645 -67.353627 
L 231.356114 -69.921965 
L 230.739583 -73.1065 
L 230.123052 -76.839229 
L 229.506521 -81.044626 
L 228.88999 -85.638474 
L 228.273459 -90.527213 
L 227.656928 -95.607967 
L 227.040397 -100.76936 
L 226.423866 -105.893178 
L 225.807335 -110.856838 
L 225.190804 -115.536592 
L 224.574273 -119.811306 
L 223.957742 -123.566585 
L 223.341211 -126.699023 
L 222.72468 -129.120275 
L 222.108149 -130.760702 
L 221.491618 -131.572323 
L 220.875087 -131.530862 
L 220.258556 -130.636751 
L 219.642025 -128.915001 
L 219.025494 -126.413934 
L 218.408963 -123.202861 
L 217.792431 -119.368845 
L 217.1759 -115.012756 
L 216.559369 -110.244859 
L 215.942838 -105.180203 
L 215.326307 -99.934075 
L 214.709776 -94.617764 
L 214.093245 -89.334845 
L 213.476714 -84.17814 
L 212.860183 -79.227467 
L 212.243652 -74.548202 
L 211.627121 -70.190672 
L 211.01059 -66.190278 
L 210.394059 -62.568281 
L 209.777528 -59.3331 
L 209.160997 -56.481988 
L 208.544466 -54.002933 
L 207.927935 -51.876651 
L 207.311404 -50.078552 
L 206.694873 -48.580564 
L 206.078342 -47.352762 
L 205.461811 -46.364738 
L 204.84528 -45.586696 
L 204.228749 -44.990264 
L 203.612218 -44.549049 
L 202.995687 -44.238958 
L 202.379156 -44.038316 
L 201.762625 -43.927838 
L 201.146094 -43.890494 
L 200.529563 -43.911289 
L 199.913032 -43.977029 
L 199.296501 -44.07607 
L 198.67997 -44.198092 
L 198.063439 -44.333907 
L 197.446908 -44.475318 
L 196.830377 -44.615016 
L 196.213846 -44.746532 
L 195.597315 -44.864221 
L 194.980784 -44.963282 
L 194.364253 -45.039789 
L 193.747722 -45.09073 
L 193.131191 -45.114041 
L 192.51466 -45.108621 
L 191.898129 -45.074325 
L 191.281598 -45.011925 
L 190.665067 -44.923045 
L 190.048536 -44.810058 
L 189.432005 -44.675963 
L 188.815474 -44.524239 
L 188.198943 -44.358685 
L 187.582412 -44.183259 
L 186.965881 -44.001917 
L 186.34935 -43.818467 
L 185.732819 -43.636442 
L 185.116288 -43.458993 
L 184.499757 -43.288821 
L 183.883226 -43.128119 
L 183.266695 -42.97856 
L 182.650164 -42.841302 
L 182.033633 -42.717013 
L 181.417102 -42.605921 
L 180.800571 -42.507872 
L 180.18404 -42.422393 
L 179.567509 -42.348767 
L 178.950978 -42.286094 
L 178.334447 -42.233363 
L 177.717916 -42.189501 
L 177.101385 -42.153427 
L 176.484854 -42.124088 
L 175.868323 -42.100488 
L 175.251792 -42.081712 
L 174.635261 -42.066934 
L 174.01873 -42.055428 
z
" id="md4b597a35f" style="stroke:#8172b3;"/>
    </defs>
    <g clip-path="url(#p0191c03c42)">
     <use style="fill:#8172b3;fill-opacity:0.25;stroke:#8172b3;" x="0" xlink:href="#md4b597a35f" y="390.116719"/>
    </g>
   </g>
   <g id="PolyCollection_2">
    <defs>
     <path d="M 83.658395 -42.034421 
L 83.658395 -42.021094 
L 84.75634 -42.021094 
L 85.854285 -42.021094 
L 86.95223 -42.021094 
L 88.050175 -42.021094 
L 89.14812 -42.021094 
L 90.246065 -42.021094 
L 91.34401 -42.021094 
L 92.441955 -42.021094 
L 93.5399 -42.021094 
L 94.637845 -42.021094 
L 95.73579 -42.021094 
L 96.833735 -42.021094 
L 97.93168 -42.021094 
L 99.029625 -42.021094 
L 100.12757 -42.021094 
L 101.225515 -42.021094 
L 102.32346 -42.021094 
L 103.421405 -42.021094 
L 104.51935 -42.021094 
L 105.617295 -42.021094 
L 106.71524 -42.021094 
L 107.813185 -42.021094 
L 108.91113 -42.021094 
L 110.009075 -42.021094 
L 111.10702 -42.021094 
L 112.204965 -42.021094 
L 113.30291 -42.021094 
L 114.400855 -42.021094 
L 115.4988 -42.021094 
L 116.596745 -42.021094 
L 117.69469 -42.021094 
L 118.792635 -42.021094 
L 119.89058 -42.021094 
L 120.988525 -42.021094 
L 122.08647 -42.021094 
L 123.184415 -42.021094 
L 124.28236 -42.021094 
L 125.380306 -42.021094 
L 126.478251 -42.021094 
L 127.576196 -42.021094 
L 128.674141 -42.021094 
L 129.772086 -42.021094 
L 130.870031 -42.021094 
L 131.967976 -42.021094 
L 133.065921 -42.021094 
L 134.163866 -42.021094 
L 135.261811 -42.021094 
L 136.359756 -42.021094 
L 137.457701 -42.021094 
L 138.555646 -42.021094 
L 139.653591 -42.021094 
L 140.751536 -42.021094 
L 141.849481 -42.021094 
L 142.947426 -42.021094 
L 144.045371 -42.021094 
L 145.143316 -42.021094 
L 146.241261 -42.021094 
L 147.339206 -42.021094 
L 148.437151 -42.021094 
L 149.535096 -42.021094 
L 150.633041 -42.021094 
L 151.730986 -42.021094 
L 152.828931 -42.021094 
L 153.926876 -42.021094 
L 155.024821 -42.021094 
L 156.122766 -42.021094 
L 157.220711 -42.021094 
L 158.318656 -42.021094 
L 159.416601 -42.021094 
L 160.514546 -42.021094 
L 161.612491 -42.021094 
L 162.710436 -42.021094 
L 163.808381 -42.021094 
L 164.906326 -42.021094 
L 166.004271 -42.021094 
L 167.102216 -42.021094 
L 168.200161 -42.021094 
L 169.298106 -42.021094 
L 170.396051 -42.021094 
L 171.493996 -42.021094 
L 172.591941 -42.021094 
L 173.689886 -42.021094 
L 174.787831 -42.021094 
L 175.885776 -42.021094 
L 176.983721 -42.021094 
L 178.081666 -42.021094 
L 179.179611 -42.021094 
L 180.277556 -42.021094 
L 181.375501 -42.021094 
L 182.473446 -42.021094 
L 183.571391 -42.021094 
L 184.669336 -42.021094 
L 185.767281 -42.021094 
L 186.865226 -42.021094 
L 187.963171 -42.021094 
L 189.061116 -42.021094 
L 190.159061 -42.021094 
L 191.257006 -42.021094 
L 192.354952 -42.021094 
L 193.452897 -42.021094 
L 194.550842 -42.021094 
L 195.648787 -42.021094 
L 196.746732 -42.021094 
L 197.844677 -42.021094 
L 198.942622 -42.021094 
L 200.040567 -42.021094 
L 201.138512 -42.021094 
L 202.236457 -42.021094 
L 203.334402 -42.021094 
L 204.432347 -42.021094 
L 205.530292 -42.021094 
L 206.628237 -42.021094 
L 207.726182 -42.021094 
L 208.824127 -42.021094 
L 209.922072 -42.021094 
L 211.020017 -42.021094 
L 212.117962 -42.021094 
L 213.215907 -42.021094 
L 214.313852 -42.021094 
L 215.411797 -42.021094 
L 216.509742 -42.021094 
L 217.607687 -42.021094 
L 218.705632 -42.021094 
L 219.803577 -42.021094 
L 220.901522 -42.021094 
L 221.999467 -42.021094 
L 223.097412 -42.021094 
L 224.195357 -42.021094 
L 225.293302 -42.021094 
L 226.391247 -42.021094 
L 227.489192 -42.021094 
L 228.587137 -42.021094 
L 229.685082 -42.021094 
L 230.783027 -42.021094 
L 231.880972 -42.021094 
L 232.978917 -42.021094 
L 234.076862 -42.021094 
L 235.174807 -42.021094 
L 236.272752 -42.021094 
L 237.370697 -42.021094 
L 238.468642 -42.021094 
L 239.566587 -42.021094 
L 240.664532 -42.021094 
L 241.762477 -42.021094 
L 242.860422 -42.021094 
L 243.958367 -42.021094 
L 245.056312 -42.021094 
L 246.154257 -42.021094 
L 247.252202 -42.021094 
L 248.350147 -42.021094 
L 249.448092 -42.021094 
L 250.546037 -42.021094 
L 251.643982 -42.021094 
L 252.741927 -42.021094 
L 253.839872 -42.021094 
L 254.937817 -42.021094 
L 256.035762 -42.021094 
L 257.133707 -42.021094 
L 258.231652 -42.021094 
L 259.329598 -42.021094 
L 260.427543 -42.021094 
L 261.525488 -42.021094 
L 262.623433 -42.021094 
L 263.721378 -42.021094 
L 264.819323 -42.021094 
L 265.917268 -42.021094 
L 267.015213 -42.021094 
L 268.113158 -42.021094 
L 269.211103 -42.021094 
L 270.309048 -42.021094 
L 271.406993 -42.021094 
L 272.504938 -42.021094 
L 273.602883 -42.021094 
L 274.700828 -42.021094 
L 275.798773 -42.021094 
L 276.896718 -42.021094 
L 277.994663 -42.021094 
L 279.092608 -42.021094 
L 280.190553 -42.021094 
L 281.288498 -42.021094 
L 282.386443 -42.021094 
L 283.484388 -42.021094 
L 284.582333 -42.021094 
L 285.680278 -42.021094 
L 286.778223 -42.021094 
L 287.876168 -42.021094 
L 288.974113 -42.021094 
L 290.072058 -42.021094 
L 291.170003 -42.021094 
L 292.267948 -42.021094 
L 293.365893 -42.021094 
L 294.463838 -42.021094 
L 295.561783 -42.021094 
L 296.659728 -42.021094 
L 297.757673 -42.021094 
L 298.855618 -42.021094 
L 299.953563 -42.021094 
L 301.051508 -42.021094 
L 302.149453 -42.021094 
L 302.149453 -42.061076 
L 302.149453 -42.061076 
L 301.051508 -42.080564 
L 299.953563 -42.107944 
L 298.855618 -42.145626 
L 297.757673 -42.196412 
L 296.659728 -42.263428 
L 295.561783 -42.349978 
L 294.463838 -42.459333 
L 293.365893 -42.594448 
L 292.267948 -42.757609 
L 291.170003 -42.950045 
L 290.072058 -43.171538 
L 288.974113 -43.420083 
L 287.876168 -43.691653 
L 286.778223 -43.980142 
L 285.680278 -44.27753 
L 284.582333 -44.574325 
L 283.484388 -44.860299 
L 282.386443 -45.12553 
L 281.288498 -45.361714 
L 280.190553 -45.563718 
L 279.092608 -45.731307 
L 277.994663 -45.870988 
L 276.896718 -45.997889 
L 275.798773 -46.137604 
L 274.700828 -46.327904 
L 273.602883 -46.620199 
L 272.504938 -47.080563 
L 271.406993 -47.790096 
L 270.309048 -48.844312 
L 269.211103 -50.35117 
L 268.113158 -52.427377 
L 267.015213 -55.192614 
L 265.917268 -58.761489 
L 264.819323 -63.233265 
L 263.721378 -68.679768 
L 262.623433 -75.132291 
L 261.525488 -82.568728 
L 260.427543 -90.90254 
L 259.329598 -99.975336 
L 258.231652 -109.554817 
L 257.133707 -119.339472 
L 256.035762 -128.970806 
L 254.937817 -138.052986 
L 253.839872 -146.178795 
L 252.741927 -152.959792 
L 251.643982 -158.057823 
L 250.546037 -161.214547 
L 249.448092 -162.275722 
L 248.350147 -161.207444 
L 247.252202 -158.1025 
L 246.154257 -153.176154 
L 245.056312 -146.751964 
L 243.958367 -139.239385 
L 242.860422 -131.105677 
L 241.762477 -122.845076 
L 240.664532 -114.94806 
L 239.566587 -107.873087 
L 238.468642 -102.022454 
L 237.370697 -97.723104 
L 236.272752 -95.212516 
L 235.174807 -94.629326 
L 234.076862 -96.008177 
L 232.978917 -99.278381 
L 231.880972 -104.266316 
L 230.783027 -110.701782 
L 229.685082 -118.228851 
L 228.587137 -126.421702 
L 227.489192 -134.805679 
L 226.391247 -142.883237 
L 225.293302 -150.163648 
L 224.195357 -156.194547 
L 223.097412 -160.592722 
L 221.999467 -163.071205 
L 220.901522 -163.459774 
L 219.803577 -161.716528 
L 218.705632 -157.929146 
L 217.607687 -152.305593 
L 216.509742 -145.155347 
L 215.411797 -136.863275 
L 214.313852 -127.859056 
L 213.215907 -118.585402 
L 212.117962 -109.468103 
L 211.020017 -100.89044 
L 209.922072 -93.173592 
L 208.824127 -86.56379 
L 207.726182 -81.226053 
L 206.628237 -77.243716 
L 205.530292 -74.622537 
L 204.432347 -73.298128 
L 203.334402 -73.14556 
L 202.236457 -73.990309 
L 201.138512 -75.620035 
L 200.040567 -77.79693 
L 198.942622 -80.270503 
L 197.844677 -82.790666 
L 196.746732 -85.120779 
L 195.648787 -87.050145 
L 194.550842 -88.405192 
L 193.452897 -89.058475 
L 192.354952 -88.934659 
L 191.257006 -88.012824 
L 190.159061 -86.324762 
L 189.061116 -83.949383 
L 187.963171 -81.003785 
L 186.865226 -77.631911 
L 185.767281 -73.991989 
L 184.669336 -70.244022 
L 183.571391 -66.538503 
L 182.473446 -63.007262 
L 181.375501 -59.757033 
L 180.277556 -56.86593 
L 179.179611 -54.382662 
L 178.081666 -52.328069 
L 176.983721 -50.698357 
L 175.885776 -49.469414 
L 174.787831 -48.601581 
L 173.689886 -48.044418 
L 172.591941 -47.741111 
L 171.493996 -47.632358 
L 170.396051 -47.659648 
L 169.298106 -47.767947 
L 168.200161 -47.907837 
L 167.102216 -48.037157 
L 166.004271 -48.122158 
L 164.906326 -48.138187 
L 163.808381 -48.069885 
L 162.710436 -47.910886 
L 161.612491 -47.663051 
L 160.514546 -47.335258 
L 159.416601 -46.941871 
L 158.318656 -46.500994 
L 157.220711 -46.032662 
L 156.122766 -45.55712 
L 155.024821 -45.093325 
L 153.926876 -44.65776 
L 152.828931 -44.263623 
L 151.730986 -43.920392 
L 150.633041 -43.633735 
L 149.535096 -43.405703 
L 148.437151 -43.235131 
L 147.339206 -43.11816 
L 146.241261 -43.048825 
L 145.143316 -43.019644 
L 144.045371 -43.022185 
L 142.947426 -43.047585 
L 141.849481 -43.087023 
L 140.751536 -43.132139 
L 139.653591 -43.175402 
L 138.555646 -43.210425 
L 137.457701 -43.232212 
L 136.359756 -43.237327 
L 135.261811 -43.223975 
L 134.163866 -43.191987 
L 133.065921 -43.142707 
L 131.967976 -43.078792 
L 130.870031 -43.003936 
L 129.772086 -42.922552 
L 128.674141 -42.839432 
L 127.576196 -42.759413 
L 126.478251 -42.687076 
L 125.380306 -42.626486 
L 124.28236 -42.580987 
L 123.184415 -42.553055 
L 122.08647 -42.54419 
L 120.988525 -42.554866 
L 119.89058 -42.584506 
L 118.792635 -42.63151 
L 117.69469 -42.693306 
L 116.596745 -42.766456 
L 115.4988 -42.846808 
L 114.400855 -42.929694 
L 113.30291 -43.010185 
L 112.204965 -43.083379 
L 111.10702 -43.14471 
L 110.009075 -43.190252 
L 108.91113 -43.216991 
L 107.813185 -43.223034 
L 106.71524 -43.207724 
L 105.617295 -43.171669 
L 104.51935 -43.116645 
L 103.421405 -43.04542 
L 102.32346 -42.961494 
L 101.225515 -42.868798 
L 100.12757 -42.771378 
L 99.029625 -42.673102 
L 97.93168 -42.577411 
L 96.833735 -42.487144 
L 95.73579 -42.404432 
L 94.637845 -42.330672 
L 93.5399 -42.266563 
L 92.441955 -42.212194 
L 91.34401 -42.167165 
L 90.246065 -42.130718 
L 89.14812 -42.10187 
L 88.050175 -42.079533 
L 86.95223 -42.062604 
L 85.854285 -42.050044 
L 84.75634 -42.040917 
L 83.658395 -42.034421 
z
" id="m52a3b98e03" style="stroke:#c44e52;"/>
    </defs>
    <g clip-path="url(#p0191c03c42)">
     <use style="fill:#c44e52;fill-opacity:0.25;stroke:#c44e52;" x="0" xlink:href="#m52a3b98e03" y="390.116719"/>
    </g>
   </g>
   <g id="PolyCollection_3">
    <defs>
     <path d="M 196.650854 -42.034295 
L 196.650854 -42.021094 
L 198.03563 -42.021094 
L 199.420406 -42.021094 
L 200.805182 -42.021094 
L 202.189958 -42.021094 
L 203.574733 -42.021094 
L 204.959509 -42.021094 
L 206.344285 -42.021094 
L 207.729061 -42.021094 
L 209.113837 -42.021094 
L 210.498613 -42.021094 
L 211.883389 -42.021094 
L 213.268165 -42.021094 
L 214.652941 -42.021094 
L 216.037717 -42.021094 
L 217.422493 -42.021094 
L 218.807269 -42.021094 
L 220.192045 -42.021094 
L 221.576821 -42.021094 
L 222.961597 -42.021094 
L 224.346373 -42.021094 
L 225.731149 -42.021094 
L 227.115925 -42.021094 
L 228.500701 -42.021094 
L 229.885477 -42.021094 
L 231.270253 -42.021094 
L 232.655028 -42.021094 
L 234.039804 -42.021094 
L 235.42458 -42.021094 
L 236.809356 -42.021094 
L 238.194132 -42.021094 
L 239.578908 -42.021094 
L 240.963684 -42.021094 
L 242.34846 -42.021094 
L 243.733236 -42.021094 
L 245.118012 -42.021094 
L 246.502788 -42.021094 
L 247.887564 -42.021094 
L 249.27234 -42.021094 
L 250.657116 -42.021094 
L 252.041892 -42.021094 
L 253.426668 -42.021094 
L 254.811444 -42.021094 
L 256.19622 -42.021094 
L 257.580996 -42.021094 
L 258.965772 -42.021094 
L 260.350548 -42.021094 
L 261.735323 -42.021094 
L 263.120099 -42.021094 
L 264.504875 -42.021094 
L 265.889651 -42.021094 
L 267.274427 -42.021094 
L 268.659203 -42.021094 
L 270.043979 -42.021094 
L 271.428755 -42.021094 
L 272.813531 -42.021094 
L 274.198307 -42.021094 
L 275.583083 -42.021094 
L 276.967859 -42.021094 
L 278.352635 -42.021094 
L 279.737411 -42.021094 
L 281.122187 -42.021094 
L 282.506963 -42.021094 
L 283.891739 -42.021094 
L 285.276515 -42.021094 
L 286.661291 -42.021094 
L 288.046067 -42.021094 
L 289.430843 -42.021094 
L 290.815618 -42.021094 
L 292.200394 -42.021094 
L 293.58517 -42.021094 
L 294.969946 -42.021094 
L 296.354722 -42.021094 
L 297.739498 -42.021094 
L 299.124274 -42.021094 
L 300.50905 -42.021094 
L 301.893826 -42.021094 
L 303.278602 -42.021094 
L 304.663378 -42.021094 
L 306.048154 -42.021094 
L 307.43293 -42.021094 
L 308.817706 -42.021094 
L 310.202482 -42.021094 
L 311.587258 -42.021094 
L 312.972034 -42.021094 
L 314.35681 -42.021094 
L 315.741586 -42.021094 
L 317.126362 -42.021094 
L 318.511138 -42.021094 
L 319.895913 -42.021094 
L 321.280689 -42.021094 
L 322.665465 -42.021094 
L 324.050241 -42.021094 
L 325.435017 -42.021094 
L 326.819793 -42.021094 
L 328.204569 -42.021094 
L 329.589345 -42.021094 
L 330.974121 -42.021094 
L 332.358897 -42.021094 
L 333.743673 -42.021094 
L 335.128449 -42.021094 
L 336.513225 -42.021094 
L 337.898001 -42.021094 
L 339.282777 -42.021094 
L 340.667553 -42.021094 
L 342.052329 -42.021094 
L 343.437105 -42.021094 
L 344.821881 -42.021094 
L 346.206657 -42.021094 
L 347.591433 -42.021094 
L 348.976208 -42.021094 
L 350.360984 -42.021094 
L 351.74576 -42.021094 
L 353.130536 -42.021094 
L 354.515312 -42.021094 
L 355.900088 -42.021094 
L 357.284864 -42.021094 
L 358.66964 -42.021094 
L 360.054416 -42.021094 
L 361.439192 -42.021094 
L 362.823968 -42.021094 
L 364.208744 -42.021094 
L 365.59352 -42.021094 
L 366.978296 -42.021094 
L 368.363072 -42.021094 
L 369.747848 -42.021094 
L 371.132624 -42.021094 
L 372.5174 -42.021094 
L 373.902176 -42.021094 
L 375.286952 -42.021094 
L 376.671728 -42.021094 
L 378.056503 -42.021094 
L 379.441279 -42.021094 
L 380.826055 -42.021094 
L 382.210831 -42.021094 
L 383.595607 -42.021094 
L 384.980383 -42.021094 
L 386.365159 -42.021094 
L 387.749935 -42.021094 
L 389.134711 -42.021094 
L 390.519487 -42.021094 
L 391.904263 -42.021094 
L 393.289039 -42.021094 
L 394.673815 -42.021094 
L 396.058591 -42.021094 
L 397.443367 -42.021094 
L 398.828143 -42.021094 
L 400.212919 -42.021094 
L 401.597695 -42.021094 
L 402.982471 -42.021094 
L 404.367247 -42.021094 
L 405.752023 -42.021094 
L 407.136798 -42.021094 
L 408.521574 -42.021094 
L 409.90635 -42.021094 
L 411.291126 -42.021094 
L 412.675902 -42.021094 
L 414.060678 -42.021094 
L 415.445454 -42.021094 
L 416.83023 -42.021094 
L 418.215006 -42.021094 
L 419.599782 -42.021094 
L 420.984558 -42.021094 
L 422.369334 -42.021094 
L 423.75411 -42.021094 
L 425.138886 -42.021094 
L 426.523662 -42.021094 
L 427.908438 -42.021094 
L 429.293214 -42.021094 
L 430.67799 -42.021094 
L 432.062766 -42.021094 
L 433.447542 -42.021094 
L 434.832318 -42.021094 
L 436.217093 -42.021094 
L 437.601869 -42.021094 
L 438.986645 -42.021094 
L 440.371421 -42.021094 
L 441.756197 -42.021094 
L 443.140973 -42.021094 
L 444.525749 -42.021094 
L 445.910525 -42.021094 
L 447.295301 -42.021094 
L 448.680077 -42.021094 
L 450.064853 -42.021094 
L 451.449629 -42.021094 
L 452.834405 -42.021094 
L 454.219181 -42.021094 
L 455.603957 -42.021094 
L 456.988733 -42.021094 
L 458.373509 -42.021094 
L 459.758285 -42.021094 
L 461.143061 -42.021094 
L 462.527837 -42.021094 
L 463.912613 -42.021094 
L 465.297388 -42.021094 
L 466.682164 -42.021094 
L 468.06694 -42.021094 
L 469.451716 -42.021094 
L 470.836492 -42.021094 
L 472.221268 -42.021094 
L 472.221268 -42.298311 
L 472.221268 -42.298311 
L 470.836492 -42.475029 
L 469.451716 -42.743434 
L 468.06694 -43.138122 
L 466.682164 -43.699743 
L 465.297388 -44.472584 
L 463.912613 -45.500261 
L 462.527837 -46.819496 
L 461.143061 -48.452353 
L 459.758285 -50.397876 
L 458.373509 -52.62453 
L 456.988733 -55.065251 
L 455.603957 -57.616846 
L 454.219181 -60.145138 
L 452.834405 -62.496369 
L 451.449629 -64.514272 
L 450.064853 -66.061051 
L 448.680077 -67.039612 
L 447.295301 -67.413959 
L 445.910525 -67.22492 
L 444.525749 -66.599071 
L 443.140973 -65.749823 
L 441.756197 -64.970516 
L 440.371421 -64.620037 
L 438.986645 -65.101466 
L 437.601869 -66.834033 
L 436.217093 -70.218317 
L 434.832318 -75.594865 
L 433.447542 -83.197483 
L 432.062766 -93.10454 
L 430.67799 -105.194289 
L 429.293214 -119.112646 
L 427.908438 -134.263041 
L 426.523662 -149.826823 
L 425.138886 -164.818872 
L 423.75411 -178.176868 
L 422.369334 -188.875316 
L 420.984558 -196.048761 
L 419.599782 -199.104632 
L 418.215006 -197.806243 
L 416.83023 -192.311 
L 415.445454 -183.156918 
L 414.060678 -171.200198 
L 412.675902 -157.515386 
L 411.291126 -143.275357 
L 409.90635 -129.629906 
L 408.521574 -117.599099 
L 407.136798 -107.99201 
L 405.752023 -101.355039 
L 404.367247 -97.948506 
L 402.982471 -97.747042 
L 401.597695 -100.45869 
L 400.212919 -105.558927 
L 398.828143 -112.337757 
L 397.443367 -119.959206 
L 396.058591 -127.532147 
L 394.673815 -134.189251 
L 393.289039 -139.167765 
L 391.904263 -141.883023 
L 390.519487 -141.984376 
L 389.134711 -139.384473 
L 387.749935 -134.256537 
L 386.365159 -126.999712 
L 384.980383 -118.178297 
L 383.595607 -108.445257 
L 382.210831 -98.462612 
L 380.826055 -88.83073 
L 379.441279 -80.035589 
L 378.056503 -72.418589 
L 376.671728 -66.168884 
L 375.286952 -61.334442 
L 373.902176 -57.845897 
L 372.5174 -55.546859 
L 371.132624 -54.225273 
L 369.747848 -53.642117 
L 368.363072 -53.55553 
L 366.978296 -53.739806 
L 365.59352 -53.999495 
L 364.208744 -54.17903 
L 362.823968 -54.168204 
L 361.439192 -53.903636 
L 360.054416 -53.366337 
L 358.66964 -52.575706 
L 357.284864 -51.580651 
L 355.900088 -50.448931 
L 354.515312 -49.256094 
L 353.130536 -48.075397 
L 351.74576 -46.969834 
L 350.360984 -45.986964 
L 348.976208 -45.156671 
L 347.591433 -44.491509 
L 346.206657 -43.988973 
L 344.821881 -43.634884 
L 343.437105 -43.407153 
L 342.052329 -43.279367 
L 340.667553 -43.223857 
L 339.282777 -43.21412 
L 337.898001 -43.226596 
L 336.513225 -43.241867 
L 335.128449 -43.24535 
L 333.743673 -43.227548 
L 332.358897 -43.183878 
L 330.974121 -43.114133 
L 329.589345 -43.021628 
L 328.204569 -42.912137 
L 326.819793 -42.792736 
L 325.435017 -42.670718 
L 324.050241 -42.552674 
L 322.665465 -42.443856 
L 321.280689 -42.347851 
L 319.895913 -42.266534 
L 318.511138 -42.200258 
L 317.126362 -42.148197 
L 315.741586 -42.108733 
L 314.35681 -42.079845 
L 312.972034 -42.059424 
L 311.587258 -42.04551 
L 310.202482 -42.036434 
L 308.817706 -42.030891 
L 307.43293 -42.027965 
L 306.048154 -42.02712 
L 304.663378 -42.028194 
L 303.278602 -42.031394 
L 301.893826 -42.037297 
L 300.50905 -42.046867 
L 299.124274 -42.061453 
L 297.739498 -42.082764 
L 296.354722 -42.112786 
L 294.969946 -42.153631 
L 293.58517 -42.207289 
L 292.200394 -42.275302 
L 290.815618 -42.358373 
L 289.430843 -42.455968 
L 288.046067 -42.565989 
L 286.661291 -42.684586 
L 285.276515 -42.806207 
L 283.891739 -42.923915 
L 282.506963 -43.029987 
L 281.122187 -43.11672 
L 279.737411 -43.177347 
L 278.352635 -43.206909 
L 276.967859 -43.202923 
L 275.583083 -43.165726 
L 274.198307 -43.098429 
L 272.813531 -43.006486 
L 271.428755 -42.896966 
L 270.043979 -42.777659 
L 268.659203 -42.656169 
L 267.274427 -42.539151 
L 265.889651 -42.431775 
L 264.504875 -42.337471 
L 263.120099 -42.257948 
L 261.735323 -42.193415 
L 260.350548 -42.142934 
L 258.965772 -42.104825 
L 257.580996 -42.077042 
L 256.19622 -42.057484 
L 254.811444 -42.044219 
L 253.426668 -42.035619 
L 252.041892 -42.030425 
L 250.657116 -42.027764 
L 249.27234 -42.027146 
L 247.887564 -42.028453 
L 246.502788 -42.031933 
L 245.118012 -42.03821 
L 243.733236 -42.048293 
L 242.34846 -42.063576 
L 240.963684 -42.085804 
L 239.578908 -42.11699 
L 238.194132 -42.159245 
L 236.809356 -42.214525 
L 235.42458 -42.284293 
L 234.039804 -42.369129 
L 232.655028 -42.468329 
L 231.270253 -42.579593 
L 229.885477 -42.698865 
L 228.500701 -42.820407 
L 227.115925 -42.937155 
L 225.731149 -43.041341 
L 224.346373 -43.125325 
L 222.961597 -43.182511 
L 221.576821 -43.208201 
L 220.192045 -43.200234 
L 218.807269 -43.159283 
L 217.422493 -43.088763 
L 216.037717 -42.994363 
L 214.652941 -42.883282 
L 213.268165 -42.763336 
L 211.883389 -42.642052 
L 210.498613 -42.525932 
L 209.113837 -42.41995 
L 207.729061 -42.327328 
L 206.344285 -42.249582 
L 204.959509 -42.186766 
L 203.574733 -42.13783 
L 202.189958 -42.101029 
L 200.805182 -42.074285 
L 199.420406 -42.055491 
L 198.03563 -42.04271 
L 196.650854 -42.034295 
z
" id="mdd3499edcf" style="stroke:#55a868;"/>
    </defs>
    <g clip-path="url(#p0191c03c42)">
     <use style="fill:#55a868;fill-opacity:0.25;stroke:#55a868;" x="0" xlink:href="#mdd3499edcf" y="390.116719"/>
    </g>
   </g>
   <g id="PolyCollection_4">
    <defs>
     <path d="M 403.867434 -43.42359 
L 403.867434 -42.021094 
L 404.307578 -42.021094 
L 404.747722 -42.021094 
L 405.187866 -42.021094 
L 405.62801 -42.021094 
L 406.068154 -42.021094 
L 406.508299 -42.021094 
L 406.948443 -42.021094 
L 407.388587 -42.021094 
L 407.828731 -42.021094 
L 408.268875 -42.021094 
L 408.709019 -42.021094 
L 409.149163 -42.021094 
L 409.589307 -42.021094 
L 410.029451 -42.021094 
L 410.469595 -42.021094 
L 410.909739 -42.021094 
L 411.349883 -42.021094 
L 411.790028 -42.021094 
L 412.230172 -42.021094 
L 412.670316 -42.021094 
L 413.11046 -42.021094 
L 413.550604 -42.021094 
L 413.990748 -42.021094 
L 414.430892 -42.021094 
L 414.871036 -42.021094 
L 415.31118 -42.021094 
L 415.751324 -42.021094 
L 416.191468 -42.021094 
L 416.631613 -42.021094 
L 417.071757 -42.021094 
L 417.511901 -42.021094 
L 417.952045 -42.021094 
L 418.392189 -42.021094 
L 418.832333 -42.021094 
L 419.272477 -42.021094 
L 419.712621 -42.021094 
L 420.152765 -42.021094 
L 420.592909 -42.021094 
L 421.033053 -42.021094 
L 421.473197 -42.021094 
L 421.913342 -42.021094 
L 422.353486 -42.021094 
L 422.79363 -42.021094 
L 423.233774 -42.021094 
L 423.673918 -42.021094 
L 424.114062 -42.021094 
L 424.554206 -42.021094 
L 424.99435 -42.021094 
L 425.434494 -42.021094 
L 425.874638 -42.021094 
L 426.314782 -42.021094 
L 426.754926 -42.021094 
L 427.195071 -42.021094 
L 427.635215 -42.021094 
L 428.075359 -42.021094 
L 428.515503 -42.021094 
L 428.955647 -42.021094 
L 429.395791 -42.021094 
L 429.835935 -42.021094 
L 430.276079 -42.021094 
L 430.716223 -42.021094 
L 431.156367 -42.021094 
L 431.596511 -42.021094 
L 432.036656 -42.021094 
L 432.4768 -42.021094 
L 432.916944 -42.021094 
L 433.357088 -42.021094 
L 433.797232 -42.021094 
L 434.237376 -42.021094 
L 434.67752 -42.021094 
L 435.117664 -42.021094 
L 435.557808 -42.021094 
L 435.997952 -42.021094 
L 436.438096 -42.021094 
L 436.87824 -42.021094 
L 437.318385 -42.021094 
L 437.758529 -42.021094 
L 438.198673 -42.021094 
L 438.638817 -42.021094 
L 439.078961 -42.021094 
L 439.519105 -42.021094 
L 439.959249 -42.021094 
L 440.399393 -42.021094 
L 440.839537 -42.021094 
L 441.279681 -42.021094 
L 441.719825 -42.021094 
L 442.159969 -42.021094 
L 442.600114 -42.021094 
L 443.040258 -42.021094 
L 443.480402 -42.021094 
L 443.920546 -42.021094 
L 444.36069 -42.021094 
L 444.800834 -42.021094 
L 445.240978 -42.021094 
L 445.681122 -42.021094 
L 446.121266 -42.021094 
L 446.56141 -42.021094 
L 447.001554 -42.021094 
L 447.441699 -42.021094 
L 447.881843 -42.021094 
L 448.321987 -42.021094 
L 448.762131 -42.021094 
L 449.202275 -42.021094 
L 449.642419 -42.021094 
L 450.082563 -42.021094 
L 450.522707 -42.021094 
L 450.962851 -42.021094 
L 451.402995 -42.021094 
L 451.843139 -42.021094 
L 452.283283 -42.021094 
L 452.723428 -42.021094 
L 453.163572 -42.021094 
L 453.603716 -42.021094 
L 454.04386 -42.021094 
L 454.484004 -42.021094 
L 454.924148 -42.021094 
L 455.364292 -42.021094 
L 455.804436 -42.021094 
L 456.24458 -42.021094 
L 456.684724 -42.021094 
L 457.124868 -42.021094 
L 457.565012 -42.021094 
L 458.005157 -42.021094 
L 458.445301 -42.021094 
L 458.885445 -42.021094 
L 459.325589 -42.021094 
L 459.765733 -42.021094 
L 460.205877 -42.021094 
L 460.646021 -42.021094 
L 461.086165 -42.021094 
L 461.526309 -42.021094 
L 461.966453 -42.021094 
L 462.406597 -42.021094 
L 462.846742 -42.021094 
L 463.286886 -42.021094 
L 463.72703 -42.021094 
L 464.167174 -42.021094 
L 464.607318 -42.021094 
L 465.047462 -42.021094 
L 465.487606 -42.021094 
L 465.92775 -42.021094 
L 466.367894 -42.021094 
L 466.808038 -42.021094 
L 467.248182 -42.021094 
L 467.688326 -42.021094 
L 468.128471 -42.021094 
L 468.568615 -42.021094 
L 469.008759 -42.021094 
L 469.448903 -42.021094 
L 469.889047 -42.021094 
L 470.329191 -42.021094 
L 470.769335 -42.021094 
L 471.209479 -42.021094 
L 471.649623 -42.021094 
L 472.089767 -42.021094 
L 472.529911 -42.021094 
L 472.970055 -42.021094 
L 473.4102 -42.021094 
L 473.850344 -42.021094 
L 474.290488 -42.021094 
L 474.730632 -42.021094 
L 475.170776 -42.021094 
L 475.61092 -42.021094 
L 476.051064 -42.021094 
L 476.491208 -42.021094 
L 476.931352 -42.021094 
L 477.371496 -42.021094 
L 477.81164 -42.021094 
L 478.251785 -42.021094 
L 478.691929 -42.021094 
L 479.132073 -42.021094 
L 479.572217 -42.021094 
L 480.012361 -42.021094 
L 480.452505 -42.021094 
L 480.892649 -42.021094 
L 481.332793 -42.021094 
L 481.772937 -42.021094 
L 482.213081 -42.021094 
L 482.653225 -42.021094 
L 483.093369 -42.021094 
L 483.533514 -42.021094 
L 483.973658 -42.021094 
L 484.413802 -42.021094 
L 484.853946 -42.021094 
L 485.29409 -42.021094 
L 485.734234 -42.021094 
L 486.174378 -42.021094 
L 486.614522 -42.021094 
L 487.054666 -42.021094 
L 487.49481 -42.021094 
L 487.934954 -42.021094 
L 488.375098 -42.021094 
L 488.815243 -42.021094 
L 489.255387 -42.021094 
L 489.695531 -42.021094 
L 490.135675 -42.021094 
L 490.575819 -42.021094 
L 491.015963 -42.021094 
L 491.456107 -42.021094 
L 491.456107 -42.397884 
L 491.456107 -42.397884 
L 491.015963 -42.505935 
L 490.575819 -42.640453 
L 490.135675 -42.806562 
L 489.695531 -43.010008 
L 489.255387 -43.257132 
L 488.815243 -43.554822 
L 488.375098 -43.910425 
L 487.934954 -44.331621 
L 487.49481 -44.826253 
L 487.054666 -45.40211 
L 486.614522 -46.06667 
L 486.174378 -46.826794 
L 485.734234 -47.688396 
L 485.29409 -48.65607 
L 484.853946 -49.732715 
L 484.413802 -50.919154 
L 483.973658 -52.213771 
L 483.533514 -53.612191 
L 483.093369 -55.10701 
L 482.653225 -56.687612 
L 482.213081 -58.340083 
L 481.772937 -60.047235 
L 481.332793 -61.78877 
L 480.892649 -63.541566 
L 480.452505 -65.280107 
L 480.012361 -66.977042 
L 479.572217 -68.603862 
L 479.132073 -70.131664 
L 478.691929 -71.531992 
L 478.251785 -72.777709 
L 477.81164 -73.843864 
L 477.371496 -74.708524 
L 476.931352 -75.353523 
L 476.491208 -75.765093 
L 476.051064 -75.934359 
L 475.61092 -75.857655 
L 475.170776 -75.536658 
L 474.730632 -74.978329 
L 474.290488 -74.194668 
L 473.850344 -73.202287 
L 473.4102 -72.021832 
L 472.970055 -70.677284 
L 472.529911 -69.19516 
L 472.089767 -67.603667 
L 471.649623 -65.931849 
L 471.209479 -64.208751 
L 470.769335 -62.462653 
L 470.329191 -60.720399 
L 469.889047 -59.006845 
L 469.448903 -57.344453 
L 469.008759 -55.753033 
L 468.568615 -54.249645 
L 468.128471 -52.848669 
L 467.688326 -51.562014 
L 467.248182 -50.399477 
L 466.808038 -49.369228 
L 466.367894 -48.478402 
L 465.92775 -47.733785 
L 465.487606 -47.142565 
L 465.047462 -46.713136 
L 464.607318 -46.455925 
L 464.167174 -46.384224 
L 463.72703 -46.514992 
L 463.286886 -46.869608 
L 462.846742 -47.47454 
L 462.406597 -48.361892 
L 461.966453 -49.56979 
L 461.526309 -51.142574 
L 461.086165 -53.130733 
L 460.646021 -55.590561 
L 460.205877 -58.583463 
L 459.765733 -62.174902 
L 459.325589 -66.432935 
L 458.885445 -71.426323 
L 458.445301 -77.222234 
L 458.005157 -83.883538 
L 457.565012 -91.465752 
L 457.124868 -100.013714 
L 456.684724 -109.55808 
L 456.24458 -120.111782 
L 455.804436 -131.666605 
L 455.364292 -144.190051 
L 454.924148 -157.622695 
L 454.484004 -171.876204 
L 454.04386 -186.832223 
L 453.603716 -202.342272 
L 453.163572 -218.228796 
L 452.723428 -234.287441 
L 452.283283 -250.290585 
L 451.843139 -265.992088 
L 451.402995 -281.133153 
L 450.962851 -295.449135 
L 450.522707 -308.677041 
L 450.082563 -320.563462 
L 449.642419 -330.872584 
L 449.202275 -339.393938 
L 448.762131 -345.949529 
L 448.321987 -350.400021 
L 447.881843 -352.649652 
L 447.441699 -352.649665 
L 447.001554 -350.400062 
L 446.56141 -345.949607 
L 446.121266 -339.394067 
L 445.681122 -330.87279 
L 445.240978 -320.563781 
L 444.800834 -308.67753 
L 444.36069 -295.449877 
L 443.920546 -281.134272 
L 443.480402 -265.993761 
L 443.040258 -250.293068 
L 442.600114 -234.291099 
L 442.159969 -218.234146 
L 441.719825 -202.35004 
L 441.279681 -186.843421 
L 440.839537 -171.89223 
L 440.399393 -157.645463 
L 439.959249 -144.222163 
L 439.519105 -131.711568 
L 439.078961 -120.174284 
L 438.638817 -109.644333 
L 438.198673 -100.131881 
L 437.758529 -91.626468 
L 437.318385 -84.100542 
L 436.87824 -77.513117 
L 436.438096 -71.813414 
L 435.997952 -66.944323 
L 435.557808 -62.845608 
L 435.117664 -59.456749 
L 434.67752 -56.71938 
L 434.237376 -54.579291 
L 433.797232 -52.987973 
L 433.357088 -51.903723 
L 432.916944 -51.292309 
L 432.4768 -51.127241 
L 432.036656 -51.389644 
L 431.596511 -52.067805 
L 431.156367 -53.156389 
L 430.716223 -54.655386 
L 430.276079 -56.568811 
L 429.835935 -58.903201 
L 429.395791 -61.665949 
L 428.955647 -64.863522 
L 428.515503 -68.499626 
L 428.075359 -72.573357 
L 427.635215 -77.077433 
L 427.195071 -81.996553 
L 426.754926 -87.305978 
L 426.314782 -92.970398 
L 425.874638 -98.943168 
L 425.434494 -105.165963 
L 424.99435 -111.56893 
L 424.554206 -118.07134 
L 424.114062 -124.582784 
L 423.673918 -131.004882 
L 423.233774 -137.23348 
L 422.79363 -143.16126 
L 422.353486 -148.680685 
L 421.913342 -153.687152 
L 421.473197 -158.082236 
L 421.033053 -161.776873 
L 420.592909 -164.69434 
L 420.152765 -166.772892 
L 419.712621 -167.967927 
L 419.272477 -168.253573 
L 418.832333 -167.623613 
L 418.392189 -166.091712 
L 417.952045 -163.69092 
L 417.511901 -160.472483 
L 417.071757 -156.50403 
L 416.631613 -151.867204 
L 416.191468 -146.654876 
L 415.751324 -140.968061 
L 415.31118 -134.912678 
L 414.871036 -128.596307 
L 414.430892 -122.125072 
L 413.990748 -115.600778 
L 413.550604 -109.118398 
L 413.11046 -102.763996 
L 412.670316 -96.613134 
L 412.230172 -90.729781 
L 411.790028 -85.165733 
L 411.349883 -79.960505 
L 410.909739 -75.141651 
L 410.469595 -70.725463 
L 410.029451 -66.717951 
L 409.589307 -63.116053 
L 409.149163 -59.90898 
L 408.709019 -57.079627 
L 408.268875 -54.605989 
L 407.828731 -52.462521 
L 407.388587 -50.621391 
L 406.948443 -49.053604 
L 406.508299 -47.72997 
L 406.068154 -46.621902 
L 405.62801 -45.702053 
L 405.187866 -44.944783 
L 404.747722 -44.326485 
L 404.307578 -43.825779 
L 403.867434 -43.42359 
z
" id="m0c137273bc" style="stroke:#dd8452;"/>
    </defs>
    <g clip-path="url(#p0191c03c42)">
     <use style="fill:#dd8452;fill-opacity:0.25;stroke:#dd8452;" x="0" xlink:href="#m0c137273bc" y="390.116719"/>
    </g>
   </g>
   <g id="PolyCollection_5">
    <defs>
     <path d="M 570.92143 -43.369546 
L 570.92143 -42.021094 
L 571.531803 -42.021094 
L 572.142176 -42.021094 
L 572.752549 -42.021094 
L 573.362922 -42.021094 
L 573.973295 -42.021094 
L 574.583668 -42.021094 
L 575.194041 -42.021094 
L 575.804414 -42.021094 
L 576.414787 -42.021094 
L 577.02516 -42.021094 
L 577.635533 -42.021094 
L 578.245906 -42.021094 
L 578.856279 -42.021094 
L 579.466652 -42.021094 
L 580.077025 -42.021094 
L 580.687398 -42.021094 
L 581.297772 -42.021094 
L 581.908145 -42.021094 
L 582.518518 -42.021094 
L 583.128891 -42.021094 
L 583.739264 -42.021094 
L 584.349637 -42.021094 
L 584.96001 -42.021094 
L 585.570383 -42.021094 
L 586.180756 -42.021094 
L 586.791129 -42.021094 
L 587.401502 -42.021094 
L 588.011875 -42.021094 
L 588.622248 -42.021094 
L 589.232621 -42.021094 
L 589.842994 -42.021094 
L 590.453367 -42.021094 
L 591.06374 -42.021094 
L 591.674113 -42.021094 
L 592.284487 -42.021094 
L 592.89486 -42.021094 
L 593.505233 -42.021094 
L 594.115606 -42.021094 
L 594.725979 -42.021094 
L 595.336352 -42.021094 
L 595.946725 -42.021094 
L 596.557098 -42.021094 
L 597.167471 -42.021094 
L 597.777844 -42.021094 
L 598.388217 -42.021094 
L 598.99859 -42.021094 
L 599.608963 -42.021094 
L 600.219336 -42.021094 
L 600.829709 -42.021094 
L 601.440082 -42.021094 
L 602.050455 -42.021094 
L 602.660828 -42.021094 
L 603.271202 -42.021094 
L 603.881575 -42.021094 
L 604.491948 -42.021094 
L 605.102321 -42.021094 
L 605.712694 -42.021094 
L 606.323067 -42.021094 
L 606.93344 -42.021094 
L 607.543813 -42.021094 
L 608.154186 -42.021094 
L 608.764559 -42.021094 
L 609.374932 -42.021094 
L 609.985305 -42.021094 
L 610.595678 -42.021094 
L 611.206051 -42.021094 
L 611.816424 -42.021094 
L 612.426797 -42.021094 
L 613.03717 -42.021094 
L 613.647543 -42.021094 
L 614.257917 -42.021094 
L 614.86829 -42.021094 
L 615.478663 -42.021094 
L 616.089036 -42.021094 
L 616.699409 -42.021094 
L 617.309782 -42.021094 
L 617.920155 -42.021094 
L 618.530528 -42.021094 
L 619.140901 -42.021094 
L 619.751274 -42.021094 
L 620.361647 -42.021094 
L 620.97202 -42.021094 
L 621.582393 -42.021094 
L 622.192766 -42.021094 
L 622.803139 -42.021094 
L 623.413512 -42.021094 
L 624.023885 -42.021094 
L 624.634258 -42.021094 
L 625.244632 -42.021094 
L 625.855005 -42.021094 
L 626.465378 -42.021094 
L 627.075751 -42.021094 
L 627.686124 -42.021094 
L 628.296497 -42.021094 
L 628.90687 -42.021094 
L 629.517243 -42.021094 
L 630.127616 -42.021094 
L 630.737989 -42.021094 
L 631.348362 -42.021094 
L 631.958735 -42.021094 
L 632.569108 -42.021094 
L 633.179481 -42.021094 
L 633.789854 -42.021094 
L 634.400227 -42.021094 
L 635.0106 -42.021094 
L 635.620973 -42.021094 
L 636.231347 -42.021094 
L 636.84172 -42.021094 
L 637.452093 -42.021094 
L 638.062466 -42.021094 
L 638.672839 -42.021094 
L 639.283212 -42.021094 
L 639.893585 -42.021094 
L 640.503958 -42.021094 
L 641.114331 -42.021094 
L 641.724704 -42.021094 
L 642.335077 -42.021094 
L 642.94545 -42.021094 
L 643.555823 -42.021094 
L 644.166196 -42.021094 
L 644.776569 -42.021094 
L 645.386942 -42.021094 
L 645.997315 -42.021094 
L 646.607688 -42.021094 
L 647.218062 -42.021094 
L 647.828435 -42.021094 
L 648.438808 -42.021094 
L 649.049181 -42.021094 
L 649.659554 -42.021094 
L 650.269927 -42.021094 
L 650.8803 -42.021094 
L 651.490673 -42.021094 
L 652.101046 -42.021094 
L 652.711419 -42.021094 
L 653.321792 -42.021094 
L 653.932165 -42.021094 
L 654.542538 -42.021094 
L 655.152911 -42.021094 
L 655.763284 -42.021094 
L 656.373657 -42.021094 
L 656.98403 -42.021094 
L 657.594403 -42.021094 
L 658.204777 -42.021094 
L 658.81515 -42.021094 
L 659.425523 -42.021094 
L 660.035896 -42.021094 
L 660.646269 -42.021094 
L 661.256642 -42.021094 
L 661.867015 -42.021094 
L 662.477388 -42.021094 
L 663.087761 -42.021094 
L 663.698134 -42.021094 
L 664.308507 -42.021094 
L 664.91888 -42.021094 
L 665.529253 -42.021094 
L 666.139626 -42.021094 
L 666.749999 -42.021094 
L 667.360372 -42.021094 
L 667.970745 -42.021094 
L 668.581118 -42.021094 
L 669.191492 -42.021094 
L 669.801865 -42.021094 
L 670.412238 -42.021094 
L 671.022611 -42.021094 
L 671.632984 -42.021094 
L 672.243357 -42.021094 
L 672.85373 -42.021094 
L 673.464103 -42.021094 
L 674.074476 -42.021094 
L 674.684849 -42.021094 
L 675.295222 -42.021094 
L 675.905595 -42.021094 
L 676.515968 -42.021094 
L 677.126341 -42.021094 
L 677.736714 -42.021094 
L 678.347087 -42.021094 
L 678.95746 -42.021094 
L 679.567833 -42.021094 
L 680.178207 -42.021094 
L 680.78858 -42.021094 
L 681.398953 -42.021094 
L 682.009326 -42.021094 
L 682.619699 -42.021094 
L 683.230072 -42.021094 
L 683.840445 -42.021094 
L 684.450818 -42.021094 
L 685.061191 -42.021094 
L 685.671564 -42.021094 
L 686.281937 -42.021094 
L 686.89231 -42.021094 
L 687.502683 -42.021094 
L 688.113056 -42.021094 
L 688.723429 -42.021094 
L 689.333802 -42.021094 
L 689.944175 -42.021094 
L 690.554548 -42.021094 
L 691.164922 -42.021094 
L 691.775295 -42.021094 
L 692.385668 -42.021094 
L 692.385668 -42.038837 
L 692.385668 -42.038837 
L 691.775295 -42.044939 
L 691.164922 -42.052821 
L 690.554548 -42.062885 
L 689.944175 -42.075593 
L 689.333802 -42.091454 
L 688.723429 -42.111024 
L 688.113056 -42.134888 
L 687.502683 -42.163646 
L 686.89231 -42.197887 
L 686.281937 -42.238163 
L 685.671564 -42.28495 
L 685.061191 -42.338618 
L 684.450818 -42.399383 
L 683.840445 -42.467273 
L 683.230072 -42.54209 
L 682.619699 -42.623373 
L 682.009326 -42.71038 
L 681.398953 -42.802075 
L 680.78858 -42.897127 
L 680.178207 -42.993929 
L 679.567833 -43.090634 
L 678.95746 -43.185206 
L 678.347087 -43.275484 
L 677.736714 -43.359265 
L 677.126341 -43.434389 
L 676.515968 -43.498839 
L 675.905595 -43.550823 
L 675.295222 -43.58887 
L 674.684849 -43.611902 
L 674.074476 -43.619292 
L 673.464103 -43.610909 
L 672.85373 -43.587137 
L 672.243357 -43.54888 
L 671.632984 -43.497548 
L 671.022611 -43.435023 
L 670.412238 -43.363633 
L 669.801865 -43.286111 
L 669.191492 -43.205568 
L 668.581118 -43.12548 
L 667.970745 -43.049701 
L 667.360372 -42.982498 
L 666.749999 -42.92862 
L 666.139626 -42.89341 
L 665.529253 -42.882932 
L 664.91888 -42.904139 
L 664.308507 -42.965054 
L 663.698134 -43.074945 
L 663.087761 -43.244491 
L 662.477388 -43.485909 
L 661.867015 -43.81301 
L 661.256642 -44.241164 
L 660.646269 -44.787148 
L 660.035896 -45.468837 
L 659.425523 -46.304738 
L 658.81515 -47.313332 
L 658.204777 -48.512244 
L 657.594403 -49.917228 
L 656.98403 -51.541024 
L 656.373657 -53.392101 
L 655.763284 -55.473383 
L 655.152911 -57.781001 
L 654.542538 -60.303196 
L 653.932165 -63.019448 
L 653.321792 -65.89993 
L 652.711419 -68.905388 
L 652.101046 -71.987501 
L 651.490673 -75.089774 
L 650.8803 -78.148974 
L 650.269927 -81.09707 
L 649.659554 -83.863627 
L 649.049181 -86.37852 
L 648.438808 -88.574858 
L 647.828435 -90.39192 
L 647.218062 -91.777955 
L 646.607688 -92.692645 
L 645.997315 -93.109088 
L 645.386942 -93.015163 
L 644.776569 -92.41419 
L 644.166196 -91.324851 
L 643.555823 -89.780375 
L 642.94545 -87.827077 
L 642.335077 -85.522344 
L 641.724704 -82.932233 
L 641.114331 -80.128868 
L 640.503958 -77.187809 
L 639.893585 -74.185587 
L 639.283212 -71.197569 
L 638.672839 -68.296293 
L 638.062466 -65.550348 
L 637.452093 -63.023861 
L 636.84172 -60.776574 
L 636.231347 -58.864458 
L 635.620973 -57.340761 
L 635.0106 -56.257346 
L 634.400227 -55.666155 
L 633.789854 -55.620588 
L 633.179481 -56.176618 
L 632.569108 -57.393421 
L 631.958735 -59.333356 
L 631.348362 -62.061138 
L 630.737989 -65.642094 
L 630.127616 -70.139468 
L 629.517243 -75.610778 
L 628.90687 -82.103349 
L 628.296497 -89.649183 
L 627.686124 -98.259454 
L 627.075751 -107.918965 
L 626.465378 -118.580967 
L 625.855005 -130.162791 
L 625.244632 -142.542733 
L 624.634258 -155.558632 
L 624.023885 -169.008469 
L 623.413512 -182.653259 
L 622.803139 -196.222337 
L 622.192766 -209.42097 
L 621.582393 -221.940081 
L 620.97202 -233.467647 
L 620.361647 -243.701217 
L 619.751274 -252.360837 
L 619.140901 -259.201619 
L 618.530528 -264.025149 
L 617.920155 -266.688993 
L 617.309782 -267.11366 
L 616.699409 -265.286543 
L 616.089036 -261.262564 
L 615.478663 -255.161493 
L 614.86829 -247.162112 
L 614.257917 -237.493651 
L 613.647543 -226.425069 
L 613.03717 -214.252906 
L 612.426797 -201.288494 
L 611.816424 -187.845314 
L 611.206051 -174.227241 
L 610.595678 -160.718303 
L 609.985305 -147.574428 
L 609.374932 -135.017489 
L 608.764559 -123.231751 
L 608.154186 -112.362679 
L 607.543813 -102.517882 
L 606.93344 -93.769863 
L 606.323067 -86.160142 
L 605.712694 -79.704292 
L 605.102321 -74.397396 
L 604.491948 -70.219469 
L 603.881575 -67.140447 
L 603.271202 -65.124411 
L 602.660828 -64.132799 
L 602.050455 -64.126467 
L 601.440082 -65.066552 
L 600.829709 -66.914165 
L 600.219336 -69.629071 
L 599.608963 -73.167529 
L 598.99859 -77.479578 
L 598.388217 -82.506063 
L 597.777844 -88.175735 
L 597.167471 -94.40275 
L 596.557098 -101.084892 
L 595.946725 -108.102773 
L 595.336352 -115.320231 
L 594.725979 -122.586036 
L 594.115606 -129.736943 
L 593.505233 -136.601997 
L 592.89486 -143.007927 
L 592.284487 -148.785329 
L 591.674113 -153.77529 
L 591.06374 -157.836041 
L 590.453367 -160.849193 
L 589.842994 -162.725136 
L 589.232621 -163.407226 
L 588.622248 -162.874447 
L 588.011875 -161.142366 
L 587.401502 -158.262283 
L 586.791129 -154.318655 
L 586.180756 -149.424937 
L 585.570383 -143.718134 
L 584.96001 -137.352427 
L 584.349637 -130.492269 
L 583.739264 -123.30539 
L 583.128891 -115.956114 
L 582.518518 -108.599348 
L 581.908145 -101.375542 
L 581.297772 -94.406798 
L 580.687398 -87.794259 
L 580.077025 -81.616768 
L 579.466652 -75.930733 
L 578.856279 -70.771053 
L 578.245906 -66.152906 
L 577.635533 -62.074182 
L 577.02516 -58.518332 
L 576.414787 -55.457398 
L 575.804414 -52.85505 
L 575.194041 -50.669437 
L 574.583668 -48.855762 
L 573.973295 -47.368468 
L 573.362922 -46.16302 
L 572.752549 -45.197256 
L 572.142176 -44.432341 
L 571.531803 -43.833349 
L 570.92143 -43.369546 
z
" id="m8009af7353" style="stroke:#4c72b0;"/>
    </defs>
    <g clip-path="url(#p0191c03c42)">
     <use style="fill:#4c72b0;fill-opacity:0.25;stroke:#4c72b0;" x="0" xlink:href="#m8009af7353" y="390.116719"/>
    </g>
   </g>
   <g id="patch_3">
    <path d="M 53.222031 348.095625 
L 53.222031 21.935625 
" style="fill:none;stroke:#ffffff;stroke-linecap:square;stroke-linejoin:miter;stroke-width:1.25;"/>
   </g>
   <g id="patch_4">
    <path d="M 722.822031 348.095625 
L 722.822031 21.935625 
" style="fill:none;stroke:#ffffff;stroke-linecap:square;stroke-linejoin:miter;stroke-width:1.25;"/>
   </g>
   <g id="patch_5">
    <path d="M 53.222031 348.095625 
L 722.822031 348.095625 
" style="fill:none;stroke:#ffffff;stroke-linecap:square;stroke-linejoin:miter;stroke-width:1.25;"/>
   </g>
   <g id="patch_6">
    <path d="M 53.222031 21.935625 
L 722.822031 21.935625 
" style="fill:none;stroke:#ffffff;stroke-linecap:square;stroke-linejoin:miter;stroke-width:1.25;"/>
   </g>
   <g id="text_15">
    <!-- Density Estimation of RSSI Values at Different Distances -->
    <g style="fill:#262626;" transform="translate(237.512031 15.935625)scale(0.12 -0.12)">
     <defs>
      <path d="M 8.6875 0 
L 8.6875 45.015625 
L 0.921875 45.015625 
L 0.921875 51.859375 
L 8.6875 51.859375 
L 8.6875 57.375 
Q 8.6875 62.59375 9.625 65.140625 
Q 10.890625 68.5625 14.078125 70.671875 
Q 17.28125 72.796875 23.046875 72.796875 
Q 26.765625 72.796875 31.25 71.921875 
L 29.9375 64.265625 
Q 27.203125 64.75 24.75 64.75 
Q 20.75 64.75 19.09375 63.03125 
Q 17.4375 61.328125 17.4375 56.640625 
L 17.4375 51.859375 
L 27.546875 51.859375 
L 27.546875 45.015625 
L 17.4375 45.015625 
L 17.4375 0 
z
" id="ArialMT-102"/>
      <path d="M 40.4375 19 
L 49.078125 17.875 
Q 47.65625 8.9375 41.8125 3.875 
Q 35.984375 -1.171875 27.484375 -1.171875 
Q 16.84375 -1.171875 10.375 5.78125 
Q 3.90625 12.75 3.90625 25.734375 
Q 3.90625 34.125 6.6875 40.421875 
Q 9.46875 46.734375 15.15625 49.875 
Q 20.84375 53.03125 27.546875 53.03125 
Q 35.984375 53.03125 41.359375 48.75 
Q 46.734375 44.484375 48.25 36.625 
L 39.703125 35.296875 
Q 38.484375 40.53125 35.375 43.15625 
Q 32.28125 45.796875 27.875 45.796875 
Q 21.234375 45.796875 17.078125 41.03125 
Q 12.9375 36.28125 12.9375 25.984375 
Q 12.9375 15.53125 16.9375 10.796875 
Q 20.953125 6.0625 27.390625 6.0625 
Q 32.5625 6.0625 36.03125 9.234375 
Q 39.5 12.40625 40.4375 19 
z
" id="ArialMT-99"/>
     </defs>
     <use xlink:href="#ArialMT-68"/>
     <use x="72.216797" xlink:href="#ArialMT-101"/>
     <use x="127.832031" xlink:href="#ArialMT-110"/>
     <use x="183.447266" xlink:href="#ArialMT-115"/>
     <use x="233.447266" xlink:href="#ArialMT-105"/>
     <use x="255.664062" xlink:href="#ArialMT-116"/>
     <use x="283.447266" xlink:href="#ArialMT-121"/>
     <use x="333.447266" xlink:href="#ArialMT-32"/>
     <use x="361.230469" xlink:href="#ArialMT-69"/>
     <use x="427.929688" xlink:href="#ArialMT-115"/>
     <use x="477.929688" xlink:href="#ArialMT-116"/>
     <use x="505.712891" xlink:href="#ArialMT-105"/>
     <use x="527.929688" xlink:href="#ArialMT-109"/>
     <use x="611.230469" xlink:href="#ArialMT-97"/>
     <use x="666.845703" xlink:href="#ArialMT-116"/>
     <use x="694.628906" xlink:href="#ArialMT-105"/>
     <use x="716.845703" xlink:href="#ArialMT-111"/>
     <use x="772.460938" xlink:href="#ArialMT-110"/>
     <use x="828.076172" xlink:href="#ArialMT-32"/>
     <use x="855.859375" xlink:href="#ArialMT-111"/>
     <use x="911.474609" xlink:href="#ArialMT-102"/>
     <use x="939.257812" xlink:href="#ArialMT-32"/>
     <use x="967.041016" xlink:href="#ArialMT-82"/>
     <use x="1039.257812" xlink:href="#ArialMT-83"/>
     <use x="1105.957031" xlink:href="#ArialMT-83"/>
     <use x="1172.65625" xlink:href="#ArialMT-73"/>
     <use x="1200.439453" xlink:href="#ArialMT-32"/>
     <use x="1228.222656" xlink:href="#ArialMT-86"/>
     <use x="1287.546875" xlink:href="#ArialMT-97"/>
     <use x="1343.162109" xlink:href="#ArialMT-108"/>
     <use x="1365.378906" xlink:href="#ArialMT-117"/>
     <use x="1420.994141" xlink:href="#ArialMT-101"/>
     <use x="1476.609375" xlink:href="#ArialMT-115"/>
     <use x="1526.609375" xlink:href="#ArialMT-32"/>
     <use x="1554.392578" xlink:href="#ArialMT-97"/>
     <use x="1610.007812" xlink:href="#ArialMT-116"/>
     <use x="1637.791016" xlink:href="#ArialMT-32"/>
     <use x="1665.574219" xlink:href="#ArialMT-68"/>
     <use x="1737.791016" xlink:href="#ArialMT-105"/>
     <use x="1760.007812" xlink:href="#ArialMT-102"/>
     <use x="1786.041016" xlink:href="#ArialMT-102"/>
     <use x="1813.824219" xlink:href="#ArialMT-101"/>
     <use x="1869.439453" xlink:href="#ArialMT-114"/>
     <use x="1902.740234" xlink:href="#ArialMT-101"/>
     <use x="1958.355469" xlink:href="#ArialMT-110"/>
     <use x="2013.970703" xlink:href="#ArialMT-116"/>
     <use x="2041.753906" xlink:href="#ArialMT-32"/>
     <use x="2069.537109" xlink:href="#ArialMT-68"/>
     <use x="2141.753906" xlink:href="#ArialMT-105"/>
     <use x="2163.970703" xlink:href="#ArialMT-115"/>
     <use x="2213.970703" xlink:href="#ArialMT-116"/>
     <use x="2241.753906" xlink:href="#ArialMT-97"/>
     <use x="2297.369141" xlink:href="#ArialMT-110"/>
     <use x="2352.984375" xlink:href="#ArialMT-99"/>
     <use x="2402.984375" xlink:href="#ArialMT-101"/>
     <use x="2458.599609" xlink:href="#ArialMT-115"/>
    </g>
   </g>
   <g id="legend_1">
    <g id="patch_7">
     <path d="M 655.469375 108.534844 
L 715.122031 108.534844 
Q 717.322031 108.534844 717.322031 106.334844 
L 717.322031 29.635625 
Q 717.322031 27.435625 715.122031 27.435625 
L 655.469375 27.435625 
Q 653.269375 27.435625 653.269375 29.635625 
L 653.269375 106.334844 
Q 653.269375 108.534844 655.469375 108.534844 
z
" style="fill:#eaeaf2;opacity:0.8;stroke:#cccccc;stroke-linejoin:miter;"/>
    </g>
    <g id="patch_8">
     <path d="M 657.669375 39.709219 
L 679.669375 39.709219 
L 679.669375 32.009219 
L 657.669375 32.009219 
z
" style="fill:#4c72b0;fill-opacity:0.25;stroke:#4c72b0;stroke-linejoin:miter;"/>
    </g>
    <g id="text_16">
     <!-- 0.5m -->
     <g style="fill:#262626;" transform="translate(688.469375 39.709219)scale(0.11 -0.11)">
      <use xlink:href="#ArialMT-48"/>
      <use x="55.615234" xlink:href="#ArialMT-46"/>
      <use x="83.398438" xlink:href="#ArialMT-53"/>
      <use x="139.013672" xlink:href="#ArialMT-109"/>
     </g>
    </g>
    <g id="patch_9">
     <path d="M 657.669375 55.269063 
L 679.669375 55.269063 
L 679.669375 47.569063 
L 657.669375 47.569063 
z
" style="fill:#dd8452;fill-opacity:0.25;stroke:#dd8452;stroke-linejoin:miter;"/>
    </g>
    <g id="text_17">
     <!-- 1.0m -->
     <g style="fill:#262626;" transform="translate(688.469375 55.269063)scale(0.11 -0.11)">
      <use xlink:href="#ArialMT-49"/>
      <use x="55.615234" xlink:href="#ArialMT-46"/>
      <use x="83.398438" xlink:href="#ArialMT-48"/>
      <use x="139.013672" xlink:href="#ArialMT-109"/>
     </g>
    </g>
    <g id="patch_10">
     <path d="M 657.669375 70.828906 
L 679.669375 70.828906 
L 679.669375 63.128906 
L 657.669375 63.128906 
z
" style="fill:#55a868;fill-opacity:0.25;stroke:#55a868;stroke-linejoin:miter;"/>
    </g>
    <g id="text_18">
     <!-- 1.5m -->
     <g style="fill:#262626;" transform="translate(688.469375 70.828906)scale(0.11 -0.11)">
      <use xlink:href="#ArialMT-49"/>
      <use x="55.615234" xlink:href="#ArialMT-46"/>
      <use x="83.398438" xlink:href="#ArialMT-53"/>
      <use x="139.013672" xlink:href="#ArialMT-109"/>
     </g>
    </g>
    <g id="patch_11">
     <path d="M 657.669375 86.38875 
L 679.669375 86.38875 
L 679.669375 78.68875 
L 657.669375 78.68875 
z
" style="fill:#c44e52;fill-opacity:0.25;stroke:#c44e52;stroke-linejoin:miter;"/>
    </g>
    <g id="text_19">
     <!-- 2.0m -->
     <g style="fill:#262626;" transform="translate(688.469375 86.38875)scale(0.11 -0.11)">
      <use xlink:href="#ArialMT-50"/>
      <use x="55.615234" xlink:href="#ArialMT-46"/>
      <use x="83.398438" xlink:href="#ArialMT-48"/>
      <use x="139.013672" xlink:href="#ArialMT-109"/>
     </g>
    </g>
    <g id="patch_12">
     <path d="M 657.669375 101.948594 
L 679.669375 101.948594 
L 679.669375 94.248594 
L 657.669375 94.248594 
z
" style="fill:#8172b3;fill-opacity:0.25;stroke:#8172b3;stroke-linejoin:miter;"/>
    </g>
    <g id="text_20">
     <!-- 2.5m -->
     <g style="fill:#262626;" transform="translate(688.469375 101.948594)scale(0.11 -0.11)">
      <use xlink:href="#ArialMT-50"/>
      <use x="55.615234" xlink:href="#ArialMT-46"/>
      <use x="83.398438" xlink:href="#ArialMT-53"/>
      <use x="139.013672" xlink:href="#ArialMT-109"/>
     </g>
    </g>
   </g>
  </g>
 </g>
 <defs>
  <clipPath id="p0191c03c42">
   <rect height="326.16" width="669.6" x="53.222031" y="21.935625"/>
  </clipPath>
 </defs>
</svg>
