<?xml version="1.0" encoding="utf-8" standalone="no"?>
<!DOCTYPE svg PUBLIC "-//W3C//DTD SVG 1.1//EN"
  "http://www.w3.org/Graphics/SVG/1.1/DTD/svg11.dtd">
<!-- Created with matplotlib (https://matplotlib.org/) -->
<svg height="390.116719pt" version="1.1" viewBox="0 0 736.139062 390.116719" width="736.139062pt" xmlns="http://www.w3.org/2000/svg" xmlns:xlink="http://www.w3.org/1999/xlink">
 <metadata>
  <rdf:RDF xmlns:cc="http://creativecommons.org/ns#" xmlns:dc="http://purl.org/dc/elements/1.1/" xmlns:rdf="http://www.w3.org/1999/02/22-rdf-syntax-ns#">
   <cc:Work>
    <dc:type rdf:resource="http://purl.org/dc/dcmitype/StillImage"/>
    <dc:date>2021-02-09T20:39:58.157981</dc:date>
    <dc:format>image/svg+xml</dc:format>
    <dc:creator>
     <cc:Agent>
      <dc:title>Matplotlib v3.3.2, https://matplotlib.org/</dc:title>
     </cc:Agent>
    </dc:creator>
   </cc:Work>
  </rdf:RDF>
 </metadata>
 <defs>
  <style type="text/css">*{stroke-linecap:butt;stroke-linejoin:round;}</style>
 </defs>
 <g id="figure_1">
  <g id="patch_1">
   <path d="M 0 390.116719 
L 736.139062 390.116719 
L 736.139062 0 
L 0 0 
z
" style="fill:#ffffff;"/>
  </g>
  <g id="axes_1">
   <g id="patch_2">
    <path d="M 59.339063 348.095625 
L 728.939062 348.095625 
L 728.939062 21.935625 
L 59.339063 21.935625 
z
" style="fill:#eaeaf2;"/>
   </g>
   <g id="matplotlib.axis_1">
    <g id="xtick_1">
     <g id="line2d_1">
      <path clip-path="url(#p484c6f2bc8)" d="M 115.812339 348.095625 
L 115.812339 21.935625 
" style="fill:none;stroke:#ffffff;stroke-linecap:round;"/>
     </g>
     <g id="text_1">
      <!-- −90 -->
      <g style="fill:#262626;" transform="translate(106.482964 365.469219)scale(0.11 -0.11)">
       <defs>
        <path d="M 52.828125 31.203125 
L 5.5625 31.203125 
L 5.5625 39.40625 
L 52.828125 39.40625 
z
" id="ArialMT-8722"/>
        <path d="M 5.46875 16.546875 
L 13.921875 17.328125 
Q 14.984375 11.375 18.015625 8.6875 
Q 21.046875 6 25.78125 6 
Q 29.828125 6 32.875 7.859375 
Q 35.9375 9.71875 37.890625 12.8125 
Q 39.84375 15.921875 41.15625 21.1875 
Q 42.484375 26.46875 42.484375 31.9375 
Q 42.484375 32.515625 42.4375 33.6875 
Q 39.796875 29.5 35.234375 26.875 
Q 30.671875 24.265625 25.34375 24.265625 
Q 16.453125 24.265625 10.296875 30.703125 
Q 4.15625 37.15625 4.15625 47.703125 
Q 4.15625 58.59375 10.578125 65.234375 
Q 17 71.875 26.65625 71.875 
Q 33.640625 71.875 39.421875 68.109375 
Q 45.21875 64.359375 48.21875 57.390625 
Q 51.21875 50.4375 51.21875 37.25 
Q 51.21875 23.53125 48.234375 15.40625 
Q 45.265625 7.28125 39.375 3.03125 
Q 33.5 -1.21875 25.59375 -1.21875 
Q 17.1875 -1.21875 11.859375 3.4375 
Q 6.546875 8.109375 5.46875 16.546875 
z
M 41.453125 48.140625 
Q 41.453125 55.71875 37.421875 60.15625 
Q 33.40625 64.59375 27.734375 64.59375 
Q 21.875 64.59375 17.53125 59.8125 
Q 13.1875 55.03125 13.1875 47.40625 
Q 13.1875 40.578125 17.3125 36.296875 
Q 21.4375 32.03125 27.484375 32.03125 
Q 33.59375 32.03125 37.515625 36.296875 
Q 41.453125 40.578125 41.453125 48.140625 
z
" id="ArialMT-57"/>
        <path d="M 4.15625 35.296875 
Q 4.15625 48 6.765625 55.734375 
Q 9.375 63.484375 14.515625 67.671875 
Q 19.671875 71.875 27.484375 71.875 
Q 33.25 71.875 37.59375 69.546875 
Q 41.9375 67.234375 44.765625 62.859375 
Q 47.609375 58.5 49.21875 52.21875 
Q 50.828125 45.953125 50.828125 35.296875 
Q 50.828125 22.703125 48.234375 14.96875 
Q 45.65625 7.234375 40.5 3 
Q 35.359375 -1.21875 27.484375 -1.21875 
Q 17.140625 -1.21875 11.234375 6.203125 
Q 4.15625 15.140625 4.15625 35.296875 
z
M 13.1875 35.296875 
Q 13.1875 17.671875 17.3125 11.828125 
Q 21.4375 6 27.484375 6 
Q 33.546875 6 37.671875 11.859375 
Q 41.796875 17.71875 41.796875 35.296875 
Q 41.796875 52.984375 37.671875 58.78125 
Q 33.546875 64.59375 27.390625 64.59375 
Q 21.34375 64.59375 17.71875 59.46875 
Q 13.1875 52.9375 13.1875 35.296875 
z
" id="ArialMT-48"/>
       </defs>
       <use xlink:href="#ArialMT-8722"/>
       <use x="58.398438" xlink:href="#ArialMT-57"/>
       <use x="114.013672" xlink:href="#ArialMT-48"/>
      </g>
     </g>
    </g>
    <g id="xtick_2">
     <g id="line2d_2">
      <path clip-path="url(#p484c6f2bc8)" d="M 263.523237 348.095625 
L 263.523237 21.935625 
" style="fill:none;stroke:#ffffff;stroke-linecap:round;"/>
     </g>
     <g id="text_2">
      <!-- −85 -->
      <g style="fill:#262626;" transform="translate(254.193862 365.469219)scale(0.11 -0.11)">
       <defs>
        <path d="M 17.671875 38.8125 
Q 12.203125 40.828125 9.5625 44.53125 
Q 6.9375 48.25 6.9375 53.421875 
Q 6.9375 61.234375 12.546875 66.546875 
Q 18.171875 71.875 27.484375 71.875 
Q 36.859375 71.875 42.578125 66.421875 
Q 48.296875 60.984375 48.296875 53.171875 
Q 48.296875 48.1875 45.671875 44.5 
Q 43.0625 40.828125 37.75 38.8125 
Q 44.34375 36.671875 47.78125 31.875 
Q 51.21875 27.09375 51.21875 20.453125 
Q 51.21875 11.28125 44.71875 5.03125 
Q 38.234375 -1.21875 27.640625 -1.21875 
Q 17.046875 -1.21875 10.546875 5.046875 
Q 4.046875 11.328125 4.046875 20.703125 
Q 4.046875 27.6875 7.59375 32.390625 
Q 11.140625 37.109375 17.671875 38.8125 
z
M 15.921875 53.71875 
Q 15.921875 48.640625 19.1875 45.40625 
Q 22.46875 42.1875 27.6875 42.1875 
Q 32.765625 42.1875 36.015625 45.375 
Q 39.265625 48.578125 39.265625 53.21875 
Q 39.265625 58.0625 35.90625 61.359375 
Q 32.5625 64.65625 27.59375 64.65625 
Q 22.5625 64.65625 19.234375 61.421875 
Q 15.921875 58.203125 15.921875 53.71875 
z
M 13.09375 20.65625 
Q 13.09375 16.890625 14.875 13.375 
Q 16.65625 9.859375 20.171875 7.921875 
Q 23.6875 6 27.734375 6 
Q 34.03125 6 38.125 10.046875 
Q 42.234375 14.109375 42.234375 20.359375 
Q 42.234375 26.703125 38.015625 30.859375 
Q 33.796875 35.015625 27.4375 35.015625 
Q 21.234375 35.015625 17.15625 30.90625 
Q 13.09375 26.8125 13.09375 20.65625 
z
" id="ArialMT-56"/>
        <path d="M 4.15625 18.75 
L 13.375 19.53125 
Q 14.40625 12.796875 18.140625 9.390625 
Q 21.875 6 27.15625 6 
Q 33.5 6 37.890625 10.78125 
Q 42.28125 15.578125 42.28125 23.484375 
Q 42.28125 31 38.0625 35.34375 
Q 33.84375 39.703125 27 39.703125 
Q 22.75 39.703125 19.328125 37.765625 
Q 15.921875 35.84375 13.96875 32.765625 
L 5.71875 33.84375 
L 12.640625 70.609375 
L 48.25 70.609375 
L 48.25 62.203125 
L 19.671875 62.203125 
L 15.828125 42.96875 
Q 22.265625 47.46875 29.34375 47.46875 
Q 38.71875 47.46875 45.15625 40.96875 
Q 51.609375 34.46875 51.609375 24.265625 
Q 51.609375 14.546875 45.953125 7.46875 
Q 39.0625 -1.21875 27.15625 -1.21875 
Q 17.390625 -1.21875 11.203125 4.25 
Q 5.03125 9.71875 4.15625 18.75 
z
" id="ArialMT-53"/>
       </defs>
       <use xlink:href="#ArialMT-8722"/>
       <use x="58.398438" xlink:href="#ArialMT-56"/>
       <use x="114.013672" xlink:href="#ArialMT-53"/>
      </g>
     </g>
    </g>
    <g id="xtick_3">
     <g id="line2d_3">
      <path clip-path="url(#p484c6f2bc8)" d="M 411.234136 348.095625 
L 411.234136 21.935625 
" style="fill:none;stroke:#ffffff;stroke-linecap:round;"/>
     </g>
     <g id="text_3">
      <!-- −80 -->
      <g style="fill:#262626;" transform="translate(401.904761 365.469219)scale(0.11 -0.11)">
       <use xlink:href="#ArialMT-8722"/>
       <use x="58.398438" xlink:href="#ArialMT-56"/>
       <use x="114.013672" xlink:href="#ArialMT-48"/>
      </g>
     </g>
    </g>
    <g id="xtick_4">
     <g id="line2d_4">
      <path clip-path="url(#p484c6f2bc8)" d="M 558.945034 348.095625 
L 558.945034 21.935625 
" style="fill:none;stroke:#ffffff;stroke-linecap:round;"/>
     </g>
     <g id="text_4">
      <!-- −75 -->
      <g style="fill:#262626;" transform="translate(549.615659 365.469219)scale(0.11 -0.11)">
       <defs>
        <path d="M 4.734375 62.203125 
L 4.734375 70.65625 
L 51.078125 70.65625 
L 51.078125 63.8125 
Q 44.234375 56.546875 37.515625 44.484375 
Q 30.8125 32.421875 27.15625 19.671875 
Q 24.515625 10.6875 23.78125 0 
L 14.75 0 
Q 14.890625 8.453125 18.0625 20.40625 
Q 21.234375 32.375 27.171875 43.484375 
Q 33.109375 54.59375 39.796875 62.203125 
z
" id="ArialMT-55"/>
       </defs>
       <use xlink:href="#ArialMT-8722"/>
       <use x="58.398438" xlink:href="#ArialMT-55"/>
       <use x="114.013672" xlink:href="#ArialMT-53"/>
      </g>
     </g>
    </g>
    <g id="xtick_5">
     <g id="line2d_5">
      <path clip-path="url(#p484c6f2bc8)" d="M 706.655932 348.095625 
L 706.655932 21.935625 
" style="fill:none;stroke:#ffffff;stroke-linecap:round;"/>
     </g>
     <g id="text_5">
      <!-- −70 -->
      <g style="fill:#262626;" transform="translate(697.326557 365.469219)scale(0.11 -0.11)">
       <use xlink:href="#ArialMT-8722"/>
       <use x="58.398438" xlink:href="#ArialMT-55"/>
       <use x="114.013672" xlink:href="#ArialMT-48"/>
      </g>
     </g>
    </g>
    <g id="text_6">
     <!-- RSSI Value (Higher Values Stronger) -->
     <g style="fill:#262626;" transform="translate(295.981875 380.391094)scale(0.12 -0.12)">
      <defs>
       <path d="M 7.859375 0 
L 7.859375 71.578125 
L 39.59375 71.578125 
Q 49.171875 71.578125 54.140625 69.640625 
Q 59.125 67.71875 62.109375 62.828125 
Q 65.09375 57.953125 65.09375 52.046875 
Q 65.09375 44.4375 60.15625 39.203125 
Q 55.21875 33.984375 44.921875 32.5625 
Q 48.6875 30.765625 50.640625 29 
Q 54.78125 25.203125 58.5 19.484375 
L 70.953125 0 
L 59.03125 0 
L 49.5625 14.890625 
Q 45.40625 21.34375 42.71875 24.75 
Q 40.046875 28.171875 37.921875 29.53125 
Q 35.796875 30.90625 33.59375 31.453125 
Q 31.984375 31.78125 28.328125 31.78125 
L 17.328125 31.78125 
L 17.328125 0 
z
M 17.328125 39.984375 
L 37.703125 39.984375 
Q 44.1875 39.984375 47.84375 41.328125 
Q 51.515625 42.671875 53.421875 45.625 
Q 55.328125 48.578125 55.328125 52.046875 
Q 55.328125 57.125 51.640625 60.390625 
Q 47.953125 63.671875 39.984375 63.671875 
L 17.328125 63.671875 
z
" id="ArialMT-82"/>
       <path d="M 4.5 23 
L 13.421875 23.78125 
Q 14.0625 18.40625 16.375 14.96875 
Q 18.703125 11.53125 23.578125 9.40625 
Q 28.46875 7.28125 34.578125 7.28125 
Q 39.984375 7.28125 44.140625 8.890625 
Q 48.296875 10.5 50.3125 13.296875 
Q 52.34375 16.109375 52.34375 19.4375 
Q 52.34375 22.796875 50.390625 25.3125 
Q 48.4375 27.828125 43.953125 29.546875 
Q 41.0625 30.671875 31.203125 33.03125 
Q 21.34375 35.40625 17.390625 37.5 
Q 12.25 40.1875 9.734375 44.15625 
Q 7.234375 48.140625 7.234375 53.078125 
Q 7.234375 58.5 10.296875 63.203125 
Q 13.375 67.921875 19.28125 70.359375 
Q 25.203125 72.796875 32.421875 72.796875 
Q 40.375 72.796875 46.453125 70.234375 
Q 52.546875 67.671875 55.8125 62.6875 
Q 59.078125 57.71875 59.328125 51.421875 
L 50.25 50.734375 
Q 49.515625 57.515625 45.28125 60.984375 
Q 41.0625 64.453125 32.8125 64.453125 
Q 24.21875 64.453125 20.28125 61.296875 
Q 16.359375 58.15625 16.359375 53.71875 
Q 16.359375 49.859375 19.140625 47.359375 
Q 21.875 44.875 33.421875 42.265625 
Q 44.96875 39.65625 49.265625 37.703125 
Q 55.515625 34.8125 58.484375 30.390625 
Q 61.46875 25.984375 61.46875 20.21875 
Q 61.46875 14.5 58.203125 9.4375 
Q 54.9375 4.390625 48.796875 1.578125 
Q 42.671875 -1.21875 35.015625 -1.21875 
Q 25.296875 -1.21875 18.71875 1.609375 
Q 12.15625 4.4375 8.421875 10.125 
Q 4.6875 15.828125 4.5 23 
z
" id="ArialMT-83"/>
       <path d="M 9.328125 0 
L 9.328125 71.578125 
L 18.796875 71.578125 
L 18.796875 0 
z
" id="ArialMT-73"/>
       <path id="ArialMT-32"/>
       <path d="M 28.171875 0 
L 0.4375 71.578125 
L 10.6875 71.578125 
L 29.296875 19.578125 
Q 31.546875 13.328125 33.0625 7.859375 
Q 34.71875 13.71875 36.921875 19.578125 
L 56.25 71.578125 
L 65.921875 71.578125 
L 37.890625 0 
z
" id="ArialMT-86"/>
       <path d="M 40.4375 6.390625 
Q 35.546875 2.25 31.03125 0.53125 
Q 26.515625 -1.171875 21.34375 -1.171875 
Q 12.796875 -1.171875 8.203125 3 
Q 3.609375 7.171875 3.609375 13.671875 
Q 3.609375 17.484375 5.34375 20.625 
Q 7.078125 23.78125 9.890625 25.6875 
Q 12.703125 27.59375 16.21875 28.5625 
Q 18.796875 29.25 24.03125 29.890625 
Q 34.671875 31.15625 39.703125 32.90625 
Q 39.75 34.71875 39.75 35.203125 
Q 39.75 40.578125 37.25 42.78125 
Q 33.890625 45.75 27.25 45.75 
Q 21.046875 45.75 18.09375 43.578125 
Q 15.140625 41.40625 13.71875 35.890625 
L 5.125 37.0625 
Q 6.296875 42.578125 8.984375 45.96875 
Q 11.671875 49.359375 16.75 51.1875 
Q 21.828125 53.03125 28.515625 53.03125 
Q 35.15625 53.03125 39.296875 51.46875 
Q 43.453125 49.90625 45.40625 47.53125 
Q 47.359375 45.171875 48.140625 41.546875 
Q 48.578125 39.3125 48.578125 33.453125 
L 48.578125 21.734375 
Q 48.578125 9.46875 49.140625 6.21875 
Q 49.703125 2.984375 51.375 0 
L 42.1875 0 
Q 40.828125 2.734375 40.4375 6.390625 
z
M 39.703125 26.03125 
Q 34.90625 24.078125 25.34375 22.703125 
Q 19.921875 21.921875 17.671875 20.9375 
Q 15.4375 19.96875 14.203125 18.09375 
Q 12.984375 16.21875 12.984375 13.921875 
Q 12.984375 10.40625 15.640625 8.0625 
Q 18.3125 5.71875 23.4375 5.71875 
Q 28.515625 5.71875 32.46875 7.9375 
Q 36.421875 10.15625 38.28125 14.015625 
Q 39.703125 17 39.703125 22.796875 
z
" id="ArialMT-97"/>
       <path d="M 6.390625 0 
L 6.390625 71.578125 
L 15.1875 71.578125 
L 15.1875 0 
z
" id="ArialMT-108"/>
       <path d="M 40.578125 0 
L 40.578125 7.625 
Q 34.515625 -1.171875 24.125 -1.171875 
Q 19.53125 -1.171875 15.546875 0.578125 
Q 11.578125 2.34375 9.640625 5 
Q 7.71875 7.671875 6.9375 11.53125 
Q 6.390625 14.109375 6.390625 19.734375 
L 6.390625 51.859375 
L 15.1875 51.859375 
L 15.1875 23.09375 
Q 15.1875 16.21875 15.71875 13.8125 
Q 16.546875 10.359375 19.234375 8.375 
Q 21.921875 6.390625 25.875 6.390625 
Q 29.828125 6.390625 33.296875 8.421875 
Q 36.765625 10.453125 38.203125 13.9375 
Q 39.65625 17.4375 39.65625 24.078125 
L 39.65625 51.859375 
L 48.4375 51.859375 
L 48.4375 0 
z
" id="ArialMT-117"/>
       <path d="M 42.09375 16.703125 
L 51.171875 15.578125 
Q 49.03125 7.625 43.21875 3.21875 
Q 37.40625 -1.171875 28.375 -1.171875 
Q 17 -1.171875 10.328125 5.828125 
Q 3.65625 12.84375 3.65625 25.484375 
Q 3.65625 38.578125 10.390625 45.796875 
Q 17.140625 53.03125 27.875 53.03125 
Q 38.28125 53.03125 44.875 45.953125 
Q 51.46875 38.875 51.46875 26.03125 
Q 51.46875 25.25 51.421875 23.6875 
L 12.75 23.6875 
Q 13.234375 15.140625 17.578125 10.59375 
Q 21.921875 6.0625 28.421875 6.0625 
Q 33.25 6.0625 36.671875 8.59375 
Q 40.09375 11.140625 42.09375 16.703125 
z
M 13.234375 30.90625 
L 42.1875 30.90625 
Q 41.609375 37.453125 38.875 40.71875 
Q 34.671875 45.796875 27.984375 45.796875 
Q 21.921875 45.796875 17.796875 41.75 
Q 13.671875 37.703125 13.234375 30.90625 
z
" id="ArialMT-101"/>
       <path d="M 23.390625 -21.046875 
Q 16.109375 -11.859375 11.078125 0.4375 
Q 6.0625 12.75 6.0625 25.921875 
Q 6.0625 37.546875 9.8125 48.1875 
Q 14.203125 60.546875 23.390625 72.796875 
L 29.6875 72.796875 
Q 23.78125 62.640625 21.875 58.296875 
Q 18.890625 51.5625 17.1875 44.234375 
Q 15.09375 35.109375 15.09375 25.875 
Q 15.09375 2.390625 29.6875 -21.046875 
z
" id="ArialMT-40"/>
       <path d="M 8.015625 0 
L 8.015625 71.578125 
L 17.484375 71.578125 
L 17.484375 42.1875 
L 54.6875 42.1875 
L 54.6875 71.578125 
L 64.15625 71.578125 
L 64.15625 0 
L 54.6875 0 
L 54.6875 33.734375 
L 17.484375 33.734375 
L 17.484375 0 
z
" id="ArialMT-72"/>
       <path d="M 6.640625 61.46875 
L 6.640625 71.578125 
L 15.4375 71.578125 
L 15.4375 61.46875 
z
M 6.640625 0 
L 6.640625 51.859375 
L 15.4375 51.859375 
L 15.4375 0 
z
" id="ArialMT-105"/>
       <path d="M 4.984375 -4.296875 
L 13.53125 -5.5625 
Q 14.0625 -9.515625 16.5 -11.328125 
Q 19.78125 -13.765625 25.4375 -13.765625 
Q 31.546875 -13.765625 34.859375 -11.328125 
Q 38.1875 -8.890625 39.359375 -4.5 
Q 40.046875 -1.8125 39.984375 6.78125 
Q 34.234375 0 25.640625 0 
Q 14.9375 0 9.078125 7.71875 
Q 3.21875 15.4375 3.21875 26.21875 
Q 3.21875 33.640625 5.90625 39.90625 
Q 8.59375 46.1875 13.6875 49.609375 
Q 18.796875 53.03125 25.6875 53.03125 
Q 34.859375 53.03125 40.828125 45.609375 
L 40.828125 51.859375 
L 48.921875 51.859375 
L 48.921875 7.03125 
Q 48.921875 -5.078125 46.453125 -10.125 
Q 44 -15.1875 38.640625 -18.109375 
Q 33.296875 -21.046875 25.484375 -21.046875 
Q 16.21875 -21.046875 10.5 -16.875 
Q 4.78125 -12.703125 4.984375 -4.296875 
z
M 12.25 26.859375 
Q 12.25 16.65625 16.296875 11.96875 
Q 20.359375 7.28125 26.46875 7.28125 
Q 32.515625 7.28125 36.609375 11.9375 
Q 40.71875 16.609375 40.71875 26.5625 
Q 40.71875 36.078125 36.5 40.90625 
Q 32.28125 45.75 26.3125 45.75 
Q 20.453125 45.75 16.34375 40.984375 
Q 12.25 36.234375 12.25 26.859375 
z
" id="ArialMT-103"/>
       <path d="M 6.59375 0 
L 6.59375 71.578125 
L 15.375 71.578125 
L 15.375 45.90625 
Q 21.53125 53.03125 30.90625 53.03125 
Q 36.671875 53.03125 40.921875 50.75 
Q 45.171875 48.484375 47 44.484375 
Q 48.828125 40.484375 48.828125 32.859375 
L 48.828125 0 
L 40.046875 0 
L 40.046875 32.859375 
Q 40.046875 39.453125 37.1875 42.453125 
Q 34.328125 45.453125 29.109375 45.453125 
Q 25.203125 45.453125 21.75 43.421875 
Q 18.3125 41.40625 16.84375 37.9375 
Q 15.375 34.46875 15.375 28.375 
L 15.375 0 
z
" id="ArialMT-104"/>
       <path d="M 6.5 0 
L 6.5 51.859375 
L 14.40625 51.859375 
L 14.40625 44 
Q 17.4375 49.515625 20 51.265625 
Q 22.5625 53.03125 25.640625 53.03125 
Q 30.078125 53.03125 34.671875 50.203125 
L 31.640625 42.046875 
Q 28.421875 43.953125 25.203125 43.953125 
Q 22.3125 43.953125 20.015625 42.21875 
Q 17.71875 40.484375 16.75 37.40625 
Q 15.28125 32.71875 15.28125 27.15625 
L 15.28125 0 
z
" id="ArialMT-114"/>
       <path d="M 3.078125 15.484375 
L 11.765625 16.84375 
Q 12.5 11.625 15.84375 8.84375 
Q 19.1875 6.0625 25.203125 6.0625 
Q 31.25 6.0625 34.171875 8.515625 
Q 37.109375 10.984375 37.109375 14.3125 
Q 37.109375 17.28125 34.515625 19 
Q 32.71875 20.171875 25.53125 21.96875 
Q 15.875 24.421875 12.140625 26.203125 
Q 8.40625 27.984375 6.46875 31.125 
Q 4.546875 34.28125 4.546875 38.09375 
Q 4.546875 41.546875 6.125 44.5 
Q 7.71875 47.46875 10.453125 49.421875 
Q 12.5 50.921875 16.03125 51.96875 
Q 19.578125 53.03125 23.640625 53.03125 
Q 29.734375 53.03125 34.34375 51.265625 
Q 38.96875 49.515625 41.15625 46.5 
Q 43.359375 43.5 44.1875 38.484375 
L 35.59375 37.3125 
Q 35.015625 41.3125 32.203125 43.546875 
Q 29.390625 45.796875 24.265625 45.796875 
Q 18.21875 45.796875 15.625 43.796875 
Q 13.03125 41.796875 13.03125 39.109375 
Q 13.03125 37.40625 14.109375 36.03125 
Q 15.1875 34.625 17.484375 33.6875 
Q 18.796875 33.203125 25.25 31.453125 
Q 34.578125 28.953125 38.25 27.359375 
Q 41.9375 25.78125 44.03125 22.75 
Q 46.140625 19.734375 46.140625 15.234375 
Q 46.140625 10.84375 43.578125 6.953125 
Q 41.015625 3.078125 36.171875 0.953125 
Q 31.34375 -1.171875 25.25 -1.171875 
Q 15.140625 -1.171875 9.84375 3.03125 
Q 4.546875 7.234375 3.078125 15.484375 
z
" id="ArialMT-115"/>
       <path d="M 25.78125 7.859375 
L 27.046875 0.09375 
Q 23.34375 -0.6875 20.40625 -0.6875 
Q 15.625 -0.6875 12.984375 0.828125 
Q 10.359375 2.34375 9.28125 4.8125 
Q 8.203125 7.28125 8.203125 15.1875 
L 8.203125 45.015625 
L 1.765625 45.015625 
L 1.765625 51.859375 
L 8.203125 51.859375 
L 8.203125 64.703125 
L 16.9375 69.96875 
L 16.9375 51.859375 
L 25.78125 51.859375 
L 25.78125 45.015625 
L 16.9375 45.015625 
L 16.9375 14.703125 
Q 16.9375 10.9375 17.40625 9.859375 
Q 17.875 8.796875 18.921875 8.15625 
Q 19.96875 7.515625 21.921875 7.515625 
Q 23.390625 7.515625 25.78125 7.859375 
z
" id="ArialMT-116"/>
       <path d="M 3.328125 25.921875 
Q 3.328125 40.328125 11.328125 47.265625 
Q 18.015625 53.03125 27.640625 53.03125 
Q 38.328125 53.03125 45.109375 46.015625 
Q 51.90625 39.015625 51.90625 26.65625 
Q 51.90625 16.65625 48.90625 10.90625 
Q 45.90625 5.171875 40.15625 2 
Q 34.421875 -1.171875 27.640625 -1.171875 
Q 16.75 -1.171875 10.03125 5.8125 
Q 3.328125 12.796875 3.328125 25.921875 
z
M 12.359375 25.921875 
Q 12.359375 15.96875 16.703125 11.015625 
Q 21.046875 6.0625 27.640625 6.0625 
Q 34.1875 6.0625 38.53125 11.03125 
Q 42.875 16.015625 42.875 26.21875 
Q 42.875 35.84375 38.5 40.796875 
Q 34.125 45.75 27.640625 45.75 
Q 21.046875 45.75 16.703125 40.8125 
Q 12.359375 35.890625 12.359375 25.921875 
z
" id="ArialMT-111"/>
       <path d="M 6.59375 0 
L 6.59375 51.859375 
L 14.5 51.859375 
L 14.5 44.484375 
Q 20.21875 53.03125 31 53.03125 
Q 35.6875 53.03125 39.625 51.34375 
Q 43.5625 49.65625 45.515625 46.921875 
Q 47.46875 44.1875 48.25 40.4375 
Q 48.734375 37.984375 48.734375 31.890625 
L 48.734375 0 
L 39.9375 0 
L 39.9375 31.546875 
Q 39.9375 36.921875 38.90625 39.578125 
Q 37.890625 42.234375 35.28125 43.8125 
Q 32.671875 45.40625 29.15625 45.40625 
Q 23.53125 45.40625 19.453125 41.84375 
Q 15.375 38.28125 15.375 28.328125 
L 15.375 0 
z
" id="ArialMT-110"/>
       <path d="M 12.359375 -21.046875 
L 6.0625 -21.046875 
Q 20.65625 2.390625 20.65625 25.875 
Q 20.65625 35.0625 18.5625 44.09375 
Q 16.890625 51.421875 13.921875 58.15625 
Q 12.015625 62.546875 6.0625 72.796875 
L 12.359375 72.796875 
Q 21.53125 60.546875 25.921875 48.1875 
Q 29.6875 37.546875 29.6875 25.921875 
Q 29.6875 12.75 24.625 0.4375 
Q 19.578125 -11.859375 12.359375 -21.046875 
z
" id="ArialMT-41"/>
      </defs>
      <use xlink:href="#ArialMT-82"/>
      <use x="72.216797" xlink:href="#ArialMT-83"/>
      <use x="138.916016" xlink:href="#ArialMT-83"/>
      <use x="205.615234" xlink:href="#ArialMT-73"/>
      <use x="233.398438" xlink:href="#ArialMT-32"/>
      <use x="261.181641" xlink:href="#ArialMT-86"/>
      <use x="320.505859" xlink:href="#ArialMT-97"/>
      <use x="376.121094" xlink:href="#ArialMT-108"/>
      <use x="398.337891" xlink:href="#ArialMT-117"/>
      <use x="453.953125" xlink:href="#ArialMT-101"/>
      <use x="509.568359" xlink:href="#ArialMT-32"/>
      <use x="537.351562" xlink:href="#ArialMT-40"/>
      <use x="570.652344" xlink:href="#ArialMT-72"/>
      <use x="642.869141" xlink:href="#ArialMT-105"/>
      <use x="665.085938" xlink:href="#ArialMT-103"/>
      <use x="720.701172" xlink:href="#ArialMT-104"/>
      <use x="776.316406" xlink:href="#ArialMT-101"/>
      <use x="831.931641" xlink:href="#ArialMT-114"/>
      <use x="865.232422" xlink:href="#ArialMT-32"/>
      <use x="893.015625" xlink:href="#ArialMT-86"/>
      <use x="952.339844" xlink:href="#ArialMT-97"/>
      <use x="1007.955078" xlink:href="#ArialMT-108"/>
      <use x="1030.171875" xlink:href="#ArialMT-117"/>
      <use x="1085.787109" xlink:href="#ArialMT-101"/>
      <use x="1141.402344" xlink:href="#ArialMT-115"/>
      <use x="1191.402344" xlink:href="#ArialMT-32"/>
      <use x="1219.185547" xlink:href="#ArialMT-83"/>
      <use x="1285.884766" xlink:href="#ArialMT-116"/>
      <use x="1313.667969" xlink:href="#ArialMT-114"/>
      <use x="1346.96875" xlink:href="#ArialMT-111"/>
      <use x="1402.583984" xlink:href="#ArialMT-110"/>
      <use x="1458.199219" xlink:href="#ArialMT-103"/>
      <use x="1513.814453" xlink:href="#ArialMT-101"/>
      <use x="1569.429688" xlink:href="#ArialMT-114"/>
      <use x="1602.730469" xlink:href="#ArialMT-41"/>
     </g>
    </g>
   </g>
   <g id="matplotlib.axis_2">
    <g id="ytick_1">
     <g id="line2d_6">
      <path clip-path="url(#p484c6f2bc8)" d="M 59.339063 348.095625 
L 728.939062 348.095625 
" style="fill:none;stroke:#ffffff;stroke-linecap:round;"/>
     </g>
     <g id="text_7">
      <!-- 0.000 -->
      <g style="fill:#262626;" transform="translate(22.315 352.032422)scale(0.11 -0.11)">
       <defs>
        <path d="M 9.078125 0 
L 9.078125 10.015625 
L 19.09375 10.015625 
L 19.09375 0 
z
" id="ArialMT-46"/>
       </defs>
       <use xlink:href="#ArialMT-48"/>
       <use x="55.615234" xlink:href="#ArialMT-46"/>
       <use x="83.398438" xlink:href="#ArialMT-48"/>
       <use x="139.013672" xlink:href="#ArialMT-48"/>
       <use x="194.628906" xlink:href="#ArialMT-48"/>
      </g>
     </g>
    </g>
    <g id="ytick_2">
     <g id="line2d_7">
      <path clip-path="url(#p484c6f2bc8)" d="M 59.339063 308.904558 
L 728.939062 308.904558 
" style="fill:none;stroke:#ffffff;stroke-linecap:round;"/>
     </g>
     <g id="text_8">
      <!-- 0.025 -->
      <g style="fill:#262626;" transform="translate(22.315 312.841355)scale(0.11 -0.11)">
       <defs>
        <path d="M 50.34375 8.453125 
L 50.34375 0 
L 3.03125 0 
Q 2.9375 3.171875 4.046875 6.109375 
Q 5.859375 10.9375 9.828125 15.625 
Q 13.8125 20.3125 21.34375 26.46875 
Q 33.015625 36.03125 37.109375 41.625 
Q 41.21875 47.21875 41.21875 52.203125 
Q 41.21875 57.421875 37.46875 61 
Q 33.734375 64.59375 27.734375 64.59375 
Q 21.390625 64.59375 17.578125 60.78125 
Q 13.765625 56.984375 13.71875 50.25 
L 4.6875 51.171875 
Q 5.609375 61.28125 11.65625 66.578125 
Q 17.71875 71.875 27.9375 71.875 
Q 38.234375 71.875 44.234375 66.15625 
Q 50.25 60.453125 50.25 52 
Q 50.25 47.703125 48.484375 43.546875 
Q 46.734375 39.40625 42.65625 34.8125 
Q 38.578125 30.21875 29.109375 22.21875 
Q 21.1875 15.578125 18.9375 13.203125 
Q 16.703125 10.84375 15.234375 8.453125 
z
" id="ArialMT-50"/>
       </defs>
       <use xlink:href="#ArialMT-48"/>
       <use x="55.615234" xlink:href="#ArialMT-46"/>
       <use x="83.398438" xlink:href="#ArialMT-48"/>
       <use x="139.013672" xlink:href="#ArialMT-50"/>
       <use x="194.628906" xlink:href="#ArialMT-53"/>
      </g>
     </g>
    </g>
    <g id="ytick_3">
     <g id="line2d_8">
      <path clip-path="url(#p484c6f2bc8)" d="M 59.339063 269.713491 
L 728.939062 269.713491 
" style="fill:none;stroke:#ffffff;stroke-linecap:round;"/>
     </g>
     <g id="text_9">
      <!-- 0.050 -->
      <g style="fill:#262626;" transform="translate(22.315 273.650288)scale(0.11 -0.11)">
       <use xlink:href="#ArialMT-48"/>
       <use x="55.615234" xlink:href="#ArialMT-46"/>
       <use x="83.398438" xlink:href="#ArialMT-48"/>
       <use x="139.013672" xlink:href="#ArialMT-53"/>
       <use x="194.628906" xlink:href="#ArialMT-48"/>
      </g>
     </g>
    </g>
    <g id="ytick_4">
     <g id="line2d_9">
      <path clip-path="url(#p484c6f2bc8)" d="M 59.339063 230.522425 
L 728.939062 230.522425 
" style="fill:none;stroke:#ffffff;stroke-linecap:round;"/>
     </g>
     <g id="text_10">
      <!-- 0.075 -->
      <g style="fill:#262626;" transform="translate(22.315 234.459221)scale(0.11 -0.11)">
       <use xlink:href="#ArialMT-48"/>
       <use x="55.615234" xlink:href="#ArialMT-46"/>
       <use x="83.398438" xlink:href="#ArialMT-48"/>
       <use x="139.013672" xlink:href="#ArialMT-55"/>
       <use x="194.628906" xlink:href="#ArialMT-53"/>
      </g>
     </g>
    </g>
    <g id="ytick_5">
     <g id="line2d_10">
      <path clip-path="url(#p484c6f2bc8)" d="M 59.339063 191.331358 
L 728.939062 191.331358 
" style="fill:none;stroke:#ffffff;stroke-linecap:round;"/>
     </g>
     <g id="text_11">
      <!-- 0.100 -->
      <g style="fill:#262626;" transform="translate(22.315 195.268155)scale(0.11 -0.11)">
       <defs>
        <path d="M 37.25 0 
L 28.46875 0 
L 28.46875 56 
Q 25.296875 52.984375 20.140625 49.953125 
Q 14.984375 46.921875 10.890625 45.40625 
L 10.890625 53.90625 
Q 18.265625 57.375 23.78125 62.296875 
Q 29.296875 67.234375 31.59375 71.875 
L 37.25 71.875 
z
" id="ArialMT-49"/>
       </defs>
       <use xlink:href="#ArialMT-48"/>
       <use x="55.615234" xlink:href="#ArialMT-46"/>
       <use x="83.398438" xlink:href="#ArialMT-49"/>
       <use x="139.013672" xlink:href="#ArialMT-48"/>
       <use x="194.628906" xlink:href="#ArialMT-48"/>
      </g>
     </g>
    </g>
    <g id="ytick_6">
     <g id="line2d_11">
      <path clip-path="url(#p484c6f2bc8)" d="M 59.339063 152.140291 
L 728.939062 152.140291 
" style="fill:none;stroke:#ffffff;stroke-linecap:round;"/>
     </g>
     <g id="text_12">
      <!-- 0.125 -->
      <g style="fill:#262626;" transform="translate(22.315 156.077088)scale(0.11 -0.11)">
       <use xlink:href="#ArialMT-48"/>
       <use x="55.615234" xlink:href="#ArialMT-46"/>
       <use x="83.398438" xlink:href="#ArialMT-49"/>
       <use x="139.013672" xlink:href="#ArialMT-50"/>
       <use x="194.628906" xlink:href="#ArialMT-53"/>
      </g>
     </g>
    </g>
    <g id="ytick_7">
     <g id="line2d_12">
      <path clip-path="url(#p484c6f2bc8)" d="M 59.339063 112.949224 
L 728.939062 112.949224 
" style="fill:none;stroke:#ffffff;stroke-linecap:round;"/>
     </g>
     <g id="text_13">
      <!-- 0.150 -->
      <g style="fill:#262626;" transform="translate(22.315 116.886021)scale(0.11 -0.11)">
       <use xlink:href="#ArialMT-48"/>
       <use x="55.615234" xlink:href="#ArialMT-46"/>
       <use x="83.398438" xlink:href="#ArialMT-49"/>
       <use x="139.013672" xlink:href="#ArialMT-53"/>
       <use x="194.628906" xlink:href="#ArialMT-48"/>
      </g>
     </g>
    </g>
    <g id="ytick_8">
     <g id="line2d_13">
      <path clip-path="url(#p484c6f2bc8)" d="M 59.339063 73.758157 
L 728.939062 73.758157 
" style="fill:none;stroke:#ffffff;stroke-linecap:round;"/>
     </g>
     <g id="text_14">
      <!-- 0.175 -->
      <g style="fill:#262626;" transform="translate(22.315 77.694954)scale(0.11 -0.11)">
       <use xlink:href="#ArialMT-48"/>
       <use x="55.615234" xlink:href="#ArialMT-46"/>
       <use x="83.398438" xlink:href="#ArialMT-49"/>
       <use x="139.013672" xlink:href="#ArialMT-55"/>
       <use x="194.628906" xlink:href="#ArialMT-53"/>
      </g>
     </g>
    </g>
    <g id="ytick_9">
     <g id="line2d_14">
      <path clip-path="url(#p484c6f2bc8)" d="M 59.339063 34.56709 
L 728.939062 34.56709 
" style="fill:none;stroke:#ffffff;stroke-linecap:round;"/>
     </g>
     <g id="text_15">
      <!-- 0.200 -->
      <g style="fill:#262626;" transform="translate(22.315 38.503887)scale(0.11 -0.11)">
       <use xlink:href="#ArialMT-48"/>
       <use x="55.615234" xlink:href="#ArialMT-46"/>
       <use x="83.398438" xlink:href="#ArialMT-50"/>
       <use x="139.013672" xlink:href="#ArialMT-48"/>
       <use x="194.628906" xlink:href="#ArialMT-48"/>
      </g>
     </g>
    </g>
    <g id="text_16">
     <!-- Density Estimation -->
     <g style="fill:#262626;" transform="translate(15.789375 234.698438)rotate(-90)scale(0.12 -0.12)">
      <defs>
       <path d="M 7.71875 0 
L 7.71875 71.578125 
L 32.375 71.578125 
Q 40.71875 71.578125 45.125 70.5625 
Q 51.265625 69.140625 55.609375 65.4375 
Q 61.28125 60.640625 64.078125 53.1875 
Q 66.890625 45.75 66.890625 36.1875 
Q 66.890625 28.03125 64.984375 21.734375 
Q 63.09375 15.4375 60.109375 11.296875 
Q 57.125 7.171875 53.578125 4.796875 
Q 50.046875 2.4375 45.046875 1.21875 
Q 40.046875 0 33.546875 0 
z
M 17.1875 8.453125 
L 32.46875 8.453125 
Q 39.546875 8.453125 43.578125 9.765625 
Q 47.609375 11.078125 50 13.484375 
Q 53.375 16.84375 55.25 22.53125 
Q 57.125 28.21875 57.125 36.328125 
Q 57.125 47.5625 53.4375 53.59375 
Q 49.75 59.625 44.484375 61.671875 
Q 40.671875 63.140625 32.234375 63.140625 
L 17.1875 63.140625 
z
" id="ArialMT-68"/>
       <path d="M 6.203125 -19.96875 
L 5.21875 -11.71875 
Q 8.109375 -12.5 10.25 -12.5 
Q 13.1875 -12.5 14.9375 -11.515625 
Q 16.703125 -10.546875 17.828125 -8.796875 
Q 18.65625 -7.46875 20.515625 -2.25 
Q 20.75 -1.515625 21.296875 -0.09375 
L 1.609375 51.859375 
L 11.078125 51.859375 
L 21.875 21.828125 
Q 23.96875 16.109375 25.640625 9.8125 
Q 27.15625 15.875 29.25 21.625 
L 40.328125 51.859375 
L 49.125 51.859375 
L 29.390625 -0.875 
Q 26.21875 -9.421875 24.46875 -12.640625 
Q 22.125 -17 19.09375 -19.015625 
Q 16.0625 -21.046875 11.859375 -21.046875 
Q 9.328125 -21.046875 6.203125 -19.96875 
z
" id="ArialMT-121"/>
       <path d="M 7.90625 0 
L 7.90625 71.578125 
L 59.671875 71.578125 
L 59.671875 63.140625 
L 17.390625 63.140625 
L 17.390625 41.21875 
L 56.984375 41.21875 
L 56.984375 32.8125 
L 17.390625 32.8125 
L 17.390625 8.453125 
L 61.328125 8.453125 
L 61.328125 0 
z
" id="ArialMT-69"/>
       <path d="M 6.59375 0 
L 6.59375 51.859375 
L 14.453125 51.859375 
L 14.453125 44.578125 
Q 16.890625 48.390625 20.9375 50.703125 
Q 25 53.03125 30.171875 53.03125 
Q 35.9375 53.03125 39.625 50.640625 
Q 43.3125 48.25 44.828125 43.953125 
Q 50.984375 53.03125 60.84375 53.03125 
Q 68.5625 53.03125 72.703125 48.75 
Q 76.859375 44.484375 76.859375 35.59375 
L 76.859375 0 
L 68.109375 0 
L 68.109375 32.671875 
Q 68.109375 37.9375 67.25 40.25 
Q 66.40625 42.578125 64.15625 43.984375 
Q 61.921875 45.40625 58.890625 45.40625 
Q 53.421875 45.40625 49.796875 41.765625 
Q 46.1875 38.140625 46.1875 30.125 
L 46.1875 0 
L 37.40625 0 
L 37.40625 33.6875 
Q 37.40625 39.546875 35.25 42.46875 
Q 33.109375 45.40625 28.21875 45.40625 
Q 24.515625 45.40625 21.359375 43.453125 
Q 18.21875 41.5 16.796875 37.734375 
Q 15.375 33.984375 15.375 26.90625 
L 15.375 0 
z
" id="ArialMT-109"/>
      </defs>
      <use xlink:href="#ArialMT-68"/>
      <use x="72.216797" xlink:href="#ArialMT-101"/>
      <use x="127.832031" xlink:href="#ArialMT-110"/>
      <use x="183.447266" xlink:href="#ArialMT-115"/>
      <use x="233.447266" xlink:href="#ArialMT-105"/>
      <use x="255.664062" xlink:href="#ArialMT-116"/>
      <use x="283.447266" xlink:href="#ArialMT-121"/>
      <use x="333.447266" xlink:href="#ArialMT-32"/>
      <use x="361.230469" xlink:href="#ArialMT-69"/>
      <use x="427.929688" xlink:href="#ArialMT-115"/>
      <use x="477.929688" xlink:href="#ArialMT-116"/>
      <use x="505.712891" xlink:href="#ArialMT-105"/>
      <use x="527.929688" xlink:href="#ArialMT-109"/>
      <use x="611.230469" xlink:href="#ArialMT-97"/>
      <use x="666.845703" xlink:href="#ArialMT-116"/>
      <use x="694.628906" xlink:href="#ArialMT-105"/>
      <use x="716.845703" xlink:href="#ArialMT-111"/>
      <use x="772.460938" xlink:href="#ArialMT-110"/>
     </g>
    </g>
   </g>
   <g id="PolyCollection_1">
    <defs>
     <path d="M 96.851642 -42.061781 
L 96.851642 -42.021094 
L 98.37828 -42.021094 
L 99.904918 -42.021094 
L 101.431556 -42.021094 
L 102.958195 -42.021094 
L 104.484833 -42.021094 
L 106.011471 -42.021094 
L 107.538109 -42.021094 
L 109.064748 -42.021094 
L 110.591386 -42.021094 
L 112.118024 -42.021094 
L 113.644662 -42.021094 
L 115.171301 -42.021094 
L 116.697939 -42.021094 
L 118.224577 -42.021094 
L 119.751215 -42.021094 
L 121.277854 -42.021094 
L 122.804492 -42.021094 
L 124.33113 -42.021094 
L 125.857768 -42.021094 
L 127.384407 -42.021094 
L 128.911045 -42.021094 
L 130.437683 -42.021094 
L 131.964321 -42.021094 
L 133.49096 -42.021094 
L 135.017598 -42.021094 
L 136.544236 -42.021094 
L 138.070874 -42.021094 
L 139.597513 -42.021094 
L 141.124151 -42.021094 
L 142.650789 -42.021094 
L 144.177427 -42.021094 
L 145.704066 -42.021094 
L 147.230704 -42.021094 
L 148.757342 -42.021094 
L 150.28398 -42.021094 
L 151.810619 -42.021094 
L 153.337257 -42.021094 
L 154.863895 -42.021094 
L 156.390533 -42.021094 
L 157.917172 -42.021094 
L 159.44381 -42.021094 
L 160.970448 -42.021094 
L 162.497086 -42.021094 
L 164.023725 -42.021094 
L 165.550363 -42.021094 
L 167.077001 -42.021094 
L 168.603639 -42.021094 
L 170.130278 -42.021094 
L 171.656916 -42.021094 
L 173.183554 -42.021094 
L 174.710192 -42.021094 
L 176.236831 -42.021094 
L 177.763469 -42.021094 
L 179.290107 -42.021094 
L 180.816745 -42.021094 
L 182.343384 -42.021094 
L 183.870022 -42.021094 
L 185.39666 -42.021094 
L 186.923298 -42.021094 
L 188.449937 -42.021094 
L 189.976575 -42.021094 
L 191.503213 -42.021094 
L 193.029852 -42.021094 
L 194.55649 -42.021094 
L 196.083128 -42.021094 
L 197.609766 -42.021094 
L 199.136405 -42.021094 
L 200.663043 -42.021094 
L 202.189681 -42.021094 
L 203.716319 -42.021094 
L 205.242958 -42.021094 
L 206.769596 -42.021094 
L 208.296234 -42.021094 
L 209.822872 -42.021094 
L 211.349511 -42.021094 
L 212.876149 -42.021094 
L 214.402787 -42.021094 
L 215.929425 -42.021094 
L 217.456064 -42.021094 
L 218.982702 -42.021094 
L 220.50934 -42.021094 
L 222.035978 -42.021094 
L 223.562617 -42.021094 
L 225.089255 -42.021094 
L 226.615893 -42.021094 
L 228.142531 -42.021094 
L 229.66917 -42.021094 
L 231.195808 -42.021094 
L 232.722446 -42.021094 
L 234.249084 -42.021094 
L 235.775723 -42.021094 
L 237.302361 -42.021094 
L 238.828999 -42.021094 
L 240.355637 -42.021094 
L 241.882276 -42.021094 
L 243.408914 -42.021094 
L 244.935552 -42.021094 
L 246.46219 -42.021094 
L 247.988829 -42.021094 
L 249.515467 -42.021094 
L 251.042105 -42.021094 
L 252.568743 -42.021094 
L 254.095382 -42.021094 
L 255.62202 -42.021094 
L 257.148658 -42.021094 
L 258.675296 -42.021094 
L 260.201935 -42.021094 
L 261.728573 -42.021094 
L 263.255211 -42.021094 
L 264.781849 -42.021094 
L 266.308488 -42.021094 
L 267.835126 -42.021094 
L 269.361764 -42.021094 
L 270.888402 -42.021094 
L 272.415041 -42.021094 
L 273.941679 -42.021094 
L 275.468317 -42.021094 
L 276.994955 -42.021094 
L 278.521594 -42.021094 
L 280.048232 -42.021094 
L 281.57487 -42.021094 
L 283.101508 -42.021094 
L 284.628147 -42.021094 
L 286.154785 -42.021094 
L 287.681423 -42.021094 
L 289.208061 -42.021094 
L 290.7347 -42.021094 
L 292.261338 -42.021094 
L 293.787976 -42.021094 
L 295.314614 -42.021094 
L 296.841253 -42.021094 
L 298.367891 -42.021094 
L 299.894529 -42.021094 
L 301.421167 -42.021094 
L 302.947806 -42.021094 
L 304.474444 -42.021094 
L 306.001082 -42.021094 
L 307.52772 -42.021094 
L 309.054359 -42.021094 
L 310.580997 -42.021094 
L 312.107635 -42.021094 
L 313.634273 -42.021094 
L 315.160912 -42.021094 
L 316.68755 -42.021094 
L 318.214188 -42.021094 
L 319.740826 -42.021094 
L 321.267465 -42.021094 
L 322.794103 -42.021094 
L 324.320741 -42.021094 
L 325.847379 -42.021094 
L 327.374018 -42.021094 
L 328.900656 -42.021094 
L 330.427294 -42.021094 
L 331.953932 -42.021094 
L 333.480571 -42.021094 
L 335.007209 -42.021094 
L 336.533847 -42.021094 
L 338.060485 -42.021094 
L 339.587124 -42.021094 
L 341.113762 -42.021094 
L 342.6404 -42.021094 
L 344.167038 -42.021094 
L 345.693677 -42.021094 
L 347.220315 -42.021094 
L 348.746953 -42.021094 
L 350.273591 -42.021094 
L 351.80023 -42.021094 
L 353.326868 -42.021094 
L 354.853506 -42.021094 
L 356.380144 -42.021094 
L 357.906783 -42.021094 
L 359.433421 -42.021094 
L 360.960059 -42.021094 
L 362.486697 -42.021094 
L 364.013336 -42.021094 
L 365.539974 -42.021094 
L 367.066612 -42.021094 
L 368.59325 -42.021094 
L 370.119889 -42.021094 
L 371.646527 -42.021094 
L 373.173165 -42.021094 
L 374.699803 -42.021094 
L 376.226442 -42.021094 
L 377.75308 -42.021094 
L 379.279718 -42.021094 
L 380.806356 -42.021094 
L 382.332995 -42.021094 
L 383.859633 -42.021094 
L 385.386271 -42.021094 
L 386.912909 -42.021094 
L 388.439548 -42.021094 
L 389.966186 -42.021094 
L 391.492824 -42.021094 
L 393.019462 -42.021094 
L 394.546101 -42.021094 
L 396.072739 -42.021094 
L 397.599377 -42.021094 
L 399.126015 -42.021094 
L 400.652654 -42.021094 
L 400.652654 -42.214295 
L 400.652654 -42.214295 
L 399.126015 -42.276481 
L 397.599377 -42.355702 
L 396.072739 -42.455629 
L 394.546101 -42.580422 
L 393.019462 -42.734716 
L 391.492824 -42.92357 
L 389.966186 -43.152389 
L 388.439548 -43.426808 
L 386.912909 -43.752539 
L 385.386271 -44.135184 
L 383.859633 -44.580002 
L 382.332995 -45.091664 
L 380.806356 -45.673979 
L 379.279718 -46.329619 
L 377.75308 -47.059856 
L 376.226442 -47.864334 
L 374.699803 -48.740886 
L 373.173165 -49.685423 
L 371.646527 -50.691915 
L 370.119889 -51.752468 
L 368.59325 -52.857519 
L 367.066612 -53.996132 
L 365.539974 -55.156402 
L 364.013336 -56.325946 
L 362.486697 -57.492455 
L 360.960059 -58.644271 
L 359.433421 -59.770953 
L 357.906783 -60.8638 
L 356.380144 -61.916268 
L 354.853506 -62.924265 
L 353.326868 -63.886287 
L 351.80023 -64.803374 
L 350.273591 -65.67888 
L 348.746953 -66.518082 
L 347.220315 -67.327631 
L 345.693677 -68.114903 
L 344.167038 -68.887298 
L 342.6404 -69.651529 
L 341.113762 -70.412992 
L 339.587124 -71.175241 
L 338.060485 -71.93964 
L 336.533847 -72.705222 
L 335.007209 -73.468759 
L 333.480571 -74.225065 
L 331.953932 -74.967483 
L 330.427294 -75.688534 
L 328.900656 -76.380656 
L 327.374018 -77.036974 
L 325.847379 -77.652027 
L 324.320741 -78.222382 
L 322.794103 -78.747069 
L 321.267465 -79.227805 
L 319.740826 -79.668979 
L 318.214188 -80.077392 
L 316.68755 -80.461785 
L 315.160912 -80.832197 
L 313.634273 -81.199217 
L 312.107635 -81.573202 
L 310.580997 -81.96354 
L 309.054359 -82.378039 
L 307.52772 -82.822489 
L 306.001082 -83.300454 
L 304.474444 -83.813304 
L 302.947806 -84.360484 
L 301.421167 -84.939988 
L 299.894529 -85.548973 
L 298.367891 -86.184456 
L 296.841253 -86.843992 
L 295.314614 -87.526266 
L 293.787976 -88.231516 
L 292.261338 -88.961722 
L 290.7347 -89.720543 
L 289.208061 -90.51298 
L 287.681423 -91.344802 
L 286.154785 -92.221771 
L 284.628147 -93.148766 
L 283.101508 -94.128883 
L 281.57487 -95.162614 
L 280.048232 -96.247209 
L 278.521594 -97.376304 
L 276.994955 -98.539862 
L 275.468317 -99.724477 
L 273.941679 -100.914019 
L 272.415041 -102.090576 
L 270.888402 -103.235634 
L 269.361764 -104.33137 
L 267.835126 -105.361953 
L 266.308488 -106.314718 
L 264.781849 -107.181105 
L 263.255211 -107.957248 
L 261.728573 -108.644157 
L 260.201935 -109.247462 
L 258.675296 -109.776716 
L 257.148658 -110.244329 
L 255.62202 -110.664213 
L 254.095382 -111.050265 
L 252.568743 -111.414822 
L 251.042105 -111.767246 
L 249.515467 -112.112767 
L 247.988829 -112.4517 
L 246.46219 -112.779119 
L 244.935552 -113.085025 
L 243.408914 -113.354998 
L 241.882276 -113.571277 
L 240.355637 -113.71418 
L 238.828999 -113.76372 
L 237.302361 -113.701286 
L 235.775723 -113.511219 
L 234.249084 -113.182155 
L 232.722446 -112.707988 
L 231.195808 -112.088398 
L 229.66917 -111.328869 
L 228.142531 -110.440213 
L 226.615893 -109.437653 
L 225.089255 -108.339534 
L 223.562617 -107.165809 
L 222.035978 -105.936411 
L 220.50934 -104.669684 
L 218.982702 -103.380994 
L 217.456064 -102.081655 
L 215.929425 -100.778236 
L 214.402787 -99.472328 
L 212.876149 -98.160758 
L 211.349511 -96.836224 
L 209.822872 -95.488283 
L 208.296234 -94.104603 
L 206.769596 -92.672338 
L 205.242958 -91.179536 
L 203.716319 -89.616425 
L 202.189681 -87.976504 
L 200.663043 -86.257331 
L 199.136405 -84.460972 
L 197.609766 -82.594087 
L 196.083128 -80.667659 
L 194.55649 -78.696416 
L 193.029852 -76.697998 
L 191.503213 -74.69197 
L 189.976575 -72.698735 
L 188.449937 -70.738476 
L 186.923298 -68.830167 
L 185.39666 -66.990744 
L 183.870022 -65.234473 
L 182.343384 -63.572538 
L 180.816745 -62.012862 
L 179.290107 -60.560139 
L 177.763469 -59.216048 
L 176.236831 -57.979617 
L 174.710192 -56.847678 
L 173.183554 -55.815367 
L 171.656916 -54.876633 
L 170.130278 -54.024701 
L 168.603639 -53.252476 
L 167.077001 -52.552859 
L 165.550363 -51.918975 
L 164.023725 -51.344304 
L 162.497086 -50.822743 
L 160.970448 -50.348602 
L 159.44381 -49.916558 
L 157.917172 -49.52159 
L 156.390533 -49.158911 
L 154.863895 -48.823918 
L 153.337257 -48.512159 
L 151.810619 -48.21934 
L 150.28398 -47.941357 
L 148.757342 -47.674358 
L 147.230704 -47.41482 
L 145.704066 -47.159641 
L 144.177427 -46.906224 
L 142.650789 -46.652554 
L 141.124151 -46.397248 
L 139.597513 -46.139584 
L 138.070874 -45.879486 
L 136.544236 -45.617493 
L 135.017598 -45.354682 
L 133.49096 -45.092575 
L 131.964321 -44.833029 
L 130.437683 -44.578105 
L 128.911045 -44.32995 
L 127.384407 -44.09067 
L 125.857768 -43.862228 
L 124.33113 -43.646347 
L 122.804492 -43.444447 
L 121.277854 -43.2576 
L 119.751215 -43.086502 
L 118.224577 -42.931478 
L 116.697939 -42.792498 
L 115.171301 -42.669212 
L 113.644662 -42.560992 
L 112.118024 -42.466987 
L 110.591386 -42.386175 
L 109.064748 -42.317421 
L 107.538109 -42.259524 
L 106.011471 -42.211265 
L 104.484833 -42.171447 
L 102.958195 -42.138924 
L 101.431556 -42.112625 
L 99.904918 -42.09157 
L 98.37828 -42.074881 
L 96.851642 -42.061781 
z
" id="m3036fc941e" style="stroke:#8172b3;"/>
    </defs>
    <g clip-path="url(#p484c6f2bc8)">
     <use style="fill:#8172b3;fill-opacity:0.25;stroke:#8172b3;" x="0" xlink:href="#m3036fc941e" y="390.116719"/>
    </g>
   </g>
   <g id="PolyCollection_2">
    <defs>
     <path d="M 89.775426 -42.04787 
L 89.775426 -42.021094 
L 91.670088 -42.021094 
L 93.564751 -42.021094 
L 95.459413 -42.021094 
L 97.354075 -42.021094 
L 99.248738 -42.021094 
L 101.1434 -42.021094 
L 103.038062 -42.021094 
L 104.932725 -42.021094 
L 106.827387 -42.021094 
L 108.722049 -42.021094 
L 110.616712 -42.021094 
L 112.511374 -42.021094 
L 114.406036 -42.021094 
L 116.300699 -42.021094 
L 118.195361 -42.021094 
L 120.090023 -42.021094 
L 121.984686 -42.021094 
L 123.879348 -42.021094 
L 125.77401 -42.021094 
L 127.668673 -42.021094 
L 129.563335 -42.021094 
L 131.457997 -42.021094 
L 133.35266 -42.021094 
L 135.247322 -42.021094 
L 137.141984 -42.021094 
L 139.036647 -42.021094 
L 140.931309 -42.021094 
L 142.825971 -42.021094 
L 144.720634 -42.021094 
L 146.615296 -42.021094 
L 148.509958 -42.021094 
L 150.40462 -42.021094 
L 152.299283 -42.021094 
L 154.193945 -42.021094 
L 156.088607 -42.021094 
L 157.98327 -42.021094 
L 159.877932 -42.021094 
L 161.772594 -42.021094 
L 163.667257 -42.021094 
L 165.561919 -42.021094 
L 167.456581 -42.021094 
L 169.351244 -42.021094 
L 171.245906 -42.021094 
L 173.140568 -42.021094 
L 175.035231 -42.021094 
L 176.929893 -42.021094 
L 178.824555 -42.021094 
L 180.719218 -42.021094 
L 182.61388 -42.021094 
L 184.508542 -42.021094 
L 186.403205 -42.021094 
L 188.297867 -42.021094 
L 190.192529 -42.021094 
L 192.087192 -42.021094 
L 193.981854 -42.021094 
L 195.876516 -42.021094 
L 197.771179 -42.021094 
L 199.665841 -42.021094 
L 201.560503 -42.021094 
L 203.455166 -42.021094 
L 205.349828 -42.021094 
L 207.24449 -42.021094 
L 209.139152 -42.021094 
L 211.033815 -42.021094 
L 212.928477 -42.021094 
L 214.823139 -42.021094 
L 216.717802 -42.021094 
L 218.612464 -42.021094 
L 220.507126 -42.021094 
L 222.401789 -42.021094 
L 224.296451 -42.021094 
L 226.191113 -42.021094 
L 228.085776 -42.021094 
L 229.980438 -42.021094 
L 231.8751 -42.021094 
L 233.769763 -42.021094 
L 235.664425 -42.021094 
L 237.559087 -42.021094 
L 239.45375 -42.021094 
L 241.348412 -42.021094 
L 243.243074 -42.021094 
L 245.137737 -42.021094 
L 247.032399 -42.021094 
L 248.927061 -42.021094 
L 250.821724 -42.021094 
L 252.716386 -42.021094 
L 254.611048 -42.021094 
L 256.505711 -42.021094 
L 258.400373 -42.021094 
L 260.295035 -42.021094 
L 262.189698 -42.021094 
L 264.08436 -42.021094 
L 265.979022 -42.021094 
L 267.873685 -42.021094 
L 269.768347 -42.021094 
L 271.663009 -42.021094 
L 273.557671 -42.021094 
L 275.452334 -42.021094 
L 277.346996 -42.021094 
L 279.241658 -42.021094 
L 281.136321 -42.021094 
L 283.030983 -42.021094 
L 284.925645 -42.021094 
L 286.820308 -42.021094 
L 288.71497 -42.021094 
L 290.609632 -42.021094 
L 292.504295 -42.021094 
L 294.398957 -42.021094 
L 296.293619 -42.021094 
L 298.188282 -42.021094 
L 300.082944 -42.021094 
L 301.977606 -42.021094 
L 303.872269 -42.021094 
L 305.766931 -42.021094 
L 307.661593 -42.021094 
L 309.556256 -42.021094 
L 311.450918 -42.021094 
L 313.34558 -42.021094 
L 315.240243 -42.021094 
L 317.134905 -42.021094 
L 319.029567 -42.021094 
L 320.92423 -42.021094 
L 322.818892 -42.021094 
L 324.713554 -42.021094 
L 326.608217 -42.021094 
L 328.502879 -42.021094 
L 330.397541 -42.021094 
L 332.292204 -42.021094 
L 334.186866 -42.021094 
L 336.081528 -42.021094 
L 337.97619 -42.021094 
L 339.870853 -42.021094 
L 341.765515 -42.021094 
L 343.660177 -42.021094 
L 345.55484 -42.021094 
L 347.449502 -42.021094 
L 349.344164 -42.021094 
L 351.238827 -42.021094 
L 353.133489 -42.021094 
L 355.028151 -42.021094 
L 356.922814 -42.021094 
L 358.817476 -42.021094 
L 360.712138 -42.021094 
L 362.606801 -42.021094 
L 364.501463 -42.021094 
L 366.396125 -42.021094 
L 368.290788 -42.021094 
L 370.18545 -42.021094 
L 372.080112 -42.021094 
L 373.974775 -42.021094 
L 375.869437 -42.021094 
L 377.764099 -42.021094 
L 379.658762 -42.021094 
L 381.553424 -42.021094 
L 383.448086 -42.021094 
L 385.342749 -42.021094 
L 387.237411 -42.021094 
L 389.132073 -42.021094 
L 391.026736 -42.021094 
L 392.921398 -42.021094 
L 394.81606 -42.021094 
L 396.710722 -42.021094 
L 398.605385 -42.021094 
L 400.500047 -42.021094 
L 402.394709 -42.021094 
L 404.289372 -42.021094 
L 406.184034 -42.021094 
L 408.078696 -42.021094 
L 409.973359 -42.021094 
L 411.868021 -42.021094 
L 413.762683 -42.021094 
L 415.657346 -42.021094 
L 417.552008 -42.021094 
L 419.44667 -42.021094 
L 421.341333 -42.021094 
L 423.235995 -42.021094 
L 425.130657 -42.021094 
L 427.02532 -42.021094 
L 428.919982 -42.021094 
L 430.814644 -42.021094 
L 432.709307 -42.021094 
L 434.603969 -42.021094 
L 436.498631 -42.021094 
L 438.393294 -42.021094 
L 440.287956 -42.021094 
L 442.182618 -42.021094 
L 444.077281 -42.021094 
L 445.971943 -42.021094 
L 447.866605 -42.021094 
L 449.761268 -42.021094 
L 451.65593 -42.021094 
L 453.550592 -42.021094 
L 455.445255 -42.021094 
L 457.339917 -42.021094 
L 459.234579 -42.021094 
L 461.129241 -42.021094 
L 463.023904 -42.021094 
L 464.918566 -42.021094 
L 466.813228 -42.021094 
L 466.813228 -42.092184 
L 466.813228 -42.092184 
L 464.918566 -42.117252 
L 463.023904 -42.149816 
L 461.129241 -42.191632 
L 459.234579 -42.244708 
L 457.339917 -42.31129 
L 455.445255 -42.393838 
L 453.550592 -42.494973 
L 451.65593 -42.617411 
L 449.761268 -42.763867 
L 447.866605 -42.936943 
L 445.971943 -43.138993 
L 444.077281 -43.371984 
L 442.182618 -43.637336 
L 440.287956 -43.935787 
L 438.393294 -44.267253 
L 436.498631 -44.630733 
L 434.603969 -45.024243 
L 432.709307 -45.444805 
L 430.814644 -45.888496 
L 428.919982 -46.350552 
L 427.02532 -46.825547 
L 425.130657 -47.307616 
L 423.235995 -47.790728 
L 421.341333 -48.268994 
L 419.44667 -48.736984 
L 417.552008 -49.190024 
L 415.657346 -49.624483 
L 413.762683 -50.037989 
L 411.868021 -50.429598 
L 409.973359 -50.799875 
L 408.078696 -51.150908 
L 406.184034 -51.486243 
L 404.289372 -51.810756 
L 402.394709 -52.130469 
L 400.500047 -52.452338 
L 398.605385 -52.784016 
L 396.710722 -53.133607 
L 394.81606 -53.509435 
L 392.921398 -53.91981 
L 391.026736 -54.372813 
L 389.132073 -54.876084 
L 387.237411 -55.436613 
L 385.342749 -56.060524 
L 383.448086 -56.752857 
L 381.553424 -57.517345 
L 379.658762 -58.35619 
L 377.764099 -59.269872 
L 375.869437 -60.256991 
L 373.974775 -61.314184 
L 372.080112 -62.436133 
L 370.18545 -63.615689 
L 368.290788 -64.844124 
L 366.396125 -66.111507 
L 364.501463 -67.407193 
L 362.606801 -68.72039 
L 360.712138 -70.040771 
L 358.817476 -71.359061 
L 356.922814 -72.667555 
L 355.028151 -73.96052 
L 353.133489 -75.234416 
L 351.238827 -76.487942 
L 349.344164 -77.721874 
L 347.449502 -78.938736 
L 345.55484 -80.142335 
L 343.660177 -81.337216 
L 341.765515 -82.52811 
L 339.870853 -83.71943 
L 337.97619 -84.914889 
L 336.081528 -86.117255 
L 334.186866 -87.328287 
L 332.292204 -88.548806 
L 330.397541 -89.778902 
L 328.502879 -91.018183 
L 326.608217 -92.266024 
L 324.713554 -93.521743 
L 322.818892 -94.784632 
L 320.92423 -96.053835 
L 319.029567 -97.328042 
L 317.134905 -98.605048 
L 315.240243 -99.881213 
L 313.34558 -101.150929 
L 311.450918 -102.406158 
L 309.556256 -103.636161 
L 307.661593 -104.827476 
L 305.766931 -105.964197 
L 303.872269 -107.028574 
L 301.977606 -108.001878 
L 300.082944 -108.865488 
L 298.188282 -109.602066 
L 296.293619 -110.196714 
L 294.398957 -110.637974 
L 292.504295 -110.91855 
L 290.609632 -111.035678 
L 288.71497 -110.991089 
L 286.820308 -110.790571 
L 284.925645 -110.443181 
L 283.030983 -109.960204 
L 281.136321 -109.353993 
L 279.241658 -108.636805 
L 277.346996 -107.819803 
L 275.452334 -106.912309 
L 273.557671 -105.921394 
L 271.663009 -104.851856 
L 269.768347 -103.706536 
L 267.873685 -102.48694 
L 265.979022 -101.194062 
L 264.08436 -99.829284 
L 262.189698 -98.395239 
L 260.295035 -96.896519 
L 258.400373 -95.340144 
L 256.505711 -93.735739 
L 254.611048 -92.095408 
L 252.716386 -90.433319 
L 250.821724 -88.765081 
L 248.927061 -87.106962 
L 247.032399 -85.475077 
L 245.137737 -83.884592 
L 243.243074 -82.349058 
L 241.348412 -80.879897 
L 239.45375 -79.486085 
L 237.559087 -78.174024 
L 235.664425 -76.94758 
L 233.769763 -75.808244 
L 231.8751 -74.75538 
L 229.980438 -73.786499 
L 228.085776 -72.897526 
L 226.191113 -72.083038 
L 224.296451 -71.336458 
L 222.401789 -70.650213 
L 220.507126 -70.015873 
L 218.612464 -69.424296 
L 216.717802 -68.8658 
L 214.823139 -68.330387 
L 212.928477 -67.808022 
L 211.033815 -67.288973 
L 209.139152 -66.764175 
L 207.24449 -66.225623 
L 205.349828 -65.666716 
L 203.455166 -65.082562 
L 201.560503 -64.470165 
L 199.665841 -63.828504 
L 197.771179 -63.158474 
L 195.876516 -62.462699 
L 193.981854 -61.745226 
L 192.087192 -61.011141 
L 190.192529 -60.266142 
L 188.297867 -59.516097 
L 186.403205 -58.766655 
L 184.508542 -58.022914 
L 182.61388 -57.289197 
L 180.719218 -56.568917 
L 178.824555 -55.864566 
L 176.929893 -55.177782 
L 175.035231 -54.509486 
L 173.140568 -53.860068 
L 171.245906 -53.229579 
L 169.351244 -52.617911 
L 167.456581 -52.024945 
L 165.561919 -51.450645 
L 163.667257 -50.895106 
L 161.772594 -50.35855 
L 159.877932 -49.841276 
L 157.98327 -49.343599 
L 156.088607 -48.865764 
L 154.193945 -48.407878 
L 152.299283 -47.969855 
L 150.40462 -47.551391 
L 148.509958 -47.151971 
L 146.615296 -46.770902 
L 144.720634 -46.407373 
L 142.825971 -46.060531 
L 140.931309 -45.729554 
L 139.036647 -45.41373 
L 137.141984 -45.112508 
L 135.247322 -44.82554 
L 133.35266 -44.552686 
L 131.457997 -44.294008 
L 129.563335 -44.04973 
L 127.668673 -43.820186 
L 125.77401 -43.605759 
L 123.879348 -43.406817 
L 121.984686 -43.223644 
L 120.090023 -43.056395 
L 118.195361 -42.905046 
L 116.300699 -42.76938 
L 114.406036 -42.648969 
L 112.511374 -42.54319 
L 110.616712 -42.451238 
L 108.722049 -42.372162 
L 106.827387 -42.304896 
L 104.932725 -42.248307 
L 103.038062 -42.201228 
L 101.1434 -42.162498 
L 99.248738 -42.130993 
L 97.354075 -42.105654 
L 95.459413 -42.085503 
L 93.564751 -42.069658 
L 91.670088 -42.057339 
L 89.775426 -42.04787 
z
" id="mf5ae0bd7c7" style="stroke:#c44e52;"/>
    </defs>
    <g clip-path="url(#p484c6f2bc8)">
     <use style="fill:#c44e52;fill-opacity:0.25;stroke:#c44e52;" x="0" xlink:href="#mf5ae0bd7c7" y="390.116719"/>
    </g>
   </g>
   <g id="PolyCollection_3">
    <defs>
     <path d="M 330.593954 -42.043946 
L 330.593954 -42.021094 
L 331.552861 -42.021094 
L 332.511769 -42.021094 
L 333.470676 -42.021094 
L 334.429583 -42.021094 
L 335.38849 -42.021094 
L 336.347398 -42.021094 
L 337.306305 -42.021094 
L 338.265212 -42.021094 
L 339.224119 -42.021094 
L 340.183027 -42.021094 
L 341.141934 -42.021094 
L 342.100841 -42.021094 
L 343.059748 -42.021094 
L 344.018656 -42.021094 
L 344.977563 -42.021094 
L 345.93647 -42.021094 
L 346.895377 -42.021094 
L 347.854285 -42.021094 
L 348.813192 -42.021094 
L 349.772099 -42.021094 
L 350.731006 -42.021094 
L 351.689914 -42.021094 
L 352.648821 -42.021094 
L 353.607728 -42.021094 
L 354.566635 -42.021094 
L 355.525543 -42.021094 
L 356.48445 -42.021094 
L 357.443357 -42.021094 
L 358.402264 -42.021094 
L 359.361172 -42.021094 
L 360.320079 -42.021094 
L 361.278986 -42.021094 
L 362.237893 -42.021094 
L 363.196801 -42.021094 
L 364.155708 -42.021094 
L 365.114615 -42.021094 
L 366.073522 -42.021094 
L 367.03243 -42.021094 
L 367.991337 -42.021094 
L 368.950244 -42.021094 
L 369.909151 -42.021094 
L 370.868059 -42.021094 
L 371.826966 -42.021094 
L 372.785873 -42.021094 
L 373.74478 -42.021094 
L 374.703688 -42.021094 
L 375.662595 -42.021094 
L 376.621502 -42.021094 
L 377.580409 -42.021094 
L 378.539317 -42.021094 
L 379.498224 -42.021094 
L 380.457131 -42.021094 
L 381.416038 -42.021094 
L 382.374946 -42.021094 
L 383.333853 -42.021094 
L 384.29276 -42.021094 
L 385.251667 -42.021094 
L 386.210575 -42.021094 
L 387.169482 -42.021094 
L 388.128389 -42.021094 
L 389.087296 -42.021094 
L 390.046204 -42.021094 
L 391.005111 -42.021094 
L 391.964018 -42.021094 
L 392.922925 -42.021094 
L 393.881833 -42.021094 
L 394.84074 -42.021094 
L 395.799647 -42.021094 
L 396.758554 -42.021094 
L 397.717462 -42.021094 
L 398.676369 -42.021094 
L 399.635276 -42.021094 
L 400.594183 -42.021094 
L 401.553091 -42.021094 
L 402.511998 -42.021094 
L 403.470905 -42.021094 
L 404.429812 -42.021094 
L 405.38872 -42.021094 
L 406.347627 -42.021094 
L 407.306534 -42.021094 
L 408.265441 -42.021094 
L 409.224349 -42.021094 
L 410.183256 -42.021094 
L 411.142163 -42.021094 
L 412.10107 -42.021094 
L 413.059978 -42.021094 
L 414.018885 -42.021094 
L 414.977792 -42.021094 
L 415.936699 -42.021094 
L 416.895607 -42.021094 
L 417.854514 -42.021094 
L 418.813421 -42.021094 
L 419.772328 -42.021094 
L 420.731236 -42.021094 
L 421.690143 -42.021094 
L 422.64905 -42.021094 
L 423.607957 -42.021094 
L 424.566865 -42.021094 
L 425.525772 -42.021094 
L 426.484679 -42.021094 
L 427.443586 -42.021094 
L 428.402494 -42.021094 
L 429.361401 -42.021094 
L 430.320308 -42.021094 
L 431.279215 -42.021094 
L 432.238123 -42.021094 
L 433.19703 -42.021094 
L 434.155937 -42.021094 
L 435.114844 -42.021094 
L 436.073751 -42.021094 
L 437.032659 -42.021094 
L 437.991566 -42.021094 
L 438.950473 -42.021094 
L 439.90938 -42.021094 
L 440.868288 -42.021094 
L 441.827195 -42.021094 
L 442.786102 -42.021094 
L 443.745009 -42.021094 
L 444.703917 -42.021094 
L 445.662824 -42.021094 
L 446.621731 -42.021094 
L 447.580638 -42.021094 
L 448.539546 -42.021094 
L 449.498453 -42.021094 
L 450.45736 -42.021094 
L 451.416267 -42.021094 
L 452.375175 -42.021094 
L 453.334082 -42.021094 
L 454.292989 -42.021094 
L 455.251896 -42.021094 
L 456.210804 -42.021094 
L 457.169711 -42.021094 
L 458.128618 -42.021094 
L 459.087525 -42.021094 
L 460.046433 -42.021094 
L 461.00534 -42.021094 
L 461.964247 -42.021094 
L 462.923154 -42.021094 
L 463.882062 -42.021094 
L 464.840969 -42.021094 
L 465.799876 -42.021094 
L 466.758783 -42.021094 
L 467.717691 -42.021094 
L 468.676598 -42.021094 
L 469.635505 -42.021094 
L 470.594412 -42.021094 
L 471.55332 -42.021094 
L 472.512227 -42.021094 
L 473.471134 -42.021094 
L 474.430041 -42.021094 
L 475.388949 -42.021094 
L 476.347856 -42.021094 
L 477.306763 -42.021094 
L 478.26567 -42.021094 
L 479.224578 -42.021094 
L 480.183485 -42.021094 
L 481.142392 -42.021094 
L 482.101299 -42.021094 
L 483.060207 -42.021094 
L 484.019114 -42.021094 
L 484.978021 -42.021094 
L 485.936928 -42.021094 
L 486.895836 -42.021094 
L 487.854743 -42.021094 
L 488.81365 -42.021094 
L 489.772557 -42.021094 
L 490.731465 -42.021094 
L 491.690372 -42.021094 
L 492.649279 -42.021094 
L 493.608186 -42.021094 
L 494.567094 -42.021094 
L 495.526001 -42.021094 
L 496.484908 -42.021094 
L 497.443815 -42.021094 
L 498.402723 -42.021094 
L 499.36163 -42.021094 
L 500.320537 -42.021094 
L 501.279444 -42.021094 
L 502.238352 -42.021094 
L 503.197259 -42.021094 
L 504.156166 -42.021094 
L 505.115073 -42.021094 
L 506.073981 -42.021094 
L 507.032888 -42.021094 
L 507.991795 -42.021094 
L 508.950702 -42.021094 
L 509.90961 -42.021094 
L 510.868517 -42.021094 
L 511.827424 -42.021094 
L 512.786331 -42.021094 
L 513.745239 -42.021094 
L 514.704146 -42.021094 
L 515.663053 -42.021094 
L 516.62196 -42.021094 
L 517.580868 -42.021094 
L 518.539775 -42.021094 
L 519.498682 -42.021094 
L 520.457589 -42.021094 
L 521.416497 -42.021094 
L 521.416497 -42.066797 
L 521.416497 -42.066797 
L 520.457589 -42.088696 
L 519.498682 -42.119321 
L 518.539775 -42.161301 
L 517.580868 -42.21769 
L 516.62196 -42.291891 
L 515.663053 -42.387513 
L 514.704146 -42.508149 
L 513.745239 -42.657072 
L 512.786331 -42.836873 
L 511.827424 -43.049035 
L 510.868517 -43.293511 
L 509.90961 -43.568331 
L 508.950702 -43.869304 
L 507.991795 -44.189866 
L 507.032888 -44.521133 
L 506.073981 -44.852185 
L 505.115073 -45.170594 
L 504.156166 -45.463177 
L 503.197259 -45.716931 
L 502.238352 -45.920065 
L 501.279444 -46.063048 
L 500.320537 -46.139588 
L 499.36163 -46.147441 
L 498.402723 -46.089023 
L 497.443815 -45.971788 
L 496.484908 -45.808419 
L 495.526001 -45.616871 
L 494.567094 -45.420371 
L 493.608186 -45.247442 
L 492.649279 -45.132038 
L 491.690372 -45.113791 
L 490.731465 -45.238317 
L 489.772557 -45.557459 
L 488.81365 -46.12923 
L 487.854743 -47.017181 
L 486.895836 -48.288873 
L 485.936928 -50.013166 
L 484.978021 -52.256102 
L 484.019114 -55.075358 
L 483.060207 -58.513419 
L 482.101299 -62.589924 
L 481.142392 -67.293882 
L 480.183485 -72.57669 
L 479.224578 -78.347046 
L 478.26567 -84.468798 
L 477.306763 -90.762676 
L 476.347856 -97.012434 
L 475.388949 -102.975509 
L 474.430041 -108.397671 
L 473.471134 -113.030576 
L 472.512227 -116.650651 
L 471.55332 -119.077407 
L 470.594412 -120.189248 
L 469.635505 -119.935069 
L 468.676598 -118.340447 
L 467.717691 -115.507894 
L 466.758783 -111.611453 
L 465.799876 -106.886606 
L 464.840969 -101.617081 
L 463.882062 -96.120359 
L 462.923154 -90.733742 
L 461.964247 -85.802407 
L 461.00534 -81.670337 
L 460.046433 -78.674191 
L 459.087525 -77.139413 
L 458.128618 -77.377187 
L 457.169711 -79.680416 
L 456.210804 -84.316829 
L 455.251896 -91.517628 
L 454.292989 -101.460822 
L 453.334082 -114.249452 
L 452.375175 -129.886155 
L 451.416267 -148.246774 
L 450.45736 -169.056773 
L 449.498453 -191.874813 
L 448.539546 -216.087847 
L 447.580638 -240.921309 
L 446.621731 -265.466528 
L 445.662824 -288.725403 
L 444.703917 -309.669998 
L 443.745009 -327.312338 
L 442.786102 -340.777798 
L 441.827195 -349.374324 
L 440.868288 -352.649665 
L 439.90938 -350.429895 
L 438.950473 -342.834535 
L 437.991566 -330.266461 
L 437.032659 -313.377861 
L 436.073751 -293.016396 
L 435.114844 -270.158014 
L 434.155937 -245.8341 
L 433.19703 -221.060794 
L 432.238123 -196.777373 
L 431.279215 -173.798761 
L 430.320308 -152.784919 
L 429.361401 -134.22744 
L 428.402494 -118.451495 
L 427.443586 -105.629684 
L 426.484679 -95.803464 
L 425.525772 -88.907716 
L 424.566865 -84.794552 
L 423.607957 -83.253548 
L 422.64905 -84.026865 
L 421.690143 -86.819099 
L 420.731236 -91.302853 
L 419.772328 -97.121832 
L 418.813421 -103.893672 
L 417.854514 -111.214602 
L 416.895607 -118.667557 
L 415.936699 -125.834544 
L 414.977792 -132.313093 
L 414.018885 -137.735645 
L 413.059978 -141.789977 
L 412.10107 -144.238232 
L 411.142163 -144.932113 
L 410.183256 -143.822062 
L 409.224349 -140.959017 
L 408.265441 -136.488207 
L 407.306534 -130.635532 
L 406.347627 -123.687967 
L 405.38872 -115.970164 
L 404.429812 -107.819788 
L 403.470905 -99.564116 
L 402.511998 -91.500082 
L 401.553091 -83.879318 
L 400.594183 -76.898994 
L 399.635276 -70.698439 
L 398.676369 -65.360914 
L 397.717462 -60.919322 
L 396.758554 -57.364495 
L 395.799647 -54.654567 
L 394.84074 -52.724214 
L 393.881833 -51.492803 
L 392.922925 -50.870891 
L 391.964018 -50.764912 
L 391.005111 -51.080211 
L 390.046204 -51.722813 
L 389.087296 -52.600437 
L 388.128389 -53.623278 
L 387.169482 -54.704983 
L 386.210575 -55.764077 
L 385.251667 -56.725945 
L 384.29276 -57.52522 
L 383.333853 -58.108353 
L 382.374946 -58.435972 
L 381.416038 -58.484667 
L 380.457131 -58.24787 
L 379.498224 -57.735606 
L 378.539317 -56.973056 
L 377.580409 -55.998024 
L 376.621502 -54.857551 
L 375.662595 -53.604028 
L 374.703688 -52.291208 
L 373.74478 -50.970514 
L 372.785873 -49.68795 
L 371.826966 -48.481875 
L 370.868059 -47.3817 
L 369.909151 -46.407525 
L 368.950244 -45.57056 
L 367.991337 -44.874163 
L 367.03243 -44.315241 
L 366.073522 -43.885802 
L 365.114615 -43.574464 
L 364.155708 -43.367768 
L 363.196801 -43.251223 
L 362.237893 -43.210061 
L 361.278986 -43.229714 
L 360.320079 -43.296095 
L 359.361172 -43.395738 
L 358.402264 -43.515889 
L 357.443357 -43.644605 
L 356.48445 -43.77089 
L 355.525543 -43.884911 
L 354.566635 -43.978246 
L 353.607728 -44.044162 
L 352.648821 -44.077857 
L 351.689914 -44.076636 
L 350.731006 -44.039968 
L 349.772099 -43.969406 
L 348.813192 -43.86837 
L 347.854285 -43.74179 
L 346.895377 -43.595661 
L 345.93647 -43.436544 
L 344.977563 -43.271065 
L 344.018656 -43.105456 
L 343.059748 -42.945187 
L 342.100841 -42.794707 
L 341.141934 -42.6573 
L 340.183027 -42.535063 
L 339.224119 -42.428983 
L 338.265212 -42.339083 
L 337.306305 -42.264621 
L 336.347398 -42.204303 
L 335.38849 -42.156492 
L 334.429583 -42.119392 
L 333.470676 -42.091198 
L 332.511769 -42.070207 
L 331.552861 -42.054895 
L 330.593954 -42.043946 
z
" id="m9b0f287015" style="stroke:#55a868;"/>
    </defs>
    <g clip-path="url(#p484c6f2bc8)">
     <use style="fill:#55a868;fill-opacity:0.25;stroke:#55a868;" x="0" xlink:href="#m9b0f287015" y="390.116719"/>
    </g>
   </g>
   <g id="PolyCollection_4">
    <defs>
     <path d="M 353.453924 -42.230425 
L 353.453924 -42.021094 
L 354.331536 -42.021094 
L 355.209148 -42.021094 
L 356.08676 -42.021094 
L 356.964372 -42.021094 
L 357.841984 -42.021094 
L 358.719596 -42.021094 
L 359.597208 -42.021094 
L 360.47482 -42.021094 
L 361.352432 -42.021094 
L 362.230044 -42.021094 
L 363.107656 -42.021094 
L 363.985268 -42.021094 
L 364.86288 -42.021094 
L 365.740492 -42.021094 
L 366.618104 -42.021094 
L 367.495716 -42.021094 
L 368.373328 -42.021094 
L 369.25094 -42.021094 
L 370.128552 -42.021094 
L 371.006164 -42.021094 
L 371.883776 -42.021094 
L 372.761387 -42.021094 
L 373.638999 -42.021094 
L 374.516611 -42.021094 
L 375.394223 -42.021094 
L 376.271835 -42.021094 
L 377.149447 -42.021094 
L 378.027059 -42.021094 
L 378.904671 -42.021094 
L 379.782283 -42.021094 
L 380.659895 -42.021094 
L 381.537507 -42.021094 
L 382.415119 -42.021094 
L 383.292731 -42.021094 
L 384.170343 -42.021094 
L 385.047955 -42.021094 
L 385.925567 -42.021094 
L 386.803179 -42.021094 
L 387.680791 -42.021094 
L 388.558403 -42.021094 
L 389.436015 -42.021094 
L 390.313627 -42.021094 
L 391.191239 -42.021094 
L 392.068851 -42.021094 
L 392.946463 -42.021094 
L 393.824075 -42.021094 
L 394.701687 -42.021094 
L 395.579299 -42.021094 
L 396.456911 -42.021094 
L 397.334523 -42.021094 
L 398.212135 -42.021094 
L 399.089747 -42.021094 
L 399.967359 -42.021094 
L 400.844971 -42.021094 
L 401.722583 -42.021094 
L 402.600194 -42.021094 
L 403.477806 -42.021094 
L 404.355418 -42.021094 
L 405.23303 -42.021094 
L 406.110642 -42.021094 
L 406.988254 -42.021094 
L 407.865866 -42.021094 
L 408.743478 -42.021094 
L 409.62109 -42.021094 
L 410.498702 -42.021094 
L 411.376314 -42.021094 
L 412.253926 -42.021094 
L 413.131538 -42.021094 
L 414.00915 -42.021094 
L 414.886762 -42.021094 
L 415.764374 -42.021094 
L 416.641986 -42.021094 
L 417.519598 -42.021094 
L 418.39721 -42.021094 
L 419.274822 -42.021094 
L 420.152434 -42.021094 
L 421.030046 -42.021094 
L 421.907658 -42.021094 
L 422.78527 -42.021094 
L 423.662882 -42.021094 
L 424.540494 -42.021094 
L 425.418106 -42.021094 
L 426.295718 -42.021094 
L 427.17333 -42.021094 
L 428.050942 -42.021094 
L 428.928554 -42.021094 
L 429.806166 -42.021094 
L 430.683778 -42.021094 
L 431.56139 -42.021094 
L 432.439001 -42.021094 
L 433.316613 -42.021094 
L 434.194225 -42.021094 
L 435.071837 -42.021094 
L 435.949449 -42.021094 
L 436.827061 -42.021094 
L 437.704673 -42.021094 
L 438.582285 -42.021094 
L 439.459897 -42.021094 
L 440.337509 -42.021094 
L 441.215121 -42.021094 
L 442.092733 -42.021094 
L 442.970345 -42.021094 
L 443.847957 -42.021094 
L 444.725569 -42.021094 
L 445.603181 -42.021094 
L 446.480793 -42.021094 
L 447.358405 -42.021094 
L 448.236017 -42.021094 
L 449.113629 -42.021094 
L 449.991241 -42.021094 
L 450.868853 -42.021094 
L 451.746465 -42.021094 
L 452.624077 -42.021094 
L 453.501689 -42.021094 
L 454.379301 -42.021094 
L 455.256913 -42.021094 
L 456.134525 -42.021094 
L 457.012137 -42.021094 
L 457.889749 -42.021094 
L 458.767361 -42.021094 
L 459.644973 -42.021094 
L 460.522585 -42.021094 
L 461.400196 -42.021094 
L 462.277808 -42.021094 
L 463.15542 -42.021094 
L 464.033032 -42.021094 
L 464.910644 -42.021094 
L 465.788256 -42.021094 
L 466.665868 -42.021094 
L 467.54348 -42.021094 
L 468.421092 -42.021094 
L 469.298704 -42.021094 
L 470.176316 -42.021094 
L 471.053928 -42.021094 
L 471.93154 -42.021094 
L 472.809152 -42.021094 
L 473.686764 -42.021094 
L 474.564376 -42.021094 
L 475.441988 -42.021094 
L 476.3196 -42.021094 
L 477.197212 -42.021094 
L 478.074824 -42.021094 
L 478.952436 -42.021094 
L 479.830048 -42.021094 
L 480.70766 -42.021094 
L 481.585272 -42.021094 
L 482.462884 -42.021094 
L 483.340496 -42.021094 
L 484.218108 -42.021094 
L 485.09572 -42.021094 
L 485.973332 -42.021094 
L 486.850944 -42.021094 
L 487.728556 -42.021094 
L 488.606168 -42.021094 
L 489.48378 -42.021094 
L 490.361392 -42.021094 
L 491.239003 -42.021094 
L 492.116615 -42.021094 
L 492.994227 -42.021094 
L 493.871839 -42.021094 
L 494.749451 -42.021094 
L 495.627063 -42.021094 
L 496.504675 -42.021094 
L 497.382287 -42.021094 
L 498.259899 -42.021094 
L 499.137511 -42.021094 
L 500.015123 -42.021094 
L 500.892735 -42.021094 
L 501.770347 -42.021094 
L 502.647959 -42.021094 
L 503.525571 -42.021094 
L 504.403183 -42.021094 
L 505.280795 -42.021094 
L 506.158407 -42.021094 
L 507.036019 -42.021094 
L 507.913631 -42.021094 
L 508.791243 -42.021094 
L 509.668855 -42.021094 
L 510.546467 -42.021094 
L 511.424079 -42.021094 
L 512.301691 -42.021094 
L 513.179303 -42.021094 
L 514.056915 -42.021094 
L 514.934527 -42.021094 
L 515.812139 -42.021094 
L 516.689751 -42.021094 
L 517.567363 -42.021094 
L 518.444975 -42.021094 
L 519.322587 -42.021094 
L 520.200199 -42.021094 
L 521.07781 -42.021094 
L 521.955422 -42.021094 
L 522.833034 -42.021094 
L 523.710646 -42.021094 
L 524.588258 -42.021094 
L 525.46587 -42.021094 
L 526.343482 -42.021094 
L 527.221094 -42.021094 
L 528.098706 -42.021094 
L 528.098706 -42.265313 
L 528.098706 -42.265313 
L 527.221094 -42.342734 
L 526.343482 -42.441031 
L 525.46587 -42.564625 
L 524.588258 -42.718504 
L 523.710646 -42.908204 
L 522.833034 -43.139736 
L 521.955422 -43.419491 
L 521.07781 -43.754079 
L 520.200199 -44.150138 
L 519.322587 -44.61408 
L 518.444975 -45.151798 
L 517.567363 -45.768326 
L 516.689751 -46.467475 
L 515.812139 -47.251448 
L 514.934527 -48.120468 
L 514.056915 -49.072422 
L 513.179303 -50.102565 
L 512.301691 -51.203297 
L 511.424079 -52.364045 
L 510.546467 -53.571276 
L 509.668855 -54.808648 
L 508.791243 -56.057325 
L 507.913631 -57.296451 
L 507.036019 -58.503784 
L 506.158407 -59.656473 
L 505.280795 -60.731951 
L 504.403183 -61.708917 
L 503.525571 -62.568362 
L 502.647959 -63.294597 
L 501.770347 -63.876228 
L 500.892735 -64.307038 
L 500.015123 -64.586727 
L 499.137511 -64.721464 
L 498.259899 -64.724234 
L 497.382287 -64.61493 
L 496.504675 -64.420208 
L 495.627063 -64.173066 
L 494.749451 -63.912174 
L 493.871839 -63.680963 
L 492.994227 -63.526475 
L 492.116615 -63.498021 
L 491.239003 -63.645658 
L 490.361392 -64.018534 
L 489.48378 -64.663127 
L 488.606168 -65.621427 
L 487.728556 -66.929117 
L 486.850944 -68.613801 
L 485.973332 -70.693341 
L 485.09572 -73.174386 
L 484.218108 -76.051154 
L 483.340496 -79.304546 
L 482.462884 -82.901673 
L 481.585272 -86.795865 
L 480.70766 -90.927209 
L 479.830048 -95.223664 
L 478.952436 -99.60277 
L 478.074824 -103.973915 
L 477.197212 -108.241149 
L 476.3196 -112.306423 
L 475.441988 -116.07317 
L 474.564376 -119.450078 
L 473.686764 -122.354878 
L 472.809152 -124.718 
L 471.93154 -126.48589 
L 471.053928 -127.623835 
L 470.176316 -128.118153 
L 469.298704 -127.977609 
L 468.421092 -127.233992 
L 467.54348 -125.941803 
L 466.665868 -124.17705 
L 465.788256 -122.035206 
L 464.910644 -119.628392 
L 464.033032 -117.081901 
L 463.15542 -114.530193 
L 462.277808 -112.112502 
L 461.400196 -109.968205 
L 460.522585 -108.232108 
L 459.644973 -107.029779 
L 458.767361 -106.473084 
L 457.889749 -106.656036 
L 457.012137 -107.651087 
L 456.134525 -109.505968 
L 455.256913 -112.24119 
L 454.379301 -115.8483 
L 453.501689 -120.288979 
L 452.624077 -125.495075 
L 451.746465 -131.36962 
L 450.868853 -137.788879 
L 449.991241 -144.605432 
L 449.113629 -151.652256 
L 448.236017 -158.747736 
L 447.358405 -165.701453 
L 446.480793 -172.320587 
L 445.603181 -178.416693 
L 444.725569 -183.812585 
L 443.847957 -188.349026 
L 442.970345 -191.890924 
L 442.092733 -194.332732 
L 441.215121 -195.602782 
L 440.337509 -195.666331 
L 439.459897 -194.527165 
L 438.582285 -192.227653 
L 437.704673 -188.847278 
L 436.827061 -184.499688 
L 435.949449 -179.32843 
L 435.071837 -173.501583 
L 434.194225 -167.20553 
L 433.316613 -160.638186 
L 432.439001 -154.001947 
L 431.56139 -147.496691 
L 430.683778 -141.31306 
L 429.806166 -135.626298 
L 428.928554 -130.590799 
L 428.050942 -126.335545 
L 427.17333 -122.960511 
L 426.295718 -120.534107 
L 425.418106 -119.091686 
L 424.540494 -118.635095 
L 423.662882 -119.133269 
L 422.78527 -120.523791 
L 421.907658 -122.715378 
L 421.030046 -125.591211 
L 420.152434 -129.013018 
L 419.274822 -132.825792 
L 418.39721 -136.863036 
L 417.519598 -140.952366 
L 416.641986 -144.921301 
L 415.764374 -148.603064 
L 414.886762 -151.842171 
L 414.00915 -154.499601 
L 413.131538 -156.457351 
L 412.253926 -157.622161 
L 411.376314 -157.928283 
L 410.498702 -157.339134 
L 409.62109 -155.847798 
L 408.743478 -153.476346 
L 407.865866 -150.274029 
L 406.988254 -146.314448 
L 406.110642 -141.691867 
L 405.23303 -136.516859 
L 404.355418 -130.911518 
L 403.477806 -125.004482 
L 402.600194 -118.926002 
L 401.722583 -112.803278 
L 400.844971 -106.756254 
L 399.967359 -100.894032 
L 399.089747 -95.312004 
L 398.212135 -90.089758 
L 397.334523 -85.289789 
L 396.456911 -80.956968 
L 395.579299 -77.118716 
L 394.701687 -73.785793 
L 393.824075 -70.953602 
L 392.946463 -68.603885 
L 392.068851 -66.706708 
L 391.191239 -65.222613 
L 390.313627 -64.104862 
L 389.436015 -63.30166 
L 388.558403 -62.75831 
L 387.680791 -62.419229 
L 386.803179 -62.229784 
L 385.925567 -62.13791 
L 385.047955 -62.095499 
L 384.170343 -62.059521 
L 383.292731 -61.99289 
L 382.415119 -61.865054 
L 381.537507 -61.652322 
L 380.659895 -61.337939 
L 379.782283 -60.91191 
L 378.904671 -60.370615 
L 378.027059 -59.716228 
L 377.149447 -58.955982 
L 376.271835 -58.101318 
L 375.394223 -57.166954 
L 374.516611 -56.169933 
L 373.638999 -55.128665 
L 372.761387 -54.062034 
L 371.883776 -52.988578 
L 371.006164 -51.925784 
L 370.128552 -50.889511 
L 369.25094 -49.893562 
L 368.373328 -48.949388 
L 367.495716 -48.065949 
L 366.618104 -47.249684 
L 365.740492 -46.504609 
L 364.86288 -45.832503 
L 363.985268 -45.233149 
L 363.107656 -44.704643 
L 362.230044 -44.243708 
L 361.352432 -43.846022 
L 360.47482 -43.50653 
L 359.597208 -43.219732 
L 358.719596 -42.979938 
L 357.841984 -42.781478 
L 356.964372 -42.618877 
L 356.08676 -42.486979 
L 355.209148 -42.381041 
L 354.331536 -42.296786 
L 353.453924 -42.230425 
z
" id="m14c8d09d42" style="stroke:#dd8452;"/>
    </defs>
    <g clip-path="url(#p484c6f2bc8)">
     <use style="fill:#dd8452;fill-opacity:0.25;stroke:#dd8452;" x="0" xlink:href="#m14c8d09d42" y="390.116719"/>
    </g>
   </g>
   <g id="PolyCollection_5">
    <defs>
     <path d="M 537.556087 -42.067154 
L 537.556087 -42.021094 
L 538.364864 -42.021094 
L 539.173641 -42.021094 
L 539.982418 -42.021094 
L 540.791195 -42.021094 
L 541.599972 -42.021094 
L 542.408749 -42.021094 
L 543.217526 -42.021094 
L 544.026303 -42.021094 
L 544.835079 -42.021094 
L 545.643856 -42.021094 
L 546.452633 -42.021094 
L 547.26141 -42.021094 
L 548.070187 -42.021094 
L 548.878964 -42.021094 
L 549.687741 -42.021094 
L 550.496518 -42.021094 
L 551.305295 -42.021094 
L 552.114072 -42.021094 
L 552.922849 -42.021094 
L 553.731626 -42.021094 
L 554.540403 -42.021094 
L 555.34918 -42.021094 
L 556.157957 -42.021094 
L 556.966734 -42.021094 
L 557.775511 -42.021094 
L 558.584287 -42.021094 
L 559.393064 -42.021094 
L 560.201841 -42.021094 
L 561.010618 -42.021094 
L 561.819395 -42.021094 
L 562.628172 -42.021094 
L 563.436949 -42.021094 
L 564.245726 -42.021094 
L 565.054503 -42.021094 
L 565.86328 -42.021094 
L 566.672057 -42.021094 
L 567.480834 -42.021094 
L 568.289611 -42.021094 
L 569.098388 -42.021094 
L 569.907165 -42.021094 
L 570.715942 -42.021094 
L 571.524719 -42.021094 
L 572.333496 -42.021094 
L 573.142272 -42.021094 
L 573.951049 -42.021094 
L 574.759826 -42.021094 
L 575.568603 -42.021094 
L 576.37738 -42.021094 
L 577.186157 -42.021094 
L 577.994934 -42.021094 
L 578.803711 -42.021094 
L 579.612488 -42.021094 
L 580.421265 -42.021094 
L 581.230042 -42.021094 
L 582.038819 -42.021094 
L 582.847596 -42.021094 
L 583.656373 -42.021094 
L 584.46515 -42.021094 
L 585.273927 -42.021094 
L 586.082704 -42.021094 
L 586.891481 -42.021094 
L 587.700257 -42.021094 
L 588.509034 -42.021094 
L 589.317811 -42.021094 
L 590.126588 -42.021094 
L 590.935365 -42.021094 
L 591.744142 -42.021094 
L 592.552919 -42.021094 
L 593.361696 -42.021094 
L 594.170473 -42.021094 
L 594.97925 -42.021094 
L 595.788027 -42.021094 
L 596.596804 -42.021094 
L 597.405581 -42.021094 
L 598.214358 -42.021094 
L 599.023135 -42.021094 
L 599.831912 -42.021094 
L 600.640689 -42.021094 
L 601.449466 -42.021094 
L 602.258242 -42.021094 
L 603.067019 -42.021094 
L 603.875796 -42.021094 
L 604.684573 -42.021094 
L 605.49335 -42.021094 
L 606.302127 -42.021094 
L 607.110904 -42.021094 
L 607.919681 -42.021094 
L 608.728458 -42.021094 
L 609.537235 -42.021094 
L 610.346012 -42.021094 
L 611.154789 -42.021094 
L 611.963566 -42.021094 
L 612.772343 -42.021094 
L 613.58112 -42.021094 
L 614.389897 -42.021094 
L 615.198674 -42.021094 
L 616.007451 -42.021094 
L 616.816227 -42.021094 
L 617.625004 -42.021094 
L 618.433781 -42.021094 
L 619.242558 -42.021094 
L 620.051335 -42.021094 
L 620.860112 -42.021094 
L 621.668889 -42.021094 
L 622.477666 -42.021094 
L 623.286443 -42.021094 
L 624.09522 -42.021094 
L 624.903997 -42.021094 
L 625.712774 -42.021094 
L 626.521551 -42.021094 
L 627.330328 -42.021094 
L 628.139105 -42.021094 
L 628.947882 -42.021094 
L 629.756659 -42.021094 
L 630.565436 -42.021094 
L 631.374212 -42.021094 
L 632.182989 -42.021094 
L 632.991766 -42.021094 
L 633.800543 -42.021094 
L 634.60932 -42.021094 
L 635.418097 -42.021094 
L 636.226874 -42.021094 
L 637.035651 -42.021094 
L 637.844428 -42.021094 
L 638.653205 -42.021094 
L 639.461982 -42.021094 
L 640.270759 -42.021094 
L 641.079536 -42.021094 
L 641.888313 -42.021094 
L 642.69709 -42.021094 
L 643.505867 -42.021094 
L 644.314644 -42.021094 
L 645.123421 -42.021094 
L 645.932197 -42.021094 
L 646.740974 -42.021094 
L 647.549751 -42.021094 
L 648.358528 -42.021094 
L 649.167305 -42.021094 
L 649.976082 -42.021094 
L 650.784859 -42.021094 
L 651.593636 -42.021094 
L 652.402413 -42.021094 
L 653.21119 -42.021094 
L 654.019967 -42.021094 
L 654.828744 -42.021094 
L 655.637521 -42.021094 
L 656.446298 -42.021094 
L 657.255075 -42.021094 
L 658.063852 -42.021094 
L 658.872629 -42.021094 
L 659.681406 -42.021094 
L 660.490182 -42.021094 
L 661.298959 -42.021094 
L 662.107736 -42.021094 
L 662.916513 -42.021094 
L 663.72529 -42.021094 
L 664.534067 -42.021094 
L 665.342844 -42.021094 
L 666.151621 -42.021094 
L 666.960398 -42.021094 
L 667.769175 -42.021094 
L 668.577952 -42.021094 
L 669.386729 -42.021094 
L 670.195506 -42.021094 
L 671.004283 -42.021094 
L 671.81306 -42.021094 
L 672.621837 -42.021094 
L 673.430614 -42.021094 
L 674.239391 -42.021094 
L 675.048167 -42.021094 
L 675.856944 -42.021094 
L 676.665721 -42.021094 
L 677.474498 -42.021094 
L 678.283275 -42.021094 
L 679.092052 -42.021094 
L 679.900829 -42.021094 
L 680.709606 -42.021094 
L 681.518383 -42.021094 
L 682.32716 -42.021094 
L 683.135937 -42.021094 
L 683.944714 -42.021094 
L 684.753491 -42.021094 
L 685.562268 -42.021094 
L 686.371045 -42.021094 
L 687.179822 -42.021094 
L 687.988599 -42.021094 
L 688.797376 -42.021094 
L 689.606152 -42.021094 
L 690.414929 -42.021094 
L 691.223706 -42.021094 
L 692.032483 -42.021094 
L 692.84126 -42.021094 
L 693.650037 -42.021094 
L 694.458814 -42.021094 
L 695.267591 -42.021094 
L 696.076368 -42.021094 
L 696.885145 -42.021094 
L 697.693922 -42.021094 
L 698.502699 -42.021094 
L 698.502699 -42.136244 
L 698.502699 -42.136244 
L 697.693922 -42.181888 
L 696.885145 -42.242752 
L 696.076368 -42.322748 
L 695.267591 -42.426365 
L 694.458814 -42.558614 
L 693.650037 -42.724902 
L 692.84126 -42.930851 
L 692.032483 -43.182029 
L 691.223706 -43.483615 
L 690.414929 -43.839989 
L 689.606152 -44.254279 
L 688.797376 -44.727877 
L 687.988599 -45.259969 
L 687.179822 -45.847114 
L 686.371045 -46.482923 
L 685.562268 -47.157889 
L 684.753491 -47.859395 
L 683.944714 -48.571946 
L 683.135937 -49.277634 
L 682.32716 -49.956831 
L 681.518383 -50.589098 
L 680.709606 -51.154245 
L 679.900829 -51.633511 
L 679.092052 -52.010766 
L 678.283275 -52.273682 
L 677.474498 -52.414797 
L 676.665721 -52.432428 
L 675.856944 -52.331394 
L 675.048167 -52.123568 
L 674.239391 -51.828267 
L 673.430614 -51.472556 
L 672.621837 -51.091519 
L 671.81306 -50.728595 
L 671.004283 -50.43603 
L 670.195506 -50.275499 
L 669.386729 -50.318883 
L 668.577952 -50.649136 
L 667.769175 -51.361106 
L 666.960398 -52.562096 
L 666.151621 -54.37187 
L 665.342844 -56.9218 
L 664.534067 -60.352768 
L 663.72529 -64.811515 
L 662.916513 -70.445164 
L 662.107736 -77.393789 
L 661.298959 -85.781074 
L 660.490182 -95.703336 
L 659.681406 -107.217449 
L 658.872629 -120.328433 
L 658.063852 -134.977753 
L 657.255075 -151.033479 
L 656.446298 -168.283551 
L 655.637521 -186.433344 
L 654.828744 -205.108476 
L 654.019967 -223.863498 
L 653.21119 -242.196612 
L 652.402413 -259.57001 
L 651.593636 -275.43485 
L 650.784859 -289.259347 
L 649.976082 -300.558027 
L 649.167305 -308.91992 
L 648.358528 -314.03344 
L 647.549751 -315.705877 
L 646.740974 -313.875847 
L 645.932197 -308.617636 
L 645.123421 -300.137098 
L 644.314644 -288.759526 
L 643.505867 -274.910615 
L 642.69709 -259.092237 
L 641.888313 -241.855113 
L 641.079536 -223.770641 
L 640.270759 -205.404055 
L 639.461982 -187.290792 
L 638.653205 -169.91746 
L 637.844428 -153.708245 
L 637.035651 -139.016963 
L 636.226874 -126.124386 
L 635.418097 -115.240016 
L 634.60932 -106.507115 
L 633.800543 -100.009642 
L 632.991766 -95.779782 
L 632.182989 -93.80486 
L 631.374212 -94.032777 
L 630.565436 -96.375444 
L 629.756659 -100.710132 
L 628.947882 -106.879022 
L 628.139105 -114.687624 
L 627.330328 -123.902955 
L 626.521551 -134.252492 
L 625.712774 -145.424925 
L 624.903997 -157.073552 
L 624.09522 -168.822896 
L 623.286443 -180.27876 
L 622.477666 -191.041485 
L 621.668889 -200.721784 
L 620.860112 -208.958103 
L 620.051335 -215.434232 
L 619.242558 -219.895679 
L 618.433781 -222.163395 
L 617.625004 -222.143568 
L 616.816227 -219.832556 
L 616.007451 -215.316426 
L 615.198674 -208.765096 
L 614.389897 -200.42154 
L 613.58112 -190.586962 
L 612.772343 -179.60319 
L 611.963566 -167.833719 
L 611.154789 -155.644887 
L 610.346012 -143.388548 
L 609.537235 -131.387373 
L 608.728458 -119.923558 
L 607.919681 -109.231367 
L 607.110904 -99.49351 
L 606.302127 -90.841057 
L 605.49335 -83.356279 
L 604.684573 -77.077651 
L 603.875796 -72.006182 
L 603.067019 -68.112235 
L 602.258242 -65.342142 
L 601.449466 -63.624057 
L 600.640689 -62.872698 
L 599.831912 -62.992859 
L 599.023135 -63.881733 
L 598.214358 -65.430281 
L 597.405581 -67.523964 
L 596.596804 -70.043235 
L 595.788027 -72.864165 
L 594.97925 -75.859535 
L 594.170473 -78.900619 
L 593.361696 -81.859768 
L 592.552919 -84.613752 
L 591.744142 -87.047688 
L 590.935365 -89.059284 
L 590.126588 -90.563023 
L 589.317811 -91.493897 
L 588.509034 -91.810323 
L 587.700257 -91.495905 
L 586.891481 -90.55984 
L 586.082704 -89.035869 
L 585.273927 -86.979827 
L 584.46515 -84.465965 
L 583.656373 -81.582335 
L 582.847596 -78.425603 
L 582.038819 -75.095697 
L 581.230042 -71.690684 
L 580.421265 -68.302216 
L 579.612488 -65.011839 
L 578.803711 -61.888311 
L 577.994934 -58.986028 
L 577.186157 -56.344505 
L 576.37738 -53.988809 
L 575.568603 -51.930752 
L 574.759826 -50.170644 
L 573.951049 -48.699364 
L 573.142272 -47.50054 
L 572.333496 -46.552666 
L 571.524719 -45.830988 
L 570.715942 -45.309107 
L 569.907165 -44.960222 
L 569.098388 -44.75803 
L 568.289611 -44.677322 
L 567.480834 -44.694319 
L 566.672057 -44.786825 
L 565.86328 -44.934267 
L 565.054503 -45.117689 
L 564.245726 -45.319741 
L 563.436949 -45.524713 
L 562.628172 -45.718606 
L 561.819395 -45.889264 
L 561.010618 -46.026528 
L 560.201841 -46.122397 
L 559.393064 -46.171173 
L 558.584287 -46.169535 
L 557.775511 -46.116548 
L 556.966734 -46.013561 
L 556.157957 -45.864014 
L 555.34918 -45.673138 
L 554.540403 -45.447582 
L 553.731626 -45.194976 
L 552.922849 -44.923474 
L 552.114072 -44.641302 
L 551.305295 -44.35634 
L 550.496518 -44.075771 
L 549.687741 -43.805803 
L 548.878964 -43.55149 
L 548.070187 -43.316638 
L 547.26141 -43.103804 
L 546.452633 -42.914366 
L 545.643856 -42.748651 
L 544.835079 -42.606102 
L 544.026303 -42.485468 
L 543.217526 -42.384996 
L 542.408749 -42.302617 
L 541.599972 -42.236102 
L 540.791195 -42.183202 
L 539.982418 -42.141755 
L 539.173641 -42.109757 
L 538.364864 -42.085411 
L 537.556087 -42.067154 
z
" id="m794bbd9d74" style="stroke:#4c72b0;"/>
    </defs>
    <g clip-path="url(#p484c6f2bc8)">
     <use style="fill:#4c72b0;fill-opacity:0.25;stroke:#4c72b0;" x="0" xlink:href="#m794bbd9d74" y="390.116719"/>
    </g>
   </g>
   <g id="patch_3">
    <path d="M 59.339063 348.095625 
L 59.339063 21.935625 
" style="fill:none;stroke:#ffffff;stroke-linecap:square;stroke-linejoin:miter;stroke-width:1.25;"/>
   </g>
   <g id="patch_4">
    <path d="M 728.939062 348.095625 
L 728.939062 21.935625 
" style="fill:none;stroke:#ffffff;stroke-linecap:square;stroke-linejoin:miter;stroke-width:1.25;"/>
   </g>
   <g id="patch_5">
    <path d="M 59.339063 348.095625 
L 728.939063 348.095625 
" style="fill:none;stroke:#ffffff;stroke-linecap:square;stroke-linejoin:miter;stroke-width:1.25;"/>
   </g>
   <g id="patch_6">
    <path d="M 59.339063 21.935625 
L 728.939063 21.935625 
" style="fill:none;stroke:#ffffff;stroke-linecap:square;stroke-linejoin:miter;stroke-width:1.25;"/>
   </g>
   <g id="text_17">
    <!-- Density Estimation of RSSI Values at Different Distances -->
    <g style="fill:#262626;" transform="translate(243.629063 15.935625)scale(0.12 -0.12)">
     <defs>
      <path d="M 8.6875 0 
L 8.6875 45.015625 
L 0.921875 45.015625 
L 0.921875 51.859375 
L 8.6875 51.859375 
L 8.6875 57.375 
Q 8.6875 62.59375 9.625 65.140625 
Q 10.890625 68.5625 14.078125 70.671875 
Q 17.28125 72.796875 23.046875 72.796875 
Q 26.765625 72.796875 31.25 71.921875 
L 29.9375 64.265625 
Q 27.203125 64.75 24.75 64.75 
Q 20.75 64.75 19.09375 63.03125 
Q 17.4375 61.328125 17.4375 56.640625 
L 17.4375 51.859375 
L 27.546875 51.859375 
L 27.546875 45.015625 
L 17.4375 45.015625 
L 17.4375 0 
z
" id="ArialMT-102"/>
      <path d="M 40.4375 19 
L 49.078125 17.875 
Q 47.65625 8.9375 41.8125 3.875 
Q 35.984375 -1.171875 27.484375 -1.171875 
Q 16.84375 -1.171875 10.375 5.78125 
Q 3.90625 12.75 3.90625 25.734375 
Q 3.90625 34.125 6.6875 40.421875 
Q 9.46875 46.734375 15.15625 49.875 
Q 20.84375 53.03125 27.546875 53.03125 
Q 35.984375 53.03125 41.359375 48.75 
Q 46.734375 44.484375 48.25 36.625 
L 39.703125 35.296875 
Q 38.484375 40.53125 35.375 43.15625 
Q 32.28125 45.796875 27.875 45.796875 
Q 21.234375 45.796875 17.078125 41.03125 
Q 12.9375 36.28125 12.9375 25.984375 
Q 12.9375 15.53125 16.9375 10.796875 
Q 20.953125 6.0625 27.390625 6.0625 
Q 32.5625 6.0625 36.03125 9.234375 
Q 39.5 12.40625 40.4375 19 
z
" id="ArialMT-99"/>
     </defs>
     <use xlink:href="#ArialMT-68"/>
     <use x="72.216797" xlink:href="#ArialMT-101"/>
     <use x="127.832031" xlink:href="#ArialMT-110"/>
     <use x="183.447266" xlink:href="#ArialMT-115"/>
     <use x="233.447266" xlink:href="#ArialMT-105"/>
     <use x="255.664062" xlink:href="#ArialMT-116"/>
     <use x="283.447266" xlink:href="#ArialMT-121"/>
     <use x="333.447266" xlink:href="#ArialMT-32"/>
     <use x="361.230469" xlink:href="#ArialMT-69"/>
     <use x="427.929688" xlink:href="#ArialMT-115"/>
     <use x="477.929688" xlink:href="#ArialMT-116"/>
     <use x="505.712891" xlink:href="#ArialMT-105"/>
     <use x="527.929688" xlink:href="#ArialMT-109"/>
     <use x="611.230469" xlink:href="#ArialMT-97"/>
     <use x="666.845703" xlink:href="#ArialMT-116"/>
     <use x="694.628906" xlink:href="#ArialMT-105"/>
     <use x="716.845703" xlink:href="#ArialMT-111"/>
     <use x="772.460938" xlink:href="#ArialMT-110"/>
     <use x="828.076172" xlink:href="#ArialMT-32"/>
     <use x="855.859375" xlink:href="#ArialMT-111"/>
     <use x="911.474609" xlink:href="#ArialMT-102"/>
     <use x="939.257812" xlink:href="#ArialMT-32"/>
     <use x="967.041016" xlink:href="#ArialMT-82"/>
     <use x="1039.257812" xlink:href="#ArialMT-83"/>
     <use x="1105.957031" xlink:href="#ArialMT-83"/>
     <use x="1172.65625" xlink:href="#ArialMT-73"/>
     <use x="1200.439453" xlink:href="#ArialMT-32"/>
     <use x="1228.222656" xlink:href="#ArialMT-86"/>
     <use x="1287.546875" xlink:href="#ArialMT-97"/>
     <use x="1343.162109" xlink:href="#ArialMT-108"/>
     <use x="1365.378906" xlink:href="#ArialMT-117"/>
     <use x="1420.994141" xlink:href="#ArialMT-101"/>
     <use x="1476.609375" xlink:href="#ArialMT-115"/>
     <use x="1526.609375" xlink:href="#ArialMT-32"/>
     <use x="1554.392578" xlink:href="#ArialMT-97"/>
     <use x="1610.007812" xlink:href="#ArialMT-116"/>
     <use x="1637.791016" xlink:href="#ArialMT-32"/>
     <use x="1665.574219" xlink:href="#ArialMT-68"/>
     <use x="1737.791016" xlink:href="#ArialMT-105"/>
     <use x="1760.007812" xlink:href="#ArialMT-102"/>
     <use x="1786.041016" xlink:href="#ArialMT-102"/>
     <use x="1813.824219" xlink:href="#ArialMT-101"/>
     <use x="1869.439453" xlink:href="#ArialMT-114"/>
     <use x="1902.740234" xlink:href="#ArialMT-101"/>
     <use x="1958.355469" xlink:href="#ArialMT-110"/>
     <use x="2013.970703" xlink:href="#ArialMT-116"/>
     <use x="2041.753906" xlink:href="#ArialMT-32"/>
     <use x="2069.537109" xlink:href="#ArialMT-68"/>
     <use x="2141.753906" xlink:href="#ArialMT-105"/>
     <use x="2163.970703" xlink:href="#ArialMT-115"/>
     <use x="2213.970703" xlink:href="#ArialMT-116"/>
     <use x="2241.753906" xlink:href="#ArialMT-97"/>
     <use x="2297.369141" xlink:href="#ArialMT-110"/>
     <use x="2352.984375" xlink:href="#ArialMT-99"/>
     <use x="2402.984375" xlink:href="#ArialMT-101"/>
     <use x="2458.599609" xlink:href="#ArialMT-115"/>
    </g>
   </g>
   <g id="legend_1">
    <g id="patch_7">
     <path d="M 661.586406 108.534844 
L 721.239062 108.534844 
Q 723.439062 108.534844 723.439062 106.334844 
L 723.439062 29.635625 
Q 723.439062 27.435625 721.239062 27.435625 
L 661.586406 27.435625 
Q 659.386406 27.435625 659.386406 29.635625 
L 659.386406 106.334844 
Q 659.386406 108.534844 661.586406 108.534844 
z
" style="fill:#eaeaf2;opacity:0.8;stroke:#cccccc;stroke-linejoin:miter;"/>
    </g>
    <g id="patch_8">
     <path d="M 663.786406 39.709219 
L 685.786406 39.709219 
L 685.786406 32.009219 
L 663.786406 32.009219 
z
" style="fill:#4c72b0;fill-opacity:0.25;stroke:#4c72b0;stroke-linejoin:miter;"/>
    </g>
    <g id="text_18">
     <!-- 0.5m -->
     <g style="fill:#262626;" transform="translate(694.586406 39.709219)scale(0.11 -0.11)">
      <use xlink:href="#ArialMT-48"/>
      <use x="55.615234" xlink:href="#ArialMT-46"/>
      <use x="83.398438" xlink:href="#ArialMT-53"/>
      <use x="139.013672" xlink:href="#ArialMT-109"/>
     </g>
    </g>
    <g id="patch_9">
     <path d="M 663.786406 55.269063 
L 685.786406 55.269063 
L 685.786406 47.569063 
L 663.786406 47.569063 
z
" style="fill:#dd8452;fill-opacity:0.25;stroke:#dd8452;stroke-linejoin:miter;"/>
    </g>
    <g id="text_19">
     <!-- 1.0m -->
     <g style="fill:#262626;" transform="translate(694.586406 55.269063)scale(0.11 -0.11)">
      <use xlink:href="#ArialMT-49"/>
      <use x="55.615234" xlink:href="#ArialMT-46"/>
      <use x="83.398438" xlink:href="#ArialMT-48"/>
      <use x="139.013672" xlink:href="#ArialMT-109"/>
     </g>
    </g>
    <g id="patch_10">
     <path d="M 663.786406 70.828906 
L 685.786406 70.828906 
L 685.786406 63.128906 
L 663.786406 63.128906 
z
" style="fill:#55a868;fill-opacity:0.25;stroke:#55a868;stroke-linejoin:miter;"/>
    </g>
    <g id="text_20">
     <!-- 1.5m -->
     <g style="fill:#262626;" transform="translate(694.586406 70.828906)scale(0.11 -0.11)">
      <use xlink:href="#ArialMT-49"/>
      <use x="55.615234" xlink:href="#ArialMT-46"/>
      <use x="83.398438" xlink:href="#ArialMT-53"/>
      <use x="139.013672" xlink:href="#ArialMT-109"/>
     </g>
    </g>
    <g id="patch_11">
     <path d="M 663.786406 86.38875 
L 685.786406 86.38875 
L 685.786406 78.68875 
L 663.786406 78.68875 
z
" style="fill:#c44e52;fill-opacity:0.25;stroke:#c44e52;stroke-linejoin:miter;"/>
    </g>
    <g id="text_21">
     <!-- 2.0m -->
     <g style="fill:#262626;" transform="translate(694.586406 86.38875)scale(0.11 -0.11)">
      <use xlink:href="#ArialMT-50"/>
      <use x="55.615234" xlink:href="#ArialMT-46"/>
      <use x="83.398438" xlink:href="#ArialMT-48"/>
      <use x="139.013672" xlink:href="#ArialMT-109"/>
     </g>
    </g>
    <g id="patch_12">
     <path d="M 663.786406 101.948594 
L 685.786406 101.948594 
L 685.786406 94.248594 
L 663.786406 94.248594 
z
" style="fill:#8172b3;fill-opacity:0.25;stroke:#8172b3;stroke-linejoin:miter;"/>
    </g>
    <g id="text_22">
     <!-- 2.5m -->
     <g style="fill:#262626;" transform="translate(694.586406 101.948594)scale(0.11 -0.11)">
      <use xlink:href="#ArialMT-50"/>
      <use x="55.615234" xlink:href="#ArialMT-46"/>
      <use x="83.398438" xlink:href="#ArialMT-53"/>
      <use x="139.013672" xlink:href="#ArialMT-109"/>
     </g>
    </g>
   </g>
  </g>
 </g>
 <defs>
  <clipPath id="p484c6f2bc8">
   <rect height="326.16" width="669.6" x="59.339063" y="21.935625"/>
  </clipPath>
 </defs>
</svg>
